G04 #@! TF.GenerationSoftware,KiCad,Pcbnew,(5.1.5)-3*
G04 #@! TF.CreationDate,2020-04-21T12:57:46+02:00*
G04 #@! TF.ProjectId,RHS_3_Simple,5248535f-335f-4536-996d-706c652e6b69,rev?*
G04 #@! TF.SameCoordinates,Original*
G04 #@! TF.FileFunction,Copper,L1,Top*
G04 #@! TF.FilePolarity,Positive*
%FSLAX46Y46*%
G04 Gerber Fmt 4.6, Leading zero omitted, Abs format (unit mm)*
G04 Created by KiCad (PCBNEW (5.1.5)-3) date 2020-04-21 12:57:46*
%MOMM*%
%LPD*%
G04 APERTURE LIST*
%ADD10R,1.000000X2.580000*%
%ADD11R,10.500000X5.000000*%
%ADD12R,10.500000X10.500000*%
%ADD13C,0.100000*%
%ADD14R,0.800000X1.100000*%
%ADD15R,2.000000X1.000000*%
%ADD16C,2.000000*%
%ADD17C,0.800000*%
%ADD18C,0.250000*%
%ADD19C,0.254000*%
G04 APERTURE END LIST*
D10*
X108331000Y-140515000D03*
X108331000Y-136345000D03*
X96711000Y-140515000D03*
X96711000Y-136345000D03*
X98711000Y-140515000D03*
X98711000Y-136345000D03*
X100711000Y-140515000D03*
X100711000Y-136345000D03*
X102711000Y-140515000D03*
X102711000Y-136345000D03*
X104711000Y-140515000D03*
X104711000Y-136345000D03*
D11*
X100000000Y-178000000D03*
X100000000Y-145000000D03*
D12*
X100000000Y-161500000D03*
G04 #@! TA.AperFunction,SMDPad,CuDef*
D13*
G36*
X91272505Y-139763204D02*
G01*
X91296773Y-139766804D01*
X91320572Y-139772765D01*
X91343671Y-139781030D01*
X91365850Y-139791520D01*
X91386893Y-139804132D01*
X91406599Y-139818747D01*
X91424777Y-139835223D01*
X91441253Y-139853401D01*
X91455868Y-139873107D01*
X91468480Y-139894150D01*
X91478970Y-139916329D01*
X91487235Y-139939428D01*
X91493196Y-139963227D01*
X91496796Y-139987495D01*
X91498000Y-140011999D01*
X91498000Y-140912001D01*
X91496796Y-140936505D01*
X91493196Y-140960773D01*
X91487235Y-140984572D01*
X91478970Y-141007671D01*
X91468480Y-141029850D01*
X91455868Y-141050893D01*
X91441253Y-141070599D01*
X91424777Y-141088777D01*
X91406599Y-141105253D01*
X91386893Y-141119868D01*
X91365850Y-141132480D01*
X91343671Y-141142970D01*
X91320572Y-141151235D01*
X91296773Y-141157196D01*
X91272505Y-141160796D01*
X91248001Y-141162000D01*
X90597999Y-141162000D01*
X90573495Y-141160796D01*
X90549227Y-141157196D01*
X90525428Y-141151235D01*
X90502329Y-141142970D01*
X90480150Y-141132480D01*
X90459107Y-141119868D01*
X90439401Y-141105253D01*
X90421223Y-141088777D01*
X90404747Y-141070599D01*
X90390132Y-141050893D01*
X90377520Y-141029850D01*
X90367030Y-141007671D01*
X90358765Y-140984572D01*
X90352804Y-140960773D01*
X90349204Y-140936505D01*
X90348000Y-140912001D01*
X90348000Y-140011999D01*
X90349204Y-139987495D01*
X90352804Y-139963227D01*
X90358765Y-139939428D01*
X90367030Y-139916329D01*
X90377520Y-139894150D01*
X90390132Y-139873107D01*
X90404747Y-139853401D01*
X90421223Y-139835223D01*
X90439401Y-139818747D01*
X90459107Y-139804132D01*
X90480150Y-139791520D01*
X90502329Y-139781030D01*
X90525428Y-139772765D01*
X90549227Y-139766804D01*
X90573495Y-139763204D01*
X90597999Y-139762000D01*
X91248001Y-139762000D01*
X91272505Y-139763204D01*
G37*
G04 #@! TD.AperFunction*
G04 #@! TA.AperFunction,SMDPad,CuDef*
G36*
X93322505Y-139763204D02*
G01*
X93346773Y-139766804D01*
X93370572Y-139772765D01*
X93393671Y-139781030D01*
X93415850Y-139791520D01*
X93436893Y-139804132D01*
X93456599Y-139818747D01*
X93474777Y-139835223D01*
X93491253Y-139853401D01*
X93505868Y-139873107D01*
X93518480Y-139894150D01*
X93528970Y-139916329D01*
X93537235Y-139939428D01*
X93543196Y-139963227D01*
X93546796Y-139987495D01*
X93548000Y-140011999D01*
X93548000Y-140912001D01*
X93546796Y-140936505D01*
X93543196Y-140960773D01*
X93537235Y-140984572D01*
X93528970Y-141007671D01*
X93518480Y-141029850D01*
X93505868Y-141050893D01*
X93491253Y-141070599D01*
X93474777Y-141088777D01*
X93456599Y-141105253D01*
X93436893Y-141119868D01*
X93415850Y-141132480D01*
X93393671Y-141142970D01*
X93370572Y-141151235D01*
X93346773Y-141157196D01*
X93322505Y-141160796D01*
X93298001Y-141162000D01*
X92647999Y-141162000D01*
X92623495Y-141160796D01*
X92599227Y-141157196D01*
X92575428Y-141151235D01*
X92552329Y-141142970D01*
X92530150Y-141132480D01*
X92509107Y-141119868D01*
X92489401Y-141105253D01*
X92471223Y-141088777D01*
X92454747Y-141070599D01*
X92440132Y-141050893D01*
X92427520Y-141029850D01*
X92417030Y-141007671D01*
X92408765Y-140984572D01*
X92402804Y-140960773D01*
X92399204Y-140936505D01*
X92398000Y-140912001D01*
X92398000Y-140011999D01*
X92399204Y-139987495D01*
X92402804Y-139963227D01*
X92408765Y-139939428D01*
X92417030Y-139916329D01*
X92427520Y-139894150D01*
X92440132Y-139873107D01*
X92454747Y-139853401D01*
X92471223Y-139835223D01*
X92489401Y-139818747D01*
X92509107Y-139804132D01*
X92530150Y-139791520D01*
X92552329Y-139781030D01*
X92575428Y-139772765D01*
X92599227Y-139766804D01*
X92623495Y-139763204D01*
X92647999Y-139762000D01*
X93298001Y-139762000D01*
X93322505Y-139763204D01*
G37*
G04 #@! TD.AperFunction*
G04 #@! TA.AperFunction,SMDPad,CuDef*
G36*
X91262505Y-137731204D02*
G01*
X91286773Y-137734804D01*
X91310572Y-137740765D01*
X91333671Y-137749030D01*
X91355850Y-137759520D01*
X91376893Y-137772132D01*
X91396599Y-137786747D01*
X91414777Y-137803223D01*
X91431253Y-137821401D01*
X91445868Y-137841107D01*
X91458480Y-137862150D01*
X91468970Y-137884329D01*
X91477235Y-137907428D01*
X91483196Y-137931227D01*
X91486796Y-137955495D01*
X91488000Y-137979999D01*
X91488000Y-138880001D01*
X91486796Y-138904505D01*
X91483196Y-138928773D01*
X91477235Y-138952572D01*
X91468970Y-138975671D01*
X91458480Y-138997850D01*
X91445868Y-139018893D01*
X91431253Y-139038599D01*
X91414777Y-139056777D01*
X91396599Y-139073253D01*
X91376893Y-139087868D01*
X91355850Y-139100480D01*
X91333671Y-139110970D01*
X91310572Y-139119235D01*
X91286773Y-139125196D01*
X91262505Y-139128796D01*
X91238001Y-139130000D01*
X90587999Y-139130000D01*
X90563495Y-139128796D01*
X90539227Y-139125196D01*
X90515428Y-139119235D01*
X90492329Y-139110970D01*
X90470150Y-139100480D01*
X90449107Y-139087868D01*
X90429401Y-139073253D01*
X90411223Y-139056777D01*
X90394747Y-139038599D01*
X90380132Y-139018893D01*
X90367520Y-138997850D01*
X90357030Y-138975671D01*
X90348765Y-138952572D01*
X90342804Y-138928773D01*
X90339204Y-138904505D01*
X90338000Y-138880001D01*
X90338000Y-137979999D01*
X90339204Y-137955495D01*
X90342804Y-137931227D01*
X90348765Y-137907428D01*
X90357030Y-137884329D01*
X90367520Y-137862150D01*
X90380132Y-137841107D01*
X90394747Y-137821401D01*
X90411223Y-137803223D01*
X90429401Y-137786747D01*
X90449107Y-137772132D01*
X90470150Y-137759520D01*
X90492329Y-137749030D01*
X90515428Y-137740765D01*
X90539227Y-137734804D01*
X90563495Y-137731204D01*
X90587999Y-137730000D01*
X91238001Y-137730000D01*
X91262505Y-137731204D01*
G37*
G04 #@! TD.AperFunction*
G04 #@! TA.AperFunction,SMDPad,CuDef*
G36*
X93312505Y-137731204D02*
G01*
X93336773Y-137734804D01*
X93360572Y-137740765D01*
X93383671Y-137749030D01*
X93405850Y-137759520D01*
X93426893Y-137772132D01*
X93446599Y-137786747D01*
X93464777Y-137803223D01*
X93481253Y-137821401D01*
X93495868Y-137841107D01*
X93508480Y-137862150D01*
X93518970Y-137884329D01*
X93527235Y-137907428D01*
X93533196Y-137931227D01*
X93536796Y-137955495D01*
X93538000Y-137979999D01*
X93538000Y-138880001D01*
X93536796Y-138904505D01*
X93533196Y-138928773D01*
X93527235Y-138952572D01*
X93518970Y-138975671D01*
X93508480Y-138997850D01*
X93495868Y-139018893D01*
X93481253Y-139038599D01*
X93464777Y-139056777D01*
X93446599Y-139073253D01*
X93426893Y-139087868D01*
X93405850Y-139100480D01*
X93383671Y-139110970D01*
X93360572Y-139119235D01*
X93336773Y-139125196D01*
X93312505Y-139128796D01*
X93288001Y-139130000D01*
X92637999Y-139130000D01*
X92613495Y-139128796D01*
X92589227Y-139125196D01*
X92565428Y-139119235D01*
X92542329Y-139110970D01*
X92520150Y-139100480D01*
X92499107Y-139087868D01*
X92479401Y-139073253D01*
X92461223Y-139056777D01*
X92444747Y-139038599D01*
X92430132Y-139018893D01*
X92417520Y-138997850D01*
X92407030Y-138975671D01*
X92398765Y-138952572D01*
X92392804Y-138928773D01*
X92389204Y-138904505D01*
X92388000Y-138880001D01*
X92388000Y-137979999D01*
X92389204Y-137955495D01*
X92392804Y-137931227D01*
X92398765Y-137907428D01*
X92407030Y-137884329D01*
X92417520Y-137862150D01*
X92430132Y-137841107D01*
X92444747Y-137821401D01*
X92461223Y-137803223D01*
X92479401Y-137786747D01*
X92499107Y-137772132D01*
X92520150Y-137759520D01*
X92542329Y-137749030D01*
X92565428Y-137740765D01*
X92589227Y-137734804D01*
X92613495Y-137731204D01*
X92637999Y-137730000D01*
X93288001Y-137730000D01*
X93312505Y-137731204D01*
G37*
G04 #@! TD.AperFunction*
G04 #@! TA.AperFunction,SMDPad,CuDef*
G36*
X107154505Y-145866204D02*
G01*
X107178773Y-145869804D01*
X107202572Y-145875765D01*
X107225671Y-145884030D01*
X107247850Y-145894520D01*
X107268893Y-145907132D01*
X107288599Y-145921747D01*
X107306777Y-145938223D01*
X107323253Y-145956401D01*
X107337868Y-145976107D01*
X107350480Y-145997150D01*
X107360970Y-146019329D01*
X107369235Y-146042428D01*
X107375196Y-146066227D01*
X107378796Y-146090495D01*
X107380000Y-146114999D01*
X107380000Y-146765001D01*
X107378796Y-146789505D01*
X107375196Y-146813773D01*
X107369235Y-146837572D01*
X107360970Y-146860671D01*
X107350480Y-146882850D01*
X107337868Y-146903893D01*
X107323253Y-146923599D01*
X107306777Y-146941777D01*
X107288599Y-146958253D01*
X107268893Y-146972868D01*
X107247850Y-146985480D01*
X107225671Y-146995970D01*
X107202572Y-147004235D01*
X107178773Y-147010196D01*
X107154505Y-147013796D01*
X107130001Y-147015000D01*
X106229999Y-147015000D01*
X106205495Y-147013796D01*
X106181227Y-147010196D01*
X106157428Y-147004235D01*
X106134329Y-146995970D01*
X106112150Y-146985480D01*
X106091107Y-146972868D01*
X106071401Y-146958253D01*
X106053223Y-146941777D01*
X106036747Y-146923599D01*
X106022132Y-146903893D01*
X106009520Y-146882850D01*
X105999030Y-146860671D01*
X105990765Y-146837572D01*
X105984804Y-146813773D01*
X105981204Y-146789505D01*
X105980000Y-146765001D01*
X105980000Y-146114999D01*
X105981204Y-146090495D01*
X105984804Y-146066227D01*
X105990765Y-146042428D01*
X105999030Y-146019329D01*
X106009520Y-145997150D01*
X106022132Y-145976107D01*
X106036747Y-145956401D01*
X106053223Y-145938223D01*
X106071401Y-145921747D01*
X106091107Y-145907132D01*
X106112150Y-145894520D01*
X106134329Y-145884030D01*
X106157428Y-145875765D01*
X106181227Y-145869804D01*
X106205495Y-145866204D01*
X106229999Y-145865000D01*
X107130001Y-145865000D01*
X107154505Y-145866204D01*
G37*
G04 #@! TD.AperFunction*
G04 #@! TA.AperFunction,SMDPad,CuDef*
G36*
X107154505Y-143816204D02*
G01*
X107178773Y-143819804D01*
X107202572Y-143825765D01*
X107225671Y-143834030D01*
X107247850Y-143844520D01*
X107268893Y-143857132D01*
X107288599Y-143871747D01*
X107306777Y-143888223D01*
X107323253Y-143906401D01*
X107337868Y-143926107D01*
X107350480Y-143947150D01*
X107360970Y-143969329D01*
X107369235Y-143992428D01*
X107375196Y-144016227D01*
X107378796Y-144040495D01*
X107380000Y-144064999D01*
X107380000Y-144715001D01*
X107378796Y-144739505D01*
X107375196Y-144763773D01*
X107369235Y-144787572D01*
X107360970Y-144810671D01*
X107350480Y-144832850D01*
X107337868Y-144853893D01*
X107323253Y-144873599D01*
X107306777Y-144891777D01*
X107288599Y-144908253D01*
X107268893Y-144922868D01*
X107247850Y-144935480D01*
X107225671Y-144945970D01*
X107202572Y-144954235D01*
X107178773Y-144960196D01*
X107154505Y-144963796D01*
X107130001Y-144965000D01*
X106229999Y-144965000D01*
X106205495Y-144963796D01*
X106181227Y-144960196D01*
X106157428Y-144954235D01*
X106134329Y-144945970D01*
X106112150Y-144935480D01*
X106091107Y-144922868D01*
X106071401Y-144908253D01*
X106053223Y-144891777D01*
X106036747Y-144873599D01*
X106022132Y-144853893D01*
X106009520Y-144832850D01*
X105999030Y-144810671D01*
X105990765Y-144787572D01*
X105984804Y-144763773D01*
X105981204Y-144739505D01*
X105980000Y-144715001D01*
X105980000Y-144064999D01*
X105981204Y-144040495D01*
X105984804Y-144016227D01*
X105990765Y-143992428D01*
X105999030Y-143969329D01*
X106009520Y-143947150D01*
X106022132Y-143926107D01*
X106036747Y-143906401D01*
X106053223Y-143888223D01*
X106071401Y-143871747D01*
X106091107Y-143857132D01*
X106112150Y-143844520D01*
X106134329Y-143834030D01*
X106157428Y-143825765D01*
X106181227Y-143819804D01*
X106205495Y-143816204D01*
X106229999Y-143815000D01*
X107130001Y-143815000D01*
X107154505Y-143816204D01*
G37*
G04 #@! TD.AperFunction*
G04 #@! TA.AperFunction,SMDPad,CuDef*
G36*
X109186505Y-143816204D02*
G01*
X109210773Y-143819804D01*
X109234572Y-143825765D01*
X109257671Y-143834030D01*
X109279850Y-143844520D01*
X109300893Y-143857132D01*
X109320599Y-143871747D01*
X109338777Y-143888223D01*
X109355253Y-143906401D01*
X109369868Y-143926107D01*
X109382480Y-143947150D01*
X109392970Y-143969329D01*
X109401235Y-143992428D01*
X109407196Y-144016227D01*
X109410796Y-144040495D01*
X109412000Y-144064999D01*
X109412000Y-144715001D01*
X109410796Y-144739505D01*
X109407196Y-144763773D01*
X109401235Y-144787572D01*
X109392970Y-144810671D01*
X109382480Y-144832850D01*
X109369868Y-144853893D01*
X109355253Y-144873599D01*
X109338777Y-144891777D01*
X109320599Y-144908253D01*
X109300893Y-144922868D01*
X109279850Y-144935480D01*
X109257671Y-144945970D01*
X109234572Y-144954235D01*
X109210773Y-144960196D01*
X109186505Y-144963796D01*
X109162001Y-144965000D01*
X108261999Y-144965000D01*
X108237495Y-144963796D01*
X108213227Y-144960196D01*
X108189428Y-144954235D01*
X108166329Y-144945970D01*
X108144150Y-144935480D01*
X108123107Y-144922868D01*
X108103401Y-144908253D01*
X108085223Y-144891777D01*
X108068747Y-144873599D01*
X108054132Y-144853893D01*
X108041520Y-144832850D01*
X108031030Y-144810671D01*
X108022765Y-144787572D01*
X108016804Y-144763773D01*
X108013204Y-144739505D01*
X108012000Y-144715001D01*
X108012000Y-144064999D01*
X108013204Y-144040495D01*
X108016804Y-144016227D01*
X108022765Y-143992428D01*
X108031030Y-143969329D01*
X108041520Y-143947150D01*
X108054132Y-143926107D01*
X108068747Y-143906401D01*
X108085223Y-143888223D01*
X108103401Y-143871747D01*
X108123107Y-143857132D01*
X108144150Y-143844520D01*
X108166329Y-143834030D01*
X108189428Y-143825765D01*
X108213227Y-143819804D01*
X108237495Y-143816204D01*
X108261999Y-143815000D01*
X109162001Y-143815000D01*
X109186505Y-143816204D01*
G37*
G04 #@! TD.AperFunction*
G04 #@! TA.AperFunction,SMDPad,CuDef*
G36*
X109186505Y-145866204D02*
G01*
X109210773Y-145869804D01*
X109234572Y-145875765D01*
X109257671Y-145884030D01*
X109279850Y-145894520D01*
X109300893Y-145907132D01*
X109320599Y-145921747D01*
X109338777Y-145938223D01*
X109355253Y-145956401D01*
X109369868Y-145976107D01*
X109382480Y-145997150D01*
X109392970Y-146019329D01*
X109401235Y-146042428D01*
X109407196Y-146066227D01*
X109410796Y-146090495D01*
X109412000Y-146114999D01*
X109412000Y-146765001D01*
X109410796Y-146789505D01*
X109407196Y-146813773D01*
X109401235Y-146837572D01*
X109392970Y-146860671D01*
X109382480Y-146882850D01*
X109369868Y-146903893D01*
X109355253Y-146923599D01*
X109338777Y-146941777D01*
X109320599Y-146958253D01*
X109300893Y-146972868D01*
X109279850Y-146985480D01*
X109257671Y-146995970D01*
X109234572Y-147004235D01*
X109210773Y-147010196D01*
X109186505Y-147013796D01*
X109162001Y-147015000D01*
X108261999Y-147015000D01*
X108237495Y-147013796D01*
X108213227Y-147010196D01*
X108189428Y-147004235D01*
X108166329Y-146995970D01*
X108144150Y-146985480D01*
X108123107Y-146972868D01*
X108103401Y-146958253D01*
X108085223Y-146941777D01*
X108068747Y-146923599D01*
X108054132Y-146903893D01*
X108041520Y-146882850D01*
X108031030Y-146860671D01*
X108022765Y-146837572D01*
X108016804Y-146813773D01*
X108013204Y-146789505D01*
X108012000Y-146765001D01*
X108012000Y-146114999D01*
X108013204Y-146090495D01*
X108016804Y-146066227D01*
X108022765Y-146042428D01*
X108031030Y-146019329D01*
X108041520Y-145997150D01*
X108054132Y-145976107D01*
X108068747Y-145956401D01*
X108085223Y-145938223D01*
X108103401Y-145921747D01*
X108123107Y-145907132D01*
X108144150Y-145894520D01*
X108166329Y-145884030D01*
X108189428Y-145875765D01*
X108213227Y-145869804D01*
X108237495Y-145866204D01*
X108261999Y-145865000D01*
X109162001Y-145865000D01*
X109186505Y-145866204D01*
G37*
G04 #@! TD.AperFunction*
G04 #@! TA.AperFunction,SMDPad,CuDef*
G36*
X89440000Y-124222000D02*
G01*
X93440000Y-124222000D01*
X93440000Y-126222000D01*
X89440000Y-126222000D01*
X89440000Y-124222000D01*
G37*
G04 #@! TD.AperFunction*
G04 #@! TA.AperFunction,SMDPad,CuDef*
G36*
X89440000Y-126762000D02*
G01*
X93440000Y-126762000D01*
X93440000Y-128762000D01*
X89440000Y-128762000D01*
X89440000Y-126762000D01*
G37*
G04 #@! TD.AperFunction*
G04 #@! TA.AperFunction,SMDPad,CuDef*
G36*
X89440000Y-129302000D02*
G01*
X93440000Y-129302000D01*
X93440000Y-131302000D01*
X89440000Y-131302000D01*
X89440000Y-129302000D01*
G37*
G04 #@! TD.AperFunction*
G04 #@! TA.AperFunction,SMDPad,CuDef*
G36*
X89440000Y-131842000D02*
G01*
X93440000Y-131842000D01*
X93440000Y-133842000D01*
X89440000Y-133842000D01*
X89440000Y-131842000D01*
G37*
G04 #@! TD.AperFunction*
G04 #@! TA.AperFunction,SMDPad,CuDef*
G36*
X89440000Y-134382000D02*
G01*
X93440000Y-134382000D01*
X93440000Y-136382000D01*
X89440000Y-136382000D01*
X89440000Y-134382000D01*
G37*
G04 #@! TD.AperFunction*
D14*
X91868000Y-144483000D03*
X90918000Y-142283000D03*
X92818000Y-142283000D03*
G04 #@! TA.AperFunction,SMDPad,CuDef*
D13*
G36*
X93322505Y-145859204D02*
G01*
X93346773Y-145862804D01*
X93370572Y-145868765D01*
X93393671Y-145877030D01*
X93415850Y-145887520D01*
X93436893Y-145900132D01*
X93456599Y-145914747D01*
X93474777Y-145931223D01*
X93491253Y-145949401D01*
X93505868Y-145969107D01*
X93518480Y-145990150D01*
X93528970Y-146012329D01*
X93537235Y-146035428D01*
X93543196Y-146059227D01*
X93546796Y-146083495D01*
X93548000Y-146107999D01*
X93548000Y-147008001D01*
X93546796Y-147032505D01*
X93543196Y-147056773D01*
X93537235Y-147080572D01*
X93528970Y-147103671D01*
X93518480Y-147125850D01*
X93505868Y-147146893D01*
X93491253Y-147166599D01*
X93474777Y-147184777D01*
X93456599Y-147201253D01*
X93436893Y-147215868D01*
X93415850Y-147228480D01*
X93393671Y-147238970D01*
X93370572Y-147247235D01*
X93346773Y-147253196D01*
X93322505Y-147256796D01*
X93298001Y-147258000D01*
X92647999Y-147258000D01*
X92623495Y-147256796D01*
X92599227Y-147253196D01*
X92575428Y-147247235D01*
X92552329Y-147238970D01*
X92530150Y-147228480D01*
X92509107Y-147215868D01*
X92489401Y-147201253D01*
X92471223Y-147184777D01*
X92454747Y-147166599D01*
X92440132Y-147146893D01*
X92427520Y-147125850D01*
X92417030Y-147103671D01*
X92408765Y-147080572D01*
X92402804Y-147056773D01*
X92399204Y-147032505D01*
X92398000Y-147008001D01*
X92398000Y-146107999D01*
X92399204Y-146083495D01*
X92402804Y-146059227D01*
X92408765Y-146035428D01*
X92417030Y-146012329D01*
X92427520Y-145990150D01*
X92440132Y-145969107D01*
X92454747Y-145949401D01*
X92471223Y-145931223D01*
X92489401Y-145914747D01*
X92509107Y-145900132D01*
X92530150Y-145887520D01*
X92552329Y-145877030D01*
X92575428Y-145868765D01*
X92599227Y-145862804D01*
X92623495Y-145859204D01*
X92647999Y-145858000D01*
X93298001Y-145858000D01*
X93322505Y-145859204D01*
G37*
G04 #@! TD.AperFunction*
G04 #@! TA.AperFunction,SMDPad,CuDef*
G36*
X91272505Y-145859204D02*
G01*
X91296773Y-145862804D01*
X91320572Y-145868765D01*
X91343671Y-145877030D01*
X91365850Y-145887520D01*
X91386893Y-145900132D01*
X91406599Y-145914747D01*
X91424777Y-145931223D01*
X91441253Y-145949401D01*
X91455868Y-145969107D01*
X91468480Y-145990150D01*
X91478970Y-146012329D01*
X91487235Y-146035428D01*
X91493196Y-146059227D01*
X91496796Y-146083495D01*
X91498000Y-146107999D01*
X91498000Y-147008001D01*
X91496796Y-147032505D01*
X91493196Y-147056773D01*
X91487235Y-147080572D01*
X91478970Y-147103671D01*
X91468480Y-147125850D01*
X91455868Y-147146893D01*
X91441253Y-147166599D01*
X91424777Y-147184777D01*
X91406599Y-147201253D01*
X91386893Y-147215868D01*
X91365850Y-147228480D01*
X91343671Y-147238970D01*
X91320572Y-147247235D01*
X91296773Y-147253196D01*
X91272505Y-147256796D01*
X91248001Y-147258000D01*
X90597999Y-147258000D01*
X90573495Y-147256796D01*
X90549227Y-147253196D01*
X90525428Y-147247235D01*
X90502329Y-147238970D01*
X90480150Y-147228480D01*
X90459107Y-147215868D01*
X90439401Y-147201253D01*
X90421223Y-147184777D01*
X90404747Y-147166599D01*
X90390132Y-147146893D01*
X90377520Y-147125850D01*
X90367030Y-147103671D01*
X90358765Y-147080572D01*
X90352804Y-147056773D01*
X90349204Y-147032505D01*
X90348000Y-147008001D01*
X90348000Y-146107999D01*
X90349204Y-146083495D01*
X90352804Y-146059227D01*
X90358765Y-146035428D01*
X90367030Y-146012329D01*
X90377520Y-145990150D01*
X90390132Y-145969107D01*
X90404747Y-145949401D01*
X90421223Y-145931223D01*
X90439401Y-145914747D01*
X90459107Y-145900132D01*
X90480150Y-145887520D01*
X90502329Y-145877030D01*
X90525428Y-145868765D01*
X90549227Y-145862804D01*
X90573495Y-145859204D01*
X90597999Y-145858000D01*
X91248001Y-145858000D01*
X91272505Y-145859204D01*
G37*
G04 #@! TD.AperFunction*
D15*
X92000000Y-176570000D03*
X92000000Y-181570000D03*
X107823000Y-181697000D03*
X107823000Y-176697000D03*
D16*
X108839000Y-173355000D03*
D17*
X92906996Y-114427000D03*
X93000000Y-147915000D03*
X92964000Y-168275000D03*
X101831611Y-147407660D03*
X105918000Y-137287000D03*
X93095660Y-140593660D03*
X91025030Y-148209000D03*
X94234000Y-85217000D03*
X107315000Y-87249000D03*
X92837000Y-88900000D03*
X108204000Y-112014000D03*
X92964000Y-116332000D03*
X90805000Y-114300000D03*
X91868000Y-144383000D03*
X92960448Y-138270979D03*
X100584000Y-132207000D03*
X96647000Y-138430000D03*
X106680000Y-142113000D03*
X108712000Y-144272000D03*
X104267000Y-151384000D03*
X107393240Y-138814658D03*
X106172000Y-154305000D03*
X98679000Y-133350000D03*
X94940035Y-136017000D03*
X91803875Y-137020682D03*
X98171000Y-153035000D03*
X96774000Y-136398000D03*
X91964880Y-152680200D03*
X98171000Y-154305000D03*
X98711000Y-136345000D03*
X96901000Y-149606000D03*
X91821000Y-151511000D03*
X96414500Y-153902500D03*
X92710000Y-113157000D03*
X93980000Y-141732000D03*
X91694000Y-86995000D03*
X95377000Y-140716000D03*
X95613582Y-141860621D03*
X94869000Y-138684000D03*
X91148753Y-138445779D03*
X102616000Y-133731000D03*
X98679000Y-134454998D03*
X103828443Y-138097238D03*
X99949000Y-148100002D03*
X95123000Y-129159000D03*
X100804253Y-141334721D03*
X95504000Y-127889000D03*
X102707553Y-141351000D03*
X104209678Y-155649996D03*
X98552000Y-149733000D03*
D18*
X101766000Y-145000000D02*
X100000000Y-145000000D01*
X104711000Y-142055000D02*
X101766000Y-145000000D01*
X104711000Y-140515000D02*
X104711000Y-142055000D01*
X92973000Y-146527000D02*
X92973000Y-146558000D01*
X94500000Y-145000000D02*
X92973000Y-146527000D01*
X100000000Y-145000000D02*
X94500000Y-145000000D01*
X91440000Y-115893996D02*
X92906996Y-114427000D01*
X91440000Y-125222000D02*
X91440000Y-115893996D01*
X92973000Y-146558000D02*
X92973000Y-147888000D01*
X92973000Y-147888000D02*
X93000000Y-147915000D01*
X92964000Y-173714000D02*
X92964000Y-168275000D01*
X100000000Y-178000000D02*
X97250000Y-178000000D01*
X97250000Y-178000000D02*
X92964000Y-173714000D01*
X93468000Y-142383000D02*
X92818000Y-142383000D01*
X94500000Y-145000000D02*
X94500000Y-143415000D01*
X94500000Y-143415000D02*
X93468000Y-142383000D01*
X105918000Y-139308000D02*
X104711000Y-140515000D01*
X105918000Y-137287000D02*
X105918000Y-139308000D01*
X92818000Y-140871320D02*
X93095660Y-140593660D01*
X92818000Y-142383000D02*
X92818000Y-140871320D01*
X92973000Y-140462000D02*
X92973000Y-140471000D01*
X92973000Y-140471000D02*
X93095660Y-140593660D01*
X109412000Y-146440000D02*
X108712000Y-146440000D01*
X109737010Y-146114990D02*
X109412000Y-146440000D01*
X109737010Y-143461010D02*
X109737010Y-146114990D01*
X108331000Y-142055000D02*
X109737010Y-143461010D01*
X108331000Y-140515000D02*
X108331000Y-142055000D01*
X91218000Y-144383000D02*
X91868000Y-144383000D01*
X90923000Y-144678000D02*
X91218000Y-144383000D01*
X90923000Y-146558000D02*
X90923000Y-144678000D01*
X90923000Y-146558000D02*
X90923000Y-148106970D01*
X90923000Y-148106970D02*
X91025030Y-148209000D01*
X93440000Y-132842000D02*
X96134340Y-130147660D01*
X96134340Y-130147660D02*
X96134340Y-130011010D01*
X91440000Y-132842000D02*
X93440000Y-132842000D01*
X92960448Y-136902448D02*
X92960448Y-138270979D01*
X91440000Y-135382000D02*
X92960448Y-136902448D01*
X96647000Y-138430000D02*
X96647000Y-140451000D01*
X96647000Y-140451000D02*
X96711000Y-140515000D01*
X106680000Y-142113000D02*
X106680000Y-144390000D01*
X108712000Y-144390000D02*
X108712000Y-144272000D01*
X106993241Y-139214657D02*
X107393240Y-138814658D01*
X104267000Y-151384000D02*
X105603555Y-150047445D01*
X105603555Y-150047445D02*
X105603555Y-140604343D01*
X105603555Y-140604343D02*
X106993241Y-139214657D01*
X106573000Y-176697000D02*
X107823000Y-176697000D01*
X106190999Y-176314999D02*
X106573000Y-176697000D01*
X106190999Y-154323999D02*
X106190999Y-176314999D01*
X106172000Y-154305000D02*
X106190999Y-154323999D01*
X104362002Y-134456002D02*
X104711000Y-134805000D01*
X104711000Y-134805000D02*
X104711000Y-136345000D01*
X102267998Y-134456002D02*
X104362002Y-134456002D01*
X101161996Y-133350000D02*
X102267998Y-134456002D01*
X98679000Y-133350000D02*
X101161996Y-133350000D01*
X94940035Y-135740963D02*
X94940035Y-136017000D01*
X97330998Y-133350000D02*
X94940035Y-135740963D01*
X98679000Y-133350000D02*
X97330998Y-133350000D01*
X92593001Y-143672999D02*
X92593001Y-145349809D01*
X92593001Y-145349809D02*
X92072990Y-145869820D01*
X91948000Y-143027998D02*
X92593001Y-143672999D01*
X91948000Y-137730492D02*
X91948000Y-143027998D01*
X91803875Y-137020682D02*
X91803875Y-137586367D01*
X92072990Y-145869820D02*
X92072990Y-150619990D01*
X91803875Y-137586367D02*
X91948000Y-137730492D01*
X92072990Y-150619990D02*
X94488000Y-153035000D01*
X94488000Y-153035000D02*
X98171000Y-153035000D01*
X96711000Y-136345000D02*
X96721000Y-136345000D01*
X96721000Y-136345000D02*
X96774000Y-136398000D01*
X93970680Y-154686000D02*
X91964880Y-152680200D01*
X97224315Y-154686000D02*
X93970680Y-154686000D01*
X97605315Y-154305000D02*
X97224315Y-154686000D01*
X98171000Y-154305000D02*
X97605315Y-154305000D01*
X94212500Y-153902500D02*
X96414500Y-153902500D01*
X91821000Y-151511000D02*
X94212500Y-153902500D01*
X93345000Y-112522000D02*
X92710000Y-113157000D01*
X108585000Y-117729000D02*
X103378000Y-112522000D01*
X94143990Y-139736990D02*
X94143990Y-137001405D01*
X93980000Y-139900980D02*
X94143990Y-139736990D01*
X93980000Y-141732000D02*
X93980000Y-139900980D01*
X94143990Y-137001405D02*
X93765010Y-136622425D01*
X93765010Y-136622425D02*
X93765010Y-133711528D01*
X93765010Y-133711528D02*
X96901000Y-130683000D01*
X104013000Y-130683000D02*
X108585000Y-126111000D01*
X96901000Y-130683000D02*
X104013000Y-130683000D01*
X103378000Y-112522000D02*
X93345000Y-112522000D01*
X108585000Y-126111000D02*
X108585000Y-117729000D01*
X91694000Y-86995000D02*
X91694000Y-110607389D01*
X93158600Y-112071989D02*
X103564400Y-112071989D01*
X91694000Y-110607389D02*
X93158600Y-112071989D01*
X103564400Y-112071989D02*
X109035011Y-117542600D01*
X109035011Y-117542600D02*
X109035011Y-126297400D01*
X104199400Y-131133011D02*
X97210043Y-131133011D01*
X94215021Y-136436024D02*
X95776999Y-137998002D01*
X95776999Y-137998002D02*
X95776999Y-140316001D01*
X94215021Y-134005389D02*
X94215021Y-136436024D01*
X97210043Y-131133011D02*
X94215021Y-134005389D01*
X109035011Y-126297400D02*
X104199400Y-131133011D01*
X95776999Y-140316001D02*
X95377000Y-140716000D01*
X90923000Y-142378000D02*
X90918000Y-142383000D01*
X90923000Y-140462000D02*
X90923000Y-142378000D01*
X90923000Y-138671532D02*
X91148753Y-138445779D01*
X90923000Y-140462000D02*
X90923000Y-138671532D01*
X94869000Y-141681724D02*
X95047897Y-141860621D01*
X94869000Y-139757685D02*
X94488000Y-140138685D01*
X94869000Y-138684000D02*
X94869000Y-139757685D01*
X94869000Y-141478000D02*
X94869000Y-141681724D01*
X94488000Y-140138685D02*
X94488000Y-141097000D01*
X95047897Y-141860621D02*
X95613582Y-141860621D01*
X94488000Y-141097000D02*
X94869000Y-141478000D01*
X104521000Y-133731000D02*
X106045000Y-135255000D01*
X104521000Y-133731000D02*
X102616000Y-133731000D01*
X106045000Y-135255000D02*
X106045000Y-136144000D01*
X106246000Y-136345000D02*
X108331000Y-136345000D01*
X106045000Y-136144000D02*
X106246000Y-136345000D01*
X100711000Y-134805000D02*
X100711000Y-136345000D01*
X100360998Y-134454998D02*
X100711000Y-134805000D01*
X98679000Y-134454998D02*
X100360998Y-134454998D01*
X103262758Y-138097238D02*
X103828443Y-138097238D01*
X100711000Y-137885000D02*
X100923238Y-138097238D01*
X100711000Y-136345000D02*
X100711000Y-137885000D01*
X100923238Y-138097238D02*
X103262758Y-138097238D01*
X100584000Y-148735002D02*
X100584000Y-150998998D01*
X94703999Y-181063999D02*
X92000000Y-178360000D01*
X105575001Y-181063999D02*
X94703999Y-181063999D01*
X99949000Y-148100002D02*
X100584000Y-148735002D01*
X100584000Y-150998998D02*
X105575001Y-155989999D01*
X92000000Y-178360000D02*
X92000000Y-176570000D01*
X105575001Y-155989999D02*
X105575001Y-181063999D01*
X93980000Y-130302000D02*
X95123000Y-129159000D01*
X91440000Y-130302000D02*
X93980000Y-130302000D01*
X100711000Y-141241468D02*
X100804253Y-141334721D01*
X100711000Y-140515000D02*
X100711000Y-141241468D01*
X91567000Y-127889000D02*
X91440000Y-127762000D01*
X95504000Y-127889000D02*
X91567000Y-127889000D01*
X102707553Y-140518447D02*
X102711000Y-140515000D01*
X102707553Y-141454823D02*
X102707553Y-140518447D01*
X98552000Y-149992318D02*
X103809679Y-155249997D01*
X98552000Y-149733000D02*
X98552000Y-149992318D01*
X103809679Y-155249997D02*
X104209678Y-155649996D01*
D19*
G36*
X106807000Y-146313000D02*
G01*
X108585000Y-146313000D01*
X108585000Y-146293000D01*
X108839000Y-146293000D01*
X108839000Y-146313000D01*
X108859000Y-146313000D01*
X108859000Y-146567000D01*
X108839000Y-146567000D01*
X108839000Y-147491250D01*
X108997750Y-147650000D01*
X109412000Y-147653072D01*
X109536482Y-147640812D01*
X109656180Y-147604502D01*
X109766494Y-147545537D01*
X109840001Y-147485212D01*
X109840001Y-172057450D01*
X109613463Y-171906082D01*
X109315912Y-171782832D01*
X109000033Y-171720000D01*
X108677967Y-171720000D01*
X108362088Y-171782832D01*
X108064537Y-171906082D01*
X107796748Y-172085013D01*
X107569013Y-172312748D01*
X107390082Y-172580537D01*
X107266832Y-172878088D01*
X107204000Y-173193967D01*
X107204000Y-173516033D01*
X107266832Y-173831912D01*
X107390082Y-174129463D01*
X107569013Y-174397252D01*
X107796748Y-174624987D01*
X108064537Y-174803918D01*
X108362088Y-174927168D01*
X108677967Y-174990000D01*
X109000033Y-174990000D01*
X109315912Y-174927168D01*
X109613463Y-174803918D01*
X109840001Y-174652550D01*
X109840001Y-180967711D01*
X109811375Y-181259660D01*
X109735965Y-181509429D01*
X109613477Y-181739794D01*
X109448579Y-181941979D01*
X109431422Y-181956172D01*
X109299250Y-181824000D01*
X107950000Y-181824000D01*
X107950000Y-181844000D01*
X107696000Y-181844000D01*
X107696000Y-181824000D01*
X106346750Y-181824000D01*
X106188000Y-181982750D01*
X106184928Y-182197000D01*
X106197188Y-182321482D01*
X106202805Y-182340000D01*
X93575701Y-182340000D01*
X93589502Y-182314180D01*
X93625812Y-182194482D01*
X93638072Y-182070000D01*
X93635000Y-181855750D01*
X93476250Y-181697000D01*
X92127000Y-181697000D01*
X92127000Y-181717000D01*
X91873000Y-181717000D01*
X91873000Y-181697000D01*
X90523750Y-181697000D01*
X90428606Y-181792144D01*
X90391712Y-181747546D01*
X90267622Y-181518046D01*
X90190469Y-181268805D01*
X90169574Y-181070000D01*
X90361928Y-181070000D01*
X90365000Y-181284250D01*
X90523750Y-181443000D01*
X91873000Y-181443000D01*
X91873000Y-180593750D01*
X91714250Y-180435000D01*
X91000000Y-180431928D01*
X90875518Y-180444188D01*
X90755820Y-180480498D01*
X90645506Y-180539463D01*
X90548815Y-180618815D01*
X90469463Y-180715506D01*
X90410498Y-180825820D01*
X90374188Y-180945518D01*
X90361928Y-181070000D01*
X90169574Y-181070000D01*
X90160000Y-180978911D01*
X90160000Y-166750000D01*
X94111928Y-166750000D01*
X94124188Y-166874482D01*
X94160498Y-166994180D01*
X94219463Y-167104494D01*
X94298815Y-167201185D01*
X94395506Y-167280537D01*
X94505820Y-167339502D01*
X94625518Y-167375812D01*
X94750000Y-167388072D01*
X99714250Y-167385000D01*
X99873000Y-167226250D01*
X99873000Y-161627000D01*
X94273750Y-161627000D01*
X94115000Y-161785750D01*
X94111928Y-166750000D01*
X90160000Y-166750000D01*
X90160000Y-156250000D01*
X94111928Y-156250000D01*
X94115000Y-161214250D01*
X94273750Y-161373000D01*
X99873000Y-161373000D01*
X99873000Y-155773750D01*
X99714250Y-155615000D01*
X94750000Y-155611928D01*
X94625518Y-155624188D01*
X94505820Y-155660498D01*
X94395506Y-155719463D01*
X94298815Y-155798815D01*
X94219463Y-155895506D01*
X94160498Y-156005820D01*
X94124188Y-156125518D01*
X94111928Y-156250000D01*
X90160000Y-156250000D01*
X90160000Y-147864544D01*
X90223518Y-147883812D01*
X90348000Y-147896072D01*
X90637250Y-147893000D01*
X90796000Y-147734250D01*
X90796000Y-147010809D01*
X91050000Y-147015491D01*
X91050000Y-147734250D01*
X91208750Y-147893000D01*
X91312990Y-147894107D01*
X91312991Y-150582658D01*
X91310566Y-150607277D01*
X91161226Y-150707063D01*
X91017063Y-150851226D01*
X90903795Y-151020744D01*
X90825774Y-151209102D01*
X90786000Y-151409061D01*
X90786000Y-151612939D01*
X90825774Y-151812898D01*
X90903795Y-152001256D01*
X91017063Y-152170774D01*
X91044324Y-152198035D01*
X90969654Y-152378302D01*
X90929880Y-152578261D01*
X90929880Y-152782139D01*
X90969654Y-152982098D01*
X91047675Y-153170456D01*
X91160943Y-153339974D01*
X91305106Y-153484137D01*
X91474624Y-153597405D01*
X91662982Y-153675426D01*
X91862941Y-153715200D01*
X91925079Y-153715200D01*
X93406881Y-155197003D01*
X93430679Y-155226001D01*
X93459677Y-155249799D01*
X93546404Y-155320974D01*
X93678433Y-155391546D01*
X93821694Y-155435003D01*
X93970680Y-155449677D01*
X94008013Y-155446000D01*
X97186993Y-155446000D01*
X97224315Y-155449676D01*
X97261637Y-155446000D01*
X97261648Y-155446000D01*
X97373301Y-155435003D01*
X97516562Y-155391546D01*
X97648591Y-155320974D01*
X97739358Y-155246484D01*
X97869102Y-155300226D01*
X98069061Y-155340000D01*
X98272939Y-155340000D01*
X98472898Y-155300226D01*
X98661256Y-155222205D01*
X98830774Y-155108937D01*
X98974937Y-154964774D01*
X99088205Y-154795256D01*
X99166226Y-154606898D01*
X99206000Y-154406939D01*
X99206000Y-154203061D01*
X99166226Y-154003102D01*
X99088205Y-153814744D01*
X98991490Y-153670000D01*
X99088205Y-153525256D01*
X99166226Y-153336898D01*
X99206000Y-153136939D01*
X99206000Y-152933061D01*
X99166226Y-152733102D01*
X99088205Y-152544744D01*
X98974937Y-152375226D01*
X98830774Y-152231063D01*
X98661256Y-152117795D01*
X98472898Y-152039774D01*
X98272939Y-152000000D01*
X98069061Y-152000000D01*
X97869102Y-152039774D01*
X97680744Y-152117795D01*
X97511226Y-152231063D01*
X97467289Y-152275000D01*
X94802802Y-152275000D01*
X92832990Y-150305189D01*
X92832990Y-148937057D01*
X92898061Y-148950000D01*
X93101939Y-148950000D01*
X93301898Y-148910226D01*
X93490256Y-148832205D01*
X93659774Y-148718937D01*
X93803937Y-148574774D01*
X93917205Y-148405256D01*
X93995226Y-148216898D01*
X94035000Y-148016939D01*
X94035000Y-147813061D01*
X93995226Y-147613102D01*
X93978286Y-147572205D01*
X94036405Y-147501387D01*
X94111928Y-147360094D01*
X94111928Y-147500000D01*
X94124188Y-147624482D01*
X94160498Y-147744180D01*
X94219463Y-147854494D01*
X94298815Y-147951185D01*
X94395506Y-148030537D01*
X94505820Y-148089502D01*
X94625518Y-148125812D01*
X94750000Y-148138072D01*
X98914000Y-148138072D01*
X98914000Y-148201941D01*
X98953774Y-148401900D01*
X99031795Y-148590258D01*
X99145063Y-148759776D01*
X99289226Y-148903939D01*
X99458744Y-149017207D01*
X99647102Y-149095228D01*
X99824000Y-149130415D01*
X99824001Y-150189517D01*
X99567493Y-149933010D01*
X99587000Y-149834939D01*
X99587000Y-149631061D01*
X99547226Y-149431102D01*
X99469205Y-149242744D01*
X99355937Y-149073226D01*
X99211774Y-148929063D01*
X99042256Y-148815795D01*
X98853898Y-148737774D01*
X98653939Y-148698000D01*
X98450061Y-148698000D01*
X98250102Y-148737774D01*
X98061744Y-148815795D01*
X97892226Y-148929063D01*
X97773080Y-149048209D01*
X97704937Y-148946226D01*
X97560774Y-148802063D01*
X97391256Y-148688795D01*
X97202898Y-148610774D01*
X97002939Y-148571000D01*
X96799061Y-148571000D01*
X96599102Y-148610774D01*
X96410744Y-148688795D01*
X96241226Y-148802063D01*
X96097063Y-148946226D01*
X95983795Y-149115744D01*
X95905774Y-149304102D01*
X95866000Y-149504061D01*
X95866000Y-149707939D01*
X95905774Y-149907898D01*
X95983795Y-150096256D01*
X96097063Y-150265774D01*
X96241226Y-150409937D01*
X96410744Y-150523205D01*
X96599102Y-150601226D01*
X96799061Y-150641000D01*
X97002939Y-150641000D01*
X97202898Y-150601226D01*
X97391256Y-150523205D01*
X97560774Y-150409937D01*
X97679920Y-150290791D01*
X97748063Y-150392774D01*
X97892226Y-150536937D01*
X98061744Y-150650205D01*
X98186947Y-150702066D01*
X103098140Y-155613260D01*
X100285750Y-155615000D01*
X100127000Y-155773750D01*
X100127000Y-161373000D01*
X100147000Y-161373000D01*
X100147000Y-161627000D01*
X100127000Y-161627000D01*
X100127000Y-167226250D01*
X100285750Y-167385000D01*
X104815001Y-167387803D01*
X104815002Y-174861928D01*
X95186729Y-174861928D01*
X93724000Y-173399199D01*
X93724000Y-168978711D01*
X93767937Y-168934774D01*
X93881205Y-168765256D01*
X93959226Y-168576898D01*
X93999000Y-168376939D01*
X93999000Y-168173061D01*
X93959226Y-167973102D01*
X93881205Y-167784744D01*
X93767937Y-167615226D01*
X93623774Y-167471063D01*
X93454256Y-167357795D01*
X93265898Y-167279774D01*
X93065939Y-167240000D01*
X92862061Y-167240000D01*
X92662102Y-167279774D01*
X92473744Y-167357795D01*
X92304226Y-167471063D01*
X92160063Y-167615226D01*
X92046795Y-167784744D01*
X91968774Y-167973102D01*
X91929000Y-168173061D01*
X91929000Y-168376939D01*
X91968774Y-168576898D01*
X92046795Y-168765256D01*
X92160063Y-168934774D01*
X92204001Y-168978712D01*
X92204000Y-173676677D01*
X92200324Y-173714000D01*
X92204000Y-173751322D01*
X92204000Y-173751332D01*
X92214997Y-173862985D01*
X92258454Y-174006246D01*
X92329026Y-174138276D01*
X92368871Y-174186826D01*
X92423999Y-174254001D01*
X92453003Y-174277804D01*
X94111928Y-175936729D01*
X94111928Y-179397126D01*
X92760000Y-178045199D01*
X92760000Y-177708072D01*
X93000000Y-177708072D01*
X93124482Y-177695812D01*
X93244180Y-177659502D01*
X93354494Y-177600537D01*
X93451185Y-177521185D01*
X93530537Y-177424494D01*
X93589502Y-177314180D01*
X93625812Y-177194482D01*
X93638072Y-177070000D01*
X93638072Y-176070000D01*
X93625812Y-175945518D01*
X93589502Y-175825820D01*
X93530537Y-175715506D01*
X93451185Y-175618815D01*
X93354494Y-175539463D01*
X93244180Y-175480498D01*
X93124482Y-175444188D01*
X93000000Y-175431928D01*
X91000000Y-175431928D01*
X90875518Y-175444188D01*
X90755820Y-175480498D01*
X90645506Y-175539463D01*
X90548815Y-175618815D01*
X90469463Y-175715506D01*
X90410498Y-175825820D01*
X90374188Y-175945518D01*
X90361928Y-176070000D01*
X90361928Y-177070000D01*
X90374188Y-177194482D01*
X90410498Y-177314180D01*
X90469463Y-177424494D01*
X90548815Y-177521185D01*
X90645506Y-177600537D01*
X90755820Y-177659502D01*
X90875518Y-177695812D01*
X91000000Y-177708072D01*
X91240000Y-177708072D01*
X91240000Y-178322677D01*
X91236324Y-178360000D01*
X91240000Y-178397322D01*
X91240000Y-178397332D01*
X91250997Y-178508985D01*
X91289215Y-178634974D01*
X91294454Y-178652246D01*
X91365026Y-178784276D01*
X91404871Y-178832826D01*
X91459999Y-178900001D01*
X91489003Y-178923804D01*
X92997139Y-180431940D01*
X92285750Y-180435000D01*
X92127000Y-180593750D01*
X92127000Y-181443000D01*
X93476250Y-181443000D01*
X93635000Y-181284250D01*
X93638031Y-181072833D01*
X94140200Y-181575002D01*
X94163998Y-181604000D01*
X94192996Y-181627798D01*
X94279722Y-181698973D01*
X94378900Y-181751985D01*
X94411752Y-181769545D01*
X94555013Y-181813002D01*
X94666666Y-181823999D01*
X94666675Y-181823999D01*
X94703998Y-181827675D01*
X94741321Y-181823999D01*
X105537668Y-181823999D01*
X105575001Y-181827676D01*
X105723987Y-181813002D01*
X105867248Y-181769545D01*
X105999277Y-181698973D01*
X106115002Y-181604000D01*
X106209975Y-181488275D01*
X106229151Y-181452401D01*
X106346750Y-181570000D01*
X107696000Y-181570000D01*
X107696000Y-180720750D01*
X107950000Y-180720750D01*
X107950000Y-181570000D01*
X109299250Y-181570000D01*
X109458000Y-181411250D01*
X109461072Y-181197000D01*
X109448812Y-181072518D01*
X109412502Y-180952820D01*
X109353537Y-180842506D01*
X109274185Y-180745815D01*
X109177494Y-180666463D01*
X109067180Y-180607498D01*
X108947482Y-180571188D01*
X108823000Y-180558928D01*
X108108750Y-180562000D01*
X107950000Y-180720750D01*
X107696000Y-180720750D01*
X107537250Y-180562000D01*
X106823000Y-180558928D01*
X106698518Y-180571188D01*
X106578820Y-180607498D01*
X106468506Y-180666463D01*
X106371815Y-180745815D01*
X106335001Y-180790673D01*
X106335001Y-177603327D01*
X106371815Y-177648185D01*
X106468506Y-177727537D01*
X106578820Y-177786502D01*
X106698518Y-177822812D01*
X106823000Y-177835072D01*
X108823000Y-177835072D01*
X108947482Y-177822812D01*
X109067180Y-177786502D01*
X109177494Y-177727537D01*
X109274185Y-177648185D01*
X109353537Y-177551494D01*
X109412502Y-177441180D01*
X109448812Y-177321482D01*
X109461072Y-177197000D01*
X109461072Y-176197000D01*
X109448812Y-176072518D01*
X109412502Y-175952820D01*
X109353537Y-175842506D01*
X109274185Y-175745815D01*
X109177494Y-175666463D01*
X109067180Y-175607498D01*
X108947482Y-175571188D01*
X108823000Y-175558928D01*
X106950999Y-175558928D01*
X106950999Y-154989712D01*
X106975937Y-154964774D01*
X107089205Y-154795256D01*
X107167226Y-154606898D01*
X107207000Y-154406939D01*
X107207000Y-154203061D01*
X107167226Y-154003102D01*
X107089205Y-153814744D01*
X106975937Y-153645226D01*
X106831774Y-153501063D01*
X106662256Y-153387795D01*
X106473898Y-153309774D01*
X106273939Y-153270000D01*
X106070061Y-153270000D01*
X105870102Y-153309774D01*
X105681744Y-153387795D01*
X105512226Y-153501063D01*
X105368063Y-153645226D01*
X105254795Y-153814744D01*
X105176774Y-154003102D01*
X105137000Y-154203061D01*
X105137000Y-154406939D01*
X105154445Y-154494641D01*
X101344000Y-150684197D01*
X101344000Y-148772335D01*
X101347677Y-148735002D01*
X101333003Y-148586016D01*
X101289546Y-148442755D01*
X101218974Y-148310726D01*
X101147799Y-148223999D01*
X101124001Y-148195001D01*
X101095004Y-148171204D01*
X101061872Y-148138072D01*
X101098312Y-148138072D01*
X101171837Y-148211597D01*
X101341355Y-148324865D01*
X101529713Y-148402886D01*
X101729672Y-148442660D01*
X101933550Y-148442660D01*
X102133509Y-148402886D01*
X102321867Y-148324865D01*
X102491385Y-148211597D01*
X102564910Y-148138072D01*
X104843555Y-148138072D01*
X104843555Y-149732643D01*
X104227199Y-150349000D01*
X104165061Y-150349000D01*
X103965102Y-150388774D01*
X103776744Y-150466795D01*
X103607226Y-150580063D01*
X103463063Y-150724226D01*
X103349795Y-150893744D01*
X103271774Y-151082102D01*
X103232000Y-151282061D01*
X103232000Y-151485939D01*
X103271774Y-151685898D01*
X103349795Y-151874256D01*
X103463063Y-152043774D01*
X103607226Y-152187937D01*
X103776744Y-152301205D01*
X103965102Y-152379226D01*
X104165061Y-152419000D01*
X104368939Y-152419000D01*
X104568898Y-152379226D01*
X104757256Y-152301205D01*
X104926774Y-152187937D01*
X105070937Y-152043774D01*
X105184205Y-151874256D01*
X105262226Y-151685898D01*
X105302000Y-151485939D01*
X105302000Y-151423801D01*
X106114559Y-150611243D01*
X106143556Y-150587446D01*
X106238529Y-150471721D01*
X106309101Y-150339692D01*
X106352558Y-150196431D01*
X106363555Y-150084778D01*
X106363555Y-150084769D01*
X106367231Y-150047446D01*
X106363555Y-150010123D01*
X106363555Y-147650228D01*
X106394250Y-147650000D01*
X106553000Y-147491250D01*
X106553000Y-146567000D01*
X106807000Y-146567000D01*
X106807000Y-147491250D01*
X106965750Y-147650000D01*
X107380000Y-147653072D01*
X107504482Y-147640812D01*
X107624180Y-147604502D01*
X107696000Y-147566113D01*
X107767820Y-147604502D01*
X107887518Y-147640812D01*
X108012000Y-147653072D01*
X108426250Y-147650000D01*
X108585000Y-147491250D01*
X108585000Y-146567000D01*
X106807000Y-146567000D01*
X106553000Y-146567000D01*
X106533000Y-146567000D01*
X106533000Y-146313000D01*
X106553000Y-146313000D01*
X106553000Y-146293000D01*
X106807000Y-146293000D01*
X106807000Y-146313000D01*
G37*
X106807000Y-146313000D02*
X108585000Y-146313000D01*
X108585000Y-146293000D01*
X108839000Y-146293000D01*
X108839000Y-146313000D01*
X108859000Y-146313000D01*
X108859000Y-146567000D01*
X108839000Y-146567000D01*
X108839000Y-147491250D01*
X108997750Y-147650000D01*
X109412000Y-147653072D01*
X109536482Y-147640812D01*
X109656180Y-147604502D01*
X109766494Y-147545537D01*
X109840001Y-147485212D01*
X109840001Y-172057450D01*
X109613463Y-171906082D01*
X109315912Y-171782832D01*
X109000033Y-171720000D01*
X108677967Y-171720000D01*
X108362088Y-171782832D01*
X108064537Y-171906082D01*
X107796748Y-172085013D01*
X107569013Y-172312748D01*
X107390082Y-172580537D01*
X107266832Y-172878088D01*
X107204000Y-173193967D01*
X107204000Y-173516033D01*
X107266832Y-173831912D01*
X107390082Y-174129463D01*
X107569013Y-174397252D01*
X107796748Y-174624987D01*
X108064537Y-174803918D01*
X108362088Y-174927168D01*
X108677967Y-174990000D01*
X109000033Y-174990000D01*
X109315912Y-174927168D01*
X109613463Y-174803918D01*
X109840001Y-174652550D01*
X109840001Y-180967711D01*
X109811375Y-181259660D01*
X109735965Y-181509429D01*
X109613477Y-181739794D01*
X109448579Y-181941979D01*
X109431422Y-181956172D01*
X109299250Y-181824000D01*
X107950000Y-181824000D01*
X107950000Y-181844000D01*
X107696000Y-181844000D01*
X107696000Y-181824000D01*
X106346750Y-181824000D01*
X106188000Y-181982750D01*
X106184928Y-182197000D01*
X106197188Y-182321482D01*
X106202805Y-182340000D01*
X93575701Y-182340000D01*
X93589502Y-182314180D01*
X93625812Y-182194482D01*
X93638072Y-182070000D01*
X93635000Y-181855750D01*
X93476250Y-181697000D01*
X92127000Y-181697000D01*
X92127000Y-181717000D01*
X91873000Y-181717000D01*
X91873000Y-181697000D01*
X90523750Y-181697000D01*
X90428606Y-181792144D01*
X90391712Y-181747546D01*
X90267622Y-181518046D01*
X90190469Y-181268805D01*
X90169574Y-181070000D01*
X90361928Y-181070000D01*
X90365000Y-181284250D01*
X90523750Y-181443000D01*
X91873000Y-181443000D01*
X91873000Y-180593750D01*
X91714250Y-180435000D01*
X91000000Y-180431928D01*
X90875518Y-180444188D01*
X90755820Y-180480498D01*
X90645506Y-180539463D01*
X90548815Y-180618815D01*
X90469463Y-180715506D01*
X90410498Y-180825820D01*
X90374188Y-180945518D01*
X90361928Y-181070000D01*
X90169574Y-181070000D01*
X90160000Y-180978911D01*
X90160000Y-166750000D01*
X94111928Y-166750000D01*
X94124188Y-166874482D01*
X94160498Y-166994180D01*
X94219463Y-167104494D01*
X94298815Y-167201185D01*
X94395506Y-167280537D01*
X94505820Y-167339502D01*
X94625518Y-167375812D01*
X94750000Y-167388072D01*
X99714250Y-167385000D01*
X99873000Y-167226250D01*
X99873000Y-161627000D01*
X94273750Y-161627000D01*
X94115000Y-161785750D01*
X94111928Y-166750000D01*
X90160000Y-166750000D01*
X90160000Y-156250000D01*
X94111928Y-156250000D01*
X94115000Y-161214250D01*
X94273750Y-161373000D01*
X99873000Y-161373000D01*
X99873000Y-155773750D01*
X99714250Y-155615000D01*
X94750000Y-155611928D01*
X94625518Y-155624188D01*
X94505820Y-155660498D01*
X94395506Y-155719463D01*
X94298815Y-155798815D01*
X94219463Y-155895506D01*
X94160498Y-156005820D01*
X94124188Y-156125518D01*
X94111928Y-156250000D01*
X90160000Y-156250000D01*
X90160000Y-147864544D01*
X90223518Y-147883812D01*
X90348000Y-147896072D01*
X90637250Y-147893000D01*
X90796000Y-147734250D01*
X90796000Y-147010809D01*
X91050000Y-147015491D01*
X91050000Y-147734250D01*
X91208750Y-147893000D01*
X91312990Y-147894107D01*
X91312991Y-150582658D01*
X91310566Y-150607277D01*
X91161226Y-150707063D01*
X91017063Y-150851226D01*
X90903795Y-151020744D01*
X90825774Y-151209102D01*
X90786000Y-151409061D01*
X90786000Y-151612939D01*
X90825774Y-151812898D01*
X90903795Y-152001256D01*
X91017063Y-152170774D01*
X91044324Y-152198035D01*
X90969654Y-152378302D01*
X90929880Y-152578261D01*
X90929880Y-152782139D01*
X90969654Y-152982098D01*
X91047675Y-153170456D01*
X91160943Y-153339974D01*
X91305106Y-153484137D01*
X91474624Y-153597405D01*
X91662982Y-153675426D01*
X91862941Y-153715200D01*
X91925079Y-153715200D01*
X93406881Y-155197003D01*
X93430679Y-155226001D01*
X93459677Y-155249799D01*
X93546404Y-155320974D01*
X93678433Y-155391546D01*
X93821694Y-155435003D01*
X93970680Y-155449677D01*
X94008013Y-155446000D01*
X97186993Y-155446000D01*
X97224315Y-155449676D01*
X97261637Y-155446000D01*
X97261648Y-155446000D01*
X97373301Y-155435003D01*
X97516562Y-155391546D01*
X97648591Y-155320974D01*
X97739358Y-155246484D01*
X97869102Y-155300226D01*
X98069061Y-155340000D01*
X98272939Y-155340000D01*
X98472898Y-155300226D01*
X98661256Y-155222205D01*
X98830774Y-155108937D01*
X98974937Y-154964774D01*
X99088205Y-154795256D01*
X99166226Y-154606898D01*
X99206000Y-154406939D01*
X99206000Y-154203061D01*
X99166226Y-154003102D01*
X99088205Y-153814744D01*
X98991490Y-153670000D01*
X99088205Y-153525256D01*
X99166226Y-153336898D01*
X99206000Y-153136939D01*
X99206000Y-152933061D01*
X99166226Y-152733102D01*
X99088205Y-152544744D01*
X98974937Y-152375226D01*
X98830774Y-152231063D01*
X98661256Y-152117795D01*
X98472898Y-152039774D01*
X98272939Y-152000000D01*
X98069061Y-152000000D01*
X97869102Y-152039774D01*
X97680744Y-152117795D01*
X97511226Y-152231063D01*
X97467289Y-152275000D01*
X94802802Y-152275000D01*
X92832990Y-150305189D01*
X92832990Y-148937057D01*
X92898061Y-148950000D01*
X93101939Y-148950000D01*
X93301898Y-148910226D01*
X93490256Y-148832205D01*
X93659774Y-148718937D01*
X93803937Y-148574774D01*
X93917205Y-148405256D01*
X93995226Y-148216898D01*
X94035000Y-148016939D01*
X94035000Y-147813061D01*
X93995226Y-147613102D01*
X93978286Y-147572205D01*
X94036405Y-147501387D01*
X94111928Y-147360094D01*
X94111928Y-147500000D01*
X94124188Y-147624482D01*
X94160498Y-147744180D01*
X94219463Y-147854494D01*
X94298815Y-147951185D01*
X94395506Y-148030537D01*
X94505820Y-148089502D01*
X94625518Y-148125812D01*
X94750000Y-148138072D01*
X98914000Y-148138072D01*
X98914000Y-148201941D01*
X98953774Y-148401900D01*
X99031795Y-148590258D01*
X99145063Y-148759776D01*
X99289226Y-148903939D01*
X99458744Y-149017207D01*
X99647102Y-149095228D01*
X99824000Y-149130415D01*
X99824001Y-150189517D01*
X99567493Y-149933010D01*
X99587000Y-149834939D01*
X99587000Y-149631061D01*
X99547226Y-149431102D01*
X99469205Y-149242744D01*
X99355937Y-149073226D01*
X99211774Y-148929063D01*
X99042256Y-148815795D01*
X98853898Y-148737774D01*
X98653939Y-148698000D01*
X98450061Y-148698000D01*
X98250102Y-148737774D01*
X98061744Y-148815795D01*
X97892226Y-148929063D01*
X97773080Y-149048209D01*
X97704937Y-148946226D01*
X97560774Y-148802063D01*
X97391256Y-148688795D01*
X97202898Y-148610774D01*
X97002939Y-148571000D01*
X96799061Y-148571000D01*
X96599102Y-148610774D01*
X96410744Y-148688795D01*
X96241226Y-148802063D01*
X96097063Y-148946226D01*
X95983795Y-149115744D01*
X95905774Y-149304102D01*
X95866000Y-149504061D01*
X95866000Y-149707939D01*
X95905774Y-149907898D01*
X95983795Y-150096256D01*
X96097063Y-150265774D01*
X96241226Y-150409937D01*
X96410744Y-150523205D01*
X96599102Y-150601226D01*
X96799061Y-150641000D01*
X97002939Y-150641000D01*
X97202898Y-150601226D01*
X97391256Y-150523205D01*
X97560774Y-150409937D01*
X97679920Y-150290791D01*
X97748063Y-150392774D01*
X97892226Y-150536937D01*
X98061744Y-150650205D01*
X98186947Y-150702066D01*
X103098140Y-155613260D01*
X100285750Y-155615000D01*
X100127000Y-155773750D01*
X100127000Y-161373000D01*
X100147000Y-161373000D01*
X100147000Y-161627000D01*
X100127000Y-161627000D01*
X100127000Y-167226250D01*
X100285750Y-167385000D01*
X104815001Y-167387803D01*
X104815002Y-174861928D01*
X95186729Y-174861928D01*
X93724000Y-173399199D01*
X93724000Y-168978711D01*
X93767937Y-168934774D01*
X93881205Y-168765256D01*
X93959226Y-168576898D01*
X93999000Y-168376939D01*
X93999000Y-168173061D01*
X93959226Y-167973102D01*
X93881205Y-167784744D01*
X93767937Y-167615226D01*
X93623774Y-167471063D01*
X93454256Y-167357795D01*
X93265898Y-167279774D01*
X93065939Y-167240000D01*
X92862061Y-167240000D01*
X92662102Y-167279774D01*
X92473744Y-167357795D01*
X92304226Y-167471063D01*
X92160063Y-167615226D01*
X92046795Y-167784744D01*
X91968774Y-167973102D01*
X91929000Y-168173061D01*
X91929000Y-168376939D01*
X91968774Y-168576898D01*
X92046795Y-168765256D01*
X92160063Y-168934774D01*
X92204001Y-168978712D01*
X92204000Y-173676677D01*
X92200324Y-173714000D01*
X92204000Y-173751322D01*
X92204000Y-173751332D01*
X92214997Y-173862985D01*
X92258454Y-174006246D01*
X92329026Y-174138276D01*
X92368871Y-174186826D01*
X92423999Y-174254001D01*
X92453003Y-174277804D01*
X94111928Y-175936729D01*
X94111928Y-179397126D01*
X92760000Y-178045199D01*
X92760000Y-177708072D01*
X93000000Y-177708072D01*
X93124482Y-177695812D01*
X93244180Y-177659502D01*
X93354494Y-177600537D01*
X93451185Y-177521185D01*
X93530537Y-177424494D01*
X93589502Y-177314180D01*
X93625812Y-177194482D01*
X93638072Y-177070000D01*
X93638072Y-176070000D01*
X93625812Y-175945518D01*
X93589502Y-175825820D01*
X93530537Y-175715506D01*
X93451185Y-175618815D01*
X93354494Y-175539463D01*
X93244180Y-175480498D01*
X93124482Y-175444188D01*
X93000000Y-175431928D01*
X91000000Y-175431928D01*
X90875518Y-175444188D01*
X90755820Y-175480498D01*
X90645506Y-175539463D01*
X90548815Y-175618815D01*
X90469463Y-175715506D01*
X90410498Y-175825820D01*
X90374188Y-175945518D01*
X90361928Y-176070000D01*
X90361928Y-177070000D01*
X90374188Y-177194482D01*
X90410498Y-177314180D01*
X90469463Y-177424494D01*
X90548815Y-177521185D01*
X90645506Y-177600537D01*
X90755820Y-177659502D01*
X90875518Y-177695812D01*
X91000000Y-177708072D01*
X91240000Y-177708072D01*
X91240000Y-178322677D01*
X91236324Y-178360000D01*
X91240000Y-178397322D01*
X91240000Y-178397332D01*
X91250997Y-178508985D01*
X91289215Y-178634974D01*
X91294454Y-178652246D01*
X91365026Y-178784276D01*
X91404871Y-178832826D01*
X91459999Y-178900001D01*
X91489003Y-178923804D01*
X92997139Y-180431940D01*
X92285750Y-180435000D01*
X92127000Y-180593750D01*
X92127000Y-181443000D01*
X93476250Y-181443000D01*
X93635000Y-181284250D01*
X93638031Y-181072833D01*
X94140200Y-181575002D01*
X94163998Y-181604000D01*
X94192996Y-181627798D01*
X94279722Y-181698973D01*
X94378900Y-181751985D01*
X94411752Y-181769545D01*
X94555013Y-181813002D01*
X94666666Y-181823999D01*
X94666675Y-181823999D01*
X94703998Y-181827675D01*
X94741321Y-181823999D01*
X105537668Y-181823999D01*
X105575001Y-181827676D01*
X105723987Y-181813002D01*
X105867248Y-181769545D01*
X105999277Y-181698973D01*
X106115002Y-181604000D01*
X106209975Y-181488275D01*
X106229151Y-181452401D01*
X106346750Y-181570000D01*
X107696000Y-181570000D01*
X107696000Y-180720750D01*
X107950000Y-180720750D01*
X107950000Y-181570000D01*
X109299250Y-181570000D01*
X109458000Y-181411250D01*
X109461072Y-181197000D01*
X109448812Y-181072518D01*
X109412502Y-180952820D01*
X109353537Y-180842506D01*
X109274185Y-180745815D01*
X109177494Y-180666463D01*
X109067180Y-180607498D01*
X108947482Y-180571188D01*
X108823000Y-180558928D01*
X108108750Y-180562000D01*
X107950000Y-180720750D01*
X107696000Y-180720750D01*
X107537250Y-180562000D01*
X106823000Y-180558928D01*
X106698518Y-180571188D01*
X106578820Y-180607498D01*
X106468506Y-180666463D01*
X106371815Y-180745815D01*
X106335001Y-180790673D01*
X106335001Y-177603327D01*
X106371815Y-177648185D01*
X106468506Y-177727537D01*
X106578820Y-177786502D01*
X106698518Y-177822812D01*
X106823000Y-177835072D01*
X108823000Y-177835072D01*
X108947482Y-177822812D01*
X109067180Y-177786502D01*
X109177494Y-177727537D01*
X109274185Y-177648185D01*
X109353537Y-177551494D01*
X109412502Y-177441180D01*
X109448812Y-177321482D01*
X109461072Y-177197000D01*
X109461072Y-176197000D01*
X109448812Y-176072518D01*
X109412502Y-175952820D01*
X109353537Y-175842506D01*
X109274185Y-175745815D01*
X109177494Y-175666463D01*
X109067180Y-175607498D01*
X108947482Y-175571188D01*
X108823000Y-175558928D01*
X106950999Y-175558928D01*
X106950999Y-154989712D01*
X106975937Y-154964774D01*
X107089205Y-154795256D01*
X107167226Y-154606898D01*
X107207000Y-154406939D01*
X107207000Y-154203061D01*
X107167226Y-154003102D01*
X107089205Y-153814744D01*
X106975937Y-153645226D01*
X106831774Y-153501063D01*
X106662256Y-153387795D01*
X106473898Y-153309774D01*
X106273939Y-153270000D01*
X106070061Y-153270000D01*
X105870102Y-153309774D01*
X105681744Y-153387795D01*
X105512226Y-153501063D01*
X105368063Y-153645226D01*
X105254795Y-153814744D01*
X105176774Y-154003102D01*
X105137000Y-154203061D01*
X105137000Y-154406939D01*
X105154445Y-154494641D01*
X101344000Y-150684197D01*
X101344000Y-148772335D01*
X101347677Y-148735002D01*
X101333003Y-148586016D01*
X101289546Y-148442755D01*
X101218974Y-148310726D01*
X101147799Y-148223999D01*
X101124001Y-148195001D01*
X101095004Y-148171204D01*
X101061872Y-148138072D01*
X101098312Y-148138072D01*
X101171837Y-148211597D01*
X101341355Y-148324865D01*
X101529713Y-148402886D01*
X101729672Y-148442660D01*
X101933550Y-148442660D01*
X102133509Y-148402886D01*
X102321867Y-148324865D01*
X102491385Y-148211597D01*
X102564910Y-148138072D01*
X104843555Y-148138072D01*
X104843555Y-149732643D01*
X104227199Y-150349000D01*
X104165061Y-150349000D01*
X103965102Y-150388774D01*
X103776744Y-150466795D01*
X103607226Y-150580063D01*
X103463063Y-150724226D01*
X103349795Y-150893744D01*
X103271774Y-151082102D01*
X103232000Y-151282061D01*
X103232000Y-151485939D01*
X103271774Y-151685898D01*
X103349795Y-151874256D01*
X103463063Y-152043774D01*
X103607226Y-152187937D01*
X103776744Y-152301205D01*
X103965102Y-152379226D01*
X104165061Y-152419000D01*
X104368939Y-152419000D01*
X104568898Y-152379226D01*
X104757256Y-152301205D01*
X104926774Y-152187937D01*
X105070937Y-152043774D01*
X105184205Y-151874256D01*
X105262226Y-151685898D01*
X105302000Y-151485939D01*
X105302000Y-151423801D01*
X106114559Y-150611243D01*
X106143556Y-150587446D01*
X106238529Y-150471721D01*
X106309101Y-150339692D01*
X106352558Y-150196431D01*
X106363555Y-150084778D01*
X106363555Y-150084769D01*
X106367231Y-150047446D01*
X106363555Y-150010123D01*
X106363555Y-147650228D01*
X106394250Y-147650000D01*
X106553000Y-147491250D01*
X106553000Y-146567000D01*
X106807000Y-146567000D01*
X106807000Y-147491250D01*
X106965750Y-147650000D01*
X107380000Y-147653072D01*
X107504482Y-147640812D01*
X107624180Y-147604502D01*
X107696000Y-147566113D01*
X107767820Y-147604502D01*
X107887518Y-147640812D01*
X108012000Y-147653072D01*
X108426250Y-147650000D01*
X108585000Y-147491250D01*
X108585000Y-146567000D01*
X106807000Y-146567000D01*
X106553000Y-146567000D01*
X106533000Y-146567000D01*
X106533000Y-146313000D01*
X106553000Y-146313000D01*
X106553000Y-146293000D01*
X106807000Y-146293000D01*
X106807000Y-146313000D01*
G36*
X109840000Y-110405696D02*
G01*
X109840000Y-143498010D01*
X109789962Y-143437038D01*
X109655387Y-143326595D01*
X109501851Y-143244528D01*
X109335255Y-143193992D01*
X109162001Y-143176928D01*
X108261999Y-143176928D01*
X108088745Y-143193992D01*
X107922149Y-143244528D01*
X107768613Y-143326595D01*
X107696000Y-143386187D01*
X107623387Y-143326595D01*
X107469851Y-143244528D01*
X107440000Y-143235473D01*
X107440000Y-142816711D01*
X107483937Y-142772774D01*
X107597205Y-142603256D01*
X107672863Y-142420603D01*
X107706518Y-142430812D01*
X107831000Y-142443072D01*
X108045250Y-142440000D01*
X108204000Y-142281250D01*
X108204000Y-140642000D01*
X108458000Y-140642000D01*
X108458000Y-142281250D01*
X108616750Y-142440000D01*
X108831000Y-142443072D01*
X108955482Y-142430812D01*
X109075180Y-142394502D01*
X109185494Y-142335537D01*
X109282185Y-142256185D01*
X109361537Y-142159494D01*
X109420502Y-142049180D01*
X109456812Y-141929482D01*
X109469072Y-141805000D01*
X109466000Y-140800750D01*
X109307250Y-140642000D01*
X108458000Y-140642000D01*
X108204000Y-140642000D01*
X107354750Y-140642000D01*
X107196000Y-140800750D01*
X107194742Y-141212156D01*
X107170256Y-141195795D01*
X106981898Y-141117774D01*
X106781939Y-141078000D01*
X106578061Y-141078000D01*
X106378102Y-141117774D01*
X106363555Y-141123800D01*
X106363555Y-140919144D01*
X107195565Y-140087134D01*
X107196000Y-140229250D01*
X107354750Y-140388000D01*
X108204000Y-140388000D01*
X108204000Y-140368000D01*
X108458000Y-140368000D01*
X108458000Y-140388000D01*
X109307250Y-140388000D01*
X109466000Y-140229250D01*
X109469072Y-139225000D01*
X109456812Y-139100518D01*
X109420502Y-138980820D01*
X109361537Y-138870506D01*
X109282185Y-138773815D01*
X109185494Y-138694463D01*
X109075180Y-138635498D01*
X108955482Y-138599188D01*
X108831000Y-138586928D01*
X108616750Y-138590000D01*
X108458002Y-138748748D01*
X108458002Y-138590000D01*
X108403830Y-138590000D01*
X108388466Y-138512760D01*
X108310445Y-138324402D01*
X108276147Y-138273072D01*
X108831000Y-138273072D01*
X108955482Y-138260812D01*
X109075180Y-138224502D01*
X109185494Y-138165537D01*
X109282185Y-138086185D01*
X109361537Y-137989494D01*
X109420502Y-137879180D01*
X109456812Y-137759482D01*
X109469072Y-137635000D01*
X109469072Y-135055000D01*
X109456812Y-134930518D01*
X109420502Y-134810820D01*
X109361537Y-134700506D01*
X109282185Y-134603815D01*
X109185494Y-134524463D01*
X109075180Y-134465498D01*
X108955482Y-134429188D01*
X108831000Y-134416928D01*
X107831000Y-134416928D01*
X107706518Y-134429188D01*
X107586820Y-134465498D01*
X107476506Y-134524463D01*
X107379815Y-134603815D01*
X107300463Y-134700506D01*
X107241498Y-134810820D01*
X107205188Y-134930518D01*
X107192928Y-135055000D01*
X107192928Y-135585000D01*
X106805000Y-135585000D01*
X106805000Y-135292322D01*
X106808676Y-135254999D01*
X106805000Y-135217676D01*
X106805000Y-135217667D01*
X106794003Y-135106014D01*
X106750546Y-134962753D01*
X106679974Y-134830724D01*
X106629235Y-134768898D01*
X106608799Y-134743996D01*
X106608795Y-134743992D01*
X106585001Y-134714999D01*
X106556009Y-134691206D01*
X105084803Y-133220002D01*
X105061001Y-133190999D01*
X104945276Y-133096026D01*
X104813247Y-133025454D01*
X104669986Y-132981997D01*
X104558333Y-132971000D01*
X104558322Y-132971000D01*
X104521000Y-132967324D01*
X104483678Y-132971000D01*
X103319711Y-132971000D01*
X103275774Y-132927063D01*
X103106256Y-132813795D01*
X102917898Y-132735774D01*
X102717939Y-132696000D01*
X102514061Y-132696000D01*
X102314102Y-132735774D01*
X102125744Y-132813795D01*
X101956226Y-132927063D01*
X101885043Y-132998246D01*
X101725800Y-132839002D01*
X101701997Y-132809999D01*
X101586272Y-132715026D01*
X101454243Y-132644454D01*
X101310982Y-132600997D01*
X101199329Y-132590000D01*
X101199318Y-132590000D01*
X101161996Y-132586324D01*
X101124674Y-132590000D01*
X99382711Y-132590000D01*
X99338774Y-132546063D01*
X99169256Y-132432795D01*
X98980898Y-132354774D01*
X98780939Y-132315000D01*
X98577061Y-132315000D01*
X98377102Y-132354774D01*
X98188744Y-132432795D01*
X98019226Y-132546063D01*
X97975289Y-132590000D01*
X97368320Y-132590000D01*
X97330997Y-132586324D01*
X97293674Y-132590000D01*
X97293665Y-132590000D01*
X97182012Y-132600997D01*
X97038751Y-132644454D01*
X96906722Y-132715026D01*
X96790997Y-132809999D01*
X96767199Y-132838997D01*
X94975021Y-134631176D01*
X94975021Y-134329535D01*
X97515581Y-131893011D01*
X104162078Y-131893011D01*
X104199400Y-131896687D01*
X104236722Y-131893011D01*
X104236733Y-131893011D01*
X104348386Y-131882014D01*
X104491647Y-131838557D01*
X104623676Y-131767985D01*
X104739401Y-131673012D01*
X104763204Y-131644008D01*
X109546014Y-126861199D01*
X109575012Y-126837401D01*
X109669985Y-126721676D01*
X109740557Y-126589647D01*
X109784014Y-126446386D01*
X109795011Y-126334733D01*
X109795011Y-126334725D01*
X109798687Y-126297400D01*
X109795011Y-126260075D01*
X109795011Y-117579922D01*
X109798687Y-117542599D01*
X109795011Y-117505276D01*
X109795011Y-117505267D01*
X109784014Y-117393614D01*
X109740557Y-117250353D01*
X109669985Y-117118324D01*
X109575012Y-117002599D01*
X109546015Y-116978802D01*
X104128204Y-111560992D01*
X104104401Y-111531988D01*
X103988676Y-111437015D01*
X103856647Y-111366443D01*
X103713386Y-111322986D01*
X103601733Y-111311989D01*
X103601722Y-111311989D01*
X103564400Y-111308313D01*
X103527078Y-111311989D01*
X93473402Y-111311989D01*
X92494073Y-110332660D01*
X109840000Y-110405696D01*
G37*
X109840000Y-110405696D02*
X109840000Y-143498010D01*
X109789962Y-143437038D01*
X109655387Y-143326595D01*
X109501851Y-143244528D01*
X109335255Y-143193992D01*
X109162001Y-143176928D01*
X108261999Y-143176928D01*
X108088745Y-143193992D01*
X107922149Y-143244528D01*
X107768613Y-143326595D01*
X107696000Y-143386187D01*
X107623387Y-143326595D01*
X107469851Y-143244528D01*
X107440000Y-143235473D01*
X107440000Y-142816711D01*
X107483937Y-142772774D01*
X107597205Y-142603256D01*
X107672863Y-142420603D01*
X107706518Y-142430812D01*
X107831000Y-142443072D01*
X108045250Y-142440000D01*
X108204000Y-142281250D01*
X108204000Y-140642000D01*
X108458000Y-140642000D01*
X108458000Y-142281250D01*
X108616750Y-142440000D01*
X108831000Y-142443072D01*
X108955482Y-142430812D01*
X109075180Y-142394502D01*
X109185494Y-142335537D01*
X109282185Y-142256185D01*
X109361537Y-142159494D01*
X109420502Y-142049180D01*
X109456812Y-141929482D01*
X109469072Y-141805000D01*
X109466000Y-140800750D01*
X109307250Y-140642000D01*
X108458000Y-140642000D01*
X108204000Y-140642000D01*
X107354750Y-140642000D01*
X107196000Y-140800750D01*
X107194742Y-141212156D01*
X107170256Y-141195795D01*
X106981898Y-141117774D01*
X106781939Y-141078000D01*
X106578061Y-141078000D01*
X106378102Y-141117774D01*
X106363555Y-141123800D01*
X106363555Y-140919144D01*
X107195565Y-140087134D01*
X107196000Y-140229250D01*
X107354750Y-140388000D01*
X108204000Y-140388000D01*
X108204000Y-140368000D01*
X108458000Y-140368000D01*
X108458000Y-140388000D01*
X109307250Y-140388000D01*
X109466000Y-140229250D01*
X109469072Y-139225000D01*
X109456812Y-139100518D01*
X109420502Y-138980820D01*
X109361537Y-138870506D01*
X109282185Y-138773815D01*
X109185494Y-138694463D01*
X109075180Y-138635498D01*
X108955482Y-138599188D01*
X108831000Y-138586928D01*
X108616750Y-138590000D01*
X108458002Y-138748748D01*
X108458002Y-138590000D01*
X108403830Y-138590000D01*
X108388466Y-138512760D01*
X108310445Y-138324402D01*
X108276147Y-138273072D01*
X108831000Y-138273072D01*
X108955482Y-138260812D01*
X109075180Y-138224502D01*
X109185494Y-138165537D01*
X109282185Y-138086185D01*
X109361537Y-137989494D01*
X109420502Y-137879180D01*
X109456812Y-137759482D01*
X109469072Y-137635000D01*
X109469072Y-135055000D01*
X109456812Y-134930518D01*
X109420502Y-134810820D01*
X109361537Y-134700506D01*
X109282185Y-134603815D01*
X109185494Y-134524463D01*
X109075180Y-134465498D01*
X108955482Y-134429188D01*
X108831000Y-134416928D01*
X107831000Y-134416928D01*
X107706518Y-134429188D01*
X107586820Y-134465498D01*
X107476506Y-134524463D01*
X107379815Y-134603815D01*
X107300463Y-134700506D01*
X107241498Y-134810820D01*
X107205188Y-134930518D01*
X107192928Y-135055000D01*
X107192928Y-135585000D01*
X106805000Y-135585000D01*
X106805000Y-135292322D01*
X106808676Y-135254999D01*
X106805000Y-135217676D01*
X106805000Y-135217667D01*
X106794003Y-135106014D01*
X106750546Y-134962753D01*
X106679974Y-134830724D01*
X106629235Y-134768898D01*
X106608799Y-134743996D01*
X106608795Y-134743992D01*
X106585001Y-134714999D01*
X106556009Y-134691206D01*
X105084803Y-133220002D01*
X105061001Y-133190999D01*
X104945276Y-133096026D01*
X104813247Y-133025454D01*
X104669986Y-132981997D01*
X104558333Y-132971000D01*
X104558322Y-132971000D01*
X104521000Y-132967324D01*
X104483678Y-132971000D01*
X103319711Y-132971000D01*
X103275774Y-132927063D01*
X103106256Y-132813795D01*
X102917898Y-132735774D01*
X102717939Y-132696000D01*
X102514061Y-132696000D01*
X102314102Y-132735774D01*
X102125744Y-132813795D01*
X101956226Y-132927063D01*
X101885043Y-132998246D01*
X101725800Y-132839002D01*
X101701997Y-132809999D01*
X101586272Y-132715026D01*
X101454243Y-132644454D01*
X101310982Y-132600997D01*
X101199329Y-132590000D01*
X101199318Y-132590000D01*
X101161996Y-132586324D01*
X101124674Y-132590000D01*
X99382711Y-132590000D01*
X99338774Y-132546063D01*
X99169256Y-132432795D01*
X98980898Y-132354774D01*
X98780939Y-132315000D01*
X98577061Y-132315000D01*
X98377102Y-132354774D01*
X98188744Y-132432795D01*
X98019226Y-132546063D01*
X97975289Y-132590000D01*
X97368320Y-132590000D01*
X97330997Y-132586324D01*
X97293674Y-132590000D01*
X97293665Y-132590000D01*
X97182012Y-132600997D01*
X97038751Y-132644454D01*
X96906722Y-132715026D01*
X96790997Y-132809999D01*
X96767199Y-132838997D01*
X94975021Y-134631176D01*
X94975021Y-134329535D01*
X97515581Y-131893011D01*
X104162078Y-131893011D01*
X104199400Y-131896687D01*
X104236722Y-131893011D01*
X104236733Y-131893011D01*
X104348386Y-131882014D01*
X104491647Y-131838557D01*
X104623676Y-131767985D01*
X104739401Y-131673012D01*
X104763204Y-131644008D01*
X109546014Y-126861199D01*
X109575012Y-126837401D01*
X109669985Y-126721676D01*
X109740557Y-126589647D01*
X109784014Y-126446386D01*
X109795011Y-126334733D01*
X109795011Y-126334725D01*
X109798687Y-126297400D01*
X109795011Y-126260075D01*
X109795011Y-117579922D01*
X109798687Y-117542599D01*
X109795011Y-117505276D01*
X109795011Y-117505267D01*
X109784014Y-117393614D01*
X109740557Y-117250353D01*
X109669985Y-117118324D01*
X109575012Y-117002599D01*
X109546015Y-116978802D01*
X104128204Y-111560992D01*
X104104401Y-111531988D01*
X103988676Y-111437015D01*
X103856647Y-111366443D01*
X103713386Y-111322986D01*
X103601733Y-111311989D01*
X103601722Y-111311989D01*
X103564400Y-111308313D01*
X103527078Y-111311989D01*
X93473402Y-111311989D01*
X92494073Y-110332660D01*
X109840000Y-110405696D01*
G36*
X99759815Y-138086185D02*
G01*
X99856506Y-138165537D01*
X99966820Y-138224502D01*
X100043078Y-138247635D01*
X100076026Y-138309276D01*
X100141852Y-138389484D01*
X100171000Y-138425001D01*
X100199998Y-138448799D01*
X100338127Y-138586928D01*
X100211000Y-138586928D01*
X100086518Y-138599188D01*
X99966820Y-138635498D01*
X99856506Y-138694463D01*
X99759815Y-138773815D01*
X99711000Y-138833296D01*
X99662185Y-138773815D01*
X99565494Y-138694463D01*
X99455180Y-138635498D01*
X99335482Y-138599188D01*
X99211000Y-138586928D01*
X98996750Y-138590000D01*
X98838000Y-138748750D01*
X98838000Y-140388000D01*
X98858000Y-140388000D01*
X98858000Y-140642000D01*
X98838000Y-140642000D01*
X98838000Y-140662000D01*
X98584000Y-140662000D01*
X98584000Y-140642000D01*
X97734750Y-140642000D01*
X97711000Y-140665750D01*
X97687250Y-140642000D01*
X96838000Y-140642000D01*
X96838000Y-140662000D01*
X96584000Y-140662000D01*
X96584000Y-140642000D01*
X96564000Y-140642000D01*
X96564000Y-140388000D01*
X96584000Y-140388000D01*
X96584000Y-138748750D01*
X96838000Y-138748750D01*
X96838000Y-140388000D01*
X97687250Y-140388000D01*
X97711000Y-140364250D01*
X97734750Y-140388000D01*
X98584000Y-140388000D01*
X98584000Y-138748750D01*
X98425250Y-138590000D01*
X98211000Y-138586928D01*
X98086518Y-138599188D01*
X97966820Y-138635498D01*
X97856506Y-138694463D01*
X97759815Y-138773815D01*
X97711000Y-138833296D01*
X97662185Y-138773815D01*
X97565494Y-138694463D01*
X97455180Y-138635498D01*
X97335482Y-138599188D01*
X97211000Y-138586928D01*
X96996750Y-138590000D01*
X96838000Y-138748750D01*
X96584000Y-138748750D01*
X96536999Y-138701749D01*
X96536999Y-138273072D01*
X97211000Y-138273072D01*
X97335482Y-138260812D01*
X97455180Y-138224502D01*
X97565494Y-138165537D01*
X97662185Y-138086185D01*
X97711000Y-138026704D01*
X97759815Y-138086185D01*
X97856506Y-138165537D01*
X97966820Y-138224502D01*
X98086518Y-138260812D01*
X98211000Y-138273072D01*
X99211000Y-138273072D01*
X99335482Y-138260812D01*
X99455180Y-138224502D01*
X99565494Y-138165537D01*
X99662185Y-138086185D01*
X99711000Y-138026704D01*
X99759815Y-138086185D01*
G37*
X99759815Y-138086185D02*
X99856506Y-138165537D01*
X99966820Y-138224502D01*
X100043078Y-138247635D01*
X100076026Y-138309276D01*
X100141852Y-138389484D01*
X100171000Y-138425001D01*
X100199998Y-138448799D01*
X100338127Y-138586928D01*
X100211000Y-138586928D01*
X100086518Y-138599188D01*
X99966820Y-138635498D01*
X99856506Y-138694463D01*
X99759815Y-138773815D01*
X99711000Y-138833296D01*
X99662185Y-138773815D01*
X99565494Y-138694463D01*
X99455180Y-138635498D01*
X99335482Y-138599188D01*
X99211000Y-138586928D01*
X98996750Y-138590000D01*
X98838000Y-138748750D01*
X98838000Y-140388000D01*
X98858000Y-140388000D01*
X98858000Y-140642000D01*
X98838000Y-140642000D01*
X98838000Y-140662000D01*
X98584000Y-140662000D01*
X98584000Y-140642000D01*
X97734750Y-140642000D01*
X97711000Y-140665750D01*
X97687250Y-140642000D01*
X96838000Y-140642000D01*
X96838000Y-140662000D01*
X96584000Y-140662000D01*
X96584000Y-140642000D01*
X96564000Y-140642000D01*
X96564000Y-140388000D01*
X96584000Y-140388000D01*
X96584000Y-138748750D01*
X96838000Y-138748750D01*
X96838000Y-140388000D01*
X97687250Y-140388000D01*
X97711000Y-140364250D01*
X97734750Y-140388000D01*
X98584000Y-140388000D01*
X98584000Y-138748750D01*
X98425250Y-138590000D01*
X98211000Y-138586928D01*
X98086518Y-138599188D01*
X97966820Y-138635498D01*
X97856506Y-138694463D01*
X97759815Y-138773815D01*
X97711000Y-138833296D01*
X97662185Y-138773815D01*
X97565494Y-138694463D01*
X97455180Y-138635498D01*
X97335482Y-138599188D01*
X97211000Y-138586928D01*
X96996750Y-138590000D01*
X96838000Y-138748750D01*
X96584000Y-138748750D01*
X96536999Y-138701749D01*
X96536999Y-138273072D01*
X97211000Y-138273072D01*
X97335482Y-138260812D01*
X97455180Y-138224502D01*
X97565494Y-138165537D01*
X97662185Y-138086185D01*
X97711000Y-138026704D01*
X97759815Y-138086185D01*
X97856506Y-138165537D01*
X97966820Y-138224502D01*
X98086518Y-138260812D01*
X98211000Y-138273072D01*
X99211000Y-138273072D01*
X99335482Y-138260812D01*
X99455180Y-138224502D01*
X99565494Y-138165537D01*
X99662185Y-138086185D01*
X99711000Y-138026704D01*
X99759815Y-138086185D01*
G36*
X91567000Y-132715000D02*
G01*
X91587000Y-132715000D01*
X91587000Y-132969000D01*
X91567000Y-132969000D01*
X91567000Y-135255000D01*
X91587000Y-135255000D01*
X91587000Y-135509000D01*
X91567000Y-135509000D01*
X91567000Y-135529000D01*
X91313000Y-135529000D01*
X91313000Y-135509000D01*
X90160000Y-135509000D01*
X90160000Y-135255000D01*
X91313000Y-135255000D01*
X91313000Y-132969000D01*
X90160000Y-132969000D01*
X90160000Y-132715000D01*
X91313000Y-132715000D01*
X91313000Y-132695000D01*
X91567000Y-132695000D01*
X91567000Y-132715000D01*
G37*
X91567000Y-132715000D02*
X91587000Y-132715000D01*
X91587000Y-132969000D01*
X91567000Y-132969000D01*
X91567000Y-135255000D01*
X91587000Y-135255000D01*
X91587000Y-135509000D01*
X91567000Y-135509000D01*
X91567000Y-135529000D01*
X91313000Y-135529000D01*
X91313000Y-135509000D01*
X90160000Y-135509000D01*
X90160000Y-135255000D01*
X91313000Y-135255000D01*
X91313000Y-132969000D01*
X90160000Y-132969000D01*
X90160000Y-132715000D01*
X91313000Y-132715000D01*
X91313000Y-132695000D01*
X91567000Y-132695000D01*
X91567000Y-132715000D01*
G36*
X107825001Y-118043803D02*
G01*
X107825000Y-125796197D01*
X103698199Y-129923000D01*
X96944968Y-129923000D01*
X96914310Y-129919440D01*
X96870313Y-129923000D01*
X96863667Y-129923000D01*
X96833074Y-129926013D01*
X96765091Y-129931514D01*
X96758663Y-129933342D01*
X96752014Y-129933997D01*
X96686711Y-129953806D01*
X96621095Y-129972468D01*
X96615151Y-129975513D01*
X96608753Y-129977454D01*
X96548560Y-130009628D01*
X96487855Y-130040728D01*
X96482617Y-130044876D01*
X96476724Y-130048026D01*
X96423992Y-130091302D01*
X96399901Y-130110380D01*
X96395124Y-130114994D01*
X96360999Y-130142999D01*
X96341416Y-130166861D01*
X94078072Y-132352647D01*
X94078072Y-131842000D01*
X94065812Y-131717518D01*
X94029502Y-131597820D01*
X94015701Y-131572000D01*
X94029502Y-131546180D01*
X94065812Y-131426482D01*
X94078072Y-131302000D01*
X94078072Y-131056018D01*
X94128986Y-131051003D01*
X94272247Y-131007546D01*
X94404276Y-130936974D01*
X94520001Y-130842001D01*
X94543804Y-130812998D01*
X95162802Y-130194000D01*
X95224939Y-130194000D01*
X95424898Y-130154226D01*
X95613256Y-130076205D01*
X95782774Y-129962937D01*
X95926937Y-129818774D01*
X96040205Y-129649256D01*
X96118226Y-129460898D01*
X96158000Y-129260939D01*
X96158000Y-129057061D01*
X96118226Y-128857102D01*
X96074840Y-128752360D01*
X96163774Y-128692937D01*
X96307937Y-128548774D01*
X96421205Y-128379256D01*
X96455358Y-128296803D01*
X96667773Y-128419441D01*
X97736280Y-128838799D01*
X98855355Y-129094221D01*
X100000000Y-129180000D01*
X101144645Y-129094221D01*
X102263720Y-128838799D01*
X103332227Y-128419441D01*
X104326298Y-127845514D01*
X105223727Y-127129838D01*
X106004466Y-126288402D01*
X106651075Y-125340000D01*
X107149110Y-124305819D01*
X107487446Y-123208961D01*
X107658525Y-122073927D01*
X107658525Y-120926073D01*
X107487446Y-119791039D01*
X107149110Y-118694181D01*
X106651075Y-117660000D01*
X106004466Y-116711598D01*
X105223727Y-115870162D01*
X104326298Y-115154486D01*
X103332227Y-114580559D01*
X102263720Y-114161201D01*
X101144645Y-113905779D01*
X100000000Y-113820000D01*
X98855355Y-113905779D01*
X97736280Y-114161201D01*
X96667773Y-114580559D01*
X95673702Y-115154486D01*
X94776273Y-115870162D01*
X93995534Y-116711598D01*
X93348925Y-117660000D01*
X92850890Y-118694181D01*
X92512554Y-119791039D01*
X92341475Y-120926073D01*
X92341475Y-122073927D01*
X92512554Y-123208961D01*
X92628216Y-123583928D01*
X92200000Y-123583928D01*
X92200000Y-116208797D01*
X92946798Y-115462000D01*
X93008935Y-115462000D01*
X93208894Y-115422226D01*
X93397252Y-115344205D01*
X93566770Y-115230937D01*
X93710933Y-115086774D01*
X93824201Y-114917256D01*
X93902222Y-114728898D01*
X93941996Y-114528939D01*
X93941996Y-114325061D01*
X93902222Y-114125102D01*
X93824201Y-113936744D01*
X93710933Y-113767226D01*
X93612689Y-113668982D01*
X93627205Y-113647256D01*
X93705226Y-113458898D01*
X93740413Y-113282000D01*
X103063199Y-113282000D01*
X107825001Y-118043803D01*
G37*
X107825001Y-118043803D02*
X107825000Y-125796197D01*
X103698199Y-129923000D01*
X96944968Y-129923000D01*
X96914310Y-129919440D01*
X96870313Y-129923000D01*
X96863667Y-129923000D01*
X96833074Y-129926013D01*
X96765091Y-129931514D01*
X96758663Y-129933342D01*
X96752014Y-129933997D01*
X96686711Y-129953806D01*
X96621095Y-129972468D01*
X96615151Y-129975513D01*
X96608753Y-129977454D01*
X96548560Y-130009628D01*
X96487855Y-130040728D01*
X96482617Y-130044876D01*
X96476724Y-130048026D01*
X96423992Y-130091302D01*
X96399901Y-130110380D01*
X96395124Y-130114994D01*
X96360999Y-130142999D01*
X96341416Y-130166861D01*
X94078072Y-132352647D01*
X94078072Y-131842000D01*
X94065812Y-131717518D01*
X94029502Y-131597820D01*
X94015701Y-131572000D01*
X94029502Y-131546180D01*
X94065812Y-131426482D01*
X94078072Y-131302000D01*
X94078072Y-131056018D01*
X94128986Y-131051003D01*
X94272247Y-131007546D01*
X94404276Y-130936974D01*
X94520001Y-130842001D01*
X94543804Y-130812998D01*
X95162802Y-130194000D01*
X95224939Y-130194000D01*
X95424898Y-130154226D01*
X95613256Y-130076205D01*
X95782774Y-129962937D01*
X95926937Y-129818774D01*
X96040205Y-129649256D01*
X96118226Y-129460898D01*
X96158000Y-129260939D01*
X96158000Y-129057061D01*
X96118226Y-128857102D01*
X96074840Y-128752360D01*
X96163774Y-128692937D01*
X96307937Y-128548774D01*
X96421205Y-128379256D01*
X96455358Y-128296803D01*
X96667773Y-128419441D01*
X97736280Y-128838799D01*
X98855355Y-129094221D01*
X100000000Y-129180000D01*
X101144645Y-129094221D01*
X102263720Y-128838799D01*
X103332227Y-128419441D01*
X104326298Y-127845514D01*
X105223727Y-127129838D01*
X106004466Y-126288402D01*
X106651075Y-125340000D01*
X107149110Y-124305819D01*
X107487446Y-123208961D01*
X107658525Y-122073927D01*
X107658525Y-120926073D01*
X107487446Y-119791039D01*
X107149110Y-118694181D01*
X106651075Y-117660000D01*
X106004466Y-116711598D01*
X105223727Y-115870162D01*
X104326298Y-115154486D01*
X103332227Y-114580559D01*
X102263720Y-114161201D01*
X101144645Y-113905779D01*
X100000000Y-113820000D01*
X98855355Y-113905779D01*
X97736280Y-114161201D01*
X96667773Y-114580559D01*
X95673702Y-115154486D01*
X94776273Y-115870162D01*
X93995534Y-116711598D01*
X93348925Y-117660000D01*
X92850890Y-118694181D01*
X92512554Y-119791039D01*
X92341475Y-120926073D01*
X92341475Y-122073927D01*
X92512554Y-123208961D01*
X92628216Y-123583928D01*
X92200000Y-123583928D01*
X92200000Y-116208797D01*
X92946798Y-115462000D01*
X93008935Y-115462000D01*
X93208894Y-115422226D01*
X93397252Y-115344205D01*
X93566770Y-115230937D01*
X93710933Y-115086774D01*
X93824201Y-114917256D01*
X93902222Y-114728898D01*
X93941996Y-114528939D01*
X93941996Y-114325061D01*
X93902222Y-114125102D01*
X93824201Y-113936744D01*
X93710933Y-113767226D01*
X93612689Y-113668982D01*
X93627205Y-113647256D01*
X93705226Y-113458898D01*
X93740413Y-113282000D01*
X103063199Y-113282000D01*
X107825001Y-118043803D01*
G36*
X95008915Y-84403355D02*
G01*
X95032664Y-84422077D01*
X95055311Y-84442113D01*
X95069200Y-84452391D01*
X95919772Y-85064715D01*
X95954127Y-85085767D01*
X95987924Y-85107716D01*
X96003180Y-85115827D01*
X96934917Y-85595703D01*
X96971998Y-85611443D01*
X97008676Y-85628158D01*
X97024964Y-85633926D01*
X98017395Y-85970812D01*
X98056407Y-85980901D01*
X98095142Y-85992008D01*
X98112103Y-85995305D01*
X99143429Y-86181799D01*
X99183495Y-86186010D01*
X99223455Y-86191271D01*
X99240715Y-86192024D01*
X99240717Y-86192024D01*
X100288281Y-86224030D01*
X100328545Y-86222272D01*
X100368827Y-86221569D01*
X100386011Y-86219763D01*
X101426798Y-86096577D01*
X101466346Y-86088890D01*
X101506095Y-86082238D01*
X101522823Y-86077912D01*
X102533972Y-85802242D01*
X102571949Y-85788793D01*
X102610279Y-85776339D01*
X102626184Y-85769587D01*
X103585478Y-85347488D01*
X103621063Y-85328567D01*
X103657118Y-85310590D01*
X103671851Y-85301562D01*
X104558217Y-84742307D01*
X104590609Y-84718338D01*
X104623617Y-84695226D01*
X104636853Y-84684119D01*
X105245124Y-84160000D01*
X108467721Y-84160000D01*
X108759659Y-84188625D01*
X109009429Y-84264035D01*
X109239792Y-84386522D01*
X109441980Y-84551422D01*
X109608286Y-84752450D01*
X109732378Y-84981954D01*
X109809531Y-85231195D01*
X109840001Y-85521098D01*
X109840000Y-89842795D01*
X92454000Y-89911491D01*
X92454000Y-87698711D01*
X92497937Y-87654774D01*
X92611205Y-87485256D01*
X92689226Y-87296898D01*
X92729000Y-87096939D01*
X92729000Y-86893061D01*
X92689226Y-86693102D01*
X92611205Y-86504744D01*
X92497937Y-86335226D01*
X92353774Y-86191063D01*
X92184256Y-86077795D01*
X91995898Y-85999774D01*
X91795939Y-85960000D01*
X91592061Y-85960000D01*
X91392102Y-85999774D01*
X91203744Y-86077795D01*
X91034226Y-86191063D01*
X90890063Y-86335226D01*
X90776795Y-86504744D01*
X90698774Y-86693102D01*
X90659000Y-86893061D01*
X90659000Y-87096939D01*
X90698774Y-87296898D01*
X90776795Y-87485256D01*
X90890063Y-87654774D01*
X90934000Y-87698711D01*
X90934001Y-110570056D01*
X90930324Y-110607389D01*
X90944998Y-110756374D01*
X90988454Y-110899635D01*
X91059026Y-111031665D01*
X91130201Y-111118391D01*
X91154000Y-111147390D01*
X91182998Y-111171188D01*
X92242273Y-112230463D01*
X92219744Y-112239795D01*
X92050226Y-112353063D01*
X91906063Y-112497226D01*
X91792795Y-112666744D01*
X91714774Y-112855102D01*
X91675000Y-113055061D01*
X91675000Y-113258939D01*
X91714774Y-113458898D01*
X91792795Y-113647256D01*
X91906063Y-113816774D01*
X92004307Y-113915018D01*
X91989791Y-113936744D01*
X91911770Y-114125102D01*
X91871996Y-114325061D01*
X91871996Y-114387198D01*
X90928998Y-115330197D01*
X90900000Y-115353995D01*
X90876202Y-115382993D01*
X90876201Y-115382994D01*
X90805026Y-115469720D01*
X90734454Y-115601750D01*
X90690998Y-115745011D01*
X90676324Y-115893996D01*
X90680001Y-115931328D01*
X90680000Y-123583928D01*
X90160000Y-123583928D01*
X90160000Y-85532279D01*
X90188625Y-85240341D01*
X90264035Y-84990571D01*
X90386522Y-84760208D01*
X90551422Y-84558020D01*
X90752450Y-84391714D01*
X90981954Y-84267622D01*
X91231195Y-84190469D01*
X91521088Y-84160000D01*
X94743340Y-84160000D01*
X95008915Y-84403355D01*
G37*
X95008915Y-84403355D02*
X95032664Y-84422077D01*
X95055311Y-84442113D01*
X95069200Y-84452391D01*
X95919772Y-85064715D01*
X95954127Y-85085767D01*
X95987924Y-85107716D01*
X96003180Y-85115827D01*
X96934917Y-85595703D01*
X96971998Y-85611443D01*
X97008676Y-85628158D01*
X97024964Y-85633926D01*
X98017395Y-85970812D01*
X98056407Y-85980901D01*
X98095142Y-85992008D01*
X98112103Y-85995305D01*
X99143429Y-86181799D01*
X99183495Y-86186010D01*
X99223455Y-86191271D01*
X99240715Y-86192024D01*
X99240717Y-86192024D01*
X100288281Y-86224030D01*
X100328545Y-86222272D01*
X100368827Y-86221569D01*
X100386011Y-86219763D01*
X101426798Y-86096577D01*
X101466346Y-86088890D01*
X101506095Y-86082238D01*
X101522823Y-86077912D01*
X102533972Y-85802242D01*
X102571949Y-85788793D01*
X102610279Y-85776339D01*
X102626184Y-85769587D01*
X103585478Y-85347488D01*
X103621063Y-85328567D01*
X103657118Y-85310590D01*
X103671851Y-85301562D01*
X104558217Y-84742307D01*
X104590609Y-84718338D01*
X104623617Y-84695226D01*
X104636853Y-84684119D01*
X105245124Y-84160000D01*
X108467721Y-84160000D01*
X108759659Y-84188625D01*
X109009429Y-84264035D01*
X109239792Y-84386522D01*
X109441980Y-84551422D01*
X109608286Y-84752450D01*
X109732378Y-84981954D01*
X109809531Y-85231195D01*
X109840001Y-85521098D01*
X109840000Y-89842795D01*
X92454000Y-89911491D01*
X92454000Y-87698711D01*
X92497937Y-87654774D01*
X92611205Y-87485256D01*
X92689226Y-87296898D01*
X92729000Y-87096939D01*
X92729000Y-86893061D01*
X92689226Y-86693102D01*
X92611205Y-86504744D01*
X92497937Y-86335226D01*
X92353774Y-86191063D01*
X92184256Y-86077795D01*
X91995898Y-85999774D01*
X91795939Y-85960000D01*
X91592061Y-85960000D01*
X91392102Y-85999774D01*
X91203744Y-86077795D01*
X91034226Y-86191063D01*
X90890063Y-86335226D01*
X90776795Y-86504744D01*
X90698774Y-86693102D01*
X90659000Y-86893061D01*
X90659000Y-87096939D01*
X90698774Y-87296898D01*
X90776795Y-87485256D01*
X90890063Y-87654774D01*
X90934000Y-87698711D01*
X90934001Y-110570056D01*
X90930324Y-110607389D01*
X90944998Y-110756374D01*
X90988454Y-110899635D01*
X91059026Y-111031665D01*
X91130201Y-111118391D01*
X91154000Y-111147390D01*
X91182998Y-111171188D01*
X92242273Y-112230463D01*
X92219744Y-112239795D01*
X92050226Y-112353063D01*
X91906063Y-112497226D01*
X91792795Y-112666744D01*
X91714774Y-112855102D01*
X91675000Y-113055061D01*
X91675000Y-113258939D01*
X91714774Y-113458898D01*
X91792795Y-113647256D01*
X91906063Y-113816774D01*
X92004307Y-113915018D01*
X91989791Y-113936744D01*
X91911770Y-114125102D01*
X91871996Y-114325061D01*
X91871996Y-114387198D01*
X90928998Y-115330197D01*
X90900000Y-115353995D01*
X90876202Y-115382993D01*
X90876201Y-115382994D01*
X90805026Y-115469720D01*
X90734454Y-115601750D01*
X90690998Y-115745011D01*
X90676324Y-115893996D01*
X90680001Y-115931328D01*
X90680000Y-123583928D01*
X90160000Y-123583928D01*
X90160000Y-85532279D01*
X90188625Y-85240341D01*
X90264035Y-84990571D01*
X90386522Y-84760208D01*
X90551422Y-84558020D01*
X90752450Y-84391714D01*
X90981954Y-84267622D01*
X91231195Y-84190469D01*
X91521088Y-84160000D01*
X94743340Y-84160000D01*
X95008915Y-84403355D01*
M02*
