G04 #@! TF.GenerationSoftware,KiCad,Pcbnew,(5.1.5)-3*
G04 #@! TF.CreationDate,2020-04-21T12:57:46+02:00*
G04 #@! TF.ProjectId,RHS_3_Simple,5248535f-335f-4536-996d-706c652e6b69,rev?*
G04 #@! TF.SameCoordinates,Original*
G04 #@! TF.FileFunction,Soldermask,Top*
G04 #@! TF.FilePolarity,Negative*
%FSLAX46Y46*%
G04 Gerber Fmt 4.6, Leading zero omitted, Abs format (unit mm)*
G04 Created by KiCad (PCBNEW (5.1.5)-3) date 2020-04-21 12:57:46*
%MOMM*%
%LPD*%
G04 APERTURE LIST*
%ADD10C,0.100000*%
G04 APERTURE END LIST*
D10*
G36*
X108874000Y-182248000D02*
G01*
X106772000Y-182248000D01*
X106772000Y-181146000D01*
X108874000Y-181146000D01*
X108874000Y-182248000D01*
G37*
G36*
X93051000Y-182121000D02*
G01*
X90949000Y-182121000D01*
X90949000Y-181019000D01*
X93051000Y-181019000D01*
X93051000Y-182121000D01*
G37*
G36*
X105301000Y-180551000D02*
G01*
X94699000Y-180551000D01*
X94699000Y-175449000D01*
X105301000Y-175449000D01*
X105301000Y-180551000D01*
G37*
G36*
X108874000Y-177248000D02*
G01*
X106772000Y-177248000D01*
X106772000Y-176146000D01*
X108874000Y-176146000D01*
X108874000Y-177248000D01*
G37*
G36*
X93051000Y-177121000D02*
G01*
X90949000Y-177121000D01*
X90949000Y-176019000D01*
X93051000Y-176019000D01*
X93051000Y-177121000D01*
G37*
G36*
X109145564Y-172344389D02*
G01*
X109336833Y-172423615D01*
X109336835Y-172423616D01*
X109508973Y-172538635D01*
X109655365Y-172685027D01*
X109770385Y-172857167D01*
X109849611Y-173048436D01*
X109890000Y-173251484D01*
X109890000Y-173458516D01*
X109849611Y-173661564D01*
X109770385Y-173852833D01*
X109770384Y-173852835D01*
X109655365Y-174024973D01*
X109508973Y-174171365D01*
X109336835Y-174286384D01*
X109336834Y-174286385D01*
X109336833Y-174286385D01*
X109145564Y-174365611D01*
X108942516Y-174406000D01*
X108735484Y-174406000D01*
X108532436Y-174365611D01*
X108341167Y-174286385D01*
X108341166Y-174286385D01*
X108341165Y-174286384D01*
X108169027Y-174171365D01*
X108022635Y-174024973D01*
X107907616Y-173852835D01*
X107907615Y-173852833D01*
X107828389Y-173661564D01*
X107788000Y-173458516D01*
X107788000Y-173251484D01*
X107828389Y-173048436D01*
X107907615Y-172857167D01*
X108022635Y-172685027D01*
X108169027Y-172538635D01*
X108341165Y-172423616D01*
X108341167Y-172423615D01*
X108532436Y-172344389D01*
X108735484Y-172304000D01*
X108942516Y-172304000D01*
X109145564Y-172344389D01*
G37*
G36*
X105301000Y-166801000D02*
G01*
X94699000Y-166801000D01*
X94699000Y-156199000D01*
X105301000Y-156199000D01*
X105301000Y-166801000D01*
G37*
G36*
X105301000Y-147551000D02*
G01*
X94699000Y-147551000D01*
X94699000Y-142449000D01*
X105301000Y-142449000D01*
X105301000Y-147551000D01*
G37*
G36*
X93436674Y-145811465D02*
G01*
X93474367Y-145822899D01*
X93509103Y-145841466D01*
X93539548Y-145866452D01*
X93564534Y-145896897D01*
X93583101Y-145931633D01*
X93594535Y-145969326D01*
X93599000Y-146014661D01*
X93599000Y-147101339D01*
X93594535Y-147146674D01*
X93583101Y-147184367D01*
X93564534Y-147219103D01*
X93539548Y-147249548D01*
X93509103Y-147274534D01*
X93474367Y-147293101D01*
X93436674Y-147304535D01*
X93391339Y-147309000D01*
X92554661Y-147309000D01*
X92509326Y-147304535D01*
X92471633Y-147293101D01*
X92436897Y-147274534D01*
X92406452Y-147249548D01*
X92381466Y-147219103D01*
X92362899Y-147184367D01*
X92351465Y-147146674D01*
X92347000Y-147101339D01*
X92347000Y-146014661D01*
X92351465Y-145969326D01*
X92362899Y-145931633D01*
X92381466Y-145896897D01*
X92406452Y-145866452D01*
X92436897Y-145841466D01*
X92471633Y-145822899D01*
X92509326Y-145811465D01*
X92554661Y-145807000D01*
X93391339Y-145807000D01*
X93436674Y-145811465D01*
G37*
G36*
X91386674Y-145811465D02*
G01*
X91424367Y-145822899D01*
X91459103Y-145841466D01*
X91489548Y-145866452D01*
X91514534Y-145896897D01*
X91533101Y-145931633D01*
X91544535Y-145969326D01*
X91549000Y-146014661D01*
X91549000Y-147101339D01*
X91544535Y-147146674D01*
X91533101Y-147184367D01*
X91514534Y-147219103D01*
X91489548Y-147249548D01*
X91459103Y-147274534D01*
X91424367Y-147293101D01*
X91386674Y-147304535D01*
X91341339Y-147309000D01*
X90504661Y-147309000D01*
X90459326Y-147304535D01*
X90421633Y-147293101D01*
X90386897Y-147274534D01*
X90356452Y-147249548D01*
X90331466Y-147219103D01*
X90312899Y-147184367D01*
X90301465Y-147146674D01*
X90297000Y-147101339D01*
X90297000Y-146014661D01*
X90301465Y-145969326D01*
X90312899Y-145931633D01*
X90331466Y-145896897D01*
X90356452Y-145866452D01*
X90386897Y-145841466D01*
X90421633Y-145822899D01*
X90459326Y-145811465D01*
X90504661Y-145807000D01*
X91341339Y-145807000D01*
X91386674Y-145811465D01*
G37*
G36*
X109300674Y-145818465D02*
G01*
X109338367Y-145829899D01*
X109373103Y-145848466D01*
X109403548Y-145873452D01*
X109428534Y-145903897D01*
X109447101Y-145938633D01*
X109458535Y-145976326D01*
X109463000Y-146021661D01*
X109463000Y-146858339D01*
X109458535Y-146903674D01*
X109447101Y-146941367D01*
X109428534Y-146976103D01*
X109403548Y-147006548D01*
X109373103Y-147031534D01*
X109338367Y-147050101D01*
X109300674Y-147061535D01*
X109255339Y-147066000D01*
X108168661Y-147066000D01*
X108123326Y-147061535D01*
X108085633Y-147050101D01*
X108050897Y-147031534D01*
X108020452Y-147006548D01*
X107995466Y-146976103D01*
X107976899Y-146941367D01*
X107965465Y-146903674D01*
X107961000Y-146858339D01*
X107961000Y-146021661D01*
X107965465Y-145976326D01*
X107976899Y-145938633D01*
X107995466Y-145903897D01*
X108020452Y-145873452D01*
X108050897Y-145848466D01*
X108085633Y-145829899D01*
X108123326Y-145818465D01*
X108168661Y-145814000D01*
X109255339Y-145814000D01*
X109300674Y-145818465D01*
G37*
G36*
X107268674Y-145818465D02*
G01*
X107306367Y-145829899D01*
X107341103Y-145848466D01*
X107371548Y-145873452D01*
X107396534Y-145903897D01*
X107415101Y-145938633D01*
X107426535Y-145976326D01*
X107431000Y-146021661D01*
X107431000Y-146858339D01*
X107426535Y-146903674D01*
X107415101Y-146941367D01*
X107396534Y-146976103D01*
X107371548Y-147006548D01*
X107341103Y-147031534D01*
X107306367Y-147050101D01*
X107268674Y-147061535D01*
X107223339Y-147066000D01*
X106136661Y-147066000D01*
X106091326Y-147061535D01*
X106053633Y-147050101D01*
X106018897Y-147031534D01*
X105988452Y-147006548D01*
X105963466Y-146976103D01*
X105944899Y-146941367D01*
X105933465Y-146903674D01*
X105929000Y-146858339D01*
X105929000Y-146021661D01*
X105933465Y-145976326D01*
X105944899Y-145938633D01*
X105963466Y-145903897D01*
X105988452Y-145873452D01*
X106018897Y-145848466D01*
X106053633Y-145829899D01*
X106091326Y-145818465D01*
X106136661Y-145814000D01*
X107223339Y-145814000D01*
X107268674Y-145818465D01*
G37*
G36*
X92319000Y-145084000D02*
G01*
X91417000Y-145084000D01*
X91417000Y-143882000D01*
X92319000Y-143882000D01*
X92319000Y-145084000D01*
G37*
G36*
X109300674Y-143768465D02*
G01*
X109338367Y-143779899D01*
X109373103Y-143798466D01*
X109403548Y-143823452D01*
X109428534Y-143853897D01*
X109447101Y-143888633D01*
X109458535Y-143926326D01*
X109463000Y-143971661D01*
X109463000Y-144808339D01*
X109458535Y-144853674D01*
X109447101Y-144891367D01*
X109428534Y-144926103D01*
X109403548Y-144956548D01*
X109373103Y-144981534D01*
X109338367Y-145000101D01*
X109300674Y-145011535D01*
X109255339Y-145016000D01*
X108168661Y-145016000D01*
X108123326Y-145011535D01*
X108085633Y-145000101D01*
X108050897Y-144981534D01*
X108020452Y-144956548D01*
X107995466Y-144926103D01*
X107976899Y-144891367D01*
X107965465Y-144853674D01*
X107961000Y-144808339D01*
X107961000Y-143971661D01*
X107965465Y-143926326D01*
X107976899Y-143888633D01*
X107995466Y-143853897D01*
X108020452Y-143823452D01*
X108050897Y-143798466D01*
X108085633Y-143779899D01*
X108123326Y-143768465D01*
X108168661Y-143764000D01*
X109255339Y-143764000D01*
X109300674Y-143768465D01*
G37*
G36*
X107268674Y-143768465D02*
G01*
X107306367Y-143779899D01*
X107341103Y-143798466D01*
X107371548Y-143823452D01*
X107396534Y-143853897D01*
X107415101Y-143888633D01*
X107426535Y-143926326D01*
X107431000Y-143971661D01*
X107431000Y-144808339D01*
X107426535Y-144853674D01*
X107415101Y-144891367D01*
X107396534Y-144926103D01*
X107371548Y-144956548D01*
X107341103Y-144981534D01*
X107306367Y-145000101D01*
X107268674Y-145011535D01*
X107223339Y-145016000D01*
X106136661Y-145016000D01*
X106091326Y-145011535D01*
X106053633Y-145000101D01*
X106018897Y-144981534D01*
X105988452Y-144956548D01*
X105963466Y-144926103D01*
X105944899Y-144891367D01*
X105933465Y-144853674D01*
X105929000Y-144808339D01*
X105929000Y-143971661D01*
X105933465Y-143926326D01*
X105944899Y-143888633D01*
X105963466Y-143853897D01*
X105988452Y-143823452D01*
X106018897Y-143798466D01*
X106053633Y-143779899D01*
X106091326Y-143768465D01*
X106136661Y-143764000D01*
X107223339Y-143764000D01*
X107268674Y-143768465D01*
G37*
G36*
X93269000Y-142884000D02*
G01*
X92367000Y-142884000D01*
X92367000Y-141682000D01*
X93269000Y-141682000D01*
X93269000Y-142884000D01*
G37*
G36*
X91369000Y-142884000D02*
G01*
X90467000Y-142884000D01*
X90467000Y-141682000D01*
X91369000Y-141682000D01*
X91369000Y-142884000D01*
G37*
G36*
X99262000Y-141856000D02*
G01*
X98160000Y-141856000D01*
X98160000Y-139174000D01*
X99262000Y-139174000D01*
X99262000Y-141856000D01*
G37*
G36*
X97262000Y-141856000D02*
G01*
X96160000Y-141856000D01*
X96160000Y-139174000D01*
X97262000Y-139174000D01*
X97262000Y-141856000D01*
G37*
G36*
X103262000Y-141856000D02*
G01*
X102160000Y-141856000D01*
X102160000Y-139174000D01*
X103262000Y-139174000D01*
X103262000Y-141856000D01*
G37*
G36*
X105262000Y-141856000D02*
G01*
X104160000Y-141856000D01*
X104160000Y-139174000D01*
X105262000Y-139174000D01*
X105262000Y-141856000D01*
G37*
G36*
X108882000Y-141856000D02*
G01*
X107780000Y-141856000D01*
X107780000Y-139174000D01*
X108882000Y-139174000D01*
X108882000Y-141856000D01*
G37*
G36*
X101262000Y-141856000D02*
G01*
X100160000Y-141856000D01*
X100160000Y-139174000D01*
X101262000Y-139174000D01*
X101262000Y-141856000D01*
G37*
G36*
X91386674Y-139715465D02*
G01*
X91424367Y-139726899D01*
X91459103Y-139745466D01*
X91489548Y-139770452D01*
X91514534Y-139800897D01*
X91533101Y-139835633D01*
X91544535Y-139873326D01*
X91549000Y-139918661D01*
X91549000Y-141005339D01*
X91544535Y-141050674D01*
X91533101Y-141088367D01*
X91514534Y-141123103D01*
X91489548Y-141153548D01*
X91459103Y-141178534D01*
X91424367Y-141197101D01*
X91386674Y-141208535D01*
X91341339Y-141213000D01*
X90504661Y-141213000D01*
X90459326Y-141208535D01*
X90421633Y-141197101D01*
X90386897Y-141178534D01*
X90356452Y-141153548D01*
X90331466Y-141123103D01*
X90312899Y-141088367D01*
X90301465Y-141050674D01*
X90297000Y-141005339D01*
X90297000Y-139918661D01*
X90301465Y-139873326D01*
X90312899Y-139835633D01*
X90331466Y-139800897D01*
X90356452Y-139770452D01*
X90386897Y-139745466D01*
X90421633Y-139726899D01*
X90459326Y-139715465D01*
X90504661Y-139711000D01*
X91341339Y-139711000D01*
X91386674Y-139715465D01*
G37*
G36*
X93436674Y-139715465D02*
G01*
X93474367Y-139726899D01*
X93509103Y-139745466D01*
X93539548Y-139770452D01*
X93564534Y-139800897D01*
X93583101Y-139835633D01*
X93594535Y-139873326D01*
X93599000Y-139918661D01*
X93599000Y-141005339D01*
X93594535Y-141050674D01*
X93583101Y-141088367D01*
X93564534Y-141123103D01*
X93539548Y-141153548D01*
X93509103Y-141178534D01*
X93474367Y-141197101D01*
X93436674Y-141208535D01*
X93391339Y-141213000D01*
X92554661Y-141213000D01*
X92509326Y-141208535D01*
X92471633Y-141197101D01*
X92436897Y-141178534D01*
X92406452Y-141153548D01*
X92381466Y-141123103D01*
X92362899Y-141088367D01*
X92351465Y-141050674D01*
X92347000Y-141005339D01*
X92347000Y-139918661D01*
X92351465Y-139873326D01*
X92362899Y-139835633D01*
X92381466Y-139800897D01*
X92406452Y-139770452D01*
X92436897Y-139745466D01*
X92471633Y-139726899D01*
X92509326Y-139715465D01*
X92554661Y-139711000D01*
X93391339Y-139711000D01*
X93436674Y-139715465D01*
G37*
G36*
X91376674Y-137683465D02*
G01*
X91414367Y-137694899D01*
X91449103Y-137713466D01*
X91479548Y-137738452D01*
X91504534Y-137768897D01*
X91523101Y-137803633D01*
X91534535Y-137841326D01*
X91539000Y-137886661D01*
X91539000Y-138973339D01*
X91534535Y-139018674D01*
X91523101Y-139056367D01*
X91504534Y-139091103D01*
X91479548Y-139121548D01*
X91449103Y-139146534D01*
X91414367Y-139165101D01*
X91376674Y-139176535D01*
X91331339Y-139181000D01*
X90494661Y-139181000D01*
X90449326Y-139176535D01*
X90411633Y-139165101D01*
X90376897Y-139146534D01*
X90346452Y-139121548D01*
X90321466Y-139091103D01*
X90302899Y-139056367D01*
X90291465Y-139018674D01*
X90287000Y-138973339D01*
X90287000Y-137886661D01*
X90291465Y-137841326D01*
X90302899Y-137803633D01*
X90321466Y-137768897D01*
X90346452Y-137738452D01*
X90376897Y-137713466D01*
X90411633Y-137694899D01*
X90449326Y-137683465D01*
X90494661Y-137679000D01*
X91331339Y-137679000D01*
X91376674Y-137683465D01*
G37*
G36*
X93426674Y-137683465D02*
G01*
X93464367Y-137694899D01*
X93499103Y-137713466D01*
X93529548Y-137738452D01*
X93554534Y-137768897D01*
X93573101Y-137803633D01*
X93584535Y-137841326D01*
X93589000Y-137886661D01*
X93589000Y-138973339D01*
X93584535Y-139018674D01*
X93573101Y-139056367D01*
X93554534Y-139091103D01*
X93529548Y-139121548D01*
X93499103Y-139146534D01*
X93464367Y-139165101D01*
X93426674Y-139176535D01*
X93381339Y-139181000D01*
X92544661Y-139181000D01*
X92499326Y-139176535D01*
X92461633Y-139165101D01*
X92426897Y-139146534D01*
X92396452Y-139121548D01*
X92371466Y-139091103D01*
X92352899Y-139056367D01*
X92341465Y-139018674D01*
X92337000Y-138973339D01*
X92337000Y-137886661D01*
X92341465Y-137841326D01*
X92352899Y-137803633D01*
X92371466Y-137768897D01*
X92396452Y-137738452D01*
X92426897Y-137713466D01*
X92461633Y-137694899D01*
X92499326Y-137683465D01*
X92544661Y-137679000D01*
X93381339Y-137679000D01*
X93426674Y-137683465D01*
G37*
G36*
X103262000Y-137686000D02*
G01*
X102160000Y-137686000D01*
X102160000Y-135004000D01*
X103262000Y-135004000D01*
X103262000Y-137686000D01*
G37*
G36*
X97262000Y-137686000D02*
G01*
X96160000Y-137686000D01*
X96160000Y-135004000D01*
X97262000Y-135004000D01*
X97262000Y-137686000D01*
G37*
G36*
X99262000Y-137686000D02*
G01*
X98160000Y-137686000D01*
X98160000Y-135004000D01*
X99262000Y-135004000D01*
X99262000Y-137686000D01*
G37*
G36*
X101262000Y-137686000D02*
G01*
X100160000Y-137686000D01*
X100160000Y-135004000D01*
X101262000Y-135004000D01*
X101262000Y-137686000D01*
G37*
G36*
X105262000Y-137686000D02*
G01*
X104160000Y-137686000D01*
X104160000Y-135004000D01*
X105262000Y-135004000D01*
X105262000Y-137686000D01*
G37*
G36*
X108882000Y-137686000D02*
G01*
X107780000Y-137686000D01*
X107780000Y-135004000D01*
X108882000Y-135004000D01*
X108882000Y-137686000D01*
G37*
G36*
X93491000Y-136433000D02*
G01*
X89389000Y-136433000D01*
X89389000Y-134331000D01*
X93491000Y-134331000D01*
X93491000Y-136433000D01*
G37*
G36*
X93491000Y-133893000D02*
G01*
X89389000Y-133893000D01*
X89389000Y-131791000D01*
X93491000Y-131791000D01*
X93491000Y-133893000D01*
G37*
G36*
X93491000Y-131353000D02*
G01*
X89389000Y-131353000D01*
X89389000Y-129251000D01*
X93491000Y-129251000D01*
X93491000Y-131353000D01*
G37*
G36*
X93491000Y-128813000D02*
G01*
X89389000Y-128813000D01*
X89389000Y-126711000D01*
X93491000Y-126711000D01*
X93491000Y-128813000D01*
G37*
G36*
X93491000Y-126273000D02*
G01*
X89389000Y-126273000D01*
X89389000Y-124171000D01*
X93491000Y-124171000D01*
X93491000Y-126273000D01*
G37*
M02*
