G04 #@! TF.GenerationSoftware,KiCad,Pcbnew,(5.1.5)-3*
G04 #@! TF.CreationDate,2020-04-21T12:57:46+02:00*
G04 #@! TF.ProjectId,RHS_3_Simple,5248535f-335f-4536-996d-706c652e6b69,rev?*
G04 #@! TF.SameCoordinates,Original*
G04 #@! TF.FileFunction,Copper,L2,Bot*
G04 #@! TF.FilePolarity,Positive*
%FSLAX46Y46*%
G04 Gerber Fmt 4.6, Leading zero omitted, Abs format (unit mm)*
G04 Created by KiCad (PCBNEW (5.1.5)-3) date 2020-04-21 12:57:46*
%MOMM*%
%LPD*%
G04 APERTURE LIST*
%ADD10C,0.100000*%
%ADD11R,1.600000X0.550000*%
%ADD12R,0.550000X1.600000*%
%ADD13R,1.500000X2.524000*%
%ADD14R,1.200000X2.524000*%
%ADD15R,1.100000X0.800000*%
%ADD16R,1.800000X1.000000*%
%ADD17C,2.000000*%
%ADD18C,0.800000*%
%ADD19C,0.250000*%
%ADD20C,0.254000*%
G04 APERTURE END LIST*
G04 #@! TA.AperFunction,SMDPad,CuDef*
D10*
G36*
X100180505Y-139509204D02*
G01*
X100204773Y-139512804D01*
X100228572Y-139518765D01*
X100251671Y-139527030D01*
X100273850Y-139537520D01*
X100294893Y-139550132D01*
X100314599Y-139564747D01*
X100332777Y-139581223D01*
X100349253Y-139599401D01*
X100363868Y-139619107D01*
X100376480Y-139640150D01*
X100386970Y-139662329D01*
X100395235Y-139685428D01*
X100401196Y-139709227D01*
X100404796Y-139733495D01*
X100406000Y-139757999D01*
X100406000Y-140658001D01*
X100404796Y-140682505D01*
X100401196Y-140706773D01*
X100395235Y-140730572D01*
X100386970Y-140753671D01*
X100376480Y-140775850D01*
X100363868Y-140796893D01*
X100349253Y-140816599D01*
X100332777Y-140834777D01*
X100314599Y-140851253D01*
X100294893Y-140865868D01*
X100273850Y-140878480D01*
X100251671Y-140888970D01*
X100228572Y-140897235D01*
X100204773Y-140903196D01*
X100180505Y-140906796D01*
X100156001Y-140908000D01*
X99505999Y-140908000D01*
X99481495Y-140906796D01*
X99457227Y-140903196D01*
X99433428Y-140897235D01*
X99410329Y-140888970D01*
X99388150Y-140878480D01*
X99367107Y-140865868D01*
X99347401Y-140851253D01*
X99329223Y-140834777D01*
X99312747Y-140816599D01*
X99298132Y-140796893D01*
X99285520Y-140775850D01*
X99275030Y-140753671D01*
X99266765Y-140730572D01*
X99260804Y-140706773D01*
X99257204Y-140682505D01*
X99256000Y-140658001D01*
X99256000Y-139757999D01*
X99257204Y-139733495D01*
X99260804Y-139709227D01*
X99266765Y-139685428D01*
X99275030Y-139662329D01*
X99285520Y-139640150D01*
X99298132Y-139619107D01*
X99312747Y-139599401D01*
X99329223Y-139581223D01*
X99347401Y-139564747D01*
X99367107Y-139550132D01*
X99388150Y-139537520D01*
X99410329Y-139527030D01*
X99433428Y-139518765D01*
X99457227Y-139512804D01*
X99481495Y-139509204D01*
X99505999Y-139508000D01*
X100156001Y-139508000D01*
X100180505Y-139509204D01*
G37*
G04 #@! TD.AperFunction*
G04 #@! TA.AperFunction,SMDPad,CuDef*
G36*
X98130505Y-139509204D02*
G01*
X98154773Y-139512804D01*
X98178572Y-139518765D01*
X98201671Y-139527030D01*
X98223850Y-139537520D01*
X98244893Y-139550132D01*
X98264599Y-139564747D01*
X98282777Y-139581223D01*
X98299253Y-139599401D01*
X98313868Y-139619107D01*
X98326480Y-139640150D01*
X98336970Y-139662329D01*
X98345235Y-139685428D01*
X98351196Y-139709227D01*
X98354796Y-139733495D01*
X98356000Y-139757999D01*
X98356000Y-140658001D01*
X98354796Y-140682505D01*
X98351196Y-140706773D01*
X98345235Y-140730572D01*
X98336970Y-140753671D01*
X98326480Y-140775850D01*
X98313868Y-140796893D01*
X98299253Y-140816599D01*
X98282777Y-140834777D01*
X98264599Y-140851253D01*
X98244893Y-140865868D01*
X98223850Y-140878480D01*
X98201671Y-140888970D01*
X98178572Y-140897235D01*
X98154773Y-140903196D01*
X98130505Y-140906796D01*
X98106001Y-140908000D01*
X97455999Y-140908000D01*
X97431495Y-140906796D01*
X97407227Y-140903196D01*
X97383428Y-140897235D01*
X97360329Y-140888970D01*
X97338150Y-140878480D01*
X97317107Y-140865868D01*
X97297401Y-140851253D01*
X97279223Y-140834777D01*
X97262747Y-140816599D01*
X97248132Y-140796893D01*
X97235520Y-140775850D01*
X97225030Y-140753671D01*
X97216765Y-140730572D01*
X97210804Y-140706773D01*
X97207204Y-140682505D01*
X97206000Y-140658001D01*
X97206000Y-139757999D01*
X97207204Y-139733495D01*
X97210804Y-139709227D01*
X97216765Y-139685428D01*
X97225030Y-139662329D01*
X97235520Y-139640150D01*
X97248132Y-139619107D01*
X97262747Y-139599401D01*
X97279223Y-139581223D01*
X97297401Y-139564747D01*
X97317107Y-139550132D01*
X97338150Y-139537520D01*
X97360329Y-139527030D01*
X97383428Y-139518765D01*
X97407227Y-139512804D01*
X97431495Y-139509204D01*
X97455999Y-139508000D01*
X98106001Y-139508000D01*
X98130505Y-139509204D01*
G37*
G04 #@! TD.AperFunction*
G04 #@! TA.AperFunction,SMDPad,CuDef*
G36*
X108932505Y-145721204D02*
G01*
X108956773Y-145724804D01*
X108980572Y-145730765D01*
X109003671Y-145739030D01*
X109025850Y-145749520D01*
X109046893Y-145762132D01*
X109066599Y-145776747D01*
X109084777Y-145793223D01*
X109101253Y-145811401D01*
X109115868Y-145831107D01*
X109128480Y-145852150D01*
X109138970Y-145874329D01*
X109147235Y-145897428D01*
X109153196Y-145921227D01*
X109156796Y-145945495D01*
X109158000Y-145969999D01*
X109158000Y-146620001D01*
X109156796Y-146644505D01*
X109153196Y-146668773D01*
X109147235Y-146692572D01*
X109138970Y-146715671D01*
X109128480Y-146737850D01*
X109115868Y-146758893D01*
X109101253Y-146778599D01*
X109084777Y-146796777D01*
X109066599Y-146813253D01*
X109046893Y-146827868D01*
X109025850Y-146840480D01*
X109003671Y-146850970D01*
X108980572Y-146859235D01*
X108956773Y-146865196D01*
X108932505Y-146868796D01*
X108908001Y-146870000D01*
X108007999Y-146870000D01*
X107983495Y-146868796D01*
X107959227Y-146865196D01*
X107935428Y-146859235D01*
X107912329Y-146850970D01*
X107890150Y-146840480D01*
X107869107Y-146827868D01*
X107849401Y-146813253D01*
X107831223Y-146796777D01*
X107814747Y-146778599D01*
X107800132Y-146758893D01*
X107787520Y-146737850D01*
X107777030Y-146715671D01*
X107768765Y-146692572D01*
X107762804Y-146668773D01*
X107759204Y-146644505D01*
X107758000Y-146620001D01*
X107758000Y-145969999D01*
X107759204Y-145945495D01*
X107762804Y-145921227D01*
X107768765Y-145897428D01*
X107777030Y-145874329D01*
X107787520Y-145852150D01*
X107800132Y-145831107D01*
X107814747Y-145811401D01*
X107831223Y-145793223D01*
X107849401Y-145776747D01*
X107869107Y-145762132D01*
X107890150Y-145749520D01*
X107912329Y-145739030D01*
X107935428Y-145730765D01*
X107959227Y-145724804D01*
X107983495Y-145721204D01*
X108007999Y-145720000D01*
X108908001Y-145720000D01*
X108932505Y-145721204D01*
G37*
G04 #@! TD.AperFunction*
G04 #@! TA.AperFunction,SMDPad,CuDef*
G36*
X108932505Y-147771204D02*
G01*
X108956773Y-147774804D01*
X108980572Y-147780765D01*
X109003671Y-147789030D01*
X109025850Y-147799520D01*
X109046893Y-147812132D01*
X109066599Y-147826747D01*
X109084777Y-147843223D01*
X109101253Y-147861401D01*
X109115868Y-147881107D01*
X109128480Y-147902150D01*
X109138970Y-147924329D01*
X109147235Y-147947428D01*
X109153196Y-147971227D01*
X109156796Y-147995495D01*
X109158000Y-148019999D01*
X109158000Y-148670001D01*
X109156796Y-148694505D01*
X109153196Y-148718773D01*
X109147235Y-148742572D01*
X109138970Y-148765671D01*
X109128480Y-148787850D01*
X109115868Y-148808893D01*
X109101253Y-148828599D01*
X109084777Y-148846777D01*
X109066599Y-148863253D01*
X109046893Y-148877868D01*
X109025850Y-148890480D01*
X109003671Y-148900970D01*
X108980572Y-148909235D01*
X108956773Y-148915196D01*
X108932505Y-148918796D01*
X108908001Y-148920000D01*
X108007999Y-148920000D01*
X107983495Y-148918796D01*
X107959227Y-148915196D01*
X107935428Y-148909235D01*
X107912329Y-148900970D01*
X107890150Y-148890480D01*
X107869107Y-148877868D01*
X107849401Y-148863253D01*
X107831223Y-148846777D01*
X107814747Y-148828599D01*
X107800132Y-148808893D01*
X107787520Y-148787850D01*
X107777030Y-148765671D01*
X107768765Y-148742572D01*
X107762804Y-148718773D01*
X107759204Y-148694505D01*
X107758000Y-148670001D01*
X107758000Y-148019999D01*
X107759204Y-147995495D01*
X107762804Y-147971227D01*
X107768765Y-147947428D01*
X107777030Y-147924329D01*
X107787520Y-147902150D01*
X107800132Y-147881107D01*
X107814747Y-147861401D01*
X107831223Y-147843223D01*
X107849401Y-147826747D01*
X107869107Y-147812132D01*
X107890150Y-147799520D01*
X107912329Y-147789030D01*
X107935428Y-147780765D01*
X107959227Y-147774804D01*
X107983495Y-147771204D01*
X108007999Y-147770000D01*
X108908001Y-147770000D01*
X108932505Y-147771204D01*
G37*
G04 #@! TD.AperFunction*
D11*
X103750000Y-144290000D03*
X103750000Y-145090000D03*
X103750000Y-145890000D03*
X103750000Y-146690000D03*
X103750000Y-147490000D03*
X103750000Y-148290000D03*
X103750000Y-149090000D03*
X103750000Y-149890000D03*
D12*
X102300000Y-151340000D03*
X101500000Y-151340000D03*
X100700000Y-151340000D03*
X99900000Y-151340000D03*
X99100000Y-151340000D03*
X98300000Y-151340000D03*
X97500000Y-151340000D03*
X96700000Y-151340000D03*
D11*
X95250000Y-149890000D03*
X95250000Y-149090000D03*
X95250000Y-148290000D03*
X95250000Y-147490000D03*
X95250000Y-146690000D03*
X95250000Y-145890000D03*
X95250000Y-145090000D03*
X95250000Y-144290000D03*
D12*
X96700000Y-142840000D03*
X97500000Y-142840000D03*
X98300000Y-142840000D03*
X99100000Y-142840000D03*
X99900000Y-142840000D03*
X100700000Y-142840000D03*
X101500000Y-142840000D03*
X102300000Y-142840000D03*
D13*
X103200000Y-177000000D03*
X98800000Y-177000000D03*
D14*
X101000000Y-177000000D03*
X107000000Y-158000000D03*
X105000000Y-158000000D03*
X103000000Y-158000000D03*
X101000000Y-158000000D03*
X99000000Y-158000000D03*
X97000000Y-158000000D03*
X95000000Y-158000000D03*
X93000000Y-158000000D03*
G04 #@! TA.AperFunction,SMDPad,CuDef*
D10*
G36*
X106974505Y-143921204D02*
G01*
X106998773Y-143924804D01*
X107022572Y-143930765D01*
X107045671Y-143939030D01*
X107067850Y-143949520D01*
X107088893Y-143962132D01*
X107108599Y-143976747D01*
X107126777Y-143993223D01*
X107143253Y-144011401D01*
X107157868Y-144031107D01*
X107170480Y-144052150D01*
X107180970Y-144074329D01*
X107189235Y-144097428D01*
X107195196Y-144121227D01*
X107198796Y-144145495D01*
X107200000Y-144169999D01*
X107200000Y-144820001D01*
X107198796Y-144844505D01*
X107195196Y-144868773D01*
X107189235Y-144892572D01*
X107180970Y-144915671D01*
X107170480Y-144937850D01*
X107157868Y-144958893D01*
X107143253Y-144978599D01*
X107126777Y-144996777D01*
X107108599Y-145013253D01*
X107088893Y-145027868D01*
X107067850Y-145040480D01*
X107045671Y-145050970D01*
X107022572Y-145059235D01*
X106998773Y-145065196D01*
X106974505Y-145068796D01*
X106950001Y-145070000D01*
X106049999Y-145070000D01*
X106025495Y-145068796D01*
X106001227Y-145065196D01*
X105977428Y-145059235D01*
X105954329Y-145050970D01*
X105932150Y-145040480D01*
X105911107Y-145027868D01*
X105891401Y-145013253D01*
X105873223Y-144996777D01*
X105856747Y-144978599D01*
X105842132Y-144958893D01*
X105829520Y-144937850D01*
X105819030Y-144915671D01*
X105810765Y-144892572D01*
X105804804Y-144868773D01*
X105801204Y-144844505D01*
X105800000Y-144820001D01*
X105800000Y-144169999D01*
X105801204Y-144145495D01*
X105804804Y-144121227D01*
X105810765Y-144097428D01*
X105819030Y-144074329D01*
X105829520Y-144052150D01*
X105842132Y-144031107D01*
X105856747Y-144011401D01*
X105873223Y-143993223D01*
X105891401Y-143976747D01*
X105911107Y-143962132D01*
X105932150Y-143949520D01*
X105954329Y-143939030D01*
X105977428Y-143930765D01*
X106001227Y-143924804D01*
X106025495Y-143921204D01*
X106049999Y-143920000D01*
X106950001Y-143920000D01*
X106974505Y-143921204D01*
G37*
G04 #@! TD.AperFunction*
G04 #@! TA.AperFunction,SMDPad,CuDef*
G36*
X106974505Y-145971204D02*
G01*
X106998773Y-145974804D01*
X107022572Y-145980765D01*
X107045671Y-145989030D01*
X107067850Y-145999520D01*
X107088893Y-146012132D01*
X107108599Y-146026747D01*
X107126777Y-146043223D01*
X107143253Y-146061401D01*
X107157868Y-146081107D01*
X107170480Y-146102150D01*
X107180970Y-146124329D01*
X107189235Y-146147428D01*
X107195196Y-146171227D01*
X107198796Y-146195495D01*
X107200000Y-146219999D01*
X107200000Y-146870001D01*
X107198796Y-146894505D01*
X107195196Y-146918773D01*
X107189235Y-146942572D01*
X107180970Y-146965671D01*
X107170480Y-146987850D01*
X107157868Y-147008893D01*
X107143253Y-147028599D01*
X107126777Y-147046777D01*
X107108599Y-147063253D01*
X107088893Y-147077868D01*
X107067850Y-147090480D01*
X107045671Y-147100970D01*
X107022572Y-147109235D01*
X106998773Y-147115196D01*
X106974505Y-147118796D01*
X106950001Y-147120000D01*
X106049999Y-147120000D01*
X106025495Y-147118796D01*
X106001227Y-147115196D01*
X105977428Y-147109235D01*
X105954329Y-147100970D01*
X105932150Y-147090480D01*
X105911107Y-147077868D01*
X105891401Y-147063253D01*
X105873223Y-147046777D01*
X105856747Y-147028599D01*
X105842132Y-147008893D01*
X105829520Y-146987850D01*
X105819030Y-146965671D01*
X105810765Y-146942572D01*
X105804804Y-146918773D01*
X105801204Y-146894505D01*
X105800000Y-146870001D01*
X105800000Y-146219999D01*
X105801204Y-146195495D01*
X105804804Y-146171227D01*
X105810765Y-146147428D01*
X105819030Y-146124329D01*
X105829520Y-146102150D01*
X105842132Y-146081107D01*
X105856747Y-146061401D01*
X105873223Y-146043223D01*
X105891401Y-146026747D01*
X105911107Y-146012132D01*
X105932150Y-145999520D01*
X105954329Y-145989030D01*
X105977428Y-145980765D01*
X106001227Y-145974804D01*
X106025495Y-145971204D01*
X106049999Y-145970000D01*
X106950001Y-145970000D01*
X106974505Y-145971204D01*
G37*
G04 #@! TD.AperFunction*
G04 #@! TA.AperFunction,SMDPad,CuDef*
G36*
X93474505Y-147341204D02*
G01*
X93498773Y-147344804D01*
X93522572Y-147350765D01*
X93545671Y-147359030D01*
X93567850Y-147369520D01*
X93588893Y-147382132D01*
X93608599Y-147396747D01*
X93626777Y-147413223D01*
X93643253Y-147431401D01*
X93657868Y-147451107D01*
X93670480Y-147472150D01*
X93680970Y-147494329D01*
X93689235Y-147517428D01*
X93695196Y-147541227D01*
X93698796Y-147565495D01*
X93700000Y-147589999D01*
X93700000Y-148240001D01*
X93698796Y-148264505D01*
X93695196Y-148288773D01*
X93689235Y-148312572D01*
X93680970Y-148335671D01*
X93670480Y-148357850D01*
X93657868Y-148378893D01*
X93643253Y-148398599D01*
X93626777Y-148416777D01*
X93608599Y-148433253D01*
X93588893Y-148447868D01*
X93567850Y-148460480D01*
X93545671Y-148470970D01*
X93522572Y-148479235D01*
X93498773Y-148485196D01*
X93474505Y-148488796D01*
X93450001Y-148490000D01*
X92549999Y-148490000D01*
X92525495Y-148488796D01*
X92501227Y-148485196D01*
X92477428Y-148479235D01*
X92454329Y-148470970D01*
X92432150Y-148460480D01*
X92411107Y-148447868D01*
X92391401Y-148433253D01*
X92373223Y-148416777D01*
X92356747Y-148398599D01*
X92342132Y-148378893D01*
X92329520Y-148357850D01*
X92319030Y-148335671D01*
X92310765Y-148312572D01*
X92304804Y-148288773D01*
X92301204Y-148264505D01*
X92300000Y-148240001D01*
X92300000Y-147589999D01*
X92301204Y-147565495D01*
X92304804Y-147541227D01*
X92310765Y-147517428D01*
X92319030Y-147494329D01*
X92329520Y-147472150D01*
X92342132Y-147451107D01*
X92356747Y-147431401D01*
X92373223Y-147413223D01*
X92391401Y-147396747D01*
X92411107Y-147382132D01*
X92432150Y-147369520D01*
X92454329Y-147359030D01*
X92477428Y-147350765D01*
X92501227Y-147344804D01*
X92525495Y-147341204D01*
X92549999Y-147340000D01*
X93450001Y-147340000D01*
X93474505Y-147341204D01*
G37*
G04 #@! TD.AperFunction*
G04 #@! TA.AperFunction,SMDPad,CuDef*
G36*
X93474505Y-145291204D02*
G01*
X93498773Y-145294804D01*
X93522572Y-145300765D01*
X93545671Y-145309030D01*
X93567850Y-145319520D01*
X93588893Y-145332132D01*
X93608599Y-145346747D01*
X93626777Y-145363223D01*
X93643253Y-145381401D01*
X93657868Y-145401107D01*
X93670480Y-145422150D01*
X93680970Y-145444329D01*
X93689235Y-145467428D01*
X93695196Y-145491227D01*
X93698796Y-145515495D01*
X93700000Y-145539999D01*
X93700000Y-146190001D01*
X93698796Y-146214505D01*
X93695196Y-146238773D01*
X93689235Y-146262572D01*
X93680970Y-146285671D01*
X93670480Y-146307850D01*
X93657868Y-146328893D01*
X93643253Y-146348599D01*
X93626777Y-146366777D01*
X93608599Y-146383253D01*
X93588893Y-146397868D01*
X93567850Y-146410480D01*
X93545671Y-146420970D01*
X93522572Y-146429235D01*
X93498773Y-146435196D01*
X93474505Y-146438796D01*
X93450001Y-146440000D01*
X92549999Y-146440000D01*
X92525495Y-146438796D01*
X92501227Y-146435196D01*
X92477428Y-146429235D01*
X92454329Y-146420970D01*
X92432150Y-146410480D01*
X92411107Y-146397868D01*
X92391401Y-146383253D01*
X92373223Y-146366777D01*
X92356747Y-146348599D01*
X92342132Y-146328893D01*
X92329520Y-146307850D01*
X92319030Y-146285671D01*
X92310765Y-146262572D01*
X92304804Y-146238773D01*
X92301204Y-146214505D01*
X92300000Y-146190001D01*
X92300000Y-145539999D01*
X92301204Y-145515495D01*
X92304804Y-145491227D01*
X92310765Y-145467428D01*
X92319030Y-145444329D01*
X92329520Y-145422150D01*
X92342132Y-145401107D01*
X92356747Y-145381401D01*
X92373223Y-145363223D01*
X92391401Y-145346747D01*
X92411107Y-145332132D01*
X92432150Y-145319520D01*
X92454329Y-145309030D01*
X92477428Y-145300765D01*
X92501227Y-145294804D01*
X92525495Y-145291204D01*
X92549999Y-145290000D01*
X93450001Y-145290000D01*
X93474505Y-145291204D01*
G37*
G04 #@! TD.AperFunction*
G04 #@! TA.AperFunction,SMDPad,CuDef*
G36*
X95374505Y-154301204D02*
G01*
X95398773Y-154304804D01*
X95422572Y-154310765D01*
X95445671Y-154319030D01*
X95467850Y-154329520D01*
X95488893Y-154342132D01*
X95508599Y-154356747D01*
X95526777Y-154373223D01*
X95543253Y-154391401D01*
X95557868Y-154411107D01*
X95570480Y-154432150D01*
X95580970Y-154454329D01*
X95589235Y-154477428D01*
X95595196Y-154501227D01*
X95598796Y-154525495D01*
X95600000Y-154549999D01*
X95600000Y-155450001D01*
X95598796Y-155474505D01*
X95595196Y-155498773D01*
X95589235Y-155522572D01*
X95580970Y-155545671D01*
X95570480Y-155567850D01*
X95557868Y-155588893D01*
X95543253Y-155608599D01*
X95526777Y-155626777D01*
X95508599Y-155643253D01*
X95488893Y-155657868D01*
X95467850Y-155670480D01*
X95445671Y-155680970D01*
X95422572Y-155689235D01*
X95398773Y-155695196D01*
X95374505Y-155698796D01*
X95350001Y-155700000D01*
X94699999Y-155700000D01*
X94675495Y-155698796D01*
X94651227Y-155695196D01*
X94627428Y-155689235D01*
X94604329Y-155680970D01*
X94582150Y-155670480D01*
X94561107Y-155657868D01*
X94541401Y-155643253D01*
X94523223Y-155626777D01*
X94506747Y-155608599D01*
X94492132Y-155588893D01*
X94479520Y-155567850D01*
X94469030Y-155545671D01*
X94460765Y-155522572D01*
X94454804Y-155498773D01*
X94451204Y-155474505D01*
X94450000Y-155450001D01*
X94450000Y-154549999D01*
X94451204Y-154525495D01*
X94454804Y-154501227D01*
X94460765Y-154477428D01*
X94469030Y-154454329D01*
X94479520Y-154432150D01*
X94492132Y-154411107D01*
X94506747Y-154391401D01*
X94523223Y-154373223D01*
X94541401Y-154356747D01*
X94561107Y-154342132D01*
X94582150Y-154329520D01*
X94604329Y-154319030D01*
X94627428Y-154310765D01*
X94651227Y-154304804D01*
X94675495Y-154301204D01*
X94699999Y-154300000D01*
X95350001Y-154300000D01*
X95374505Y-154301204D01*
G37*
G04 #@! TD.AperFunction*
G04 #@! TA.AperFunction,SMDPad,CuDef*
G36*
X93324505Y-154301204D02*
G01*
X93348773Y-154304804D01*
X93372572Y-154310765D01*
X93395671Y-154319030D01*
X93417850Y-154329520D01*
X93438893Y-154342132D01*
X93458599Y-154356747D01*
X93476777Y-154373223D01*
X93493253Y-154391401D01*
X93507868Y-154411107D01*
X93520480Y-154432150D01*
X93530970Y-154454329D01*
X93539235Y-154477428D01*
X93545196Y-154501227D01*
X93548796Y-154525495D01*
X93550000Y-154549999D01*
X93550000Y-155450001D01*
X93548796Y-155474505D01*
X93545196Y-155498773D01*
X93539235Y-155522572D01*
X93530970Y-155545671D01*
X93520480Y-155567850D01*
X93507868Y-155588893D01*
X93493253Y-155608599D01*
X93476777Y-155626777D01*
X93458599Y-155643253D01*
X93438893Y-155657868D01*
X93417850Y-155670480D01*
X93395671Y-155680970D01*
X93372572Y-155689235D01*
X93348773Y-155695196D01*
X93324505Y-155698796D01*
X93300001Y-155700000D01*
X92649999Y-155700000D01*
X92625495Y-155698796D01*
X92601227Y-155695196D01*
X92577428Y-155689235D01*
X92554329Y-155680970D01*
X92532150Y-155670480D01*
X92511107Y-155657868D01*
X92491401Y-155643253D01*
X92473223Y-155626777D01*
X92456747Y-155608599D01*
X92442132Y-155588893D01*
X92429520Y-155567850D01*
X92419030Y-155545671D01*
X92410765Y-155522572D01*
X92404804Y-155498773D01*
X92401204Y-155474505D01*
X92400000Y-155450001D01*
X92400000Y-154549999D01*
X92401204Y-154525495D01*
X92404804Y-154501227D01*
X92410765Y-154477428D01*
X92419030Y-154454329D01*
X92429520Y-154432150D01*
X92442132Y-154411107D01*
X92456747Y-154391401D01*
X92473223Y-154373223D01*
X92491401Y-154356747D01*
X92511107Y-154342132D01*
X92532150Y-154329520D01*
X92554329Y-154319030D01*
X92577428Y-154310765D01*
X92601227Y-154304804D01*
X92625495Y-154301204D01*
X92649999Y-154300000D01*
X93300001Y-154300000D01*
X93324505Y-154301204D01*
G37*
G04 #@! TD.AperFunction*
G04 #@! TA.AperFunction,SMDPad,CuDef*
G36*
X93440000Y-126222000D02*
G01*
X89440000Y-126222000D01*
X89440000Y-124222000D01*
X93440000Y-124222000D01*
X93440000Y-126222000D01*
G37*
G04 #@! TD.AperFunction*
G04 #@! TA.AperFunction,SMDPad,CuDef*
G36*
X93440000Y-128762000D02*
G01*
X89440000Y-128762000D01*
X89440000Y-126762000D01*
X93440000Y-126762000D01*
X93440000Y-128762000D01*
G37*
G04 #@! TD.AperFunction*
G04 #@! TA.AperFunction,SMDPad,CuDef*
G36*
X93440000Y-131302000D02*
G01*
X89440000Y-131302000D01*
X89440000Y-129302000D01*
X93440000Y-129302000D01*
X93440000Y-131302000D01*
G37*
G04 #@! TD.AperFunction*
G04 #@! TA.AperFunction,SMDPad,CuDef*
G36*
X93440000Y-133842000D02*
G01*
X89440000Y-133842000D01*
X89440000Y-131842000D01*
X93440000Y-131842000D01*
X93440000Y-133842000D01*
G37*
G04 #@! TD.AperFunction*
G04 #@! TA.AperFunction,SMDPad,CuDef*
G36*
X93440000Y-136382000D02*
G01*
X89440000Y-136382000D01*
X89440000Y-134382000D01*
X93440000Y-134382000D01*
X93440000Y-136382000D01*
G37*
G04 #@! TD.AperFunction*
G04 #@! TA.AperFunction,SMDPad,CuDef*
G36*
X107027505Y-141421204D02*
G01*
X107051773Y-141424804D01*
X107075572Y-141430765D01*
X107098671Y-141439030D01*
X107120850Y-141449520D01*
X107141893Y-141462132D01*
X107161599Y-141476747D01*
X107179777Y-141493223D01*
X107196253Y-141511401D01*
X107210868Y-141531107D01*
X107223480Y-141552150D01*
X107233970Y-141574329D01*
X107242235Y-141597428D01*
X107248196Y-141621227D01*
X107251796Y-141645495D01*
X107253000Y-141669999D01*
X107253000Y-142320001D01*
X107251796Y-142344505D01*
X107248196Y-142368773D01*
X107242235Y-142392572D01*
X107233970Y-142415671D01*
X107223480Y-142437850D01*
X107210868Y-142458893D01*
X107196253Y-142478599D01*
X107179777Y-142496777D01*
X107161599Y-142513253D01*
X107141893Y-142527868D01*
X107120850Y-142540480D01*
X107098671Y-142550970D01*
X107075572Y-142559235D01*
X107051773Y-142565196D01*
X107027505Y-142568796D01*
X107003001Y-142570000D01*
X106102999Y-142570000D01*
X106078495Y-142568796D01*
X106054227Y-142565196D01*
X106030428Y-142559235D01*
X106007329Y-142550970D01*
X105985150Y-142540480D01*
X105964107Y-142527868D01*
X105944401Y-142513253D01*
X105926223Y-142496777D01*
X105909747Y-142478599D01*
X105895132Y-142458893D01*
X105882520Y-142437850D01*
X105872030Y-142415671D01*
X105863765Y-142392572D01*
X105857804Y-142368773D01*
X105854204Y-142344505D01*
X105853000Y-142320001D01*
X105853000Y-141669999D01*
X105854204Y-141645495D01*
X105857804Y-141621227D01*
X105863765Y-141597428D01*
X105872030Y-141574329D01*
X105882520Y-141552150D01*
X105895132Y-141531107D01*
X105909747Y-141511401D01*
X105926223Y-141493223D01*
X105944401Y-141476747D01*
X105964107Y-141462132D01*
X105985150Y-141449520D01*
X106007329Y-141439030D01*
X106030428Y-141430765D01*
X106054227Y-141424804D01*
X106078495Y-141421204D01*
X106102999Y-141420000D01*
X107003001Y-141420000D01*
X107027505Y-141421204D01*
G37*
G04 #@! TD.AperFunction*
G04 #@! TA.AperFunction,SMDPad,CuDef*
G36*
X107027505Y-139371204D02*
G01*
X107051773Y-139374804D01*
X107075572Y-139380765D01*
X107098671Y-139389030D01*
X107120850Y-139399520D01*
X107141893Y-139412132D01*
X107161599Y-139426747D01*
X107179777Y-139443223D01*
X107196253Y-139461401D01*
X107210868Y-139481107D01*
X107223480Y-139502150D01*
X107233970Y-139524329D01*
X107242235Y-139547428D01*
X107248196Y-139571227D01*
X107251796Y-139595495D01*
X107253000Y-139619999D01*
X107253000Y-140270001D01*
X107251796Y-140294505D01*
X107248196Y-140318773D01*
X107242235Y-140342572D01*
X107233970Y-140365671D01*
X107223480Y-140387850D01*
X107210868Y-140408893D01*
X107196253Y-140428599D01*
X107179777Y-140446777D01*
X107161599Y-140463253D01*
X107141893Y-140477868D01*
X107120850Y-140490480D01*
X107098671Y-140500970D01*
X107075572Y-140509235D01*
X107051773Y-140515196D01*
X107027505Y-140518796D01*
X107003001Y-140520000D01*
X106102999Y-140520000D01*
X106078495Y-140518796D01*
X106054227Y-140515196D01*
X106030428Y-140509235D01*
X106007329Y-140500970D01*
X105985150Y-140490480D01*
X105964107Y-140477868D01*
X105944401Y-140463253D01*
X105926223Y-140446777D01*
X105909747Y-140428599D01*
X105895132Y-140408893D01*
X105882520Y-140387850D01*
X105872030Y-140365671D01*
X105863765Y-140342572D01*
X105857804Y-140318773D01*
X105854204Y-140294505D01*
X105853000Y-140270001D01*
X105853000Y-139619999D01*
X105854204Y-139595495D01*
X105857804Y-139571227D01*
X105863765Y-139547428D01*
X105872030Y-139524329D01*
X105882520Y-139502150D01*
X105895132Y-139481107D01*
X105909747Y-139461401D01*
X105926223Y-139443223D01*
X105944401Y-139426747D01*
X105964107Y-139412132D01*
X105985150Y-139399520D01*
X106007329Y-139389030D01*
X106030428Y-139380765D01*
X106054227Y-139374804D01*
X106078495Y-139371204D01*
X106102999Y-139370000D01*
X107003001Y-139370000D01*
X107027505Y-139371204D01*
G37*
G04 #@! TD.AperFunction*
G04 #@! TA.AperFunction,SMDPad,CuDef*
G36*
X108932505Y-139371204D02*
G01*
X108956773Y-139374804D01*
X108980572Y-139380765D01*
X109003671Y-139389030D01*
X109025850Y-139399520D01*
X109046893Y-139412132D01*
X109066599Y-139426747D01*
X109084777Y-139443223D01*
X109101253Y-139461401D01*
X109115868Y-139481107D01*
X109128480Y-139502150D01*
X109138970Y-139524329D01*
X109147235Y-139547428D01*
X109153196Y-139571227D01*
X109156796Y-139595495D01*
X109158000Y-139619999D01*
X109158000Y-140270001D01*
X109156796Y-140294505D01*
X109153196Y-140318773D01*
X109147235Y-140342572D01*
X109138970Y-140365671D01*
X109128480Y-140387850D01*
X109115868Y-140408893D01*
X109101253Y-140428599D01*
X109084777Y-140446777D01*
X109066599Y-140463253D01*
X109046893Y-140477868D01*
X109025850Y-140490480D01*
X109003671Y-140500970D01*
X108980572Y-140509235D01*
X108956773Y-140515196D01*
X108932505Y-140518796D01*
X108908001Y-140520000D01*
X108007999Y-140520000D01*
X107983495Y-140518796D01*
X107959227Y-140515196D01*
X107935428Y-140509235D01*
X107912329Y-140500970D01*
X107890150Y-140490480D01*
X107869107Y-140477868D01*
X107849401Y-140463253D01*
X107831223Y-140446777D01*
X107814747Y-140428599D01*
X107800132Y-140408893D01*
X107787520Y-140387850D01*
X107777030Y-140365671D01*
X107768765Y-140342572D01*
X107762804Y-140318773D01*
X107759204Y-140294505D01*
X107758000Y-140270001D01*
X107758000Y-139619999D01*
X107759204Y-139595495D01*
X107762804Y-139571227D01*
X107768765Y-139547428D01*
X107777030Y-139524329D01*
X107787520Y-139502150D01*
X107800132Y-139481107D01*
X107814747Y-139461401D01*
X107831223Y-139443223D01*
X107849401Y-139426747D01*
X107869107Y-139412132D01*
X107890150Y-139399520D01*
X107912329Y-139389030D01*
X107935428Y-139380765D01*
X107959227Y-139374804D01*
X107983495Y-139371204D01*
X108007999Y-139370000D01*
X108908001Y-139370000D01*
X108932505Y-139371204D01*
G37*
G04 #@! TD.AperFunction*
G04 #@! TA.AperFunction,SMDPad,CuDef*
G36*
X108932505Y-141421204D02*
G01*
X108956773Y-141424804D01*
X108980572Y-141430765D01*
X109003671Y-141439030D01*
X109025850Y-141449520D01*
X109046893Y-141462132D01*
X109066599Y-141476747D01*
X109084777Y-141493223D01*
X109101253Y-141511401D01*
X109115868Y-141531107D01*
X109128480Y-141552150D01*
X109138970Y-141574329D01*
X109147235Y-141597428D01*
X109153196Y-141621227D01*
X109156796Y-141645495D01*
X109158000Y-141669999D01*
X109158000Y-142320001D01*
X109156796Y-142344505D01*
X109153196Y-142368773D01*
X109147235Y-142392572D01*
X109138970Y-142415671D01*
X109128480Y-142437850D01*
X109115868Y-142458893D01*
X109101253Y-142478599D01*
X109084777Y-142496777D01*
X109066599Y-142513253D01*
X109046893Y-142527868D01*
X109025850Y-142540480D01*
X109003671Y-142550970D01*
X108980572Y-142559235D01*
X108956773Y-142565196D01*
X108932505Y-142568796D01*
X108908001Y-142570000D01*
X108007999Y-142570000D01*
X107983495Y-142568796D01*
X107959227Y-142565196D01*
X107935428Y-142559235D01*
X107912329Y-142550970D01*
X107890150Y-142540480D01*
X107869107Y-142527868D01*
X107849401Y-142513253D01*
X107831223Y-142496777D01*
X107814747Y-142478599D01*
X107800132Y-142458893D01*
X107787520Y-142437850D01*
X107777030Y-142415671D01*
X107768765Y-142392572D01*
X107762804Y-142368773D01*
X107759204Y-142344505D01*
X107758000Y-142320001D01*
X107758000Y-141669999D01*
X107759204Y-141645495D01*
X107762804Y-141621227D01*
X107768765Y-141597428D01*
X107777030Y-141574329D01*
X107787520Y-141552150D01*
X107800132Y-141531107D01*
X107814747Y-141511401D01*
X107831223Y-141493223D01*
X107849401Y-141476747D01*
X107869107Y-141462132D01*
X107890150Y-141449520D01*
X107912329Y-141439030D01*
X107935428Y-141430765D01*
X107959227Y-141424804D01*
X107983495Y-141421204D01*
X108007999Y-141420000D01*
X108908001Y-141420000D01*
X108932505Y-141421204D01*
G37*
G04 #@! TD.AperFunction*
G04 #@! TA.AperFunction,SMDPad,CuDef*
G36*
X97624505Y-86331204D02*
G01*
X97648773Y-86334804D01*
X97672572Y-86340765D01*
X97695671Y-86349030D01*
X97717850Y-86359520D01*
X97738893Y-86372132D01*
X97758599Y-86386747D01*
X97776777Y-86403223D01*
X97793253Y-86421401D01*
X97807868Y-86441107D01*
X97820480Y-86462150D01*
X97830970Y-86484329D01*
X97839235Y-86507428D01*
X97845196Y-86531227D01*
X97848796Y-86555495D01*
X97850000Y-86579999D01*
X97850000Y-87230001D01*
X97848796Y-87254505D01*
X97845196Y-87278773D01*
X97839235Y-87302572D01*
X97830970Y-87325671D01*
X97820480Y-87347850D01*
X97807868Y-87368893D01*
X97793253Y-87388599D01*
X97776777Y-87406777D01*
X97758599Y-87423253D01*
X97738893Y-87437868D01*
X97717850Y-87450480D01*
X97695671Y-87460970D01*
X97672572Y-87469235D01*
X97648773Y-87475196D01*
X97624505Y-87478796D01*
X97600001Y-87480000D01*
X96699999Y-87480000D01*
X96675495Y-87478796D01*
X96651227Y-87475196D01*
X96627428Y-87469235D01*
X96604329Y-87460970D01*
X96582150Y-87450480D01*
X96561107Y-87437868D01*
X96541401Y-87423253D01*
X96523223Y-87406777D01*
X96506747Y-87388599D01*
X96492132Y-87368893D01*
X96479520Y-87347850D01*
X96469030Y-87325671D01*
X96460765Y-87302572D01*
X96454804Y-87278773D01*
X96451204Y-87254505D01*
X96450000Y-87230001D01*
X96450000Y-86579999D01*
X96451204Y-86555495D01*
X96454804Y-86531227D01*
X96460765Y-86507428D01*
X96469030Y-86484329D01*
X96479520Y-86462150D01*
X96492132Y-86441107D01*
X96506747Y-86421401D01*
X96523223Y-86403223D01*
X96541401Y-86386747D01*
X96561107Y-86372132D01*
X96582150Y-86359520D01*
X96604329Y-86349030D01*
X96627428Y-86340765D01*
X96651227Y-86334804D01*
X96675495Y-86331204D01*
X96699999Y-86330000D01*
X97600001Y-86330000D01*
X97624505Y-86331204D01*
G37*
G04 #@! TD.AperFunction*
G04 #@! TA.AperFunction,SMDPad,CuDef*
G36*
X97624505Y-88381204D02*
G01*
X97648773Y-88384804D01*
X97672572Y-88390765D01*
X97695671Y-88399030D01*
X97717850Y-88409520D01*
X97738893Y-88422132D01*
X97758599Y-88436747D01*
X97776777Y-88453223D01*
X97793253Y-88471401D01*
X97807868Y-88491107D01*
X97820480Y-88512150D01*
X97830970Y-88534329D01*
X97839235Y-88557428D01*
X97845196Y-88581227D01*
X97848796Y-88605495D01*
X97850000Y-88629999D01*
X97850000Y-89280001D01*
X97848796Y-89304505D01*
X97845196Y-89328773D01*
X97839235Y-89352572D01*
X97830970Y-89375671D01*
X97820480Y-89397850D01*
X97807868Y-89418893D01*
X97793253Y-89438599D01*
X97776777Y-89456777D01*
X97758599Y-89473253D01*
X97738893Y-89487868D01*
X97717850Y-89500480D01*
X97695671Y-89510970D01*
X97672572Y-89519235D01*
X97648773Y-89525196D01*
X97624505Y-89528796D01*
X97600001Y-89530000D01*
X96699999Y-89530000D01*
X96675495Y-89528796D01*
X96651227Y-89525196D01*
X96627428Y-89519235D01*
X96604329Y-89510970D01*
X96582150Y-89500480D01*
X96561107Y-89487868D01*
X96541401Y-89473253D01*
X96523223Y-89456777D01*
X96506747Y-89438599D01*
X96492132Y-89418893D01*
X96479520Y-89397850D01*
X96469030Y-89375671D01*
X96460765Y-89352572D01*
X96454804Y-89328773D01*
X96451204Y-89304505D01*
X96450000Y-89280001D01*
X96450000Y-88629999D01*
X96451204Y-88605495D01*
X96454804Y-88581227D01*
X96460765Y-88557428D01*
X96469030Y-88534329D01*
X96479520Y-88512150D01*
X96492132Y-88491107D01*
X96506747Y-88471401D01*
X96523223Y-88453223D01*
X96541401Y-88436747D01*
X96561107Y-88422132D01*
X96582150Y-88409520D01*
X96604329Y-88399030D01*
X96627428Y-88390765D01*
X96651227Y-88384804D01*
X96675495Y-88381204D01*
X96699999Y-88380000D01*
X97600001Y-88380000D01*
X97624505Y-88381204D01*
G37*
G04 #@! TD.AperFunction*
G04 #@! TA.AperFunction,SMDPad,CuDef*
G36*
X97594505Y-112541204D02*
G01*
X97618773Y-112544804D01*
X97642572Y-112550765D01*
X97665671Y-112559030D01*
X97687850Y-112569520D01*
X97708893Y-112582132D01*
X97728599Y-112596747D01*
X97746777Y-112613223D01*
X97763253Y-112631401D01*
X97777868Y-112651107D01*
X97790480Y-112672150D01*
X97800970Y-112694329D01*
X97809235Y-112717428D01*
X97815196Y-112741227D01*
X97818796Y-112765495D01*
X97820000Y-112789999D01*
X97820000Y-113440001D01*
X97818796Y-113464505D01*
X97815196Y-113488773D01*
X97809235Y-113512572D01*
X97800970Y-113535671D01*
X97790480Y-113557850D01*
X97777868Y-113578893D01*
X97763253Y-113598599D01*
X97746777Y-113616777D01*
X97728599Y-113633253D01*
X97708893Y-113647868D01*
X97687850Y-113660480D01*
X97665671Y-113670970D01*
X97642572Y-113679235D01*
X97618773Y-113685196D01*
X97594505Y-113688796D01*
X97570001Y-113690000D01*
X96669999Y-113690000D01*
X96645495Y-113688796D01*
X96621227Y-113685196D01*
X96597428Y-113679235D01*
X96574329Y-113670970D01*
X96552150Y-113660480D01*
X96531107Y-113647868D01*
X96511401Y-113633253D01*
X96493223Y-113616777D01*
X96476747Y-113598599D01*
X96462132Y-113578893D01*
X96449520Y-113557850D01*
X96439030Y-113535671D01*
X96430765Y-113512572D01*
X96424804Y-113488773D01*
X96421204Y-113464505D01*
X96420000Y-113440001D01*
X96420000Y-112789999D01*
X96421204Y-112765495D01*
X96424804Y-112741227D01*
X96430765Y-112717428D01*
X96439030Y-112694329D01*
X96449520Y-112672150D01*
X96462132Y-112651107D01*
X96476747Y-112631401D01*
X96493223Y-112613223D01*
X96511401Y-112596747D01*
X96531107Y-112582132D01*
X96552150Y-112569520D01*
X96574329Y-112559030D01*
X96597428Y-112550765D01*
X96621227Y-112544804D01*
X96645495Y-112541204D01*
X96669999Y-112540000D01*
X97570001Y-112540000D01*
X97594505Y-112541204D01*
G37*
G04 #@! TD.AperFunction*
G04 #@! TA.AperFunction,SMDPad,CuDef*
G36*
X97594505Y-110491204D02*
G01*
X97618773Y-110494804D01*
X97642572Y-110500765D01*
X97665671Y-110509030D01*
X97687850Y-110519520D01*
X97708893Y-110532132D01*
X97728599Y-110546747D01*
X97746777Y-110563223D01*
X97763253Y-110581401D01*
X97777868Y-110601107D01*
X97790480Y-110622150D01*
X97800970Y-110644329D01*
X97809235Y-110667428D01*
X97815196Y-110691227D01*
X97818796Y-110715495D01*
X97820000Y-110739999D01*
X97820000Y-111390001D01*
X97818796Y-111414505D01*
X97815196Y-111438773D01*
X97809235Y-111462572D01*
X97800970Y-111485671D01*
X97790480Y-111507850D01*
X97777868Y-111528893D01*
X97763253Y-111548599D01*
X97746777Y-111566777D01*
X97728599Y-111583253D01*
X97708893Y-111597868D01*
X97687850Y-111610480D01*
X97665671Y-111620970D01*
X97642572Y-111629235D01*
X97618773Y-111635196D01*
X97594505Y-111638796D01*
X97570001Y-111640000D01*
X96669999Y-111640000D01*
X96645495Y-111638796D01*
X96621227Y-111635196D01*
X96597428Y-111629235D01*
X96574329Y-111620970D01*
X96552150Y-111610480D01*
X96531107Y-111597868D01*
X96511401Y-111583253D01*
X96493223Y-111566777D01*
X96476747Y-111548599D01*
X96462132Y-111528893D01*
X96449520Y-111507850D01*
X96439030Y-111485671D01*
X96430765Y-111462572D01*
X96424804Y-111438773D01*
X96421204Y-111414505D01*
X96420000Y-111390001D01*
X96420000Y-110739999D01*
X96421204Y-110715495D01*
X96424804Y-110691227D01*
X96430765Y-110667428D01*
X96439030Y-110644329D01*
X96449520Y-110622150D01*
X96462132Y-110601107D01*
X96476747Y-110581401D01*
X96493223Y-110563223D01*
X96511401Y-110546747D01*
X96531107Y-110532132D01*
X96552150Y-110519520D01*
X96574329Y-110509030D01*
X96597428Y-110500765D01*
X96621227Y-110494804D01*
X96645495Y-110491204D01*
X96669999Y-110490000D01*
X97570001Y-110490000D01*
X97594505Y-110491204D01*
G37*
G04 #@! TD.AperFunction*
D15*
X98900000Y-88950000D03*
X98900000Y-87050000D03*
X101100000Y-88000000D03*
X98900000Y-112950000D03*
X98900000Y-111050000D03*
X101100000Y-112000000D03*
G04 #@! TA.AperFunction,SMDPad,CuDef*
D10*
G36*
X103334505Y-86301204D02*
G01*
X103358773Y-86304804D01*
X103382572Y-86310765D01*
X103405671Y-86319030D01*
X103427850Y-86329520D01*
X103448893Y-86342132D01*
X103468599Y-86356747D01*
X103486777Y-86373223D01*
X103503253Y-86391401D01*
X103517868Y-86411107D01*
X103530480Y-86432150D01*
X103540970Y-86454329D01*
X103549235Y-86477428D01*
X103555196Y-86501227D01*
X103558796Y-86525495D01*
X103560000Y-86549999D01*
X103560000Y-87200001D01*
X103558796Y-87224505D01*
X103555196Y-87248773D01*
X103549235Y-87272572D01*
X103540970Y-87295671D01*
X103530480Y-87317850D01*
X103517868Y-87338893D01*
X103503253Y-87358599D01*
X103486777Y-87376777D01*
X103468599Y-87393253D01*
X103448893Y-87407868D01*
X103427850Y-87420480D01*
X103405671Y-87430970D01*
X103382572Y-87439235D01*
X103358773Y-87445196D01*
X103334505Y-87448796D01*
X103310001Y-87450000D01*
X102409999Y-87450000D01*
X102385495Y-87448796D01*
X102361227Y-87445196D01*
X102337428Y-87439235D01*
X102314329Y-87430970D01*
X102292150Y-87420480D01*
X102271107Y-87407868D01*
X102251401Y-87393253D01*
X102233223Y-87376777D01*
X102216747Y-87358599D01*
X102202132Y-87338893D01*
X102189520Y-87317850D01*
X102179030Y-87295671D01*
X102170765Y-87272572D01*
X102164804Y-87248773D01*
X102161204Y-87224505D01*
X102160000Y-87200001D01*
X102160000Y-86549999D01*
X102161204Y-86525495D01*
X102164804Y-86501227D01*
X102170765Y-86477428D01*
X102179030Y-86454329D01*
X102189520Y-86432150D01*
X102202132Y-86411107D01*
X102216747Y-86391401D01*
X102233223Y-86373223D01*
X102251401Y-86356747D01*
X102271107Y-86342132D01*
X102292150Y-86329520D01*
X102314329Y-86319030D01*
X102337428Y-86310765D01*
X102361227Y-86304804D01*
X102385495Y-86301204D01*
X102409999Y-86300000D01*
X103310001Y-86300000D01*
X103334505Y-86301204D01*
G37*
G04 #@! TD.AperFunction*
G04 #@! TA.AperFunction,SMDPad,CuDef*
G36*
X103334505Y-88351204D02*
G01*
X103358773Y-88354804D01*
X103382572Y-88360765D01*
X103405671Y-88369030D01*
X103427850Y-88379520D01*
X103448893Y-88392132D01*
X103468599Y-88406747D01*
X103486777Y-88423223D01*
X103503253Y-88441401D01*
X103517868Y-88461107D01*
X103530480Y-88482150D01*
X103540970Y-88504329D01*
X103549235Y-88527428D01*
X103555196Y-88551227D01*
X103558796Y-88575495D01*
X103560000Y-88599999D01*
X103560000Y-89250001D01*
X103558796Y-89274505D01*
X103555196Y-89298773D01*
X103549235Y-89322572D01*
X103540970Y-89345671D01*
X103530480Y-89367850D01*
X103517868Y-89388893D01*
X103503253Y-89408599D01*
X103486777Y-89426777D01*
X103468599Y-89443253D01*
X103448893Y-89457868D01*
X103427850Y-89470480D01*
X103405671Y-89480970D01*
X103382572Y-89489235D01*
X103358773Y-89495196D01*
X103334505Y-89498796D01*
X103310001Y-89500000D01*
X102409999Y-89500000D01*
X102385495Y-89498796D01*
X102361227Y-89495196D01*
X102337428Y-89489235D01*
X102314329Y-89480970D01*
X102292150Y-89470480D01*
X102271107Y-89457868D01*
X102251401Y-89443253D01*
X102233223Y-89426777D01*
X102216747Y-89408599D01*
X102202132Y-89388893D01*
X102189520Y-89367850D01*
X102179030Y-89345671D01*
X102170765Y-89322572D01*
X102164804Y-89298773D01*
X102161204Y-89274505D01*
X102160000Y-89250001D01*
X102160000Y-88599999D01*
X102161204Y-88575495D01*
X102164804Y-88551227D01*
X102170765Y-88527428D01*
X102179030Y-88504329D01*
X102189520Y-88482150D01*
X102202132Y-88461107D01*
X102216747Y-88441401D01*
X102233223Y-88423223D01*
X102251401Y-88406747D01*
X102271107Y-88392132D01*
X102292150Y-88379520D01*
X102314329Y-88369030D01*
X102337428Y-88360765D01*
X102361227Y-88354804D01*
X102385495Y-88351204D01*
X102409999Y-88350000D01*
X103310001Y-88350000D01*
X103334505Y-88351204D01*
G37*
G04 #@! TD.AperFunction*
G04 #@! TA.AperFunction,SMDPad,CuDef*
G36*
X103364505Y-112511204D02*
G01*
X103388773Y-112514804D01*
X103412572Y-112520765D01*
X103435671Y-112529030D01*
X103457850Y-112539520D01*
X103478893Y-112552132D01*
X103498599Y-112566747D01*
X103516777Y-112583223D01*
X103533253Y-112601401D01*
X103547868Y-112621107D01*
X103560480Y-112642150D01*
X103570970Y-112664329D01*
X103579235Y-112687428D01*
X103585196Y-112711227D01*
X103588796Y-112735495D01*
X103590000Y-112759999D01*
X103590000Y-113410001D01*
X103588796Y-113434505D01*
X103585196Y-113458773D01*
X103579235Y-113482572D01*
X103570970Y-113505671D01*
X103560480Y-113527850D01*
X103547868Y-113548893D01*
X103533253Y-113568599D01*
X103516777Y-113586777D01*
X103498599Y-113603253D01*
X103478893Y-113617868D01*
X103457850Y-113630480D01*
X103435671Y-113640970D01*
X103412572Y-113649235D01*
X103388773Y-113655196D01*
X103364505Y-113658796D01*
X103340001Y-113660000D01*
X102439999Y-113660000D01*
X102415495Y-113658796D01*
X102391227Y-113655196D01*
X102367428Y-113649235D01*
X102344329Y-113640970D01*
X102322150Y-113630480D01*
X102301107Y-113617868D01*
X102281401Y-113603253D01*
X102263223Y-113586777D01*
X102246747Y-113568599D01*
X102232132Y-113548893D01*
X102219520Y-113527850D01*
X102209030Y-113505671D01*
X102200765Y-113482572D01*
X102194804Y-113458773D01*
X102191204Y-113434505D01*
X102190000Y-113410001D01*
X102190000Y-112759999D01*
X102191204Y-112735495D01*
X102194804Y-112711227D01*
X102200765Y-112687428D01*
X102209030Y-112664329D01*
X102219520Y-112642150D01*
X102232132Y-112621107D01*
X102246747Y-112601401D01*
X102263223Y-112583223D01*
X102281401Y-112566747D01*
X102301107Y-112552132D01*
X102322150Y-112539520D01*
X102344329Y-112529030D01*
X102367428Y-112520765D01*
X102391227Y-112514804D01*
X102415495Y-112511204D01*
X102439999Y-112510000D01*
X103340001Y-112510000D01*
X103364505Y-112511204D01*
G37*
G04 #@! TD.AperFunction*
G04 #@! TA.AperFunction,SMDPad,CuDef*
G36*
X103364505Y-110461204D02*
G01*
X103388773Y-110464804D01*
X103412572Y-110470765D01*
X103435671Y-110479030D01*
X103457850Y-110489520D01*
X103478893Y-110502132D01*
X103498599Y-110516747D01*
X103516777Y-110533223D01*
X103533253Y-110551401D01*
X103547868Y-110571107D01*
X103560480Y-110592150D01*
X103570970Y-110614329D01*
X103579235Y-110637428D01*
X103585196Y-110661227D01*
X103588796Y-110685495D01*
X103590000Y-110709999D01*
X103590000Y-111360001D01*
X103588796Y-111384505D01*
X103585196Y-111408773D01*
X103579235Y-111432572D01*
X103570970Y-111455671D01*
X103560480Y-111477850D01*
X103547868Y-111498893D01*
X103533253Y-111518599D01*
X103516777Y-111536777D01*
X103498599Y-111553253D01*
X103478893Y-111567868D01*
X103457850Y-111580480D01*
X103435671Y-111590970D01*
X103412572Y-111599235D01*
X103388773Y-111605196D01*
X103364505Y-111608796D01*
X103340001Y-111610000D01*
X102439999Y-111610000D01*
X102415495Y-111608796D01*
X102391227Y-111605196D01*
X102367428Y-111599235D01*
X102344329Y-111590970D01*
X102322150Y-111580480D01*
X102301107Y-111567868D01*
X102281401Y-111553253D01*
X102263223Y-111536777D01*
X102246747Y-111518599D01*
X102232132Y-111498893D01*
X102219520Y-111477850D01*
X102209030Y-111455671D01*
X102200765Y-111432572D01*
X102194804Y-111408773D01*
X102191204Y-111384505D01*
X102190000Y-111360001D01*
X102190000Y-110709999D01*
X102191204Y-110685495D01*
X102194804Y-110661227D01*
X102200765Y-110637428D01*
X102209030Y-110614329D01*
X102219520Y-110592150D01*
X102232132Y-110571107D01*
X102246747Y-110551401D01*
X102263223Y-110533223D01*
X102281401Y-110516747D01*
X102301107Y-110502132D01*
X102322150Y-110489520D01*
X102344329Y-110479030D01*
X102367428Y-110470765D01*
X102391227Y-110464804D01*
X102415495Y-110461204D01*
X102439999Y-110460000D01*
X103340001Y-110460000D01*
X103364505Y-110461204D01*
G37*
G04 #@! TD.AperFunction*
G04 #@! TA.AperFunction,SMDPad,CuDef*
G36*
X95514505Y-86331204D02*
G01*
X95538773Y-86334804D01*
X95562572Y-86340765D01*
X95585671Y-86349030D01*
X95607850Y-86359520D01*
X95628893Y-86372132D01*
X95648599Y-86386747D01*
X95666777Y-86403223D01*
X95683253Y-86421401D01*
X95697868Y-86441107D01*
X95710480Y-86462150D01*
X95720970Y-86484329D01*
X95729235Y-86507428D01*
X95735196Y-86531227D01*
X95738796Y-86555495D01*
X95740000Y-86579999D01*
X95740000Y-87230001D01*
X95738796Y-87254505D01*
X95735196Y-87278773D01*
X95729235Y-87302572D01*
X95720970Y-87325671D01*
X95710480Y-87347850D01*
X95697868Y-87368893D01*
X95683253Y-87388599D01*
X95666777Y-87406777D01*
X95648599Y-87423253D01*
X95628893Y-87437868D01*
X95607850Y-87450480D01*
X95585671Y-87460970D01*
X95562572Y-87469235D01*
X95538773Y-87475196D01*
X95514505Y-87478796D01*
X95490001Y-87480000D01*
X94589999Y-87480000D01*
X94565495Y-87478796D01*
X94541227Y-87475196D01*
X94517428Y-87469235D01*
X94494329Y-87460970D01*
X94472150Y-87450480D01*
X94451107Y-87437868D01*
X94431401Y-87423253D01*
X94413223Y-87406777D01*
X94396747Y-87388599D01*
X94382132Y-87368893D01*
X94369520Y-87347850D01*
X94359030Y-87325671D01*
X94350765Y-87302572D01*
X94344804Y-87278773D01*
X94341204Y-87254505D01*
X94340000Y-87230001D01*
X94340000Y-86579999D01*
X94341204Y-86555495D01*
X94344804Y-86531227D01*
X94350765Y-86507428D01*
X94359030Y-86484329D01*
X94369520Y-86462150D01*
X94382132Y-86441107D01*
X94396747Y-86421401D01*
X94413223Y-86403223D01*
X94431401Y-86386747D01*
X94451107Y-86372132D01*
X94472150Y-86359520D01*
X94494329Y-86349030D01*
X94517428Y-86340765D01*
X94541227Y-86334804D01*
X94565495Y-86331204D01*
X94589999Y-86330000D01*
X95490001Y-86330000D01*
X95514505Y-86331204D01*
G37*
G04 #@! TD.AperFunction*
G04 #@! TA.AperFunction,SMDPad,CuDef*
G36*
X95514505Y-88381204D02*
G01*
X95538773Y-88384804D01*
X95562572Y-88390765D01*
X95585671Y-88399030D01*
X95607850Y-88409520D01*
X95628893Y-88422132D01*
X95648599Y-88436747D01*
X95666777Y-88453223D01*
X95683253Y-88471401D01*
X95697868Y-88491107D01*
X95710480Y-88512150D01*
X95720970Y-88534329D01*
X95729235Y-88557428D01*
X95735196Y-88581227D01*
X95738796Y-88605495D01*
X95740000Y-88629999D01*
X95740000Y-89280001D01*
X95738796Y-89304505D01*
X95735196Y-89328773D01*
X95729235Y-89352572D01*
X95720970Y-89375671D01*
X95710480Y-89397850D01*
X95697868Y-89418893D01*
X95683253Y-89438599D01*
X95666777Y-89456777D01*
X95648599Y-89473253D01*
X95628893Y-89487868D01*
X95607850Y-89500480D01*
X95585671Y-89510970D01*
X95562572Y-89519235D01*
X95538773Y-89525196D01*
X95514505Y-89528796D01*
X95490001Y-89530000D01*
X94589999Y-89530000D01*
X94565495Y-89528796D01*
X94541227Y-89525196D01*
X94517428Y-89519235D01*
X94494329Y-89510970D01*
X94472150Y-89500480D01*
X94451107Y-89487868D01*
X94431401Y-89473253D01*
X94413223Y-89456777D01*
X94396747Y-89438599D01*
X94382132Y-89418893D01*
X94369520Y-89397850D01*
X94359030Y-89375671D01*
X94350765Y-89352572D01*
X94344804Y-89328773D01*
X94341204Y-89304505D01*
X94340000Y-89280001D01*
X94340000Y-88629999D01*
X94341204Y-88605495D01*
X94344804Y-88581227D01*
X94350765Y-88557428D01*
X94359030Y-88534329D01*
X94369520Y-88512150D01*
X94382132Y-88491107D01*
X94396747Y-88471401D01*
X94413223Y-88453223D01*
X94431401Y-88436747D01*
X94451107Y-88422132D01*
X94472150Y-88409520D01*
X94494329Y-88399030D01*
X94517428Y-88390765D01*
X94541227Y-88384804D01*
X94565495Y-88381204D01*
X94589999Y-88380000D01*
X95490001Y-88380000D01*
X95514505Y-88381204D01*
G37*
G04 #@! TD.AperFunction*
G04 #@! TA.AperFunction,SMDPad,CuDef*
G36*
X95414505Y-112541204D02*
G01*
X95438773Y-112544804D01*
X95462572Y-112550765D01*
X95485671Y-112559030D01*
X95507850Y-112569520D01*
X95528893Y-112582132D01*
X95548599Y-112596747D01*
X95566777Y-112613223D01*
X95583253Y-112631401D01*
X95597868Y-112651107D01*
X95610480Y-112672150D01*
X95620970Y-112694329D01*
X95629235Y-112717428D01*
X95635196Y-112741227D01*
X95638796Y-112765495D01*
X95640000Y-112789999D01*
X95640000Y-113440001D01*
X95638796Y-113464505D01*
X95635196Y-113488773D01*
X95629235Y-113512572D01*
X95620970Y-113535671D01*
X95610480Y-113557850D01*
X95597868Y-113578893D01*
X95583253Y-113598599D01*
X95566777Y-113616777D01*
X95548599Y-113633253D01*
X95528893Y-113647868D01*
X95507850Y-113660480D01*
X95485671Y-113670970D01*
X95462572Y-113679235D01*
X95438773Y-113685196D01*
X95414505Y-113688796D01*
X95390001Y-113690000D01*
X94489999Y-113690000D01*
X94465495Y-113688796D01*
X94441227Y-113685196D01*
X94417428Y-113679235D01*
X94394329Y-113670970D01*
X94372150Y-113660480D01*
X94351107Y-113647868D01*
X94331401Y-113633253D01*
X94313223Y-113616777D01*
X94296747Y-113598599D01*
X94282132Y-113578893D01*
X94269520Y-113557850D01*
X94259030Y-113535671D01*
X94250765Y-113512572D01*
X94244804Y-113488773D01*
X94241204Y-113464505D01*
X94240000Y-113440001D01*
X94240000Y-112789999D01*
X94241204Y-112765495D01*
X94244804Y-112741227D01*
X94250765Y-112717428D01*
X94259030Y-112694329D01*
X94269520Y-112672150D01*
X94282132Y-112651107D01*
X94296747Y-112631401D01*
X94313223Y-112613223D01*
X94331401Y-112596747D01*
X94351107Y-112582132D01*
X94372150Y-112569520D01*
X94394329Y-112559030D01*
X94417428Y-112550765D01*
X94441227Y-112544804D01*
X94465495Y-112541204D01*
X94489999Y-112540000D01*
X95390001Y-112540000D01*
X95414505Y-112541204D01*
G37*
G04 #@! TD.AperFunction*
G04 #@! TA.AperFunction,SMDPad,CuDef*
G36*
X95414505Y-110491204D02*
G01*
X95438773Y-110494804D01*
X95462572Y-110500765D01*
X95485671Y-110509030D01*
X95507850Y-110519520D01*
X95528893Y-110532132D01*
X95548599Y-110546747D01*
X95566777Y-110563223D01*
X95583253Y-110581401D01*
X95597868Y-110601107D01*
X95610480Y-110622150D01*
X95620970Y-110644329D01*
X95629235Y-110667428D01*
X95635196Y-110691227D01*
X95638796Y-110715495D01*
X95640000Y-110739999D01*
X95640000Y-111390001D01*
X95638796Y-111414505D01*
X95635196Y-111438773D01*
X95629235Y-111462572D01*
X95620970Y-111485671D01*
X95610480Y-111507850D01*
X95597868Y-111528893D01*
X95583253Y-111548599D01*
X95566777Y-111566777D01*
X95548599Y-111583253D01*
X95528893Y-111597868D01*
X95507850Y-111610480D01*
X95485671Y-111620970D01*
X95462572Y-111629235D01*
X95438773Y-111635196D01*
X95414505Y-111638796D01*
X95390001Y-111640000D01*
X94489999Y-111640000D01*
X94465495Y-111638796D01*
X94441227Y-111635196D01*
X94417428Y-111629235D01*
X94394329Y-111620970D01*
X94372150Y-111610480D01*
X94351107Y-111597868D01*
X94331401Y-111583253D01*
X94313223Y-111566777D01*
X94296747Y-111548599D01*
X94282132Y-111528893D01*
X94269520Y-111507850D01*
X94259030Y-111485671D01*
X94250765Y-111462572D01*
X94244804Y-111438773D01*
X94241204Y-111414505D01*
X94240000Y-111390001D01*
X94240000Y-110739999D01*
X94241204Y-110715495D01*
X94244804Y-110691227D01*
X94250765Y-110667428D01*
X94259030Y-110644329D01*
X94269520Y-110622150D01*
X94282132Y-110601107D01*
X94296747Y-110581401D01*
X94313223Y-110563223D01*
X94331401Y-110546747D01*
X94351107Y-110532132D01*
X94372150Y-110519520D01*
X94394329Y-110509030D01*
X94417428Y-110500765D01*
X94441227Y-110494804D01*
X94465495Y-110491204D01*
X94489999Y-110490000D01*
X95390001Y-110490000D01*
X95414505Y-110491204D01*
G37*
G04 #@! TD.AperFunction*
G04 #@! TA.AperFunction,SMDPad,CuDef*
G36*
X108932505Y-150293204D02*
G01*
X108956773Y-150296804D01*
X108980572Y-150302765D01*
X109003671Y-150311030D01*
X109025850Y-150321520D01*
X109046893Y-150334132D01*
X109066599Y-150348747D01*
X109084777Y-150365223D01*
X109101253Y-150383401D01*
X109115868Y-150403107D01*
X109128480Y-150424150D01*
X109138970Y-150446329D01*
X109147235Y-150469428D01*
X109153196Y-150493227D01*
X109156796Y-150517495D01*
X109158000Y-150541999D01*
X109158000Y-151192001D01*
X109156796Y-151216505D01*
X109153196Y-151240773D01*
X109147235Y-151264572D01*
X109138970Y-151287671D01*
X109128480Y-151309850D01*
X109115868Y-151330893D01*
X109101253Y-151350599D01*
X109084777Y-151368777D01*
X109066599Y-151385253D01*
X109046893Y-151399868D01*
X109025850Y-151412480D01*
X109003671Y-151422970D01*
X108980572Y-151431235D01*
X108956773Y-151437196D01*
X108932505Y-151440796D01*
X108908001Y-151442000D01*
X108007999Y-151442000D01*
X107983495Y-151440796D01*
X107959227Y-151437196D01*
X107935428Y-151431235D01*
X107912329Y-151422970D01*
X107890150Y-151412480D01*
X107869107Y-151399868D01*
X107849401Y-151385253D01*
X107831223Y-151368777D01*
X107814747Y-151350599D01*
X107800132Y-151330893D01*
X107787520Y-151309850D01*
X107777030Y-151287671D01*
X107768765Y-151264572D01*
X107762804Y-151240773D01*
X107759204Y-151216505D01*
X107758000Y-151192001D01*
X107758000Y-150541999D01*
X107759204Y-150517495D01*
X107762804Y-150493227D01*
X107768765Y-150469428D01*
X107777030Y-150446329D01*
X107787520Y-150424150D01*
X107800132Y-150403107D01*
X107814747Y-150383401D01*
X107831223Y-150365223D01*
X107849401Y-150348747D01*
X107869107Y-150334132D01*
X107890150Y-150321520D01*
X107912329Y-150311030D01*
X107935428Y-150302765D01*
X107959227Y-150296804D01*
X107983495Y-150293204D01*
X108007999Y-150292000D01*
X108908001Y-150292000D01*
X108932505Y-150293204D01*
G37*
G04 #@! TD.AperFunction*
G04 #@! TA.AperFunction,SMDPad,CuDef*
G36*
X108932505Y-152343204D02*
G01*
X108956773Y-152346804D01*
X108980572Y-152352765D01*
X109003671Y-152361030D01*
X109025850Y-152371520D01*
X109046893Y-152384132D01*
X109066599Y-152398747D01*
X109084777Y-152415223D01*
X109101253Y-152433401D01*
X109115868Y-152453107D01*
X109128480Y-152474150D01*
X109138970Y-152496329D01*
X109147235Y-152519428D01*
X109153196Y-152543227D01*
X109156796Y-152567495D01*
X109158000Y-152591999D01*
X109158000Y-153242001D01*
X109156796Y-153266505D01*
X109153196Y-153290773D01*
X109147235Y-153314572D01*
X109138970Y-153337671D01*
X109128480Y-153359850D01*
X109115868Y-153380893D01*
X109101253Y-153400599D01*
X109084777Y-153418777D01*
X109066599Y-153435253D01*
X109046893Y-153449868D01*
X109025850Y-153462480D01*
X109003671Y-153472970D01*
X108980572Y-153481235D01*
X108956773Y-153487196D01*
X108932505Y-153490796D01*
X108908001Y-153492000D01*
X108007999Y-153492000D01*
X107983495Y-153490796D01*
X107959227Y-153487196D01*
X107935428Y-153481235D01*
X107912329Y-153472970D01*
X107890150Y-153462480D01*
X107869107Y-153449868D01*
X107849401Y-153435253D01*
X107831223Y-153418777D01*
X107814747Y-153400599D01*
X107800132Y-153380893D01*
X107787520Y-153359850D01*
X107777030Y-153337671D01*
X107768765Y-153314572D01*
X107762804Y-153290773D01*
X107759204Y-153266505D01*
X107758000Y-153242001D01*
X107758000Y-152591999D01*
X107759204Y-152567495D01*
X107762804Y-152543227D01*
X107768765Y-152519428D01*
X107777030Y-152496329D01*
X107787520Y-152474150D01*
X107800132Y-152453107D01*
X107814747Y-152433401D01*
X107831223Y-152415223D01*
X107849401Y-152398747D01*
X107869107Y-152384132D01*
X107890150Y-152371520D01*
X107912329Y-152361030D01*
X107935428Y-152352765D01*
X107959227Y-152346804D01*
X107983495Y-152343204D01*
X108007999Y-152342000D01*
X108908001Y-152342000D01*
X108932505Y-152343204D01*
G37*
G04 #@! TD.AperFunction*
D16*
X106299000Y-148356000D03*
X106299000Y-150856000D03*
G04 #@! TA.AperFunction,SMDPad,CuDef*
D10*
G36*
X102974505Y-136969204D02*
G01*
X102998773Y-136972804D01*
X103022572Y-136978765D01*
X103045671Y-136987030D01*
X103067850Y-136997520D01*
X103088893Y-137010132D01*
X103108599Y-137024747D01*
X103126777Y-137041223D01*
X103143253Y-137059401D01*
X103157868Y-137079107D01*
X103170480Y-137100150D01*
X103180970Y-137122329D01*
X103189235Y-137145428D01*
X103195196Y-137169227D01*
X103198796Y-137193495D01*
X103200000Y-137217999D01*
X103200000Y-138118001D01*
X103198796Y-138142505D01*
X103195196Y-138166773D01*
X103189235Y-138190572D01*
X103180970Y-138213671D01*
X103170480Y-138235850D01*
X103157868Y-138256893D01*
X103143253Y-138276599D01*
X103126777Y-138294777D01*
X103108599Y-138311253D01*
X103088893Y-138325868D01*
X103067850Y-138338480D01*
X103045671Y-138348970D01*
X103022572Y-138357235D01*
X102998773Y-138363196D01*
X102974505Y-138366796D01*
X102950001Y-138368000D01*
X102299999Y-138368000D01*
X102275495Y-138366796D01*
X102251227Y-138363196D01*
X102227428Y-138357235D01*
X102204329Y-138348970D01*
X102182150Y-138338480D01*
X102161107Y-138325868D01*
X102141401Y-138311253D01*
X102123223Y-138294777D01*
X102106747Y-138276599D01*
X102092132Y-138256893D01*
X102079520Y-138235850D01*
X102069030Y-138213671D01*
X102060765Y-138190572D01*
X102054804Y-138166773D01*
X102051204Y-138142505D01*
X102050000Y-138118001D01*
X102050000Y-137217999D01*
X102051204Y-137193495D01*
X102054804Y-137169227D01*
X102060765Y-137145428D01*
X102069030Y-137122329D01*
X102079520Y-137100150D01*
X102092132Y-137079107D01*
X102106747Y-137059401D01*
X102123223Y-137041223D01*
X102141401Y-137024747D01*
X102161107Y-137010132D01*
X102182150Y-136997520D01*
X102204329Y-136987030D01*
X102227428Y-136978765D01*
X102251227Y-136972804D01*
X102275495Y-136969204D01*
X102299999Y-136968000D01*
X102950001Y-136968000D01*
X102974505Y-136969204D01*
G37*
G04 #@! TD.AperFunction*
G04 #@! TA.AperFunction,SMDPad,CuDef*
G36*
X100924505Y-136969204D02*
G01*
X100948773Y-136972804D01*
X100972572Y-136978765D01*
X100995671Y-136987030D01*
X101017850Y-136997520D01*
X101038893Y-137010132D01*
X101058599Y-137024747D01*
X101076777Y-137041223D01*
X101093253Y-137059401D01*
X101107868Y-137079107D01*
X101120480Y-137100150D01*
X101130970Y-137122329D01*
X101139235Y-137145428D01*
X101145196Y-137169227D01*
X101148796Y-137193495D01*
X101150000Y-137217999D01*
X101150000Y-138118001D01*
X101148796Y-138142505D01*
X101145196Y-138166773D01*
X101139235Y-138190572D01*
X101130970Y-138213671D01*
X101120480Y-138235850D01*
X101107868Y-138256893D01*
X101093253Y-138276599D01*
X101076777Y-138294777D01*
X101058599Y-138311253D01*
X101038893Y-138325868D01*
X101017850Y-138338480D01*
X100995671Y-138348970D01*
X100972572Y-138357235D01*
X100948773Y-138363196D01*
X100924505Y-138366796D01*
X100900001Y-138368000D01*
X100249999Y-138368000D01*
X100225495Y-138366796D01*
X100201227Y-138363196D01*
X100177428Y-138357235D01*
X100154329Y-138348970D01*
X100132150Y-138338480D01*
X100111107Y-138325868D01*
X100091401Y-138311253D01*
X100073223Y-138294777D01*
X100056747Y-138276599D01*
X100042132Y-138256893D01*
X100029520Y-138235850D01*
X100019030Y-138213671D01*
X100010765Y-138190572D01*
X100004804Y-138166773D01*
X100001204Y-138142505D01*
X100000000Y-138118001D01*
X100000000Y-137217999D01*
X100001204Y-137193495D01*
X100004804Y-137169227D01*
X100010765Y-137145428D01*
X100019030Y-137122329D01*
X100029520Y-137100150D01*
X100042132Y-137079107D01*
X100056747Y-137059401D01*
X100073223Y-137041223D01*
X100091401Y-137024747D01*
X100111107Y-137010132D01*
X100132150Y-136997520D01*
X100154329Y-136987030D01*
X100177428Y-136978765D01*
X100201227Y-136972804D01*
X100225495Y-136969204D01*
X100249999Y-136968000D01*
X100900001Y-136968000D01*
X100924505Y-136969204D01*
G37*
G04 #@! TD.AperFunction*
G04 #@! TA.AperFunction,SMDPad,CuDef*
G36*
X100924505Y-134937204D02*
G01*
X100948773Y-134940804D01*
X100972572Y-134946765D01*
X100995671Y-134955030D01*
X101017850Y-134965520D01*
X101038893Y-134978132D01*
X101058599Y-134992747D01*
X101076777Y-135009223D01*
X101093253Y-135027401D01*
X101107868Y-135047107D01*
X101120480Y-135068150D01*
X101130970Y-135090329D01*
X101139235Y-135113428D01*
X101145196Y-135137227D01*
X101148796Y-135161495D01*
X101150000Y-135185999D01*
X101150000Y-136086001D01*
X101148796Y-136110505D01*
X101145196Y-136134773D01*
X101139235Y-136158572D01*
X101130970Y-136181671D01*
X101120480Y-136203850D01*
X101107868Y-136224893D01*
X101093253Y-136244599D01*
X101076777Y-136262777D01*
X101058599Y-136279253D01*
X101038893Y-136293868D01*
X101017850Y-136306480D01*
X100995671Y-136316970D01*
X100972572Y-136325235D01*
X100948773Y-136331196D01*
X100924505Y-136334796D01*
X100900001Y-136336000D01*
X100249999Y-136336000D01*
X100225495Y-136334796D01*
X100201227Y-136331196D01*
X100177428Y-136325235D01*
X100154329Y-136316970D01*
X100132150Y-136306480D01*
X100111107Y-136293868D01*
X100091401Y-136279253D01*
X100073223Y-136262777D01*
X100056747Y-136244599D01*
X100042132Y-136224893D01*
X100029520Y-136203850D01*
X100019030Y-136181671D01*
X100010765Y-136158572D01*
X100004804Y-136134773D01*
X100001204Y-136110505D01*
X100000000Y-136086001D01*
X100000000Y-135185999D01*
X100001204Y-135161495D01*
X100004804Y-135137227D01*
X100010765Y-135113428D01*
X100019030Y-135090329D01*
X100029520Y-135068150D01*
X100042132Y-135047107D01*
X100056747Y-135027401D01*
X100073223Y-135009223D01*
X100091401Y-134992747D01*
X100111107Y-134978132D01*
X100132150Y-134965520D01*
X100154329Y-134955030D01*
X100177428Y-134946765D01*
X100201227Y-134940804D01*
X100225495Y-134937204D01*
X100249999Y-134936000D01*
X100900001Y-134936000D01*
X100924505Y-134937204D01*
G37*
G04 #@! TD.AperFunction*
G04 #@! TA.AperFunction,SMDPad,CuDef*
G36*
X102974505Y-134937204D02*
G01*
X102998773Y-134940804D01*
X103022572Y-134946765D01*
X103045671Y-134955030D01*
X103067850Y-134965520D01*
X103088893Y-134978132D01*
X103108599Y-134992747D01*
X103126777Y-135009223D01*
X103143253Y-135027401D01*
X103157868Y-135047107D01*
X103170480Y-135068150D01*
X103180970Y-135090329D01*
X103189235Y-135113428D01*
X103195196Y-135137227D01*
X103198796Y-135161495D01*
X103200000Y-135185999D01*
X103200000Y-136086001D01*
X103198796Y-136110505D01*
X103195196Y-136134773D01*
X103189235Y-136158572D01*
X103180970Y-136181671D01*
X103170480Y-136203850D01*
X103157868Y-136224893D01*
X103143253Y-136244599D01*
X103126777Y-136262777D01*
X103108599Y-136279253D01*
X103088893Y-136293868D01*
X103067850Y-136306480D01*
X103045671Y-136316970D01*
X103022572Y-136325235D01*
X102998773Y-136331196D01*
X102974505Y-136334796D01*
X102950001Y-136336000D01*
X102299999Y-136336000D01*
X102275495Y-136334796D01*
X102251227Y-136331196D01*
X102227428Y-136325235D01*
X102204329Y-136316970D01*
X102182150Y-136306480D01*
X102161107Y-136293868D01*
X102141401Y-136279253D01*
X102123223Y-136262777D01*
X102106747Y-136244599D01*
X102092132Y-136224893D01*
X102079520Y-136203850D01*
X102069030Y-136181671D01*
X102060765Y-136158572D01*
X102054804Y-136134773D01*
X102051204Y-136110505D01*
X102050000Y-136086001D01*
X102050000Y-135185999D01*
X102051204Y-135161495D01*
X102054804Y-135137227D01*
X102060765Y-135113428D01*
X102069030Y-135090329D01*
X102079520Y-135068150D01*
X102092132Y-135047107D01*
X102106747Y-135027401D01*
X102123223Y-135009223D01*
X102141401Y-134992747D01*
X102161107Y-134978132D01*
X102182150Y-134965520D01*
X102204329Y-134955030D01*
X102227428Y-134946765D01*
X102251227Y-134940804D01*
X102275495Y-134937204D01*
X102299999Y-134936000D01*
X102950001Y-134936000D01*
X102974505Y-134937204D01*
G37*
G04 #@! TD.AperFunction*
D17*
X108839000Y-173355000D03*
D18*
X92906996Y-114427000D03*
X93000000Y-147915000D03*
X92964000Y-168275000D03*
X101831611Y-147407660D03*
X105918000Y-137287000D03*
X93095660Y-140593660D03*
X91025030Y-148209000D03*
X94234000Y-85217000D03*
X107315000Y-87249000D03*
X92837000Y-88900000D03*
X108204000Y-112014000D03*
X92964000Y-116332000D03*
X90805000Y-114300000D03*
X91868000Y-144383000D03*
X92960448Y-138270979D03*
X100584000Y-132207000D03*
X96647000Y-138430000D03*
X106680000Y-142113000D03*
X108712000Y-144272000D03*
X104267000Y-151384000D03*
X107393240Y-138814658D03*
X106172000Y-154305000D03*
X98679000Y-133350000D03*
X94940035Y-136017000D03*
X91803875Y-137020682D03*
X98171000Y-153035000D03*
X96774000Y-136398000D03*
X91964880Y-152680200D03*
X98171000Y-154305000D03*
X98711000Y-136345000D03*
X96901000Y-149606000D03*
X91821000Y-151511000D03*
X96414500Y-153902500D03*
X92710000Y-113157000D03*
X93980000Y-141732000D03*
X91694000Y-86995000D03*
X95377000Y-140716000D03*
X95613582Y-141860621D03*
X94869000Y-138684000D03*
X91148753Y-138445779D03*
X102616000Y-133731000D03*
X98679000Y-134454998D03*
X103828443Y-138097238D03*
X99949000Y-148100002D03*
X95123000Y-129159000D03*
X100804253Y-141334721D03*
X95504000Y-127889000D03*
X102707553Y-141351000D03*
X104209678Y-155649996D03*
X98552000Y-149733000D03*
D19*
X103895000Y-146545000D02*
X103750000Y-146690000D01*
X106500000Y-146545000D02*
X103895000Y-146545000D01*
X102700000Y-148290000D02*
X103750000Y-148290000D01*
X102624999Y-148214999D02*
X102700000Y-148290000D01*
X102700000Y-146690000D02*
X102624999Y-146765001D01*
X103750000Y-146690000D02*
X102700000Y-146690000D01*
X93425000Y-147490000D02*
X95250000Y-147490000D01*
X93000000Y-147915000D02*
X93425000Y-147490000D01*
X98835000Y-113115000D02*
X99000000Y-112950000D01*
X97120000Y-113115000D02*
X98835000Y-113115000D01*
X102755000Y-112950000D02*
X102890000Y-113085000D01*
X99000000Y-112950000D02*
X102755000Y-112950000D01*
X98995000Y-88955000D02*
X99000000Y-88950000D01*
X97150000Y-88955000D02*
X98995000Y-88955000D01*
X102835000Y-88950000D02*
X102860000Y-88925000D01*
X99000000Y-88950000D02*
X102835000Y-88950000D01*
X96383000Y-114427000D02*
X92906996Y-114427000D01*
X97120000Y-113690000D02*
X96383000Y-114427000D01*
X97120000Y-113115000D02*
X97120000Y-113690000D01*
X102624999Y-146765001D02*
X102616000Y-147447000D01*
X102616000Y-147447000D02*
X102624999Y-148214999D01*
X102700000Y-146690000D02*
X102700000Y-146748695D01*
X92975000Y-157975000D02*
X93000000Y-158000000D01*
X92975000Y-155000000D02*
X92975000Y-157975000D01*
X92975000Y-147940000D02*
X93000000Y-147915000D01*
X92975000Y-155000000D02*
X92975000Y-147940000D01*
X93600000Y-149090000D02*
X93000000Y-148490000D01*
X93000000Y-148490000D02*
X93000000Y-147915000D01*
X95250000Y-149090000D02*
X93600000Y-149090000D01*
X92964000Y-158036000D02*
X93000000Y-158000000D01*
X92964000Y-168275000D02*
X92964000Y-158036000D01*
X102616000Y-147447000D02*
X102576660Y-147407660D01*
X102576660Y-147407660D02*
X102397296Y-147407660D01*
X102397296Y-147407660D02*
X101831611Y-147407660D01*
X101838961Y-147415010D02*
X101831611Y-147407660D01*
X102033685Y-147415010D02*
X101838961Y-147415010D01*
X102890000Y-113660000D02*
X102890000Y-113085000D01*
X107442000Y-118212000D02*
X102890000Y-113660000D01*
X107442000Y-125222000D02*
X107442000Y-118212000D01*
X105664000Y-127000000D02*
X107442000Y-125222000D01*
X105918000Y-135890000D02*
X105918000Y-137287000D01*
X105664000Y-135636000D02*
X105918000Y-135890000D01*
X105664000Y-135636000D02*
X105664000Y-127000000D01*
X94272410Y-139917001D02*
X93727411Y-140462000D01*
X93727411Y-140462000D02*
X92973000Y-140462000D01*
X96788001Y-139917001D02*
X94272410Y-139917001D01*
X97150000Y-89530000D02*
X97150000Y-88955000D01*
X92906996Y-114427000D02*
X91728998Y-113249002D01*
X91728998Y-113249002D02*
X91728998Y-91151002D01*
X91728998Y-91151002D02*
X92329000Y-90551000D01*
X92329000Y-90551000D02*
X96129000Y-90551000D01*
X96129000Y-90551000D02*
X97150000Y-89530000D01*
X97079000Y-140208000D02*
X97781000Y-140208000D01*
X96788001Y-139917001D02*
X97079000Y-140208000D01*
X101150000Y-135636000D02*
X100575000Y-135636000D01*
X97781000Y-139508000D02*
X98595990Y-138693010D01*
X98595990Y-138693010D02*
X101138180Y-138693010D01*
X101600000Y-136086000D02*
X101150000Y-135636000D01*
X97781000Y-140208000D02*
X97781000Y-139508000D01*
X101138180Y-138693010D02*
X101600000Y-138231190D01*
X101600000Y-138231190D02*
X101600000Y-136086000D01*
X107771000Y-147490000D02*
X108966000Y-146295000D01*
X103750000Y-147490000D02*
X107771000Y-147490000D01*
X100300000Y-88000000D02*
X101000000Y-88000000D01*
X95420000Y-88000000D02*
X100300000Y-88000000D01*
X95040000Y-88380000D02*
X95420000Y-88000000D01*
X95040000Y-88955000D02*
X95040000Y-88380000D01*
X100300000Y-112000000D02*
X101000000Y-112000000D01*
X95480000Y-112000000D02*
X100300000Y-112000000D01*
X94940000Y-112540000D02*
X95480000Y-112000000D01*
X94940000Y-113115000D02*
X94940000Y-112540000D01*
X101315000Y-111035000D02*
X102190000Y-111035000D01*
X102190000Y-111035000D02*
X102890000Y-111035000D01*
X101000000Y-111350000D02*
X101315000Y-111035000D01*
X101000000Y-112000000D02*
X101000000Y-111350000D01*
X94200000Y-146690000D02*
X95250000Y-146690000D01*
X93000000Y-146440000D02*
X93250000Y-146690000D01*
X93250000Y-146690000D02*
X94200000Y-146690000D01*
X93000000Y-145865000D02*
X93000000Y-146440000D01*
X105105000Y-145890000D02*
X103750000Y-145890000D01*
X106500000Y-144495000D02*
X105105000Y-145890000D01*
X107200000Y-144495000D02*
X106500000Y-144495000D01*
X108585000Y-145720000D02*
X107360000Y-144495000D01*
X107360000Y-144495000D02*
X107200000Y-144495000D01*
X108585000Y-146295000D02*
X108585000Y-145720000D01*
X91025030Y-147139970D02*
X91025030Y-148209000D01*
X93000000Y-145865000D02*
X92300000Y-145865000D01*
X92300000Y-145865000D02*
X91025030Y-147139970D01*
X99746000Y-137922000D02*
X99187000Y-137922000D01*
X100575000Y-137668000D02*
X100000000Y-137668000D01*
X100000000Y-137668000D02*
X99746000Y-137922000D01*
X93000000Y-145865000D02*
X93000000Y-145515000D01*
X93000000Y-145515000D02*
X91868000Y-144383000D01*
X93360447Y-137870980D02*
X92960448Y-138270979D01*
X99135980Y-137870980D02*
X93360447Y-137870980D01*
X99187000Y-137922000D02*
X99135980Y-137870980D01*
X99568000Y-137236000D02*
X100000000Y-137668000D01*
X99568000Y-132423706D02*
X99568000Y-137236000D01*
X100584000Y-132207000D02*
X99568000Y-132423706D01*
X97790000Y-137922000D02*
X99187000Y-137922000D01*
X96647000Y-138430000D02*
X97790000Y-137922000D01*
X91868000Y-140415000D02*
X91868000Y-144383000D01*
X92818001Y-139464999D02*
X91868000Y-140415000D01*
X96647000Y-138430000D02*
X96247001Y-139464999D01*
X96247001Y-139464999D02*
X92818001Y-139464999D01*
X106680000Y-141995000D02*
X106680000Y-142113000D01*
X108712000Y-144272000D02*
X108712000Y-141995000D01*
X108458000Y-144018000D02*
X108712000Y-144272000D01*
X108458000Y-141995000D02*
X108458000Y-144018000D01*
X104800000Y-145090000D02*
X103750000Y-145090000D01*
X105029000Y-144861000D02*
X104800000Y-145090000D01*
X105029000Y-140769000D02*
X105029000Y-141097000D01*
X106553000Y-139945000D02*
X105853000Y-139945000D01*
X105853000Y-139945000D02*
X105029000Y-140769000D01*
X105029000Y-141097000D02*
X105029000Y-144861000D01*
X108951000Y-148360000D02*
X108966000Y-148345000D01*
X105565000Y-149090000D02*
X106299000Y-148356000D01*
X103750000Y-149090000D02*
X105565000Y-149090000D01*
X108447000Y-148356000D02*
X108458000Y-148345000D01*
X106299000Y-148356000D02*
X108447000Y-148356000D01*
X108959000Y-150860000D02*
X108966000Y-150867000D01*
X105263000Y-150856000D02*
X106299000Y-150856000D01*
X103750000Y-149890000D02*
X104297000Y-149890000D01*
X104297000Y-149890000D02*
X105263000Y-150856000D01*
X106310000Y-150867000D02*
X106299000Y-150856000D01*
X108458000Y-150867000D02*
X106310000Y-150867000D01*
X102344000Y-151384000D02*
X102300000Y-151340000D01*
X104267000Y-151384000D02*
X102344000Y-151384000D01*
X108458000Y-139945000D02*
X108458000Y-139370000D01*
X108458000Y-139370000D02*
X107902658Y-138814658D01*
X107902658Y-138814658D02*
X107393240Y-138814658D01*
X105606315Y-154305000D02*
X105479315Y-154432000D01*
X106172000Y-154305000D02*
X105606315Y-154305000D01*
X105479315Y-154432000D02*
X101600000Y-154432000D01*
X99900000Y-152732000D02*
X99900000Y-151340000D01*
X101600000Y-154432000D02*
X99900000Y-152732000D01*
X107000000Y-156488000D02*
X107000000Y-158000000D01*
X107000000Y-156218998D02*
X107000000Y-156488000D01*
X98300000Y-151340000D02*
X98300000Y-152090998D01*
X98300000Y-152090998D02*
X98674003Y-152465001D01*
X98674003Y-152465001D02*
X98744001Y-152465001D01*
X104572684Y-154940000D02*
X105664000Y-154940000D01*
X104557679Y-154924995D02*
X104572684Y-154940000D01*
X101203995Y-154924995D02*
X104557679Y-154924995D01*
X98744001Y-152465001D02*
X101203995Y-154924995D01*
X105664000Y-154940000D02*
X107000000Y-156218998D01*
X92117547Y-136707010D02*
X91803875Y-137020682D01*
X94250025Y-136707010D02*
X92117547Y-136707010D01*
X94940035Y-136017000D02*
X94250025Y-136707010D01*
X97500000Y-151340000D02*
X97500000Y-152413130D01*
X97500000Y-152413130D02*
X98171000Y-153035000D01*
X97028000Y-133350000D02*
X98113315Y-133350000D01*
X93359636Y-126222000D02*
X94291989Y-127154353D01*
X92440000Y-126222000D02*
X93359636Y-126222000D01*
X94291989Y-130613989D02*
X97028000Y-133350000D01*
X98113315Y-133350000D02*
X98679000Y-133350000D01*
X91440000Y-125222000D02*
X92440000Y-126222000D01*
X94291989Y-127154353D02*
X94291989Y-130613989D01*
X101554002Y-159893000D02*
X97381000Y-159893000D01*
X98171000Y-153035000D02*
X101092000Y-155956000D01*
X101092000Y-155956000D02*
X101600000Y-155956000D01*
X101600000Y-155956000D02*
X101981000Y-156328445D01*
X97000000Y-159512000D02*
X97000000Y-158000000D01*
X97381000Y-159893000D02*
X97000000Y-159512000D01*
X101981000Y-156328445D02*
X101981000Y-159466002D01*
X101981000Y-159466002D02*
X101554002Y-159893000D01*
X92440000Y-134382000D02*
X91440000Y-135382000D01*
X96774000Y-136398000D02*
X94758000Y-134382000D01*
X94758000Y-134382000D02*
X92440000Y-134382000D01*
X89850010Y-136727109D02*
X89850010Y-150565330D01*
X91195119Y-135382000D02*
X89850010Y-136727109D01*
X89850010Y-150565330D02*
X91564881Y-152280201D01*
X91564881Y-152280201D02*
X91964880Y-152680200D01*
X91440000Y-135382000D02*
X91195119Y-135382000D01*
X96700000Y-152834000D02*
X98171000Y-154305000D01*
X96700000Y-151340000D02*
X96700000Y-152834000D01*
X98171000Y-154305000D02*
X100203000Y-156337000D01*
X101000000Y-156488000D02*
X101000000Y-158000000D01*
X100849000Y-156337000D02*
X101000000Y-156488000D01*
X100203000Y-156337000D02*
X100849000Y-156337000D01*
X95208000Y-132842000D02*
X98711000Y-136345000D01*
X91440000Y-132842000D02*
X95208000Y-132842000D01*
X95250000Y-149890000D02*
X96617000Y-149890000D01*
X96617000Y-149890000D02*
X96901000Y-149606000D01*
X99000000Y-156488000D02*
X99000000Y-158000000D01*
X95250000Y-149890000D02*
X95250000Y-152738000D01*
X95250000Y-152738000D02*
X96414500Y-153902500D01*
X96414500Y-153902500D02*
X99000000Y-156488000D01*
X98711000Y-136345000D02*
X97961000Y-136345000D01*
X90308272Y-137718851D02*
X90300020Y-137727103D01*
X90300020Y-149990020D02*
X91421001Y-151111001D01*
X91421001Y-151111001D02*
X91821000Y-151511000D01*
X92151877Y-137745684D02*
X91455873Y-137745684D01*
X97146000Y-137160000D02*
X92737561Y-137160000D01*
X90300020Y-137727103D02*
X90300020Y-149990020D01*
X97961000Y-136345000D02*
X97146000Y-137160000D01*
X92737561Y-137160000D02*
X92151877Y-137745684D01*
X91429040Y-137718851D02*
X90308272Y-137718851D01*
X91455873Y-137745684D02*
X91429040Y-137718851D01*
X97135000Y-111050000D02*
X97120000Y-111065000D01*
X99000000Y-111050000D02*
X97135000Y-111050000D01*
X94940000Y-111065000D02*
X97120000Y-111065000D01*
X92710000Y-112595000D02*
X92710000Y-113157000D01*
X94940000Y-111065000D02*
X94240000Y-111065000D01*
X94240000Y-111065000D02*
X92710000Y-112595000D01*
X93743991Y-144633991D02*
X94200000Y-145090000D01*
X94200000Y-145090000D02*
X95250000Y-145090000D01*
X93743991Y-142638991D02*
X93980000Y-142402982D01*
X93980000Y-142402982D02*
X93980000Y-141732000D01*
X93743991Y-142638991D02*
X93743991Y-144633991D01*
X97295000Y-87050000D02*
X97150000Y-86905000D01*
X99000000Y-87050000D02*
X97295000Y-87050000D01*
X97150000Y-86905000D02*
X95040000Y-86905000D01*
X91694000Y-86995000D02*
X94950000Y-86995000D01*
X94950000Y-86995000D02*
X95040000Y-86905000D01*
X95250000Y-143765000D02*
X95250000Y-144290000D01*
X94888580Y-143403580D02*
X95250000Y-143765000D01*
X95265581Y-141135620D02*
X94888581Y-141512620D01*
X94888581Y-141512620D02*
X94888580Y-141529652D01*
X95377000Y-140716000D02*
X95338380Y-141135620D01*
X94888580Y-141529652D02*
X94888580Y-143403580D01*
X95338380Y-141135620D02*
X95265581Y-141135620D01*
X96592961Y-142840000D02*
X95613582Y-141860621D01*
X96700000Y-142840000D02*
X96592961Y-142840000D01*
X91548752Y-138845778D02*
X91148753Y-138445779D01*
X94869000Y-138684000D02*
X94303315Y-138684000D01*
X93991326Y-138995989D02*
X91698963Y-138995989D01*
X94303315Y-138684000D02*
X93991326Y-138995989D01*
X91698963Y-138995989D02*
X91548752Y-138845778D01*
X102029979Y-139143021D02*
X102108000Y-139065000D01*
X99108979Y-139143021D02*
X102029979Y-139143021D01*
X98681010Y-139570990D02*
X99108979Y-139143021D01*
X98298000Y-141478000D02*
X98681010Y-141094990D01*
X97812000Y-141478000D02*
X98298000Y-141478000D01*
X97500000Y-141790000D02*
X97812000Y-141478000D01*
X97500000Y-142840000D02*
X97500000Y-141790000D01*
X102616000Y-138601178D02*
X102108000Y-139065000D01*
X98681010Y-141094990D02*
X98681010Y-139570990D01*
X102616000Y-133731000D02*
X102616000Y-138601178D01*
X99831000Y-142771000D02*
X99900000Y-142840000D01*
X99831000Y-140335000D02*
X99831000Y-142771000D01*
X97496587Y-134454998D02*
X98113315Y-134454998D01*
X91440000Y-130302000D02*
X92440000Y-131302000D01*
X94343589Y-131302000D02*
X97496587Y-134454998D01*
X98113315Y-134454998D02*
X98679000Y-134454998D01*
X92440000Y-131302000D02*
X94343589Y-131302000D01*
X99900000Y-148051002D02*
X99949000Y-148100002D01*
X99900000Y-142840000D02*
X99900000Y-148051002D01*
X102236409Y-139700002D02*
X103428444Y-138507967D01*
X101040998Y-139700002D02*
X102236409Y-139700002D01*
X103428444Y-138497237D02*
X103828443Y-138097238D01*
X103428444Y-138507967D02*
X103428444Y-138497237D01*
X100913998Y-139700002D02*
X101040998Y-139700002D01*
X100406000Y-140208000D02*
X100913998Y-139700002D01*
X99831000Y-140208000D02*
X100406000Y-140208000D01*
X95123000Y-129159000D02*
X94869000Y-129159000D01*
X100804253Y-142735747D02*
X100700000Y-142840000D01*
X100804253Y-141334721D02*
X100804253Y-142735747D01*
X101930974Y-140208000D02*
X101204252Y-140934722D01*
X96137590Y-129159000D02*
X96264589Y-129285999D01*
X104648000Y-138428590D02*
X102868590Y-140208000D01*
X102868590Y-140208000D02*
X101930974Y-140208000D01*
X96264589Y-129285999D02*
X99513730Y-129285999D01*
X101204252Y-140934722D02*
X100804253Y-141334721D01*
X95123000Y-129159000D02*
X96137590Y-129159000D01*
X100569131Y-129285999D02*
X104519589Y-129285999D01*
X100469392Y-129288977D02*
X100569131Y-129285999D01*
X100461557Y-129296905D02*
X100469392Y-129288977D01*
X100283198Y-129297966D02*
X100461557Y-129296905D01*
X100096847Y-129302507D02*
X100275177Y-129305704D01*
X104519589Y-129285999D02*
X104705990Y-129472400D01*
X99513730Y-129285999D02*
X99716176Y-129294470D01*
X100088652Y-129310044D02*
X100096847Y-129302507D01*
X99716176Y-129294470D02*
X100088652Y-129310044D01*
X100275177Y-129305704D02*
X100283198Y-129297966D01*
X104705990Y-138372010D02*
X104648000Y-138430000D01*
X104705990Y-129472400D02*
X104705990Y-138372010D01*
X104648000Y-138430000D02*
X104648000Y-138428590D01*
X101500000Y-142840000D02*
X101500000Y-141790000D01*
X101500000Y-141790000D02*
X101833000Y-141457000D01*
X101833000Y-141457000D02*
X101835177Y-141454823D01*
X101939000Y-141351000D02*
X102707553Y-141351000D01*
X101833000Y-141457000D02*
X101939000Y-141351000D01*
X105156000Y-138176000D02*
X105156000Y-138684000D01*
X105156000Y-138902553D02*
X105156000Y-138557000D01*
X102707553Y-141351000D02*
X105156000Y-138902553D01*
X105156000Y-138557000D02*
X105156000Y-138176000D01*
X105156000Y-137795000D02*
X105156000Y-138176000D01*
X105156000Y-129286000D02*
X105156000Y-137795000D01*
X104705989Y-128835989D02*
X105156000Y-129286000D01*
X99924801Y-128849341D02*
X100096873Y-128852426D01*
X96450989Y-128835989D02*
X99523119Y-128835989D01*
X99921213Y-128852641D02*
X99924801Y-128849341D01*
X100272483Y-128848013D02*
X100275909Y-128844546D01*
X99523119Y-128835989D02*
X99921213Y-128852641D01*
X100096873Y-128852426D02*
X100100382Y-128849041D01*
X95504000Y-127889000D02*
X96450989Y-128835989D01*
X100275909Y-128844546D02*
X100447935Y-128839408D01*
X100100382Y-128849041D02*
X100272483Y-128848013D01*
X100447935Y-128839408D02*
X100451156Y-128835989D01*
X100451156Y-128835989D02*
X104705989Y-128835989D01*
X105000000Y-156440318D02*
X104209678Y-155649996D01*
X105000000Y-158000000D02*
X105000000Y-156440318D01*
X102300000Y-144352002D02*
X102300000Y-142840000D01*
X98552000Y-149733000D02*
X100076000Y-149733000D01*
X100838000Y-148971000D02*
X100838000Y-145796000D01*
X100076000Y-149733000D02*
X100838000Y-148971000D01*
X100838000Y-145796000D02*
X102300000Y-144352002D01*
X101000000Y-175488000D02*
X103133000Y-173355000D01*
X101000000Y-177000000D02*
X101000000Y-175488000D01*
X103133000Y-173355000D02*
X108839000Y-173355000D01*
D20*
G36*
X109840000Y-110418595D02*
G01*
X109840001Y-172057450D01*
X109613463Y-171906082D01*
X109315912Y-171782832D01*
X109000033Y-171720000D01*
X108677967Y-171720000D01*
X108362088Y-171782832D01*
X108064537Y-171906082D01*
X107796748Y-172085013D01*
X107569013Y-172312748D01*
X107390082Y-172580537D01*
X107384091Y-172595000D01*
X103170333Y-172595000D01*
X103133000Y-172591323D01*
X103095667Y-172595000D01*
X102984014Y-172605997D01*
X102840753Y-172649454D01*
X102708724Y-172720026D01*
X102592999Y-172814999D01*
X102569201Y-172843997D01*
X100488998Y-174924201D01*
X100460000Y-174947999D01*
X100436202Y-174976997D01*
X100436201Y-174976998D01*
X100365026Y-175063724D01*
X100342656Y-175105576D01*
X100275518Y-175112188D01*
X100155820Y-175148498D01*
X100045506Y-175207463D01*
X99975000Y-175265326D01*
X99904494Y-175207463D01*
X99794180Y-175148498D01*
X99674482Y-175112188D01*
X99550000Y-175099928D01*
X99085750Y-175103000D01*
X98927000Y-175261750D01*
X98927000Y-176873000D01*
X98947000Y-176873000D01*
X98947000Y-177127000D01*
X98927000Y-177127000D01*
X98927000Y-178738250D01*
X99085750Y-178897000D01*
X99550000Y-178900072D01*
X99674482Y-178887812D01*
X99794180Y-178851502D01*
X99904494Y-178792537D01*
X99975000Y-178734674D01*
X100045506Y-178792537D01*
X100155820Y-178851502D01*
X100275518Y-178887812D01*
X100400000Y-178900072D01*
X101600000Y-178900072D01*
X101724482Y-178887812D01*
X101844180Y-178851502D01*
X101954494Y-178792537D01*
X102025000Y-178734674D01*
X102095506Y-178792537D01*
X102205820Y-178851502D01*
X102325518Y-178887812D01*
X102450000Y-178900072D01*
X102914250Y-178897000D01*
X103073000Y-178738250D01*
X103073000Y-177127000D01*
X103327000Y-177127000D01*
X103327000Y-178738250D01*
X103485750Y-178897000D01*
X103950000Y-178900072D01*
X104074482Y-178887812D01*
X104194180Y-178851502D01*
X104304494Y-178792537D01*
X104401185Y-178713185D01*
X104480537Y-178616494D01*
X104539502Y-178506180D01*
X104575812Y-178386482D01*
X104588072Y-178262000D01*
X104585000Y-177285750D01*
X104426250Y-177127000D01*
X103327000Y-177127000D01*
X103073000Y-177127000D01*
X103053000Y-177127000D01*
X103053000Y-176873000D01*
X103073000Y-176873000D01*
X103073000Y-175261750D01*
X103327000Y-175261750D01*
X103327000Y-176873000D01*
X104426250Y-176873000D01*
X104585000Y-176714250D01*
X104588072Y-175738000D01*
X104575812Y-175613518D01*
X104539502Y-175493820D01*
X104480537Y-175383506D01*
X104401185Y-175286815D01*
X104304494Y-175207463D01*
X104194180Y-175148498D01*
X104074482Y-175112188D01*
X103950000Y-175099928D01*
X103485750Y-175103000D01*
X103327000Y-175261750D01*
X103073000Y-175261750D01*
X102914250Y-175103000D01*
X102462789Y-175100013D01*
X103447802Y-174115000D01*
X107384091Y-174115000D01*
X107390082Y-174129463D01*
X107569013Y-174397252D01*
X107796748Y-174624987D01*
X108064537Y-174803918D01*
X108362088Y-174927168D01*
X108677967Y-174990000D01*
X109000033Y-174990000D01*
X109315912Y-174927168D01*
X109613463Y-174803918D01*
X109840001Y-174652550D01*
X109840001Y-180967711D01*
X109811375Y-181259660D01*
X109735965Y-181509429D01*
X109613477Y-181739794D01*
X109448579Y-181941979D01*
X109247546Y-182108288D01*
X109018046Y-182232378D01*
X108768805Y-182309531D01*
X108478911Y-182340000D01*
X91532279Y-182340000D01*
X91240340Y-182311375D01*
X90990571Y-182235965D01*
X90760206Y-182113477D01*
X90558021Y-181948579D01*
X90391712Y-181747546D01*
X90267622Y-181518046D01*
X90190469Y-181268805D01*
X90160000Y-180978911D01*
X90160000Y-178262000D01*
X97411928Y-178262000D01*
X97424188Y-178386482D01*
X97460498Y-178506180D01*
X97519463Y-178616494D01*
X97598815Y-178713185D01*
X97695506Y-178792537D01*
X97805820Y-178851502D01*
X97925518Y-178887812D01*
X98050000Y-178900072D01*
X98514250Y-178897000D01*
X98673000Y-178738250D01*
X98673000Y-177127000D01*
X97573750Y-177127000D01*
X97415000Y-177285750D01*
X97411928Y-178262000D01*
X90160000Y-178262000D01*
X90160000Y-175738000D01*
X97411928Y-175738000D01*
X97415000Y-176714250D01*
X97573750Y-176873000D01*
X98673000Y-176873000D01*
X98673000Y-175261750D01*
X98514250Y-175103000D01*
X98050000Y-175099928D01*
X97925518Y-175112188D01*
X97805820Y-175148498D01*
X97695506Y-175207463D01*
X97598815Y-175286815D01*
X97519463Y-175383506D01*
X97460498Y-175493820D01*
X97424188Y-175613518D01*
X97411928Y-175738000D01*
X90160000Y-175738000D01*
X90160000Y-151950121D01*
X90929880Y-152720002D01*
X90929880Y-152782139D01*
X90969654Y-152982098D01*
X91047675Y-153170456D01*
X91160943Y-153339974D01*
X91305106Y-153484137D01*
X91474624Y-153597405D01*
X91662982Y-153675426D01*
X91862941Y-153715200D01*
X92066819Y-153715200D01*
X92215000Y-153685725D01*
X92215000Y-153780386D01*
X92156613Y-153811595D01*
X92022038Y-153922038D01*
X91911595Y-154056613D01*
X91829528Y-154210149D01*
X91778992Y-154376745D01*
X91761928Y-154549999D01*
X91761928Y-155450001D01*
X91778992Y-155623255D01*
X91829528Y-155789851D01*
X91911595Y-155943387D01*
X92022038Y-156077962D01*
X92126853Y-156163981D01*
X92045506Y-156207463D01*
X91948815Y-156286815D01*
X91869463Y-156383506D01*
X91810498Y-156493820D01*
X91774188Y-156613518D01*
X91761928Y-156738000D01*
X91761928Y-159262000D01*
X91774188Y-159386482D01*
X91810498Y-159506180D01*
X91869463Y-159616494D01*
X91948815Y-159713185D01*
X92045506Y-159792537D01*
X92155820Y-159851502D01*
X92204001Y-159866117D01*
X92204000Y-167571289D01*
X92160063Y-167615226D01*
X92046795Y-167784744D01*
X91968774Y-167973102D01*
X91929000Y-168173061D01*
X91929000Y-168376939D01*
X91968774Y-168576898D01*
X92046795Y-168765256D01*
X92160063Y-168934774D01*
X92304226Y-169078937D01*
X92473744Y-169192205D01*
X92662102Y-169270226D01*
X92862061Y-169310000D01*
X93065939Y-169310000D01*
X93265898Y-169270226D01*
X93454256Y-169192205D01*
X93623774Y-169078937D01*
X93767937Y-168934774D01*
X93881205Y-168765256D01*
X93959226Y-168576898D01*
X93999000Y-168376939D01*
X93999000Y-168173061D01*
X93959226Y-167973102D01*
X93881205Y-167784744D01*
X93767937Y-167615226D01*
X93724000Y-167571289D01*
X93724000Y-159887859D01*
X93724482Y-159887812D01*
X93844180Y-159851502D01*
X93954494Y-159792537D01*
X94000000Y-159755191D01*
X94045506Y-159792537D01*
X94155820Y-159851502D01*
X94275518Y-159887812D01*
X94400000Y-159900072D01*
X94714250Y-159897000D01*
X94873000Y-159738250D01*
X94873000Y-158127000D01*
X94853000Y-158127000D01*
X94853000Y-157873000D01*
X94873000Y-157873000D01*
X94873000Y-156261750D01*
X94842750Y-156231500D01*
X94898000Y-156176250D01*
X94898000Y-155127000D01*
X94878000Y-155127000D01*
X94878000Y-154873000D01*
X94898000Y-154873000D01*
X94898000Y-153823750D01*
X94739250Y-153665000D01*
X94450000Y-153661928D01*
X94325518Y-153674188D01*
X94205820Y-153710498D01*
X94095506Y-153769463D01*
X93998815Y-153848815D01*
X93933342Y-153928594D01*
X93927962Y-153922038D01*
X93793387Y-153811595D01*
X93735000Y-153780386D01*
X93735000Y-149850000D01*
X93811928Y-149850000D01*
X93811928Y-150165000D01*
X93824188Y-150289482D01*
X93860498Y-150409180D01*
X93919463Y-150519494D01*
X93998815Y-150616185D01*
X94095506Y-150695537D01*
X94205820Y-150754502D01*
X94325518Y-150790812D01*
X94450000Y-150803072D01*
X94490000Y-150803072D01*
X94490001Y-152700668D01*
X94486324Y-152738000D01*
X94490001Y-152775333D01*
X94498460Y-152861212D01*
X94500998Y-152886985D01*
X94544454Y-153030246D01*
X94615026Y-153162276D01*
X94681277Y-153243002D01*
X94710000Y-153278001D01*
X94738998Y-153301799D01*
X95206474Y-153769276D01*
X95152000Y-153823750D01*
X95152000Y-154873000D01*
X96052909Y-154873000D01*
X96112602Y-154897726D01*
X96312561Y-154937500D01*
X96374699Y-154937500D01*
X97537126Y-156099928D01*
X96400000Y-156099928D01*
X96275518Y-156112188D01*
X96155820Y-156148498D01*
X96045506Y-156207463D01*
X96000000Y-156244809D01*
X95968552Y-156219000D01*
X96051185Y-156151185D01*
X96130537Y-156054494D01*
X96189502Y-155944180D01*
X96225812Y-155824482D01*
X96238072Y-155700000D01*
X96235000Y-155285750D01*
X96076250Y-155127000D01*
X95152000Y-155127000D01*
X95152000Y-156176250D01*
X95182250Y-156206500D01*
X95127000Y-156261750D01*
X95127000Y-157873000D01*
X95147000Y-157873000D01*
X95147000Y-158127000D01*
X95127000Y-158127000D01*
X95127000Y-159738250D01*
X95285750Y-159897000D01*
X95600000Y-159900072D01*
X95724482Y-159887812D01*
X95844180Y-159851502D01*
X95954494Y-159792537D01*
X96000000Y-159755191D01*
X96045506Y-159792537D01*
X96155820Y-159851502D01*
X96275518Y-159887812D01*
X96342656Y-159894424D01*
X96365026Y-159936276D01*
X96398451Y-159977004D01*
X96459999Y-160052001D01*
X96489003Y-160075804D01*
X96817196Y-160403997D01*
X96840999Y-160433001D01*
X96956724Y-160527974D01*
X97088753Y-160598546D01*
X97232014Y-160642003D01*
X97343667Y-160653000D01*
X97343676Y-160653000D01*
X97380999Y-160656676D01*
X97418322Y-160653000D01*
X101516680Y-160653000D01*
X101554002Y-160656676D01*
X101591324Y-160653000D01*
X101591335Y-160653000D01*
X101702988Y-160642003D01*
X101846249Y-160598546D01*
X101978278Y-160527974D01*
X102094003Y-160433001D01*
X102117806Y-160403997D01*
X102491997Y-160029806D01*
X102521001Y-160006003D01*
X102607936Y-159900072D01*
X103600000Y-159900072D01*
X103724482Y-159887812D01*
X103844180Y-159851502D01*
X103954494Y-159792537D01*
X104000000Y-159755191D01*
X104045506Y-159792537D01*
X104155820Y-159851502D01*
X104275518Y-159887812D01*
X104400000Y-159900072D01*
X105600000Y-159900072D01*
X105724482Y-159887812D01*
X105844180Y-159851502D01*
X105954494Y-159792537D01*
X106000000Y-159755191D01*
X106045506Y-159792537D01*
X106155820Y-159851502D01*
X106275518Y-159887812D01*
X106400000Y-159900072D01*
X107600000Y-159900072D01*
X107724482Y-159887812D01*
X107844180Y-159851502D01*
X107954494Y-159792537D01*
X108051185Y-159713185D01*
X108130537Y-159616494D01*
X108189502Y-159506180D01*
X108225812Y-159386482D01*
X108238072Y-159262000D01*
X108238072Y-156738000D01*
X108225812Y-156613518D01*
X108189502Y-156493820D01*
X108130537Y-156383506D01*
X108051185Y-156286815D01*
X107954494Y-156207463D01*
X107844180Y-156148498D01*
X107754040Y-156121154D01*
X107749003Y-156070012D01*
X107746578Y-156062017D01*
X107745578Y-156053724D01*
X107724874Y-155990469D01*
X107705546Y-155926751D01*
X107701607Y-155919382D01*
X107699009Y-155911444D01*
X107666352Y-155853425D01*
X107634974Y-155794722D01*
X107629676Y-155788266D01*
X107625577Y-155780984D01*
X107582219Y-155730440D01*
X107540001Y-155678997D01*
X107504596Y-155649941D01*
X106884453Y-155056258D01*
X106975937Y-154964774D01*
X107089205Y-154795256D01*
X107167226Y-154606898D01*
X107207000Y-154406939D01*
X107207000Y-154203061D01*
X107167226Y-154003102D01*
X107089205Y-153814744D01*
X106975937Y-153645226D01*
X106831774Y-153501063D01*
X106818211Y-153492000D01*
X107119928Y-153492000D01*
X107132188Y-153616482D01*
X107168498Y-153736180D01*
X107227463Y-153846494D01*
X107306815Y-153943185D01*
X107403506Y-154022537D01*
X107513820Y-154081502D01*
X107633518Y-154117812D01*
X107758000Y-154130072D01*
X108172250Y-154127000D01*
X108331000Y-153968250D01*
X108331000Y-153044000D01*
X108585000Y-153044000D01*
X108585000Y-153968250D01*
X108743750Y-154127000D01*
X109158000Y-154130072D01*
X109282482Y-154117812D01*
X109402180Y-154081502D01*
X109512494Y-154022537D01*
X109609185Y-153943185D01*
X109688537Y-153846494D01*
X109747502Y-153736180D01*
X109783812Y-153616482D01*
X109796072Y-153492000D01*
X109793000Y-153202750D01*
X109634250Y-153044000D01*
X108585000Y-153044000D01*
X108331000Y-153044000D01*
X107281750Y-153044000D01*
X107123000Y-153202750D01*
X107119928Y-153492000D01*
X106818211Y-153492000D01*
X106662256Y-153387795D01*
X106473898Y-153309774D01*
X106273939Y-153270000D01*
X106070061Y-153270000D01*
X105870102Y-153309774D01*
X105681744Y-153387795D01*
X105512226Y-153501063D01*
X105457276Y-153556013D01*
X105314068Y-153599454D01*
X105182039Y-153670026D01*
X105179634Y-153672000D01*
X101914802Y-153672000D01*
X101016760Y-152773959D01*
X101099482Y-152765812D01*
X101100000Y-152765655D01*
X101100518Y-152765812D01*
X101225000Y-152778072D01*
X101775000Y-152778072D01*
X101899482Y-152765812D01*
X101900000Y-152765655D01*
X101900518Y-152765812D01*
X102025000Y-152778072D01*
X102575000Y-152778072D01*
X102699482Y-152765812D01*
X102819180Y-152729502D01*
X102929494Y-152670537D01*
X103026185Y-152591185D01*
X103105537Y-152494494D01*
X103164502Y-152384180D01*
X103200812Y-152264482D01*
X103212678Y-152144000D01*
X103563289Y-152144000D01*
X103607226Y-152187937D01*
X103776744Y-152301205D01*
X103965102Y-152379226D01*
X104165061Y-152419000D01*
X104368939Y-152419000D01*
X104568898Y-152379226D01*
X104757256Y-152301205D01*
X104926774Y-152187937D01*
X105070937Y-152043774D01*
X105141395Y-151938326D01*
X105154820Y-151945502D01*
X105274518Y-151981812D01*
X105399000Y-151994072D01*
X107199000Y-151994072D01*
X107225340Y-151991478D01*
X107168498Y-152097820D01*
X107132188Y-152217518D01*
X107119928Y-152342000D01*
X107123000Y-152631250D01*
X107281750Y-152790000D01*
X108331000Y-152790000D01*
X108331000Y-152770000D01*
X108585000Y-152770000D01*
X108585000Y-152790000D01*
X109634250Y-152790000D01*
X109793000Y-152631250D01*
X109796072Y-152342000D01*
X109783812Y-152217518D01*
X109747502Y-152097820D01*
X109688537Y-151987506D01*
X109609185Y-151890815D01*
X109529406Y-151825342D01*
X109535962Y-151819962D01*
X109646405Y-151685387D01*
X109728472Y-151531851D01*
X109779008Y-151365255D01*
X109796072Y-151192001D01*
X109796072Y-150541999D01*
X109779008Y-150368745D01*
X109728472Y-150202149D01*
X109646405Y-150048613D01*
X109535962Y-149914038D01*
X109401387Y-149803595D01*
X109247851Y-149721528D01*
X109081255Y-149670992D01*
X108908001Y-149653928D01*
X108007999Y-149653928D01*
X107834745Y-149670992D01*
X107668149Y-149721528D01*
X107514613Y-149803595D01*
X107513812Y-149804252D01*
X107443180Y-149766498D01*
X107323482Y-149730188D01*
X107199000Y-149717928D01*
X105997862Y-149717928D01*
X106105001Y-149630001D01*
X106128803Y-149600998D01*
X106235729Y-149494072D01*
X107199000Y-149494072D01*
X107323482Y-149481812D01*
X107443180Y-149445502D01*
X107513812Y-149407748D01*
X107514613Y-149408405D01*
X107668149Y-149490472D01*
X107834745Y-149541008D01*
X108007999Y-149558072D01*
X108908001Y-149558072D01*
X109081255Y-149541008D01*
X109247851Y-149490472D01*
X109401387Y-149408405D01*
X109535962Y-149297962D01*
X109646405Y-149163387D01*
X109728472Y-149009851D01*
X109779008Y-148843255D01*
X109796072Y-148670001D01*
X109796072Y-148019999D01*
X109779008Y-147846745D01*
X109728472Y-147680149D01*
X109646405Y-147526613D01*
X109535962Y-147392038D01*
X109529406Y-147386658D01*
X109609185Y-147321185D01*
X109688537Y-147224494D01*
X109747502Y-147114180D01*
X109783812Y-146994482D01*
X109796072Y-146870000D01*
X109793000Y-146580750D01*
X109634250Y-146422000D01*
X108585000Y-146422000D01*
X108585000Y-146442000D01*
X108331000Y-146442000D01*
X108331000Y-146422000D01*
X108311000Y-146422000D01*
X108311000Y-146168000D01*
X108331000Y-146168000D01*
X108331000Y-146148000D01*
X108585000Y-146148000D01*
X108585000Y-146168000D01*
X109634250Y-146168000D01*
X109793000Y-146009250D01*
X109796072Y-145720000D01*
X109783812Y-145595518D01*
X109747502Y-145475820D01*
X109688537Y-145365506D01*
X109609185Y-145268815D01*
X109512494Y-145189463D01*
X109402180Y-145130498D01*
X109325108Y-145107118D01*
X109371774Y-145075937D01*
X109515937Y-144931774D01*
X109629205Y-144762256D01*
X109707226Y-144573898D01*
X109747000Y-144373939D01*
X109747000Y-144170061D01*
X109707226Y-143970102D01*
X109629205Y-143781744D01*
X109515937Y-143612226D01*
X109472000Y-143568289D01*
X109472000Y-143000454D01*
X109535962Y-142947962D01*
X109646405Y-142813387D01*
X109728472Y-142659851D01*
X109779008Y-142493255D01*
X109796072Y-142320001D01*
X109796072Y-141669999D01*
X109779008Y-141496745D01*
X109728472Y-141330149D01*
X109646405Y-141176613D01*
X109535962Y-141042038D01*
X109448184Y-140970000D01*
X109535962Y-140897962D01*
X109646405Y-140763387D01*
X109728472Y-140609851D01*
X109779008Y-140443255D01*
X109796072Y-140270001D01*
X109796072Y-139619999D01*
X109779008Y-139446745D01*
X109728472Y-139280149D01*
X109646405Y-139126613D01*
X109535962Y-138992038D01*
X109401387Y-138881595D01*
X109247851Y-138799528D01*
X109081255Y-138748992D01*
X108908001Y-138731928D01*
X108894730Y-138731928D01*
X108466461Y-138303660D01*
X108442659Y-138274657D01*
X108326934Y-138179684D01*
X108194905Y-138109112D01*
X108132464Y-138090171D01*
X108053014Y-138010721D01*
X107883496Y-137897453D01*
X107695138Y-137819432D01*
X107495179Y-137779658D01*
X107291301Y-137779658D01*
X107091342Y-137819432D01*
X106902984Y-137897453D01*
X106733466Y-138010721D01*
X106589303Y-138154884D01*
X106476035Y-138324402D01*
X106398014Y-138512760D01*
X106358240Y-138712719D01*
X106358240Y-138731928D01*
X106102999Y-138731928D01*
X105929745Y-138748992D01*
X105916000Y-138753161D01*
X105916000Y-138322000D01*
X106019939Y-138322000D01*
X106219898Y-138282226D01*
X106408256Y-138204205D01*
X106577774Y-138090937D01*
X106721937Y-137946774D01*
X106835205Y-137777256D01*
X106913226Y-137588898D01*
X106953000Y-137388939D01*
X106953000Y-137185061D01*
X106913226Y-136985102D01*
X106835205Y-136796744D01*
X106721937Y-136627226D01*
X106678000Y-136583289D01*
X106678000Y-135927322D01*
X106681676Y-135889999D01*
X106678000Y-135852676D01*
X106678000Y-135852667D01*
X106667003Y-135741014D01*
X106623546Y-135597753D01*
X106552974Y-135465724D01*
X106458001Y-135349999D01*
X106428998Y-135326197D01*
X106424000Y-135321199D01*
X106424000Y-127314801D01*
X107953004Y-125785798D01*
X107982001Y-125762001D01*
X108076974Y-125646276D01*
X108147546Y-125514247D01*
X108191003Y-125370986D01*
X108202000Y-125259333D01*
X108202000Y-125259325D01*
X108205676Y-125222000D01*
X108202000Y-125184675D01*
X108202000Y-118249322D01*
X108205676Y-118211999D01*
X108202000Y-118174676D01*
X108202000Y-118174667D01*
X108191003Y-118063014D01*
X108147546Y-117919753D01*
X108076974Y-117787723D01*
X108005799Y-117700997D01*
X107982001Y-117671999D01*
X107953003Y-117648201D01*
X104123612Y-113818811D01*
X104160472Y-113749851D01*
X104211008Y-113583255D01*
X104228072Y-113410001D01*
X104228072Y-112759999D01*
X104211008Y-112586745D01*
X104160472Y-112420149D01*
X104078405Y-112266613D01*
X103967962Y-112132038D01*
X103961406Y-112126658D01*
X104041185Y-112061185D01*
X104120537Y-111964494D01*
X104179502Y-111854180D01*
X104215812Y-111734482D01*
X104228072Y-111610000D01*
X104225000Y-111320750D01*
X104066250Y-111162000D01*
X103017000Y-111162000D01*
X103017000Y-111182000D01*
X102763000Y-111182000D01*
X102763000Y-111162000D01*
X102743000Y-111162000D01*
X102743000Y-110908000D01*
X102763000Y-110908000D01*
X102763000Y-110888000D01*
X103017000Y-110888000D01*
X103017000Y-110908000D01*
X104066250Y-110908000D01*
X104225000Y-110749250D01*
X104228072Y-110460000D01*
X104218330Y-110361087D01*
X109840000Y-110418595D01*
G37*
X109840000Y-110418595D02*
X109840001Y-172057450D01*
X109613463Y-171906082D01*
X109315912Y-171782832D01*
X109000033Y-171720000D01*
X108677967Y-171720000D01*
X108362088Y-171782832D01*
X108064537Y-171906082D01*
X107796748Y-172085013D01*
X107569013Y-172312748D01*
X107390082Y-172580537D01*
X107384091Y-172595000D01*
X103170333Y-172595000D01*
X103133000Y-172591323D01*
X103095667Y-172595000D01*
X102984014Y-172605997D01*
X102840753Y-172649454D01*
X102708724Y-172720026D01*
X102592999Y-172814999D01*
X102569201Y-172843997D01*
X100488998Y-174924201D01*
X100460000Y-174947999D01*
X100436202Y-174976997D01*
X100436201Y-174976998D01*
X100365026Y-175063724D01*
X100342656Y-175105576D01*
X100275518Y-175112188D01*
X100155820Y-175148498D01*
X100045506Y-175207463D01*
X99975000Y-175265326D01*
X99904494Y-175207463D01*
X99794180Y-175148498D01*
X99674482Y-175112188D01*
X99550000Y-175099928D01*
X99085750Y-175103000D01*
X98927000Y-175261750D01*
X98927000Y-176873000D01*
X98947000Y-176873000D01*
X98947000Y-177127000D01*
X98927000Y-177127000D01*
X98927000Y-178738250D01*
X99085750Y-178897000D01*
X99550000Y-178900072D01*
X99674482Y-178887812D01*
X99794180Y-178851502D01*
X99904494Y-178792537D01*
X99975000Y-178734674D01*
X100045506Y-178792537D01*
X100155820Y-178851502D01*
X100275518Y-178887812D01*
X100400000Y-178900072D01*
X101600000Y-178900072D01*
X101724482Y-178887812D01*
X101844180Y-178851502D01*
X101954494Y-178792537D01*
X102025000Y-178734674D01*
X102095506Y-178792537D01*
X102205820Y-178851502D01*
X102325518Y-178887812D01*
X102450000Y-178900072D01*
X102914250Y-178897000D01*
X103073000Y-178738250D01*
X103073000Y-177127000D01*
X103327000Y-177127000D01*
X103327000Y-178738250D01*
X103485750Y-178897000D01*
X103950000Y-178900072D01*
X104074482Y-178887812D01*
X104194180Y-178851502D01*
X104304494Y-178792537D01*
X104401185Y-178713185D01*
X104480537Y-178616494D01*
X104539502Y-178506180D01*
X104575812Y-178386482D01*
X104588072Y-178262000D01*
X104585000Y-177285750D01*
X104426250Y-177127000D01*
X103327000Y-177127000D01*
X103073000Y-177127000D01*
X103053000Y-177127000D01*
X103053000Y-176873000D01*
X103073000Y-176873000D01*
X103073000Y-175261750D01*
X103327000Y-175261750D01*
X103327000Y-176873000D01*
X104426250Y-176873000D01*
X104585000Y-176714250D01*
X104588072Y-175738000D01*
X104575812Y-175613518D01*
X104539502Y-175493820D01*
X104480537Y-175383506D01*
X104401185Y-175286815D01*
X104304494Y-175207463D01*
X104194180Y-175148498D01*
X104074482Y-175112188D01*
X103950000Y-175099928D01*
X103485750Y-175103000D01*
X103327000Y-175261750D01*
X103073000Y-175261750D01*
X102914250Y-175103000D01*
X102462789Y-175100013D01*
X103447802Y-174115000D01*
X107384091Y-174115000D01*
X107390082Y-174129463D01*
X107569013Y-174397252D01*
X107796748Y-174624987D01*
X108064537Y-174803918D01*
X108362088Y-174927168D01*
X108677967Y-174990000D01*
X109000033Y-174990000D01*
X109315912Y-174927168D01*
X109613463Y-174803918D01*
X109840001Y-174652550D01*
X109840001Y-180967711D01*
X109811375Y-181259660D01*
X109735965Y-181509429D01*
X109613477Y-181739794D01*
X109448579Y-181941979D01*
X109247546Y-182108288D01*
X109018046Y-182232378D01*
X108768805Y-182309531D01*
X108478911Y-182340000D01*
X91532279Y-182340000D01*
X91240340Y-182311375D01*
X90990571Y-182235965D01*
X90760206Y-182113477D01*
X90558021Y-181948579D01*
X90391712Y-181747546D01*
X90267622Y-181518046D01*
X90190469Y-181268805D01*
X90160000Y-180978911D01*
X90160000Y-178262000D01*
X97411928Y-178262000D01*
X97424188Y-178386482D01*
X97460498Y-178506180D01*
X97519463Y-178616494D01*
X97598815Y-178713185D01*
X97695506Y-178792537D01*
X97805820Y-178851502D01*
X97925518Y-178887812D01*
X98050000Y-178900072D01*
X98514250Y-178897000D01*
X98673000Y-178738250D01*
X98673000Y-177127000D01*
X97573750Y-177127000D01*
X97415000Y-177285750D01*
X97411928Y-178262000D01*
X90160000Y-178262000D01*
X90160000Y-175738000D01*
X97411928Y-175738000D01*
X97415000Y-176714250D01*
X97573750Y-176873000D01*
X98673000Y-176873000D01*
X98673000Y-175261750D01*
X98514250Y-175103000D01*
X98050000Y-175099928D01*
X97925518Y-175112188D01*
X97805820Y-175148498D01*
X97695506Y-175207463D01*
X97598815Y-175286815D01*
X97519463Y-175383506D01*
X97460498Y-175493820D01*
X97424188Y-175613518D01*
X97411928Y-175738000D01*
X90160000Y-175738000D01*
X90160000Y-151950121D01*
X90929880Y-152720002D01*
X90929880Y-152782139D01*
X90969654Y-152982098D01*
X91047675Y-153170456D01*
X91160943Y-153339974D01*
X91305106Y-153484137D01*
X91474624Y-153597405D01*
X91662982Y-153675426D01*
X91862941Y-153715200D01*
X92066819Y-153715200D01*
X92215000Y-153685725D01*
X92215000Y-153780386D01*
X92156613Y-153811595D01*
X92022038Y-153922038D01*
X91911595Y-154056613D01*
X91829528Y-154210149D01*
X91778992Y-154376745D01*
X91761928Y-154549999D01*
X91761928Y-155450001D01*
X91778992Y-155623255D01*
X91829528Y-155789851D01*
X91911595Y-155943387D01*
X92022038Y-156077962D01*
X92126853Y-156163981D01*
X92045506Y-156207463D01*
X91948815Y-156286815D01*
X91869463Y-156383506D01*
X91810498Y-156493820D01*
X91774188Y-156613518D01*
X91761928Y-156738000D01*
X91761928Y-159262000D01*
X91774188Y-159386482D01*
X91810498Y-159506180D01*
X91869463Y-159616494D01*
X91948815Y-159713185D01*
X92045506Y-159792537D01*
X92155820Y-159851502D01*
X92204001Y-159866117D01*
X92204000Y-167571289D01*
X92160063Y-167615226D01*
X92046795Y-167784744D01*
X91968774Y-167973102D01*
X91929000Y-168173061D01*
X91929000Y-168376939D01*
X91968774Y-168576898D01*
X92046795Y-168765256D01*
X92160063Y-168934774D01*
X92304226Y-169078937D01*
X92473744Y-169192205D01*
X92662102Y-169270226D01*
X92862061Y-169310000D01*
X93065939Y-169310000D01*
X93265898Y-169270226D01*
X93454256Y-169192205D01*
X93623774Y-169078937D01*
X93767937Y-168934774D01*
X93881205Y-168765256D01*
X93959226Y-168576898D01*
X93999000Y-168376939D01*
X93999000Y-168173061D01*
X93959226Y-167973102D01*
X93881205Y-167784744D01*
X93767937Y-167615226D01*
X93724000Y-167571289D01*
X93724000Y-159887859D01*
X93724482Y-159887812D01*
X93844180Y-159851502D01*
X93954494Y-159792537D01*
X94000000Y-159755191D01*
X94045506Y-159792537D01*
X94155820Y-159851502D01*
X94275518Y-159887812D01*
X94400000Y-159900072D01*
X94714250Y-159897000D01*
X94873000Y-159738250D01*
X94873000Y-158127000D01*
X94853000Y-158127000D01*
X94853000Y-157873000D01*
X94873000Y-157873000D01*
X94873000Y-156261750D01*
X94842750Y-156231500D01*
X94898000Y-156176250D01*
X94898000Y-155127000D01*
X94878000Y-155127000D01*
X94878000Y-154873000D01*
X94898000Y-154873000D01*
X94898000Y-153823750D01*
X94739250Y-153665000D01*
X94450000Y-153661928D01*
X94325518Y-153674188D01*
X94205820Y-153710498D01*
X94095506Y-153769463D01*
X93998815Y-153848815D01*
X93933342Y-153928594D01*
X93927962Y-153922038D01*
X93793387Y-153811595D01*
X93735000Y-153780386D01*
X93735000Y-149850000D01*
X93811928Y-149850000D01*
X93811928Y-150165000D01*
X93824188Y-150289482D01*
X93860498Y-150409180D01*
X93919463Y-150519494D01*
X93998815Y-150616185D01*
X94095506Y-150695537D01*
X94205820Y-150754502D01*
X94325518Y-150790812D01*
X94450000Y-150803072D01*
X94490000Y-150803072D01*
X94490001Y-152700668D01*
X94486324Y-152738000D01*
X94490001Y-152775333D01*
X94498460Y-152861212D01*
X94500998Y-152886985D01*
X94544454Y-153030246D01*
X94615026Y-153162276D01*
X94681277Y-153243002D01*
X94710000Y-153278001D01*
X94738998Y-153301799D01*
X95206474Y-153769276D01*
X95152000Y-153823750D01*
X95152000Y-154873000D01*
X96052909Y-154873000D01*
X96112602Y-154897726D01*
X96312561Y-154937500D01*
X96374699Y-154937500D01*
X97537126Y-156099928D01*
X96400000Y-156099928D01*
X96275518Y-156112188D01*
X96155820Y-156148498D01*
X96045506Y-156207463D01*
X96000000Y-156244809D01*
X95968552Y-156219000D01*
X96051185Y-156151185D01*
X96130537Y-156054494D01*
X96189502Y-155944180D01*
X96225812Y-155824482D01*
X96238072Y-155700000D01*
X96235000Y-155285750D01*
X96076250Y-155127000D01*
X95152000Y-155127000D01*
X95152000Y-156176250D01*
X95182250Y-156206500D01*
X95127000Y-156261750D01*
X95127000Y-157873000D01*
X95147000Y-157873000D01*
X95147000Y-158127000D01*
X95127000Y-158127000D01*
X95127000Y-159738250D01*
X95285750Y-159897000D01*
X95600000Y-159900072D01*
X95724482Y-159887812D01*
X95844180Y-159851502D01*
X95954494Y-159792537D01*
X96000000Y-159755191D01*
X96045506Y-159792537D01*
X96155820Y-159851502D01*
X96275518Y-159887812D01*
X96342656Y-159894424D01*
X96365026Y-159936276D01*
X96398451Y-159977004D01*
X96459999Y-160052001D01*
X96489003Y-160075804D01*
X96817196Y-160403997D01*
X96840999Y-160433001D01*
X96956724Y-160527974D01*
X97088753Y-160598546D01*
X97232014Y-160642003D01*
X97343667Y-160653000D01*
X97343676Y-160653000D01*
X97380999Y-160656676D01*
X97418322Y-160653000D01*
X101516680Y-160653000D01*
X101554002Y-160656676D01*
X101591324Y-160653000D01*
X101591335Y-160653000D01*
X101702988Y-160642003D01*
X101846249Y-160598546D01*
X101978278Y-160527974D01*
X102094003Y-160433001D01*
X102117806Y-160403997D01*
X102491997Y-160029806D01*
X102521001Y-160006003D01*
X102607936Y-159900072D01*
X103600000Y-159900072D01*
X103724482Y-159887812D01*
X103844180Y-159851502D01*
X103954494Y-159792537D01*
X104000000Y-159755191D01*
X104045506Y-159792537D01*
X104155820Y-159851502D01*
X104275518Y-159887812D01*
X104400000Y-159900072D01*
X105600000Y-159900072D01*
X105724482Y-159887812D01*
X105844180Y-159851502D01*
X105954494Y-159792537D01*
X106000000Y-159755191D01*
X106045506Y-159792537D01*
X106155820Y-159851502D01*
X106275518Y-159887812D01*
X106400000Y-159900072D01*
X107600000Y-159900072D01*
X107724482Y-159887812D01*
X107844180Y-159851502D01*
X107954494Y-159792537D01*
X108051185Y-159713185D01*
X108130537Y-159616494D01*
X108189502Y-159506180D01*
X108225812Y-159386482D01*
X108238072Y-159262000D01*
X108238072Y-156738000D01*
X108225812Y-156613518D01*
X108189502Y-156493820D01*
X108130537Y-156383506D01*
X108051185Y-156286815D01*
X107954494Y-156207463D01*
X107844180Y-156148498D01*
X107754040Y-156121154D01*
X107749003Y-156070012D01*
X107746578Y-156062017D01*
X107745578Y-156053724D01*
X107724874Y-155990469D01*
X107705546Y-155926751D01*
X107701607Y-155919382D01*
X107699009Y-155911444D01*
X107666352Y-155853425D01*
X107634974Y-155794722D01*
X107629676Y-155788266D01*
X107625577Y-155780984D01*
X107582219Y-155730440D01*
X107540001Y-155678997D01*
X107504596Y-155649941D01*
X106884453Y-155056258D01*
X106975937Y-154964774D01*
X107089205Y-154795256D01*
X107167226Y-154606898D01*
X107207000Y-154406939D01*
X107207000Y-154203061D01*
X107167226Y-154003102D01*
X107089205Y-153814744D01*
X106975937Y-153645226D01*
X106831774Y-153501063D01*
X106818211Y-153492000D01*
X107119928Y-153492000D01*
X107132188Y-153616482D01*
X107168498Y-153736180D01*
X107227463Y-153846494D01*
X107306815Y-153943185D01*
X107403506Y-154022537D01*
X107513820Y-154081502D01*
X107633518Y-154117812D01*
X107758000Y-154130072D01*
X108172250Y-154127000D01*
X108331000Y-153968250D01*
X108331000Y-153044000D01*
X108585000Y-153044000D01*
X108585000Y-153968250D01*
X108743750Y-154127000D01*
X109158000Y-154130072D01*
X109282482Y-154117812D01*
X109402180Y-154081502D01*
X109512494Y-154022537D01*
X109609185Y-153943185D01*
X109688537Y-153846494D01*
X109747502Y-153736180D01*
X109783812Y-153616482D01*
X109796072Y-153492000D01*
X109793000Y-153202750D01*
X109634250Y-153044000D01*
X108585000Y-153044000D01*
X108331000Y-153044000D01*
X107281750Y-153044000D01*
X107123000Y-153202750D01*
X107119928Y-153492000D01*
X106818211Y-153492000D01*
X106662256Y-153387795D01*
X106473898Y-153309774D01*
X106273939Y-153270000D01*
X106070061Y-153270000D01*
X105870102Y-153309774D01*
X105681744Y-153387795D01*
X105512226Y-153501063D01*
X105457276Y-153556013D01*
X105314068Y-153599454D01*
X105182039Y-153670026D01*
X105179634Y-153672000D01*
X101914802Y-153672000D01*
X101016760Y-152773959D01*
X101099482Y-152765812D01*
X101100000Y-152765655D01*
X101100518Y-152765812D01*
X101225000Y-152778072D01*
X101775000Y-152778072D01*
X101899482Y-152765812D01*
X101900000Y-152765655D01*
X101900518Y-152765812D01*
X102025000Y-152778072D01*
X102575000Y-152778072D01*
X102699482Y-152765812D01*
X102819180Y-152729502D01*
X102929494Y-152670537D01*
X103026185Y-152591185D01*
X103105537Y-152494494D01*
X103164502Y-152384180D01*
X103200812Y-152264482D01*
X103212678Y-152144000D01*
X103563289Y-152144000D01*
X103607226Y-152187937D01*
X103776744Y-152301205D01*
X103965102Y-152379226D01*
X104165061Y-152419000D01*
X104368939Y-152419000D01*
X104568898Y-152379226D01*
X104757256Y-152301205D01*
X104926774Y-152187937D01*
X105070937Y-152043774D01*
X105141395Y-151938326D01*
X105154820Y-151945502D01*
X105274518Y-151981812D01*
X105399000Y-151994072D01*
X107199000Y-151994072D01*
X107225340Y-151991478D01*
X107168498Y-152097820D01*
X107132188Y-152217518D01*
X107119928Y-152342000D01*
X107123000Y-152631250D01*
X107281750Y-152790000D01*
X108331000Y-152790000D01*
X108331000Y-152770000D01*
X108585000Y-152770000D01*
X108585000Y-152790000D01*
X109634250Y-152790000D01*
X109793000Y-152631250D01*
X109796072Y-152342000D01*
X109783812Y-152217518D01*
X109747502Y-152097820D01*
X109688537Y-151987506D01*
X109609185Y-151890815D01*
X109529406Y-151825342D01*
X109535962Y-151819962D01*
X109646405Y-151685387D01*
X109728472Y-151531851D01*
X109779008Y-151365255D01*
X109796072Y-151192001D01*
X109796072Y-150541999D01*
X109779008Y-150368745D01*
X109728472Y-150202149D01*
X109646405Y-150048613D01*
X109535962Y-149914038D01*
X109401387Y-149803595D01*
X109247851Y-149721528D01*
X109081255Y-149670992D01*
X108908001Y-149653928D01*
X108007999Y-149653928D01*
X107834745Y-149670992D01*
X107668149Y-149721528D01*
X107514613Y-149803595D01*
X107513812Y-149804252D01*
X107443180Y-149766498D01*
X107323482Y-149730188D01*
X107199000Y-149717928D01*
X105997862Y-149717928D01*
X106105001Y-149630001D01*
X106128803Y-149600998D01*
X106235729Y-149494072D01*
X107199000Y-149494072D01*
X107323482Y-149481812D01*
X107443180Y-149445502D01*
X107513812Y-149407748D01*
X107514613Y-149408405D01*
X107668149Y-149490472D01*
X107834745Y-149541008D01*
X108007999Y-149558072D01*
X108908001Y-149558072D01*
X109081255Y-149541008D01*
X109247851Y-149490472D01*
X109401387Y-149408405D01*
X109535962Y-149297962D01*
X109646405Y-149163387D01*
X109728472Y-149009851D01*
X109779008Y-148843255D01*
X109796072Y-148670001D01*
X109796072Y-148019999D01*
X109779008Y-147846745D01*
X109728472Y-147680149D01*
X109646405Y-147526613D01*
X109535962Y-147392038D01*
X109529406Y-147386658D01*
X109609185Y-147321185D01*
X109688537Y-147224494D01*
X109747502Y-147114180D01*
X109783812Y-146994482D01*
X109796072Y-146870000D01*
X109793000Y-146580750D01*
X109634250Y-146422000D01*
X108585000Y-146422000D01*
X108585000Y-146442000D01*
X108331000Y-146442000D01*
X108331000Y-146422000D01*
X108311000Y-146422000D01*
X108311000Y-146168000D01*
X108331000Y-146168000D01*
X108331000Y-146148000D01*
X108585000Y-146148000D01*
X108585000Y-146168000D01*
X109634250Y-146168000D01*
X109793000Y-146009250D01*
X109796072Y-145720000D01*
X109783812Y-145595518D01*
X109747502Y-145475820D01*
X109688537Y-145365506D01*
X109609185Y-145268815D01*
X109512494Y-145189463D01*
X109402180Y-145130498D01*
X109325108Y-145107118D01*
X109371774Y-145075937D01*
X109515937Y-144931774D01*
X109629205Y-144762256D01*
X109707226Y-144573898D01*
X109747000Y-144373939D01*
X109747000Y-144170061D01*
X109707226Y-143970102D01*
X109629205Y-143781744D01*
X109515937Y-143612226D01*
X109472000Y-143568289D01*
X109472000Y-143000454D01*
X109535962Y-142947962D01*
X109646405Y-142813387D01*
X109728472Y-142659851D01*
X109779008Y-142493255D01*
X109796072Y-142320001D01*
X109796072Y-141669999D01*
X109779008Y-141496745D01*
X109728472Y-141330149D01*
X109646405Y-141176613D01*
X109535962Y-141042038D01*
X109448184Y-140970000D01*
X109535962Y-140897962D01*
X109646405Y-140763387D01*
X109728472Y-140609851D01*
X109779008Y-140443255D01*
X109796072Y-140270001D01*
X109796072Y-139619999D01*
X109779008Y-139446745D01*
X109728472Y-139280149D01*
X109646405Y-139126613D01*
X109535962Y-138992038D01*
X109401387Y-138881595D01*
X109247851Y-138799528D01*
X109081255Y-138748992D01*
X108908001Y-138731928D01*
X108894730Y-138731928D01*
X108466461Y-138303660D01*
X108442659Y-138274657D01*
X108326934Y-138179684D01*
X108194905Y-138109112D01*
X108132464Y-138090171D01*
X108053014Y-138010721D01*
X107883496Y-137897453D01*
X107695138Y-137819432D01*
X107495179Y-137779658D01*
X107291301Y-137779658D01*
X107091342Y-137819432D01*
X106902984Y-137897453D01*
X106733466Y-138010721D01*
X106589303Y-138154884D01*
X106476035Y-138324402D01*
X106398014Y-138512760D01*
X106358240Y-138712719D01*
X106358240Y-138731928D01*
X106102999Y-138731928D01*
X105929745Y-138748992D01*
X105916000Y-138753161D01*
X105916000Y-138322000D01*
X106019939Y-138322000D01*
X106219898Y-138282226D01*
X106408256Y-138204205D01*
X106577774Y-138090937D01*
X106721937Y-137946774D01*
X106835205Y-137777256D01*
X106913226Y-137588898D01*
X106953000Y-137388939D01*
X106953000Y-137185061D01*
X106913226Y-136985102D01*
X106835205Y-136796744D01*
X106721937Y-136627226D01*
X106678000Y-136583289D01*
X106678000Y-135927322D01*
X106681676Y-135889999D01*
X106678000Y-135852676D01*
X106678000Y-135852667D01*
X106667003Y-135741014D01*
X106623546Y-135597753D01*
X106552974Y-135465724D01*
X106458001Y-135349999D01*
X106428998Y-135326197D01*
X106424000Y-135321199D01*
X106424000Y-127314801D01*
X107953004Y-125785798D01*
X107982001Y-125762001D01*
X108076974Y-125646276D01*
X108147546Y-125514247D01*
X108191003Y-125370986D01*
X108202000Y-125259333D01*
X108202000Y-125259325D01*
X108205676Y-125222000D01*
X108202000Y-125184675D01*
X108202000Y-118249322D01*
X108205676Y-118211999D01*
X108202000Y-118174676D01*
X108202000Y-118174667D01*
X108191003Y-118063014D01*
X108147546Y-117919753D01*
X108076974Y-117787723D01*
X108005799Y-117700997D01*
X107982001Y-117671999D01*
X107953003Y-117648201D01*
X104123612Y-113818811D01*
X104160472Y-113749851D01*
X104211008Y-113583255D01*
X104228072Y-113410001D01*
X104228072Y-112759999D01*
X104211008Y-112586745D01*
X104160472Y-112420149D01*
X104078405Y-112266613D01*
X103967962Y-112132038D01*
X103961406Y-112126658D01*
X104041185Y-112061185D01*
X104120537Y-111964494D01*
X104179502Y-111854180D01*
X104215812Y-111734482D01*
X104228072Y-111610000D01*
X104225000Y-111320750D01*
X104066250Y-111162000D01*
X103017000Y-111162000D01*
X103017000Y-111182000D01*
X102763000Y-111182000D01*
X102763000Y-111162000D01*
X102743000Y-111162000D01*
X102743000Y-110908000D01*
X102763000Y-110908000D01*
X102763000Y-110888000D01*
X103017000Y-110888000D01*
X103017000Y-110908000D01*
X104066250Y-110908000D01*
X104225000Y-110749250D01*
X104228072Y-110460000D01*
X104218330Y-110361087D01*
X109840000Y-110418595D01*
G36*
X91865830Y-147030527D02*
G01*
X91811595Y-147096613D01*
X91729528Y-147250149D01*
X91678992Y-147416745D01*
X91661928Y-147589999D01*
X91661928Y-148240001D01*
X91678992Y-148413255D01*
X91729528Y-148579851D01*
X91811595Y-148733387D01*
X91922038Y-148867962D01*
X92056613Y-148978405D01*
X92210149Y-149060472D01*
X92215001Y-149061944D01*
X92215001Y-150553924D01*
X92122898Y-150515774D01*
X91922939Y-150476000D01*
X91860802Y-150476000D01*
X91060020Y-149675219D01*
X91060020Y-147021000D01*
X91348915Y-147021000D01*
X91865830Y-147030527D01*
G37*
X91865830Y-147030527D02*
X91811595Y-147096613D01*
X91729528Y-147250149D01*
X91678992Y-147416745D01*
X91661928Y-147589999D01*
X91661928Y-148240001D01*
X91678992Y-148413255D01*
X91729528Y-148579851D01*
X91811595Y-148733387D01*
X91922038Y-148867962D01*
X92056613Y-148978405D01*
X92210149Y-149060472D01*
X92215001Y-149061944D01*
X92215001Y-150553924D01*
X92122898Y-150515774D01*
X91922939Y-150476000D01*
X91860802Y-150476000D01*
X91060020Y-149675219D01*
X91060020Y-147021000D01*
X91348915Y-147021000D01*
X91865830Y-147030527D01*
G36*
X107514613Y-143058405D02*
G01*
X107668149Y-143140472D01*
X107698001Y-143149527D01*
X107698001Y-143525860D01*
X107651185Y-143468815D01*
X107554494Y-143389463D01*
X107444180Y-143330498D01*
X107324482Y-143294188D01*
X107200000Y-143281928D01*
X106785750Y-143285000D01*
X106627000Y-143443750D01*
X106627000Y-144368000D01*
X106647000Y-144368000D01*
X106647000Y-144622000D01*
X106627000Y-144622000D01*
X106627000Y-144642000D01*
X106373000Y-144642000D01*
X106373000Y-144622000D01*
X106353000Y-144622000D01*
X106353000Y-144368000D01*
X106373000Y-144368000D01*
X106373000Y-143443750D01*
X106214250Y-143285000D01*
X105800000Y-143281928D01*
X105789000Y-143283011D01*
X105789000Y-143148314D01*
X105929745Y-143191008D01*
X106102999Y-143208072D01*
X107003001Y-143208072D01*
X107176255Y-143191008D01*
X107342851Y-143140472D01*
X107496387Y-143058405D01*
X107505500Y-143050926D01*
X107514613Y-143058405D01*
G37*
X107514613Y-143058405D02*
X107668149Y-143140472D01*
X107698001Y-143149527D01*
X107698001Y-143525860D01*
X107651185Y-143468815D01*
X107554494Y-143389463D01*
X107444180Y-143330498D01*
X107324482Y-143294188D01*
X107200000Y-143281928D01*
X106785750Y-143285000D01*
X106627000Y-143443750D01*
X106627000Y-144368000D01*
X106647000Y-144368000D01*
X106647000Y-144622000D01*
X106627000Y-144622000D01*
X106627000Y-144642000D01*
X106373000Y-144642000D01*
X106373000Y-144622000D01*
X106353000Y-144622000D01*
X106353000Y-144368000D01*
X106373000Y-144368000D01*
X106373000Y-143443750D01*
X106214250Y-143285000D01*
X105800000Y-143281928D01*
X105789000Y-143283011D01*
X105789000Y-143148314D01*
X105929745Y-143191008D01*
X106102999Y-143208072D01*
X107003001Y-143208072D01*
X107176255Y-143191008D01*
X107342851Y-143140472D01*
X107496387Y-143058405D01*
X107505500Y-143050926D01*
X107514613Y-143058405D01*
G36*
X99365000Y-137382250D02*
G01*
X99523750Y-137541000D01*
X100448000Y-137541000D01*
X100448000Y-137521000D01*
X100702000Y-137521000D01*
X100702000Y-137541000D01*
X100722000Y-137541000D01*
X100722000Y-137795000D01*
X100702000Y-137795000D01*
X100702000Y-137815000D01*
X100448000Y-137815000D01*
X100448000Y-137795000D01*
X99523750Y-137795000D01*
X99385740Y-137933010D01*
X98633313Y-137933010D01*
X98595990Y-137929334D01*
X98558667Y-137933010D01*
X98558657Y-137933010D01*
X98447004Y-137944007D01*
X98333446Y-137978454D01*
X98303743Y-137987464D01*
X98171713Y-138058036D01*
X98098646Y-138118001D01*
X98055989Y-138153009D01*
X98032191Y-138182008D01*
X97332064Y-138882134D01*
X97282745Y-138886992D01*
X97116149Y-138937528D01*
X96962613Y-139019595D01*
X96828038Y-139130038D01*
X96807362Y-139155232D01*
X96788001Y-139153325D01*
X96750679Y-139157001D01*
X95793352Y-139157001D01*
X95864226Y-138985898D01*
X95904000Y-138785939D01*
X95904000Y-138582061D01*
X95864226Y-138382102D01*
X95786205Y-138193744D01*
X95672937Y-138024226D01*
X95600087Y-137951376D01*
X95600166Y-137920000D01*
X97108678Y-137920000D01*
X97146000Y-137923676D01*
X97183322Y-137920000D01*
X97183333Y-137920000D01*
X97294986Y-137909003D01*
X97438247Y-137865546D01*
X97570276Y-137794974D01*
X97686001Y-137700001D01*
X97709803Y-137670998D01*
X98159511Y-137221291D01*
X98220744Y-137262205D01*
X98409102Y-137340226D01*
X98609061Y-137380000D01*
X98812939Y-137380000D01*
X99012898Y-137340226D01*
X99201256Y-137262205D01*
X99363307Y-137153926D01*
X99365000Y-137382250D01*
G37*
X99365000Y-137382250D02*
X99523750Y-137541000D01*
X100448000Y-137541000D01*
X100448000Y-137521000D01*
X100702000Y-137521000D01*
X100702000Y-137541000D01*
X100722000Y-137541000D01*
X100722000Y-137795000D01*
X100702000Y-137795000D01*
X100702000Y-137815000D01*
X100448000Y-137815000D01*
X100448000Y-137795000D01*
X99523750Y-137795000D01*
X99385740Y-137933010D01*
X98633313Y-137933010D01*
X98595990Y-137929334D01*
X98558667Y-137933010D01*
X98558657Y-137933010D01*
X98447004Y-137944007D01*
X98333446Y-137978454D01*
X98303743Y-137987464D01*
X98171713Y-138058036D01*
X98098646Y-138118001D01*
X98055989Y-138153009D01*
X98032191Y-138182008D01*
X97332064Y-138882134D01*
X97282745Y-138886992D01*
X97116149Y-138937528D01*
X96962613Y-139019595D01*
X96828038Y-139130038D01*
X96807362Y-139155232D01*
X96788001Y-139153325D01*
X96750679Y-139157001D01*
X95793352Y-139157001D01*
X95864226Y-138985898D01*
X95904000Y-138785939D01*
X95904000Y-138582061D01*
X95864226Y-138382102D01*
X95786205Y-138193744D01*
X95672937Y-138024226D01*
X95600087Y-137951376D01*
X95600166Y-137920000D01*
X97108678Y-137920000D01*
X97146000Y-137923676D01*
X97183322Y-137920000D01*
X97183333Y-137920000D01*
X97294986Y-137909003D01*
X97438247Y-137865546D01*
X97570276Y-137794974D01*
X97686001Y-137700001D01*
X97709803Y-137670998D01*
X98159511Y-137221291D01*
X98220744Y-137262205D01*
X98409102Y-137340226D01*
X98609061Y-137380000D01*
X98812939Y-137380000D01*
X99012898Y-137340226D01*
X99201256Y-137262205D01*
X99363307Y-137153926D01*
X99365000Y-137382250D01*
G36*
X95840313Y-129920973D02*
G01*
X95972342Y-129991545D01*
X96115603Y-130035002D01*
X96227256Y-130045999D01*
X96227264Y-130045999D01*
X96264589Y-130049675D01*
X96301914Y-130045999D01*
X99497853Y-130045999D01*
X99647121Y-130052245D01*
X99647127Y-130052246D01*
X99667610Y-130053102D01*
X99721703Y-130055366D01*
X99721720Y-130055365D01*
X100019604Y-130067821D01*
X100056739Y-130073053D01*
X100094190Y-130070940D01*
X100094202Y-130070940D01*
X100177270Y-130066251D01*
X100206207Y-130064618D01*
X100206209Y-130064617D01*
X100206217Y-130064617D01*
X100206316Y-130064591D01*
X100224221Y-130064912D01*
X100261466Y-130069257D01*
X100298863Y-130066251D01*
X100298881Y-130066251D01*
X100349244Y-130062201D01*
X100410690Y-130057261D01*
X100410701Y-130057258D01*
X100410713Y-130057257D01*
X100410845Y-130057220D01*
X100428729Y-130057113D01*
X100466062Y-130060568D01*
X100503388Y-130056669D01*
X100503410Y-130056669D01*
X100548940Y-130051911D01*
X100605539Y-130045999D01*
X103945990Y-130045999D01*
X103945991Y-137065343D01*
X103930382Y-137062238D01*
X103822731Y-137062238D01*
X103821008Y-137044745D01*
X103770472Y-136878149D01*
X103688405Y-136724613D01*
X103628813Y-136652000D01*
X103688405Y-136579387D01*
X103770472Y-136425851D01*
X103821008Y-136259255D01*
X103838072Y-136086001D01*
X103838072Y-135185999D01*
X103821008Y-135012745D01*
X103770472Y-134846149D01*
X103688405Y-134692613D01*
X103577962Y-134558038D01*
X103443387Y-134447595D01*
X103391077Y-134419634D01*
X103419937Y-134390774D01*
X103533205Y-134221256D01*
X103611226Y-134032898D01*
X103651000Y-133832939D01*
X103651000Y-133629061D01*
X103611226Y-133429102D01*
X103533205Y-133240744D01*
X103419937Y-133071226D01*
X103275774Y-132927063D01*
X103106256Y-132813795D01*
X102917898Y-132735774D01*
X102717939Y-132696000D01*
X102514061Y-132696000D01*
X102314102Y-132735774D01*
X102125744Y-132813795D01*
X101956226Y-132927063D01*
X101812063Y-133071226D01*
X101698795Y-133240744D01*
X101620774Y-133429102D01*
X101581000Y-133629061D01*
X101581000Y-133832939D01*
X101620774Y-134032898D01*
X101698795Y-134221256D01*
X101812063Y-134390774D01*
X101847193Y-134425904D01*
X101806613Y-134447595D01*
X101672038Y-134558038D01*
X101600000Y-134645816D01*
X101527962Y-134558038D01*
X101393387Y-134447595D01*
X101239851Y-134365528D01*
X101073255Y-134314992D01*
X100900001Y-134297928D01*
X100249999Y-134297928D01*
X100076745Y-134314992D01*
X99910149Y-134365528D01*
X99756613Y-134447595D01*
X99714000Y-134482567D01*
X99714000Y-134353059D01*
X99674226Y-134153100D01*
X99596205Y-133964742D01*
X99554616Y-133902499D01*
X99596205Y-133840256D01*
X99674226Y-133651898D01*
X99714000Y-133451939D01*
X99714000Y-133248061D01*
X99674226Y-133048102D01*
X99596205Y-132859744D01*
X99482937Y-132690226D01*
X99338774Y-132546063D01*
X99169256Y-132432795D01*
X98980898Y-132354774D01*
X98780939Y-132315000D01*
X98577061Y-132315000D01*
X98377102Y-132354774D01*
X98188744Y-132432795D01*
X98019226Y-132546063D01*
X97975289Y-132590000D01*
X97342802Y-132590000D01*
X95051989Y-130299188D01*
X95051989Y-130194000D01*
X95224939Y-130194000D01*
X95424898Y-130154226D01*
X95613256Y-130076205D01*
X95782774Y-129962937D01*
X95826711Y-129919000D01*
X95837909Y-129919000D01*
X95840313Y-129920973D01*
G37*
X95840313Y-129920973D02*
X95972342Y-129991545D01*
X96115603Y-130035002D01*
X96227256Y-130045999D01*
X96227264Y-130045999D01*
X96264589Y-130049675D01*
X96301914Y-130045999D01*
X99497853Y-130045999D01*
X99647121Y-130052245D01*
X99647127Y-130052246D01*
X99667610Y-130053102D01*
X99721703Y-130055366D01*
X99721720Y-130055365D01*
X100019604Y-130067821D01*
X100056739Y-130073053D01*
X100094190Y-130070940D01*
X100094202Y-130070940D01*
X100177270Y-130066251D01*
X100206207Y-130064618D01*
X100206209Y-130064617D01*
X100206217Y-130064617D01*
X100206316Y-130064591D01*
X100224221Y-130064912D01*
X100261466Y-130069257D01*
X100298863Y-130066251D01*
X100298881Y-130066251D01*
X100349244Y-130062201D01*
X100410690Y-130057261D01*
X100410701Y-130057258D01*
X100410713Y-130057257D01*
X100410845Y-130057220D01*
X100428729Y-130057113D01*
X100466062Y-130060568D01*
X100503388Y-130056669D01*
X100503410Y-130056669D01*
X100548940Y-130051911D01*
X100605539Y-130045999D01*
X103945990Y-130045999D01*
X103945991Y-137065343D01*
X103930382Y-137062238D01*
X103822731Y-137062238D01*
X103821008Y-137044745D01*
X103770472Y-136878149D01*
X103688405Y-136724613D01*
X103628813Y-136652000D01*
X103688405Y-136579387D01*
X103770472Y-136425851D01*
X103821008Y-136259255D01*
X103838072Y-136086001D01*
X103838072Y-135185999D01*
X103821008Y-135012745D01*
X103770472Y-134846149D01*
X103688405Y-134692613D01*
X103577962Y-134558038D01*
X103443387Y-134447595D01*
X103391077Y-134419634D01*
X103419937Y-134390774D01*
X103533205Y-134221256D01*
X103611226Y-134032898D01*
X103651000Y-133832939D01*
X103651000Y-133629061D01*
X103611226Y-133429102D01*
X103533205Y-133240744D01*
X103419937Y-133071226D01*
X103275774Y-132927063D01*
X103106256Y-132813795D01*
X102917898Y-132735774D01*
X102717939Y-132696000D01*
X102514061Y-132696000D01*
X102314102Y-132735774D01*
X102125744Y-132813795D01*
X101956226Y-132927063D01*
X101812063Y-133071226D01*
X101698795Y-133240744D01*
X101620774Y-133429102D01*
X101581000Y-133629061D01*
X101581000Y-133832939D01*
X101620774Y-134032898D01*
X101698795Y-134221256D01*
X101812063Y-134390774D01*
X101847193Y-134425904D01*
X101806613Y-134447595D01*
X101672038Y-134558038D01*
X101600000Y-134645816D01*
X101527962Y-134558038D01*
X101393387Y-134447595D01*
X101239851Y-134365528D01*
X101073255Y-134314992D01*
X100900001Y-134297928D01*
X100249999Y-134297928D01*
X100076745Y-134314992D01*
X99910149Y-134365528D01*
X99756613Y-134447595D01*
X99714000Y-134482567D01*
X99714000Y-134353059D01*
X99674226Y-134153100D01*
X99596205Y-133964742D01*
X99554616Y-133902499D01*
X99596205Y-133840256D01*
X99674226Y-133651898D01*
X99714000Y-133451939D01*
X99714000Y-133248061D01*
X99674226Y-133048102D01*
X99596205Y-132859744D01*
X99482937Y-132690226D01*
X99338774Y-132546063D01*
X99169256Y-132432795D01*
X98980898Y-132354774D01*
X98780939Y-132315000D01*
X98577061Y-132315000D01*
X98377102Y-132354774D01*
X98188744Y-132432795D01*
X98019226Y-132546063D01*
X97975289Y-132590000D01*
X97342802Y-132590000D01*
X95051989Y-130299188D01*
X95051989Y-130194000D01*
X95224939Y-130194000D01*
X95424898Y-130154226D01*
X95613256Y-130076205D01*
X95782774Y-129962937D01*
X95826711Y-129919000D01*
X95837909Y-129919000D01*
X95840313Y-129920973D01*
G36*
X95008915Y-84403355D02*
G01*
X95032664Y-84422077D01*
X95055311Y-84442113D01*
X95069200Y-84452391D01*
X95919772Y-85064715D01*
X95954127Y-85085767D01*
X95987924Y-85107716D01*
X96003180Y-85115827D01*
X96934917Y-85595703D01*
X96971998Y-85611443D01*
X97008676Y-85628158D01*
X97024964Y-85633926D01*
X97195832Y-85691928D01*
X96699999Y-85691928D01*
X96526745Y-85708992D01*
X96360149Y-85759528D01*
X96206613Y-85841595D01*
X96095000Y-85933194D01*
X95983387Y-85841595D01*
X95829851Y-85759528D01*
X95663255Y-85708992D01*
X95490001Y-85691928D01*
X94589999Y-85691928D01*
X94416745Y-85708992D01*
X94250149Y-85759528D01*
X94096613Y-85841595D01*
X93962038Y-85952038D01*
X93851595Y-86086613D01*
X93772280Y-86235000D01*
X92397711Y-86235000D01*
X92353774Y-86191063D01*
X92184256Y-86077795D01*
X91995898Y-85999774D01*
X91795939Y-85960000D01*
X91592061Y-85960000D01*
X91392102Y-85999774D01*
X91203744Y-86077795D01*
X91034226Y-86191063D01*
X90890063Y-86335226D01*
X90776795Y-86504744D01*
X90698774Y-86693102D01*
X90659000Y-86893061D01*
X90659000Y-87096939D01*
X90698774Y-87296898D01*
X90776795Y-87485256D01*
X90890063Y-87654774D01*
X91034226Y-87798937D01*
X91203744Y-87912205D01*
X91392102Y-87990226D01*
X91592061Y-88030000D01*
X91795939Y-88030000D01*
X91995898Y-87990226D01*
X92184256Y-87912205D01*
X92353774Y-87798937D01*
X92397711Y-87755000D01*
X93877539Y-87755000D01*
X93962038Y-87857962D01*
X93968594Y-87863342D01*
X93888815Y-87928815D01*
X93809463Y-88025506D01*
X93750498Y-88135820D01*
X93714188Y-88255518D01*
X93701928Y-88380000D01*
X93705000Y-88669250D01*
X93863750Y-88828000D01*
X94913000Y-88828000D01*
X94913000Y-88808000D01*
X95167000Y-88808000D01*
X95167000Y-88828000D01*
X95187000Y-88828000D01*
X95187000Y-89082000D01*
X95167000Y-89082000D01*
X95167000Y-89102000D01*
X94913000Y-89102000D01*
X94913000Y-89082000D01*
X93863750Y-89082000D01*
X93705000Y-89240750D01*
X93701928Y-89530000D01*
X93714188Y-89654482D01*
X93750498Y-89774180D01*
X93759489Y-89791000D01*
X92366323Y-89791000D01*
X92329000Y-89787324D01*
X92291677Y-89791000D01*
X92291667Y-89791000D01*
X92180014Y-89801997D01*
X92036753Y-89845454D01*
X91904723Y-89916026D01*
X91895056Y-89923960D01*
X90908995Y-89924000D01*
X90882363Y-89926825D01*
X90858649Y-89934408D01*
X90836871Y-89946471D01*
X90817864Y-89962551D01*
X90802360Y-89982030D01*
X90790953Y-90004160D01*
X90784084Y-90028090D01*
X90782014Y-90052900D01*
X90968998Y-102549696D01*
X90968998Y-113211680D01*
X90965322Y-113249002D01*
X90968998Y-113286324D01*
X90968998Y-113286334D01*
X90979995Y-113397987D01*
X91007907Y-113490001D01*
X91023452Y-113541248D01*
X91094024Y-113673278D01*
X91132347Y-113719974D01*
X91188997Y-113789003D01*
X91218001Y-113812806D01*
X91871996Y-114466802D01*
X91871996Y-114528939D01*
X91911770Y-114728898D01*
X91989791Y-114917256D01*
X92103059Y-115086774D01*
X92247222Y-115230937D01*
X92416740Y-115344205D01*
X92605098Y-115422226D01*
X92805057Y-115462000D01*
X93008935Y-115462000D01*
X93208894Y-115422226D01*
X93397252Y-115344205D01*
X93566770Y-115230937D01*
X93610707Y-115187000D01*
X95632931Y-115187000D01*
X94776273Y-115870162D01*
X93995534Y-116711598D01*
X93348925Y-117660000D01*
X92850890Y-118694181D01*
X92512554Y-119791039D01*
X92341475Y-120926073D01*
X92341475Y-122073927D01*
X92512554Y-123208961D01*
X92628216Y-123583928D01*
X90160000Y-123583928D01*
X90160000Y-85532279D01*
X90188625Y-85240341D01*
X90264035Y-84990571D01*
X90386522Y-84760208D01*
X90551422Y-84558020D01*
X90752450Y-84391714D01*
X90981954Y-84267622D01*
X91231195Y-84190469D01*
X91521088Y-84160000D01*
X94743340Y-84160000D01*
X95008915Y-84403355D01*
G37*
X95008915Y-84403355D02*
X95032664Y-84422077D01*
X95055311Y-84442113D01*
X95069200Y-84452391D01*
X95919772Y-85064715D01*
X95954127Y-85085767D01*
X95987924Y-85107716D01*
X96003180Y-85115827D01*
X96934917Y-85595703D01*
X96971998Y-85611443D01*
X97008676Y-85628158D01*
X97024964Y-85633926D01*
X97195832Y-85691928D01*
X96699999Y-85691928D01*
X96526745Y-85708992D01*
X96360149Y-85759528D01*
X96206613Y-85841595D01*
X96095000Y-85933194D01*
X95983387Y-85841595D01*
X95829851Y-85759528D01*
X95663255Y-85708992D01*
X95490001Y-85691928D01*
X94589999Y-85691928D01*
X94416745Y-85708992D01*
X94250149Y-85759528D01*
X94096613Y-85841595D01*
X93962038Y-85952038D01*
X93851595Y-86086613D01*
X93772280Y-86235000D01*
X92397711Y-86235000D01*
X92353774Y-86191063D01*
X92184256Y-86077795D01*
X91995898Y-85999774D01*
X91795939Y-85960000D01*
X91592061Y-85960000D01*
X91392102Y-85999774D01*
X91203744Y-86077795D01*
X91034226Y-86191063D01*
X90890063Y-86335226D01*
X90776795Y-86504744D01*
X90698774Y-86693102D01*
X90659000Y-86893061D01*
X90659000Y-87096939D01*
X90698774Y-87296898D01*
X90776795Y-87485256D01*
X90890063Y-87654774D01*
X91034226Y-87798937D01*
X91203744Y-87912205D01*
X91392102Y-87990226D01*
X91592061Y-88030000D01*
X91795939Y-88030000D01*
X91995898Y-87990226D01*
X92184256Y-87912205D01*
X92353774Y-87798937D01*
X92397711Y-87755000D01*
X93877539Y-87755000D01*
X93962038Y-87857962D01*
X93968594Y-87863342D01*
X93888815Y-87928815D01*
X93809463Y-88025506D01*
X93750498Y-88135820D01*
X93714188Y-88255518D01*
X93701928Y-88380000D01*
X93705000Y-88669250D01*
X93863750Y-88828000D01*
X94913000Y-88828000D01*
X94913000Y-88808000D01*
X95167000Y-88808000D01*
X95167000Y-88828000D01*
X95187000Y-88828000D01*
X95187000Y-89082000D01*
X95167000Y-89082000D01*
X95167000Y-89102000D01*
X94913000Y-89102000D01*
X94913000Y-89082000D01*
X93863750Y-89082000D01*
X93705000Y-89240750D01*
X93701928Y-89530000D01*
X93714188Y-89654482D01*
X93750498Y-89774180D01*
X93759489Y-89791000D01*
X92366323Y-89791000D01*
X92329000Y-89787324D01*
X92291677Y-89791000D01*
X92291667Y-89791000D01*
X92180014Y-89801997D01*
X92036753Y-89845454D01*
X91904723Y-89916026D01*
X91895056Y-89923960D01*
X90908995Y-89924000D01*
X90882363Y-89926825D01*
X90858649Y-89934408D01*
X90836871Y-89946471D01*
X90817864Y-89962551D01*
X90802360Y-89982030D01*
X90790953Y-90004160D01*
X90784084Y-90028090D01*
X90782014Y-90052900D01*
X90968998Y-102549696D01*
X90968998Y-113211680D01*
X90965322Y-113249002D01*
X90968998Y-113286324D01*
X90968998Y-113286334D01*
X90979995Y-113397987D01*
X91007907Y-113490001D01*
X91023452Y-113541248D01*
X91094024Y-113673278D01*
X91132347Y-113719974D01*
X91188997Y-113789003D01*
X91218001Y-113812806D01*
X91871996Y-114466802D01*
X91871996Y-114528939D01*
X91911770Y-114728898D01*
X91989791Y-114917256D01*
X92103059Y-115086774D01*
X92247222Y-115230937D01*
X92416740Y-115344205D01*
X92605098Y-115422226D01*
X92805057Y-115462000D01*
X93008935Y-115462000D01*
X93208894Y-115422226D01*
X93397252Y-115344205D01*
X93566770Y-115230937D01*
X93610707Y-115187000D01*
X95632931Y-115187000D01*
X94776273Y-115870162D01*
X93995534Y-116711598D01*
X93348925Y-117660000D01*
X92850890Y-118694181D01*
X92512554Y-119791039D01*
X92341475Y-120926073D01*
X92341475Y-122073927D01*
X92512554Y-123208961D01*
X92628216Y-123583928D01*
X90160000Y-123583928D01*
X90160000Y-85532279D01*
X90188625Y-85240341D01*
X90264035Y-84990571D01*
X90386522Y-84760208D01*
X90551422Y-84558020D01*
X90752450Y-84391714D01*
X90981954Y-84267622D01*
X91231195Y-84190469D01*
X91521088Y-84160000D01*
X94743340Y-84160000D01*
X95008915Y-84403355D01*
G36*
X95067000Y-112988000D02*
G01*
X95087000Y-112988000D01*
X95087000Y-113242000D01*
X95067000Y-113242000D01*
X95067000Y-113262000D01*
X94813000Y-113262000D01*
X94813000Y-113242000D01*
X94793000Y-113242000D01*
X94793000Y-112988000D01*
X94813000Y-112988000D01*
X94813000Y-112968000D01*
X95067000Y-112968000D01*
X95067000Y-112988000D01*
G37*
X95067000Y-112988000D02*
X95087000Y-112988000D01*
X95087000Y-113242000D01*
X95067000Y-113242000D01*
X95067000Y-113262000D01*
X94813000Y-113262000D01*
X94813000Y-113242000D01*
X94793000Y-113242000D01*
X94793000Y-112988000D01*
X94813000Y-112988000D01*
X94813000Y-112968000D01*
X95067000Y-112968000D01*
X95067000Y-112988000D01*
G36*
X101564666Y-110333941D02*
G01*
X101564188Y-110335518D01*
X101551928Y-110460000D01*
X101555000Y-110749250D01*
X101713748Y-110907998D01*
X101555000Y-110907998D01*
X101555000Y-110963032D01*
X101385750Y-110965000D01*
X101227000Y-111123750D01*
X101227000Y-111873000D01*
X101247000Y-111873000D01*
X101247000Y-112127000D01*
X101227000Y-112127000D01*
X101227000Y-112147000D01*
X100973000Y-112147000D01*
X100973000Y-112127000D01*
X100073750Y-112127000D01*
X100010750Y-112190000D01*
X99976018Y-112190000D01*
X99901185Y-112098815D01*
X99804494Y-112019463D01*
X99768082Y-112000000D01*
X99804494Y-111980537D01*
X99901185Y-111901185D01*
X99980537Y-111804494D01*
X99989143Y-111788393D01*
X100073750Y-111873000D01*
X100973000Y-111873000D01*
X100973000Y-111123750D01*
X100814250Y-110965000D01*
X100550000Y-110961928D01*
X100425518Y-110974188D01*
X100305820Y-111010498D01*
X100195506Y-111069463D01*
X100098815Y-111148815D01*
X100088072Y-111161905D01*
X100088072Y-110650000D01*
X100075812Y-110525518D01*
X100039502Y-110405820D01*
X99992485Y-110317858D01*
X101564666Y-110333941D01*
G37*
X101564666Y-110333941D02*
X101564188Y-110335518D01*
X101551928Y-110460000D01*
X101555000Y-110749250D01*
X101713748Y-110907998D01*
X101555000Y-110907998D01*
X101555000Y-110963032D01*
X101385750Y-110965000D01*
X101227000Y-111123750D01*
X101227000Y-111873000D01*
X101247000Y-111873000D01*
X101247000Y-112127000D01*
X101227000Y-112127000D01*
X101227000Y-112147000D01*
X100973000Y-112147000D01*
X100973000Y-112127000D01*
X100073750Y-112127000D01*
X100010750Y-112190000D01*
X99976018Y-112190000D01*
X99901185Y-112098815D01*
X99804494Y-112019463D01*
X99768082Y-112000000D01*
X99804494Y-111980537D01*
X99901185Y-111901185D01*
X99980537Y-111804494D01*
X99989143Y-111788393D01*
X100073750Y-111873000D01*
X100973000Y-111873000D01*
X100973000Y-111123750D01*
X100814250Y-110965000D01*
X100550000Y-110961928D01*
X100425518Y-110974188D01*
X100305820Y-111010498D01*
X100195506Y-111069463D01*
X100098815Y-111148815D01*
X100088072Y-111161905D01*
X100088072Y-110650000D01*
X100075812Y-110525518D01*
X100039502Y-110405820D01*
X99992485Y-110317858D01*
X101564666Y-110333941D01*
G36*
X108759659Y-84188625D02*
G01*
X109009429Y-84264035D01*
X109239792Y-84386522D01*
X109441980Y-84551422D01*
X109608286Y-84752450D01*
X109732378Y-84981954D01*
X109809531Y-85231195D01*
X109840001Y-85521098D01*
X109840000Y-89923232D01*
X103882506Y-89923473D01*
X103937962Y-89877962D01*
X104048405Y-89743387D01*
X104130472Y-89589851D01*
X104181008Y-89423255D01*
X104198072Y-89250001D01*
X104198072Y-88599999D01*
X104181008Y-88426745D01*
X104130472Y-88260149D01*
X104048405Y-88106613D01*
X103937962Y-87972038D01*
X103931406Y-87966658D01*
X104011185Y-87901185D01*
X104090537Y-87804494D01*
X104149502Y-87694180D01*
X104185812Y-87574482D01*
X104198072Y-87450000D01*
X104195000Y-87160750D01*
X104036250Y-87002000D01*
X102987000Y-87002000D01*
X102987000Y-87022000D01*
X102733000Y-87022000D01*
X102733000Y-87002000D01*
X101866166Y-87002000D01*
X101774482Y-86974188D01*
X101650000Y-86961928D01*
X101385750Y-86965000D01*
X101227000Y-87123750D01*
X101227000Y-87873000D01*
X101247000Y-87873000D01*
X101247000Y-88127000D01*
X101227000Y-88127000D01*
X101227000Y-88147000D01*
X100973000Y-88147000D01*
X100973000Y-88127000D01*
X100073750Y-88127000D01*
X100010750Y-88190000D01*
X99976018Y-88190000D01*
X99901185Y-88098815D01*
X99804494Y-88019463D01*
X99768082Y-88000000D01*
X99804494Y-87980537D01*
X99901185Y-87901185D01*
X99980537Y-87804494D01*
X99989143Y-87788393D01*
X100073750Y-87873000D01*
X100973000Y-87873000D01*
X100973000Y-87123750D01*
X100814250Y-86965000D01*
X100550000Y-86961928D01*
X100425518Y-86974188D01*
X100305820Y-87010498D01*
X100195506Y-87069463D01*
X100098815Y-87148815D01*
X100088072Y-87161905D01*
X100088072Y-86650000D01*
X100075812Y-86525518D01*
X100039502Y-86405820D01*
X99980537Y-86295506D01*
X99912455Y-86212547D01*
X100288281Y-86224030D01*
X100328545Y-86222272D01*
X100368827Y-86221569D01*
X100386011Y-86219763D01*
X101426798Y-86096577D01*
X101466346Y-86088890D01*
X101506095Y-86082238D01*
X101522823Y-86077912D01*
X101567491Y-86065734D01*
X101534188Y-86175518D01*
X101521928Y-86300000D01*
X101525000Y-86589250D01*
X101683750Y-86748000D01*
X102733000Y-86748000D01*
X102733000Y-86728000D01*
X102987000Y-86728000D01*
X102987000Y-86748000D01*
X104036250Y-86748000D01*
X104195000Y-86589250D01*
X104198072Y-86300000D01*
X104185812Y-86175518D01*
X104149502Y-86055820D01*
X104090537Y-85945506D01*
X104011185Y-85848815D01*
X103914494Y-85769463D01*
X103804180Y-85710498D01*
X103684482Y-85674188D01*
X103560000Y-85661928D01*
X103145750Y-85665000D01*
X102987002Y-85823748D01*
X102987002Y-85665000D01*
X102863875Y-85665000D01*
X103585478Y-85347488D01*
X103621063Y-85328567D01*
X103657118Y-85310590D01*
X103671851Y-85301562D01*
X104558217Y-84742307D01*
X104590609Y-84718338D01*
X104623617Y-84695226D01*
X104636853Y-84684119D01*
X105245124Y-84160000D01*
X108467721Y-84160000D01*
X108759659Y-84188625D01*
G37*
X108759659Y-84188625D02*
X109009429Y-84264035D01*
X109239792Y-84386522D01*
X109441980Y-84551422D01*
X109608286Y-84752450D01*
X109732378Y-84981954D01*
X109809531Y-85231195D01*
X109840001Y-85521098D01*
X109840000Y-89923232D01*
X103882506Y-89923473D01*
X103937962Y-89877962D01*
X104048405Y-89743387D01*
X104130472Y-89589851D01*
X104181008Y-89423255D01*
X104198072Y-89250001D01*
X104198072Y-88599999D01*
X104181008Y-88426745D01*
X104130472Y-88260149D01*
X104048405Y-88106613D01*
X103937962Y-87972038D01*
X103931406Y-87966658D01*
X104011185Y-87901185D01*
X104090537Y-87804494D01*
X104149502Y-87694180D01*
X104185812Y-87574482D01*
X104198072Y-87450000D01*
X104195000Y-87160750D01*
X104036250Y-87002000D01*
X102987000Y-87002000D01*
X102987000Y-87022000D01*
X102733000Y-87022000D01*
X102733000Y-87002000D01*
X101866166Y-87002000D01*
X101774482Y-86974188D01*
X101650000Y-86961928D01*
X101385750Y-86965000D01*
X101227000Y-87123750D01*
X101227000Y-87873000D01*
X101247000Y-87873000D01*
X101247000Y-88127000D01*
X101227000Y-88127000D01*
X101227000Y-88147000D01*
X100973000Y-88147000D01*
X100973000Y-88127000D01*
X100073750Y-88127000D01*
X100010750Y-88190000D01*
X99976018Y-88190000D01*
X99901185Y-88098815D01*
X99804494Y-88019463D01*
X99768082Y-88000000D01*
X99804494Y-87980537D01*
X99901185Y-87901185D01*
X99980537Y-87804494D01*
X99989143Y-87788393D01*
X100073750Y-87873000D01*
X100973000Y-87873000D01*
X100973000Y-87123750D01*
X100814250Y-86965000D01*
X100550000Y-86961928D01*
X100425518Y-86974188D01*
X100305820Y-87010498D01*
X100195506Y-87069463D01*
X100098815Y-87148815D01*
X100088072Y-87161905D01*
X100088072Y-86650000D01*
X100075812Y-86525518D01*
X100039502Y-86405820D01*
X99980537Y-86295506D01*
X99912455Y-86212547D01*
X100288281Y-86224030D01*
X100328545Y-86222272D01*
X100368827Y-86221569D01*
X100386011Y-86219763D01*
X101426798Y-86096577D01*
X101466346Y-86088890D01*
X101506095Y-86082238D01*
X101522823Y-86077912D01*
X101567491Y-86065734D01*
X101534188Y-86175518D01*
X101521928Y-86300000D01*
X101525000Y-86589250D01*
X101683750Y-86748000D01*
X102733000Y-86748000D01*
X102733000Y-86728000D01*
X102987000Y-86728000D01*
X102987000Y-86748000D01*
X104036250Y-86748000D01*
X104195000Y-86589250D01*
X104198072Y-86300000D01*
X104185812Y-86175518D01*
X104149502Y-86055820D01*
X104090537Y-85945506D01*
X104011185Y-85848815D01*
X103914494Y-85769463D01*
X103804180Y-85710498D01*
X103684482Y-85674188D01*
X103560000Y-85661928D01*
X103145750Y-85665000D01*
X102987002Y-85823748D01*
X102987002Y-85665000D01*
X102863875Y-85665000D01*
X103585478Y-85347488D01*
X103621063Y-85328567D01*
X103657118Y-85310590D01*
X103671851Y-85301562D01*
X104558217Y-84742307D01*
X104590609Y-84718338D01*
X104623617Y-84695226D01*
X104636853Y-84684119D01*
X105245124Y-84160000D01*
X108467721Y-84160000D01*
X108759659Y-84188625D01*
M02*
