M48
; DRILL file {KiCad (5.1.5)-3} date 04/08/20 23:30:16
; FORMAT={3:3/ absolute / metric / suppress leading zeros}
; #@! TF.CreationDate,2020-04-08T23:30:16+02:00
; #@! TF.GenerationSoftware,Kicad,Pcbnew,(5.1.5)-3
FMAT,2
METRIC,TZ
T1C0.400
T2C1.000
%
G90
G05
T1
X90805Y-114300
X91025Y-148209
X91149Y-138446
X91694Y-86995
X91804Y-137021
X91821Y-151511
X91868Y-144383
X91965Y-152680
X92710Y-113157
X92837Y-88900
X92907Y-114427
X92960Y-138271
X92964Y-116332
X92964Y-168275
X93000Y-147915
X93096Y-140594
X93980Y-141732
X94234Y-85217
X94869Y-138684
X94940Y-136017
X95123Y-129159
X95377Y-140716
X95504Y-127889
X95614Y-141861
X96414Y-153903
X96647Y-139065
X96774Y-136398
X96901Y-149606
X98171Y-153035
X98552Y-149733
X98679Y-133350
X98679Y-134455
X98711Y-136345
X99187Y-154686
X99568Y-131858
X99949Y-148100
X101832Y-147408
X102616Y-133731
X103828Y-138097
X104210Y-155650
X104267Y-151384
X105791Y-153924
X105918Y-137287
X106680Y-142113
X107315Y-87249
X107393Y-138815
X108204Y-112014
X108712Y-144272
T2
X108839Y-173355
T0
M30
