G04 #@! TF.GenerationSoftware,KiCad,Pcbnew,(5.1.5)-3*
G04 #@! TF.CreationDate,2020-04-21T12:57:46+02:00*
G04 #@! TF.ProjectId,RHS_3_Simple,5248535f-335f-4536-996d-706c652e6b69,rev?*
G04 #@! TF.SameCoordinates,Original*
G04 #@! TF.FileFunction,Soldermask,Bot*
G04 #@! TF.FilePolarity,Negative*
%FSLAX46Y46*%
G04 Gerber Fmt 4.6, Leading zero omitted, Abs format (unit mm)*
G04 Created by KiCad (PCBNEW (5.1.5)-3) date 2020-04-21 12:57:46*
%MOMM*%
%LPD*%
G04 APERTURE LIST*
%ADD10C,0.100000*%
G04 APERTURE END LIST*
D10*
G36*
X99601000Y-178313000D02*
G01*
X97999000Y-178313000D01*
X97999000Y-175687000D01*
X99601000Y-175687000D01*
X99601000Y-178313000D01*
G37*
G36*
X101651000Y-178313000D02*
G01*
X100349000Y-178313000D01*
X100349000Y-175687000D01*
X101651000Y-175687000D01*
X101651000Y-178313000D01*
G37*
G36*
X104001000Y-178313000D02*
G01*
X102399000Y-178313000D01*
X102399000Y-175687000D01*
X104001000Y-175687000D01*
X104001000Y-178313000D01*
G37*
G36*
X109145564Y-172344389D02*
G01*
X109336833Y-172423615D01*
X109336835Y-172423616D01*
X109508973Y-172538635D01*
X109655365Y-172685027D01*
X109770385Y-172857167D01*
X109849611Y-173048436D01*
X109890000Y-173251484D01*
X109890000Y-173458516D01*
X109849611Y-173661564D01*
X109770385Y-173852833D01*
X109770384Y-173852835D01*
X109655365Y-174024973D01*
X109508973Y-174171365D01*
X109336835Y-174286384D01*
X109336834Y-174286385D01*
X109336833Y-174286385D01*
X109145564Y-174365611D01*
X108942516Y-174406000D01*
X108735484Y-174406000D01*
X108532436Y-174365611D01*
X108341167Y-174286385D01*
X108341166Y-174286385D01*
X108341165Y-174286384D01*
X108169027Y-174171365D01*
X108022635Y-174024973D01*
X107907616Y-173852835D01*
X107907615Y-173852833D01*
X107828389Y-173661564D01*
X107788000Y-173458516D01*
X107788000Y-173251484D01*
X107828389Y-173048436D01*
X107907615Y-172857167D01*
X108022635Y-172685027D01*
X108169027Y-172538635D01*
X108341165Y-172423616D01*
X108341167Y-172423615D01*
X108532436Y-172344389D01*
X108735484Y-172304000D01*
X108942516Y-172304000D01*
X109145564Y-172344389D01*
G37*
G36*
X99651000Y-159313000D02*
G01*
X98349000Y-159313000D01*
X98349000Y-156687000D01*
X99651000Y-156687000D01*
X99651000Y-159313000D01*
G37*
G36*
X93651000Y-159313000D02*
G01*
X92349000Y-159313000D01*
X92349000Y-156687000D01*
X93651000Y-156687000D01*
X93651000Y-159313000D01*
G37*
G36*
X95651000Y-159313000D02*
G01*
X94349000Y-159313000D01*
X94349000Y-156687000D01*
X95651000Y-156687000D01*
X95651000Y-159313000D01*
G37*
G36*
X97651000Y-159313000D02*
G01*
X96349000Y-159313000D01*
X96349000Y-156687000D01*
X97651000Y-156687000D01*
X97651000Y-159313000D01*
G37*
G36*
X101651000Y-159313000D02*
G01*
X100349000Y-159313000D01*
X100349000Y-156687000D01*
X101651000Y-156687000D01*
X101651000Y-159313000D01*
G37*
G36*
X103651000Y-159313000D02*
G01*
X102349000Y-159313000D01*
X102349000Y-156687000D01*
X103651000Y-156687000D01*
X103651000Y-159313000D01*
G37*
G36*
X105651000Y-159313000D02*
G01*
X104349000Y-159313000D01*
X104349000Y-156687000D01*
X105651000Y-156687000D01*
X105651000Y-159313000D01*
G37*
G36*
X107651000Y-159313000D02*
G01*
X106349000Y-159313000D01*
X106349000Y-156687000D01*
X107651000Y-156687000D01*
X107651000Y-159313000D01*
G37*
G36*
X93438674Y-154253465D02*
G01*
X93476367Y-154264899D01*
X93511103Y-154283466D01*
X93541548Y-154308452D01*
X93566534Y-154338897D01*
X93585101Y-154373633D01*
X93596535Y-154411326D01*
X93601000Y-154456661D01*
X93601000Y-155543339D01*
X93596535Y-155588674D01*
X93585101Y-155626367D01*
X93566534Y-155661103D01*
X93541548Y-155691548D01*
X93511103Y-155716534D01*
X93476367Y-155735101D01*
X93438674Y-155746535D01*
X93393339Y-155751000D01*
X92556661Y-155751000D01*
X92511326Y-155746535D01*
X92473633Y-155735101D01*
X92438897Y-155716534D01*
X92408452Y-155691548D01*
X92383466Y-155661103D01*
X92364899Y-155626367D01*
X92353465Y-155588674D01*
X92349000Y-155543339D01*
X92349000Y-154456661D01*
X92353465Y-154411326D01*
X92364899Y-154373633D01*
X92383466Y-154338897D01*
X92408452Y-154308452D01*
X92438897Y-154283466D01*
X92473633Y-154264899D01*
X92511326Y-154253465D01*
X92556661Y-154249000D01*
X93393339Y-154249000D01*
X93438674Y-154253465D01*
G37*
G36*
X95488674Y-154253465D02*
G01*
X95526367Y-154264899D01*
X95561103Y-154283466D01*
X95591548Y-154308452D01*
X95616534Y-154338897D01*
X95635101Y-154373633D01*
X95646535Y-154411326D01*
X95651000Y-154456661D01*
X95651000Y-155543339D01*
X95646535Y-155588674D01*
X95635101Y-155626367D01*
X95616534Y-155661103D01*
X95591548Y-155691548D01*
X95561103Y-155716534D01*
X95526367Y-155735101D01*
X95488674Y-155746535D01*
X95443339Y-155751000D01*
X94606661Y-155751000D01*
X94561326Y-155746535D01*
X94523633Y-155735101D01*
X94488897Y-155716534D01*
X94458452Y-155691548D01*
X94433466Y-155661103D01*
X94414899Y-155626367D01*
X94403465Y-155588674D01*
X94399000Y-155543339D01*
X94399000Y-154456661D01*
X94403465Y-154411326D01*
X94414899Y-154373633D01*
X94433466Y-154338897D01*
X94458452Y-154308452D01*
X94488897Y-154283466D01*
X94523633Y-154264899D01*
X94561326Y-154253465D01*
X94606661Y-154249000D01*
X95443339Y-154249000D01*
X95488674Y-154253465D01*
G37*
G36*
X109046674Y-152295465D02*
G01*
X109084367Y-152306899D01*
X109119103Y-152325466D01*
X109149548Y-152350452D01*
X109174534Y-152380897D01*
X109193101Y-152415633D01*
X109204535Y-152453326D01*
X109209000Y-152498661D01*
X109209000Y-153335339D01*
X109204535Y-153380674D01*
X109193101Y-153418367D01*
X109174534Y-153453103D01*
X109149548Y-153483548D01*
X109119103Y-153508534D01*
X109084367Y-153527101D01*
X109046674Y-153538535D01*
X109001339Y-153543000D01*
X107914661Y-153543000D01*
X107869326Y-153538535D01*
X107831633Y-153527101D01*
X107796897Y-153508534D01*
X107766452Y-153483548D01*
X107741466Y-153453103D01*
X107722899Y-153418367D01*
X107711465Y-153380674D01*
X107707000Y-153335339D01*
X107707000Y-152498661D01*
X107711465Y-152453326D01*
X107722899Y-152415633D01*
X107741466Y-152380897D01*
X107766452Y-152350452D01*
X107796897Y-152325466D01*
X107831633Y-152306899D01*
X107869326Y-152295465D01*
X107914661Y-152291000D01*
X109001339Y-152291000D01*
X109046674Y-152295465D01*
G37*
G36*
X102626000Y-152191000D02*
G01*
X96374000Y-152191000D01*
X96374000Y-150489000D01*
X102626000Y-150489000D01*
X102626000Y-152191000D01*
G37*
G36*
X109046674Y-150245465D02*
G01*
X109084367Y-150256899D01*
X109119103Y-150275466D01*
X109149548Y-150300452D01*
X109174534Y-150330897D01*
X109193101Y-150365633D01*
X109204535Y-150403326D01*
X109209000Y-150448661D01*
X109209000Y-151285339D01*
X109204535Y-151330674D01*
X109193101Y-151368367D01*
X109174534Y-151403103D01*
X109149548Y-151433548D01*
X109119103Y-151458534D01*
X109084367Y-151477101D01*
X109046674Y-151488535D01*
X109001339Y-151493000D01*
X107914661Y-151493000D01*
X107869326Y-151488535D01*
X107831633Y-151477101D01*
X107796897Y-151458534D01*
X107766452Y-151433548D01*
X107741466Y-151403103D01*
X107722899Y-151368367D01*
X107711465Y-151330674D01*
X107707000Y-151285339D01*
X107707000Y-150448661D01*
X107711465Y-150403326D01*
X107722899Y-150365633D01*
X107741466Y-150330897D01*
X107766452Y-150300452D01*
X107796897Y-150275466D01*
X107831633Y-150256899D01*
X107869326Y-150245465D01*
X107914661Y-150241000D01*
X109001339Y-150241000D01*
X109046674Y-150245465D01*
G37*
G36*
X107250000Y-151407000D02*
G01*
X105348000Y-151407000D01*
X105348000Y-150305000D01*
X107250000Y-150305000D01*
X107250000Y-151407000D01*
G37*
G36*
X96101000Y-150216000D02*
G01*
X94399000Y-150216000D01*
X94399000Y-143964000D01*
X96101000Y-143964000D01*
X96101000Y-150216000D01*
G37*
G36*
X104601000Y-150216000D02*
G01*
X102899000Y-150216000D01*
X102899000Y-143964000D01*
X104601000Y-143964000D01*
X104601000Y-150216000D01*
G37*
G36*
X109046674Y-147723465D02*
G01*
X109084367Y-147734899D01*
X109119103Y-147753466D01*
X109149548Y-147778452D01*
X109174534Y-147808897D01*
X109193101Y-147843633D01*
X109204535Y-147881326D01*
X109209000Y-147926661D01*
X109209000Y-148763339D01*
X109204535Y-148808674D01*
X109193101Y-148846367D01*
X109174534Y-148881103D01*
X109149548Y-148911548D01*
X109119103Y-148936534D01*
X109084367Y-148955101D01*
X109046674Y-148966535D01*
X109001339Y-148971000D01*
X107914661Y-148971000D01*
X107869326Y-148966535D01*
X107831633Y-148955101D01*
X107796897Y-148936534D01*
X107766452Y-148911548D01*
X107741466Y-148881103D01*
X107722899Y-148846367D01*
X107711465Y-148808674D01*
X107707000Y-148763339D01*
X107707000Y-147926661D01*
X107711465Y-147881326D01*
X107722899Y-147843633D01*
X107741466Y-147808897D01*
X107766452Y-147778452D01*
X107796897Y-147753466D01*
X107831633Y-147734899D01*
X107869326Y-147723465D01*
X107914661Y-147719000D01*
X109001339Y-147719000D01*
X109046674Y-147723465D01*
G37*
G36*
X107250000Y-148907000D02*
G01*
X105348000Y-148907000D01*
X105348000Y-147805000D01*
X107250000Y-147805000D01*
X107250000Y-148907000D01*
G37*
G36*
X93588674Y-147293465D02*
G01*
X93626367Y-147304899D01*
X93661103Y-147323466D01*
X93691548Y-147348452D01*
X93716534Y-147378897D01*
X93735101Y-147413633D01*
X93746535Y-147451326D01*
X93751000Y-147496661D01*
X93751000Y-148333339D01*
X93746535Y-148378674D01*
X93735101Y-148416367D01*
X93716534Y-148451103D01*
X93691548Y-148481548D01*
X93661103Y-148506534D01*
X93626367Y-148525101D01*
X93588674Y-148536535D01*
X93543339Y-148541000D01*
X92456661Y-148541000D01*
X92411326Y-148536535D01*
X92373633Y-148525101D01*
X92338897Y-148506534D01*
X92308452Y-148481548D01*
X92283466Y-148451103D01*
X92264899Y-148416367D01*
X92253465Y-148378674D01*
X92249000Y-148333339D01*
X92249000Y-147496661D01*
X92253465Y-147451326D01*
X92264899Y-147413633D01*
X92283466Y-147378897D01*
X92308452Y-147348452D01*
X92338897Y-147323466D01*
X92373633Y-147304899D01*
X92411326Y-147293465D01*
X92456661Y-147289000D01*
X93543339Y-147289000D01*
X93588674Y-147293465D01*
G37*
G36*
X107088674Y-145923465D02*
G01*
X107126367Y-145934899D01*
X107161103Y-145953466D01*
X107191548Y-145978452D01*
X107216534Y-146008897D01*
X107235101Y-146043633D01*
X107246535Y-146081326D01*
X107251000Y-146126661D01*
X107251000Y-146963339D01*
X107246535Y-147008674D01*
X107235101Y-147046367D01*
X107216534Y-147081103D01*
X107191548Y-147111548D01*
X107161103Y-147136534D01*
X107126367Y-147155101D01*
X107088674Y-147166535D01*
X107043339Y-147171000D01*
X105956661Y-147171000D01*
X105911326Y-147166535D01*
X105873633Y-147155101D01*
X105838897Y-147136534D01*
X105808452Y-147111548D01*
X105783466Y-147081103D01*
X105764899Y-147046367D01*
X105753465Y-147008674D01*
X105749000Y-146963339D01*
X105749000Y-146126661D01*
X105753465Y-146081326D01*
X105764899Y-146043633D01*
X105783466Y-146008897D01*
X105808452Y-145978452D01*
X105838897Y-145953466D01*
X105873633Y-145934899D01*
X105911326Y-145923465D01*
X105956661Y-145919000D01*
X107043339Y-145919000D01*
X107088674Y-145923465D01*
G37*
G36*
X109046674Y-145673465D02*
G01*
X109084367Y-145684899D01*
X109119103Y-145703466D01*
X109149548Y-145728452D01*
X109174534Y-145758897D01*
X109193101Y-145793633D01*
X109204535Y-145831326D01*
X109209000Y-145876661D01*
X109209000Y-146713339D01*
X109204535Y-146758674D01*
X109193101Y-146796367D01*
X109174534Y-146831103D01*
X109149548Y-146861548D01*
X109119103Y-146886534D01*
X109084367Y-146905101D01*
X109046674Y-146916535D01*
X109001339Y-146921000D01*
X107914661Y-146921000D01*
X107869326Y-146916535D01*
X107831633Y-146905101D01*
X107796897Y-146886534D01*
X107766452Y-146861548D01*
X107741466Y-146831103D01*
X107722899Y-146796367D01*
X107711465Y-146758674D01*
X107707000Y-146713339D01*
X107707000Y-145876661D01*
X107711465Y-145831326D01*
X107722899Y-145793633D01*
X107741466Y-145758897D01*
X107766452Y-145728452D01*
X107796897Y-145703466D01*
X107831633Y-145684899D01*
X107869326Y-145673465D01*
X107914661Y-145669000D01*
X109001339Y-145669000D01*
X109046674Y-145673465D01*
G37*
G36*
X93588674Y-145243465D02*
G01*
X93626367Y-145254899D01*
X93661103Y-145273466D01*
X93691548Y-145298452D01*
X93716534Y-145328897D01*
X93735101Y-145363633D01*
X93746535Y-145401326D01*
X93751000Y-145446661D01*
X93751000Y-146283339D01*
X93746535Y-146328674D01*
X93735101Y-146366367D01*
X93716534Y-146401103D01*
X93691548Y-146431548D01*
X93661103Y-146456534D01*
X93626367Y-146475101D01*
X93588674Y-146486535D01*
X93543339Y-146491000D01*
X92456661Y-146491000D01*
X92411326Y-146486535D01*
X92373633Y-146475101D01*
X92338897Y-146456534D01*
X92308452Y-146431548D01*
X92283466Y-146401103D01*
X92264899Y-146366367D01*
X92253465Y-146328674D01*
X92249000Y-146283339D01*
X92249000Y-145446661D01*
X92253465Y-145401326D01*
X92264899Y-145363633D01*
X92283466Y-145328897D01*
X92308452Y-145298452D01*
X92338897Y-145273466D01*
X92373633Y-145254899D01*
X92411326Y-145243465D01*
X92456661Y-145239000D01*
X93543339Y-145239000D01*
X93588674Y-145243465D01*
G37*
G36*
X107088674Y-143873465D02*
G01*
X107126367Y-143884899D01*
X107161103Y-143903466D01*
X107191548Y-143928452D01*
X107216534Y-143958897D01*
X107235101Y-143993633D01*
X107246535Y-144031326D01*
X107251000Y-144076661D01*
X107251000Y-144913339D01*
X107246535Y-144958674D01*
X107235101Y-144996367D01*
X107216534Y-145031103D01*
X107191548Y-145061548D01*
X107161103Y-145086534D01*
X107126367Y-145105101D01*
X107088674Y-145116535D01*
X107043339Y-145121000D01*
X105956661Y-145121000D01*
X105911326Y-145116535D01*
X105873633Y-145105101D01*
X105838897Y-145086534D01*
X105808452Y-145061548D01*
X105783466Y-145031103D01*
X105764899Y-144996367D01*
X105753465Y-144958674D01*
X105749000Y-144913339D01*
X105749000Y-144076661D01*
X105753465Y-144031326D01*
X105764899Y-143993633D01*
X105783466Y-143958897D01*
X105808452Y-143928452D01*
X105838897Y-143903466D01*
X105873633Y-143884899D01*
X105911326Y-143873465D01*
X105956661Y-143869000D01*
X107043339Y-143869000D01*
X107088674Y-143873465D01*
G37*
G36*
X102626000Y-143691000D02*
G01*
X96374000Y-143691000D01*
X96374000Y-141989000D01*
X102626000Y-141989000D01*
X102626000Y-143691000D01*
G37*
G36*
X107141674Y-141373465D02*
G01*
X107179367Y-141384899D01*
X107214103Y-141403466D01*
X107244548Y-141428452D01*
X107269534Y-141458897D01*
X107288101Y-141493633D01*
X107299535Y-141531326D01*
X107304000Y-141576661D01*
X107304000Y-142413339D01*
X107299535Y-142458674D01*
X107288101Y-142496367D01*
X107269534Y-142531103D01*
X107244548Y-142561548D01*
X107214103Y-142586534D01*
X107179367Y-142605101D01*
X107141674Y-142616535D01*
X107096339Y-142621000D01*
X106009661Y-142621000D01*
X105964326Y-142616535D01*
X105926633Y-142605101D01*
X105891897Y-142586534D01*
X105861452Y-142561548D01*
X105836466Y-142531103D01*
X105817899Y-142496367D01*
X105806465Y-142458674D01*
X105802000Y-142413339D01*
X105802000Y-141576661D01*
X105806465Y-141531326D01*
X105817899Y-141493633D01*
X105836466Y-141458897D01*
X105861452Y-141428452D01*
X105891897Y-141403466D01*
X105926633Y-141384899D01*
X105964326Y-141373465D01*
X106009661Y-141369000D01*
X107096339Y-141369000D01*
X107141674Y-141373465D01*
G37*
G36*
X109046674Y-141373465D02*
G01*
X109084367Y-141384899D01*
X109119103Y-141403466D01*
X109149548Y-141428452D01*
X109174534Y-141458897D01*
X109193101Y-141493633D01*
X109204535Y-141531326D01*
X109209000Y-141576661D01*
X109209000Y-142413339D01*
X109204535Y-142458674D01*
X109193101Y-142496367D01*
X109174534Y-142531103D01*
X109149548Y-142561548D01*
X109119103Y-142586534D01*
X109084367Y-142605101D01*
X109046674Y-142616535D01*
X109001339Y-142621000D01*
X107914661Y-142621000D01*
X107869326Y-142616535D01*
X107831633Y-142605101D01*
X107796897Y-142586534D01*
X107766452Y-142561548D01*
X107741466Y-142531103D01*
X107722899Y-142496367D01*
X107711465Y-142458674D01*
X107707000Y-142413339D01*
X107707000Y-141576661D01*
X107711465Y-141531326D01*
X107722899Y-141493633D01*
X107741466Y-141458897D01*
X107766452Y-141428452D01*
X107796897Y-141403466D01*
X107831633Y-141384899D01*
X107869326Y-141373465D01*
X107914661Y-141369000D01*
X109001339Y-141369000D01*
X109046674Y-141373465D01*
G37*
G36*
X98244674Y-139461465D02*
G01*
X98282367Y-139472899D01*
X98317103Y-139491466D01*
X98347548Y-139516452D01*
X98372534Y-139546897D01*
X98391101Y-139581633D01*
X98402535Y-139619326D01*
X98407000Y-139664661D01*
X98407000Y-140751339D01*
X98402535Y-140796674D01*
X98391101Y-140834367D01*
X98372534Y-140869103D01*
X98347548Y-140899548D01*
X98317103Y-140924534D01*
X98282367Y-140943101D01*
X98244674Y-140954535D01*
X98199339Y-140959000D01*
X97362661Y-140959000D01*
X97317326Y-140954535D01*
X97279633Y-140943101D01*
X97244897Y-140924534D01*
X97214452Y-140899548D01*
X97189466Y-140869103D01*
X97170899Y-140834367D01*
X97159465Y-140796674D01*
X97155000Y-140751339D01*
X97155000Y-139664661D01*
X97159465Y-139619326D01*
X97170899Y-139581633D01*
X97189466Y-139546897D01*
X97214452Y-139516452D01*
X97244897Y-139491466D01*
X97279633Y-139472899D01*
X97317326Y-139461465D01*
X97362661Y-139457000D01*
X98199339Y-139457000D01*
X98244674Y-139461465D01*
G37*
G36*
X100294674Y-139461465D02*
G01*
X100332367Y-139472899D01*
X100367103Y-139491466D01*
X100397548Y-139516452D01*
X100422534Y-139546897D01*
X100441101Y-139581633D01*
X100452535Y-139619326D01*
X100457000Y-139664661D01*
X100457000Y-140751339D01*
X100452535Y-140796674D01*
X100441101Y-140834367D01*
X100422534Y-140869103D01*
X100397548Y-140899548D01*
X100367103Y-140924534D01*
X100332367Y-140943101D01*
X100294674Y-140954535D01*
X100249339Y-140959000D01*
X99412661Y-140959000D01*
X99367326Y-140954535D01*
X99329633Y-140943101D01*
X99294897Y-140924534D01*
X99264452Y-140899548D01*
X99239466Y-140869103D01*
X99220899Y-140834367D01*
X99209465Y-140796674D01*
X99205000Y-140751339D01*
X99205000Y-139664661D01*
X99209465Y-139619326D01*
X99220899Y-139581633D01*
X99239466Y-139546897D01*
X99264452Y-139516452D01*
X99294897Y-139491466D01*
X99329633Y-139472899D01*
X99367326Y-139461465D01*
X99412661Y-139457000D01*
X100249339Y-139457000D01*
X100294674Y-139461465D01*
G37*
G36*
X107141674Y-139323465D02*
G01*
X107179367Y-139334899D01*
X107214103Y-139353466D01*
X107244548Y-139378452D01*
X107269534Y-139408897D01*
X107288101Y-139443633D01*
X107299535Y-139481326D01*
X107304000Y-139526661D01*
X107304000Y-140363339D01*
X107299535Y-140408674D01*
X107288101Y-140446367D01*
X107269534Y-140481103D01*
X107244548Y-140511548D01*
X107214103Y-140536534D01*
X107179367Y-140555101D01*
X107141674Y-140566535D01*
X107096339Y-140571000D01*
X106009661Y-140571000D01*
X105964326Y-140566535D01*
X105926633Y-140555101D01*
X105891897Y-140536534D01*
X105861452Y-140511548D01*
X105836466Y-140481103D01*
X105817899Y-140446367D01*
X105806465Y-140408674D01*
X105802000Y-140363339D01*
X105802000Y-139526661D01*
X105806465Y-139481326D01*
X105817899Y-139443633D01*
X105836466Y-139408897D01*
X105861452Y-139378452D01*
X105891897Y-139353466D01*
X105926633Y-139334899D01*
X105964326Y-139323465D01*
X106009661Y-139319000D01*
X107096339Y-139319000D01*
X107141674Y-139323465D01*
G37*
G36*
X109046674Y-139323465D02*
G01*
X109084367Y-139334899D01*
X109119103Y-139353466D01*
X109149548Y-139378452D01*
X109174534Y-139408897D01*
X109193101Y-139443633D01*
X109204535Y-139481326D01*
X109209000Y-139526661D01*
X109209000Y-140363339D01*
X109204535Y-140408674D01*
X109193101Y-140446367D01*
X109174534Y-140481103D01*
X109149548Y-140511548D01*
X109119103Y-140536534D01*
X109084367Y-140555101D01*
X109046674Y-140566535D01*
X109001339Y-140571000D01*
X107914661Y-140571000D01*
X107869326Y-140566535D01*
X107831633Y-140555101D01*
X107796897Y-140536534D01*
X107766452Y-140511548D01*
X107741466Y-140481103D01*
X107722899Y-140446367D01*
X107711465Y-140408674D01*
X107707000Y-140363339D01*
X107707000Y-139526661D01*
X107711465Y-139481326D01*
X107722899Y-139443633D01*
X107741466Y-139408897D01*
X107766452Y-139378452D01*
X107796897Y-139353466D01*
X107831633Y-139334899D01*
X107869326Y-139323465D01*
X107914661Y-139319000D01*
X109001339Y-139319000D01*
X109046674Y-139323465D01*
G37*
G36*
X103088674Y-136921465D02*
G01*
X103126367Y-136932899D01*
X103161103Y-136951466D01*
X103191548Y-136976452D01*
X103216534Y-137006897D01*
X103235101Y-137041633D01*
X103246535Y-137079326D01*
X103251000Y-137124661D01*
X103251000Y-138211339D01*
X103246535Y-138256674D01*
X103235101Y-138294367D01*
X103216534Y-138329103D01*
X103191548Y-138359548D01*
X103161103Y-138384534D01*
X103126367Y-138403101D01*
X103088674Y-138414535D01*
X103043339Y-138419000D01*
X102206661Y-138419000D01*
X102161326Y-138414535D01*
X102123633Y-138403101D01*
X102088897Y-138384534D01*
X102058452Y-138359548D01*
X102033466Y-138329103D01*
X102014899Y-138294367D01*
X102003465Y-138256674D01*
X101999000Y-138211339D01*
X101999000Y-137124661D01*
X102003465Y-137079326D01*
X102014899Y-137041633D01*
X102033466Y-137006897D01*
X102058452Y-136976452D01*
X102088897Y-136951466D01*
X102123633Y-136932899D01*
X102161326Y-136921465D01*
X102206661Y-136917000D01*
X103043339Y-136917000D01*
X103088674Y-136921465D01*
G37*
G36*
X101038674Y-136921465D02*
G01*
X101076367Y-136932899D01*
X101111103Y-136951466D01*
X101141548Y-136976452D01*
X101166534Y-137006897D01*
X101185101Y-137041633D01*
X101196535Y-137079326D01*
X101201000Y-137124661D01*
X101201000Y-138211339D01*
X101196535Y-138256674D01*
X101185101Y-138294367D01*
X101166534Y-138329103D01*
X101141548Y-138359548D01*
X101111103Y-138384534D01*
X101076367Y-138403101D01*
X101038674Y-138414535D01*
X100993339Y-138419000D01*
X100156661Y-138419000D01*
X100111326Y-138414535D01*
X100073633Y-138403101D01*
X100038897Y-138384534D01*
X100008452Y-138359548D01*
X99983466Y-138329103D01*
X99964899Y-138294367D01*
X99953465Y-138256674D01*
X99949000Y-138211339D01*
X99949000Y-137124661D01*
X99953465Y-137079326D01*
X99964899Y-137041633D01*
X99983466Y-137006897D01*
X100008452Y-136976452D01*
X100038897Y-136951466D01*
X100073633Y-136932899D01*
X100111326Y-136921465D01*
X100156661Y-136917000D01*
X100993339Y-136917000D01*
X101038674Y-136921465D01*
G37*
G36*
X93491000Y-136433000D02*
G01*
X89389000Y-136433000D01*
X89389000Y-134331000D01*
X93491000Y-134331000D01*
X93491000Y-136433000D01*
G37*
G36*
X103088674Y-134889465D02*
G01*
X103126367Y-134900899D01*
X103161103Y-134919466D01*
X103191548Y-134944452D01*
X103216534Y-134974897D01*
X103235101Y-135009633D01*
X103246535Y-135047326D01*
X103251000Y-135092661D01*
X103251000Y-136179339D01*
X103246535Y-136224674D01*
X103235101Y-136262367D01*
X103216534Y-136297103D01*
X103191548Y-136327548D01*
X103161103Y-136352534D01*
X103126367Y-136371101D01*
X103088674Y-136382535D01*
X103043339Y-136387000D01*
X102206661Y-136387000D01*
X102161326Y-136382535D01*
X102123633Y-136371101D01*
X102088897Y-136352534D01*
X102058452Y-136327548D01*
X102033466Y-136297103D01*
X102014899Y-136262367D01*
X102003465Y-136224674D01*
X101999000Y-136179339D01*
X101999000Y-135092661D01*
X102003465Y-135047326D01*
X102014899Y-135009633D01*
X102033466Y-134974897D01*
X102058452Y-134944452D01*
X102088897Y-134919466D01*
X102123633Y-134900899D01*
X102161326Y-134889465D01*
X102206661Y-134885000D01*
X103043339Y-134885000D01*
X103088674Y-134889465D01*
G37*
G36*
X101038674Y-134889465D02*
G01*
X101076367Y-134900899D01*
X101111103Y-134919466D01*
X101141548Y-134944452D01*
X101166534Y-134974897D01*
X101185101Y-135009633D01*
X101196535Y-135047326D01*
X101201000Y-135092661D01*
X101201000Y-136179339D01*
X101196535Y-136224674D01*
X101185101Y-136262367D01*
X101166534Y-136297103D01*
X101141548Y-136327548D01*
X101111103Y-136352534D01*
X101076367Y-136371101D01*
X101038674Y-136382535D01*
X100993339Y-136387000D01*
X100156661Y-136387000D01*
X100111326Y-136382535D01*
X100073633Y-136371101D01*
X100038897Y-136352534D01*
X100008452Y-136327548D01*
X99983466Y-136297103D01*
X99964899Y-136262367D01*
X99953465Y-136224674D01*
X99949000Y-136179339D01*
X99949000Y-135092661D01*
X99953465Y-135047326D01*
X99964899Y-135009633D01*
X99983466Y-134974897D01*
X100008452Y-134944452D01*
X100038897Y-134919466D01*
X100073633Y-134900899D01*
X100111326Y-134889465D01*
X100156661Y-134885000D01*
X100993339Y-134885000D01*
X101038674Y-134889465D01*
G37*
G36*
X93491000Y-133893000D02*
G01*
X89389000Y-133893000D01*
X89389000Y-131791000D01*
X93491000Y-131791000D01*
X93491000Y-133893000D01*
G37*
G36*
X93491000Y-131353000D02*
G01*
X89389000Y-131353000D01*
X89389000Y-129251000D01*
X93491000Y-129251000D01*
X93491000Y-131353000D01*
G37*
G36*
X93491000Y-128813000D02*
G01*
X89389000Y-128813000D01*
X89389000Y-126711000D01*
X93491000Y-126711000D01*
X93491000Y-128813000D01*
G37*
G36*
X93491000Y-126273000D02*
G01*
X89389000Y-126273000D01*
X89389000Y-124171000D01*
X93491000Y-124171000D01*
X93491000Y-126273000D01*
G37*
G36*
X97708674Y-112493465D02*
G01*
X97746367Y-112504899D01*
X97781103Y-112523466D01*
X97811548Y-112548452D01*
X97836534Y-112578897D01*
X97855101Y-112613633D01*
X97866535Y-112651326D01*
X97871000Y-112696661D01*
X97871000Y-113533339D01*
X97866535Y-113578674D01*
X97855101Y-113616367D01*
X97836534Y-113651103D01*
X97811548Y-113681548D01*
X97781103Y-113706534D01*
X97746367Y-113725101D01*
X97708674Y-113736535D01*
X97663339Y-113741000D01*
X96576661Y-113741000D01*
X96531326Y-113736535D01*
X96493633Y-113725101D01*
X96458897Y-113706534D01*
X96428452Y-113681548D01*
X96403466Y-113651103D01*
X96384899Y-113616367D01*
X96373465Y-113578674D01*
X96369000Y-113533339D01*
X96369000Y-112696661D01*
X96373465Y-112651326D01*
X96384899Y-112613633D01*
X96403466Y-112578897D01*
X96428452Y-112548452D01*
X96458897Y-112523466D01*
X96493633Y-112504899D01*
X96531326Y-112493465D01*
X96576661Y-112489000D01*
X97663339Y-112489000D01*
X97708674Y-112493465D01*
G37*
G36*
X95528674Y-112493465D02*
G01*
X95566367Y-112504899D01*
X95601103Y-112523466D01*
X95631548Y-112548452D01*
X95656534Y-112578897D01*
X95675101Y-112613633D01*
X95686535Y-112651326D01*
X95691000Y-112696661D01*
X95691000Y-113533339D01*
X95686535Y-113578674D01*
X95675101Y-113616367D01*
X95656534Y-113651103D01*
X95631548Y-113681548D01*
X95601103Y-113706534D01*
X95566367Y-113725101D01*
X95528674Y-113736535D01*
X95483339Y-113741000D01*
X94396661Y-113741000D01*
X94351326Y-113736535D01*
X94313633Y-113725101D01*
X94278897Y-113706534D01*
X94248452Y-113681548D01*
X94223466Y-113651103D01*
X94204899Y-113616367D01*
X94193465Y-113578674D01*
X94189000Y-113533339D01*
X94189000Y-112696661D01*
X94193465Y-112651326D01*
X94204899Y-112613633D01*
X94223466Y-112578897D01*
X94248452Y-112548452D01*
X94278897Y-112523466D01*
X94313633Y-112504899D01*
X94351326Y-112493465D01*
X94396661Y-112489000D01*
X95483339Y-112489000D01*
X95528674Y-112493465D01*
G37*
G36*
X103478674Y-112463465D02*
G01*
X103516367Y-112474899D01*
X103551103Y-112493466D01*
X103581548Y-112518452D01*
X103606534Y-112548897D01*
X103625101Y-112583633D01*
X103636535Y-112621326D01*
X103641000Y-112666661D01*
X103641000Y-113503339D01*
X103636535Y-113548674D01*
X103625101Y-113586367D01*
X103606534Y-113621103D01*
X103581548Y-113651548D01*
X103551103Y-113676534D01*
X103516367Y-113695101D01*
X103478674Y-113706535D01*
X103433339Y-113711000D01*
X102346661Y-113711000D01*
X102301326Y-113706535D01*
X102263633Y-113695101D01*
X102228897Y-113676534D01*
X102198452Y-113651548D01*
X102173466Y-113621103D01*
X102154899Y-113586367D01*
X102143465Y-113548674D01*
X102139000Y-113503339D01*
X102139000Y-112666661D01*
X102143465Y-112621326D01*
X102154899Y-112583633D01*
X102173466Y-112548897D01*
X102198452Y-112518452D01*
X102228897Y-112493466D01*
X102263633Y-112474899D01*
X102301326Y-112463465D01*
X102346661Y-112459000D01*
X103433339Y-112459000D01*
X103478674Y-112463465D01*
G37*
G36*
X99501000Y-113401000D02*
G01*
X98299000Y-113401000D01*
X98299000Y-112499000D01*
X99501000Y-112499000D01*
X99501000Y-113401000D01*
G37*
G36*
X101701000Y-112451000D02*
G01*
X100499000Y-112451000D01*
X100499000Y-111549000D01*
X101701000Y-111549000D01*
X101701000Y-112451000D01*
G37*
G36*
X95528674Y-110443465D02*
G01*
X95566367Y-110454899D01*
X95601103Y-110473466D01*
X95631548Y-110498452D01*
X95656534Y-110528897D01*
X95675101Y-110563633D01*
X95686535Y-110601326D01*
X95691000Y-110646661D01*
X95691000Y-111483339D01*
X95686535Y-111528674D01*
X95675101Y-111566367D01*
X95656534Y-111601103D01*
X95631548Y-111631548D01*
X95601103Y-111656534D01*
X95566367Y-111675101D01*
X95528674Y-111686535D01*
X95483339Y-111691000D01*
X94396661Y-111691000D01*
X94351326Y-111686535D01*
X94313633Y-111675101D01*
X94278897Y-111656534D01*
X94248452Y-111631548D01*
X94223466Y-111601103D01*
X94204899Y-111566367D01*
X94193465Y-111528674D01*
X94189000Y-111483339D01*
X94189000Y-110646661D01*
X94193465Y-110601326D01*
X94204899Y-110563633D01*
X94223466Y-110528897D01*
X94248452Y-110498452D01*
X94278897Y-110473466D01*
X94313633Y-110454899D01*
X94351326Y-110443465D01*
X94396661Y-110439000D01*
X95483339Y-110439000D01*
X95528674Y-110443465D01*
G37*
G36*
X97708674Y-110443465D02*
G01*
X97746367Y-110454899D01*
X97781103Y-110473466D01*
X97811548Y-110498452D01*
X97836534Y-110528897D01*
X97855101Y-110563633D01*
X97866535Y-110601326D01*
X97871000Y-110646661D01*
X97871000Y-111483339D01*
X97866535Y-111528674D01*
X97855101Y-111566367D01*
X97836534Y-111601103D01*
X97811548Y-111631548D01*
X97781103Y-111656534D01*
X97746367Y-111675101D01*
X97708674Y-111686535D01*
X97663339Y-111691000D01*
X96576661Y-111691000D01*
X96531326Y-111686535D01*
X96493633Y-111675101D01*
X96458897Y-111656534D01*
X96428452Y-111631548D01*
X96403466Y-111601103D01*
X96384899Y-111566367D01*
X96373465Y-111528674D01*
X96369000Y-111483339D01*
X96369000Y-110646661D01*
X96373465Y-110601326D01*
X96384899Y-110563633D01*
X96403466Y-110528897D01*
X96428452Y-110498452D01*
X96458897Y-110473466D01*
X96493633Y-110454899D01*
X96531326Y-110443465D01*
X96576661Y-110439000D01*
X97663339Y-110439000D01*
X97708674Y-110443465D01*
G37*
G36*
X103478674Y-110413465D02*
G01*
X103516367Y-110424899D01*
X103551103Y-110443466D01*
X103581548Y-110468452D01*
X103606534Y-110498897D01*
X103625101Y-110533633D01*
X103636535Y-110571326D01*
X103641000Y-110616661D01*
X103641000Y-111453339D01*
X103636535Y-111498674D01*
X103625101Y-111536367D01*
X103606534Y-111571103D01*
X103581548Y-111601548D01*
X103551103Y-111626534D01*
X103516367Y-111645101D01*
X103478674Y-111656535D01*
X103433339Y-111661000D01*
X102346661Y-111661000D01*
X102301326Y-111656535D01*
X102263633Y-111645101D01*
X102228897Y-111626534D01*
X102198452Y-111601548D01*
X102173466Y-111571103D01*
X102154899Y-111536367D01*
X102143465Y-111498674D01*
X102139000Y-111453339D01*
X102139000Y-110616661D01*
X102143465Y-110571326D01*
X102154899Y-110533633D01*
X102173466Y-110498897D01*
X102198452Y-110468452D01*
X102228897Y-110443466D01*
X102263633Y-110424899D01*
X102301326Y-110413465D01*
X102346661Y-110409000D01*
X103433339Y-110409000D01*
X103478674Y-110413465D01*
G37*
G36*
X99501000Y-111501000D02*
G01*
X98299000Y-111501000D01*
X98299000Y-110599000D01*
X99501000Y-110599000D01*
X99501000Y-111501000D01*
G37*
G36*
X95628674Y-88333465D02*
G01*
X95666367Y-88344899D01*
X95701103Y-88363466D01*
X95731548Y-88388452D01*
X95756534Y-88418897D01*
X95775101Y-88453633D01*
X95786535Y-88491326D01*
X95791000Y-88536661D01*
X95791000Y-89373339D01*
X95786535Y-89418674D01*
X95775101Y-89456367D01*
X95756534Y-89491103D01*
X95731548Y-89521548D01*
X95701103Y-89546534D01*
X95666367Y-89565101D01*
X95628674Y-89576535D01*
X95583339Y-89581000D01*
X94496661Y-89581000D01*
X94451326Y-89576535D01*
X94413633Y-89565101D01*
X94378897Y-89546534D01*
X94348452Y-89521548D01*
X94323466Y-89491103D01*
X94304899Y-89456367D01*
X94293465Y-89418674D01*
X94289000Y-89373339D01*
X94289000Y-88536661D01*
X94293465Y-88491326D01*
X94304899Y-88453633D01*
X94323466Y-88418897D01*
X94348452Y-88388452D01*
X94378897Y-88363466D01*
X94413633Y-88344899D01*
X94451326Y-88333465D01*
X94496661Y-88329000D01*
X95583339Y-88329000D01*
X95628674Y-88333465D01*
G37*
G36*
X97738674Y-88333465D02*
G01*
X97776367Y-88344899D01*
X97811103Y-88363466D01*
X97841548Y-88388452D01*
X97866534Y-88418897D01*
X97885101Y-88453633D01*
X97896535Y-88491326D01*
X97901000Y-88536661D01*
X97901000Y-89373339D01*
X97896535Y-89418674D01*
X97885101Y-89456367D01*
X97866534Y-89491103D01*
X97841548Y-89521548D01*
X97811103Y-89546534D01*
X97776367Y-89565101D01*
X97738674Y-89576535D01*
X97693339Y-89581000D01*
X96606661Y-89581000D01*
X96561326Y-89576535D01*
X96523633Y-89565101D01*
X96488897Y-89546534D01*
X96458452Y-89521548D01*
X96433466Y-89491103D01*
X96414899Y-89456367D01*
X96403465Y-89418674D01*
X96399000Y-89373339D01*
X96399000Y-88536661D01*
X96403465Y-88491326D01*
X96414899Y-88453633D01*
X96433466Y-88418897D01*
X96458452Y-88388452D01*
X96488897Y-88363466D01*
X96523633Y-88344899D01*
X96561326Y-88333465D01*
X96606661Y-88329000D01*
X97693339Y-88329000D01*
X97738674Y-88333465D01*
G37*
G36*
X103448674Y-88303465D02*
G01*
X103486367Y-88314899D01*
X103521103Y-88333466D01*
X103551548Y-88358452D01*
X103576534Y-88388897D01*
X103595101Y-88423633D01*
X103606535Y-88461326D01*
X103611000Y-88506661D01*
X103611000Y-89343339D01*
X103606535Y-89388674D01*
X103595101Y-89426367D01*
X103576534Y-89461103D01*
X103551548Y-89491548D01*
X103521103Y-89516534D01*
X103486367Y-89535101D01*
X103448674Y-89546535D01*
X103403339Y-89551000D01*
X102316661Y-89551000D01*
X102271326Y-89546535D01*
X102233633Y-89535101D01*
X102198897Y-89516534D01*
X102168452Y-89491548D01*
X102143466Y-89461103D01*
X102124899Y-89426367D01*
X102113465Y-89388674D01*
X102109000Y-89343339D01*
X102109000Y-88506661D01*
X102113465Y-88461326D01*
X102124899Y-88423633D01*
X102143466Y-88388897D01*
X102168452Y-88358452D01*
X102198897Y-88333466D01*
X102233633Y-88314899D01*
X102271326Y-88303465D01*
X102316661Y-88299000D01*
X103403339Y-88299000D01*
X103448674Y-88303465D01*
G37*
G36*
X99501000Y-89401000D02*
G01*
X98299000Y-89401000D01*
X98299000Y-88499000D01*
X99501000Y-88499000D01*
X99501000Y-89401000D01*
G37*
G36*
X101701000Y-88451000D02*
G01*
X100499000Y-88451000D01*
X100499000Y-87549000D01*
X101701000Y-87549000D01*
X101701000Y-88451000D01*
G37*
G36*
X95628674Y-86283465D02*
G01*
X95666367Y-86294899D01*
X95701103Y-86313466D01*
X95731548Y-86338452D01*
X95756534Y-86368897D01*
X95775101Y-86403633D01*
X95786535Y-86441326D01*
X95791000Y-86486661D01*
X95791000Y-87323339D01*
X95786535Y-87368674D01*
X95775101Y-87406367D01*
X95756534Y-87441103D01*
X95731548Y-87471548D01*
X95701103Y-87496534D01*
X95666367Y-87515101D01*
X95628674Y-87526535D01*
X95583339Y-87531000D01*
X94496661Y-87531000D01*
X94451326Y-87526535D01*
X94413633Y-87515101D01*
X94378897Y-87496534D01*
X94348452Y-87471548D01*
X94323466Y-87441103D01*
X94304899Y-87406367D01*
X94293465Y-87368674D01*
X94289000Y-87323339D01*
X94289000Y-86486661D01*
X94293465Y-86441326D01*
X94304899Y-86403633D01*
X94323466Y-86368897D01*
X94348452Y-86338452D01*
X94378897Y-86313466D01*
X94413633Y-86294899D01*
X94451326Y-86283465D01*
X94496661Y-86279000D01*
X95583339Y-86279000D01*
X95628674Y-86283465D01*
G37*
G36*
X97738674Y-86283465D02*
G01*
X97776367Y-86294899D01*
X97811103Y-86313466D01*
X97841548Y-86338452D01*
X97866534Y-86368897D01*
X97885101Y-86403633D01*
X97896535Y-86441326D01*
X97901000Y-86486661D01*
X97901000Y-87323339D01*
X97896535Y-87368674D01*
X97885101Y-87406367D01*
X97866534Y-87441103D01*
X97841548Y-87471548D01*
X97811103Y-87496534D01*
X97776367Y-87515101D01*
X97738674Y-87526535D01*
X97693339Y-87531000D01*
X96606661Y-87531000D01*
X96561326Y-87526535D01*
X96523633Y-87515101D01*
X96488897Y-87496534D01*
X96458452Y-87471548D01*
X96433466Y-87441103D01*
X96414899Y-87406367D01*
X96403465Y-87368674D01*
X96399000Y-87323339D01*
X96399000Y-86486661D01*
X96403465Y-86441326D01*
X96414899Y-86403633D01*
X96433466Y-86368897D01*
X96458452Y-86338452D01*
X96488897Y-86313466D01*
X96523633Y-86294899D01*
X96561326Y-86283465D01*
X96606661Y-86279000D01*
X97693339Y-86279000D01*
X97738674Y-86283465D01*
G37*
G36*
X103448674Y-86253465D02*
G01*
X103486367Y-86264899D01*
X103521103Y-86283466D01*
X103551548Y-86308452D01*
X103576534Y-86338897D01*
X103595101Y-86373633D01*
X103606535Y-86411326D01*
X103611000Y-86456661D01*
X103611000Y-87293339D01*
X103606535Y-87338674D01*
X103595101Y-87376367D01*
X103576534Y-87411103D01*
X103551548Y-87441548D01*
X103521103Y-87466534D01*
X103486367Y-87485101D01*
X103448674Y-87496535D01*
X103403339Y-87501000D01*
X102316661Y-87501000D01*
X102271326Y-87496535D01*
X102233633Y-87485101D01*
X102198897Y-87466534D01*
X102168452Y-87441548D01*
X102143466Y-87411103D01*
X102124899Y-87376367D01*
X102113465Y-87338674D01*
X102109000Y-87293339D01*
X102109000Y-86456661D01*
X102113465Y-86411326D01*
X102124899Y-86373633D01*
X102143466Y-86338897D01*
X102168452Y-86308452D01*
X102198897Y-86283466D01*
X102233633Y-86264899D01*
X102271326Y-86253465D01*
X102316661Y-86249000D01*
X103403339Y-86249000D01*
X103448674Y-86253465D01*
G37*
G36*
X99501000Y-87501000D02*
G01*
X98299000Y-87501000D01*
X98299000Y-86599000D01*
X99501000Y-86599000D01*
X99501000Y-87501000D01*
G37*
M02*
