G04 #@! TF.GenerationSoftware,KiCad,Pcbnew,(5.1.5)-3*
G04 #@! TF.CreationDate,2020-04-22T10:12:32+02:00*
G04 #@! TF.ProjectId,RHS_3_Simple,5248535f-335f-4536-996d-706c652e6b69,rev?*
G04 #@! TF.SameCoordinates,Original*
G04 #@! TF.FileFunction,Legend,Bot*
G04 #@! TF.FilePolarity,Positive*
%FSLAX46Y46*%
G04 Gerber Fmt 4.6, Leading zero omitted, Abs format (unit mm)*
G04 Created by KiCad (PCBNEW (5.1.5)-3) date 2020-04-22 10:12:32*
%MOMM*%
%LPD*%
G04 APERTURE LIST*
%ADD10C,0.120000*%
%ADD11C,0.150000*%
G04 APERTURE END LIST*
D10*
X102391981Y-144399000D02*
G75*
G03X102391981Y-144399000I-283981J0D01*
G01*
D11*
X92884428Y-123769380D02*
X92884428Y-122769380D01*
X92551095Y-123483666D01*
X92217761Y-122769380D01*
X92217761Y-123769380D01*
X91551095Y-122769380D02*
X91360619Y-122769380D01*
X91265380Y-122817000D01*
X91170142Y-122912238D01*
X91122523Y-123102714D01*
X91122523Y-123436047D01*
X91170142Y-123626523D01*
X91265380Y-123721761D01*
X91360619Y-123769380D01*
X91551095Y-123769380D01*
X91646333Y-123721761D01*
X91741571Y-123626523D01*
X91789190Y-123436047D01*
X91789190Y-123102714D01*
X91741571Y-122912238D01*
X91646333Y-122817000D01*
X91551095Y-122769380D01*
X90741571Y-123721761D02*
X90598714Y-123769380D01*
X90360619Y-123769380D01*
X90265380Y-123721761D01*
X90217761Y-123674142D01*
X90170142Y-123578904D01*
X90170142Y-123483666D01*
X90217761Y-123388428D01*
X90265380Y-123340809D01*
X90360619Y-123293190D01*
X90551095Y-123245571D01*
X90646333Y-123197952D01*
X90693952Y-123150333D01*
X90741571Y-123055095D01*
X90741571Y-122959857D01*
X90693952Y-122864619D01*
X90646333Y-122817000D01*
X90551095Y-122769380D01*
X90313000Y-122769380D01*
X90170142Y-122817000D01*
X89741571Y-123769380D02*
X89741571Y-122769380D01*
X97845380Y-131008380D02*
X98178714Y-130532190D01*
X98416809Y-131008380D02*
X98416809Y-130008380D01*
X98035857Y-130008380D01*
X97940619Y-130056000D01*
X97893000Y-130103619D01*
X97845380Y-130198857D01*
X97845380Y-130341714D01*
X97893000Y-130436952D01*
X97940619Y-130484571D01*
X98035857Y-130532190D01*
X98416809Y-130532190D01*
X97416809Y-130484571D02*
X97083476Y-130484571D01*
X96940619Y-131008380D02*
X97416809Y-131008380D01*
X97416809Y-130008380D01*
X96940619Y-130008380D01*
X96559666Y-130960761D02*
X96416809Y-131008380D01*
X96178714Y-131008380D01*
X96083476Y-130960761D01*
X96035857Y-130913142D01*
X95988238Y-130817904D01*
X95988238Y-130722666D01*
X96035857Y-130627428D01*
X96083476Y-130579809D01*
X96178714Y-130532190D01*
X96369190Y-130484571D01*
X96464428Y-130436952D01*
X96512047Y-130389333D01*
X96559666Y-130294095D01*
X96559666Y-130198857D01*
X96512047Y-130103619D01*
X96464428Y-130056000D01*
X96369190Y-130008380D01*
X96131095Y-130008380D01*
X95988238Y-130056000D01*
X95559666Y-130484571D02*
X95226333Y-130484571D01*
X95083476Y-131008380D02*
X95559666Y-131008380D01*
X95559666Y-130008380D01*
X95083476Y-130008380D01*
X94797761Y-130008380D02*
X94226333Y-130008380D01*
X94512047Y-131008380D02*
X94512047Y-130008380D01*
X96789714Y-133500761D02*
X96646857Y-133548380D01*
X96408761Y-133548380D01*
X96313523Y-133500761D01*
X96265904Y-133453142D01*
X96218285Y-133357904D01*
X96218285Y-133262666D01*
X96265904Y-133167428D01*
X96313523Y-133119809D01*
X96408761Y-133072190D01*
X96599238Y-133024571D01*
X96694476Y-132976952D01*
X96742095Y-132929333D01*
X96789714Y-132834095D01*
X96789714Y-132738857D01*
X96742095Y-132643619D01*
X96694476Y-132596000D01*
X96599238Y-132548380D01*
X96361142Y-132548380D01*
X96218285Y-132596000D01*
X95218285Y-133453142D02*
X95265904Y-133500761D01*
X95408761Y-133548380D01*
X95504000Y-133548380D01*
X95646857Y-133500761D01*
X95742095Y-133405523D01*
X95789714Y-133310285D01*
X95837333Y-133119809D01*
X95837333Y-132976952D01*
X95789714Y-132786476D01*
X95742095Y-132691238D01*
X95646857Y-132596000D01*
X95504000Y-132548380D01*
X95408761Y-132548380D01*
X95265904Y-132596000D01*
X95218285Y-132643619D01*
X94789714Y-133548380D02*
X94789714Y-132548380D01*
X94218285Y-133548380D02*
X94646857Y-132976952D01*
X94218285Y-132548380D02*
X94789714Y-133119809D01*
X97456428Y-135961380D02*
X97456428Y-134961380D01*
X97123095Y-135675666D01*
X96789761Y-134961380D01*
X96789761Y-135961380D01*
X96313571Y-135961380D02*
X96313571Y-134961380D01*
X95885000Y-135913761D02*
X95742142Y-135961380D01*
X95504047Y-135961380D01*
X95408809Y-135913761D01*
X95361190Y-135866142D01*
X95313571Y-135770904D01*
X95313571Y-135675666D01*
X95361190Y-135580428D01*
X95408809Y-135532809D01*
X95504047Y-135485190D01*
X95694523Y-135437571D01*
X95789761Y-135389952D01*
X95837380Y-135342333D01*
X95885000Y-135247095D01*
X95885000Y-135151857D01*
X95837380Y-135056619D01*
X95789761Y-135009000D01*
X95694523Y-134961380D01*
X95456428Y-134961380D01*
X95313571Y-135009000D01*
X94694523Y-134961380D02*
X94504047Y-134961380D01*
X94408809Y-135009000D01*
X94313571Y-135104238D01*
X94265952Y-135294714D01*
X94265952Y-135628047D01*
X94313571Y-135818523D01*
X94408809Y-135913761D01*
X94504047Y-135961380D01*
X94694523Y-135961380D01*
X94789761Y-135913761D01*
X94885000Y-135818523D01*
X94932619Y-135628047D01*
X94932619Y-135294714D01*
X94885000Y-135104238D01*
X94789761Y-135009000D01*
X94694523Y-134961380D01*
D10*
X98544748Y-139498000D02*
X99067252Y-139498000D01*
X98544748Y-140918000D02*
X99067252Y-140918000D01*
X107748000Y-147581252D02*
X107748000Y-147058748D01*
X109168000Y-147581252D02*
X109168000Y-147058748D01*
D11*
X103125000Y-143465000D02*
X103125000Y-143690000D01*
X95875000Y-143465000D02*
X95875000Y-143790000D01*
X95875000Y-150715000D02*
X95875000Y-150390000D01*
X103125000Y-150715000D02*
X103125000Y-150390000D01*
X103125000Y-143465000D02*
X102800000Y-143465000D01*
X103125000Y-150715000D02*
X102800000Y-150715000D01*
X95875000Y-150715000D02*
X96200000Y-150715000D01*
X95875000Y-143465000D02*
X96200000Y-143465000D01*
X103125000Y-143690000D02*
X104550000Y-143690000D01*
X91700000Y-177000000D02*
X91700000Y-158000000D01*
X108300000Y-177000000D02*
X91700000Y-177000000D01*
X108300000Y-158000000D02*
X108300000Y-177000000D01*
X91700000Y-158000000D02*
X108300000Y-158000000D01*
D10*
X105790000Y-145781252D02*
X105790000Y-145258748D01*
X107210000Y-145781252D02*
X107210000Y-145258748D01*
X93710000Y-147151252D02*
X93710000Y-146628748D01*
X92290000Y-147151252D02*
X92290000Y-146628748D01*
X93738748Y-154290000D02*
X94261252Y-154290000D01*
X93738748Y-155710000D02*
X94261252Y-155710000D01*
X107263000Y-141231252D02*
X107263000Y-140708748D01*
X105843000Y-141231252D02*
X105843000Y-140708748D01*
X107748000Y-141231252D02*
X107748000Y-140708748D01*
X109168000Y-141231252D02*
X109168000Y-140708748D01*
X96440000Y-88191252D02*
X96440000Y-87668748D01*
X97860000Y-88191252D02*
X97860000Y-87668748D01*
X97830000Y-112351252D02*
X97830000Y-111828748D01*
X96410000Y-112351252D02*
X96410000Y-111828748D01*
X100760000Y-86420000D02*
X100760000Y-87350000D01*
X100760000Y-89580000D02*
X100760000Y-88650000D01*
X100760000Y-89580000D02*
X98600000Y-89580000D01*
X100760000Y-86420000D02*
X99300000Y-86420000D01*
X100760000Y-110420000D02*
X100760000Y-111350000D01*
X100760000Y-113580000D02*
X100760000Y-112650000D01*
X100760000Y-113580000D02*
X98600000Y-113580000D01*
X100760000Y-110420000D02*
X99300000Y-110420000D01*
X102150000Y-88161252D02*
X102150000Y-87638748D01*
X103570000Y-88161252D02*
X103570000Y-87638748D01*
X103600000Y-112321252D02*
X103600000Y-111798748D01*
X102180000Y-112321252D02*
X102180000Y-111798748D01*
X94330000Y-87668748D02*
X94330000Y-88191252D01*
X95750000Y-87668748D02*
X95750000Y-88191252D01*
X95650000Y-111828748D02*
X95650000Y-112351252D01*
X94230000Y-111828748D02*
X94230000Y-112351252D01*
X107748000Y-151630748D02*
X107748000Y-152153252D01*
X109168000Y-151630748D02*
X109168000Y-152153252D01*
X105424000Y-150281000D02*
X105424000Y-148931000D01*
X107174000Y-150281000D02*
X107174000Y-148931000D01*
X101861252Y-136958000D02*
X101338748Y-136958000D01*
X101861252Y-138378000D02*
X101338748Y-138378000D01*
X101338748Y-136346000D02*
X101861252Y-136346000D01*
X101338748Y-134926000D02*
X101861252Y-134926000D01*
D11*
X96192666Y-140690380D02*
X96526000Y-140214190D01*
X96764095Y-140690380D02*
X96764095Y-139690380D01*
X96383142Y-139690380D01*
X96287904Y-139738000D01*
X96240285Y-139785619D01*
X96192666Y-139880857D01*
X96192666Y-140023714D01*
X96240285Y-140118952D01*
X96287904Y-140166571D01*
X96383142Y-140214190D01*
X96764095Y-140214190D01*
X95240285Y-140690380D02*
X95811714Y-140690380D01*
X95526000Y-140690380D02*
X95526000Y-139690380D01*
X95621238Y-139833238D01*
X95716476Y-139928476D01*
X95811714Y-139976095D01*
X108815142Y-143502142D02*
X108862761Y-143454523D01*
X108910380Y-143311666D01*
X108910380Y-143216428D01*
X108862761Y-143073571D01*
X108767523Y-142978333D01*
X108672285Y-142930714D01*
X108481809Y-142883095D01*
X108338952Y-142883095D01*
X108148476Y-142930714D01*
X108053238Y-142978333D01*
X107958000Y-143073571D01*
X107910380Y-143216428D01*
X107910380Y-143311666D01*
X107958000Y-143454523D01*
X108005619Y-143502142D01*
X108910380Y-144454523D02*
X108910380Y-143883095D01*
X108910380Y-144168809D02*
X107910380Y-144168809D01*
X108053238Y-144073571D01*
X108148476Y-143978333D01*
X108196095Y-143883095D01*
X108910380Y-145406904D02*
X108910380Y-144835476D01*
X108910380Y-145121190D02*
X107910380Y-145121190D01*
X108053238Y-145025952D01*
X108148476Y-144930714D01*
X108196095Y-144835476D01*
X100476190Y-147542380D02*
X100476190Y-146542380D01*
X99428571Y-147447142D02*
X99476190Y-147494761D01*
X99619047Y-147542380D01*
X99714285Y-147542380D01*
X99857142Y-147494761D01*
X99952380Y-147399523D01*
X100000000Y-147304285D01*
X100047619Y-147113809D01*
X100047619Y-146970952D01*
X100000000Y-146780476D01*
X99952380Y-146685238D01*
X99857142Y-146590000D01*
X99714285Y-146542380D01*
X99619047Y-146542380D01*
X99476190Y-146590000D01*
X99428571Y-146637619D01*
X98476190Y-147542380D02*
X99047619Y-147542380D01*
X98761904Y-147542380D02*
X98761904Y-146542380D01*
X98857142Y-146685238D01*
X98952380Y-146780476D01*
X99047619Y-146828095D01*
X100976190Y-165452380D02*
X100976190Y-164452380D01*
X99928571Y-165357142D02*
X99976190Y-165404761D01*
X100119047Y-165452380D01*
X100214285Y-165452380D01*
X100357142Y-165404761D01*
X100452380Y-165309523D01*
X100500000Y-165214285D01*
X100547619Y-165023809D01*
X100547619Y-164880952D01*
X100500000Y-164690476D01*
X100452380Y-164595238D01*
X100357142Y-164500000D01*
X100214285Y-164452380D01*
X100119047Y-164452380D01*
X99976190Y-164500000D01*
X99928571Y-164547619D01*
X99547619Y-164547619D02*
X99500000Y-164500000D01*
X99404761Y-164452380D01*
X99166666Y-164452380D01*
X99071428Y-164500000D01*
X99023809Y-164547619D01*
X98976190Y-164642857D01*
X98976190Y-164738095D01*
X99023809Y-164880952D01*
X99595238Y-165452380D01*
X98976190Y-165452380D01*
X105513142Y-142962333D02*
X105560761Y-142914714D01*
X105608380Y-142771857D01*
X105608380Y-142676619D01*
X105560761Y-142533761D01*
X105465523Y-142438523D01*
X105370285Y-142390904D01*
X105179809Y-142343285D01*
X105036952Y-142343285D01*
X104846476Y-142390904D01*
X104751238Y-142438523D01*
X104656000Y-142533761D01*
X104608380Y-142676619D01*
X104608380Y-142771857D01*
X104656000Y-142914714D01*
X104703619Y-142962333D01*
X105608380Y-143914714D02*
X105608380Y-143343285D01*
X105608380Y-143629000D02*
X104608380Y-143629000D01*
X104751238Y-143533761D01*
X104846476Y-143438523D01*
X104894095Y-143343285D01*
X91557142Y-146698333D02*
X91604761Y-146650714D01*
X91652380Y-146507857D01*
X91652380Y-146412619D01*
X91604761Y-146269761D01*
X91509523Y-146174523D01*
X91414285Y-146126904D01*
X91223809Y-146079285D01*
X91080952Y-146079285D01*
X90890476Y-146126904D01*
X90795238Y-146174523D01*
X90700000Y-146269761D01*
X90652380Y-146412619D01*
X90652380Y-146507857D01*
X90700000Y-146650714D01*
X90747619Y-146698333D01*
X90747619Y-147079285D02*
X90700000Y-147126904D01*
X90652380Y-147222142D01*
X90652380Y-147460238D01*
X90700000Y-147555476D01*
X90747619Y-147603095D01*
X90842857Y-147650714D01*
X90938095Y-147650714D01*
X91080952Y-147603095D01*
X91652380Y-147031666D01*
X91652380Y-147650714D01*
X96941666Y-155257142D02*
X96989285Y-155304761D01*
X97132142Y-155352380D01*
X97227380Y-155352380D01*
X97370238Y-155304761D01*
X97465476Y-155209523D01*
X97513095Y-155114285D01*
X97560714Y-154923809D01*
X97560714Y-154780952D01*
X97513095Y-154590476D01*
X97465476Y-154495238D01*
X97370238Y-154400000D01*
X97227380Y-154352380D01*
X97132142Y-154352380D01*
X96989285Y-154400000D01*
X96941666Y-154447619D01*
X96608333Y-154352380D02*
X95989285Y-154352380D01*
X96322619Y-154733333D01*
X96179761Y-154733333D01*
X96084523Y-154780952D01*
X96036904Y-154828571D01*
X95989285Y-154923809D01*
X95989285Y-155161904D01*
X96036904Y-155257142D01*
X96084523Y-155304761D01*
X96179761Y-155352380D01*
X96465476Y-155352380D01*
X96560714Y-155304761D01*
X96608333Y-155257142D01*
X107132380Y-138009333D02*
X106656190Y-137676000D01*
X107132380Y-137437904D02*
X106132380Y-137437904D01*
X106132380Y-137818857D01*
X106180000Y-137914095D01*
X106227619Y-137961714D01*
X106322857Y-138009333D01*
X106465714Y-138009333D01*
X106560952Y-137961714D01*
X106608571Y-137914095D01*
X106656190Y-137818857D01*
X106656190Y-137437904D01*
X106227619Y-138390285D02*
X106180000Y-138437904D01*
X106132380Y-138533142D01*
X106132380Y-138771238D01*
X106180000Y-138866476D01*
X106227619Y-138914095D01*
X106322857Y-138961714D01*
X106418095Y-138961714D01*
X106560952Y-138914095D01*
X107132380Y-138342666D01*
X107132380Y-138961714D01*
X108970380Y-137883333D02*
X108494190Y-137550000D01*
X108970380Y-137311904D02*
X107970380Y-137311904D01*
X107970380Y-137692857D01*
X108018000Y-137788095D01*
X108065619Y-137835714D01*
X108160857Y-137883333D01*
X108303714Y-137883333D01*
X108398952Y-137835714D01*
X108446571Y-137788095D01*
X108494190Y-137692857D01*
X108494190Y-137311904D01*
X107970380Y-138216666D02*
X107970380Y-138835714D01*
X108351333Y-138502380D01*
X108351333Y-138645238D01*
X108398952Y-138740476D01*
X108446571Y-138788095D01*
X108541809Y-138835714D01*
X108779904Y-138835714D01*
X108875142Y-138788095D01*
X108922761Y-138740476D01*
X108970380Y-138645238D01*
X108970380Y-138359523D01*
X108922761Y-138264285D01*
X108875142Y-138216666D01*
X97582380Y-90883333D02*
X97106190Y-90550000D01*
X97582380Y-90311904D02*
X96582380Y-90311904D01*
X96582380Y-90692857D01*
X96630000Y-90788095D01*
X96677619Y-90835714D01*
X96772857Y-90883333D01*
X96915714Y-90883333D01*
X97010952Y-90835714D01*
X97058571Y-90788095D01*
X97106190Y-90692857D01*
X97106190Y-90311904D01*
X96915714Y-91740476D02*
X97582380Y-91740476D01*
X96534761Y-91502380D02*
X97249047Y-91264285D01*
X97249047Y-91883333D01*
X97592380Y-109043333D02*
X97116190Y-108710000D01*
X97592380Y-108471904D02*
X96592380Y-108471904D01*
X96592380Y-108852857D01*
X96640000Y-108948095D01*
X96687619Y-108995714D01*
X96782857Y-109043333D01*
X96925714Y-109043333D01*
X97020952Y-108995714D01*
X97068571Y-108948095D01*
X97116190Y-108852857D01*
X97116190Y-108471904D01*
X96592380Y-109948095D02*
X96592380Y-109471904D01*
X97068571Y-109424285D01*
X97020952Y-109471904D01*
X96973333Y-109567142D01*
X96973333Y-109805238D01*
X97020952Y-109900476D01*
X97068571Y-109948095D01*
X97163809Y-109995714D01*
X97401904Y-109995714D01*
X97497142Y-109948095D01*
X97544761Y-109900476D01*
X97592380Y-109805238D01*
X97592380Y-109567142D01*
X97544761Y-109471904D01*
X97497142Y-109424285D01*
X99402380Y-90288095D02*
X100211904Y-90288095D01*
X100307142Y-90335714D01*
X100354761Y-90383333D01*
X100402380Y-90478571D01*
X100402380Y-90669047D01*
X100354761Y-90764285D01*
X100307142Y-90811904D01*
X100211904Y-90859523D01*
X99402380Y-90859523D01*
X100402380Y-91859523D02*
X100402380Y-91288095D01*
X100402380Y-91573809D02*
X99402380Y-91573809D01*
X99545238Y-91478571D01*
X99640476Y-91383333D01*
X99688095Y-91288095D01*
X99372380Y-108368095D02*
X100181904Y-108368095D01*
X100277142Y-108415714D01*
X100324761Y-108463333D01*
X100372380Y-108558571D01*
X100372380Y-108749047D01*
X100324761Y-108844285D01*
X100277142Y-108891904D01*
X100181904Y-108939523D01*
X99372380Y-108939523D01*
X99467619Y-109368095D02*
X99420000Y-109415714D01*
X99372380Y-109510952D01*
X99372380Y-109749047D01*
X99420000Y-109844285D01*
X99467619Y-109891904D01*
X99562857Y-109939523D01*
X99658095Y-109939523D01*
X99800952Y-109891904D01*
X100372380Y-109320476D01*
X100372380Y-109939523D01*
X103237142Y-90893333D02*
X103284761Y-90845714D01*
X103332380Y-90702857D01*
X103332380Y-90607619D01*
X103284761Y-90464761D01*
X103189523Y-90369523D01*
X103094285Y-90321904D01*
X102903809Y-90274285D01*
X102760952Y-90274285D01*
X102570476Y-90321904D01*
X102475238Y-90369523D01*
X102380000Y-90464761D01*
X102332380Y-90607619D01*
X102332380Y-90702857D01*
X102380000Y-90845714D01*
X102427619Y-90893333D01*
X102665714Y-91750476D02*
X103332380Y-91750476D01*
X102284761Y-91512380D02*
X102999047Y-91274285D01*
X102999047Y-91893333D01*
X103357142Y-108953333D02*
X103404761Y-108905714D01*
X103452380Y-108762857D01*
X103452380Y-108667619D01*
X103404761Y-108524761D01*
X103309523Y-108429523D01*
X103214285Y-108381904D01*
X103023809Y-108334285D01*
X102880952Y-108334285D01*
X102690476Y-108381904D01*
X102595238Y-108429523D01*
X102500000Y-108524761D01*
X102452380Y-108667619D01*
X102452380Y-108762857D01*
X102500000Y-108905714D01*
X102547619Y-108953333D01*
X102452380Y-109858095D02*
X102452380Y-109381904D01*
X102928571Y-109334285D01*
X102880952Y-109381904D01*
X102833333Y-109477142D01*
X102833333Y-109715238D01*
X102880952Y-109810476D01*
X102928571Y-109858095D01*
X103023809Y-109905714D01*
X103261904Y-109905714D01*
X103357142Y-109858095D01*
X103404761Y-109810476D01*
X103452380Y-109715238D01*
X103452380Y-109477142D01*
X103404761Y-109381904D01*
X103357142Y-109334285D01*
X95397142Y-90943333D02*
X95444761Y-90895714D01*
X95492380Y-90752857D01*
X95492380Y-90657619D01*
X95444761Y-90514761D01*
X95349523Y-90419523D01*
X95254285Y-90371904D01*
X95063809Y-90324285D01*
X94920952Y-90324285D01*
X94730476Y-90371904D01*
X94635238Y-90419523D01*
X94540000Y-90514761D01*
X94492380Y-90657619D01*
X94492380Y-90752857D01*
X94540000Y-90895714D01*
X94587619Y-90943333D01*
X94920952Y-91514761D02*
X94873333Y-91419523D01*
X94825714Y-91371904D01*
X94730476Y-91324285D01*
X94682857Y-91324285D01*
X94587619Y-91371904D01*
X94540000Y-91419523D01*
X94492380Y-91514761D01*
X94492380Y-91705238D01*
X94540000Y-91800476D01*
X94587619Y-91848095D01*
X94682857Y-91895714D01*
X94730476Y-91895714D01*
X94825714Y-91848095D01*
X94873333Y-91800476D01*
X94920952Y-91705238D01*
X94920952Y-91514761D01*
X94968571Y-91419523D01*
X95016190Y-91371904D01*
X95111428Y-91324285D01*
X95301904Y-91324285D01*
X95397142Y-91371904D01*
X95444761Y-91419523D01*
X95492380Y-91514761D01*
X95492380Y-91705238D01*
X95444761Y-91800476D01*
X95397142Y-91848095D01*
X95301904Y-91895714D01*
X95111428Y-91895714D01*
X95016190Y-91848095D01*
X94968571Y-91800476D01*
X94920952Y-91705238D01*
X95227142Y-108983333D02*
X95274761Y-108935714D01*
X95322380Y-108792857D01*
X95322380Y-108697619D01*
X95274761Y-108554761D01*
X95179523Y-108459523D01*
X95084285Y-108411904D01*
X94893809Y-108364285D01*
X94750952Y-108364285D01*
X94560476Y-108411904D01*
X94465238Y-108459523D01*
X94370000Y-108554761D01*
X94322380Y-108697619D01*
X94322380Y-108792857D01*
X94370000Y-108935714D01*
X94417619Y-108983333D01*
X95322380Y-109459523D02*
X95322380Y-109650000D01*
X95274761Y-109745238D01*
X95227142Y-109792857D01*
X95084285Y-109888095D01*
X94893809Y-109935714D01*
X94512857Y-109935714D01*
X94417619Y-109888095D01*
X94370000Y-109840476D01*
X94322380Y-109745238D01*
X94322380Y-109554761D01*
X94370000Y-109459523D01*
X94417619Y-109411904D01*
X94512857Y-109364285D01*
X94750952Y-109364285D01*
X94846190Y-109411904D01*
X94893809Y-109459523D01*
X94941428Y-109554761D01*
X94941428Y-109745238D01*
X94893809Y-109840476D01*
X94846190Y-109888095D01*
X94750952Y-109935714D01*
X108815142Y-154424142D02*
X108862761Y-154376523D01*
X108910380Y-154233666D01*
X108910380Y-154138428D01*
X108862761Y-153995571D01*
X108767523Y-153900333D01*
X108672285Y-153852714D01*
X108481809Y-153805095D01*
X108338952Y-153805095D01*
X108148476Y-153852714D01*
X108053238Y-153900333D01*
X107958000Y-153995571D01*
X107910380Y-154138428D01*
X107910380Y-154233666D01*
X107958000Y-154376523D01*
X108005619Y-154424142D01*
X108910380Y-155376523D02*
X108910380Y-154805095D01*
X108910380Y-155090809D02*
X107910380Y-155090809D01*
X108053238Y-154995571D01*
X108148476Y-154900333D01*
X108196095Y-154805095D01*
X108005619Y-155757476D02*
X107958000Y-155805095D01*
X107910380Y-155900333D01*
X107910380Y-156138428D01*
X107958000Y-156233666D01*
X108005619Y-156281285D01*
X108100857Y-156328904D01*
X108196095Y-156328904D01*
X108338952Y-156281285D01*
X108910380Y-155709857D01*
X108910380Y-156328904D01*
X106395190Y-152199809D02*
X106871380Y-152199809D01*
X105871380Y-151866476D02*
X106395190Y-152199809D01*
X105871380Y-152533142D01*
X106871380Y-153390285D02*
X106871380Y-152818857D01*
X106871380Y-153104571D02*
X105871380Y-153104571D01*
X106014238Y-153009333D01*
X106109476Y-152914095D01*
X106157095Y-152818857D01*
X99067857Y-138025142D02*
X99115476Y-138072761D01*
X99258333Y-138120380D01*
X99353571Y-138120380D01*
X99496428Y-138072761D01*
X99591666Y-137977523D01*
X99639285Y-137882285D01*
X99686904Y-137691809D01*
X99686904Y-137548952D01*
X99639285Y-137358476D01*
X99591666Y-137263238D01*
X99496428Y-137168000D01*
X99353571Y-137120380D01*
X99258333Y-137120380D01*
X99115476Y-137168000D01*
X99067857Y-137215619D01*
X98115476Y-138120380D02*
X98686904Y-138120380D01*
X98401190Y-138120380D02*
X98401190Y-137120380D01*
X98496428Y-137263238D01*
X98591666Y-137358476D01*
X98686904Y-137406095D01*
X97782142Y-137120380D02*
X97163095Y-137120380D01*
X97496428Y-137501333D01*
X97353571Y-137501333D01*
X97258333Y-137548952D01*
X97210714Y-137596571D01*
X97163095Y-137691809D01*
X97163095Y-137929904D01*
X97210714Y-138025142D01*
X97258333Y-138072761D01*
X97353571Y-138120380D01*
X97639285Y-138120380D01*
X97734523Y-138072761D01*
X97782142Y-138025142D01*
X104433666Y-136088380D02*
X104767000Y-135612190D01*
X105005095Y-136088380D02*
X105005095Y-135088380D01*
X104624142Y-135088380D01*
X104528904Y-135136000D01*
X104481285Y-135183619D01*
X104433666Y-135278857D01*
X104433666Y-135421714D01*
X104481285Y-135516952D01*
X104528904Y-135564571D01*
X104624142Y-135612190D01*
X105005095Y-135612190D01*
X104100333Y-135088380D02*
X103433666Y-135088380D01*
X103862238Y-136088380D01*
M02*
