G04 #@! TF.GenerationSoftware,KiCad,Pcbnew,(5.1.5)-3*
G04 #@! TF.CreationDate,2020-04-21T12:57:18+02:00*
G04 #@! TF.ProjectId,RHS_3,5248535f-332e-46b6-9963-61645f706362,rev?*
G04 #@! TF.SameCoordinates,Original*
G04 #@! TF.FileFunction,Legend,Top*
G04 #@! TF.FilePolarity,Positive*
%FSLAX46Y46*%
G04 Gerber Fmt 4.6, Leading zero omitted, Abs format (unit mm)*
G04 Created by KiCad (PCBNEW (5.1.5)-3) date 2020-04-21 12:57:18*
%MOMM*%
%LPD*%
G04 APERTURE LIST*
%ADD10C,0.200000*%
%ADD11C,0.300000*%
%ADD12C,0.150000*%
%ADD13C,0.120000*%
G04 APERTURE END LIST*
D10*
X78445000Y-125086904D02*
X78397380Y-125182142D01*
X78397380Y-125325000D01*
X78445000Y-125467857D01*
X78540238Y-125563095D01*
X78635476Y-125610714D01*
X78825952Y-125658333D01*
X78968809Y-125658333D01*
X79159285Y-125610714D01*
X79254523Y-125563095D01*
X79349761Y-125467857D01*
X79397380Y-125325000D01*
X79397380Y-125229761D01*
X79349761Y-125086904D01*
X79302142Y-125039285D01*
X78968809Y-125039285D01*
X78968809Y-125229761D01*
X79397380Y-124467857D02*
X79349761Y-124563095D01*
X79254523Y-124610714D01*
X78397380Y-124610714D01*
X79397380Y-123658333D02*
X78873571Y-123658333D01*
X78778333Y-123705952D01*
X78730714Y-123801190D01*
X78730714Y-123991666D01*
X78778333Y-124086904D01*
X79349761Y-123658333D02*
X79397380Y-123753571D01*
X79397380Y-123991666D01*
X79349761Y-124086904D01*
X79254523Y-124134523D01*
X79159285Y-124134523D01*
X79064047Y-124086904D01*
X79016428Y-123991666D01*
X79016428Y-123753571D01*
X78968809Y-123658333D01*
X79349761Y-123229761D02*
X79397380Y-123134523D01*
X79397380Y-122944047D01*
X79349761Y-122848809D01*
X79254523Y-122801190D01*
X79206904Y-122801190D01*
X79111666Y-122848809D01*
X79064047Y-122944047D01*
X79064047Y-123086904D01*
X79016428Y-123182142D01*
X78921190Y-123229761D01*
X78873571Y-123229761D01*
X78778333Y-123182142D01*
X78730714Y-123086904D01*
X78730714Y-122944047D01*
X78778333Y-122848809D01*
X79349761Y-122420238D02*
X79397380Y-122325000D01*
X79397380Y-122134523D01*
X79349761Y-122039285D01*
X79254523Y-121991666D01*
X79206904Y-121991666D01*
X79111666Y-122039285D01*
X79064047Y-122134523D01*
X79064047Y-122277380D01*
X79016428Y-122372619D01*
X78921190Y-122420238D01*
X78873571Y-122420238D01*
X78778333Y-122372619D01*
X78730714Y-122277380D01*
X78730714Y-122134523D01*
X78778333Y-122039285D01*
X80573571Y-126682142D02*
X80621190Y-126539285D01*
X80668809Y-126491666D01*
X80764047Y-126444047D01*
X80906904Y-126444047D01*
X81002142Y-126491666D01*
X81049761Y-126539285D01*
X81097380Y-126634523D01*
X81097380Y-127015476D01*
X80097380Y-127015476D01*
X80097380Y-126682142D01*
X80145000Y-126586904D01*
X80192619Y-126539285D01*
X80287857Y-126491666D01*
X80383095Y-126491666D01*
X80478333Y-126539285D01*
X80525952Y-126586904D01*
X80573571Y-126682142D01*
X80573571Y-127015476D01*
X81097380Y-126015476D02*
X80430714Y-126015476D01*
X80621190Y-126015476D02*
X80525952Y-125967857D01*
X80478333Y-125920238D01*
X80430714Y-125825000D01*
X80430714Y-125729761D01*
X81049761Y-125015476D02*
X81097380Y-125110714D01*
X81097380Y-125301190D01*
X81049761Y-125396428D01*
X80954523Y-125444047D01*
X80573571Y-125444047D01*
X80478333Y-125396428D01*
X80430714Y-125301190D01*
X80430714Y-125110714D01*
X80478333Y-125015476D01*
X80573571Y-124967857D01*
X80668809Y-124967857D01*
X80764047Y-125444047D01*
X81097380Y-124110714D02*
X80573571Y-124110714D01*
X80478333Y-124158333D01*
X80430714Y-124253571D01*
X80430714Y-124444047D01*
X80478333Y-124539285D01*
X81049761Y-124110714D02*
X81097380Y-124205952D01*
X81097380Y-124444047D01*
X81049761Y-124539285D01*
X80954523Y-124586904D01*
X80859285Y-124586904D01*
X80764047Y-124539285D01*
X80716428Y-124444047D01*
X80716428Y-124205952D01*
X80668809Y-124110714D01*
X81097380Y-123634523D02*
X80097380Y-123634523D01*
X80716428Y-123539285D02*
X81097380Y-123253571D01*
X80430714Y-123253571D02*
X80811666Y-123634523D01*
X81097380Y-122396428D02*
X80573571Y-122396428D01*
X80478333Y-122444047D01*
X80430714Y-122539285D01*
X80430714Y-122729761D01*
X80478333Y-122825000D01*
X81049761Y-122396428D02*
X81097380Y-122491666D01*
X81097380Y-122729761D01*
X81049761Y-122825000D01*
X80954523Y-122872619D01*
X80859285Y-122872619D01*
X80764047Y-122825000D01*
X80716428Y-122729761D01*
X80716428Y-122491666D01*
X80668809Y-122396428D01*
X80430714Y-121491666D02*
X81240238Y-121491666D01*
X81335476Y-121539285D01*
X81383095Y-121586904D01*
X81430714Y-121682142D01*
X81430714Y-121825000D01*
X81383095Y-121920238D01*
X81049761Y-121491666D02*
X81097380Y-121586904D01*
X81097380Y-121777380D01*
X81049761Y-121872619D01*
X81002142Y-121920238D01*
X80906904Y-121967857D01*
X80621190Y-121967857D01*
X80525952Y-121920238D01*
X80478333Y-121872619D01*
X80430714Y-121777380D01*
X80430714Y-121586904D01*
X80478333Y-121491666D01*
X81049761Y-120634523D02*
X81097380Y-120729761D01*
X81097380Y-120920238D01*
X81049761Y-121015476D01*
X80954523Y-121063095D01*
X80573571Y-121063095D01*
X80478333Y-121015476D01*
X80430714Y-120920238D01*
X80430714Y-120729761D01*
X80478333Y-120634523D01*
X80573571Y-120586904D01*
X80668809Y-120586904D01*
X80764047Y-121063095D01*
X82797380Y-126705952D02*
X81797380Y-126705952D01*
X81797380Y-126467857D01*
X81845000Y-126325000D01*
X81940238Y-126229761D01*
X82035476Y-126182142D01*
X82225952Y-126134523D01*
X82368809Y-126134523D01*
X82559285Y-126182142D01*
X82654523Y-126229761D01*
X82749761Y-126325000D01*
X82797380Y-126467857D01*
X82797380Y-126705952D01*
X82749761Y-125325000D02*
X82797380Y-125420238D01*
X82797380Y-125610714D01*
X82749761Y-125705952D01*
X82654523Y-125753571D01*
X82273571Y-125753571D01*
X82178333Y-125705952D01*
X82130714Y-125610714D01*
X82130714Y-125420238D01*
X82178333Y-125325000D01*
X82273571Y-125277380D01*
X82368809Y-125277380D01*
X82464047Y-125753571D01*
X82130714Y-124991666D02*
X82130714Y-124610714D01*
X81797380Y-124848809D02*
X82654523Y-124848809D01*
X82749761Y-124801190D01*
X82797380Y-124705952D01*
X82797380Y-124610714D01*
X82749761Y-123896428D02*
X82797380Y-123991666D01*
X82797380Y-124182142D01*
X82749761Y-124277380D01*
X82654523Y-124325000D01*
X82273571Y-124325000D01*
X82178333Y-124277380D01*
X82130714Y-124182142D01*
X82130714Y-123991666D01*
X82178333Y-123896428D01*
X82273571Y-123848809D01*
X82368809Y-123848809D01*
X82464047Y-124325000D01*
X82749761Y-122991666D02*
X82797380Y-123086904D01*
X82797380Y-123277380D01*
X82749761Y-123372619D01*
X82702142Y-123420238D01*
X82606904Y-123467857D01*
X82321190Y-123467857D01*
X82225952Y-123420238D01*
X82178333Y-123372619D01*
X82130714Y-123277380D01*
X82130714Y-123086904D01*
X82178333Y-122991666D01*
X82130714Y-122705952D02*
X82130714Y-122325000D01*
X81797380Y-122563095D02*
X82654523Y-122563095D01*
X82749761Y-122515476D01*
X82797380Y-122420238D01*
X82797380Y-122325000D01*
X82797380Y-121848809D02*
X82749761Y-121944047D01*
X82702142Y-121991666D01*
X82606904Y-122039285D01*
X82321190Y-122039285D01*
X82225952Y-121991666D01*
X82178333Y-121944047D01*
X82130714Y-121848809D01*
X82130714Y-121705952D01*
X82178333Y-121610714D01*
X82225952Y-121563095D01*
X82321190Y-121515476D01*
X82606904Y-121515476D01*
X82702142Y-121563095D01*
X82749761Y-121610714D01*
X82797380Y-121705952D01*
X82797380Y-121848809D01*
X82797380Y-121086904D02*
X82130714Y-121086904D01*
X82321190Y-121086904D02*
X82225952Y-121039285D01*
X82178333Y-120991666D01*
X82130714Y-120896428D01*
X82130714Y-120801190D01*
D11*
X87922571Y-122566571D02*
X87208285Y-123066571D01*
X87922571Y-123423714D02*
X86422571Y-123423714D01*
X86422571Y-122852285D01*
X86494000Y-122709428D01*
X86565428Y-122638000D01*
X86708285Y-122566571D01*
X86922571Y-122566571D01*
X87065428Y-122638000D01*
X87136857Y-122709428D01*
X87208285Y-122852285D01*
X87208285Y-123423714D01*
X87922571Y-121923714D02*
X86422571Y-121923714D01*
X87136857Y-121923714D02*
X87136857Y-121066571D01*
X87922571Y-121066571D02*
X86422571Y-121066571D01*
X87851142Y-120423714D02*
X87922571Y-120209428D01*
X87922571Y-119852285D01*
X87851142Y-119709428D01*
X87779714Y-119638000D01*
X87636857Y-119566571D01*
X87494000Y-119566571D01*
X87351142Y-119638000D01*
X87279714Y-119709428D01*
X87208285Y-119852285D01*
X87136857Y-120138000D01*
X87065428Y-120280857D01*
X86994000Y-120352285D01*
X86851142Y-120423714D01*
X86708285Y-120423714D01*
X86565428Y-120352285D01*
X86494000Y-120280857D01*
X86422571Y-120138000D01*
X86422571Y-119780857D01*
X86494000Y-119566571D01*
X87351142Y-118923714D02*
X87351142Y-117780857D01*
X86422571Y-117209428D02*
X86422571Y-116280857D01*
X86994000Y-116780857D01*
X86994000Y-116566571D01*
X87065428Y-116423714D01*
X87136857Y-116352285D01*
X87279714Y-116280857D01*
X87636857Y-116280857D01*
X87779714Y-116352285D01*
X87851142Y-116423714D01*
X87922571Y-116566571D01*
X87922571Y-116995142D01*
X87851142Y-117138000D01*
X87779714Y-117209428D01*
X88972571Y-122173714D02*
X90472571Y-121673714D01*
X88972571Y-121173714D01*
X90472571Y-119888000D02*
X90472571Y-120745142D01*
X90472571Y-120316571D02*
X88972571Y-120316571D01*
X89186857Y-120459428D01*
X89329714Y-120602285D01*
X89401142Y-120745142D01*
X90329714Y-119245142D02*
X90401142Y-119173714D01*
X90472571Y-119245142D01*
X90401142Y-119316571D01*
X90329714Y-119245142D01*
X90472571Y-119245142D01*
X90472571Y-117745142D02*
X90472571Y-118602285D01*
X90472571Y-118173714D02*
X88972571Y-118173714D01*
X89186857Y-118316571D01*
X89329714Y-118459428D01*
X89401142Y-118602285D01*
D12*
X89607142Y-106852380D02*
X89607142Y-105852380D01*
X89845238Y-105852380D01*
X89988095Y-105900000D01*
X90083333Y-105995238D01*
X90130952Y-106090476D01*
X90178571Y-106280952D01*
X90178571Y-106423809D01*
X90130952Y-106614285D01*
X90083333Y-106709523D01*
X89988095Y-106804761D01*
X89845238Y-106852380D01*
X89607142Y-106852380D01*
X90464285Y-105852380D02*
X91035714Y-105852380D01*
X90750000Y-106852380D02*
X90750000Y-105852380D01*
X91940476Y-106852380D02*
X91607142Y-106376190D01*
X91369047Y-106852380D02*
X91369047Y-105852380D01*
X91750000Y-105852380D01*
X91845238Y-105900000D01*
X91892857Y-105947619D01*
X91940476Y-106042857D01*
X91940476Y-106185714D01*
X91892857Y-106280952D01*
X91845238Y-106328571D01*
X91750000Y-106376190D01*
X91369047Y-106376190D01*
X90083333Y-101727380D02*
X89750000Y-101251190D01*
X89511904Y-101727380D02*
X89511904Y-100727380D01*
X89892857Y-100727380D01*
X89988095Y-100775000D01*
X90035714Y-100822619D01*
X90083333Y-100917857D01*
X90083333Y-101060714D01*
X90035714Y-101155952D01*
X89988095Y-101203571D01*
X89892857Y-101251190D01*
X89511904Y-101251190D01*
X90416666Y-100727380D02*
X91083333Y-101727380D01*
X91083333Y-100727380D02*
X90416666Y-101727380D01*
X91464285Y-101727380D02*
X91464285Y-100727380D01*
X91702380Y-100727380D01*
X91845238Y-100775000D01*
X91940476Y-100870238D01*
X91988095Y-100965476D01*
X92035714Y-101155952D01*
X92035714Y-101298809D01*
X91988095Y-101489285D01*
X91940476Y-101584523D01*
X91845238Y-101679761D01*
X91702380Y-101727380D01*
X91464285Y-101727380D01*
X89488095Y-103352380D02*
X90059523Y-103352380D01*
X89773809Y-104352380D02*
X89773809Y-103352380D01*
X90297619Y-103352380D02*
X90964285Y-104352380D01*
X90964285Y-103352380D02*
X90297619Y-104352380D01*
X91345238Y-104352380D02*
X91345238Y-103352380D01*
X91583333Y-103352380D01*
X91726190Y-103400000D01*
X91821428Y-103495238D01*
X91869047Y-103590476D01*
X91916666Y-103780952D01*
X91916666Y-103923809D01*
X91869047Y-104114285D01*
X91821428Y-104209523D01*
X91726190Y-104304761D01*
X91583333Y-104352380D01*
X91345238Y-104352380D01*
X89566666Y-98327380D02*
X89900000Y-99327380D01*
X90233333Y-98327380D01*
X91138095Y-99232142D02*
X91090476Y-99279761D01*
X90947619Y-99327380D01*
X90852380Y-99327380D01*
X90709523Y-99279761D01*
X90614285Y-99184523D01*
X90566666Y-99089285D01*
X90519047Y-98898809D01*
X90519047Y-98755952D01*
X90566666Y-98565476D01*
X90614285Y-98470238D01*
X90709523Y-98375000D01*
X90852380Y-98327380D01*
X90947619Y-98327380D01*
X91090476Y-98375000D01*
X91138095Y-98422619D01*
X92138095Y-99232142D02*
X92090476Y-99279761D01*
X91947619Y-99327380D01*
X91852380Y-99327380D01*
X91709523Y-99279761D01*
X91614285Y-99184523D01*
X91566666Y-99089285D01*
X91519047Y-98898809D01*
X91519047Y-98755952D01*
X91566666Y-98565476D01*
X91614285Y-98470238D01*
X91709523Y-98375000D01*
X91852380Y-98327380D01*
X91947619Y-98327380D01*
X92090476Y-98375000D01*
X92138095Y-98422619D01*
X90088095Y-93300000D02*
X89992857Y-93252380D01*
X89850000Y-93252380D01*
X89707142Y-93300000D01*
X89611904Y-93395238D01*
X89564285Y-93490476D01*
X89516666Y-93680952D01*
X89516666Y-93823809D01*
X89564285Y-94014285D01*
X89611904Y-94109523D01*
X89707142Y-94204761D01*
X89850000Y-94252380D01*
X89945238Y-94252380D01*
X90088095Y-94204761D01*
X90135714Y-94157142D01*
X90135714Y-93823809D01*
X89945238Y-93823809D01*
X90564285Y-94252380D02*
X90564285Y-93252380D01*
X91135714Y-94252380D01*
X91135714Y-93252380D01*
X91611904Y-94252380D02*
X91611904Y-93252380D01*
X91850000Y-93252380D01*
X91992857Y-93300000D01*
X92088095Y-93395238D01*
X92135714Y-93490476D01*
X92183333Y-93680952D01*
X92183333Y-93823809D01*
X92135714Y-94014285D01*
X92088095Y-94109523D01*
X91992857Y-94204761D01*
X91850000Y-94252380D01*
X91611904Y-94252380D01*
X79960000Y-76151904D02*
X79912380Y-76247142D01*
X79912380Y-76390000D01*
X79960000Y-76532857D01*
X80055238Y-76628095D01*
X80150476Y-76675714D01*
X80340952Y-76723333D01*
X80483809Y-76723333D01*
X80674285Y-76675714D01*
X80769523Y-76628095D01*
X80864761Y-76532857D01*
X80912380Y-76390000D01*
X80912380Y-76294761D01*
X80864761Y-76151904D01*
X80817142Y-76104285D01*
X80483809Y-76104285D01*
X80483809Y-76294761D01*
X80912380Y-75675714D02*
X79912380Y-75675714D01*
X80912380Y-75104285D01*
X79912380Y-75104285D01*
X80912380Y-74628095D02*
X79912380Y-74628095D01*
X79912380Y-74390000D01*
X79960000Y-74247142D01*
X80055238Y-74151904D01*
X80150476Y-74104285D01*
X80340952Y-74056666D01*
X80483809Y-74056666D01*
X80674285Y-74104285D01*
X80769523Y-74151904D01*
X80864761Y-74247142D01*
X80912380Y-74390000D01*
X80912380Y-74628095D01*
X82440000Y-76181904D02*
X82392380Y-76277142D01*
X82392380Y-76420000D01*
X82440000Y-76562857D01*
X82535238Y-76658095D01*
X82630476Y-76705714D01*
X82820952Y-76753333D01*
X82963809Y-76753333D01*
X83154285Y-76705714D01*
X83249523Y-76658095D01*
X83344761Y-76562857D01*
X83392380Y-76420000D01*
X83392380Y-76324761D01*
X83344761Y-76181904D01*
X83297142Y-76134285D01*
X82963809Y-76134285D01*
X82963809Y-76324761D01*
X83392380Y-75705714D02*
X82392380Y-75705714D01*
X83392380Y-75134285D01*
X82392380Y-75134285D01*
X83392380Y-74658095D02*
X82392380Y-74658095D01*
X82392380Y-74420000D01*
X82440000Y-74277142D01*
X82535238Y-74181904D01*
X82630476Y-74134285D01*
X82820952Y-74086666D01*
X82963809Y-74086666D01*
X83154285Y-74134285D01*
X83249523Y-74181904D01*
X83344761Y-74277142D01*
X83392380Y-74420000D01*
X83392380Y-74658095D01*
X85862380Y-76086666D02*
X85386190Y-76420000D01*
X85862380Y-76658095D02*
X84862380Y-76658095D01*
X84862380Y-76277142D01*
X84910000Y-76181904D01*
X84957619Y-76134285D01*
X85052857Y-76086666D01*
X85195714Y-76086666D01*
X85290952Y-76134285D01*
X85338571Y-76181904D01*
X85386190Y-76277142D01*
X85386190Y-76658095D01*
X84862380Y-75753333D02*
X85862380Y-75086666D01*
X84862380Y-75086666D02*
X85862380Y-75753333D01*
X85862380Y-74705714D02*
X84862380Y-74705714D01*
X84862380Y-74467619D01*
X84910000Y-74324761D01*
X85005238Y-74229523D01*
X85100476Y-74181904D01*
X85290952Y-74134285D01*
X85433809Y-74134285D01*
X85624285Y-74181904D01*
X85719523Y-74229523D01*
X85814761Y-74324761D01*
X85862380Y-74467619D01*
X85862380Y-74705714D01*
X87432380Y-76511904D02*
X87432380Y-75940476D01*
X88432380Y-76226190D02*
X87432380Y-76226190D01*
X87432380Y-75702380D02*
X88432380Y-75035714D01*
X87432380Y-75035714D02*
X88432380Y-75702380D01*
X88432380Y-74654761D02*
X87432380Y-74654761D01*
X87432380Y-74416666D01*
X87480000Y-74273809D01*
X87575238Y-74178571D01*
X87670476Y-74130952D01*
X87860952Y-74083333D01*
X88003809Y-74083333D01*
X88194285Y-74130952D01*
X88289523Y-74178571D01*
X88384761Y-74273809D01*
X88432380Y-74416666D01*
X88432380Y-74654761D01*
X89842380Y-76723333D02*
X90842380Y-76390000D01*
X89842380Y-76056666D01*
X90747142Y-75151904D02*
X90794761Y-75199523D01*
X90842380Y-75342380D01*
X90842380Y-75437619D01*
X90794761Y-75580476D01*
X90699523Y-75675714D01*
X90604285Y-75723333D01*
X90413809Y-75770952D01*
X90270952Y-75770952D01*
X90080476Y-75723333D01*
X89985238Y-75675714D01*
X89890000Y-75580476D01*
X89842380Y-75437619D01*
X89842380Y-75342380D01*
X89890000Y-75199523D01*
X89937619Y-75151904D01*
X90747142Y-74151904D02*
X90794761Y-74199523D01*
X90842380Y-74342380D01*
X90842380Y-74437619D01*
X90794761Y-74580476D01*
X90699523Y-74675714D01*
X90604285Y-74723333D01*
X90413809Y-74770952D01*
X90270952Y-74770952D01*
X90080476Y-74723333D01*
X89985238Y-74675714D01*
X89890000Y-74580476D01*
X89842380Y-74437619D01*
X89842380Y-74342380D01*
X89890000Y-74199523D01*
X89937619Y-74151904D01*
D13*
X67877000Y-123906000D02*
X68477000Y-124206000D01*
X67877000Y-124506000D02*
X67877000Y-123906000D01*
X68477000Y-124206000D02*
X67877000Y-124506000D01*
X71577000Y-121456000D02*
X71577000Y-121956000D01*
X77077000Y-121456000D02*
X71577000Y-121456000D01*
X77077000Y-121956000D02*
X77077000Y-121456000D01*
X71577000Y-121956000D02*
X77077000Y-121956000D01*
X71577000Y-123956000D02*
X71577000Y-124456000D01*
X77077000Y-123956000D02*
X71577000Y-123956000D01*
X77077000Y-124456000D02*
X77077000Y-123956000D01*
X71577000Y-124456000D02*
X77077000Y-124456000D01*
X65967000Y-120566000D02*
X70467000Y-120566000D01*
X65967000Y-119146000D02*
X65967000Y-120566000D01*
X77687000Y-119146000D02*
X65967000Y-119146000D01*
X77687000Y-122956000D02*
X77687000Y-119146000D01*
X65967000Y-125346000D02*
X70467000Y-125346000D01*
X65967000Y-126766000D02*
X65967000Y-125346000D01*
X77687000Y-126766000D02*
X65967000Y-126766000D01*
X77687000Y-122956000D02*
X77687000Y-126766000D01*
D10*
X85600000Y-99400000D02*
G75*
G03X85600000Y-99400000I-13000000J0D01*
G01*
D13*
X88780000Y-92470000D02*
X86120000Y-92470000D01*
X88780000Y-105230000D02*
X88780000Y-92470000D01*
X86120000Y-105230000D02*
X86120000Y-92470000D01*
X88780000Y-105230000D02*
X86120000Y-105230000D01*
X88780000Y-106500000D02*
X88780000Y-107830000D01*
X88780000Y-107830000D02*
X87450000Y-107830000D01*
X78960000Y-78020000D02*
X78960000Y-83220000D01*
X89180000Y-78020000D02*
X78960000Y-78020000D01*
X91780000Y-83220000D02*
X78960000Y-83220000D01*
X89180000Y-78020000D02*
X89180000Y-80620000D01*
X89180000Y-80620000D02*
X91780000Y-80620000D01*
X91780000Y-80620000D02*
X91780000Y-83220000D01*
X90450000Y-78020000D02*
X91780000Y-78020000D01*
X91780000Y-78020000D02*
X91780000Y-79350000D01*
X64135000Y-74550000D02*
X64135000Y-71690000D01*
X64135000Y-71690000D02*
X62215000Y-71690000D01*
X62215000Y-71690000D02*
X62215000Y-74550000D01*
X64290000Y-71665000D02*
X64290000Y-74525000D01*
X66210000Y-71665000D02*
X64290000Y-71665000D01*
X66210000Y-74525000D02*
X66210000Y-71665000D01*
X64930000Y-119780000D02*
X64930000Y-121780000D01*
X64930000Y-121780000D02*
X61930000Y-121780000D01*
X61930000Y-121780000D02*
X61930000Y-117780000D01*
X61930000Y-117780000D02*
X64930000Y-117780000D01*
X64930000Y-117780000D02*
X64930000Y-119780000D01*
X64430000Y-119780000D02*
G75*
G03X64430000Y-119780000I-1000000J0D01*
G01*
X64430000Y-79550000D02*
G75*
G03X64430000Y-79550000I-1000000J0D01*
G01*
X64930000Y-77550000D02*
X64930000Y-79550000D01*
X61930000Y-77550000D02*
X64930000Y-77550000D01*
X61930000Y-81550000D02*
X61930000Y-77550000D01*
X64930000Y-81550000D02*
X61930000Y-81550000D01*
X64930000Y-79550000D02*
X64930000Y-81550000D01*
X70371000Y-72140000D02*
G75*
G03X70371000Y-72140000I-1251000J0D01*
G01*
D12*
X66095571Y-100226714D02*
X66143190Y-100083857D01*
X66190809Y-100036238D01*
X66286047Y-99988619D01*
X66428904Y-99988619D01*
X66524142Y-100036238D01*
X66571761Y-100083857D01*
X66619380Y-100179095D01*
X66619380Y-100560047D01*
X65619380Y-100560047D01*
X65619380Y-100226714D01*
X65667000Y-100131476D01*
X65714619Y-100083857D01*
X65809857Y-100036238D01*
X65905095Y-100036238D01*
X66000333Y-100083857D01*
X66047952Y-100131476D01*
X66095571Y-100226714D01*
X66095571Y-100560047D01*
X65619380Y-99702904D02*
X65619380Y-99131476D01*
X66619380Y-99417190D02*
X65619380Y-99417190D01*
X66619380Y-98274333D02*
X66619380Y-98845761D01*
X66619380Y-98560047D02*
X65619380Y-98560047D01*
X65762238Y-98655285D01*
X65857476Y-98750523D01*
X65905095Y-98845761D01*
X86603809Y-90988571D02*
X86270476Y-90988571D01*
X86270476Y-91512380D02*
X86270476Y-90512380D01*
X86746666Y-90512380D01*
X86984761Y-90512380D02*
X87556190Y-90512380D01*
X87270476Y-91512380D02*
X87270476Y-90512380D01*
X87889523Y-91512380D02*
X87889523Y-90512380D01*
X88127619Y-90512380D01*
X88270476Y-90560000D01*
X88365714Y-90655238D01*
X88413333Y-90750476D01*
X88460952Y-90940952D01*
X88460952Y-91083809D01*
X88413333Y-91274285D01*
X88365714Y-91369523D01*
X88270476Y-91464761D01*
X88127619Y-91512380D01*
X87889523Y-91512380D01*
X88889523Y-91512380D02*
X88889523Y-90512380D01*
X82900476Y-84862380D02*
X82900476Y-83862380D01*
X83329047Y-84814761D02*
X83471904Y-84862380D01*
X83710000Y-84862380D01*
X83805238Y-84814761D01*
X83852857Y-84767142D01*
X83900476Y-84671904D01*
X83900476Y-84576666D01*
X83852857Y-84481428D01*
X83805238Y-84433809D01*
X83710000Y-84386190D01*
X83519523Y-84338571D01*
X83424285Y-84290952D01*
X83376666Y-84243333D01*
X83329047Y-84148095D01*
X83329047Y-84052857D01*
X83376666Y-83957619D01*
X83424285Y-83910000D01*
X83519523Y-83862380D01*
X83757619Y-83862380D01*
X83900476Y-83910000D01*
X84329047Y-84862380D02*
X84329047Y-83862380D01*
X84710000Y-83862380D01*
X84805238Y-83910000D01*
X84852857Y-83957619D01*
X84900476Y-84052857D01*
X84900476Y-84195714D01*
X84852857Y-84290952D01*
X84805238Y-84338571D01*
X84710000Y-84386190D01*
X84329047Y-84386190D01*
X86614761Y-84862380D02*
X86043333Y-84862380D01*
X86329047Y-84862380D02*
X86329047Y-83862380D01*
X86233809Y-84005238D01*
X86138571Y-84100476D01*
X86043333Y-84148095D01*
X87233809Y-83862380D02*
X87329047Y-83862380D01*
X87424285Y-83910000D01*
X87471904Y-83957619D01*
X87519523Y-84052857D01*
X87567142Y-84243333D01*
X87567142Y-84481428D01*
X87519523Y-84671904D01*
X87471904Y-84767142D01*
X87424285Y-84814761D01*
X87329047Y-84862380D01*
X87233809Y-84862380D01*
X87138571Y-84814761D01*
X87090952Y-84767142D01*
X87043333Y-84671904D01*
X86995714Y-84481428D01*
X86995714Y-84243333D01*
X87043333Y-84052857D01*
X87090952Y-83957619D01*
X87138571Y-83910000D01*
X87233809Y-83862380D01*
X61812380Y-74148095D02*
X60812380Y-74148095D01*
X60812380Y-73910000D01*
X60860000Y-73767142D01*
X60955238Y-73671904D01*
X61050476Y-73624285D01*
X61240952Y-73576666D01*
X61383809Y-73576666D01*
X61574285Y-73624285D01*
X61669523Y-73671904D01*
X61764761Y-73767142D01*
X61812380Y-73910000D01*
X61812380Y-74148095D01*
X61812380Y-72624285D02*
X61812380Y-73195714D01*
X61812380Y-72910000D02*
X60812380Y-72910000D01*
X60955238Y-73005238D01*
X61050476Y-73100476D01*
X61098095Y-73195714D01*
X67492380Y-74308095D02*
X66492380Y-74308095D01*
X66492380Y-74070000D01*
X66540000Y-73927142D01*
X66635238Y-73831904D01*
X66730476Y-73784285D01*
X66920952Y-73736666D01*
X67063809Y-73736666D01*
X67254285Y-73784285D01*
X67349523Y-73831904D01*
X67444761Y-73927142D01*
X67492380Y-74070000D01*
X67492380Y-74308095D01*
X66587619Y-73355714D02*
X66540000Y-73308095D01*
X66492380Y-73212857D01*
X66492380Y-72974761D01*
X66540000Y-72879523D01*
X66587619Y-72831904D01*
X66682857Y-72784285D01*
X66778095Y-72784285D01*
X66920952Y-72831904D01*
X67492380Y-73403333D01*
X67492380Y-72784285D01*
X61062380Y-121098095D02*
X60586190Y-121431428D01*
X61062380Y-121669523D02*
X60062380Y-121669523D01*
X60062380Y-121288571D01*
X60110000Y-121193333D01*
X60157619Y-121145714D01*
X60252857Y-121098095D01*
X60395714Y-121098095D01*
X60490952Y-121145714D01*
X60538571Y-121193333D01*
X60586190Y-121288571D01*
X60586190Y-121669523D01*
X61014761Y-120288571D02*
X61062380Y-120383809D01*
X61062380Y-120574285D01*
X61014761Y-120669523D01*
X60919523Y-120717142D01*
X60538571Y-120717142D01*
X60443333Y-120669523D01*
X60395714Y-120574285D01*
X60395714Y-120383809D01*
X60443333Y-120288571D01*
X60538571Y-120240952D01*
X60633809Y-120240952D01*
X60729047Y-120717142D01*
X61014761Y-119860000D02*
X61062380Y-119764761D01*
X61062380Y-119574285D01*
X61014761Y-119479047D01*
X60919523Y-119431428D01*
X60871904Y-119431428D01*
X60776666Y-119479047D01*
X60729047Y-119574285D01*
X60729047Y-119717142D01*
X60681428Y-119812380D01*
X60586190Y-119860000D01*
X60538571Y-119860000D01*
X60443333Y-119812380D01*
X60395714Y-119717142D01*
X60395714Y-119574285D01*
X60443333Y-119479047D01*
X61014761Y-118621904D02*
X61062380Y-118717142D01*
X61062380Y-118907619D01*
X61014761Y-119002857D01*
X60919523Y-119050476D01*
X60538571Y-119050476D01*
X60443333Y-119002857D01*
X60395714Y-118907619D01*
X60395714Y-118717142D01*
X60443333Y-118621904D01*
X60538571Y-118574285D01*
X60633809Y-118574285D01*
X60729047Y-119050476D01*
X60395714Y-118288571D02*
X60395714Y-117907619D01*
X60062380Y-118145714D02*
X60919523Y-118145714D01*
X61014761Y-118098095D01*
X61062380Y-118002857D01*
X61062380Y-117907619D01*
X60837142Y-81081428D02*
X60884761Y-81129047D01*
X60932380Y-81271904D01*
X60932380Y-81367142D01*
X60884761Y-81510000D01*
X60789523Y-81605238D01*
X60694285Y-81652857D01*
X60503809Y-81700476D01*
X60360952Y-81700476D01*
X60170476Y-81652857D01*
X60075238Y-81605238D01*
X59980000Y-81510000D01*
X59932380Y-81367142D01*
X59932380Y-81271904D01*
X59980000Y-81129047D01*
X60027619Y-81081428D01*
X60932380Y-80510000D02*
X60884761Y-80605238D01*
X60837142Y-80652857D01*
X60741904Y-80700476D01*
X60456190Y-80700476D01*
X60360952Y-80652857D01*
X60313333Y-80605238D01*
X60265714Y-80510000D01*
X60265714Y-80367142D01*
X60313333Y-80271904D01*
X60360952Y-80224285D01*
X60456190Y-80176666D01*
X60741904Y-80176666D01*
X60837142Y-80224285D01*
X60884761Y-80271904D01*
X60932380Y-80367142D01*
X60932380Y-80510000D01*
X60265714Y-79748095D02*
X60932380Y-79748095D01*
X60360952Y-79748095D02*
X60313333Y-79700476D01*
X60265714Y-79605238D01*
X60265714Y-79462380D01*
X60313333Y-79367142D01*
X60408571Y-79319523D01*
X60932380Y-79319523D01*
X60265714Y-78986190D02*
X60265714Y-78605238D01*
X60932380Y-78843333D02*
X60075238Y-78843333D01*
X59980000Y-78795714D01*
X59932380Y-78700476D01*
X59932380Y-78605238D01*
X60932380Y-78271904D02*
X60265714Y-78271904D01*
X59932380Y-78271904D02*
X59980000Y-78319523D01*
X60027619Y-78271904D01*
X59980000Y-78224285D01*
X59932380Y-78271904D01*
X60027619Y-78271904D01*
X60265714Y-77367142D02*
X61075238Y-77367142D01*
X61170476Y-77414761D01*
X61218095Y-77462380D01*
X61265714Y-77557619D01*
X61265714Y-77700476D01*
X61218095Y-77795714D01*
X60884761Y-77367142D02*
X60932380Y-77462380D01*
X60932380Y-77652857D01*
X60884761Y-77748095D01*
X60837142Y-77795714D01*
X60741904Y-77843333D01*
X60456190Y-77843333D01*
X60360952Y-77795714D01*
X60313333Y-77748095D01*
X60265714Y-77652857D01*
X60265714Y-77462380D01*
X60313333Y-77367142D01*
X70987142Y-72186666D02*
X71463333Y-72186666D01*
X70891904Y-72472380D02*
X71225238Y-71472380D01*
X71558571Y-72472380D01*
X71891904Y-72472380D02*
X71891904Y-71472380D01*
X72463333Y-72472380D01*
X72463333Y-71472380D01*
X72796666Y-71472380D02*
X73368095Y-71472380D01*
X73082380Y-72472380D02*
X73082380Y-71472380D01*
M02*
