G04 #@! TF.GenerationSoftware,KiCad,Pcbnew,(5.1.5)-3*
G04 #@! TF.CreationDate,2020-10-14T16:11:45+02:00*
G04 #@! TF.ProjectId,RHS_3,5248535f-332e-46b6-9963-61645f706362,rev?*
G04 #@! TF.SameCoordinates,Original*
G04 #@! TF.FileFunction,Paste,Top*
G04 #@! TF.FilePolarity,Positive*
%FSLAX46Y46*%
G04 Gerber Fmt 4.6, Leading zero omitted, Abs format (unit mm)*
G04 Created by KiCad (PCBNEW (5.1.5)-3) date 2020-10-14 16:11:45*
%MOMM*%
%LPD*%
G04 APERTURE LIST*
%ADD10R,10.500000X5.000000*%
%ADD11R,10.500000X10.500000*%
%ADD12C,0.100000*%
%ADD13R,2.000000X1.000000*%
G04 APERTURE END LIST*
D10*
X72600000Y-115900000D03*
X72600000Y-82900000D03*
D11*
X72600000Y-99400000D03*
D12*
G36*
X63649505Y-71951204D02*
G01*
X63673773Y-71954804D01*
X63697572Y-71960765D01*
X63720671Y-71969030D01*
X63742850Y-71979520D01*
X63763893Y-71992132D01*
X63783599Y-72006747D01*
X63801777Y-72023223D01*
X63818253Y-72041401D01*
X63832868Y-72061107D01*
X63845480Y-72082150D01*
X63855970Y-72104329D01*
X63864235Y-72127428D01*
X63870196Y-72151227D01*
X63873796Y-72175495D01*
X63875000Y-72199999D01*
X63875000Y-72850001D01*
X63873796Y-72874505D01*
X63870196Y-72898773D01*
X63864235Y-72922572D01*
X63855970Y-72945671D01*
X63845480Y-72967850D01*
X63832868Y-72988893D01*
X63818253Y-73008599D01*
X63801777Y-73026777D01*
X63783599Y-73043253D01*
X63763893Y-73057868D01*
X63742850Y-73070480D01*
X63720671Y-73080970D01*
X63697572Y-73089235D01*
X63673773Y-73095196D01*
X63649505Y-73098796D01*
X63625001Y-73100000D01*
X62724999Y-73100000D01*
X62700495Y-73098796D01*
X62676227Y-73095196D01*
X62652428Y-73089235D01*
X62629329Y-73080970D01*
X62607150Y-73070480D01*
X62586107Y-73057868D01*
X62566401Y-73043253D01*
X62548223Y-73026777D01*
X62531747Y-73008599D01*
X62517132Y-72988893D01*
X62504520Y-72967850D01*
X62494030Y-72945671D01*
X62485765Y-72922572D01*
X62479804Y-72898773D01*
X62476204Y-72874505D01*
X62475000Y-72850001D01*
X62475000Y-72199999D01*
X62476204Y-72175495D01*
X62479804Y-72151227D01*
X62485765Y-72127428D01*
X62494030Y-72104329D01*
X62504520Y-72082150D01*
X62517132Y-72061107D01*
X62531747Y-72041401D01*
X62548223Y-72023223D01*
X62566401Y-72006747D01*
X62586107Y-71992132D01*
X62607150Y-71979520D01*
X62629329Y-71969030D01*
X62652428Y-71960765D01*
X62676227Y-71954804D01*
X62700495Y-71951204D01*
X62724999Y-71950000D01*
X63625001Y-71950000D01*
X63649505Y-71951204D01*
G37*
G36*
X63649505Y-74001204D02*
G01*
X63673773Y-74004804D01*
X63697572Y-74010765D01*
X63720671Y-74019030D01*
X63742850Y-74029520D01*
X63763893Y-74042132D01*
X63783599Y-74056747D01*
X63801777Y-74073223D01*
X63818253Y-74091401D01*
X63832868Y-74111107D01*
X63845480Y-74132150D01*
X63855970Y-74154329D01*
X63864235Y-74177428D01*
X63870196Y-74201227D01*
X63873796Y-74225495D01*
X63875000Y-74249999D01*
X63875000Y-74900001D01*
X63873796Y-74924505D01*
X63870196Y-74948773D01*
X63864235Y-74972572D01*
X63855970Y-74995671D01*
X63845480Y-75017850D01*
X63832868Y-75038893D01*
X63818253Y-75058599D01*
X63801777Y-75076777D01*
X63783599Y-75093253D01*
X63763893Y-75107868D01*
X63742850Y-75120480D01*
X63720671Y-75130970D01*
X63697572Y-75139235D01*
X63673773Y-75145196D01*
X63649505Y-75148796D01*
X63625001Y-75150000D01*
X62724999Y-75150000D01*
X62700495Y-75148796D01*
X62676227Y-75145196D01*
X62652428Y-75139235D01*
X62629329Y-75130970D01*
X62607150Y-75120480D01*
X62586107Y-75107868D01*
X62566401Y-75093253D01*
X62548223Y-75076777D01*
X62531747Y-75058599D01*
X62517132Y-75038893D01*
X62504520Y-75017850D01*
X62494030Y-74995671D01*
X62485765Y-74972572D01*
X62479804Y-74948773D01*
X62476204Y-74924505D01*
X62475000Y-74900001D01*
X62475000Y-74249999D01*
X62476204Y-74225495D01*
X62479804Y-74201227D01*
X62485765Y-74177428D01*
X62494030Y-74154329D01*
X62504520Y-74132150D01*
X62517132Y-74111107D01*
X62531747Y-74091401D01*
X62548223Y-74073223D01*
X62566401Y-74056747D01*
X62586107Y-74042132D01*
X62607150Y-74029520D01*
X62629329Y-74019030D01*
X62652428Y-74010765D01*
X62676227Y-74004804D01*
X62700495Y-74001204D01*
X62724999Y-74000000D01*
X63625001Y-74000000D01*
X63649505Y-74001204D01*
G37*
G36*
X65724505Y-73976204D02*
G01*
X65748773Y-73979804D01*
X65772572Y-73985765D01*
X65795671Y-73994030D01*
X65817850Y-74004520D01*
X65838893Y-74017132D01*
X65858599Y-74031747D01*
X65876777Y-74048223D01*
X65893253Y-74066401D01*
X65907868Y-74086107D01*
X65920480Y-74107150D01*
X65930970Y-74129329D01*
X65939235Y-74152428D01*
X65945196Y-74176227D01*
X65948796Y-74200495D01*
X65950000Y-74224999D01*
X65950000Y-74875001D01*
X65948796Y-74899505D01*
X65945196Y-74923773D01*
X65939235Y-74947572D01*
X65930970Y-74970671D01*
X65920480Y-74992850D01*
X65907868Y-75013893D01*
X65893253Y-75033599D01*
X65876777Y-75051777D01*
X65858599Y-75068253D01*
X65838893Y-75082868D01*
X65817850Y-75095480D01*
X65795671Y-75105970D01*
X65772572Y-75114235D01*
X65748773Y-75120196D01*
X65724505Y-75123796D01*
X65700001Y-75125000D01*
X64799999Y-75125000D01*
X64775495Y-75123796D01*
X64751227Y-75120196D01*
X64727428Y-75114235D01*
X64704329Y-75105970D01*
X64682150Y-75095480D01*
X64661107Y-75082868D01*
X64641401Y-75068253D01*
X64623223Y-75051777D01*
X64606747Y-75033599D01*
X64592132Y-75013893D01*
X64579520Y-74992850D01*
X64569030Y-74970671D01*
X64560765Y-74947572D01*
X64554804Y-74923773D01*
X64551204Y-74899505D01*
X64550000Y-74875001D01*
X64550000Y-74224999D01*
X64551204Y-74200495D01*
X64554804Y-74176227D01*
X64560765Y-74152428D01*
X64569030Y-74129329D01*
X64579520Y-74107150D01*
X64592132Y-74086107D01*
X64606747Y-74066401D01*
X64623223Y-74048223D01*
X64641401Y-74031747D01*
X64661107Y-74017132D01*
X64682150Y-74004520D01*
X64704329Y-73994030D01*
X64727428Y-73985765D01*
X64751227Y-73979804D01*
X64775495Y-73976204D01*
X64799999Y-73975000D01*
X65700001Y-73975000D01*
X65724505Y-73976204D01*
G37*
G36*
X65724505Y-71926204D02*
G01*
X65748773Y-71929804D01*
X65772572Y-71935765D01*
X65795671Y-71944030D01*
X65817850Y-71954520D01*
X65838893Y-71967132D01*
X65858599Y-71981747D01*
X65876777Y-71998223D01*
X65893253Y-72016401D01*
X65907868Y-72036107D01*
X65920480Y-72057150D01*
X65930970Y-72079329D01*
X65939235Y-72102428D01*
X65945196Y-72126227D01*
X65948796Y-72150495D01*
X65950000Y-72174999D01*
X65950000Y-72825001D01*
X65948796Y-72849505D01*
X65945196Y-72873773D01*
X65939235Y-72897572D01*
X65930970Y-72920671D01*
X65920480Y-72942850D01*
X65907868Y-72963893D01*
X65893253Y-72983599D01*
X65876777Y-73001777D01*
X65858599Y-73018253D01*
X65838893Y-73032868D01*
X65817850Y-73045480D01*
X65795671Y-73055970D01*
X65772572Y-73064235D01*
X65748773Y-73070196D01*
X65724505Y-73073796D01*
X65700001Y-73075000D01*
X64799999Y-73075000D01*
X64775495Y-73073796D01*
X64751227Y-73070196D01*
X64727428Y-73064235D01*
X64704329Y-73055970D01*
X64682150Y-73045480D01*
X64661107Y-73032868D01*
X64641401Y-73018253D01*
X64623223Y-73001777D01*
X64606747Y-72983599D01*
X64592132Y-72963893D01*
X64579520Y-72942850D01*
X64569030Y-72920671D01*
X64560765Y-72897572D01*
X64554804Y-72873773D01*
X64551204Y-72849505D01*
X64550000Y-72825001D01*
X64550000Y-72174999D01*
X64551204Y-72150495D01*
X64554804Y-72126227D01*
X64560765Y-72102428D01*
X64569030Y-72079329D01*
X64579520Y-72057150D01*
X64592132Y-72036107D01*
X64606747Y-72016401D01*
X64623223Y-71998223D01*
X64641401Y-71981747D01*
X64661107Y-71967132D01*
X64682150Y-71954520D01*
X64704329Y-71944030D01*
X64727428Y-71935765D01*
X64751227Y-71929804D01*
X64775495Y-71926204D01*
X64799999Y-71925000D01*
X65700001Y-71925000D01*
X65724505Y-71926204D01*
G37*
G36*
X91425000Y-69650000D02*
G01*
X91425000Y-73650000D01*
X89425000Y-73650000D01*
X89425000Y-69650000D01*
X91425000Y-69650000D01*
G37*
G36*
X88885000Y-69650000D02*
G01*
X88885000Y-73650000D01*
X86885000Y-73650000D01*
X86885000Y-69650000D01*
X88885000Y-69650000D01*
G37*
G36*
X86345000Y-69650000D02*
G01*
X86345000Y-73650000D01*
X84345000Y-73650000D01*
X84345000Y-69650000D01*
X86345000Y-69650000D01*
G37*
G36*
X83805000Y-69650000D02*
G01*
X83805000Y-73650000D01*
X81805000Y-73650000D01*
X81805000Y-69650000D01*
X83805000Y-69650000D01*
G37*
G36*
X81265000Y-69650000D02*
G01*
X81265000Y-73650000D01*
X79265000Y-73650000D01*
X79265000Y-69650000D01*
X81265000Y-69650000D01*
G37*
D13*
X63430000Y-122280000D03*
X63430000Y-117280000D03*
X63430000Y-77050000D03*
X63430000Y-82050000D03*
D12*
G36*
X75060004Y-76325704D02*
G01*
X75084273Y-76329304D01*
X75108071Y-76335265D01*
X75131171Y-76343530D01*
X75153349Y-76354020D01*
X75174393Y-76366633D01*
X75194098Y-76381247D01*
X75212277Y-76397723D01*
X75228753Y-76415902D01*
X75243367Y-76435607D01*
X75255980Y-76456651D01*
X75266470Y-76478829D01*
X75274735Y-76501929D01*
X75280696Y-76525727D01*
X75284296Y-76549996D01*
X75285500Y-76574500D01*
X75285500Y-79574500D01*
X75284296Y-79599004D01*
X75280696Y-79623273D01*
X75274735Y-79647071D01*
X75266470Y-79670171D01*
X75255980Y-79692349D01*
X75243367Y-79713393D01*
X75228753Y-79733098D01*
X75212277Y-79751277D01*
X75194098Y-79767753D01*
X75174393Y-79782367D01*
X75153349Y-79794980D01*
X75131171Y-79805470D01*
X75108071Y-79813735D01*
X75084273Y-79819696D01*
X75060004Y-79823296D01*
X75035500Y-79824500D01*
X73935500Y-79824500D01*
X73910996Y-79823296D01*
X73886727Y-79819696D01*
X73862929Y-79813735D01*
X73839829Y-79805470D01*
X73817651Y-79794980D01*
X73796607Y-79782367D01*
X73776902Y-79767753D01*
X73758723Y-79751277D01*
X73742247Y-79733098D01*
X73727633Y-79713393D01*
X73715020Y-79692349D01*
X73704530Y-79670171D01*
X73696265Y-79647071D01*
X73690304Y-79623273D01*
X73686704Y-79599004D01*
X73685500Y-79574500D01*
X73685500Y-76574500D01*
X73686704Y-76549996D01*
X73690304Y-76525727D01*
X73696265Y-76501929D01*
X73704530Y-76478829D01*
X73715020Y-76456651D01*
X73727633Y-76435607D01*
X73742247Y-76415902D01*
X73758723Y-76397723D01*
X73776902Y-76381247D01*
X73796607Y-76366633D01*
X73817651Y-76354020D01*
X73839829Y-76343530D01*
X73862929Y-76335265D01*
X73886727Y-76329304D01*
X73910996Y-76325704D01*
X73935500Y-76324500D01*
X75035500Y-76324500D01*
X75060004Y-76325704D01*
G37*
G36*
X75060004Y-70925704D02*
G01*
X75084273Y-70929304D01*
X75108071Y-70935265D01*
X75131171Y-70943530D01*
X75153349Y-70954020D01*
X75174393Y-70966633D01*
X75194098Y-70981247D01*
X75212277Y-70997723D01*
X75228753Y-71015902D01*
X75243367Y-71035607D01*
X75255980Y-71056651D01*
X75266470Y-71078829D01*
X75274735Y-71101929D01*
X75280696Y-71125727D01*
X75284296Y-71149996D01*
X75285500Y-71174500D01*
X75285500Y-74174500D01*
X75284296Y-74199004D01*
X75280696Y-74223273D01*
X75274735Y-74247071D01*
X75266470Y-74270171D01*
X75255980Y-74292349D01*
X75243367Y-74313393D01*
X75228753Y-74333098D01*
X75212277Y-74351277D01*
X75194098Y-74367753D01*
X75174393Y-74382367D01*
X75153349Y-74394980D01*
X75131171Y-74405470D01*
X75108071Y-74413735D01*
X75084273Y-74419696D01*
X75060004Y-74423296D01*
X75035500Y-74424500D01*
X73935500Y-74424500D01*
X73910996Y-74423296D01*
X73886727Y-74419696D01*
X73862929Y-74413735D01*
X73839829Y-74405470D01*
X73817651Y-74394980D01*
X73796607Y-74382367D01*
X73776902Y-74367753D01*
X73758723Y-74351277D01*
X73742247Y-74333098D01*
X73727633Y-74313393D01*
X73715020Y-74292349D01*
X73704530Y-74270171D01*
X73696265Y-74247071D01*
X73690304Y-74223273D01*
X73686704Y-74199004D01*
X73685500Y-74174500D01*
X73685500Y-71174500D01*
X73686704Y-71149996D01*
X73690304Y-71125727D01*
X73696265Y-71101929D01*
X73704530Y-71078829D01*
X73715020Y-71056651D01*
X73727633Y-71035607D01*
X73742247Y-71015902D01*
X73758723Y-70997723D01*
X73776902Y-70981247D01*
X73796607Y-70966633D01*
X73817651Y-70954020D01*
X73839829Y-70943530D01*
X73862929Y-70935265D01*
X73886727Y-70929304D01*
X73910996Y-70925704D01*
X73935500Y-70924500D01*
X75035500Y-70924500D01*
X75060004Y-70925704D01*
G37*
M02*
