G04 #@! TF.GenerationSoftware,KiCad,Pcbnew,(5.1.5)-3*
G04 #@! TF.CreationDate,2020-04-06T21:20:36+02:00*
G04 #@! TF.ProjectId,RHS_3,5248535f-332e-46b6-9963-61645f706362,rev?*
G04 #@! TF.SameCoordinates,Original*
G04 #@! TF.FileFunction,Copper,L1,Top*
G04 #@! TF.FilePolarity,Positive*
%FSLAX46Y46*%
G04 Gerber Fmt 4.6, Leading zero omitted, Abs format (unit mm)*
G04 Created by KiCad (PCBNEW (5.1.5)-3) date 2020-04-06 21:20:36*
%MOMM*%
%LPD*%
G04 APERTURE LIST*
%ADD10O,2.000000X1.700000*%
%ADD11C,0.100000*%
%ADD12R,10.500000X5.000000*%
%ADD13R,10.500000X10.500000*%
%ADD14R,1.700000X1.700000*%
%ADD15O,1.700000X1.700000*%
%ADD16R,2.000000X1.000000*%
%ADD17C,2.000000*%
%ADD18C,0.800000*%
%ADD19C,0.250000*%
%ADD20C,0.500000*%
%ADD21C,0.254000*%
G04 APERTURE END LIST*
D10*
X69977000Y-121706000D03*
G04 #@! TA.AperFunction,ComponentPad*
D11*
G36*
X70751504Y-123357204D02*
G01*
X70775773Y-123360804D01*
X70799571Y-123366765D01*
X70822671Y-123375030D01*
X70844849Y-123385520D01*
X70865893Y-123398133D01*
X70885598Y-123412747D01*
X70903777Y-123429223D01*
X70920253Y-123447402D01*
X70934867Y-123467107D01*
X70947480Y-123488151D01*
X70957970Y-123510329D01*
X70966235Y-123533429D01*
X70972196Y-123557227D01*
X70975796Y-123581496D01*
X70977000Y-123606000D01*
X70977000Y-124806000D01*
X70975796Y-124830504D01*
X70972196Y-124854773D01*
X70966235Y-124878571D01*
X70957970Y-124901671D01*
X70947480Y-124923849D01*
X70934867Y-124944893D01*
X70920253Y-124964598D01*
X70903777Y-124982777D01*
X70885598Y-124999253D01*
X70865893Y-125013867D01*
X70844849Y-125026480D01*
X70822671Y-125036970D01*
X70799571Y-125045235D01*
X70775773Y-125051196D01*
X70751504Y-125054796D01*
X70727000Y-125056000D01*
X69227000Y-125056000D01*
X69202496Y-125054796D01*
X69178227Y-125051196D01*
X69154429Y-125045235D01*
X69131329Y-125036970D01*
X69109151Y-125026480D01*
X69088107Y-125013867D01*
X69068402Y-124999253D01*
X69050223Y-124982777D01*
X69033747Y-124964598D01*
X69019133Y-124944893D01*
X69006520Y-124923849D01*
X68996030Y-124901671D01*
X68987765Y-124878571D01*
X68981804Y-124854773D01*
X68978204Y-124830504D01*
X68977000Y-124806000D01*
X68977000Y-123606000D01*
X68978204Y-123581496D01*
X68981804Y-123557227D01*
X68987765Y-123533429D01*
X68996030Y-123510329D01*
X69006520Y-123488151D01*
X69019133Y-123467107D01*
X69033747Y-123447402D01*
X69050223Y-123429223D01*
X69068402Y-123412747D01*
X69088107Y-123398133D01*
X69109151Y-123385520D01*
X69131329Y-123375030D01*
X69154429Y-123366765D01*
X69178227Y-123360804D01*
X69202496Y-123357204D01*
X69227000Y-123356000D01*
X70727000Y-123356000D01*
X70751504Y-123357204D01*
G37*
G04 #@! TD.AperFunction*
D12*
X72600000Y-115900000D03*
X72600000Y-82900000D03*
D13*
X72600000Y-99400000D03*
D14*
X87450000Y-106500000D03*
D15*
X87950000Y-103960000D03*
X87450000Y-101420000D03*
X87950000Y-98880000D03*
X87450000Y-96340000D03*
X87950000Y-93800000D03*
D14*
X90450000Y-79350000D03*
D15*
X90450000Y-81890000D03*
X87910000Y-78850000D03*
X87910000Y-81390000D03*
X85370000Y-79350000D03*
X85370000Y-81890000D03*
X82830000Y-78850000D03*
X82830000Y-81390000D03*
X80290000Y-79350000D03*
X80290000Y-81890000D03*
G04 #@! TA.AperFunction,SMDPad,CuDef*
D11*
G36*
X63649505Y-71951204D02*
G01*
X63673773Y-71954804D01*
X63697572Y-71960765D01*
X63720671Y-71969030D01*
X63742850Y-71979520D01*
X63763893Y-71992132D01*
X63783599Y-72006747D01*
X63801777Y-72023223D01*
X63818253Y-72041401D01*
X63832868Y-72061107D01*
X63845480Y-72082150D01*
X63855970Y-72104329D01*
X63864235Y-72127428D01*
X63870196Y-72151227D01*
X63873796Y-72175495D01*
X63875000Y-72199999D01*
X63875000Y-72850001D01*
X63873796Y-72874505D01*
X63870196Y-72898773D01*
X63864235Y-72922572D01*
X63855970Y-72945671D01*
X63845480Y-72967850D01*
X63832868Y-72988893D01*
X63818253Y-73008599D01*
X63801777Y-73026777D01*
X63783599Y-73043253D01*
X63763893Y-73057868D01*
X63742850Y-73070480D01*
X63720671Y-73080970D01*
X63697572Y-73089235D01*
X63673773Y-73095196D01*
X63649505Y-73098796D01*
X63625001Y-73100000D01*
X62724999Y-73100000D01*
X62700495Y-73098796D01*
X62676227Y-73095196D01*
X62652428Y-73089235D01*
X62629329Y-73080970D01*
X62607150Y-73070480D01*
X62586107Y-73057868D01*
X62566401Y-73043253D01*
X62548223Y-73026777D01*
X62531747Y-73008599D01*
X62517132Y-72988893D01*
X62504520Y-72967850D01*
X62494030Y-72945671D01*
X62485765Y-72922572D01*
X62479804Y-72898773D01*
X62476204Y-72874505D01*
X62475000Y-72850001D01*
X62475000Y-72199999D01*
X62476204Y-72175495D01*
X62479804Y-72151227D01*
X62485765Y-72127428D01*
X62494030Y-72104329D01*
X62504520Y-72082150D01*
X62517132Y-72061107D01*
X62531747Y-72041401D01*
X62548223Y-72023223D01*
X62566401Y-72006747D01*
X62586107Y-71992132D01*
X62607150Y-71979520D01*
X62629329Y-71969030D01*
X62652428Y-71960765D01*
X62676227Y-71954804D01*
X62700495Y-71951204D01*
X62724999Y-71950000D01*
X63625001Y-71950000D01*
X63649505Y-71951204D01*
G37*
G04 #@! TD.AperFunction*
G04 #@! TA.AperFunction,SMDPad,CuDef*
G36*
X63649505Y-74001204D02*
G01*
X63673773Y-74004804D01*
X63697572Y-74010765D01*
X63720671Y-74019030D01*
X63742850Y-74029520D01*
X63763893Y-74042132D01*
X63783599Y-74056747D01*
X63801777Y-74073223D01*
X63818253Y-74091401D01*
X63832868Y-74111107D01*
X63845480Y-74132150D01*
X63855970Y-74154329D01*
X63864235Y-74177428D01*
X63870196Y-74201227D01*
X63873796Y-74225495D01*
X63875000Y-74249999D01*
X63875000Y-74900001D01*
X63873796Y-74924505D01*
X63870196Y-74948773D01*
X63864235Y-74972572D01*
X63855970Y-74995671D01*
X63845480Y-75017850D01*
X63832868Y-75038893D01*
X63818253Y-75058599D01*
X63801777Y-75076777D01*
X63783599Y-75093253D01*
X63763893Y-75107868D01*
X63742850Y-75120480D01*
X63720671Y-75130970D01*
X63697572Y-75139235D01*
X63673773Y-75145196D01*
X63649505Y-75148796D01*
X63625001Y-75150000D01*
X62724999Y-75150000D01*
X62700495Y-75148796D01*
X62676227Y-75145196D01*
X62652428Y-75139235D01*
X62629329Y-75130970D01*
X62607150Y-75120480D01*
X62586107Y-75107868D01*
X62566401Y-75093253D01*
X62548223Y-75076777D01*
X62531747Y-75058599D01*
X62517132Y-75038893D01*
X62504520Y-75017850D01*
X62494030Y-74995671D01*
X62485765Y-74972572D01*
X62479804Y-74948773D01*
X62476204Y-74924505D01*
X62475000Y-74900001D01*
X62475000Y-74249999D01*
X62476204Y-74225495D01*
X62479804Y-74201227D01*
X62485765Y-74177428D01*
X62494030Y-74154329D01*
X62504520Y-74132150D01*
X62517132Y-74111107D01*
X62531747Y-74091401D01*
X62548223Y-74073223D01*
X62566401Y-74056747D01*
X62586107Y-74042132D01*
X62607150Y-74029520D01*
X62629329Y-74019030D01*
X62652428Y-74010765D01*
X62676227Y-74004804D01*
X62700495Y-74001204D01*
X62724999Y-74000000D01*
X63625001Y-74000000D01*
X63649505Y-74001204D01*
G37*
G04 #@! TD.AperFunction*
G04 #@! TA.AperFunction,SMDPad,CuDef*
G36*
X65724505Y-73976204D02*
G01*
X65748773Y-73979804D01*
X65772572Y-73985765D01*
X65795671Y-73994030D01*
X65817850Y-74004520D01*
X65838893Y-74017132D01*
X65858599Y-74031747D01*
X65876777Y-74048223D01*
X65893253Y-74066401D01*
X65907868Y-74086107D01*
X65920480Y-74107150D01*
X65930970Y-74129329D01*
X65939235Y-74152428D01*
X65945196Y-74176227D01*
X65948796Y-74200495D01*
X65950000Y-74224999D01*
X65950000Y-74875001D01*
X65948796Y-74899505D01*
X65945196Y-74923773D01*
X65939235Y-74947572D01*
X65930970Y-74970671D01*
X65920480Y-74992850D01*
X65907868Y-75013893D01*
X65893253Y-75033599D01*
X65876777Y-75051777D01*
X65858599Y-75068253D01*
X65838893Y-75082868D01*
X65817850Y-75095480D01*
X65795671Y-75105970D01*
X65772572Y-75114235D01*
X65748773Y-75120196D01*
X65724505Y-75123796D01*
X65700001Y-75125000D01*
X64799999Y-75125000D01*
X64775495Y-75123796D01*
X64751227Y-75120196D01*
X64727428Y-75114235D01*
X64704329Y-75105970D01*
X64682150Y-75095480D01*
X64661107Y-75082868D01*
X64641401Y-75068253D01*
X64623223Y-75051777D01*
X64606747Y-75033599D01*
X64592132Y-75013893D01*
X64579520Y-74992850D01*
X64569030Y-74970671D01*
X64560765Y-74947572D01*
X64554804Y-74923773D01*
X64551204Y-74899505D01*
X64550000Y-74875001D01*
X64550000Y-74224999D01*
X64551204Y-74200495D01*
X64554804Y-74176227D01*
X64560765Y-74152428D01*
X64569030Y-74129329D01*
X64579520Y-74107150D01*
X64592132Y-74086107D01*
X64606747Y-74066401D01*
X64623223Y-74048223D01*
X64641401Y-74031747D01*
X64661107Y-74017132D01*
X64682150Y-74004520D01*
X64704329Y-73994030D01*
X64727428Y-73985765D01*
X64751227Y-73979804D01*
X64775495Y-73976204D01*
X64799999Y-73975000D01*
X65700001Y-73975000D01*
X65724505Y-73976204D01*
G37*
G04 #@! TD.AperFunction*
G04 #@! TA.AperFunction,SMDPad,CuDef*
G36*
X65724505Y-71926204D02*
G01*
X65748773Y-71929804D01*
X65772572Y-71935765D01*
X65795671Y-71944030D01*
X65817850Y-71954520D01*
X65838893Y-71967132D01*
X65858599Y-71981747D01*
X65876777Y-71998223D01*
X65893253Y-72016401D01*
X65907868Y-72036107D01*
X65920480Y-72057150D01*
X65930970Y-72079329D01*
X65939235Y-72102428D01*
X65945196Y-72126227D01*
X65948796Y-72150495D01*
X65950000Y-72174999D01*
X65950000Y-72825001D01*
X65948796Y-72849505D01*
X65945196Y-72873773D01*
X65939235Y-72897572D01*
X65930970Y-72920671D01*
X65920480Y-72942850D01*
X65907868Y-72963893D01*
X65893253Y-72983599D01*
X65876777Y-73001777D01*
X65858599Y-73018253D01*
X65838893Y-73032868D01*
X65817850Y-73045480D01*
X65795671Y-73055970D01*
X65772572Y-73064235D01*
X65748773Y-73070196D01*
X65724505Y-73073796D01*
X65700001Y-73075000D01*
X64799999Y-73075000D01*
X64775495Y-73073796D01*
X64751227Y-73070196D01*
X64727428Y-73064235D01*
X64704329Y-73055970D01*
X64682150Y-73045480D01*
X64661107Y-73032868D01*
X64641401Y-73018253D01*
X64623223Y-73001777D01*
X64606747Y-72983599D01*
X64592132Y-72963893D01*
X64579520Y-72942850D01*
X64569030Y-72920671D01*
X64560765Y-72897572D01*
X64554804Y-72873773D01*
X64551204Y-72849505D01*
X64550000Y-72825001D01*
X64550000Y-72174999D01*
X64551204Y-72150495D01*
X64554804Y-72126227D01*
X64560765Y-72102428D01*
X64569030Y-72079329D01*
X64579520Y-72057150D01*
X64592132Y-72036107D01*
X64606747Y-72016401D01*
X64623223Y-71998223D01*
X64641401Y-71981747D01*
X64661107Y-71967132D01*
X64682150Y-71954520D01*
X64704329Y-71944030D01*
X64727428Y-71935765D01*
X64751227Y-71929804D01*
X64775495Y-71926204D01*
X64799999Y-71925000D01*
X65700001Y-71925000D01*
X65724505Y-71926204D01*
G37*
G04 #@! TD.AperFunction*
G04 #@! TA.AperFunction,SMDPad,CuDef*
G36*
X91425000Y-69650000D02*
G01*
X91425000Y-73650000D01*
X89425000Y-73650000D01*
X89425000Y-69650000D01*
X91425000Y-69650000D01*
G37*
G04 #@! TD.AperFunction*
G04 #@! TA.AperFunction,SMDPad,CuDef*
G36*
X88885000Y-69650000D02*
G01*
X88885000Y-73650000D01*
X86885000Y-73650000D01*
X86885000Y-69650000D01*
X88885000Y-69650000D01*
G37*
G04 #@! TD.AperFunction*
G04 #@! TA.AperFunction,SMDPad,CuDef*
G36*
X86345000Y-69650000D02*
G01*
X86345000Y-73650000D01*
X84345000Y-73650000D01*
X84345000Y-69650000D01*
X86345000Y-69650000D01*
G37*
G04 #@! TD.AperFunction*
G04 #@! TA.AperFunction,SMDPad,CuDef*
G36*
X83805000Y-69650000D02*
G01*
X83805000Y-73650000D01*
X81805000Y-73650000D01*
X81805000Y-69650000D01*
X83805000Y-69650000D01*
G37*
G04 #@! TD.AperFunction*
G04 #@! TA.AperFunction,SMDPad,CuDef*
G36*
X81265000Y-69650000D02*
G01*
X81265000Y-73650000D01*
X79265000Y-73650000D01*
X79265000Y-69650000D01*
X81265000Y-69650000D01*
G37*
G04 #@! TD.AperFunction*
D16*
X63430000Y-122280000D03*
X63430000Y-117280000D03*
X63430000Y-77050000D03*
X63430000Y-82050000D03*
D17*
X69120000Y-72140000D03*
D18*
X78760000Y-114800000D03*
X81600000Y-107065000D03*
X67230000Y-110355000D03*
X64600000Y-103280000D03*
X77070000Y-84450000D03*
X75090000Y-97220000D03*
X63180000Y-114140000D03*
X75140000Y-108150000D03*
X86310000Y-113310000D03*
X91040000Y-84770000D03*
X86270000Y-121630000D03*
X86250000Y-109080000D03*
X76020000Y-73790000D03*
X65640000Y-87260000D03*
X82200000Y-92590000D03*
X86060000Y-88550000D03*
X64690000Y-125200000D03*
X81260000Y-125460000D03*
X90950000Y-125540000D03*
X64030000Y-98970000D03*
X64890000Y-98040000D03*
X65580000Y-111420000D03*
X68881527Y-111089464D03*
X74230000Y-106530000D03*
X79690000Y-103370000D03*
X74200000Y-90480000D03*
X78850000Y-104180000D03*
X72990000Y-91230000D03*
X89020000Y-111830000D03*
X91850000Y-86930000D03*
X61215000Y-104780000D03*
X77245563Y-111134990D03*
X74670000Y-111860000D03*
X83050010Y-105157496D03*
X83050010Y-99867808D03*
X73279000Y-119140000D03*
X73461339Y-109731313D03*
X73004991Y-110621127D03*
X65764835Y-96440155D03*
X72015431Y-110476923D03*
X79830000Y-116460000D03*
D19*
X72600000Y-113430000D02*
X72600000Y-115900000D01*
X64600000Y-104140000D02*
X64600000Y-103280000D01*
D20*
X78760000Y-115365685D02*
X78760000Y-114800000D01*
X78760000Y-115490000D02*
X78760000Y-115365685D01*
X78350000Y-115900000D02*
X78760000Y-115490000D01*
X72600000Y-115900000D02*
X78350000Y-115900000D01*
X78760000Y-114234315D02*
X78720000Y-114194315D01*
X78760000Y-114800000D02*
X78760000Y-114234315D01*
D19*
X78720000Y-112150000D02*
X78680000Y-111880000D01*
D20*
X81600000Y-108960000D02*
X81600000Y-107065000D01*
X79470000Y-111160000D02*
X81600000Y-108960000D01*
X78980000Y-111710000D02*
X79470000Y-111160000D01*
X78760000Y-111930000D02*
X78980000Y-111710000D01*
X78760000Y-114800000D02*
X78760000Y-111930000D01*
X72600000Y-115900000D02*
X72600000Y-112900000D01*
D19*
X64600000Y-103280000D02*
X64600000Y-104790000D01*
X70590000Y-110780000D02*
X70590000Y-110970000D01*
X64600000Y-104790000D02*
X70590000Y-110780000D01*
D20*
X72600000Y-112900000D02*
X70590000Y-110970000D01*
X70590000Y-110970000D02*
X69840000Y-110140000D01*
X68145000Y-110140000D02*
X69840000Y-110140000D01*
X67930000Y-110355000D02*
X68145000Y-110140000D01*
X67230000Y-110355000D02*
X67930000Y-110355000D01*
X91750001Y-80589999D02*
X91750001Y-76940001D01*
X90450000Y-81890000D02*
X91750001Y-80589999D01*
X90425000Y-75615000D02*
X90425000Y-71650000D01*
X91750001Y-76940001D02*
X90425000Y-75615000D01*
X72600000Y-99400000D02*
X72600000Y-103520000D01*
X72600000Y-103520000D02*
X74540000Y-105460000D01*
X74540000Y-105460000D02*
X75190000Y-105460000D01*
X75190000Y-105460000D02*
X75920000Y-106190000D01*
X75920000Y-107370000D02*
X75140000Y-108150000D01*
X75920000Y-106190000D02*
X75920000Y-107370000D01*
D19*
X64030000Y-97630000D02*
X64030000Y-98970000D01*
X61215000Y-94815000D02*
X64030000Y-97630000D01*
X63175000Y-74575000D02*
X62475000Y-74575000D01*
X61215000Y-75835000D02*
X61215000Y-94815000D01*
X62475000Y-74575000D02*
X61215000Y-75835000D01*
X61790000Y-76620000D02*
X61790000Y-94360000D01*
X64890000Y-97460000D02*
X64890000Y-98040000D01*
X61790000Y-94360000D02*
X64890000Y-97460000D01*
X62217499Y-76192501D02*
X61790000Y-76620000D01*
X65250000Y-75125000D02*
X64415000Y-75960000D01*
X65250000Y-74550000D02*
X65250000Y-75125000D01*
X62434998Y-75960000D02*
X62217499Y-76177499D01*
X64415000Y-75960000D02*
X62434998Y-75960000D01*
X62217499Y-76177499D02*
X62217499Y-76192501D01*
X68550991Y-111420000D02*
X68881527Y-111089464D01*
X65580000Y-111420000D02*
X68550991Y-111420000D01*
X73830001Y-106130001D02*
X74230000Y-106530000D01*
X72771000Y-105029000D02*
X73830001Y-106130001D01*
X67143998Y-105029000D02*
X72771000Y-105029000D01*
X66560000Y-95950000D02*
X66560000Y-104445002D01*
X65800000Y-95190000D02*
X66560000Y-95950000D01*
X63470000Y-95190000D02*
X65800000Y-95190000D01*
X62610000Y-94330000D02*
X63470000Y-95190000D01*
X62610000Y-83620000D02*
X62610000Y-94330000D01*
X66560000Y-104445002D02*
X67143998Y-105029000D01*
X63430000Y-82800000D02*
X62610000Y-83620000D01*
X63430000Y-82050000D02*
X63430000Y-82800000D01*
X79690000Y-92160000D02*
X79210000Y-91680000D01*
X79690000Y-103370000D02*
X79690000Y-92160000D01*
X79210000Y-91680000D02*
X78140000Y-90480000D01*
X78140000Y-90480000D02*
X74200000Y-90480000D01*
X78950000Y-92150000D02*
X78850000Y-104180000D01*
X72990000Y-91230000D02*
X78030000Y-91230000D01*
X78030000Y-91230000D02*
X78950000Y-92150000D01*
X91450001Y-109429999D02*
X89490000Y-111390000D01*
X91450001Y-87329999D02*
X91450001Y-109429999D01*
X91850000Y-86930000D02*
X91450001Y-87329999D01*
X89490000Y-111390000D02*
X89020000Y-111830000D01*
X65515002Y-103071998D02*
X65515002Y-105001814D01*
X76679878Y-111134990D02*
X77245563Y-111134990D01*
X61215000Y-104780000D02*
X63440002Y-102554998D01*
X74322008Y-111134990D02*
X76679878Y-111134990D01*
X65515002Y-105001814D02*
X72083188Y-111570000D01*
X63440002Y-102554998D02*
X64998002Y-102554998D01*
X72083188Y-111570000D02*
X73886998Y-111570000D01*
X64998002Y-102554998D02*
X65515002Y-103071998D01*
X73886998Y-111570000D02*
X74322008Y-111134990D01*
X80744990Y-109001822D02*
X80744990Y-106866831D01*
X82454325Y-105157496D02*
X82484325Y-105157496D01*
X82484325Y-105157496D02*
X83050010Y-105157496D01*
X77886812Y-111860000D02*
X80744990Y-109001822D01*
X74670000Y-111860000D02*
X77886812Y-111860000D01*
X80744990Y-106866831D02*
X82454325Y-105157496D01*
X85370000Y-79350000D02*
X84194999Y-80525001D01*
X84194999Y-98722819D02*
X83450009Y-99467809D01*
X84194999Y-80525001D02*
X84194999Y-98722819D01*
X83450009Y-99467809D02*
X83050010Y-99867808D01*
X73279000Y-119140000D02*
X65830000Y-119130000D01*
X65830000Y-119130000D02*
X63430000Y-121530000D01*
X63430000Y-121530000D02*
X63430000Y-122280000D01*
X84320000Y-101420000D02*
X87450000Y-101420000D01*
X79690000Y-106050000D02*
X84320000Y-101420000D01*
X79690000Y-108160000D02*
X79690000Y-106050000D01*
X78118687Y-109731313D02*
X79690000Y-108160000D01*
X73461339Y-109731313D02*
X78118687Y-109731313D01*
X89125001Y-99744999D02*
X87450000Y-101420000D01*
X86545001Y-82574999D02*
X86674999Y-82574999D01*
X87700000Y-91830000D02*
X89080000Y-93210000D01*
X86674999Y-82574999D02*
X87700000Y-83600000D01*
X87700000Y-83600000D02*
X87700000Y-91830000D01*
X89125001Y-93325001D02*
X89125001Y-99744999D01*
X86345000Y-78168002D02*
X86545001Y-78368003D01*
X89080000Y-93210000D02*
X89110000Y-93310000D01*
X86545001Y-78368003D02*
X86545001Y-82574999D01*
X89110000Y-93310000D02*
X89125001Y-93325001D01*
X85345000Y-71650000D02*
X85345000Y-73485000D01*
X85345000Y-73485000D02*
X85340000Y-73490000D01*
X85340000Y-77140000D02*
X86410000Y-78210000D01*
X85340000Y-73490000D02*
X85340000Y-77140000D01*
X86410000Y-78210000D02*
X86345000Y-78168002D01*
X82546411Y-103960000D02*
X87950000Y-103960000D01*
X80294979Y-106211432D02*
X82546411Y-103960000D01*
X80240000Y-108620000D02*
X80294979Y-106211432D01*
X78460000Y-110400000D02*
X80240000Y-108620000D01*
X73791803Y-110400000D02*
X78460000Y-110400000D01*
X73570676Y-110621127D02*
X73791803Y-110400000D01*
X73004991Y-110621127D02*
X73570676Y-110621127D01*
X89670011Y-102239989D02*
X87950000Y-103960000D01*
X88300000Y-91740000D02*
X89100000Y-92540000D01*
X87890000Y-76030000D02*
X89085001Y-77225001D01*
X89100000Y-92540000D02*
X89085001Y-92559589D01*
X89670011Y-93144598D02*
X89670011Y-102239989D01*
X87890000Y-75160000D02*
X87890000Y-76030000D01*
X87885000Y-75155000D02*
X87890000Y-75160000D01*
X89085001Y-77225001D02*
X89085001Y-82864999D01*
X89085001Y-82864999D02*
X88300000Y-83650000D01*
X87885000Y-71650000D02*
X87885000Y-75155000D01*
X88300000Y-83650000D02*
X88300000Y-91740000D01*
X89085001Y-92559589D02*
X89670011Y-93144598D01*
X65764835Y-96440155D02*
X65764835Y-97005840D01*
X71226522Y-110076924D02*
X71615432Y-110076924D01*
X71615432Y-110076924D02*
X72015431Y-110476923D01*
X66065013Y-104915415D02*
X71226522Y-110076924D01*
X65764835Y-97005840D02*
X66065013Y-97306018D01*
X66065013Y-97306018D02*
X66065013Y-104915415D01*
X79830000Y-116460000D02*
X79830000Y-111690000D01*
X82460000Y-109060000D02*
X82460000Y-106840000D01*
X79830000Y-111690000D02*
X82460000Y-109060000D01*
X82850000Y-106450000D02*
X85700000Y-106450000D01*
X82460000Y-106840000D02*
X82850000Y-106450000D01*
X85700000Y-106450000D02*
X87450000Y-106500000D01*
D21*
G36*
X101199045Y-70234570D02*
G01*
X102380212Y-70453486D01*
X103525895Y-70814719D01*
X104619026Y-71312887D01*
X105643286Y-71940555D01*
X106583421Y-72688372D01*
X107425413Y-73545189D01*
X108156708Y-74498231D01*
X108766402Y-75533287D01*
X109245416Y-76634941D01*
X109586599Y-77786755D01*
X109785347Y-78974426D01*
X109840001Y-80017310D01*
X109840000Y-89812474D01*
X92210001Y-89775436D01*
X92210001Y-87901159D01*
X92340256Y-87847205D01*
X92509774Y-87733937D01*
X92653937Y-87589774D01*
X92767205Y-87420256D01*
X92845226Y-87231898D01*
X92885000Y-87031939D01*
X92885000Y-86828061D01*
X92845226Y-86628102D01*
X92767205Y-86439744D01*
X92653937Y-86270226D01*
X92509774Y-86126063D01*
X92340256Y-86012795D01*
X92151898Y-85934774D01*
X91951939Y-85895000D01*
X91748061Y-85895000D01*
X91548102Y-85934774D01*
X91359744Y-86012795D01*
X91190226Y-86126063D01*
X91046063Y-86270226D01*
X90932795Y-86439744D01*
X90854774Y-86628102D01*
X90815000Y-86828061D01*
X90815000Y-86905774D01*
X90802050Y-86930001D01*
X90744455Y-87037753D01*
X90700998Y-87181014D01*
X90690001Y-87292667D01*
X90690001Y-87292677D01*
X90686325Y-87329999D01*
X90690001Y-87367321D01*
X90690002Y-109115196D01*
X89010199Y-110795000D01*
X88918061Y-110795000D01*
X88718102Y-110834774D01*
X88529744Y-110912795D01*
X88360226Y-111026063D01*
X88216063Y-111170226D01*
X88102795Y-111339744D01*
X88024774Y-111528102D01*
X87985000Y-111728061D01*
X87985000Y-111931939D01*
X88024774Y-112131898D01*
X88102795Y-112320256D01*
X88216063Y-112489774D01*
X88360226Y-112633937D01*
X88529744Y-112747205D01*
X88718102Y-112825226D01*
X88918061Y-112865000D01*
X89121939Y-112865000D01*
X89321898Y-112825226D01*
X89510256Y-112747205D01*
X89679774Y-112633937D01*
X89823937Y-112489774D01*
X89937205Y-112320256D01*
X90015226Y-112131898D01*
X90055000Y-111931939D01*
X90055000Y-111899801D01*
X91625797Y-110329005D01*
X109840000Y-110405696D01*
X109840001Y-119979819D01*
X109765430Y-121199045D01*
X109546513Y-122380213D01*
X109185281Y-123525895D01*
X108687116Y-124619020D01*
X108059448Y-125643282D01*
X107311628Y-126583421D01*
X106454811Y-127425413D01*
X105501769Y-128156708D01*
X104466710Y-128766404D01*
X103365052Y-129245418D01*
X102213237Y-129586601D01*
X101025574Y-129785347D01*
X99982726Y-129840000D01*
X61532279Y-129840000D01*
X61240340Y-129811375D01*
X60990571Y-129735965D01*
X60760206Y-129613477D01*
X60558021Y-129448579D01*
X60391712Y-129247546D01*
X60267622Y-129018046D01*
X60190469Y-128768805D01*
X60160000Y-128478911D01*
X60160000Y-123606000D01*
X68338928Y-123606000D01*
X68338928Y-124806000D01*
X68355992Y-124979254D01*
X68406528Y-125145850D01*
X68488595Y-125299386D01*
X68599038Y-125433962D01*
X68733614Y-125544405D01*
X68887150Y-125626472D01*
X69053746Y-125677008D01*
X69227000Y-125694072D01*
X70727000Y-125694072D01*
X70900254Y-125677008D01*
X71066850Y-125626472D01*
X71220386Y-125544405D01*
X71354962Y-125433962D01*
X71465405Y-125299386D01*
X71547472Y-125145850D01*
X71598008Y-124979254D01*
X71615072Y-124806000D01*
X71615072Y-123606000D01*
X71598008Y-123432746D01*
X71547472Y-123266150D01*
X71465405Y-123112614D01*
X71354962Y-122978038D01*
X71220386Y-122867595D01*
X71118407Y-122813086D01*
X71118795Y-122812802D01*
X71315664Y-122598046D01*
X71466854Y-122349009D01*
X71566554Y-122075261D01*
X71568476Y-122062890D01*
X71447155Y-121833000D01*
X70104000Y-121833000D01*
X70104000Y-121853000D01*
X69850000Y-121853000D01*
X69850000Y-121833000D01*
X68506845Y-121833000D01*
X68385524Y-122062890D01*
X68387446Y-122075261D01*
X68487146Y-122349009D01*
X68638336Y-122598046D01*
X68835205Y-122812802D01*
X68835593Y-122813086D01*
X68733614Y-122867595D01*
X68599038Y-122978038D01*
X68488595Y-123112614D01*
X68406528Y-123266150D01*
X68355992Y-123432746D01*
X68338928Y-123606000D01*
X60160000Y-123606000D01*
X60160000Y-117780000D01*
X61791928Y-117780000D01*
X61804188Y-117904482D01*
X61840498Y-118024180D01*
X61899463Y-118134494D01*
X61978815Y-118231185D01*
X62075506Y-118310537D01*
X62185820Y-118369502D01*
X62305518Y-118405812D01*
X62430000Y-118418072D01*
X63144250Y-118415000D01*
X63303000Y-118256250D01*
X63303000Y-117407000D01*
X63557000Y-117407000D01*
X63557000Y-118256250D01*
X63715750Y-118415000D01*
X64430000Y-118418072D01*
X64554482Y-118405812D01*
X64674180Y-118369502D01*
X64784494Y-118310537D01*
X64881185Y-118231185D01*
X64960537Y-118134494D01*
X65019502Y-118024180D01*
X65055812Y-117904482D01*
X65068072Y-117780000D01*
X65065000Y-117565750D01*
X64906250Y-117407000D01*
X63557000Y-117407000D01*
X63303000Y-117407000D01*
X61953750Y-117407000D01*
X61795000Y-117565750D01*
X61791928Y-117780000D01*
X60160000Y-117780000D01*
X60160000Y-116780000D01*
X61791928Y-116780000D01*
X61795000Y-116994250D01*
X61953750Y-117153000D01*
X63303000Y-117153000D01*
X63303000Y-116303750D01*
X63557000Y-116303750D01*
X63557000Y-117153000D01*
X64906250Y-117153000D01*
X65065000Y-116994250D01*
X65068072Y-116780000D01*
X65055812Y-116655518D01*
X65019502Y-116535820D01*
X64960537Y-116425506D01*
X64881185Y-116328815D01*
X64784494Y-116249463D01*
X64674180Y-116190498D01*
X64554482Y-116154188D01*
X64430000Y-116141928D01*
X63715750Y-116145000D01*
X63557000Y-116303750D01*
X63303000Y-116303750D01*
X63144250Y-116145000D01*
X62430000Y-116141928D01*
X62305518Y-116154188D01*
X62185820Y-116190498D01*
X62075506Y-116249463D01*
X61978815Y-116328815D01*
X61899463Y-116425506D01*
X61840498Y-116535820D01*
X61804188Y-116655518D01*
X61791928Y-116780000D01*
X60160000Y-116780000D01*
X60160000Y-105987449D01*
X64638831Y-105903632D01*
X68000180Y-109264981D01*
X67986306Y-109266348D01*
X67971509Y-109267805D01*
X67938911Y-109277694D01*
X67804687Y-109318411D01*
X67650941Y-109400589D01*
X67644062Y-109406234D01*
X67531898Y-109359774D01*
X67331939Y-109320000D01*
X67128061Y-109320000D01*
X66928102Y-109359774D01*
X66739744Y-109437795D01*
X66570226Y-109551063D01*
X66426063Y-109695226D01*
X66312795Y-109864744D01*
X66234774Y-110053102D01*
X66195000Y-110253061D01*
X66195000Y-110456939D01*
X66224640Y-110605951D01*
X66070256Y-110502795D01*
X65881898Y-110424774D01*
X65681939Y-110385000D01*
X65478061Y-110385000D01*
X65278102Y-110424774D01*
X65089744Y-110502795D01*
X64920226Y-110616063D01*
X64776063Y-110760226D01*
X64662795Y-110929744D01*
X64584774Y-111118102D01*
X64545000Y-111318061D01*
X64545000Y-111521939D01*
X64584774Y-111721898D01*
X64662795Y-111910256D01*
X64776063Y-112079774D01*
X64920226Y-112223937D01*
X65089744Y-112337205D01*
X65278102Y-112415226D01*
X65478061Y-112455000D01*
X65681939Y-112455000D01*
X65881898Y-112415226D01*
X66070256Y-112337205D01*
X66239774Y-112223937D01*
X66283711Y-112180000D01*
X68513669Y-112180000D01*
X68550991Y-112183676D01*
X68588313Y-112180000D01*
X68588324Y-112180000D01*
X68699977Y-112169003D01*
X68843238Y-112125546D01*
X68845262Y-112124464D01*
X68983466Y-112124464D01*
X69183425Y-112084690D01*
X69371783Y-112006669D01*
X69541301Y-111893401D01*
X69685464Y-111749238D01*
X69798732Y-111579720D01*
X69845701Y-111466328D01*
X69925293Y-111554410D01*
X69945683Y-111578251D01*
X69954398Y-111586619D01*
X69962515Y-111595602D01*
X69985777Y-111616749D01*
X71178424Y-112761928D01*
X67350000Y-112761928D01*
X67225518Y-112774188D01*
X67105820Y-112810498D01*
X66995506Y-112869463D01*
X66898815Y-112948815D01*
X66819463Y-113045506D01*
X66760498Y-113155820D01*
X66724188Y-113275518D01*
X66711928Y-113400000D01*
X66711928Y-118371184D01*
X65867846Y-118370051D01*
X65830000Y-118366323D01*
X65755687Y-118373642D01*
X65682020Y-118380798D01*
X65681529Y-118380946D01*
X65681014Y-118380997D01*
X65609427Y-118402712D01*
X65538701Y-118424063D01*
X65538250Y-118424303D01*
X65537753Y-118424454D01*
X65471868Y-118459671D01*
X65406577Y-118494457D01*
X65406179Y-118494783D01*
X65405724Y-118495026D01*
X65348023Y-118542380D01*
X65290725Y-118589275D01*
X65266568Y-118618630D01*
X62919003Y-120966196D01*
X62889999Y-120989999D01*
X62834871Y-121057174D01*
X62795026Y-121105724D01*
X62775674Y-121141928D01*
X62430000Y-121141928D01*
X62305518Y-121154188D01*
X62185820Y-121190498D01*
X62075506Y-121249463D01*
X61978815Y-121328815D01*
X61899463Y-121425506D01*
X61840498Y-121535820D01*
X61804188Y-121655518D01*
X61791928Y-121780000D01*
X61791928Y-122780000D01*
X61804188Y-122904482D01*
X61840498Y-123024180D01*
X61899463Y-123134494D01*
X61978815Y-123231185D01*
X62075506Y-123310537D01*
X62185820Y-123369502D01*
X62305518Y-123405812D01*
X62430000Y-123418072D01*
X64430000Y-123418072D01*
X64554482Y-123405812D01*
X64674180Y-123369502D01*
X64784494Y-123310537D01*
X64881185Y-123231185D01*
X64960537Y-123134494D01*
X65019502Y-123024180D01*
X65055812Y-122904482D01*
X65068072Y-122780000D01*
X65068072Y-121780000D01*
X65055812Y-121655518D01*
X65019502Y-121535820D01*
X64960537Y-121425506D01*
X64897841Y-121349110D01*
X68385524Y-121349110D01*
X68506845Y-121579000D01*
X69850000Y-121579000D01*
X69850000Y-120378768D01*
X70104000Y-120378768D01*
X70104000Y-121579000D01*
X71447155Y-121579000D01*
X71568476Y-121349110D01*
X71566554Y-121336739D01*
X71466854Y-121062991D01*
X71383732Y-120926073D01*
X92341475Y-120926073D01*
X92341475Y-122073927D01*
X92512554Y-123208961D01*
X92850890Y-124305819D01*
X93348925Y-125340000D01*
X93995534Y-126288402D01*
X94776273Y-127129838D01*
X95673702Y-127845514D01*
X96667773Y-128419441D01*
X97736280Y-128838799D01*
X98855355Y-129094221D01*
X100000000Y-129180000D01*
X101144645Y-129094221D01*
X102263720Y-128838799D01*
X103332227Y-128419441D01*
X104326298Y-127845514D01*
X105223727Y-127129838D01*
X106004466Y-126288402D01*
X106651075Y-125340000D01*
X107149110Y-124305819D01*
X107487446Y-123208961D01*
X107658525Y-122073927D01*
X107658525Y-120926073D01*
X107487446Y-119791039D01*
X107149110Y-118694181D01*
X106651075Y-117660000D01*
X106004466Y-116711598D01*
X105223727Y-115870162D01*
X104326298Y-115154486D01*
X103332227Y-114580559D01*
X102263720Y-114161201D01*
X101144645Y-113905779D01*
X100000000Y-113820000D01*
X98855355Y-113905779D01*
X97736280Y-114161201D01*
X96667773Y-114580559D01*
X95673702Y-115154486D01*
X94776273Y-115870162D01*
X93995534Y-116711598D01*
X93348925Y-117660000D01*
X92850890Y-118694181D01*
X92512554Y-119791039D01*
X92341475Y-120926073D01*
X71383732Y-120926073D01*
X71315664Y-120813954D01*
X71118795Y-120599198D01*
X70883812Y-120426975D01*
X70619745Y-120303904D01*
X70336742Y-120234715D01*
X70104000Y-120378768D01*
X69850000Y-120378768D01*
X69617258Y-120234715D01*
X69334255Y-120303904D01*
X69070188Y-120426975D01*
X68835205Y-120599198D01*
X68638336Y-120813954D01*
X68487146Y-121062991D01*
X68387446Y-121336739D01*
X68385524Y-121349110D01*
X64897841Y-121349110D01*
X64881185Y-121328815D01*
X64784958Y-121249844D01*
X66144379Y-119890423D01*
X72574343Y-119899054D01*
X72619226Y-119943937D01*
X72788744Y-120057205D01*
X72977102Y-120135226D01*
X73177061Y-120175000D01*
X73380939Y-120175000D01*
X73580898Y-120135226D01*
X73769256Y-120057205D01*
X73938774Y-119943937D01*
X74082937Y-119799774D01*
X74196205Y-119630256D01*
X74274226Y-119441898D01*
X74314000Y-119241939D01*
X74314000Y-119038072D01*
X77850000Y-119038072D01*
X77974482Y-119025812D01*
X78094180Y-118989502D01*
X78204494Y-118930537D01*
X78301185Y-118851185D01*
X78380537Y-118754494D01*
X78439502Y-118644180D01*
X78475812Y-118524482D01*
X78488072Y-118400000D01*
X78488072Y-116775683D01*
X78523490Y-116772195D01*
X78690313Y-116721589D01*
X78813644Y-116655668D01*
X78834774Y-116761898D01*
X78912795Y-116950256D01*
X79026063Y-117119774D01*
X79170226Y-117263937D01*
X79339744Y-117377205D01*
X79528102Y-117455226D01*
X79728061Y-117495000D01*
X79931939Y-117495000D01*
X80131898Y-117455226D01*
X80320256Y-117377205D01*
X80489774Y-117263937D01*
X80633937Y-117119774D01*
X80747205Y-116950256D01*
X80825226Y-116761898D01*
X80865000Y-116561939D01*
X80865000Y-116358061D01*
X80825226Y-116158102D01*
X80747205Y-115969744D01*
X80633937Y-115800226D01*
X80590000Y-115756289D01*
X80590000Y-112004801D01*
X82971004Y-109623798D01*
X83000001Y-109600001D01*
X83094974Y-109484276D01*
X83165546Y-109352247D01*
X83209003Y-109208986D01*
X83220000Y-109097333D01*
X83220000Y-109097325D01*
X83223676Y-109060000D01*
X83220000Y-109022675D01*
X83220000Y-107210000D01*
X85689171Y-107210000D01*
X85961928Y-107217793D01*
X85961928Y-107350000D01*
X85974188Y-107474482D01*
X86010498Y-107594180D01*
X86069463Y-107704494D01*
X86148815Y-107801185D01*
X86245506Y-107880537D01*
X86355820Y-107939502D01*
X86475518Y-107975812D01*
X86600000Y-107988072D01*
X88300000Y-107988072D01*
X88424482Y-107975812D01*
X88544180Y-107939502D01*
X88654494Y-107880537D01*
X88751185Y-107801185D01*
X88830537Y-107704494D01*
X88889502Y-107594180D01*
X88925812Y-107474482D01*
X88938072Y-107350000D01*
X88938072Y-105650000D01*
X88925812Y-105525518D01*
X88889502Y-105405820D01*
X88830537Y-105295506D01*
X88757463Y-105206465D01*
X88896632Y-105113475D01*
X89103475Y-104906632D01*
X89265990Y-104663411D01*
X89377932Y-104393158D01*
X89435000Y-104106260D01*
X89435000Y-103813740D01*
X89391210Y-103593592D01*
X90181014Y-102803788D01*
X90210012Y-102779990D01*
X90267266Y-102710226D01*
X90304985Y-102664266D01*
X90375557Y-102532236D01*
X90380384Y-102516323D01*
X90419014Y-102388975D01*
X90430011Y-102277322D01*
X90430011Y-102277312D01*
X90433687Y-102239989D01*
X90430011Y-102202666D01*
X90430011Y-93181920D01*
X90433687Y-93144597D01*
X90430011Y-93107274D01*
X90430011Y-93107265D01*
X90419014Y-92995612D01*
X90375557Y-92852351D01*
X90304985Y-92720322D01*
X90210012Y-92604597D01*
X90181015Y-92580800D01*
X89763697Y-92163483D01*
X89760969Y-92157478D01*
X89746591Y-92137458D01*
X89734974Y-92115724D01*
X89703019Y-92076786D01*
X89673641Y-92035880D01*
X89628346Y-91993544D01*
X89060000Y-91425199D01*
X89060000Y-83964801D01*
X89596003Y-83428798D01*
X89625002Y-83405000D01*
X89663777Y-83357753D01*
X89719975Y-83289276D01*
X89761247Y-83212062D01*
X90016842Y-83317932D01*
X90303740Y-83375000D01*
X90596260Y-83375000D01*
X90883158Y-83317932D01*
X91153411Y-83205990D01*
X91396632Y-83043475D01*
X91603475Y-82836632D01*
X91765990Y-82593411D01*
X91877932Y-82323158D01*
X91935000Y-82036260D01*
X91935000Y-81743740D01*
X91920539Y-81671040D01*
X92345051Y-81246528D01*
X92378818Y-81218816D01*
X92489412Y-81084058D01*
X92571590Y-80930312D01*
X92622196Y-80763489D01*
X92635001Y-80633476D01*
X92635001Y-80633466D01*
X92637057Y-80612590D01*
X92850890Y-81305819D01*
X93348925Y-82340000D01*
X93995534Y-83288402D01*
X94776273Y-84129838D01*
X95673702Y-84845514D01*
X96667773Y-85419441D01*
X97736280Y-85838799D01*
X98855355Y-86094221D01*
X100000000Y-86180000D01*
X101144645Y-86094221D01*
X102263720Y-85838799D01*
X103332227Y-85419441D01*
X104326298Y-84845514D01*
X105223727Y-84129838D01*
X106004466Y-83288402D01*
X106651075Y-82340000D01*
X107149110Y-81305819D01*
X107487446Y-80208961D01*
X107658525Y-79073927D01*
X107658525Y-77926073D01*
X107487446Y-76791039D01*
X107149110Y-75694181D01*
X106651075Y-74660000D01*
X106004466Y-73711598D01*
X105223727Y-72870162D01*
X104326298Y-72154486D01*
X103332227Y-71580559D01*
X102263720Y-71161201D01*
X101144645Y-70905779D01*
X100000000Y-70820000D01*
X98855355Y-70905779D01*
X97736280Y-71161201D01*
X96667773Y-71580559D01*
X95673702Y-72154486D01*
X94776273Y-72870162D01*
X93995534Y-73711598D01*
X93348925Y-74660000D01*
X92850890Y-75694181D01*
X92571582Y-76599674D01*
X92489412Y-76445942D01*
X92465211Y-76416453D01*
X92406533Y-76344954D01*
X92406531Y-76344952D01*
X92378818Y-76311184D01*
X92345050Y-76283471D01*
X91310000Y-75248422D01*
X91310000Y-74288072D01*
X91425000Y-74288072D01*
X91549482Y-74275812D01*
X91669180Y-74239502D01*
X91779494Y-74180537D01*
X91876185Y-74101185D01*
X91955537Y-74004494D01*
X92014502Y-73894180D01*
X92050812Y-73774482D01*
X92063072Y-73650000D01*
X92063072Y-70160000D01*
X99979835Y-70160000D01*
X101199045Y-70234570D01*
G37*
X101199045Y-70234570D02*
X102380212Y-70453486D01*
X103525895Y-70814719D01*
X104619026Y-71312887D01*
X105643286Y-71940555D01*
X106583421Y-72688372D01*
X107425413Y-73545189D01*
X108156708Y-74498231D01*
X108766402Y-75533287D01*
X109245416Y-76634941D01*
X109586599Y-77786755D01*
X109785347Y-78974426D01*
X109840001Y-80017310D01*
X109840000Y-89812474D01*
X92210001Y-89775436D01*
X92210001Y-87901159D01*
X92340256Y-87847205D01*
X92509774Y-87733937D01*
X92653937Y-87589774D01*
X92767205Y-87420256D01*
X92845226Y-87231898D01*
X92885000Y-87031939D01*
X92885000Y-86828061D01*
X92845226Y-86628102D01*
X92767205Y-86439744D01*
X92653937Y-86270226D01*
X92509774Y-86126063D01*
X92340256Y-86012795D01*
X92151898Y-85934774D01*
X91951939Y-85895000D01*
X91748061Y-85895000D01*
X91548102Y-85934774D01*
X91359744Y-86012795D01*
X91190226Y-86126063D01*
X91046063Y-86270226D01*
X90932795Y-86439744D01*
X90854774Y-86628102D01*
X90815000Y-86828061D01*
X90815000Y-86905774D01*
X90802050Y-86930001D01*
X90744455Y-87037753D01*
X90700998Y-87181014D01*
X90690001Y-87292667D01*
X90690001Y-87292677D01*
X90686325Y-87329999D01*
X90690001Y-87367321D01*
X90690002Y-109115196D01*
X89010199Y-110795000D01*
X88918061Y-110795000D01*
X88718102Y-110834774D01*
X88529744Y-110912795D01*
X88360226Y-111026063D01*
X88216063Y-111170226D01*
X88102795Y-111339744D01*
X88024774Y-111528102D01*
X87985000Y-111728061D01*
X87985000Y-111931939D01*
X88024774Y-112131898D01*
X88102795Y-112320256D01*
X88216063Y-112489774D01*
X88360226Y-112633937D01*
X88529744Y-112747205D01*
X88718102Y-112825226D01*
X88918061Y-112865000D01*
X89121939Y-112865000D01*
X89321898Y-112825226D01*
X89510256Y-112747205D01*
X89679774Y-112633937D01*
X89823937Y-112489774D01*
X89937205Y-112320256D01*
X90015226Y-112131898D01*
X90055000Y-111931939D01*
X90055000Y-111899801D01*
X91625797Y-110329005D01*
X109840000Y-110405696D01*
X109840001Y-119979819D01*
X109765430Y-121199045D01*
X109546513Y-122380213D01*
X109185281Y-123525895D01*
X108687116Y-124619020D01*
X108059448Y-125643282D01*
X107311628Y-126583421D01*
X106454811Y-127425413D01*
X105501769Y-128156708D01*
X104466710Y-128766404D01*
X103365052Y-129245418D01*
X102213237Y-129586601D01*
X101025574Y-129785347D01*
X99982726Y-129840000D01*
X61532279Y-129840000D01*
X61240340Y-129811375D01*
X60990571Y-129735965D01*
X60760206Y-129613477D01*
X60558021Y-129448579D01*
X60391712Y-129247546D01*
X60267622Y-129018046D01*
X60190469Y-128768805D01*
X60160000Y-128478911D01*
X60160000Y-123606000D01*
X68338928Y-123606000D01*
X68338928Y-124806000D01*
X68355992Y-124979254D01*
X68406528Y-125145850D01*
X68488595Y-125299386D01*
X68599038Y-125433962D01*
X68733614Y-125544405D01*
X68887150Y-125626472D01*
X69053746Y-125677008D01*
X69227000Y-125694072D01*
X70727000Y-125694072D01*
X70900254Y-125677008D01*
X71066850Y-125626472D01*
X71220386Y-125544405D01*
X71354962Y-125433962D01*
X71465405Y-125299386D01*
X71547472Y-125145850D01*
X71598008Y-124979254D01*
X71615072Y-124806000D01*
X71615072Y-123606000D01*
X71598008Y-123432746D01*
X71547472Y-123266150D01*
X71465405Y-123112614D01*
X71354962Y-122978038D01*
X71220386Y-122867595D01*
X71118407Y-122813086D01*
X71118795Y-122812802D01*
X71315664Y-122598046D01*
X71466854Y-122349009D01*
X71566554Y-122075261D01*
X71568476Y-122062890D01*
X71447155Y-121833000D01*
X70104000Y-121833000D01*
X70104000Y-121853000D01*
X69850000Y-121853000D01*
X69850000Y-121833000D01*
X68506845Y-121833000D01*
X68385524Y-122062890D01*
X68387446Y-122075261D01*
X68487146Y-122349009D01*
X68638336Y-122598046D01*
X68835205Y-122812802D01*
X68835593Y-122813086D01*
X68733614Y-122867595D01*
X68599038Y-122978038D01*
X68488595Y-123112614D01*
X68406528Y-123266150D01*
X68355992Y-123432746D01*
X68338928Y-123606000D01*
X60160000Y-123606000D01*
X60160000Y-117780000D01*
X61791928Y-117780000D01*
X61804188Y-117904482D01*
X61840498Y-118024180D01*
X61899463Y-118134494D01*
X61978815Y-118231185D01*
X62075506Y-118310537D01*
X62185820Y-118369502D01*
X62305518Y-118405812D01*
X62430000Y-118418072D01*
X63144250Y-118415000D01*
X63303000Y-118256250D01*
X63303000Y-117407000D01*
X63557000Y-117407000D01*
X63557000Y-118256250D01*
X63715750Y-118415000D01*
X64430000Y-118418072D01*
X64554482Y-118405812D01*
X64674180Y-118369502D01*
X64784494Y-118310537D01*
X64881185Y-118231185D01*
X64960537Y-118134494D01*
X65019502Y-118024180D01*
X65055812Y-117904482D01*
X65068072Y-117780000D01*
X65065000Y-117565750D01*
X64906250Y-117407000D01*
X63557000Y-117407000D01*
X63303000Y-117407000D01*
X61953750Y-117407000D01*
X61795000Y-117565750D01*
X61791928Y-117780000D01*
X60160000Y-117780000D01*
X60160000Y-116780000D01*
X61791928Y-116780000D01*
X61795000Y-116994250D01*
X61953750Y-117153000D01*
X63303000Y-117153000D01*
X63303000Y-116303750D01*
X63557000Y-116303750D01*
X63557000Y-117153000D01*
X64906250Y-117153000D01*
X65065000Y-116994250D01*
X65068072Y-116780000D01*
X65055812Y-116655518D01*
X65019502Y-116535820D01*
X64960537Y-116425506D01*
X64881185Y-116328815D01*
X64784494Y-116249463D01*
X64674180Y-116190498D01*
X64554482Y-116154188D01*
X64430000Y-116141928D01*
X63715750Y-116145000D01*
X63557000Y-116303750D01*
X63303000Y-116303750D01*
X63144250Y-116145000D01*
X62430000Y-116141928D01*
X62305518Y-116154188D01*
X62185820Y-116190498D01*
X62075506Y-116249463D01*
X61978815Y-116328815D01*
X61899463Y-116425506D01*
X61840498Y-116535820D01*
X61804188Y-116655518D01*
X61791928Y-116780000D01*
X60160000Y-116780000D01*
X60160000Y-105987449D01*
X64638831Y-105903632D01*
X68000180Y-109264981D01*
X67986306Y-109266348D01*
X67971509Y-109267805D01*
X67938911Y-109277694D01*
X67804687Y-109318411D01*
X67650941Y-109400589D01*
X67644062Y-109406234D01*
X67531898Y-109359774D01*
X67331939Y-109320000D01*
X67128061Y-109320000D01*
X66928102Y-109359774D01*
X66739744Y-109437795D01*
X66570226Y-109551063D01*
X66426063Y-109695226D01*
X66312795Y-109864744D01*
X66234774Y-110053102D01*
X66195000Y-110253061D01*
X66195000Y-110456939D01*
X66224640Y-110605951D01*
X66070256Y-110502795D01*
X65881898Y-110424774D01*
X65681939Y-110385000D01*
X65478061Y-110385000D01*
X65278102Y-110424774D01*
X65089744Y-110502795D01*
X64920226Y-110616063D01*
X64776063Y-110760226D01*
X64662795Y-110929744D01*
X64584774Y-111118102D01*
X64545000Y-111318061D01*
X64545000Y-111521939D01*
X64584774Y-111721898D01*
X64662795Y-111910256D01*
X64776063Y-112079774D01*
X64920226Y-112223937D01*
X65089744Y-112337205D01*
X65278102Y-112415226D01*
X65478061Y-112455000D01*
X65681939Y-112455000D01*
X65881898Y-112415226D01*
X66070256Y-112337205D01*
X66239774Y-112223937D01*
X66283711Y-112180000D01*
X68513669Y-112180000D01*
X68550991Y-112183676D01*
X68588313Y-112180000D01*
X68588324Y-112180000D01*
X68699977Y-112169003D01*
X68843238Y-112125546D01*
X68845262Y-112124464D01*
X68983466Y-112124464D01*
X69183425Y-112084690D01*
X69371783Y-112006669D01*
X69541301Y-111893401D01*
X69685464Y-111749238D01*
X69798732Y-111579720D01*
X69845701Y-111466328D01*
X69925293Y-111554410D01*
X69945683Y-111578251D01*
X69954398Y-111586619D01*
X69962515Y-111595602D01*
X69985777Y-111616749D01*
X71178424Y-112761928D01*
X67350000Y-112761928D01*
X67225518Y-112774188D01*
X67105820Y-112810498D01*
X66995506Y-112869463D01*
X66898815Y-112948815D01*
X66819463Y-113045506D01*
X66760498Y-113155820D01*
X66724188Y-113275518D01*
X66711928Y-113400000D01*
X66711928Y-118371184D01*
X65867846Y-118370051D01*
X65830000Y-118366323D01*
X65755687Y-118373642D01*
X65682020Y-118380798D01*
X65681529Y-118380946D01*
X65681014Y-118380997D01*
X65609427Y-118402712D01*
X65538701Y-118424063D01*
X65538250Y-118424303D01*
X65537753Y-118424454D01*
X65471868Y-118459671D01*
X65406577Y-118494457D01*
X65406179Y-118494783D01*
X65405724Y-118495026D01*
X65348023Y-118542380D01*
X65290725Y-118589275D01*
X65266568Y-118618630D01*
X62919003Y-120966196D01*
X62889999Y-120989999D01*
X62834871Y-121057174D01*
X62795026Y-121105724D01*
X62775674Y-121141928D01*
X62430000Y-121141928D01*
X62305518Y-121154188D01*
X62185820Y-121190498D01*
X62075506Y-121249463D01*
X61978815Y-121328815D01*
X61899463Y-121425506D01*
X61840498Y-121535820D01*
X61804188Y-121655518D01*
X61791928Y-121780000D01*
X61791928Y-122780000D01*
X61804188Y-122904482D01*
X61840498Y-123024180D01*
X61899463Y-123134494D01*
X61978815Y-123231185D01*
X62075506Y-123310537D01*
X62185820Y-123369502D01*
X62305518Y-123405812D01*
X62430000Y-123418072D01*
X64430000Y-123418072D01*
X64554482Y-123405812D01*
X64674180Y-123369502D01*
X64784494Y-123310537D01*
X64881185Y-123231185D01*
X64960537Y-123134494D01*
X65019502Y-123024180D01*
X65055812Y-122904482D01*
X65068072Y-122780000D01*
X65068072Y-121780000D01*
X65055812Y-121655518D01*
X65019502Y-121535820D01*
X64960537Y-121425506D01*
X64897841Y-121349110D01*
X68385524Y-121349110D01*
X68506845Y-121579000D01*
X69850000Y-121579000D01*
X69850000Y-120378768D01*
X70104000Y-120378768D01*
X70104000Y-121579000D01*
X71447155Y-121579000D01*
X71568476Y-121349110D01*
X71566554Y-121336739D01*
X71466854Y-121062991D01*
X71383732Y-120926073D01*
X92341475Y-120926073D01*
X92341475Y-122073927D01*
X92512554Y-123208961D01*
X92850890Y-124305819D01*
X93348925Y-125340000D01*
X93995534Y-126288402D01*
X94776273Y-127129838D01*
X95673702Y-127845514D01*
X96667773Y-128419441D01*
X97736280Y-128838799D01*
X98855355Y-129094221D01*
X100000000Y-129180000D01*
X101144645Y-129094221D01*
X102263720Y-128838799D01*
X103332227Y-128419441D01*
X104326298Y-127845514D01*
X105223727Y-127129838D01*
X106004466Y-126288402D01*
X106651075Y-125340000D01*
X107149110Y-124305819D01*
X107487446Y-123208961D01*
X107658525Y-122073927D01*
X107658525Y-120926073D01*
X107487446Y-119791039D01*
X107149110Y-118694181D01*
X106651075Y-117660000D01*
X106004466Y-116711598D01*
X105223727Y-115870162D01*
X104326298Y-115154486D01*
X103332227Y-114580559D01*
X102263720Y-114161201D01*
X101144645Y-113905779D01*
X100000000Y-113820000D01*
X98855355Y-113905779D01*
X97736280Y-114161201D01*
X96667773Y-114580559D01*
X95673702Y-115154486D01*
X94776273Y-115870162D01*
X93995534Y-116711598D01*
X93348925Y-117660000D01*
X92850890Y-118694181D01*
X92512554Y-119791039D01*
X92341475Y-120926073D01*
X71383732Y-120926073D01*
X71315664Y-120813954D01*
X71118795Y-120599198D01*
X70883812Y-120426975D01*
X70619745Y-120303904D01*
X70336742Y-120234715D01*
X70104000Y-120378768D01*
X69850000Y-120378768D01*
X69617258Y-120234715D01*
X69334255Y-120303904D01*
X69070188Y-120426975D01*
X68835205Y-120599198D01*
X68638336Y-120813954D01*
X68487146Y-121062991D01*
X68387446Y-121336739D01*
X68385524Y-121349110D01*
X64897841Y-121349110D01*
X64881185Y-121328815D01*
X64784958Y-121249844D01*
X66144379Y-119890423D01*
X72574343Y-119899054D01*
X72619226Y-119943937D01*
X72788744Y-120057205D01*
X72977102Y-120135226D01*
X73177061Y-120175000D01*
X73380939Y-120175000D01*
X73580898Y-120135226D01*
X73769256Y-120057205D01*
X73938774Y-119943937D01*
X74082937Y-119799774D01*
X74196205Y-119630256D01*
X74274226Y-119441898D01*
X74314000Y-119241939D01*
X74314000Y-119038072D01*
X77850000Y-119038072D01*
X77974482Y-119025812D01*
X78094180Y-118989502D01*
X78204494Y-118930537D01*
X78301185Y-118851185D01*
X78380537Y-118754494D01*
X78439502Y-118644180D01*
X78475812Y-118524482D01*
X78488072Y-118400000D01*
X78488072Y-116775683D01*
X78523490Y-116772195D01*
X78690313Y-116721589D01*
X78813644Y-116655668D01*
X78834774Y-116761898D01*
X78912795Y-116950256D01*
X79026063Y-117119774D01*
X79170226Y-117263937D01*
X79339744Y-117377205D01*
X79528102Y-117455226D01*
X79728061Y-117495000D01*
X79931939Y-117495000D01*
X80131898Y-117455226D01*
X80320256Y-117377205D01*
X80489774Y-117263937D01*
X80633937Y-117119774D01*
X80747205Y-116950256D01*
X80825226Y-116761898D01*
X80865000Y-116561939D01*
X80865000Y-116358061D01*
X80825226Y-116158102D01*
X80747205Y-115969744D01*
X80633937Y-115800226D01*
X80590000Y-115756289D01*
X80590000Y-112004801D01*
X82971004Y-109623798D01*
X83000001Y-109600001D01*
X83094974Y-109484276D01*
X83165546Y-109352247D01*
X83209003Y-109208986D01*
X83220000Y-109097333D01*
X83220000Y-109097325D01*
X83223676Y-109060000D01*
X83220000Y-109022675D01*
X83220000Y-107210000D01*
X85689171Y-107210000D01*
X85961928Y-107217793D01*
X85961928Y-107350000D01*
X85974188Y-107474482D01*
X86010498Y-107594180D01*
X86069463Y-107704494D01*
X86148815Y-107801185D01*
X86245506Y-107880537D01*
X86355820Y-107939502D01*
X86475518Y-107975812D01*
X86600000Y-107988072D01*
X88300000Y-107988072D01*
X88424482Y-107975812D01*
X88544180Y-107939502D01*
X88654494Y-107880537D01*
X88751185Y-107801185D01*
X88830537Y-107704494D01*
X88889502Y-107594180D01*
X88925812Y-107474482D01*
X88938072Y-107350000D01*
X88938072Y-105650000D01*
X88925812Y-105525518D01*
X88889502Y-105405820D01*
X88830537Y-105295506D01*
X88757463Y-105206465D01*
X88896632Y-105113475D01*
X89103475Y-104906632D01*
X89265990Y-104663411D01*
X89377932Y-104393158D01*
X89435000Y-104106260D01*
X89435000Y-103813740D01*
X89391210Y-103593592D01*
X90181014Y-102803788D01*
X90210012Y-102779990D01*
X90267266Y-102710226D01*
X90304985Y-102664266D01*
X90375557Y-102532236D01*
X90380384Y-102516323D01*
X90419014Y-102388975D01*
X90430011Y-102277322D01*
X90430011Y-102277312D01*
X90433687Y-102239989D01*
X90430011Y-102202666D01*
X90430011Y-93181920D01*
X90433687Y-93144597D01*
X90430011Y-93107274D01*
X90430011Y-93107265D01*
X90419014Y-92995612D01*
X90375557Y-92852351D01*
X90304985Y-92720322D01*
X90210012Y-92604597D01*
X90181015Y-92580800D01*
X89763697Y-92163483D01*
X89760969Y-92157478D01*
X89746591Y-92137458D01*
X89734974Y-92115724D01*
X89703019Y-92076786D01*
X89673641Y-92035880D01*
X89628346Y-91993544D01*
X89060000Y-91425199D01*
X89060000Y-83964801D01*
X89596003Y-83428798D01*
X89625002Y-83405000D01*
X89663777Y-83357753D01*
X89719975Y-83289276D01*
X89761247Y-83212062D01*
X90016842Y-83317932D01*
X90303740Y-83375000D01*
X90596260Y-83375000D01*
X90883158Y-83317932D01*
X91153411Y-83205990D01*
X91396632Y-83043475D01*
X91603475Y-82836632D01*
X91765990Y-82593411D01*
X91877932Y-82323158D01*
X91935000Y-82036260D01*
X91935000Y-81743740D01*
X91920539Y-81671040D01*
X92345051Y-81246528D01*
X92378818Y-81218816D01*
X92489412Y-81084058D01*
X92571590Y-80930312D01*
X92622196Y-80763489D01*
X92635001Y-80633476D01*
X92635001Y-80633466D01*
X92637057Y-80612590D01*
X92850890Y-81305819D01*
X93348925Y-82340000D01*
X93995534Y-83288402D01*
X94776273Y-84129838D01*
X95673702Y-84845514D01*
X96667773Y-85419441D01*
X97736280Y-85838799D01*
X98855355Y-86094221D01*
X100000000Y-86180000D01*
X101144645Y-86094221D01*
X102263720Y-85838799D01*
X103332227Y-85419441D01*
X104326298Y-84845514D01*
X105223727Y-84129838D01*
X106004466Y-83288402D01*
X106651075Y-82340000D01*
X107149110Y-81305819D01*
X107487446Y-80208961D01*
X107658525Y-79073927D01*
X107658525Y-77926073D01*
X107487446Y-76791039D01*
X107149110Y-75694181D01*
X106651075Y-74660000D01*
X106004466Y-73711598D01*
X105223727Y-72870162D01*
X104326298Y-72154486D01*
X103332227Y-71580559D01*
X102263720Y-71161201D01*
X101144645Y-70905779D01*
X100000000Y-70820000D01*
X98855355Y-70905779D01*
X97736280Y-71161201D01*
X96667773Y-71580559D01*
X95673702Y-72154486D01*
X94776273Y-72870162D01*
X93995534Y-73711598D01*
X93348925Y-74660000D01*
X92850890Y-75694181D01*
X92571582Y-76599674D01*
X92489412Y-76445942D01*
X92465211Y-76416453D01*
X92406533Y-76344954D01*
X92406531Y-76344952D01*
X92378818Y-76311184D01*
X92345050Y-76283471D01*
X91310000Y-75248422D01*
X91310000Y-74288072D01*
X91425000Y-74288072D01*
X91549482Y-74275812D01*
X91669180Y-74239502D01*
X91779494Y-74180537D01*
X91876185Y-74101185D01*
X91955537Y-74004494D01*
X92014502Y-73894180D01*
X92050812Y-73774482D01*
X92063072Y-73650000D01*
X92063072Y-70160000D01*
X99979835Y-70160000D01*
X101199045Y-70234570D01*
G36*
X78626928Y-71523000D02*
G01*
X80138000Y-71523000D01*
X80138000Y-71503000D01*
X80392000Y-71503000D01*
X80392000Y-71523000D01*
X82678000Y-71523000D01*
X82678000Y-71503000D01*
X82932000Y-71503000D01*
X82932000Y-71523000D01*
X82952000Y-71523000D01*
X82952000Y-71777000D01*
X82932000Y-71777000D01*
X82932000Y-74288072D01*
X83805000Y-74288072D01*
X83929482Y-74275812D01*
X84049180Y-74239502D01*
X84075000Y-74225701D01*
X84100820Y-74239502D01*
X84220518Y-74275812D01*
X84345000Y-74288072D01*
X84580000Y-74288072D01*
X84580001Y-77102668D01*
X84576324Y-77140000D01*
X84590998Y-77288985D01*
X84634454Y-77432246D01*
X84705026Y-77564276D01*
X84774785Y-77649277D01*
X84800000Y-77680001D01*
X84828998Y-77703799D01*
X85028946Y-77903747D01*
X84936842Y-77922068D01*
X84666589Y-78034010D01*
X84423368Y-78196525D01*
X84241858Y-78378035D01*
X84145990Y-78146589D01*
X83983475Y-77903368D01*
X83776632Y-77696525D01*
X83533411Y-77534010D01*
X83263158Y-77422068D01*
X82976260Y-77365000D01*
X82683740Y-77365000D01*
X82396842Y-77422068D01*
X82126589Y-77534010D01*
X81883368Y-77696525D01*
X81676525Y-77903368D01*
X81514010Y-78146589D01*
X81418142Y-78378035D01*
X81236632Y-78196525D01*
X80993411Y-78034010D01*
X80723158Y-77922068D01*
X80436260Y-77865000D01*
X80143740Y-77865000D01*
X79856842Y-77922068D01*
X79586589Y-78034010D01*
X79343368Y-78196525D01*
X79136525Y-78403368D01*
X78974010Y-78646589D01*
X78862068Y-78916842D01*
X78805000Y-79203740D01*
X78805000Y-79496260D01*
X78862068Y-79783158D01*
X78974010Y-80053411D01*
X79136525Y-80296632D01*
X79343368Y-80503475D01*
X79519406Y-80621100D01*
X79289731Y-80792412D01*
X79094822Y-81008645D01*
X78945843Y-81258748D01*
X78848519Y-81533109D01*
X78969186Y-81763000D01*
X80163000Y-81763000D01*
X80163000Y-81743000D01*
X80417000Y-81743000D01*
X80417000Y-81763000D01*
X80437000Y-81763000D01*
X80437000Y-82017000D01*
X80417000Y-82017000D01*
X80417000Y-83210155D01*
X80646890Y-83331476D01*
X80794099Y-83286825D01*
X81056920Y-83161641D01*
X81290269Y-82987588D01*
X81485178Y-82771355D01*
X81634157Y-82521252D01*
X81697957Y-82341397D01*
X81829731Y-82487588D01*
X82063080Y-82661641D01*
X82325901Y-82786825D01*
X82473110Y-82831476D01*
X82703000Y-82710155D01*
X82703000Y-81517000D01*
X82683000Y-81517000D01*
X82683000Y-81263000D01*
X82703000Y-81263000D01*
X82703000Y-81243000D01*
X82957000Y-81243000D01*
X82957000Y-81263000D01*
X82977000Y-81263000D01*
X82977000Y-81517000D01*
X82957000Y-81517000D01*
X82957000Y-82710155D01*
X83186890Y-82831476D01*
X83334099Y-82786825D01*
X83434999Y-82738765D01*
X83435000Y-98408016D01*
X83010209Y-98832808D01*
X82948071Y-98832808D01*
X82748112Y-98872582D01*
X82559754Y-98950603D01*
X82390236Y-99063871D01*
X82246073Y-99208034D01*
X82132805Y-99377552D01*
X82054784Y-99565910D01*
X82015010Y-99765869D01*
X82015010Y-99969747D01*
X82054784Y-100169706D01*
X82132805Y-100358064D01*
X82246073Y-100527582D01*
X82390236Y-100671745D01*
X82559754Y-100785013D01*
X82748112Y-100863034D01*
X82948071Y-100902808D01*
X83151949Y-100902808D01*
X83351908Y-100863034D01*
X83540266Y-100785013D01*
X83709784Y-100671745D01*
X83853947Y-100527582D01*
X83967215Y-100358064D01*
X84045236Y-100169706D01*
X84085010Y-99969747D01*
X84085010Y-99907609D01*
X84706001Y-99286618D01*
X84735000Y-99262820D01*
X84779962Y-99208034D01*
X84829973Y-99147096D01*
X84900545Y-99015066D01*
X84910777Y-98981335D01*
X84944002Y-98871805D01*
X84954999Y-98760152D01*
X84954999Y-98760142D01*
X84958675Y-98722819D01*
X84954999Y-98685496D01*
X84954999Y-83321544D01*
X85223740Y-83375000D01*
X85516260Y-83375000D01*
X85803158Y-83317932D01*
X86073411Y-83205990D01*
X86096816Y-83190351D01*
X86120725Y-83209973D01*
X86252754Y-83280545D01*
X86328817Y-83303618D01*
X86940000Y-83914802D01*
X86940001Y-91792668D01*
X86936324Y-91830000D01*
X86940001Y-91867333D01*
X86950998Y-91978986D01*
X86959570Y-92007245D01*
X86994454Y-92122246D01*
X87065026Y-92254276D01*
X87128444Y-92331550D01*
X87160000Y-92370001D01*
X87188998Y-92393799D01*
X87276317Y-92481118D01*
X87068645Y-92604822D01*
X86852412Y-92799731D01*
X86678359Y-93033080D01*
X86553175Y-93295901D01*
X86508524Y-93443110D01*
X86629845Y-93673000D01*
X87823000Y-93673000D01*
X87823000Y-93653000D01*
X88077000Y-93653000D01*
X88077000Y-93673000D01*
X88097000Y-93673000D01*
X88097000Y-93927000D01*
X88077000Y-93927000D01*
X88077000Y-93947000D01*
X87823000Y-93947000D01*
X87823000Y-93927000D01*
X86629845Y-93927000D01*
X86508524Y-94156890D01*
X86553175Y-94304099D01*
X86678359Y-94566920D01*
X86852412Y-94800269D01*
X86989162Y-94923533D01*
X86746589Y-95024010D01*
X86503368Y-95186525D01*
X86296525Y-95393368D01*
X86134010Y-95636589D01*
X86022068Y-95906842D01*
X85965000Y-96193740D01*
X85965000Y-96486260D01*
X86022068Y-96773158D01*
X86134010Y-97043411D01*
X86296525Y-97286632D01*
X86503368Y-97493475D01*
X86746589Y-97655990D01*
X86978035Y-97751858D01*
X86796525Y-97933368D01*
X86634010Y-98176589D01*
X86522068Y-98446842D01*
X86465000Y-98733740D01*
X86465000Y-99026260D01*
X86522068Y-99313158D01*
X86634010Y-99583411D01*
X86796525Y-99826632D01*
X86978035Y-100008142D01*
X86746589Y-100104010D01*
X86503368Y-100266525D01*
X86296525Y-100473368D01*
X86171822Y-100660000D01*
X84357325Y-100660000D01*
X84320000Y-100656324D01*
X84282675Y-100660000D01*
X84282667Y-100660000D01*
X84171014Y-100670997D01*
X84027753Y-100714454D01*
X83895724Y-100785026D01*
X83779999Y-100879999D01*
X83756201Y-100908997D01*
X79178998Y-105486201D01*
X79150000Y-105509999D01*
X79126202Y-105538997D01*
X79126201Y-105538998D01*
X79055026Y-105625724D01*
X78984454Y-105757754D01*
X78967081Y-105815027D01*
X78940998Y-105901014D01*
X78931247Y-106000016D01*
X78926324Y-106050000D01*
X78930001Y-106087332D01*
X78930000Y-107845198D01*
X77803886Y-108971313D01*
X74165050Y-108971313D01*
X74121113Y-108927376D01*
X73951595Y-108814108D01*
X73763237Y-108736087D01*
X73563278Y-108696313D01*
X73359400Y-108696313D01*
X73159441Y-108736087D01*
X72971083Y-108814108D01*
X72801565Y-108927376D01*
X72657402Y-109071539D01*
X72544134Y-109241057D01*
X72466113Y-109429415D01*
X72445180Y-109534655D01*
X72317329Y-109481697D01*
X72117370Y-109441923D01*
X72039657Y-109441923D01*
X71907679Y-109371378D01*
X71764418Y-109327921D01*
X71652765Y-109316924D01*
X71652754Y-109316924D01*
X71615432Y-109313248D01*
X71578110Y-109316924D01*
X71541324Y-109316924D01*
X68013399Y-105789000D01*
X72447508Y-105789000D01*
X73195000Y-106566138D01*
X73195000Y-106631939D01*
X73234774Y-106831898D01*
X73312795Y-107020256D01*
X73426063Y-107189774D01*
X73570226Y-107333937D01*
X73739744Y-107447205D01*
X73928102Y-107525226D01*
X74128061Y-107565000D01*
X74331939Y-107565000D01*
X74531898Y-107525226D01*
X74720256Y-107447205D01*
X74889774Y-107333937D01*
X75033937Y-107189774D01*
X75147205Y-107020256D01*
X75225226Y-106831898D01*
X75265000Y-106631939D01*
X75265000Y-106428061D01*
X75225226Y-106228102D01*
X75147205Y-106039744D01*
X75033937Y-105870226D01*
X74889774Y-105726063D01*
X74720256Y-105612795D01*
X74531898Y-105534774D01*
X74331939Y-105495000D01*
X74273725Y-105495000D01*
X74072442Y-105285734D01*
X77850000Y-105288072D01*
X77974482Y-105275812D01*
X78094180Y-105239502D01*
X78204494Y-105180537D01*
X78301185Y-105101185D01*
X78324033Y-105073344D01*
X78359744Y-105097205D01*
X78548102Y-105175226D01*
X78748061Y-105215000D01*
X78951939Y-105215000D01*
X79151898Y-105175226D01*
X79340256Y-105097205D01*
X79509774Y-104983937D01*
X79653937Y-104839774D01*
X79767205Y-104670256D01*
X79845226Y-104481898D01*
X79863347Y-104390796D01*
X79991898Y-104365226D01*
X80180256Y-104287205D01*
X80349774Y-104173937D01*
X80493937Y-104029774D01*
X80607205Y-103860256D01*
X80685226Y-103671898D01*
X80725000Y-103471939D01*
X80725000Y-103268061D01*
X80685226Y-103068102D01*
X80607205Y-102879744D01*
X80493937Y-102710226D01*
X80450000Y-102666289D01*
X80450000Y-92197333D01*
X80453677Y-92160000D01*
X80439003Y-92011014D01*
X80395546Y-91867753D01*
X80324974Y-91735724D01*
X80296305Y-91700791D01*
X80230001Y-91619999D01*
X80200997Y-91596196D01*
X79762783Y-91157982D01*
X78717609Y-89985824D01*
X78680001Y-89939999D01*
X78638940Y-89906301D01*
X78599886Y-89870323D01*
X78581203Y-89858917D01*
X78564276Y-89845026D01*
X78517431Y-89819986D01*
X78472108Y-89792318D01*
X78451560Y-89784777D01*
X78432247Y-89774454D01*
X78381409Y-89759033D01*
X78331566Y-89740741D01*
X78309941Y-89737354D01*
X78288986Y-89730997D01*
X78236121Y-89725790D01*
X78183663Y-89717573D01*
X78124460Y-89720000D01*
X74903711Y-89720000D01*
X74859774Y-89676063D01*
X74690256Y-89562795D01*
X74501898Y-89484774D01*
X74301939Y-89445000D01*
X74098061Y-89445000D01*
X73898102Y-89484774D01*
X73709744Y-89562795D01*
X73540226Y-89676063D01*
X73396063Y-89820226D01*
X73282795Y-89989744D01*
X73204774Y-90178102D01*
X73197246Y-90215947D01*
X73091939Y-90195000D01*
X72888061Y-90195000D01*
X72688102Y-90234774D01*
X72499744Y-90312795D01*
X72330226Y-90426063D01*
X72186063Y-90570226D01*
X72072795Y-90739744D01*
X71994774Y-90928102D01*
X71955000Y-91128061D01*
X71955000Y-91331939D01*
X71994774Y-91531898D01*
X72072795Y-91720256D01*
X72186063Y-91889774D01*
X72330226Y-92033937D01*
X72499744Y-92147205D01*
X72688102Y-92225226D01*
X72888061Y-92265000D01*
X73091939Y-92265000D01*
X73291898Y-92225226D01*
X73480256Y-92147205D01*
X73649774Y-92033937D01*
X73693711Y-91990000D01*
X77715198Y-91990000D01*
X78187379Y-92462182D01*
X78177877Y-93605236D01*
X78094180Y-93560498D01*
X77974482Y-93524188D01*
X77850000Y-93511928D01*
X72885750Y-93515000D01*
X72727000Y-93673750D01*
X72727000Y-99273000D01*
X72747000Y-99273000D01*
X72747000Y-99527000D01*
X72727000Y-99527000D01*
X72727000Y-99547000D01*
X72473000Y-99547000D01*
X72473000Y-99527000D01*
X72453000Y-99527000D01*
X72453000Y-99273000D01*
X72473000Y-99273000D01*
X72473000Y-93673750D01*
X72314250Y-93515000D01*
X67350000Y-93511928D01*
X67225518Y-93524188D01*
X67105820Y-93560498D01*
X66995506Y-93619463D01*
X66898815Y-93698815D01*
X66819463Y-93795506D01*
X66760498Y-93905820D01*
X66724188Y-94025518D01*
X66711928Y-94150000D01*
X66712471Y-95027670D01*
X66363803Y-94679002D01*
X66340001Y-94649999D01*
X66224276Y-94555026D01*
X66092247Y-94484454D01*
X65948986Y-94440997D01*
X65837333Y-94430000D01*
X65837322Y-94430000D01*
X65800000Y-94426324D01*
X65762678Y-94430000D01*
X63784802Y-94430000D01*
X63370000Y-94015199D01*
X63370000Y-83934801D01*
X63941002Y-83363799D01*
X63970001Y-83340001D01*
X64012347Y-83288402D01*
X64064974Y-83224277D01*
X64084326Y-83188072D01*
X64430000Y-83188072D01*
X64554482Y-83175812D01*
X64674180Y-83139502D01*
X64784494Y-83080537D01*
X64881185Y-83001185D01*
X64960537Y-82904494D01*
X65019502Y-82794180D01*
X65055812Y-82674482D01*
X65068072Y-82550000D01*
X65068072Y-81550000D01*
X65055812Y-81425518D01*
X65019502Y-81305820D01*
X64960537Y-81195506D01*
X64881185Y-81098815D01*
X64784494Y-81019463D01*
X64674180Y-80960498D01*
X64554482Y-80924188D01*
X64430000Y-80911928D01*
X62550000Y-80911928D01*
X62550000Y-80400000D01*
X66711928Y-80400000D01*
X66711928Y-85400000D01*
X66724188Y-85524482D01*
X66760498Y-85644180D01*
X66819463Y-85754494D01*
X66898815Y-85851185D01*
X66995506Y-85930537D01*
X67105820Y-85989502D01*
X67225518Y-86025812D01*
X67350000Y-86038072D01*
X77850000Y-86038072D01*
X77974482Y-86025812D01*
X78094180Y-85989502D01*
X78204494Y-85930537D01*
X78301185Y-85851185D01*
X78380537Y-85754494D01*
X78439502Y-85644180D01*
X78475812Y-85524482D01*
X78488072Y-85400000D01*
X78488072Y-82246891D01*
X78848519Y-82246891D01*
X78945843Y-82521252D01*
X79094822Y-82771355D01*
X79289731Y-82987588D01*
X79523080Y-83161641D01*
X79785901Y-83286825D01*
X79933110Y-83331476D01*
X80163000Y-83210155D01*
X80163000Y-82017000D01*
X78969186Y-82017000D01*
X78848519Y-82246891D01*
X78488072Y-82246891D01*
X78488072Y-80400000D01*
X78475812Y-80275518D01*
X78439502Y-80155820D01*
X78380537Y-80045506D01*
X78301185Y-79948815D01*
X78204494Y-79869463D01*
X78094180Y-79810498D01*
X77974482Y-79774188D01*
X77850000Y-79761928D01*
X67350000Y-79761928D01*
X67225518Y-79774188D01*
X67105820Y-79810498D01*
X66995506Y-79869463D01*
X66898815Y-79948815D01*
X66819463Y-80045506D01*
X66760498Y-80155820D01*
X66724188Y-80275518D01*
X66711928Y-80400000D01*
X62550000Y-80400000D01*
X62550000Y-78187556D01*
X63144250Y-78185000D01*
X63303000Y-78026250D01*
X63303000Y-77177000D01*
X63557000Y-77177000D01*
X63557000Y-78026250D01*
X63715750Y-78185000D01*
X64430000Y-78188072D01*
X64554482Y-78175812D01*
X64674180Y-78139502D01*
X64784494Y-78080537D01*
X64881185Y-78001185D01*
X64960537Y-77904494D01*
X65019502Y-77794180D01*
X65055812Y-77674482D01*
X65068072Y-77550000D01*
X65065000Y-77335750D01*
X64906250Y-77177000D01*
X63557000Y-77177000D01*
X63303000Y-77177000D01*
X63283000Y-77177000D01*
X63283000Y-76923000D01*
X63303000Y-76923000D01*
X63303000Y-76903000D01*
X63557000Y-76903000D01*
X63557000Y-76923000D01*
X64906250Y-76923000D01*
X65065000Y-76764250D01*
X65068072Y-76550000D01*
X65055812Y-76425518D01*
X65048474Y-76401327D01*
X65686730Y-75763072D01*
X65700001Y-75763072D01*
X65873255Y-75746008D01*
X66039851Y-75695472D01*
X66193387Y-75613405D01*
X66327962Y-75502962D01*
X66438405Y-75368387D01*
X66520472Y-75214851D01*
X66571008Y-75048255D01*
X66588072Y-74875001D01*
X66588072Y-74224999D01*
X66571008Y-74051745D01*
X66520472Y-73885149D01*
X66438405Y-73731613D01*
X66327962Y-73597038D01*
X66321406Y-73591658D01*
X66401185Y-73526185D01*
X66480537Y-73429494D01*
X66539502Y-73319180D01*
X66575812Y-73199482D01*
X66588072Y-73075000D01*
X66585000Y-72785750D01*
X66426250Y-72627000D01*
X65377000Y-72627000D01*
X65377000Y-72647000D01*
X65123000Y-72647000D01*
X65123000Y-72627000D01*
X64073750Y-72627000D01*
X64048750Y-72652000D01*
X63302000Y-72652000D01*
X63302000Y-72672000D01*
X63048000Y-72672000D01*
X63048000Y-72652000D01*
X61998750Y-72652000D01*
X61840000Y-72810750D01*
X61836928Y-73100000D01*
X61849188Y-73224482D01*
X61885498Y-73344180D01*
X61944463Y-73454494D01*
X62023815Y-73551185D01*
X62103594Y-73616658D01*
X62097038Y-73622038D01*
X61986595Y-73756613D01*
X61904528Y-73910149D01*
X61853992Y-74076745D01*
X61849135Y-74126064D01*
X60704003Y-75271196D01*
X60674999Y-75294999D01*
X60619871Y-75362174D01*
X60580026Y-75410724D01*
X60517361Y-75527962D01*
X60509454Y-75542754D01*
X60465997Y-75686015D01*
X60455000Y-75797668D01*
X60455000Y-75797678D01*
X60451324Y-75835000D01*
X60455000Y-75872322D01*
X60455001Y-94777667D01*
X60451324Y-94815000D01*
X60455001Y-94852333D01*
X60460885Y-94912068D01*
X60465998Y-94963985D01*
X60509454Y-95107246D01*
X60580026Y-95239276D01*
X60602885Y-95267129D01*
X60675000Y-95355001D01*
X60703998Y-95378799D01*
X61123199Y-95798000D01*
X60160000Y-95798000D01*
X60160000Y-71950000D01*
X61836928Y-71950000D01*
X61840000Y-72239250D01*
X61998750Y-72398000D01*
X63048000Y-72398000D01*
X63048000Y-71473750D01*
X63302000Y-71473750D01*
X63302000Y-72398000D01*
X64351250Y-72398000D01*
X64376250Y-72373000D01*
X65123000Y-72373000D01*
X65123000Y-71448750D01*
X65377000Y-71448750D01*
X65377000Y-72373000D01*
X66426250Y-72373000D01*
X66585000Y-72214250D01*
X66587498Y-71978967D01*
X67485000Y-71978967D01*
X67485000Y-72301033D01*
X67547832Y-72616912D01*
X67671082Y-72914463D01*
X67850013Y-73182252D01*
X68077748Y-73409987D01*
X68345537Y-73588918D01*
X68643088Y-73712168D01*
X68958967Y-73775000D01*
X69281033Y-73775000D01*
X69596912Y-73712168D01*
X69894463Y-73588918D01*
X70162252Y-73409987D01*
X70389987Y-73182252D01*
X70568918Y-72914463D01*
X70692168Y-72616912D01*
X70755000Y-72301033D01*
X70755000Y-71978967D01*
X70714827Y-71777000D01*
X78626928Y-71777000D01*
X78626928Y-73650000D01*
X78639188Y-73774482D01*
X78675498Y-73894180D01*
X78734463Y-74004494D01*
X78813815Y-74101185D01*
X78910506Y-74180537D01*
X79020820Y-74239502D01*
X79140518Y-74275812D01*
X79265000Y-74288072D01*
X80138000Y-74288072D01*
X80138000Y-71777000D01*
X80392000Y-71777000D01*
X80392000Y-74288072D01*
X81265000Y-74288072D01*
X81389482Y-74275812D01*
X81509180Y-74239502D01*
X81535000Y-74225701D01*
X81560820Y-74239502D01*
X81680518Y-74275812D01*
X81805000Y-74288072D01*
X82678000Y-74288072D01*
X82678000Y-71777000D01*
X80392000Y-71777000D01*
X80138000Y-71777000D01*
X78626928Y-71777000D01*
X70714827Y-71777000D01*
X70692168Y-71663088D01*
X70568918Y-71365537D01*
X70389987Y-71097748D01*
X70162252Y-70870013D01*
X69894463Y-70691082D01*
X69596912Y-70567832D01*
X69281033Y-70505000D01*
X68958967Y-70505000D01*
X68643088Y-70567832D01*
X68345537Y-70691082D01*
X68077748Y-70870013D01*
X67850013Y-71097748D01*
X67671082Y-71365537D01*
X67547832Y-71663088D01*
X67485000Y-71978967D01*
X66587498Y-71978967D01*
X66588072Y-71925000D01*
X66575812Y-71800518D01*
X66539502Y-71680820D01*
X66480537Y-71570506D01*
X66401185Y-71473815D01*
X66304494Y-71394463D01*
X66194180Y-71335498D01*
X66074482Y-71299188D01*
X65950000Y-71286928D01*
X65535750Y-71290000D01*
X65377000Y-71448750D01*
X65123000Y-71448750D01*
X64964250Y-71290000D01*
X64550000Y-71286928D01*
X64425518Y-71299188D01*
X64305820Y-71335498D01*
X64195506Y-71394463D01*
X64190464Y-71398601D01*
X64119180Y-71360498D01*
X63999482Y-71324188D01*
X63875000Y-71311928D01*
X63460750Y-71315000D01*
X63302000Y-71473750D01*
X63048000Y-71473750D01*
X62889250Y-71315000D01*
X62475000Y-71311928D01*
X62350518Y-71324188D01*
X62230820Y-71360498D01*
X62120506Y-71419463D01*
X62023815Y-71498815D01*
X61944463Y-71595506D01*
X61885498Y-71705820D01*
X61849188Y-71825518D01*
X61836928Y-71950000D01*
X60160000Y-71950000D01*
X60160000Y-71532279D01*
X60188625Y-71240341D01*
X60264035Y-70990571D01*
X60386522Y-70760208D01*
X60551422Y-70558020D01*
X60752450Y-70391714D01*
X60981954Y-70267622D01*
X61231195Y-70190469D01*
X61521088Y-70160000D01*
X78626928Y-70160000D01*
X78626928Y-71523000D01*
G37*
X78626928Y-71523000D02*
X80138000Y-71523000D01*
X80138000Y-71503000D01*
X80392000Y-71503000D01*
X80392000Y-71523000D01*
X82678000Y-71523000D01*
X82678000Y-71503000D01*
X82932000Y-71503000D01*
X82932000Y-71523000D01*
X82952000Y-71523000D01*
X82952000Y-71777000D01*
X82932000Y-71777000D01*
X82932000Y-74288072D01*
X83805000Y-74288072D01*
X83929482Y-74275812D01*
X84049180Y-74239502D01*
X84075000Y-74225701D01*
X84100820Y-74239502D01*
X84220518Y-74275812D01*
X84345000Y-74288072D01*
X84580000Y-74288072D01*
X84580001Y-77102668D01*
X84576324Y-77140000D01*
X84590998Y-77288985D01*
X84634454Y-77432246D01*
X84705026Y-77564276D01*
X84774785Y-77649277D01*
X84800000Y-77680001D01*
X84828998Y-77703799D01*
X85028946Y-77903747D01*
X84936842Y-77922068D01*
X84666589Y-78034010D01*
X84423368Y-78196525D01*
X84241858Y-78378035D01*
X84145990Y-78146589D01*
X83983475Y-77903368D01*
X83776632Y-77696525D01*
X83533411Y-77534010D01*
X83263158Y-77422068D01*
X82976260Y-77365000D01*
X82683740Y-77365000D01*
X82396842Y-77422068D01*
X82126589Y-77534010D01*
X81883368Y-77696525D01*
X81676525Y-77903368D01*
X81514010Y-78146589D01*
X81418142Y-78378035D01*
X81236632Y-78196525D01*
X80993411Y-78034010D01*
X80723158Y-77922068D01*
X80436260Y-77865000D01*
X80143740Y-77865000D01*
X79856842Y-77922068D01*
X79586589Y-78034010D01*
X79343368Y-78196525D01*
X79136525Y-78403368D01*
X78974010Y-78646589D01*
X78862068Y-78916842D01*
X78805000Y-79203740D01*
X78805000Y-79496260D01*
X78862068Y-79783158D01*
X78974010Y-80053411D01*
X79136525Y-80296632D01*
X79343368Y-80503475D01*
X79519406Y-80621100D01*
X79289731Y-80792412D01*
X79094822Y-81008645D01*
X78945843Y-81258748D01*
X78848519Y-81533109D01*
X78969186Y-81763000D01*
X80163000Y-81763000D01*
X80163000Y-81743000D01*
X80417000Y-81743000D01*
X80417000Y-81763000D01*
X80437000Y-81763000D01*
X80437000Y-82017000D01*
X80417000Y-82017000D01*
X80417000Y-83210155D01*
X80646890Y-83331476D01*
X80794099Y-83286825D01*
X81056920Y-83161641D01*
X81290269Y-82987588D01*
X81485178Y-82771355D01*
X81634157Y-82521252D01*
X81697957Y-82341397D01*
X81829731Y-82487588D01*
X82063080Y-82661641D01*
X82325901Y-82786825D01*
X82473110Y-82831476D01*
X82703000Y-82710155D01*
X82703000Y-81517000D01*
X82683000Y-81517000D01*
X82683000Y-81263000D01*
X82703000Y-81263000D01*
X82703000Y-81243000D01*
X82957000Y-81243000D01*
X82957000Y-81263000D01*
X82977000Y-81263000D01*
X82977000Y-81517000D01*
X82957000Y-81517000D01*
X82957000Y-82710155D01*
X83186890Y-82831476D01*
X83334099Y-82786825D01*
X83434999Y-82738765D01*
X83435000Y-98408016D01*
X83010209Y-98832808D01*
X82948071Y-98832808D01*
X82748112Y-98872582D01*
X82559754Y-98950603D01*
X82390236Y-99063871D01*
X82246073Y-99208034D01*
X82132805Y-99377552D01*
X82054784Y-99565910D01*
X82015010Y-99765869D01*
X82015010Y-99969747D01*
X82054784Y-100169706D01*
X82132805Y-100358064D01*
X82246073Y-100527582D01*
X82390236Y-100671745D01*
X82559754Y-100785013D01*
X82748112Y-100863034D01*
X82948071Y-100902808D01*
X83151949Y-100902808D01*
X83351908Y-100863034D01*
X83540266Y-100785013D01*
X83709784Y-100671745D01*
X83853947Y-100527582D01*
X83967215Y-100358064D01*
X84045236Y-100169706D01*
X84085010Y-99969747D01*
X84085010Y-99907609D01*
X84706001Y-99286618D01*
X84735000Y-99262820D01*
X84779962Y-99208034D01*
X84829973Y-99147096D01*
X84900545Y-99015066D01*
X84910777Y-98981335D01*
X84944002Y-98871805D01*
X84954999Y-98760152D01*
X84954999Y-98760142D01*
X84958675Y-98722819D01*
X84954999Y-98685496D01*
X84954999Y-83321544D01*
X85223740Y-83375000D01*
X85516260Y-83375000D01*
X85803158Y-83317932D01*
X86073411Y-83205990D01*
X86096816Y-83190351D01*
X86120725Y-83209973D01*
X86252754Y-83280545D01*
X86328817Y-83303618D01*
X86940000Y-83914802D01*
X86940001Y-91792668D01*
X86936324Y-91830000D01*
X86940001Y-91867333D01*
X86950998Y-91978986D01*
X86959570Y-92007245D01*
X86994454Y-92122246D01*
X87065026Y-92254276D01*
X87128444Y-92331550D01*
X87160000Y-92370001D01*
X87188998Y-92393799D01*
X87276317Y-92481118D01*
X87068645Y-92604822D01*
X86852412Y-92799731D01*
X86678359Y-93033080D01*
X86553175Y-93295901D01*
X86508524Y-93443110D01*
X86629845Y-93673000D01*
X87823000Y-93673000D01*
X87823000Y-93653000D01*
X88077000Y-93653000D01*
X88077000Y-93673000D01*
X88097000Y-93673000D01*
X88097000Y-93927000D01*
X88077000Y-93927000D01*
X88077000Y-93947000D01*
X87823000Y-93947000D01*
X87823000Y-93927000D01*
X86629845Y-93927000D01*
X86508524Y-94156890D01*
X86553175Y-94304099D01*
X86678359Y-94566920D01*
X86852412Y-94800269D01*
X86989162Y-94923533D01*
X86746589Y-95024010D01*
X86503368Y-95186525D01*
X86296525Y-95393368D01*
X86134010Y-95636589D01*
X86022068Y-95906842D01*
X85965000Y-96193740D01*
X85965000Y-96486260D01*
X86022068Y-96773158D01*
X86134010Y-97043411D01*
X86296525Y-97286632D01*
X86503368Y-97493475D01*
X86746589Y-97655990D01*
X86978035Y-97751858D01*
X86796525Y-97933368D01*
X86634010Y-98176589D01*
X86522068Y-98446842D01*
X86465000Y-98733740D01*
X86465000Y-99026260D01*
X86522068Y-99313158D01*
X86634010Y-99583411D01*
X86796525Y-99826632D01*
X86978035Y-100008142D01*
X86746589Y-100104010D01*
X86503368Y-100266525D01*
X86296525Y-100473368D01*
X86171822Y-100660000D01*
X84357325Y-100660000D01*
X84320000Y-100656324D01*
X84282675Y-100660000D01*
X84282667Y-100660000D01*
X84171014Y-100670997D01*
X84027753Y-100714454D01*
X83895724Y-100785026D01*
X83779999Y-100879999D01*
X83756201Y-100908997D01*
X79178998Y-105486201D01*
X79150000Y-105509999D01*
X79126202Y-105538997D01*
X79126201Y-105538998D01*
X79055026Y-105625724D01*
X78984454Y-105757754D01*
X78967081Y-105815027D01*
X78940998Y-105901014D01*
X78931247Y-106000016D01*
X78926324Y-106050000D01*
X78930001Y-106087332D01*
X78930000Y-107845198D01*
X77803886Y-108971313D01*
X74165050Y-108971313D01*
X74121113Y-108927376D01*
X73951595Y-108814108D01*
X73763237Y-108736087D01*
X73563278Y-108696313D01*
X73359400Y-108696313D01*
X73159441Y-108736087D01*
X72971083Y-108814108D01*
X72801565Y-108927376D01*
X72657402Y-109071539D01*
X72544134Y-109241057D01*
X72466113Y-109429415D01*
X72445180Y-109534655D01*
X72317329Y-109481697D01*
X72117370Y-109441923D01*
X72039657Y-109441923D01*
X71907679Y-109371378D01*
X71764418Y-109327921D01*
X71652765Y-109316924D01*
X71652754Y-109316924D01*
X71615432Y-109313248D01*
X71578110Y-109316924D01*
X71541324Y-109316924D01*
X68013399Y-105789000D01*
X72447508Y-105789000D01*
X73195000Y-106566138D01*
X73195000Y-106631939D01*
X73234774Y-106831898D01*
X73312795Y-107020256D01*
X73426063Y-107189774D01*
X73570226Y-107333937D01*
X73739744Y-107447205D01*
X73928102Y-107525226D01*
X74128061Y-107565000D01*
X74331939Y-107565000D01*
X74531898Y-107525226D01*
X74720256Y-107447205D01*
X74889774Y-107333937D01*
X75033937Y-107189774D01*
X75147205Y-107020256D01*
X75225226Y-106831898D01*
X75265000Y-106631939D01*
X75265000Y-106428061D01*
X75225226Y-106228102D01*
X75147205Y-106039744D01*
X75033937Y-105870226D01*
X74889774Y-105726063D01*
X74720256Y-105612795D01*
X74531898Y-105534774D01*
X74331939Y-105495000D01*
X74273725Y-105495000D01*
X74072442Y-105285734D01*
X77850000Y-105288072D01*
X77974482Y-105275812D01*
X78094180Y-105239502D01*
X78204494Y-105180537D01*
X78301185Y-105101185D01*
X78324033Y-105073344D01*
X78359744Y-105097205D01*
X78548102Y-105175226D01*
X78748061Y-105215000D01*
X78951939Y-105215000D01*
X79151898Y-105175226D01*
X79340256Y-105097205D01*
X79509774Y-104983937D01*
X79653937Y-104839774D01*
X79767205Y-104670256D01*
X79845226Y-104481898D01*
X79863347Y-104390796D01*
X79991898Y-104365226D01*
X80180256Y-104287205D01*
X80349774Y-104173937D01*
X80493937Y-104029774D01*
X80607205Y-103860256D01*
X80685226Y-103671898D01*
X80725000Y-103471939D01*
X80725000Y-103268061D01*
X80685226Y-103068102D01*
X80607205Y-102879744D01*
X80493937Y-102710226D01*
X80450000Y-102666289D01*
X80450000Y-92197333D01*
X80453677Y-92160000D01*
X80439003Y-92011014D01*
X80395546Y-91867753D01*
X80324974Y-91735724D01*
X80296305Y-91700791D01*
X80230001Y-91619999D01*
X80200997Y-91596196D01*
X79762783Y-91157982D01*
X78717609Y-89985824D01*
X78680001Y-89939999D01*
X78638940Y-89906301D01*
X78599886Y-89870323D01*
X78581203Y-89858917D01*
X78564276Y-89845026D01*
X78517431Y-89819986D01*
X78472108Y-89792318D01*
X78451560Y-89784777D01*
X78432247Y-89774454D01*
X78381409Y-89759033D01*
X78331566Y-89740741D01*
X78309941Y-89737354D01*
X78288986Y-89730997D01*
X78236121Y-89725790D01*
X78183663Y-89717573D01*
X78124460Y-89720000D01*
X74903711Y-89720000D01*
X74859774Y-89676063D01*
X74690256Y-89562795D01*
X74501898Y-89484774D01*
X74301939Y-89445000D01*
X74098061Y-89445000D01*
X73898102Y-89484774D01*
X73709744Y-89562795D01*
X73540226Y-89676063D01*
X73396063Y-89820226D01*
X73282795Y-89989744D01*
X73204774Y-90178102D01*
X73197246Y-90215947D01*
X73091939Y-90195000D01*
X72888061Y-90195000D01*
X72688102Y-90234774D01*
X72499744Y-90312795D01*
X72330226Y-90426063D01*
X72186063Y-90570226D01*
X72072795Y-90739744D01*
X71994774Y-90928102D01*
X71955000Y-91128061D01*
X71955000Y-91331939D01*
X71994774Y-91531898D01*
X72072795Y-91720256D01*
X72186063Y-91889774D01*
X72330226Y-92033937D01*
X72499744Y-92147205D01*
X72688102Y-92225226D01*
X72888061Y-92265000D01*
X73091939Y-92265000D01*
X73291898Y-92225226D01*
X73480256Y-92147205D01*
X73649774Y-92033937D01*
X73693711Y-91990000D01*
X77715198Y-91990000D01*
X78187379Y-92462182D01*
X78177877Y-93605236D01*
X78094180Y-93560498D01*
X77974482Y-93524188D01*
X77850000Y-93511928D01*
X72885750Y-93515000D01*
X72727000Y-93673750D01*
X72727000Y-99273000D01*
X72747000Y-99273000D01*
X72747000Y-99527000D01*
X72727000Y-99527000D01*
X72727000Y-99547000D01*
X72473000Y-99547000D01*
X72473000Y-99527000D01*
X72453000Y-99527000D01*
X72453000Y-99273000D01*
X72473000Y-99273000D01*
X72473000Y-93673750D01*
X72314250Y-93515000D01*
X67350000Y-93511928D01*
X67225518Y-93524188D01*
X67105820Y-93560498D01*
X66995506Y-93619463D01*
X66898815Y-93698815D01*
X66819463Y-93795506D01*
X66760498Y-93905820D01*
X66724188Y-94025518D01*
X66711928Y-94150000D01*
X66712471Y-95027670D01*
X66363803Y-94679002D01*
X66340001Y-94649999D01*
X66224276Y-94555026D01*
X66092247Y-94484454D01*
X65948986Y-94440997D01*
X65837333Y-94430000D01*
X65837322Y-94430000D01*
X65800000Y-94426324D01*
X65762678Y-94430000D01*
X63784802Y-94430000D01*
X63370000Y-94015199D01*
X63370000Y-83934801D01*
X63941002Y-83363799D01*
X63970001Y-83340001D01*
X64012347Y-83288402D01*
X64064974Y-83224277D01*
X64084326Y-83188072D01*
X64430000Y-83188072D01*
X64554482Y-83175812D01*
X64674180Y-83139502D01*
X64784494Y-83080537D01*
X64881185Y-83001185D01*
X64960537Y-82904494D01*
X65019502Y-82794180D01*
X65055812Y-82674482D01*
X65068072Y-82550000D01*
X65068072Y-81550000D01*
X65055812Y-81425518D01*
X65019502Y-81305820D01*
X64960537Y-81195506D01*
X64881185Y-81098815D01*
X64784494Y-81019463D01*
X64674180Y-80960498D01*
X64554482Y-80924188D01*
X64430000Y-80911928D01*
X62550000Y-80911928D01*
X62550000Y-80400000D01*
X66711928Y-80400000D01*
X66711928Y-85400000D01*
X66724188Y-85524482D01*
X66760498Y-85644180D01*
X66819463Y-85754494D01*
X66898815Y-85851185D01*
X66995506Y-85930537D01*
X67105820Y-85989502D01*
X67225518Y-86025812D01*
X67350000Y-86038072D01*
X77850000Y-86038072D01*
X77974482Y-86025812D01*
X78094180Y-85989502D01*
X78204494Y-85930537D01*
X78301185Y-85851185D01*
X78380537Y-85754494D01*
X78439502Y-85644180D01*
X78475812Y-85524482D01*
X78488072Y-85400000D01*
X78488072Y-82246891D01*
X78848519Y-82246891D01*
X78945843Y-82521252D01*
X79094822Y-82771355D01*
X79289731Y-82987588D01*
X79523080Y-83161641D01*
X79785901Y-83286825D01*
X79933110Y-83331476D01*
X80163000Y-83210155D01*
X80163000Y-82017000D01*
X78969186Y-82017000D01*
X78848519Y-82246891D01*
X78488072Y-82246891D01*
X78488072Y-80400000D01*
X78475812Y-80275518D01*
X78439502Y-80155820D01*
X78380537Y-80045506D01*
X78301185Y-79948815D01*
X78204494Y-79869463D01*
X78094180Y-79810498D01*
X77974482Y-79774188D01*
X77850000Y-79761928D01*
X67350000Y-79761928D01*
X67225518Y-79774188D01*
X67105820Y-79810498D01*
X66995506Y-79869463D01*
X66898815Y-79948815D01*
X66819463Y-80045506D01*
X66760498Y-80155820D01*
X66724188Y-80275518D01*
X66711928Y-80400000D01*
X62550000Y-80400000D01*
X62550000Y-78187556D01*
X63144250Y-78185000D01*
X63303000Y-78026250D01*
X63303000Y-77177000D01*
X63557000Y-77177000D01*
X63557000Y-78026250D01*
X63715750Y-78185000D01*
X64430000Y-78188072D01*
X64554482Y-78175812D01*
X64674180Y-78139502D01*
X64784494Y-78080537D01*
X64881185Y-78001185D01*
X64960537Y-77904494D01*
X65019502Y-77794180D01*
X65055812Y-77674482D01*
X65068072Y-77550000D01*
X65065000Y-77335750D01*
X64906250Y-77177000D01*
X63557000Y-77177000D01*
X63303000Y-77177000D01*
X63283000Y-77177000D01*
X63283000Y-76923000D01*
X63303000Y-76923000D01*
X63303000Y-76903000D01*
X63557000Y-76903000D01*
X63557000Y-76923000D01*
X64906250Y-76923000D01*
X65065000Y-76764250D01*
X65068072Y-76550000D01*
X65055812Y-76425518D01*
X65048474Y-76401327D01*
X65686730Y-75763072D01*
X65700001Y-75763072D01*
X65873255Y-75746008D01*
X66039851Y-75695472D01*
X66193387Y-75613405D01*
X66327962Y-75502962D01*
X66438405Y-75368387D01*
X66520472Y-75214851D01*
X66571008Y-75048255D01*
X66588072Y-74875001D01*
X66588072Y-74224999D01*
X66571008Y-74051745D01*
X66520472Y-73885149D01*
X66438405Y-73731613D01*
X66327962Y-73597038D01*
X66321406Y-73591658D01*
X66401185Y-73526185D01*
X66480537Y-73429494D01*
X66539502Y-73319180D01*
X66575812Y-73199482D01*
X66588072Y-73075000D01*
X66585000Y-72785750D01*
X66426250Y-72627000D01*
X65377000Y-72627000D01*
X65377000Y-72647000D01*
X65123000Y-72647000D01*
X65123000Y-72627000D01*
X64073750Y-72627000D01*
X64048750Y-72652000D01*
X63302000Y-72652000D01*
X63302000Y-72672000D01*
X63048000Y-72672000D01*
X63048000Y-72652000D01*
X61998750Y-72652000D01*
X61840000Y-72810750D01*
X61836928Y-73100000D01*
X61849188Y-73224482D01*
X61885498Y-73344180D01*
X61944463Y-73454494D01*
X62023815Y-73551185D01*
X62103594Y-73616658D01*
X62097038Y-73622038D01*
X61986595Y-73756613D01*
X61904528Y-73910149D01*
X61853992Y-74076745D01*
X61849135Y-74126064D01*
X60704003Y-75271196D01*
X60674999Y-75294999D01*
X60619871Y-75362174D01*
X60580026Y-75410724D01*
X60517361Y-75527962D01*
X60509454Y-75542754D01*
X60465997Y-75686015D01*
X60455000Y-75797668D01*
X60455000Y-75797678D01*
X60451324Y-75835000D01*
X60455000Y-75872322D01*
X60455001Y-94777667D01*
X60451324Y-94815000D01*
X60455001Y-94852333D01*
X60460885Y-94912068D01*
X60465998Y-94963985D01*
X60509454Y-95107246D01*
X60580026Y-95239276D01*
X60602885Y-95267129D01*
X60675000Y-95355001D01*
X60703998Y-95378799D01*
X61123199Y-95798000D01*
X60160000Y-95798000D01*
X60160000Y-71950000D01*
X61836928Y-71950000D01*
X61840000Y-72239250D01*
X61998750Y-72398000D01*
X63048000Y-72398000D01*
X63048000Y-71473750D01*
X63302000Y-71473750D01*
X63302000Y-72398000D01*
X64351250Y-72398000D01*
X64376250Y-72373000D01*
X65123000Y-72373000D01*
X65123000Y-71448750D01*
X65377000Y-71448750D01*
X65377000Y-72373000D01*
X66426250Y-72373000D01*
X66585000Y-72214250D01*
X66587498Y-71978967D01*
X67485000Y-71978967D01*
X67485000Y-72301033D01*
X67547832Y-72616912D01*
X67671082Y-72914463D01*
X67850013Y-73182252D01*
X68077748Y-73409987D01*
X68345537Y-73588918D01*
X68643088Y-73712168D01*
X68958967Y-73775000D01*
X69281033Y-73775000D01*
X69596912Y-73712168D01*
X69894463Y-73588918D01*
X70162252Y-73409987D01*
X70389987Y-73182252D01*
X70568918Y-72914463D01*
X70692168Y-72616912D01*
X70755000Y-72301033D01*
X70755000Y-71978967D01*
X70714827Y-71777000D01*
X78626928Y-71777000D01*
X78626928Y-73650000D01*
X78639188Y-73774482D01*
X78675498Y-73894180D01*
X78734463Y-74004494D01*
X78813815Y-74101185D01*
X78910506Y-74180537D01*
X79020820Y-74239502D01*
X79140518Y-74275812D01*
X79265000Y-74288072D01*
X80138000Y-74288072D01*
X80138000Y-71777000D01*
X80392000Y-71777000D01*
X80392000Y-74288072D01*
X81265000Y-74288072D01*
X81389482Y-74275812D01*
X81509180Y-74239502D01*
X81535000Y-74225701D01*
X81560820Y-74239502D01*
X81680518Y-74275812D01*
X81805000Y-74288072D01*
X82678000Y-74288072D01*
X82678000Y-71777000D01*
X80392000Y-71777000D01*
X80138000Y-71777000D01*
X78626928Y-71777000D01*
X70714827Y-71777000D01*
X70692168Y-71663088D01*
X70568918Y-71365537D01*
X70389987Y-71097748D01*
X70162252Y-70870013D01*
X69894463Y-70691082D01*
X69596912Y-70567832D01*
X69281033Y-70505000D01*
X68958967Y-70505000D01*
X68643088Y-70567832D01*
X68345537Y-70691082D01*
X68077748Y-70870013D01*
X67850013Y-71097748D01*
X67671082Y-71365537D01*
X67547832Y-71663088D01*
X67485000Y-71978967D01*
X66587498Y-71978967D01*
X66588072Y-71925000D01*
X66575812Y-71800518D01*
X66539502Y-71680820D01*
X66480537Y-71570506D01*
X66401185Y-71473815D01*
X66304494Y-71394463D01*
X66194180Y-71335498D01*
X66074482Y-71299188D01*
X65950000Y-71286928D01*
X65535750Y-71290000D01*
X65377000Y-71448750D01*
X65123000Y-71448750D01*
X64964250Y-71290000D01*
X64550000Y-71286928D01*
X64425518Y-71299188D01*
X64305820Y-71335498D01*
X64195506Y-71394463D01*
X64190464Y-71398601D01*
X64119180Y-71360498D01*
X63999482Y-71324188D01*
X63875000Y-71311928D01*
X63460750Y-71315000D01*
X63302000Y-71473750D01*
X63048000Y-71473750D01*
X62889250Y-71315000D01*
X62475000Y-71311928D01*
X62350518Y-71324188D01*
X62230820Y-71360498D01*
X62120506Y-71419463D01*
X62023815Y-71498815D01*
X61944463Y-71595506D01*
X61885498Y-71705820D01*
X61849188Y-71825518D01*
X61836928Y-71950000D01*
X60160000Y-71950000D01*
X60160000Y-71532279D01*
X60188625Y-71240341D01*
X60264035Y-70990571D01*
X60386522Y-70760208D01*
X60551422Y-70558020D01*
X60752450Y-70391714D01*
X60981954Y-70267622D01*
X61231195Y-70190469D01*
X61521088Y-70160000D01*
X78626928Y-70160000D01*
X78626928Y-71523000D01*
M02*
