G04 #@! TF.GenerationSoftware,KiCad,Pcbnew,(5.1.5)-3*
G04 #@! TF.CreationDate,2020-04-01T21:27:10+02:00*
G04 #@! TF.ProjectId,RHS_3,5248535f-332e-46b6-9963-61645f706362,rev?*
G04 #@! TF.SameCoordinates,Original*
G04 #@! TF.FileFunction,Paste,Top*
G04 #@! TF.FilePolarity,Positive*
%FSLAX46Y46*%
G04 Gerber Fmt 4.6, Leading zero omitted, Abs format (unit mm)*
G04 Created by KiCad (PCBNEW (5.1.5)-3) date 2020-04-01 21:27:10*
%MOMM*%
%LPD*%
G04 APERTURE LIST*
%ADD10R,10.500000X5.000000*%
%ADD11R,10.500000X10.500000*%
%ADD12C,0.100000*%
%ADD13R,1.600000X0.550000*%
%ADD14R,0.550000X1.600000*%
%ADD15R,1.500000X2.524000*%
%ADD16R,1.200000X2.524000*%
%ADD17R,0.900000X0.800000*%
%ADD18R,0.800000X0.900000*%
%ADD19R,1.000000X2.000000*%
%ADD20R,1.800000X1.000000*%
G04 APERTURE END LIST*
D10*
X72800000Y-105050000D03*
X72800000Y-72050000D03*
D11*
X72800000Y-88550000D03*
D12*
G36*
X61599505Y-106801204D02*
G01*
X61623773Y-106804804D01*
X61647572Y-106810765D01*
X61670671Y-106819030D01*
X61692850Y-106829520D01*
X61713893Y-106842132D01*
X61733599Y-106856747D01*
X61751777Y-106873223D01*
X61768253Y-106891401D01*
X61782868Y-106911107D01*
X61795480Y-106932150D01*
X61805970Y-106954329D01*
X61814235Y-106977428D01*
X61820196Y-107001227D01*
X61823796Y-107025495D01*
X61825000Y-107049999D01*
X61825000Y-107700001D01*
X61823796Y-107724505D01*
X61820196Y-107748773D01*
X61814235Y-107772572D01*
X61805970Y-107795671D01*
X61795480Y-107817850D01*
X61782868Y-107838893D01*
X61768253Y-107858599D01*
X61751777Y-107876777D01*
X61733599Y-107893253D01*
X61713893Y-107907868D01*
X61692850Y-107920480D01*
X61670671Y-107930970D01*
X61647572Y-107939235D01*
X61623773Y-107945196D01*
X61599505Y-107948796D01*
X61575001Y-107950000D01*
X60674999Y-107950000D01*
X60650495Y-107948796D01*
X60626227Y-107945196D01*
X60602428Y-107939235D01*
X60579329Y-107930970D01*
X60557150Y-107920480D01*
X60536107Y-107907868D01*
X60516401Y-107893253D01*
X60498223Y-107876777D01*
X60481747Y-107858599D01*
X60467132Y-107838893D01*
X60454520Y-107817850D01*
X60444030Y-107795671D01*
X60435765Y-107772572D01*
X60429804Y-107748773D01*
X60426204Y-107724505D01*
X60425000Y-107700001D01*
X60425000Y-107049999D01*
X60426204Y-107025495D01*
X60429804Y-107001227D01*
X60435765Y-106977428D01*
X60444030Y-106954329D01*
X60454520Y-106932150D01*
X60467132Y-106911107D01*
X60481747Y-106891401D01*
X60498223Y-106873223D01*
X60516401Y-106856747D01*
X60536107Y-106842132D01*
X60557150Y-106829520D01*
X60579329Y-106819030D01*
X60602428Y-106810765D01*
X60626227Y-106804804D01*
X60650495Y-106801204D01*
X60674999Y-106800000D01*
X61575001Y-106800000D01*
X61599505Y-106801204D01*
G37*
G36*
X61599505Y-108851204D02*
G01*
X61623773Y-108854804D01*
X61647572Y-108860765D01*
X61670671Y-108869030D01*
X61692850Y-108879520D01*
X61713893Y-108892132D01*
X61733599Y-108906747D01*
X61751777Y-108923223D01*
X61768253Y-108941401D01*
X61782868Y-108961107D01*
X61795480Y-108982150D01*
X61805970Y-109004329D01*
X61814235Y-109027428D01*
X61820196Y-109051227D01*
X61823796Y-109075495D01*
X61825000Y-109099999D01*
X61825000Y-109750001D01*
X61823796Y-109774505D01*
X61820196Y-109798773D01*
X61814235Y-109822572D01*
X61805970Y-109845671D01*
X61795480Y-109867850D01*
X61782868Y-109888893D01*
X61768253Y-109908599D01*
X61751777Y-109926777D01*
X61733599Y-109943253D01*
X61713893Y-109957868D01*
X61692850Y-109970480D01*
X61670671Y-109980970D01*
X61647572Y-109989235D01*
X61623773Y-109995196D01*
X61599505Y-109998796D01*
X61575001Y-110000000D01*
X60674999Y-110000000D01*
X60650495Y-109998796D01*
X60626227Y-109995196D01*
X60602428Y-109989235D01*
X60579329Y-109980970D01*
X60557150Y-109970480D01*
X60536107Y-109957868D01*
X60516401Y-109943253D01*
X60498223Y-109926777D01*
X60481747Y-109908599D01*
X60467132Y-109888893D01*
X60454520Y-109867850D01*
X60444030Y-109845671D01*
X60435765Y-109822572D01*
X60429804Y-109798773D01*
X60426204Y-109774505D01*
X60425000Y-109750001D01*
X60425000Y-109099999D01*
X60426204Y-109075495D01*
X60429804Y-109051227D01*
X60435765Y-109027428D01*
X60444030Y-109004329D01*
X60454520Y-108982150D01*
X60467132Y-108961107D01*
X60481747Y-108941401D01*
X60498223Y-108923223D01*
X60516401Y-108906747D01*
X60536107Y-108892132D01*
X60557150Y-108879520D01*
X60579329Y-108869030D01*
X60602428Y-108860765D01*
X60626227Y-108854804D01*
X60650495Y-108851204D01*
X60674999Y-108850000D01*
X61575001Y-108850000D01*
X61599505Y-108851204D01*
G37*
G36*
X61599505Y-110551204D02*
G01*
X61623773Y-110554804D01*
X61647572Y-110560765D01*
X61670671Y-110569030D01*
X61692850Y-110579520D01*
X61713893Y-110592132D01*
X61733599Y-110606747D01*
X61751777Y-110623223D01*
X61768253Y-110641401D01*
X61782868Y-110661107D01*
X61795480Y-110682150D01*
X61805970Y-110704329D01*
X61814235Y-110727428D01*
X61820196Y-110751227D01*
X61823796Y-110775495D01*
X61825000Y-110799999D01*
X61825000Y-111450001D01*
X61823796Y-111474505D01*
X61820196Y-111498773D01*
X61814235Y-111522572D01*
X61805970Y-111545671D01*
X61795480Y-111567850D01*
X61782868Y-111588893D01*
X61768253Y-111608599D01*
X61751777Y-111626777D01*
X61733599Y-111643253D01*
X61713893Y-111657868D01*
X61692850Y-111670480D01*
X61670671Y-111680970D01*
X61647572Y-111689235D01*
X61623773Y-111695196D01*
X61599505Y-111698796D01*
X61575001Y-111700000D01*
X60674999Y-111700000D01*
X60650495Y-111698796D01*
X60626227Y-111695196D01*
X60602428Y-111689235D01*
X60579329Y-111680970D01*
X60557150Y-111670480D01*
X60536107Y-111657868D01*
X60516401Y-111643253D01*
X60498223Y-111626777D01*
X60481747Y-111608599D01*
X60467132Y-111588893D01*
X60454520Y-111567850D01*
X60444030Y-111545671D01*
X60435765Y-111522572D01*
X60429804Y-111498773D01*
X60426204Y-111474505D01*
X60425000Y-111450001D01*
X60425000Y-110799999D01*
X60426204Y-110775495D01*
X60429804Y-110751227D01*
X60435765Y-110727428D01*
X60444030Y-110704329D01*
X60454520Y-110682150D01*
X60467132Y-110661107D01*
X60481747Y-110641401D01*
X60498223Y-110623223D01*
X60516401Y-110606747D01*
X60536107Y-110592132D01*
X60557150Y-110579520D01*
X60579329Y-110569030D01*
X60602428Y-110560765D01*
X60626227Y-110554804D01*
X60650495Y-110551204D01*
X60674999Y-110550000D01*
X61575001Y-110550000D01*
X61599505Y-110551204D01*
G37*
G36*
X61599505Y-112601204D02*
G01*
X61623773Y-112604804D01*
X61647572Y-112610765D01*
X61670671Y-112619030D01*
X61692850Y-112629520D01*
X61713893Y-112642132D01*
X61733599Y-112656747D01*
X61751777Y-112673223D01*
X61768253Y-112691401D01*
X61782868Y-112711107D01*
X61795480Y-112732150D01*
X61805970Y-112754329D01*
X61814235Y-112777428D01*
X61820196Y-112801227D01*
X61823796Y-112825495D01*
X61825000Y-112849999D01*
X61825000Y-113500001D01*
X61823796Y-113524505D01*
X61820196Y-113548773D01*
X61814235Y-113572572D01*
X61805970Y-113595671D01*
X61795480Y-113617850D01*
X61782868Y-113638893D01*
X61768253Y-113658599D01*
X61751777Y-113676777D01*
X61733599Y-113693253D01*
X61713893Y-113707868D01*
X61692850Y-113720480D01*
X61670671Y-113730970D01*
X61647572Y-113739235D01*
X61623773Y-113745196D01*
X61599505Y-113748796D01*
X61575001Y-113750000D01*
X60674999Y-113750000D01*
X60650495Y-113748796D01*
X60626227Y-113745196D01*
X60602428Y-113739235D01*
X60579329Y-113730970D01*
X60557150Y-113720480D01*
X60536107Y-113707868D01*
X60516401Y-113693253D01*
X60498223Y-113676777D01*
X60481747Y-113658599D01*
X60467132Y-113638893D01*
X60454520Y-113617850D01*
X60444030Y-113595671D01*
X60435765Y-113572572D01*
X60429804Y-113548773D01*
X60426204Y-113524505D01*
X60425000Y-113500001D01*
X60425000Y-112849999D01*
X60426204Y-112825495D01*
X60429804Y-112801227D01*
X60435765Y-112777428D01*
X60444030Y-112754329D01*
X60454520Y-112732150D01*
X60467132Y-112711107D01*
X60481747Y-112691401D01*
X60498223Y-112673223D01*
X60516401Y-112656747D01*
X60536107Y-112642132D01*
X60557150Y-112629520D01*
X60579329Y-112619030D01*
X60602428Y-112610765D01*
X60626227Y-112604804D01*
X60650495Y-112601204D01*
X60674999Y-112600000D01*
X61575001Y-112600000D01*
X61599505Y-112601204D01*
G37*
D13*
X82350000Y-113800000D03*
X82350000Y-114600000D03*
X82350000Y-115400000D03*
X82350000Y-116200000D03*
X82350000Y-117000000D03*
X82350000Y-117800000D03*
X82350000Y-118600000D03*
X82350000Y-119400000D03*
D14*
X83800000Y-120850000D03*
X84600000Y-120850000D03*
X85400000Y-120850000D03*
X86200000Y-120850000D03*
X87000000Y-120850000D03*
X87800000Y-120850000D03*
X88600000Y-120850000D03*
X89400000Y-120850000D03*
D13*
X90850000Y-119400000D03*
X90850000Y-118600000D03*
X90850000Y-117800000D03*
X90850000Y-117000000D03*
X90850000Y-116200000D03*
X90850000Y-115400000D03*
X90850000Y-114600000D03*
X90850000Y-113800000D03*
D14*
X89400000Y-112350000D03*
X88600000Y-112350000D03*
X87800000Y-112350000D03*
X87000000Y-112350000D03*
X86200000Y-112350000D03*
X85400000Y-112350000D03*
X84600000Y-112350000D03*
X83800000Y-112350000D03*
D15*
X67800000Y-128900000D03*
X72200000Y-128900000D03*
D16*
X70000000Y-128900000D03*
X64000000Y-109900000D03*
X66000000Y-109900000D03*
X68000000Y-109900000D03*
X70000000Y-109900000D03*
X72000000Y-109900000D03*
X74000000Y-109900000D03*
X76000000Y-109900000D03*
X78000000Y-109900000D03*
D12*
G36*
X93324505Y-113076204D02*
G01*
X93348773Y-113079804D01*
X93372572Y-113085765D01*
X93395671Y-113094030D01*
X93417850Y-113104520D01*
X93438893Y-113117132D01*
X93458599Y-113131747D01*
X93476777Y-113148223D01*
X93493253Y-113166401D01*
X93507868Y-113186107D01*
X93520480Y-113207150D01*
X93530970Y-113229329D01*
X93539235Y-113252428D01*
X93545196Y-113276227D01*
X93548796Y-113300495D01*
X93550000Y-113324999D01*
X93550000Y-113975001D01*
X93548796Y-113999505D01*
X93545196Y-114023773D01*
X93539235Y-114047572D01*
X93530970Y-114070671D01*
X93520480Y-114092850D01*
X93507868Y-114113893D01*
X93493253Y-114133599D01*
X93476777Y-114151777D01*
X93458599Y-114168253D01*
X93438893Y-114182868D01*
X93417850Y-114195480D01*
X93395671Y-114205970D01*
X93372572Y-114214235D01*
X93348773Y-114220196D01*
X93324505Y-114223796D01*
X93300001Y-114225000D01*
X92399999Y-114225000D01*
X92375495Y-114223796D01*
X92351227Y-114220196D01*
X92327428Y-114214235D01*
X92304329Y-114205970D01*
X92282150Y-114195480D01*
X92261107Y-114182868D01*
X92241401Y-114168253D01*
X92223223Y-114151777D01*
X92206747Y-114133599D01*
X92192132Y-114113893D01*
X92179520Y-114092850D01*
X92169030Y-114070671D01*
X92160765Y-114047572D01*
X92154804Y-114023773D01*
X92151204Y-113999505D01*
X92150000Y-113975001D01*
X92150000Y-113324999D01*
X92151204Y-113300495D01*
X92154804Y-113276227D01*
X92160765Y-113252428D01*
X92169030Y-113229329D01*
X92179520Y-113207150D01*
X92192132Y-113186107D01*
X92206747Y-113166401D01*
X92223223Y-113148223D01*
X92241401Y-113131747D01*
X92261107Y-113117132D01*
X92282150Y-113104520D01*
X92304329Y-113094030D01*
X92327428Y-113085765D01*
X92351227Y-113079804D01*
X92375495Y-113076204D01*
X92399999Y-113075000D01*
X93300001Y-113075000D01*
X93324505Y-113076204D01*
G37*
G36*
X93324505Y-115126204D02*
G01*
X93348773Y-115129804D01*
X93372572Y-115135765D01*
X93395671Y-115144030D01*
X93417850Y-115154520D01*
X93438893Y-115167132D01*
X93458599Y-115181747D01*
X93476777Y-115198223D01*
X93493253Y-115216401D01*
X93507868Y-115236107D01*
X93520480Y-115257150D01*
X93530970Y-115279329D01*
X93539235Y-115302428D01*
X93545196Y-115326227D01*
X93548796Y-115350495D01*
X93550000Y-115374999D01*
X93550000Y-116025001D01*
X93548796Y-116049505D01*
X93545196Y-116073773D01*
X93539235Y-116097572D01*
X93530970Y-116120671D01*
X93520480Y-116142850D01*
X93507868Y-116163893D01*
X93493253Y-116183599D01*
X93476777Y-116201777D01*
X93458599Y-116218253D01*
X93438893Y-116232868D01*
X93417850Y-116245480D01*
X93395671Y-116255970D01*
X93372572Y-116264235D01*
X93348773Y-116270196D01*
X93324505Y-116273796D01*
X93300001Y-116275000D01*
X92399999Y-116275000D01*
X92375495Y-116273796D01*
X92351227Y-116270196D01*
X92327428Y-116264235D01*
X92304329Y-116255970D01*
X92282150Y-116245480D01*
X92261107Y-116232868D01*
X92241401Y-116218253D01*
X92223223Y-116201777D01*
X92206747Y-116183599D01*
X92192132Y-116163893D01*
X92179520Y-116142850D01*
X92169030Y-116120671D01*
X92160765Y-116097572D01*
X92154804Y-116073773D01*
X92151204Y-116049505D01*
X92150000Y-116025001D01*
X92150000Y-115374999D01*
X92151204Y-115350495D01*
X92154804Y-115326227D01*
X92160765Y-115302428D01*
X92169030Y-115279329D01*
X92179520Y-115257150D01*
X92192132Y-115236107D01*
X92206747Y-115216401D01*
X92223223Y-115198223D01*
X92241401Y-115181747D01*
X92261107Y-115167132D01*
X92282150Y-115154520D01*
X92304329Y-115144030D01*
X92327428Y-115135765D01*
X92351227Y-115129804D01*
X92375495Y-115126204D01*
X92399999Y-115125000D01*
X93300001Y-115125000D01*
X93324505Y-115126204D01*
G37*
G36*
X80824505Y-114826204D02*
G01*
X80848773Y-114829804D01*
X80872572Y-114835765D01*
X80895671Y-114844030D01*
X80917850Y-114854520D01*
X80938893Y-114867132D01*
X80958599Y-114881747D01*
X80976777Y-114898223D01*
X80993253Y-114916401D01*
X81007868Y-114936107D01*
X81020480Y-114957150D01*
X81030970Y-114979329D01*
X81039235Y-115002428D01*
X81045196Y-115026227D01*
X81048796Y-115050495D01*
X81050000Y-115074999D01*
X81050000Y-115725001D01*
X81048796Y-115749505D01*
X81045196Y-115773773D01*
X81039235Y-115797572D01*
X81030970Y-115820671D01*
X81020480Y-115842850D01*
X81007868Y-115863893D01*
X80993253Y-115883599D01*
X80976777Y-115901777D01*
X80958599Y-115918253D01*
X80938893Y-115932868D01*
X80917850Y-115945480D01*
X80895671Y-115955970D01*
X80872572Y-115964235D01*
X80848773Y-115970196D01*
X80824505Y-115973796D01*
X80800001Y-115975000D01*
X79899999Y-115975000D01*
X79875495Y-115973796D01*
X79851227Y-115970196D01*
X79827428Y-115964235D01*
X79804329Y-115955970D01*
X79782150Y-115945480D01*
X79761107Y-115932868D01*
X79741401Y-115918253D01*
X79723223Y-115901777D01*
X79706747Y-115883599D01*
X79692132Y-115863893D01*
X79679520Y-115842850D01*
X79669030Y-115820671D01*
X79660765Y-115797572D01*
X79654804Y-115773773D01*
X79651204Y-115749505D01*
X79650000Y-115725001D01*
X79650000Y-115074999D01*
X79651204Y-115050495D01*
X79654804Y-115026227D01*
X79660765Y-115002428D01*
X79669030Y-114979329D01*
X79679520Y-114957150D01*
X79692132Y-114936107D01*
X79706747Y-114916401D01*
X79723223Y-114898223D01*
X79741401Y-114881747D01*
X79761107Y-114867132D01*
X79782150Y-114854520D01*
X79804329Y-114844030D01*
X79827428Y-114835765D01*
X79851227Y-114829804D01*
X79875495Y-114826204D01*
X79899999Y-114825000D01*
X80800001Y-114825000D01*
X80824505Y-114826204D01*
G37*
G36*
X80824505Y-116876204D02*
G01*
X80848773Y-116879804D01*
X80872572Y-116885765D01*
X80895671Y-116894030D01*
X80917850Y-116904520D01*
X80938893Y-116917132D01*
X80958599Y-116931747D01*
X80976777Y-116948223D01*
X80993253Y-116966401D01*
X81007868Y-116986107D01*
X81020480Y-117007150D01*
X81030970Y-117029329D01*
X81039235Y-117052428D01*
X81045196Y-117076227D01*
X81048796Y-117100495D01*
X81050000Y-117124999D01*
X81050000Y-117775001D01*
X81048796Y-117799505D01*
X81045196Y-117823773D01*
X81039235Y-117847572D01*
X81030970Y-117870671D01*
X81020480Y-117892850D01*
X81007868Y-117913893D01*
X80993253Y-117933599D01*
X80976777Y-117951777D01*
X80958599Y-117968253D01*
X80938893Y-117982868D01*
X80917850Y-117995480D01*
X80895671Y-118005970D01*
X80872572Y-118014235D01*
X80848773Y-118020196D01*
X80824505Y-118023796D01*
X80800001Y-118025000D01*
X79899999Y-118025000D01*
X79875495Y-118023796D01*
X79851227Y-118020196D01*
X79827428Y-118014235D01*
X79804329Y-118005970D01*
X79782150Y-117995480D01*
X79761107Y-117982868D01*
X79741401Y-117968253D01*
X79723223Y-117951777D01*
X79706747Y-117933599D01*
X79692132Y-117913893D01*
X79679520Y-117892850D01*
X79669030Y-117870671D01*
X79660765Y-117847572D01*
X79654804Y-117823773D01*
X79651204Y-117799505D01*
X79650000Y-117775001D01*
X79650000Y-117124999D01*
X79651204Y-117100495D01*
X79654804Y-117076227D01*
X79660765Y-117052428D01*
X79669030Y-117029329D01*
X79679520Y-117007150D01*
X79692132Y-116986107D01*
X79706747Y-116966401D01*
X79723223Y-116948223D01*
X79741401Y-116931747D01*
X79761107Y-116917132D01*
X79782150Y-116904520D01*
X79804329Y-116894030D01*
X79827428Y-116885765D01*
X79851227Y-116879804D01*
X79875495Y-116876204D01*
X79899999Y-116875000D01*
X80800001Y-116875000D01*
X80824505Y-116876204D01*
G37*
G36*
X80874505Y-107526204D02*
G01*
X80898773Y-107529804D01*
X80922572Y-107535765D01*
X80945671Y-107544030D01*
X80967850Y-107554520D01*
X80988893Y-107567132D01*
X81008599Y-107581747D01*
X81026777Y-107598223D01*
X81043253Y-107616401D01*
X81057868Y-107636107D01*
X81070480Y-107657150D01*
X81080970Y-107679329D01*
X81089235Y-107702428D01*
X81095196Y-107726227D01*
X81098796Y-107750495D01*
X81100000Y-107774999D01*
X81100000Y-108425001D01*
X81098796Y-108449505D01*
X81095196Y-108473773D01*
X81089235Y-108497572D01*
X81080970Y-108520671D01*
X81070480Y-108542850D01*
X81057868Y-108563893D01*
X81043253Y-108583599D01*
X81026777Y-108601777D01*
X81008599Y-108618253D01*
X80988893Y-108632868D01*
X80967850Y-108645480D01*
X80945671Y-108655970D01*
X80922572Y-108664235D01*
X80898773Y-108670196D01*
X80874505Y-108673796D01*
X80850001Y-108675000D01*
X79949999Y-108675000D01*
X79925495Y-108673796D01*
X79901227Y-108670196D01*
X79877428Y-108664235D01*
X79854329Y-108655970D01*
X79832150Y-108645480D01*
X79811107Y-108632868D01*
X79791401Y-108618253D01*
X79773223Y-108601777D01*
X79756747Y-108583599D01*
X79742132Y-108563893D01*
X79729520Y-108542850D01*
X79719030Y-108520671D01*
X79710765Y-108497572D01*
X79704804Y-108473773D01*
X79701204Y-108449505D01*
X79700000Y-108425001D01*
X79700000Y-107774999D01*
X79701204Y-107750495D01*
X79704804Y-107726227D01*
X79710765Y-107702428D01*
X79719030Y-107679329D01*
X79729520Y-107657150D01*
X79742132Y-107636107D01*
X79756747Y-107616401D01*
X79773223Y-107598223D01*
X79791401Y-107581747D01*
X79811107Y-107567132D01*
X79832150Y-107554520D01*
X79854329Y-107544030D01*
X79877428Y-107535765D01*
X79901227Y-107529804D01*
X79925495Y-107526204D01*
X79949999Y-107525000D01*
X80850001Y-107525000D01*
X80874505Y-107526204D01*
G37*
G36*
X80874505Y-109576204D02*
G01*
X80898773Y-109579804D01*
X80922572Y-109585765D01*
X80945671Y-109594030D01*
X80967850Y-109604520D01*
X80988893Y-109617132D01*
X81008599Y-109631747D01*
X81026777Y-109648223D01*
X81043253Y-109666401D01*
X81057868Y-109686107D01*
X81070480Y-109707150D01*
X81080970Y-109729329D01*
X81089235Y-109752428D01*
X81095196Y-109776227D01*
X81098796Y-109800495D01*
X81100000Y-109824999D01*
X81100000Y-110475001D01*
X81098796Y-110499505D01*
X81095196Y-110523773D01*
X81089235Y-110547572D01*
X81080970Y-110570671D01*
X81070480Y-110592850D01*
X81057868Y-110613893D01*
X81043253Y-110633599D01*
X81026777Y-110651777D01*
X81008599Y-110668253D01*
X80988893Y-110682868D01*
X80967850Y-110695480D01*
X80945671Y-110705970D01*
X80922572Y-110714235D01*
X80898773Y-110720196D01*
X80874505Y-110723796D01*
X80850001Y-110725000D01*
X79949999Y-110725000D01*
X79925495Y-110723796D01*
X79901227Y-110720196D01*
X79877428Y-110714235D01*
X79854329Y-110705970D01*
X79832150Y-110695480D01*
X79811107Y-110682868D01*
X79791401Y-110668253D01*
X79773223Y-110651777D01*
X79756747Y-110633599D01*
X79742132Y-110613893D01*
X79729520Y-110592850D01*
X79719030Y-110570671D01*
X79710765Y-110547572D01*
X79704804Y-110523773D01*
X79701204Y-110499505D01*
X79700000Y-110475001D01*
X79700000Y-109824999D01*
X79701204Y-109800495D01*
X79704804Y-109776227D01*
X79710765Y-109752428D01*
X79719030Y-109729329D01*
X79729520Y-109707150D01*
X79742132Y-109686107D01*
X79756747Y-109666401D01*
X79773223Y-109648223D01*
X79791401Y-109631747D01*
X79811107Y-109617132D01*
X79832150Y-109604520D01*
X79854329Y-109594030D01*
X79877428Y-109585765D01*
X79901227Y-109579804D01*
X79925495Y-109576204D01*
X79949999Y-109575000D01*
X80850001Y-109575000D01*
X80874505Y-109576204D01*
G37*
G36*
X61599505Y-123826204D02*
G01*
X61623773Y-123829804D01*
X61647572Y-123835765D01*
X61670671Y-123844030D01*
X61692850Y-123854520D01*
X61713893Y-123867132D01*
X61733599Y-123881747D01*
X61751777Y-123898223D01*
X61768253Y-123916401D01*
X61782868Y-123936107D01*
X61795480Y-123957150D01*
X61805970Y-123979329D01*
X61814235Y-124002428D01*
X61820196Y-124026227D01*
X61823796Y-124050495D01*
X61825000Y-124074999D01*
X61825000Y-124725001D01*
X61823796Y-124749505D01*
X61820196Y-124773773D01*
X61814235Y-124797572D01*
X61805970Y-124820671D01*
X61795480Y-124842850D01*
X61782868Y-124863893D01*
X61768253Y-124883599D01*
X61751777Y-124901777D01*
X61733599Y-124918253D01*
X61713893Y-124932868D01*
X61692850Y-124945480D01*
X61670671Y-124955970D01*
X61647572Y-124964235D01*
X61623773Y-124970196D01*
X61599505Y-124973796D01*
X61575001Y-124975000D01*
X60674999Y-124975000D01*
X60650495Y-124973796D01*
X60626227Y-124970196D01*
X60602428Y-124964235D01*
X60579329Y-124955970D01*
X60557150Y-124945480D01*
X60536107Y-124932868D01*
X60516401Y-124918253D01*
X60498223Y-124901777D01*
X60481747Y-124883599D01*
X60467132Y-124863893D01*
X60454520Y-124842850D01*
X60444030Y-124820671D01*
X60435765Y-124797572D01*
X60429804Y-124773773D01*
X60426204Y-124749505D01*
X60425000Y-124725001D01*
X60425000Y-124074999D01*
X60426204Y-124050495D01*
X60429804Y-124026227D01*
X60435765Y-124002428D01*
X60444030Y-123979329D01*
X60454520Y-123957150D01*
X60467132Y-123936107D01*
X60481747Y-123916401D01*
X60498223Y-123898223D01*
X60516401Y-123881747D01*
X60536107Y-123867132D01*
X60557150Y-123854520D01*
X60579329Y-123844030D01*
X60602428Y-123835765D01*
X60626227Y-123829804D01*
X60650495Y-123826204D01*
X60674999Y-123825000D01*
X61575001Y-123825000D01*
X61599505Y-123826204D01*
G37*
G36*
X61599505Y-121776204D02*
G01*
X61623773Y-121779804D01*
X61647572Y-121785765D01*
X61670671Y-121794030D01*
X61692850Y-121804520D01*
X61713893Y-121817132D01*
X61733599Y-121831747D01*
X61751777Y-121848223D01*
X61768253Y-121866401D01*
X61782868Y-121886107D01*
X61795480Y-121907150D01*
X61805970Y-121929329D01*
X61814235Y-121952428D01*
X61820196Y-121976227D01*
X61823796Y-122000495D01*
X61825000Y-122024999D01*
X61825000Y-122675001D01*
X61823796Y-122699505D01*
X61820196Y-122723773D01*
X61814235Y-122747572D01*
X61805970Y-122770671D01*
X61795480Y-122792850D01*
X61782868Y-122813893D01*
X61768253Y-122833599D01*
X61751777Y-122851777D01*
X61733599Y-122868253D01*
X61713893Y-122882868D01*
X61692850Y-122895480D01*
X61670671Y-122905970D01*
X61647572Y-122914235D01*
X61623773Y-122920196D01*
X61599505Y-122923796D01*
X61575001Y-122925000D01*
X60674999Y-122925000D01*
X60650495Y-122923796D01*
X60626227Y-122920196D01*
X60602428Y-122914235D01*
X60579329Y-122905970D01*
X60557150Y-122895480D01*
X60536107Y-122882868D01*
X60516401Y-122868253D01*
X60498223Y-122851777D01*
X60481747Y-122833599D01*
X60467132Y-122813893D01*
X60454520Y-122792850D01*
X60444030Y-122770671D01*
X60435765Y-122747572D01*
X60429804Y-122723773D01*
X60426204Y-122699505D01*
X60425000Y-122675001D01*
X60425000Y-122024999D01*
X60426204Y-122000495D01*
X60429804Y-121976227D01*
X60435765Y-121952428D01*
X60444030Y-121929329D01*
X60454520Y-121907150D01*
X60467132Y-121886107D01*
X60481747Y-121866401D01*
X60498223Y-121848223D01*
X60516401Y-121831747D01*
X60536107Y-121817132D01*
X60557150Y-121804520D01*
X60579329Y-121794030D01*
X60602428Y-121785765D01*
X60626227Y-121779804D01*
X60650495Y-121776204D01*
X60674999Y-121775000D01*
X61575001Y-121775000D01*
X61599505Y-121776204D01*
G37*
G36*
X61574505Y-127676204D02*
G01*
X61598773Y-127679804D01*
X61622572Y-127685765D01*
X61645671Y-127694030D01*
X61667850Y-127704520D01*
X61688893Y-127717132D01*
X61708599Y-127731747D01*
X61726777Y-127748223D01*
X61743253Y-127766401D01*
X61757868Y-127786107D01*
X61770480Y-127807150D01*
X61780970Y-127829329D01*
X61789235Y-127852428D01*
X61795196Y-127876227D01*
X61798796Y-127900495D01*
X61800000Y-127924999D01*
X61800000Y-128575001D01*
X61798796Y-128599505D01*
X61795196Y-128623773D01*
X61789235Y-128647572D01*
X61780970Y-128670671D01*
X61770480Y-128692850D01*
X61757868Y-128713893D01*
X61743253Y-128733599D01*
X61726777Y-128751777D01*
X61708599Y-128768253D01*
X61688893Y-128782868D01*
X61667850Y-128795480D01*
X61645671Y-128805970D01*
X61622572Y-128814235D01*
X61598773Y-128820196D01*
X61574505Y-128823796D01*
X61550001Y-128825000D01*
X60649999Y-128825000D01*
X60625495Y-128823796D01*
X60601227Y-128820196D01*
X60577428Y-128814235D01*
X60554329Y-128805970D01*
X60532150Y-128795480D01*
X60511107Y-128782868D01*
X60491401Y-128768253D01*
X60473223Y-128751777D01*
X60456747Y-128733599D01*
X60442132Y-128713893D01*
X60429520Y-128692850D01*
X60419030Y-128670671D01*
X60410765Y-128647572D01*
X60404804Y-128623773D01*
X60401204Y-128599505D01*
X60400000Y-128575001D01*
X60400000Y-127924999D01*
X60401204Y-127900495D01*
X60404804Y-127876227D01*
X60410765Y-127852428D01*
X60419030Y-127829329D01*
X60429520Y-127807150D01*
X60442132Y-127786107D01*
X60456747Y-127766401D01*
X60473223Y-127748223D01*
X60491401Y-127731747D01*
X60511107Y-127717132D01*
X60532150Y-127704520D01*
X60554329Y-127694030D01*
X60577428Y-127685765D01*
X60601227Y-127679804D01*
X60625495Y-127676204D01*
X60649999Y-127675000D01*
X61550001Y-127675000D01*
X61574505Y-127676204D01*
G37*
G36*
X61574505Y-125626204D02*
G01*
X61598773Y-125629804D01*
X61622572Y-125635765D01*
X61645671Y-125644030D01*
X61667850Y-125654520D01*
X61688893Y-125667132D01*
X61708599Y-125681747D01*
X61726777Y-125698223D01*
X61743253Y-125716401D01*
X61757868Y-125736107D01*
X61770480Y-125757150D01*
X61780970Y-125779329D01*
X61789235Y-125802428D01*
X61795196Y-125826227D01*
X61798796Y-125850495D01*
X61800000Y-125874999D01*
X61800000Y-126525001D01*
X61798796Y-126549505D01*
X61795196Y-126573773D01*
X61789235Y-126597572D01*
X61780970Y-126620671D01*
X61770480Y-126642850D01*
X61757868Y-126663893D01*
X61743253Y-126683599D01*
X61726777Y-126701777D01*
X61708599Y-126718253D01*
X61688893Y-126732868D01*
X61667850Y-126745480D01*
X61645671Y-126755970D01*
X61622572Y-126764235D01*
X61598773Y-126770196D01*
X61574505Y-126773796D01*
X61550001Y-126775000D01*
X60649999Y-126775000D01*
X60625495Y-126773796D01*
X60601227Y-126770196D01*
X60577428Y-126764235D01*
X60554329Y-126755970D01*
X60532150Y-126745480D01*
X60511107Y-126732868D01*
X60491401Y-126718253D01*
X60473223Y-126701777D01*
X60456747Y-126683599D01*
X60442132Y-126663893D01*
X60429520Y-126642850D01*
X60419030Y-126620671D01*
X60410765Y-126597572D01*
X60404804Y-126573773D01*
X60401204Y-126549505D01*
X60400000Y-126525001D01*
X60400000Y-125874999D01*
X60401204Y-125850495D01*
X60404804Y-125826227D01*
X60410765Y-125802428D01*
X60419030Y-125779329D01*
X60429520Y-125757150D01*
X60442132Y-125736107D01*
X60456747Y-125716401D01*
X60473223Y-125698223D01*
X60491401Y-125681747D01*
X60511107Y-125667132D01*
X60532150Y-125654520D01*
X60554329Y-125644030D01*
X60577428Y-125635765D01*
X60601227Y-125629804D01*
X60625495Y-125626204D01*
X60649999Y-125625000D01*
X61550001Y-125625000D01*
X61574505Y-125626204D01*
G37*
G36*
X92470000Y-69600000D02*
G01*
X92470000Y-73600000D01*
X90470000Y-73600000D01*
X90470000Y-69600000D01*
X92470000Y-69600000D01*
G37*
G36*
X89930000Y-69600000D02*
G01*
X89930000Y-73600000D01*
X87930000Y-73600000D01*
X87930000Y-69600000D01*
X89930000Y-69600000D01*
G37*
G36*
X87390000Y-69600000D02*
G01*
X87390000Y-73600000D01*
X85390000Y-73600000D01*
X85390000Y-69600000D01*
X87390000Y-69600000D01*
G37*
G36*
X84850000Y-69600000D02*
G01*
X84850000Y-73600000D01*
X82850000Y-73600000D01*
X82850000Y-69600000D01*
X84850000Y-69600000D01*
G37*
G36*
X82310000Y-69600000D02*
G01*
X82310000Y-73600000D01*
X80310000Y-73600000D01*
X80310000Y-69600000D01*
X82310000Y-69600000D01*
G37*
G36*
X82824505Y-107526204D02*
G01*
X82848773Y-107529804D01*
X82872572Y-107535765D01*
X82895671Y-107544030D01*
X82917850Y-107554520D01*
X82938893Y-107567132D01*
X82958599Y-107581747D01*
X82976777Y-107598223D01*
X82993253Y-107616401D01*
X83007868Y-107636107D01*
X83020480Y-107657150D01*
X83030970Y-107679329D01*
X83039235Y-107702428D01*
X83045196Y-107726227D01*
X83048796Y-107750495D01*
X83050000Y-107774999D01*
X83050000Y-108425001D01*
X83048796Y-108449505D01*
X83045196Y-108473773D01*
X83039235Y-108497572D01*
X83030970Y-108520671D01*
X83020480Y-108542850D01*
X83007868Y-108563893D01*
X82993253Y-108583599D01*
X82976777Y-108601777D01*
X82958599Y-108618253D01*
X82938893Y-108632868D01*
X82917850Y-108645480D01*
X82895671Y-108655970D01*
X82872572Y-108664235D01*
X82848773Y-108670196D01*
X82824505Y-108673796D01*
X82800001Y-108675000D01*
X81899999Y-108675000D01*
X81875495Y-108673796D01*
X81851227Y-108670196D01*
X81827428Y-108664235D01*
X81804329Y-108655970D01*
X81782150Y-108645480D01*
X81761107Y-108632868D01*
X81741401Y-108618253D01*
X81723223Y-108601777D01*
X81706747Y-108583599D01*
X81692132Y-108563893D01*
X81679520Y-108542850D01*
X81669030Y-108520671D01*
X81660765Y-108497572D01*
X81654804Y-108473773D01*
X81651204Y-108449505D01*
X81650000Y-108425001D01*
X81650000Y-107774999D01*
X81651204Y-107750495D01*
X81654804Y-107726227D01*
X81660765Y-107702428D01*
X81669030Y-107679329D01*
X81679520Y-107657150D01*
X81692132Y-107636107D01*
X81706747Y-107616401D01*
X81723223Y-107598223D01*
X81741401Y-107581747D01*
X81761107Y-107567132D01*
X81782150Y-107554520D01*
X81804329Y-107544030D01*
X81827428Y-107535765D01*
X81851227Y-107529804D01*
X81875495Y-107526204D01*
X81899999Y-107525000D01*
X82800001Y-107525000D01*
X82824505Y-107526204D01*
G37*
G36*
X82824505Y-109576204D02*
G01*
X82848773Y-109579804D01*
X82872572Y-109585765D01*
X82895671Y-109594030D01*
X82917850Y-109604520D01*
X82938893Y-109617132D01*
X82958599Y-109631747D01*
X82976777Y-109648223D01*
X82993253Y-109666401D01*
X83007868Y-109686107D01*
X83020480Y-109707150D01*
X83030970Y-109729329D01*
X83039235Y-109752428D01*
X83045196Y-109776227D01*
X83048796Y-109800495D01*
X83050000Y-109824999D01*
X83050000Y-110475001D01*
X83048796Y-110499505D01*
X83045196Y-110523773D01*
X83039235Y-110547572D01*
X83030970Y-110570671D01*
X83020480Y-110592850D01*
X83007868Y-110613893D01*
X82993253Y-110633599D01*
X82976777Y-110651777D01*
X82958599Y-110668253D01*
X82938893Y-110682868D01*
X82917850Y-110695480D01*
X82895671Y-110705970D01*
X82872572Y-110714235D01*
X82848773Y-110720196D01*
X82824505Y-110723796D01*
X82800001Y-110725000D01*
X81899999Y-110725000D01*
X81875495Y-110723796D01*
X81851227Y-110720196D01*
X81827428Y-110714235D01*
X81804329Y-110705970D01*
X81782150Y-110695480D01*
X81761107Y-110682868D01*
X81741401Y-110668253D01*
X81723223Y-110651777D01*
X81706747Y-110633599D01*
X81692132Y-110613893D01*
X81679520Y-110592850D01*
X81669030Y-110570671D01*
X81660765Y-110547572D01*
X81654804Y-110523773D01*
X81651204Y-110499505D01*
X81650000Y-110475001D01*
X81650000Y-109824999D01*
X81651204Y-109800495D01*
X81654804Y-109776227D01*
X81660765Y-109752428D01*
X81669030Y-109729329D01*
X81679520Y-109707150D01*
X81692132Y-109686107D01*
X81706747Y-109666401D01*
X81723223Y-109648223D01*
X81741401Y-109631747D01*
X81761107Y-109617132D01*
X81782150Y-109604520D01*
X81804329Y-109594030D01*
X81827428Y-109585765D01*
X81851227Y-109579804D01*
X81875495Y-109576204D01*
X81899999Y-109575000D01*
X82800001Y-109575000D01*
X82824505Y-109576204D01*
G37*
G36*
X61599505Y-116351204D02*
G01*
X61623773Y-116354804D01*
X61647572Y-116360765D01*
X61670671Y-116369030D01*
X61692850Y-116379520D01*
X61713893Y-116392132D01*
X61733599Y-116406747D01*
X61751777Y-116423223D01*
X61768253Y-116441401D01*
X61782868Y-116461107D01*
X61795480Y-116482150D01*
X61805970Y-116504329D01*
X61814235Y-116527428D01*
X61820196Y-116551227D01*
X61823796Y-116575495D01*
X61825000Y-116599999D01*
X61825000Y-117250001D01*
X61823796Y-117274505D01*
X61820196Y-117298773D01*
X61814235Y-117322572D01*
X61805970Y-117345671D01*
X61795480Y-117367850D01*
X61782868Y-117388893D01*
X61768253Y-117408599D01*
X61751777Y-117426777D01*
X61733599Y-117443253D01*
X61713893Y-117457868D01*
X61692850Y-117470480D01*
X61670671Y-117480970D01*
X61647572Y-117489235D01*
X61623773Y-117495196D01*
X61599505Y-117498796D01*
X61575001Y-117500000D01*
X60674999Y-117500000D01*
X60650495Y-117498796D01*
X60626227Y-117495196D01*
X60602428Y-117489235D01*
X60579329Y-117480970D01*
X60557150Y-117470480D01*
X60536107Y-117457868D01*
X60516401Y-117443253D01*
X60498223Y-117426777D01*
X60481747Y-117408599D01*
X60467132Y-117388893D01*
X60454520Y-117367850D01*
X60444030Y-117345671D01*
X60435765Y-117322572D01*
X60429804Y-117298773D01*
X60426204Y-117274505D01*
X60425000Y-117250001D01*
X60425000Y-116599999D01*
X60426204Y-116575495D01*
X60429804Y-116551227D01*
X60435765Y-116527428D01*
X60444030Y-116504329D01*
X60454520Y-116482150D01*
X60467132Y-116461107D01*
X60481747Y-116441401D01*
X60498223Y-116423223D01*
X60516401Y-116406747D01*
X60536107Y-116392132D01*
X60557150Y-116379520D01*
X60579329Y-116369030D01*
X60602428Y-116360765D01*
X60626227Y-116354804D01*
X60650495Y-116351204D01*
X60674999Y-116350000D01*
X61575001Y-116350000D01*
X61599505Y-116351204D01*
G37*
G36*
X61599505Y-114301204D02*
G01*
X61623773Y-114304804D01*
X61647572Y-114310765D01*
X61670671Y-114319030D01*
X61692850Y-114329520D01*
X61713893Y-114342132D01*
X61733599Y-114356747D01*
X61751777Y-114373223D01*
X61768253Y-114391401D01*
X61782868Y-114411107D01*
X61795480Y-114432150D01*
X61805970Y-114454329D01*
X61814235Y-114477428D01*
X61820196Y-114501227D01*
X61823796Y-114525495D01*
X61825000Y-114549999D01*
X61825000Y-115200001D01*
X61823796Y-115224505D01*
X61820196Y-115248773D01*
X61814235Y-115272572D01*
X61805970Y-115295671D01*
X61795480Y-115317850D01*
X61782868Y-115338893D01*
X61768253Y-115358599D01*
X61751777Y-115376777D01*
X61733599Y-115393253D01*
X61713893Y-115407868D01*
X61692850Y-115420480D01*
X61670671Y-115430970D01*
X61647572Y-115439235D01*
X61623773Y-115445196D01*
X61599505Y-115448796D01*
X61575001Y-115450000D01*
X60674999Y-115450000D01*
X60650495Y-115448796D01*
X60626227Y-115445196D01*
X60602428Y-115439235D01*
X60579329Y-115430970D01*
X60557150Y-115420480D01*
X60536107Y-115407868D01*
X60516401Y-115393253D01*
X60498223Y-115376777D01*
X60481747Y-115358599D01*
X60467132Y-115338893D01*
X60454520Y-115317850D01*
X60444030Y-115295671D01*
X60435765Y-115272572D01*
X60429804Y-115248773D01*
X60426204Y-115224505D01*
X60425000Y-115200001D01*
X60425000Y-114549999D01*
X60426204Y-114525495D01*
X60429804Y-114501227D01*
X60435765Y-114477428D01*
X60444030Y-114454329D01*
X60454520Y-114432150D01*
X60467132Y-114411107D01*
X60481747Y-114391401D01*
X60498223Y-114373223D01*
X60516401Y-114356747D01*
X60536107Y-114342132D01*
X60557150Y-114329520D01*
X60579329Y-114319030D01*
X60602428Y-114310765D01*
X60626227Y-114304804D01*
X60650495Y-114301204D01*
X60674999Y-114300000D01*
X61575001Y-114300000D01*
X61599505Y-114301204D01*
G37*
G36*
X61599505Y-118026204D02*
G01*
X61623773Y-118029804D01*
X61647572Y-118035765D01*
X61670671Y-118044030D01*
X61692850Y-118054520D01*
X61713893Y-118067132D01*
X61733599Y-118081747D01*
X61751777Y-118098223D01*
X61768253Y-118116401D01*
X61782868Y-118136107D01*
X61795480Y-118157150D01*
X61805970Y-118179329D01*
X61814235Y-118202428D01*
X61820196Y-118226227D01*
X61823796Y-118250495D01*
X61825000Y-118274999D01*
X61825000Y-118925001D01*
X61823796Y-118949505D01*
X61820196Y-118973773D01*
X61814235Y-118997572D01*
X61805970Y-119020671D01*
X61795480Y-119042850D01*
X61782868Y-119063893D01*
X61768253Y-119083599D01*
X61751777Y-119101777D01*
X61733599Y-119118253D01*
X61713893Y-119132868D01*
X61692850Y-119145480D01*
X61670671Y-119155970D01*
X61647572Y-119164235D01*
X61623773Y-119170196D01*
X61599505Y-119173796D01*
X61575001Y-119175000D01*
X60674999Y-119175000D01*
X60650495Y-119173796D01*
X60626227Y-119170196D01*
X60602428Y-119164235D01*
X60579329Y-119155970D01*
X60557150Y-119145480D01*
X60536107Y-119132868D01*
X60516401Y-119118253D01*
X60498223Y-119101777D01*
X60481747Y-119083599D01*
X60467132Y-119063893D01*
X60454520Y-119042850D01*
X60444030Y-119020671D01*
X60435765Y-118997572D01*
X60429804Y-118973773D01*
X60426204Y-118949505D01*
X60425000Y-118925001D01*
X60425000Y-118274999D01*
X60426204Y-118250495D01*
X60429804Y-118226227D01*
X60435765Y-118202428D01*
X60444030Y-118179329D01*
X60454520Y-118157150D01*
X60467132Y-118136107D01*
X60481747Y-118116401D01*
X60498223Y-118098223D01*
X60516401Y-118081747D01*
X60536107Y-118067132D01*
X60557150Y-118054520D01*
X60579329Y-118044030D01*
X60602428Y-118035765D01*
X60626227Y-118029804D01*
X60650495Y-118026204D01*
X60674999Y-118025000D01*
X61575001Y-118025000D01*
X61599505Y-118026204D01*
G37*
G36*
X61599505Y-120076204D02*
G01*
X61623773Y-120079804D01*
X61647572Y-120085765D01*
X61670671Y-120094030D01*
X61692850Y-120104520D01*
X61713893Y-120117132D01*
X61733599Y-120131747D01*
X61751777Y-120148223D01*
X61768253Y-120166401D01*
X61782868Y-120186107D01*
X61795480Y-120207150D01*
X61805970Y-120229329D01*
X61814235Y-120252428D01*
X61820196Y-120276227D01*
X61823796Y-120300495D01*
X61825000Y-120324999D01*
X61825000Y-120975001D01*
X61823796Y-120999505D01*
X61820196Y-121023773D01*
X61814235Y-121047572D01*
X61805970Y-121070671D01*
X61795480Y-121092850D01*
X61782868Y-121113893D01*
X61768253Y-121133599D01*
X61751777Y-121151777D01*
X61733599Y-121168253D01*
X61713893Y-121182868D01*
X61692850Y-121195480D01*
X61670671Y-121205970D01*
X61647572Y-121214235D01*
X61623773Y-121220196D01*
X61599505Y-121223796D01*
X61575001Y-121225000D01*
X60674999Y-121225000D01*
X60650495Y-121223796D01*
X60626227Y-121220196D01*
X60602428Y-121214235D01*
X60579329Y-121205970D01*
X60557150Y-121195480D01*
X60536107Y-121182868D01*
X60516401Y-121168253D01*
X60498223Y-121151777D01*
X60481747Y-121133599D01*
X60467132Y-121113893D01*
X60454520Y-121092850D01*
X60444030Y-121070671D01*
X60435765Y-121047572D01*
X60429804Y-121023773D01*
X60426204Y-120999505D01*
X60425000Y-120975001D01*
X60425000Y-120324999D01*
X60426204Y-120300495D01*
X60429804Y-120276227D01*
X60435765Y-120252428D01*
X60444030Y-120229329D01*
X60454520Y-120207150D01*
X60467132Y-120186107D01*
X60481747Y-120166401D01*
X60498223Y-120148223D01*
X60516401Y-120131747D01*
X60536107Y-120117132D01*
X60557150Y-120104520D01*
X60579329Y-120094030D01*
X60602428Y-120085765D01*
X60626227Y-120079804D01*
X60650495Y-120076204D01*
X60674999Y-120075000D01*
X61575001Y-120075000D01*
X61599505Y-120076204D01*
G37*
G36*
X97824505Y-88326204D02*
G01*
X97848773Y-88329804D01*
X97872572Y-88335765D01*
X97895671Y-88344030D01*
X97917850Y-88354520D01*
X97938893Y-88367132D01*
X97958599Y-88381747D01*
X97976777Y-88398223D01*
X97993253Y-88416401D01*
X98007868Y-88436107D01*
X98020480Y-88457150D01*
X98030970Y-88479329D01*
X98039235Y-88502428D01*
X98045196Y-88526227D01*
X98048796Y-88550495D01*
X98050000Y-88574999D01*
X98050000Y-89225001D01*
X98048796Y-89249505D01*
X98045196Y-89273773D01*
X98039235Y-89297572D01*
X98030970Y-89320671D01*
X98020480Y-89342850D01*
X98007868Y-89363893D01*
X97993253Y-89383599D01*
X97976777Y-89401777D01*
X97958599Y-89418253D01*
X97938893Y-89432868D01*
X97917850Y-89445480D01*
X97895671Y-89455970D01*
X97872572Y-89464235D01*
X97848773Y-89470196D01*
X97824505Y-89473796D01*
X97800001Y-89475000D01*
X96899999Y-89475000D01*
X96875495Y-89473796D01*
X96851227Y-89470196D01*
X96827428Y-89464235D01*
X96804329Y-89455970D01*
X96782150Y-89445480D01*
X96761107Y-89432868D01*
X96741401Y-89418253D01*
X96723223Y-89401777D01*
X96706747Y-89383599D01*
X96692132Y-89363893D01*
X96679520Y-89342850D01*
X96669030Y-89320671D01*
X96660765Y-89297572D01*
X96654804Y-89273773D01*
X96651204Y-89249505D01*
X96650000Y-89225001D01*
X96650000Y-88574999D01*
X96651204Y-88550495D01*
X96654804Y-88526227D01*
X96660765Y-88502428D01*
X96669030Y-88479329D01*
X96679520Y-88457150D01*
X96692132Y-88436107D01*
X96706747Y-88416401D01*
X96723223Y-88398223D01*
X96741401Y-88381747D01*
X96761107Y-88367132D01*
X96782150Y-88354520D01*
X96804329Y-88344030D01*
X96827428Y-88335765D01*
X96851227Y-88329804D01*
X96875495Y-88326204D01*
X96899999Y-88325000D01*
X97800001Y-88325000D01*
X97824505Y-88326204D01*
G37*
G36*
X97824505Y-86276204D02*
G01*
X97848773Y-86279804D01*
X97872572Y-86285765D01*
X97895671Y-86294030D01*
X97917850Y-86304520D01*
X97938893Y-86317132D01*
X97958599Y-86331747D01*
X97976777Y-86348223D01*
X97993253Y-86366401D01*
X98007868Y-86386107D01*
X98020480Y-86407150D01*
X98030970Y-86429329D01*
X98039235Y-86452428D01*
X98045196Y-86476227D01*
X98048796Y-86500495D01*
X98050000Y-86524999D01*
X98050000Y-87175001D01*
X98048796Y-87199505D01*
X98045196Y-87223773D01*
X98039235Y-87247572D01*
X98030970Y-87270671D01*
X98020480Y-87292850D01*
X98007868Y-87313893D01*
X97993253Y-87333599D01*
X97976777Y-87351777D01*
X97958599Y-87368253D01*
X97938893Y-87382868D01*
X97917850Y-87395480D01*
X97895671Y-87405970D01*
X97872572Y-87414235D01*
X97848773Y-87420196D01*
X97824505Y-87423796D01*
X97800001Y-87425000D01*
X96899999Y-87425000D01*
X96875495Y-87423796D01*
X96851227Y-87420196D01*
X96827428Y-87414235D01*
X96804329Y-87405970D01*
X96782150Y-87395480D01*
X96761107Y-87382868D01*
X96741401Y-87368253D01*
X96723223Y-87351777D01*
X96706747Y-87333599D01*
X96692132Y-87313893D01*
X96679520Y-87292850D01*
X96669030Y-87270671D01*
X96660765Y-87247572D01*
X96654804Y-87223773D01*
X96651204Y-87199505D01*
X96650000Y-87175001D01*
X96650000Y-86524999D01*
X96651204Y-86500495D01*
X96654804Y-86476227D01*
X96660765Y-86452428D01*
X96669030Y-86429329D01*
X96679520Y-86407150D01*
X96692132Y-86386107D01*
X96706747Y-86366401D01*
X96723223Y-86348223D01*
X96741401Y-86331747D01*
X96761107Y-86317132D01*
X96782150Y-86304520D01*
X96804329Y-86294030D01*
X96827428Y-86285765D01*
X96851227Y-86279804D01*
X96875495Y-86276204D01*
X96899999Y-86275000D01*
X97800001Y-86275000D01*
X97824505Y-86276204D01*
G37*
G36*
X97824505Y-110526204D02*
G01*
X97848773Y-110529804D01*
X97872572Y-110535765D01*
X97895671Y-110544030D01*
X97917850Y-110554520D01*
X97938893Y-110567132D01*
X97958599Y-110581747D01*
X97976777Y-110598223D01*
X97993253Y-110616401D01*
X98007868Y-110636107D01*
X98020480Y-110657150D01*
X98030970Y-110679329D01*
X98039235Y-110702428D01*
X98045196Y-110726227D01*
X98048796Y-110750495D01*
X98050000Y-110774999D01*
X98050000Y-111425001D01*
X98048796Y-111449505D01*
X98045196Y-111473773D01*
X98039235Y-111497572D01*
X98030970Y-111520671D01*
X98020480Y-111542850D01*
X98007868Y-111563893D01*
X97993253Y-111583599D01*
X97976777Y-111601777D01*
X97958599Y-111618253D01*
X97938893Y-111632868D01*
X97917850Y-111645480D01*
X97895671Y-111655970D01*
X97872572Y-111664235D01*
X97848773Y-111670196D01*
X97824505Y-111673796D01*
X97800001Y-111675000D01*
X96899999Y-111675000D01*
X96875495Y-111673796D01*
X96851227Y-111670196D01*
X96827428Y-111664235D01*
X96804329Y-111655970D01*
X96782150Y-111645480D01*
X96761107Y-111632868D01*
X96741401Y-111618253D01*
X96723223Y-111601777D01*
X96706747Y-111583599D01*
X96692132Y-111563893D01*
X96679520Y-111542850D01*
X96669030Y-111520671D01*
X96660765Y-111497572D01*
X96654804Y-111473773D01*
X96651204Y-111449505D01*
X96650000Y-111425001D01*
X96650000Y-110774999D01*
X96651204Y-110750495D01*
X96654804Y-110726227D01*
X96660765Y-110702428D01*
X96669030Y-110679329D01*
X96679520Y-110657150D01*
X96692132Y-110636107D01*
X96706747Y-110616401D01*
X96723223Y-110598223D01*
X96741401Y-110581747D01*
X96761107Y-110567132D01*
X96782150Y-110554520D01*
X96804329Y-110544030D01*
X96827428Y-110535765D01*
X96851227Y-110529804D01*
X96875495Y-110526204D01*
X96899999Y-110525000D01*
X97800001Y-110525000D01*
X97824505Y-110526204D01*
G37*
G36*
X97824505Y-112576204D02*
G01*
X97848773Y-112579804D01*
X97872572Y-112585765D01*
X97895671Y-112594030D01*
X97917850Y-112604520D01*
X97938893Y-112617132D01*
X97958599Y-112631747D01*
X97976777Y-112648223D01*
X97993253Y-112666401D01*
X98007868Y-112686107D01*
X98020480Y-112707150D01*
X98030970Y-112729329D01*
X98039235Y-112752428D01*
X98045196Y-112776227D01*
X98048796Y-112800495D01*
X98050000Y-112824999D01*
X98050000Y-113475001D01*
X98048796Y-113499505D01*
X98045196Y-113523773D01*
X98039235Y-113547572D01*
X98030970Y-113570671D01*
X98020480Y-113592850D01*
X98007868Y-113613893D01*
X97993253Y-113633599D01*
X97976777Y-113651777D01*
X97958599Y-113668253D01*
X97938893Y-113682868D01*
X97917850Y-113695480D01*
X97895671Y-113705970D01*
X97872572Y-113714235D01*
X97848773Y-113720196D01*
X97824505Y-113723796D01*
X97800001Y-113725000D01*
X96899999Y-113725000D01*
X96875495Y-113723796D01*
X96851227Y-113720196D01*
X96827428Y-113714235D01*
X96804329Y-113705970D01*
X96782150Y-113695480D01*
X96761107Y-113682868D01*
X96741401Y-113668253D01*
X96723223Y-113651777D01*
X96706747Y-113633599D01*
X96692132Y-113613893D01*
X96679520Y-113592850D01*
X96669030Y-113570671D01*
X96660765Y-113547572D01*
X96654804Y-113523773D01*
X96651204Y-113499505D01*
X96650000Y-113475001D01*
X96650000Y-112824999D01*
X96651204Y-112800495D01*
X96654804Y-112776227D01*
X96660765Y-112752428D01*
X96669030Y-112729329D01*
X96679520Y-112707150D01*
X96692132Y-112686107D01*
X96706747Y-112666401D01*
X96723223Y-112648223D01*
X96741401Y-112631747D01*
X96761107Y-112617132D01*
X96782150Y-112604520D01*
X96804329Y-112594030D01*
X96827428Y-112585765D01*
X96851227Y-112579804D01*
X96875495Y-112576204D01*
X96899999Y-112575000D01*
X97800001Y-112575000D01*
X97824505Y-112576204D01*
G37*
D17*
X99000000Y-87050000D03*
X99000000Y-88950000D03*
X101000000Y-88000000D03*
X99000000Y-111050000D03*
X99000000Y-112950000D03*
X101000000Y-112000000D03*
D18*
X61975000Y-103150000D03*
X62925000Y-105150000D03*
X61025000Y-105150000D03*
D12*
G36*
X103124505Y-88326204D02*
G01*
X103148773Y-88329804D01*
X103172572Y-88335765D01*
X103195671Y-88344030D01*
X103217850Y-88354520D01*
X103238893Y-88367132D01*
X103258599Y-88381747D01*
X103276777Y-88398223D01*
X103293253Y-88416401D01*
X103307868Y-88436107D01*
X103320480Y-88457150D01*
X103330970Y-88479329D01*
X103339235Y-88502428D01*
X103345196Y-88526227D01*
X103348796Y-88550495D01*
X103350000Y-88574999D01*
X103350000Y-89225001D01*
X103348796Y-89249505D01*
X103345196Y-89273773D01*
X103339235Y-89297572D01*
X103330970Y-89320671D01*
X103320480Y-89342850D01*
X103307868Y-89363893D01*
X103293253Y-89383599D01*
X103276777Y-89401777D01*
X103258599Y-89418253D01*
X103238893Y-89432868D01*
X103217850Y-89445480D01*
X103195671Y-89455970D01*
X103172572Y-89464235D01*
X103148773Y-89470196D01*
X103124505Y-89473796D01*
X103100001Y-89475000D01*
X102199999Y-89475000D01*
X102175495Y-89473796D01*
X102151227Y-89470196D01*
X102127428Y-89464235D01*
X102104329Y-89455970D01*
X102082150Y-89445480D01*
X102061107Y-89432868D01*
X102041401Y-89418253D01*
X102023223Y-89401777D01*
X102006747Y-89383599D01*
X101992132Y-89363893D01*
X101979520Y-89342850D01*
X101969030Y-89320671D01*
X101960765Y-89297572D01*
X101954804Y-89273773D01*
X101951204Y-89249505D01*
X101950000Y-89225001D01*
X101950000Y-88574999D01*
X101951204Y-88550495D01*
X101954804Y-88526227D01*
X101960765Y-88502428D01*
X101969030Y-88479329D01*
X101979520Y-88457150D01*
X101992132Y-88436107D01*
X102006747Y-88416401D01*
X102023223Y-88398223D01*
X102041401Y-88381747D01*
X102061107Y-88367132D01*
X102082150Y-88354520D01*
X102104329Y-88344030D01*
X102127428Y-88335765D01*
X102151227Y-88329804D01*
X102175495Y-88326204D01*
X102199999Y-88325000D01*
X103100001Y-88325000D01*
X103124505Y-88326204D01*
G37*
G36*
X103124505Y-86276204D02*
G01*
X103148773Y-86279804D01*
X103172572Y-86285765D01*
X103195671Y-86294030D01*
X103217850Y-86304520D01*
X103238893Y-86317132D01*
X103258599Y-86331747D01*
X103276777Y-86348223D01*
X103293253Y-86366401D01*
X103307868Y-86386107D01*
X103320480Y-86407150D01*
X103330970Y-86429329D01*
X103339235Y-86452428D01*
X103345196Y-86476227D01*
X103348796Y-86500495D01*
X103350000Y-86524999D01*
X103350000Y-87175001D01*
X103348796Y-87199505D01*
X103345196Y-87223773D01*
X103339235Y-87247572D01*
X103330970Y-87270671D01*
X103320480Y-87292850D01*
X103307868Y-87313893D01*
X103293253Y-87333599D01*
X103276777Y-87351777D01*
X103258599Y-87368253D01*
X103238893Y-87382868D01*
X103217850Y-87395480D01*
X103195671Y-87405970D01*
X103172572Y-87414235D01*
X103148773Y-87420196D01*
X103124505Y-87423796D01*
X103100001Y-87425000D01*
X102199999Y-87425000D01*
X102175495Y-87423796D01*
X102151227Y-87420196D01*
X102127428Y-87414235D01*
X102104329Y-87405970D01*
X102082150Y-87395480D01*
X102061107Y-87382868D01*
X102041401Y-87368253D01*
X102023223Y-87351777D01*
X102006747Y-87333599D01*
X101992132Y-87313893D01*
X101979520Y-87292850D01*
X101969030Y-87270671D01*
X101960765Y-87247572D01*
X101954804Y-87223773D01*
X101951204Y-87199505D01*
X101950000Y-87175001D01*
X101950000Y-86524999D01*
X101951204Y-86500495D01*
X101954804Y-86476227D01*
X101960765Y-86452428D01*
X101969030Y-86429329D01*
X101979520Y-86407150D01*
X101992132Y-86386107D01*
X102006747Y-86366401D01*
X102023223Y-86348223D01*
X102041401Y-86331747D01*
X102061107Y-86317132D01*
X102082150Y-86304520D01*
X102104329Y-86294030D01*
X102127428Y-86285765D01*
X102151227Y-86279804D01*
X102175495Y-86276204D01*
X102199999Y-86275000D01*
X103100001Y-86275000D01*
X103124505Y-86276204D01*
G37*
G36*
X103124505Y-110526204D02*
G01*
X103148773Y-110529804D01*
X103172572Y-110535765D01*
X103195671Y-110544030D01*
X103217850Y-110554520D01*
X103238893Y-110567132D01*
X103258599Y-110581747D01*
X103276777Y-110598223D01*
X103293253Y-110616401D01*
X103307868Y-110636107D01*
X103320480Y-110657150D01*
X103330970Y-110679329D01*
X103339235Y-110702428D01*
X103345196Y-110726227D01*
X103348796Y-110750495D01*
X103350000Y-110774999D01*
X103350000Y-111425001D01*
X103348796Y-111449505D01*
X103345196Y-111473773D01*
X103339235Y-111497572D01*
X103330970Y-111520671D01*
X103320480Y-111542850D01*
X103307868Y-111563893D01*
X103293253Y-111583599D01*
X103276777Y-111601777D01*
X103258599Y-111618253D01*
X103238893Y-111632868D01*
X103217850Y-111645480D01*
X103195671Y-111655970D01*
X103172572Y-111664235D01*
X103148773Y-111670196D01*
X103124505Y-111673796D01*
X103100001Y-111675000D01*
X102199999Y-111675000D01*
X102175495Y-111673796D01*
X102151227Y-111670196D01*
X102127428Y-111664235D01*
X102104329Y-111655970D01*
X102082150Y-111645480D01*
X102061107Y-111632868D01*
X102041401Y-111618253D01*
X102023223Y-111601777D01*
X102006747Y-111583599D01*
X101992132Y-111563893D01*
X101979520Y-111542850D01*
X101969030Y-111520671D01*
X101960765Y-111497572D01*
X101954804Y-111473773D01*
X101951204Y-111449505D01*
X101950000Y-111425001D01*
X101950000Y-110774999D01*
X101951204Y-110750495D01*
X101954804Y-110726227D01*
X101960765Y-110702428D01*
X101969030Y-110679329D01*
X101979520Y-110657150D01*
X101992132Y-110636107D01*
X102006747Y-110616401D01*
X102023223Y-110598223D01*
X102041401Y-110581747D01*
X102061107Y-110567132D01*
X102082150Y-110554520D01*
X102104329Y-110544030D01*
X102127428Y-110535765D01*
X102151227Y-110529804D01*
X102175495Y-110526204D01*
X102199999Y-110525000D01*
X103100001Y-110525000D01*
X103124505Y-110526204D01*
G37*
G36*
X103124505Y-112576204D02*
G01*
X103148773Y-112579804D01*
X103172572Y-112585765D01*
X103195671Y-112594030D01*
X103217850Y-112604520D01*
X103238893Y-112617132D01*
X103258599Y-112631747D01*
X103276777Y-112648223D01*
X103293253Y-112666401D01*
X103307868Y-112686107D01*
X103320480Y-112707150D01*
X103330970Y-112729329D01*
X103339235Y-112752428D01*
X103345196Y-112776227D01*
X103348796Y-112800495D01*
X103350000Y-112824999D01*
X103350000Y-113475001D01*
X103348796Y-113499505D01*
X103345196Y-113523773D01*
X103339235Y-113547572D01*
X103330970Y-113570671D01*
X103320480Y-113592850D01*
X103307868Y-113613893D01*
X103293253Y-113633599D01*
X103276777Y-113651777D01*
X103258599Y-113668253D01*
X103238893Y-113682868D01*
X103217850Y-113695480D01*
X103195671Y-113705970D01*
X103172572Y-113714235D01*
X103148773Y-113720196D01*
X103124505Y-113723796D01*
X103100001Y-113725000D01*
X102199999Y-113725000D01*
X102175495Y-113723796D01*
X102151227Y-113720196D01*
X102127428Y-113714235D01*
X102104329Y-113705970D01*
X102082150Y-113695480D01*
X102061107Y-113682868D01*
X102041401Y-113668253D01*
X102023223Y-113651777D01*
X102006747Y-113633599D01*
X101992132Y-113613893D01*
X101979520Y-113592850D01*
X101969030Y-113570671D01*
X101960765Y-113547572D01*
X101954804Y-113523773D01*
X101951204Y-113499505D01*
X101950000Y-113475001D01*
X101950000Y-112824999D01*
X101951204Y-112800495D01*
X101954804Y-112776227D01*
X101960765Y-112752428D01*
X101969030Y-112729329D01*
X101979520Y-112707150D01*
X101992132Y-112686107D01*
X102006747Y-112666401D01*
X102023223Y-112648223D01*
X102041401Y-112631747D01*
X102061107Y-112617132D01*
X102082150Y-112604520D01*
X102104329Y-112594030D01*
X102127428Y-112585765D01*
X102151227Y-112579804D01*
X102175495Y-112576204D01*
X102199999Y-112575000D01*
X103100001Y-112575000D01*
X103124505Y-112576204D01*
G37*
G36*
X65599505Y-104501204D02*
G01*
X65623773Y-104504804D01*
X65647572Y-104510765D01*
X65670671Y-104519030D01*
X65692850Y-104529520D01*
X65713893Y-104542132D01*
X65733599Y-104556747D01*
X65751777Y-104573223D01*
X65768253Y-104591401D01*
X65782868Y-104611107D01*
X65795480Y-104632150D01*
X65805970Y-104654329D01*
X65814235Y-104677428D01*
X65820196Y-104701227D01*
X65823796Y-104725495D01*
X65825000Y-104749999D01*
X65825000Y-105400001D01*
X65823796Y-105424505D01*
X65820196Y-105448773D01*
X65814235Y-105472572D01*
X65805970Y-105495671D01*
X65795480Y-105517850D01*
X65782868Y-105538893D01*
X65768253Y-105558599D01*
X65751777Y-105576777D01*
X65733599Y-105593253D01*
X65713893Y-105607868D01*
X65692850Y-105620480D01*
X65670671Y-105630970D01*
X65647572Y-105639235D01*
X65623773Y-105645196D01*
X65599505Y-105648796D01*
X65575001Y-105650000D01*
X64674999Y-105650000D01*
X64650495Y-105648796D01*
X64626227Y-105645196D01*
X64602428Y-105639235D01*
X64579329Y-105630970D01*
X64557150Y-105620480D01*
X64536107Y-105607868D01*
X64516401Y-105593253D01*
X64498223Y-105576777D01*
X64481747Y-105558599D01*
X64467132Y-105538893D01*
X64454520Y-105517850D01*
X64444030Y-105495671D01*
X64435765Y-105472572D01*
X64429804Y-105448773D01*
X64426204Y-105424505D01*
X64425000Y-105400001D01*
X64425000Y-104749999D01*
X64426204Y-104725495D01*
X64429804Y-104701227D01*
X64435765Y-104677428D01*
X64444030Y-104654329D01*
X64454520Y-104632150D01*
X64467132Y-104611107D01*
X64481747Y-104591401D01*
X64498223Y-104573223D01*
X64516401Y-104556747D01*
X64536107Y-104542132D01*
X64557150Y-104529520D01*
X64579329Y-104519030D01*
X64602428Y-104510765D01*
X64626227Y-104504804D01*
X64650495Y-104501204D01*
X64674999Y-104500000D01*
X65575001Y-104500000D01*
X65599505Y-104501204D01*
G37*
G36*
X65599505Y-102451204D02*
G01*
X65623773Y-102454804D01*
X65647572Y-102460765D01*
X65670671Y-102469030D01*
X65692850Y-102479520D01*
X65713893Y-102492132D01*
X65733599Y-102506747D01*
X65751777Y-102523223D01*
X65768253Y-102541401D01*
X65782868Y-102561107D01*
X65795480Y-102582150D01*
X65805970Y-102604329D01*
X65814235Y-102627428D01*
X65820196Y-102651227D01*
X65823796Y-102675495D01*
X65825000Y-102699999D01*
X65825000Y-103350001D01*
X65823796Y-103374505D01*
X65820196Y-103398773D01*
X65814235Y-103422572D01*
X65805970Y-103445671D01*
X65795480Y-103467850D01*
X65782868Y-103488893D01*
X65768253Y-103508599D01*
X65751777Y-103526777D01*
X65733599Y-103543253D01*
X65713893Y-103557868D01*
X65692850Y-103570480D01*
X65670671Y-103580970D01*
X65647572Y-103589235D01*
X65623773Y-103595196D01*
X65599505Y-103598796D01*
X65575001Y-103600000D01*
X64674999Y-103600000D01*
X64650495Y-103598796D01*
X64626227Y-103595196D01*
X64602428Y-103589235D01*
X64579329Y-103580970D01*
X64557150Y-103570480D01*
X64536107Y-103557868D01*
X64516401Y-103543253D01*
X64498223Y-103526777D01*
X64481747Y-103508599D01*
X64467132Y-103488893D01*
X64454520Y-103467850D01*
X64444030Y-103445671D01*
X64435765Y-103422572D01*
X64429804Y-103398773D01*
X64426204Y-103374505D01*
X64425000Y-103350001D01*
X64425000Y-102699999D01*
X64426204Y-102675495D01*
X64429804Y-102651227D01*
X64435765Y-102627428D01*
X64444030Y-102604329D01*
X64454520Y-102582150D01*
X64467132Y-102561107D01*
X64481747Y-102541401D01*
X64498223Y-102523223D01*
X64516401Y-102506747D01*
X64536107Y-102492132D01*
X64557150Y-102479520D01*
X64579329Y-102469030D01*
X64602428Y-102460765D01*
X64626227Y-102454804D01*
X64650495Y-102451204D01*
X64674999Y-102450000D01*
X65575001Y-102450000D01*
X65599505Y-102451204D01*
G37*
G36*
X84099505Y-98451204D02*
G01*
X84123773Y-98454804D01*
X84147572Y-98460765D01*
X84170671Y-98469030D01*
X84192850Y-98479520D01*
X84213893Y-98492132D01*
X84233599Y-98506747D01*
X84251777Y-98523223D01*
X84268253Y-98541401D01*
X84282868Y-98561107D01*
X84295480Y-98582150D01*
X84305970Y-98604329D01*
X84314235Y-98627428D01*
X84320196Y-98651227D01*
X84323796Y-98675495D01*
X84325000Y-98699999D01*
X84325000Y-99350001D01*
X84323796Y-99374505D01*
X84320196Y-99398773D01*
X84314235Y-99422572D01*
X84305970Y-99445671D01*
X84295480Y-99467850D01*
X84282868Y-99488893D01*
X84268253Y-99508599D01*
X84251777Y-99526777D01*
X84233599Y-99543253D01*
X84213893Y-99557868D01*
X84192850Y-99570480D01*
X84170671Y-99580970D01*
X84147572Y-99589235D01*
X84123773Y-99595196D01*
X84099505Y-99598796D01*
X84075001Y-99600000D01*
X83174999Y-99600000D01*
X83150495Y-99598796D01*
X83126227Y-99595196D01*
X83102428Y-99589235D01*
X83079329Y-99580970D01*
X83057150Y-99570480D01*
X83036107Y-99557868D01*
X83016401Y-99543253D01*
X82998223Y-99526777D01*
X82981747Y-99508599D01*
X82967132Y-99488893D01*
X82954520Y-99467850D01*
X82944030Y-99445671D01*
X82935765Y-99422572D01*
X82929804Y-99398773D01*
X82926204Y-99374505D01*
X82925000Y-99350001D01*
X82925000Y-98699999D01*
X82926204Y-98675495D01*
X82929804Y-98651227D01*
X82935765Y-98627428D01*
X82944030Y-98604329D01*
X82954520Y-98582150D01*
X82967132Y-98561107D01*
X82981747Y-98541401D01*
X82998223Y-98523223D01*
X83016401Y-98506747D01*
X83036107Y-98492132D01*
X83057150Y-98479520D01*
X83079329Y-98469030D01*
X83102428Y-98460765D01*
X83126227Y-98454804D01*
X83150495Y-98451204D01*
X83174999Y-98450000D01*
X84075001Y-98450000D01*
X84099505Y-98451204D01*
G37*
G36*
X84099505Y-100501204D02*
G01*
X84123773Y-100504804D01*
X84147572Y-100510765D01*
X84170671Y-100519030D01*
X84192850Y-100529520D01*
X84213893Y-100542132D01*
X84233599Y-100556747D01*
X84251777Y-100573223D01*
X84268253Y-100591401D01*
X84282868Y-100611107D01*
X84295480Y-100632150D01*
X84305970Y-100654329D01*
X84314235Y-100677428D01*
X84320196Y-100701227D01*
X84323796Y-100725495D01*
X84325000Y-100749999D01*
X84325000Y-101400001D01*
X84323796Y-101424505D01*
X84320196Y-101448773D01*
X84314235Y-101472572D01*
X84305970Y-101495671D01*
X84295480Y-101517850D01*
X84282868Y-101538893D01*
X84268253Y-101558599D01*
X84251777Y-101576777D01*
X84233599Y-101593253D01*
X84213893Y-101607868D01*
X84192850Y-101620480D01*
X84170671Y-101630970D01*
X84147572Y-101639235D01*
X84123773Y-101645196D01*
X84099505Y-101648796D01*
X84075001Y-101650000D01*
X83174999Y-101650000D01*
X83150495Y-101648796D01*
X83126227Y-101645196D01*
X83102428Y-101639235D01*
X83079329Y-101630970D01*
X83057150Y-101620480D01*
X83036107Y-101607868D01*
X83016401Y-101593253D01*
X82998223Y-101576777D01*
X82981747Y-101558599D01*
X82967132Y-101538893D01*
X82954520Y-101517850D01*
X82944030Y-101495671D01*
X82935765Y-101472572D01*
X82929804Y-101448773D01*
X82926204Y-101424505D01*
X82925000Y-101400001D01*
X82925000Y-100749999D01*
X82926204Y-100725495D01*
X82929804Y-100701227D01*
X82935765Y-100677428D01*
X82944030Y-100654329D01*
X82954520Y-100632150D01*
X82967132Y-100611107D01*
X82981747Y-100591401D01*
X82998223Y-100573223D01*
X83016401Y-100556747D01*
X83036107Y-100542132D01*
X83057150Y-100529520D01*
X83079329Y-100519030D01*
X83102428Y-100510765D01*
X83126227Y-100504804D01*
X83150495Y-100501204D01*
X83174999Y-100500000D01*
X84075001Y-100500000D01*
X84099505Y-100501204D01*
G37*
D19*
X82675000Y-124300000D03*
X87675000Y-124300000D03*
X82700000Y-127825000D03*
X87700000Y-127825000D03*
D12*
G36*
X95924505Y-88326204D02*
G01*
X95948773Y-88329804D01*
X95972572Y-88335765D01*
X95995671Y-88344030D01*
X96017850Y-88354520D01*
X96038893Y-88367132D01*
X96058599Y-88381747D01*
X96076777Y-88398223D01*
X96093253Y-88416401D01*
X96107868Y-88436107D01*
X96120480Y-88457150D01*
X96130970Y-88479329D01*
X96139235Y-88502428D01*
X96145196Y-88526227D01*
X96148796Y-88550495D01*
X96150000Y-88574999D01*
X96150000Y-89225001D01*
X96148796Y-89249505D01*
X96145196Y-89273773D01*
X96139235Y-89297572D01*
X96130970Y-89320671D01*
X96120480Y-89342850D01*
X96107868Y-89363893D01*
X96093253Y-89383599D01*
X96076777Y-89401777D01*
X96058599Y-89418253D01*
X96038893Y-89432868D01*
X96017850Y-89445480D01*
X95995671Y-89455970D01*
X95972572Y-89464235D01*
X95948773Y-89470196D01*
X95924505Y-89473796D01*
X95900001Y-89475000D01*
X94999999Y-89475000D01*
X94975495Y-89473796D01*
X94951227Y-89470196D01*
X94927428Y-89464235D01*
X94904329Y-89455970D01*
X94882150Y-89445480D01*
X94861107Y-89432868D01*
X94841401Y-89418253D01*
X94823223Y-89401777D01*
X94806747Y-89383599D01*
X94792132Y-89363893D01*
X94779520Y-89342850D01*
X94769030Y-89320671D01*
X94760765Y-89297572D01*
X94754804Y-89273773D01*
X94751204Y-89249505D01*
X94750000Y-89225001D01*
X94750000Y-88574999D01*
X94751204Y-88550495D01*
X94754804Y-88526227D01*
X94760765Y-88502428D01*
X94769030Y-88479329D01*
X94779520Y-88457150D01*
X94792132Y-88436107D01*
X94806747Y-88416401D01*
X94823223Y-88398223D01*
X94841401Y-88381747D01*
X94861107Y-88367132D01*
X94882150Y-88354520D01*
X94904329Y-88344030D01*
X94927428Y-88335765D01*
X94951227Y-88329804D01*
X94975495Y-88326204D01*
X94999999Y-88325000D01*
X95900001Y-88325000D01*
X95924505Y-88326204D01*
G37*
G36*
X95924505Y-86276204D02*
G01*
X95948773Y-86279804D01*
X95972572Y-86285765D01*
X95995671Y-86294030D01*
X96017850Y-86304520D01*
X96038893Y-86317132D01*
X96058599Y-86331747D01*
X96076777Y-86348223D01*
X96093253Y-86366401D01*
X96107868Y-86386107D01*
X96120480Y-86407150D01*
X96130970Y-86429329D01*
X96139235Y-86452428D01*
X96145196Y-86476227D01*
X96148796Y-86500495D01*
X96150000Y-86524999D01*
X96150000Y-87175001D01*
X96148796Y-87199505D01*
X96145196Y-87223773D01*
X96139235Y-87247572D01*
X96130970Y-87270671D01*
X96120480Y-87292850D01*
X96107868Y-87313893D01*
X96093253Y-87333599D01*
X96076777Y-87351777D01*
X96058599Y-87368253D01*
X96038893Y-87382868D01*
X96017850Y-87395480D01*
X95995671Y-87405970D01*
X95972572Y-87414235D01*
X95948773Y-87420196D01*
X95924505Y-87423796D01*
X95900001Y-87425000D01*
X94999999Y-87425000D01*
X94975495Y-87423796D01*
X94951227Y-87420196D01*
X94927428Y-87414235D01*
X94904329Y-87405970D01*
X94882150Y-87395480D01*
X94861107Y-87382868D01*
X94841401Y-87368253D01*
X94823223Y-87351777D01*
X94806747Y-87333599D01*
X94792132Y-87313893D01*
X94779520Y-87292850D01*
X94769030Y-87270671D01*
X94760765Y-87247572D01*
X94754804Y-87223773D01*
X94751204Y-87199505D01*
X94750000Y-87175001D01*
X94750000Y-86524999D01*
X94751204Y-86500495D01*
X94754804Y-86476227D01*
X94760765Y-86452428D01*
X94769030Y-86429329D01*
X94779520Y-86407150D01*
X94792132Y-86386107D01*
X94806747Y-86366401D01*
X94823223Y-86348223D01*
X94841401Y-86331747D01*
X94861107Y-86317132D01*
X94882150Y-86304520D01*
X94904329Y-86294030D01*
X94927428Y-86285765D01*
X94951227Y-86279804D01*
X94975495Y-86276204D01*
X94999999Y-86275000D01*
X95900001Y-86275000D01*
X95924505Y-86276204D01*
G37*
G36*
X95874505Y-110526204D02*
G01*
X95898773Y-110529804D01*
X95922572Y-110535765D01*
X95945671Y-110544030D01*
X95967850Y-110554520D01*
X95988893Y-110567132D01*
X96008599Y-110581747D01*
X96026777Y-110598223D01*
X96043253Y-110616401D01*
X96057868Y-110636107D01*
X96070480Y-110657150D01*
X96080970Y-110679329D01*
X96089235Y-110702428D01*
X96095196Y-110726227D01*
X96098796Y-110750495D01*
X96100000Y-110774999D01*
X96100000Y-111425001D01*
X96098796Y-111449505D01*
X96095196Y-111473773D01*
X96089235Y-111497572D01*
X96080970Y-111520671D01*
X96070480Y-111542850D01*
X96057868Y-111563893D01*
X96043253Y-111583599D01*
X96026777Y-111601777D01*
X96008599Y-111618253D01*
X95988893Y-111632868D01*
X95967850Y-111645480D01*
X95945671Y-111655970D01*
X95922572Y-111664235D01*
X95898773Y-111670196D01*
X95874505Y-111673796D01*
X95850001Y-111675000D01*
X94949999Y-111675000D01*
X94925495Y-111673796D01*
X94901227Y-111670196D01*
X94877428Y-111664235D01*
X94854329Y-111655970D01*
X94832150Y-111645480D01*
X94811107Y-111632868D01*
X94791401Y-111618253D01*
X94773223Y-111601777D01*
X94756747Y-111583599D01*
X94742132Y-111563893D01*
X94729520Y-111542850D01*
X94719030Y-111520671D01*
X94710765Y-111497572D01*
X94704804Y-111473773D01*
X94701204Y-111449505D01*
X94700000Y-111425001D01*
X94700000Y-110774999D01*
X94701204Y-110750495D01*
X94704804Y-110726227D01*
X94710765Y-110702428D01*
X94719030Y-110679329D01*
X94729520Y-110657150D01*
X94742132Y-110636107D01*
X94756747Y-110616401D01*
X94773223Y-110598223D01*
X94791401Y-110581747D01*
X94811107Y-110567132D01*
X94832150Y-110554520D01*
X94854329Y-110544030D01*
X94877428Y-110535765D01*
X94901227Y-110529804D01*
X94925495Y-110526204D01*
X94949999Y-110525000D01*
X95850001Y-110525000D01*
X95874505Y-110526204D01*
G37*
G36*
X95874505Y-112576204D02*
G01*
X95898773Y-112579804D01*
X95922572Y-112585765D01*
X95945671Y-112594030D01*
X95967850Y-112604520D01*
X95988893Y-112617132D01*
X96008599Y-112631747D01*
X96026777Y-112648223D01*
X96043253Y-112666401D01*
X96057868Y-112686107D01*
X96070480Y-112707150D01*
X96080970Y-112729329D01*
X96089235Y-112752428D01*
X96095196Y-112776227D01*
X96098796Y-112800495D01*
X96100000Y-112824999D01*
X96100000Y-113475001D01*
X96098796Y-113499505D01*
X96095196Y-113523773D01*
X96089235Y-113547572D01*
X96080970Y-113570671D01*
X96070480Y-113592850D01*
X96057868Y-113613893D01*
X96043253Y-113633599D01*
X96026777Y-113651777D01*
X96008599Y-113668253D01*
X95988893Y-113682868D01*
X95967850Y-113695480D01*
X95945671Y-113705970D01*
X95922572Y-113714235D01*
X95898773Y-113720196D01*
X95874505Y-113723796D01*
X95850001Y-113725000D01*
X94949999Y-113725000D01*
X94925495Y-113723796D01*
X94901227Y-113720196D01*
X94877428Y-113714235D01*
X94854329Y-113705970D01*
X94832150Y-113695480D01*
X94811107Y-113682868D01*
X94791401Y-113668253D01*
X94773223Y-113651777D01*
X94756747Y-113633599D01*
X94742132Y-113613893D01*
X94729520Y-113592850D01*
X94719030Y-113570671D01*
X94710765Y-113547572D01*
X94704804Y-113523773D01*
X94701204Y-113499505D01*
X94700000Y-113475001D01*
X94700000Y-112824999D01*
X94701204Y-112800495D01*
X94704804Y-112776227D01*
X94710765Y-112752428D01*
X94719030Y-112729329D01*
X94729520Y-112707150D01*
X94742132Y-112686107D01*
X94756747Y-112666401D01*
X94773223Y-112648223D01*
X94791401Y-112631747D01*
X94811107Y-112617132D01*
X94832150Y-112604520D01*
X94854329Y-112594030D01*
X94877428Y-112585765D01*
X94901227Y-112579804D01*
X94925495Y-112576204D01*
X94949999Y-112575000D01*
X95850001Y-112575000D01*
X95874505Y-112576204D01*
G37*
G36*
X80824505Y-118826204D02*
G01*
X80848773Y-118829804D01*
X80872572Y-118835765D01*
X80895671Y-118844030D01*
X80917850Y-118854520D01*
X80938893Y-118867132D01*
X80958599Y-118881747D01*
X80976777Y-118898223D01*
X80993253Y-118916401D01*
X81007868Y-118936107D01*
X81020480Y-118957150D01*
X81030970Y-118979329D01*
X81039235Y-119002428D01*
X81045196Y-119026227D01*
X81048796Y-119050495D01*
X81050000Y-119074999D01*
X81050000Y-119725001D01*
X81048796Y-119749505D01*
X81045196Y-119773773D01*
X81039235Y-119797572D01*
X81030970Y-119820671D01*
X81020480Y-119842850D01*
X81007868Y-119863893D01*
X80993253Y-119883599D01*
X80976777Y-119901777D01*
X80958599Y-119918253D01*
X80938893Y-119932868D01*
X80917850Y-119945480D01*
X80895671Y-119955970D01*
X80872572Y-119964235D01*
X80848773Y-119970196D01*
X80824505Y-119973796D01*
X80800001Y-119975000D01*
X79899999Y-119975000D01*
X79875495Y-119973796D01*
X79851227Y-119970196D01*
X79827428Y-119964235D01*
X79804329Y-119955970D01*
X79782150Y-119945480D01*
X79761107Y-119932868D01*
X79741401Y-119918253D01*
X79723223Y-119901777D01*
X79706747Y-119883599D01*
X79692132Y-119863893D01*
X79679520Y-119842850D01*
X79669030Y-119820671D01*
X79660765Y-119797572D01*
X79654804Y-119773773D01*
X79651204Y-119749505D01*
X79650000Y-119725001D01*
X79650000Y-119074999D01*
X79651204Y-119050495D01*
X79654804Y-119026227D01*
X79660765Y-119002428D01*
X79669030Y-118979329D01*
X79679520Y-118957150D01*
X79692132Y-118936107D01*
X79706747Y-118916401D01*
X79723223Y-118898223D01*
X79741401Y-118881747D01*
X79761107Y-118867132D01*
X79782150Y-118854520D01*
X79804329Y-118844030D01*
X79827428Y-118835765D01*
X79851227Y-118829804D01*
X79875495Y-118826204D01*
X79899999Y-118825000D01*
X80800001Y-118825000D01*
X80824505Y-118826204D01*
G37*
G36*
X80824505Y-120876204D02*
G01*
X80848773Y-120879804D01*
X80872572Y-120885765D01*
X80895671Y-120894030D01*
X80917850Y-120904520D01*
X80938893Y-120917132D01*
X80958599Y-120931747D01*
X80976777Y-120948223D01*
X80993253Y-120966401D01*
X81007868Y-120986107D01*
X81020480Y-121007150D01*
X81030970Y-121029329D01*
X81039235Y-121052428D01*
X81045196Y-121076227D01*
X81048796Y-121100495D01*
X81050000Y-121124999D01*
X81050000Y-121775001D01*
X81048796Y-121799505D01*
X81045196Y-121823773D01*
X81039235Y-121847572D01*
X81030970Y-121870671D01*
X81020480Y-121892850D01*
X81007868Y-121913893D01*
X80993253Y-121933599D01*
X80976777Y-121951777D01*
X80958599Y-121968253D01*
X80938893Y-121982868D01*
X80917850Y-121995480D01*
X80895671Y-122005970D01*
X80872572Y-122014235D01*
X80848773Y-122020196D01*
X80824505Y-122023796D01*
X80800001Y-122025000D01*
X79899999Y-122025000D01*
X79875495Y-122023796D01*
X79851227Y-122020196D01*
X79827428Y-122014235D01*
X79804329Y-122005970D01*
X79782150Y-121995480D01*
X79761107Y-121982868D01*
X79741401Y-121968253D01*
X79723223Y-121951777D01*
X79706747Y-121933599D01*
X79692132Y-121913893D01*
X79679520Y-121892850D01*
X79669030Y-121870671D01*
X79660765Y-121847572D01*
X79654804Y-121823773D01*
X79651204Y-121799505D01*
X79650000Y-121775001D01*
X79650000Y-121124999D01*
X79651204Y-121100495D01*
X79654804Y-121076227D01*
X79660765Y-121052428D01*
X79669030Y-121029329D01*
X79679520Y-121007150D01*
X79692132Y-120986107D01*
X79706747Y-120966401D01*
X79723223Y-120948223D01*
X79741401Y-120931747D01*
X79761107Y-120917132D01*
X79782150Y-120904520D01*
X79804329Y-120894030D01*
X79827428Y-120885765D01*
X79851227Y-120879804D01*
X79875495Y-120876204D01*
X79899999Y-120875000D01*
X80800001Y-120875000D01*
X80824505Y-120876204D01*
G37*
G36*
X80849505Y-126551204D02*
G01*
X80873773Y-126554804D01*
X80897572Y-126560765D01*
X80920671Y-126569030D01*
X80942850Y-126579520D01*
X80963893Y-126592132D01*
X80983599Y-126606747D01*
X81001777Y-126623223D01*
X81018253Y-126641401D01*
X81032868Y-126661107D01*
X81045480Y-126682150D01*
X81055970Y-126704329D01*
X81064235Y-126727428D01*
X81070196Y-126751227D01*
X81073796Y-126775495D01*
X81075000Y-126799999D01*
X81075000Y-127450001D01*
X81073796Y-127474505D01*
X81070196Y-127498773D01*
X81064235Y-127522572D01*
X81055970Y-127545671D01*
X81045480Y-127567850D01*
X81032868Y-127588893D01*
X81018253Y-127608599D01*
X81001777Y-127626777D01*
X80983599Y-127643253D01*
X80963893Y-127657868D01*
X80942850Y-127670480D01*
X80920671Y-127680970D01*
X80897572Y-127689235D01*
X80873773Y-127695196D01*
X80849505Y-127698796D01*
X80825001Y-127700000D01*
X79924999Y-127700000D01*
X79900495Y-127698796D01*
X79876227Y-127695196D01*
X79852428Y-127689235D01*
X79829329Y-127680970D01*
X79807150Y-127670480D01*
X79786107Y-127657868D01*
X79766401Y-127643253D01*
X79748223Y-127626777D01*
X79731747Y-127608599D01*
X79717132Y-127588893D01*
X79704520Y-127567850D01*
X79694030Y-127545671D01*
X79685765Y-127522572D01*
X79679804Y-127498773D01*
X79676204Y-127474505D01*
X79675000Y-127450001D01*
X79675000Y-126799999D01*
X79676204Y-126775495D01*
X79679804Y-126751227D01*
X79685765Y-126727428D01*
X79694030Y-126704329D01*
X79704520Y-126682150D01*
X79717132Y-126661107D01*
X79731747Y-126641401D01*
X79748223Y-126623223D01*
X79766401Y-126606747D01*
X79786107Y-126592132D01*
X79807150Y-126579520D01*
X79829329Y-126569030D01*
X79852428Y-126560765D01*
X79876227Y-126554804D01*
X79900495Y-126551204D01*
X79924999Y-126550000D01*
X80825001Y-126550000D01*
X80849505Y-126551204D01*
G37*
G36*
X80849505Y-128601204D02*
G01*
X80873773Y-128604804D01*
X80897572Y-128610765D01*
X80920671Y-128619030D01*
X80942850Y-128629520D01*
X80963893Y-128642132D01*
X80983599Y-128656747D01*
X81001777Y-128673223D01*
X81018253Y-128691401D01*
X81032868Y-128711107D01*
X81045480Y-128732150D01*
X81055970Y-128754329D01*
X81064235Y-128777428D01*
X81070196Y-128801227D01*
X81073796Y-128825495D01*
X81075000Y-128849999D01*
X81075000Y-129500001D01*
X81073796Y-129524505D01*
X81070196Y-129548773D01*
X81064235Y-129572572D01*
X81055970Y-129595671D01*
X81045480Y-129617850D01*
X81032868Y-129638893D01*
X81018253Y-129658599D01*
X81001777Y-129676777D01*
X80983599Y-129693253D01*
X80963893Y-129707868D01*
X80942850Y-129720480D01*
X80920671Y-129730970D01*
X80897572Y-129739235D01*
X80873773Y-129745196D01*
X80849505Y-129748796D01*
X80825001Y-129750000D01*
X79924999Y-129750000D01*
X79900495Y-129748796D01*
X79876227Y-129745196D01*
X79852428Y-129739235D01*
X79829329Y-129730970D01*
X79807150Y-129720480D01*
X79786107Y-129707868D01*
X79766401Y-129693253D01*
X79748223Y-129676777D01*
X79731747Y-129658599D01*
X79717132Y-129638893D01*
X79704520Y-129617850D01*
X79694030Y-129595671D01*
X79685765Y-129572572D01*
X79679804Y-129548773D01*
X79676204Y-129524505D01*
X79675000Y-129500001D01*
X79675000Y-128849999D01*
X79676204Y-128825495D01*
X79679804Y-128801227D01*
X79685765Y-128777428D01*
X79694030Y-128754329D01*
X79704520Y-128732150D01*
X79717132Y-128711107D01*
X79731747Y-128691401D01*
X79748223Y-128673223D01*
X79766401Y-128656747D01*
X79786107Y-128642132D01*
X79807150Y-128629520D01*
X79829329Y-128619030D01*
X79852428Y-128610765D01*
X79876227Y-128604804D01*
X79900495Y-128601204D01*
X79924999Y-128600000D01*
X80825001Y-128600000D01*
X80849505Y-128601204D01*
G37*
D20*
X80550000Y-123025000D03*
X80550000Y-125525000D03*
M02*
