G04 #@! TF.GenerationSoftware,KiCad,Pcbnew,(5.1.5)-3*
G04 #@! TF.CreationDate,2020-04-01T21:27:10+02:00*
G04 #@! TF.ProjectId,RHS_3,5248535f-332e-46b6-9963-61645f706362,rev?*
G04 #@! TF.SameCoordinates,Original*
G04 #@! TF.FileFunction,Legend,Bot*
G04 #@! TF.FilePolarity,Positive*
%FSLAX46Y46*%
G04 Gerber Fmt 4.6, Leading zero omitted, Abs format (unit mm)*
G04 Created by KiCad (PCBNEW (5.1.5)-3) date 2020-04-01 21:27:10*
%MOMM*%
%LPD*%
G04 APERTURE LIST*
%ADD10C,0.150000*%
G04 APERTURE END LIST*
D10*
X91952380Y-74128571D02*
X90952380Y-74128571D01*
X91666666Y-74461904D01*
X90952380Y-74795238D01*
X91952380Y-74795238D01*
X90952380Y-75461904D02*
X90952380Y-75652380D01*
X91000000Y-75747619D01*
X91095238Y-75842857D01*
X91285714Y-75890476D01*
X91619047Y-75890476D01*
X91809523Y-75842857D01*
X91904761Y-75747619D01*
X91952380Y-75652380D01*
X91952380Y-75461904D01*
X91904761Y-75366666D01*
X91809523Y-75271428D01*
X91619047Y-75223809D01*
X91285714Y-75223809D01*
X91095238Y-75271428D01*
X91000000Y-75366666D01*
X90952380Y-75461904D01*
X91904761Y-76271428D02*
X91952380Y-76414285D01*
X91952380Y-76652380D01*
X91904761Y-76747619D01*
X91857142Y-76795238D01*
X91761904Y-76842857D01*
X91666666Y-76842857D01*
X91571428Y-76795238D01*
X91523809Y-76747619D01*
X91476190Y-76652380D01*
X91428571Y-76461904D01*
X91380952Y-76366666D01*
X91333333Y-76319047D01*
X91238095Y-76271428D01*
X91142857Y-76271428D01*
X91047619Y-76319047D01*
X91000000Y-76366666D01*
X90952380Y-76461904D01*
X90952380Y-76700000D01*
X91000000Y-76842857D01*
X91952380Y-77271428D02*
X90952380Y-77271428D01*
X86852380Y-74747619D02*
X86376190Y-74414285D01*
X86852380Y-74176190D02*
X85852380Y-74176190D01*
X85852380Y-74557142D01*
X85900000Y-74652380D01*
X85947619Y-74700000D01*
X86042857Y-74747619D01*
X86185714Y-74747619D01*
X86280952Y-74700000D01*
X86328571Y-74652380D01*
X86376190Y-74557142D01*
X86376190Y-74176190D01*
X86328571Y-75176190D02*
X86328571Y-75509523D01*
X86852380Y-75652380D02*
X86852380Y-75176190D01*
X85852380Y-75176190D01*
X85852380Y-75652380D01*
X86804761Y-76033333D02*
X86852380Y-76176190D01*
X86852380Y-76414285D01*
X86804761Y-76509523D01*
X86757142Y-76557142D01*
X86661904Y-76604761D01*
X86566666Y-76604761D01*
X86471428Y-76557142D01*
X86423809Y-76509523D01*
X86376190Y-76414285D01*
X86328571Y-76223809D01*
X86280952Y-76128571D01*
X86233333Y-76080952D01*
X86138095Y-76033333D01*
X86042857Y-76033333D01*
X85947619Y-76080952D01*
X85900000Y-76128571D01*
X85852380Y-76223809D01*
X85852380Y-76461904D01*
X85900000Y-76604761D01*
X86328571Y-77033333D02*
X86328571Y-77366666D01*
X86852380Y-77509523D02*
X86852380Y-77033333D01*
X85852380Y-77033333D01*
X85852380Y-77509523D01*
X85852380Y-77795238D02*
X85852380Y-78366666D01*
X86852380Y-78080952D02*
X85852380Y-78080952D01*
X84304761Y-74214285D02*
X84352380Y-74357142D01*
X84352380Y-74595238D01*
X84304761Y-74690476D01*
X84257142Y-74738095D01*
X84161904Y-74785714D01*
X84066666Y-74785714D01*
X83971428Y-74738095D01*
X83923809Y-74690476D01*
X83876190Y-74595238D01*
X83828571Y-74404761D01*
X83780952Y-74309523D01*
X83733333Y-74261904D01*
X83638095Y-74214285D01*
X83542857Y-74214285D01*
X83447619Y-74261904D01*
X83400000Y-74309523D01*
X83352380Y-74404761D01*
X83352380Y-74642857D01*
X83400000Y-74785714D01*
X84257142Y-75785714D02*
X84304761Y-75738095D01*
X84352380Y-75595238D01*
X84352380Y-75500000D01*
X84304761Y-75357142D01*
X84209523Y-75261904D01*
X84114285Y-75214285D01*
X83923809Y-75166666D01*
X83780952Y-75166666D01*
X83590476Y-75214285D01*
X83495238Y-75261904D01*
X83400000Y-75357142D01*
X83352380Y-75500000D01*
X83352380Y-75595238D01*
X83400000Y-75738095D01*
X83447619Y-75785714D01*
X84352380Y-76214285D02*
X83352380Y-76214285D01*
X84352380Y-76785714D02*
X83780952Y-76357142D01*
X83352380Y-76785714D02*
X83923809Y-76214285D01*
X81852380Y-74128571D02*
X80852380Y-74128571D01*
X81566666Y-74461904D01*
X80852380Y-74795238D01*
X81852380Y-74795238D01*
X81852380Y-75271428D02*
X80852380Y-75271428D01*
X81804761Y-75700000D02*
X81852380Y-75842857D01*
X81852380Y-76080952D01*
X81804761Y-76176190D01*
X81757142Y-76223809D01*
X81661904Y-76271428D01*
X81566666Y-76271428D01*
X81471428Y-76223809D01*
X81423809Y-76176190D01*
X81376190Y-76080952D01*
X81328571Y-75890476D01*
X81280952Y-75795238D01*
X81233333Y-75747619D01*
X81138095Y-75700000D01*
X81042857Y-75700000D01*
X80947619Y-75747619D01*
X80900000Y-75795238D01*
X80852380Y-75890476D01*
X80852380Y-76128571D01*
X80900000Y-76271428D01*
X80852380Y-76890476D02*
X80852380Y-77080952D01*
X80900000Y-77176190D01*
X80995238Y-77271428D01*
X81185714Y-77319047D01*
X81519047Y-77319047D01*
X81709523Y-77271428D01*
X81804761Y-77176190D01*
X81852380Y-77080952D01*
X81852380Y-76890476D01*
X81804761Y-76795238D01*
X81709523Y-76700000D01*
X81519047Y-76652380D01*
X81185714Y-76652380D01*
X80995238Y-76700000D01*
X80900000Y-76795238D01*
X80852380Y-76890476D01*
M02*
