G04 #@! TF.GenerationSoftware,KiCad,Pcbnew,(5.1.5)-3*
G04 #@! TF.CreationDate,2020-10-14T16:11:45+02:00*
G04 #@! TF.ProjectId,RHS_3,5248535f-332e-46b6-9963-61645f706362,rev?*
G04 #@! TF.SameCoordinates,Original*
G04 #@! TF.FileFunction,Soldermask,Bot*
G04 #@! TF.FilePolarity,Negative*
%FSLAX46Y46*%
G04 Gerber Fmt 4.6, Leading zero omitted, Abs format (unit mm)*
G04 Created by KiCad (PCBNEW (5.1.5)-3) date 2020-10-14 16:11:45*
%MOMM*%
%LPD*%
G04 APERTURE LIST*
%ADD10C,0.100000*%
G04 APERTURE END LIST*
D10*
G36*
X70885600Y-123308989D02*
G01*
X70918652Y-123319015D01*
X70949103Y-123335292D01*
X70975799Y-123357201D01*
X70997708Y-123383897D01*
X71013985Y-123414348D01*
X71024011Y-123447400D01*
X71028000Y-123487903D01*
X71028000Y-124924097D01*
X71024011Y-124964600D01*
X71013985Y-124997652D01*
X70997708Y-125028103D01*
X70975799Y-125054799D01*
X70949103Y-125076708D01*
X70918652Y-125092985D01*
X70885600Y-125103011D01*
X70845097Y-125107000D01*
X69108903Y-125107000D01*
X69068400Y-125103011D01*
X69035348Y-125092985D01*
X69004897Y-125076708D01*
X68978201Y-125054799D01*
X68956292Y-125028103D01*
X68940015Y-124997652D01*
X68929989Y-124964600D01*
X68926000Y-124924097D01*
X68926000Y-123487903D01*
X68929989Y-123447400D01*
X68940015Y-123414348D01*
X68956292Y-123383897D01*
X68978201Y-123357201D01*
X69004897Y-123335292D01*
X69035348Y-123319015D01*
X69068400Y-123308989D01*
X69108903Y-123305000D01*
X70845097Y-123305000D01*
X70885600Y-123308989D01*
G37*
G36*
X75391674Y-122196465D02*
G01*
X75429367Y-122207899D01*
X75464103Y-122226466D01*
X75494548Y-122251452D01*
X75519534Y-122281897D01*
X75538101Y-122316633D01*
X75549535Y-122354326D01*
X75554000Y-122399661D01*
X75554000Y-123236339D01*
X75549535Y-123281674D01*
X75538101Y-123319367D01*
X75519534Y-123354103D01*
X75494548Y-123384548D01*
X75464103Y-123409534D01*
X75429367Y-123428101D01*
X75391674Y-123439535D01*
X75346339Y-123444000D01*
X74259661Y-123444000D01*
X74214326Y-123439535D01*
X74176633Y-123428101D01*
X74141897Y-123409534D01*
X74111452Y-123384548D01*
X74086466Y-123354103D01*
X74067899Y-123319367D01*
X74056465Y-123281674D01*
X74052000Y-123236339D01*
X74052000Y-122399661D01*
X74056465Y-122354326D01*
X74067899Y-122316633D01*
X74086466Y-122281897D01*
X74111452Y-122251452D01*
X74141897Y-122226466D01*
X74176633Y-122207899D01*
X74214326Y-122196465D01*
X74259661Y-122192000D01*
X75346339Y-122192000D01*
X75391674Y-122196465D01*
G37*
G36*
X73232674Y-122196465D02*
G01*
X73270367Y-122207899D01*
X73305103Y-122226466D01*
X73335548Y-122251452D01*
X73360534Y-122281897D01*
X73379101Y-122316633D01*
X73390535Y-122354326D01*
X73395000Y-122399661D01*
X73395000Y-123236339D01*
X73390535Y-123281674D01*
X73379101Y-123319367D01*
X73360534Y-123354103D01*
X73335548Y-123384548D01*
X73305103Y-123409534D01*
X73270367Y-123428101D01*
X73232674Y-123439535D01*
X73187339Y-123444000D01*
X72100661Y-123444000D01*
X72055326Y-123439535D01*
X72017633Y-123428101D01*
X71982897Y-123409534D01*
X71952452Y-123384548D01*
X71927466Y-123354103D01*
X71908899Y-123319367D01*
X71897465Y-123281674D01*
X71893000Y-123236339D01*
X71893000Y-122399661D01*
X71897465Y-122354326D01*
X71908899Y-122316633D01*
X71927466Y-122281897D01*
X71952452Y-122251452D01*
X71982897Y-122226466D01*
X72017633Y-122207899D01*
X72055326Y-122196465D01*
X72100661Y-122192000D01*
X73187339Y-122192000D01*
X73232674Y-122196465D01*
G37*
G36*
X70237443Y-120811519D02*
G01*
X70303627Y-120818037D01*
X70473466Y-120869557D01*
X70629991Y-120953222D01*
X70665729Y-120982552D01*
X70767186Y-121065814D01*
X70850448Y-121167271D01*
X70879778Y-121203009D01*
X70963443Y-121359534D01*
X71014963Y-121529373D01*
X71032359Y-121706000D01*
X71014963Y-121882627D01*
X70963443Y-122052466D01*
X70879778Y-122208991D01*
X70856078Y-122237869D01*
X70767186Y-122346186D01*
X70688117Y-122411075D01*
X70629991Y-122458778D01*
X70473466Y-122542443D01*
X70303627Y-122593963D01*
X70237442Y-122600482D01*
X70171260Y-122607000D01*
X69782740Y-122607000D01*
X69716558Y-122600482D01*
X69650373Y-122593963D01*
X69480534Y-122542443D01*
X69324009Y-122458778D01*
X69265883Y-122411075D01*
X69186814Y-122346186D01*
X69097922Y-122237869D01*
X69074222Y-122208991D01*
X68990557Y-122052466D01*
X68939037Y-121882627D01*
X68921641Y-121706000D01*
X68939037Y-121529373D01*
X68990557Y-121359534D01*
X69074222Y-121203009D01*
X69103552Y-121167271D01*
X69186814Y-121065814D01*
X69288271Y-120982552D01*
X69324009Y-120953222D01*
X69480534Y-120869557D01*
X69650373Y-120818037D01*
X69716557Y-120811519D01*
X69782740Y-120805000D01*
X70171260Y-120805000D01*
X70237443Y-120811519D01*
G37*
G36*
X73232674Y-120146465D02*
G01*
X73270367Y-120157899D01*
X73305103Y-120176466D01*
X73335548Y-120201452D01*
X73360534Y-120231897D01*
X73379101Y-120266633D01*
X73390535Y-120304326D01*
X73395000Y-120349661D01*
X73395000Y-121186339D01*
X73390535Y-121231674D01*
X73379101Y-121269367D01*
X73360534Y-121304103D01*
X73335548Y-121334548D01*
X73305103Y-121359534D01*
X73270367Y-121378101D01*
X73232674Y-121389535D01*
X73187339Y-121394000D01*
X72100661Y-121394000D01*
X72055326Y-121389535D01*
X72017633Y-121378101D01*
X71982897Y-121359534D01*
X71952452Y-121334548D01*
X71927466Y-121304103D01*
X71908899Y-121269367D01*
X71897465Y-121231674D01*
X71893000Y-121186339D01*
X71893000Y-120349661D01*
X71897465Y-120304326D01*
X71908899Y-120266633D01*
X71927466Y-120231897D01*
X71952452Y-120201452D01*
X71982897Y-120176466D01*
X72017633Y-120157899D01*
X72055326Y-120146465D01*
X72100661Y-120142000D01*
X73187339Y-120142000D01*
X73232674Y-120146465D01*
G37*
G36*
X75391674Y-120146465D02*
G01*
X75429367Y-120157899D01*
X75464103Y-120176466D01*
X75494548Y-120201452D01*
X75519534Y-120231897D01*
X75538101Y-120266633D01*
X75549535Y-120304326D01*
X75554000Y-120349661D01*
X75554000Y-121186339D01*
X75549535Y-121231674D01*
X75538101Y-121269367D01*
X75519534Y-121304103D01*
X75494548Y-121334548D01*
X75464103Y-121359534D01*
X75429367Y-121378101D01*
X75391674Y-121389535D01*
X75346339Y-121394000D01*
X74259661Y-121394000D01*
X74214326Y-121389535D01*
X74176633Y-121378101D01*
X74141897Y-121359534D01*
X74111452Y-121334548D01*
X74086466Y-121304103D01*
X74067899Y-121269367D01*
X74056465Y-121231674D01*
X74052000Y-121186339D01*
X74052000Y-120349661D01*
X74056465Y-120304326D01*
X74067899Y-120266633D01*
X74086466Y-120231897D01*
X74111452Y-120201452D01*
X74141897Y-120176466D01*
X74176633Y-120157899D01*
X74214326Y-120146465D01*
X74259661Y-120142000D01*
X75346339Y-120142000D01*
X75391674Y-120146465D01*
G37*
G36*
X74598674Y-115663465D02*
G01*
X74636367Y-115674899D01*
X74671103Y-115693466D01*
X74701548Y-115718452D01*
X74726534Y-115748897D01*
X74745101Y-115783633D01*
X74756535Y-115821326D01*
X74761000Y-115866661D01*
X74761000Y-116953339D01*
X74756535Y-116998674D01*
X74745101Y-117036367D01*
X74726534Y-117071103D01*
X74701548Y-117101548D01*
X74671103Y-117126534D01*
X74636367Y-117145101D01*
X74598674Y-117156535D01*
X74553339Y-117161000D01*
X73716661Y-117161000D01*
X73671326Y-117156535D01*
X73633633Y-117145101D01*
X73598897Y-117126534D01*
X73568452Y-117101548D01*
X73543466Y-117071103D01*
X73524899Y-117036367D01*
X73513465Y-116998674D01*
X73509000Y-116953339D01*
X73509000Y-115866661D01*
X73513465Y-115821326D01*
X73524899Y-115783633D01*
X73543466Y-115748897D01*
X73568452Y-115718452D01*
X73598897Y-115693466D01*
X73633633Y-115674899D01*
X73671326Y-115663465D01*
X73716661Y-115659000D01*
X74553339Y-115659000D01*
X74598674Y-115663465D01*
G37*
G36*
X78658674Y-115663465D02*
G01*
X78696367Y-115674899D01*
X78731103Y-115693466D01*
X78761548Y-115718452D01*
X78786534Y-115748897D01*
X78805101Y-115783633D01*
X78816535Y-115821326D01*
X78821000Y-115866661D01*
X78821000Y-116953339D01*
X78816535Y-116998674D01*
X78805101Y-117036367D01*
X78786534Y-117071103D01*
X78761548Y-117101548D01*
X78731103Y-117126534D01*
X78696367Y-117145101D01*
X78658674Y-117156535D01*
X78613339Y-117161000D01*
X77776661Y-117161000D01*
X77731326Y-117156535D01*
X77693633Y-117145101D01*
X77658897Y-117126534D01*
X77628452Y-117101548D01*
X77603466Y-117071103D01*
X77584899Y-117036367D01*
X77573465Y-116998674D01*
X77569000Y-116953339D01*
X77569000Y-115866661D01*
X77573465Y-115821326D01*
X77584899Y-115783633D01*
X77603466Y-115748897D01*
X77628452Y-115718452D01*
X77658897Y-115693466D01*
X77693633Y-115674899D01*
X77731326Y-115663465D01*
X77776661Y-115659000D01*
X78613339Y-115659000D01*
X78658674Y-115663465D01*
G37*
G36*
X76608674Y-115663465D02*
G01*
X76646367Y-115674899D01*
X76681103Y-115693466D01*
X76711548Y-115718452D01*
X76736534Y-115748897D01*
X76755101Y-115783633D01*
X76766535Y-115821326D01*
X76771000Y-115866661D01*
X76771000Y-116953339D01*
X76766535Y-116998674D01*
X76755101Y-117036367D01*
X76736534Y-117071103D01*
X76711548Y-117101548D01*
X76681103Y-117126534D01*
X76646367Y-117145101D01*
X76608674Y-117156535D01*
X76563339Y-117161000D01*
X75726661Y-117161000D01*
X75681326Y-117156535D01*
X75643633Y-117145101D01*
X75608897Y-117126534D01*
X75578452Y-117101548D01*
X75553466Y-117071103D01*
X75534899Y-117036367D01*
X75523465Y-116998674D01*
X75519000Y-116953339D01*
X75519000Y-115866661D01*
X75523465Y-115821326D01*
X75534899Y-115783633D01*
X75553466Y-115748897D01*
X75578452Y-115718452D01*
X75608897Y-115693466D01*
X75643633Y-115674899D01*
X75681326Y-115663465D01*
X75726661Y-115659000D01*
X76563339Y-115659000D01*
X76608674Y-115663465D01*
G37*
G36*
X72548674Y-115663465D02*
G01*
X72586367Y-115674899D01*
X72621103Y-115693466D01*
X72651548Y-115718452D01*
X72676534Y-115748897D01*
X72695101Y-115783633D01*
X72706535Y-115821326D01*
X72711000Y-115866661D01*
X72711000Y-116953339D01*
X72706535Y-116998674D01*
X72695101Y-117036367D01*
X72676534Y-117071103D01*
X72651548Y-117101548D01*
X72621103Y-117126534D01*
X72586367Y-117145101D01*
X72548674Y-117156535D01*
X72503339Y-117161000D01*
X71666661Y-117161000D01*
X71621326Y-117156535D01*
X71583633Y-117145101D01*
X71548897Y-117126534D01*
X71518452Y-117101548D01*
X71493466Y-117071103D01*
X71474899Y-117036367D01*
X71463465Y-116998674D01*
X71459000Y-116953339D01*
X71459000Y-115866661D01*
X71463465Y-115821326D01*
X71474899Y-115783633D01*
X71493466Y-115748897D01*
X71518452Y-115718452D01*
X71548897Y-115693466D01*
X71583633Y-115674899D01*
X71621326Y-115663465D01*
X71666661Y-115659000D01*
X72503339Y-115659000D01*
X72548674Y-115663465D01*
G37*
G36*
X77766000Y-114151000D02*
G01*
X71514000Y-114151000D01*
X71514000Y-112449000D01*
X77766000Y-112449000D01*
X77766000Y-114151000D01*
G37*
G36*
X97708674Y-112493465D02*
G01*
X97746367Y-112504899D01*
X97781103Y-112523466D01*
X97811548Y-112548452D01*
X97836534Y-112578897D01*
X97855101Y-112613633D01*
X97866535Y-112651326D01*
X97871000Y-112696661D01*
X97871000Y-113533339D01*
X97866535Y-113578674D01*
X97855101Y-113616367D01*
X97836534Y-113651103D01*
X97811548Y-113681548D01*
X97781103Y-113706534D01*
X97746367Y-113725101D01*
X97708674Y-113736535D01*
X97663339Y-113741000D01*
X96576661Y-113741000D01*
X96531326Y-113736535D01*
X96493633Y-113725101D01*
X96458897Y-113706534D01*
X96428452Y-113681548D01*
X96403466Y-113651103D01*
X96384899Y-113616367D01*
X96373465Y-113578674D01*
X96369000Y-113533339D01*
X96369000Y-112696661D01*
X96373465Y-112651326D01*
X96384899Y-112613633D01*
X96403466Y-112578897D01*
X96428452Y-112548452D01*
X96458897Y-112523466D01*
X96493633Y-112504899D01*
X96531326Y-112493465D01*
X96576661Y-112489000D01*
X97663339Y-112489000D01*
X97708674Y-112493465D01*
G37*
G36*
X95528674Y-112493465D02*
G01*
X95566367Y-112504899D01*
X95601103Y-112523466D01*
X95631548Y-112548452D01*
X95656534Y-112578897D01*
X95675101Y-112613633D01*
X95686535Y-112651326D01*
X95691000Y-112696661D01*
X95691000Y-113533339D01*
X95686535Y-113578674D01*
X95675101Y-113616367D01*
X95656534Y-113651103D01*
X95631548Y-113681548D01*
X95601103Y-113706534D01*
X95566367Y-113725101D01*
X95528674Y-113736535D01*
X95483339Y-113741000D01*
X94396661Y-113741000D01*
X94351326Y-113736535D01*
X94313633Y-113725101D01*
X94278897Y-113706534D01*
X94248452Y-113681548D01*
X94223466Y-113651103D01*
X94204899Y-113616367D01*
X94193465Y-113578674D01*
X94189000Y-113533339D01*
X94189000Y-112696661D01*
X94193465Y-112651326D01*
X94204899Y-112613633D01*
X94223466Y-112578897D01*
X94248452Y-112548452D01*
X94278897Y-112523466D01*
X94313633Y-112504899D01*
X94351326Y-112493465D01*
X94396661Y-112489000D01*
X95483339Y-112489000D01*
X95528674Y-112493465D01*
G37*
G36*
X103478674Y-112463465D02*
G01*
X103516367Y-112474899D01*
X103551103Y-112493466D01*
X103581548Y-112518452D01*
X103606534Y-112548897D01*
X103625101Y-112583633D01*
X103636535Y-112621326D01*
X103641000Y-112666661D01*
X103641000Y-113503339D01*
X103636535Y-113548674D01*
X103625101Y-113586367D01*
X103606534Y-113621103D01*
X103581548Y-113651548D01*
X103551103Y-113676534D01*
X103516367Y-113695101D01*
X103478674Y-113706535D01*
X103433339Y-113711000D01*
X102346661Y-113711000D01*
X102301326Y-113706535D01*
X102263633Y-113695101D01*
X102228897Y-113676534D01*
X102198452Y-113651548D01*
X102173466Y-113621103D01*
X102154899Y-113586367D01*
X102143465Y-113548674D01*
X102139000Y-113503339D01*
X102139000Y-112666661D01*
X102143465Y-112621326D01*
X102154899Y-112583633D01*
X102173466Y-112548897D01*
X102198452Y-112518452D01*
X102228897Y-112493466D01*
X102263633Y-112474899D01*
X102301326Y-112463465D01*
X102346661Y-112459000D01*
X103433339Y-112459000D01*
X103478674Y-112463465D01*
G37*
G36*
X99501000Y-113501000D02*
G01*
X98299000Y-113501000D01*
X98299000Y-112399000D01*
X99501000Y-112399000D01*
X99501000Y-113501000D01*
G37*
G36*
X67818674Y-111783465D02*
G01*
X67856367Y-111794899D01*
X67891103Y-111813466D01*
X67921548Y-111838452D01*
X67946534Y-111868897D01*
X67965101Y-111903633D01*
X67976535Y-111941326D01*
X67981000Y-111986661D01*
X67981000Y-112823339D01*
X67976535Y-112868674D01*
X67965101Y-112906367D01*
X67946534Y-112941103D01*
X67921548Y-112971548D01*
X67891103Y-112996534D01*
X67856367Y-113015101D01*
X67818674Y-113026535D01*
X67773339Y-113031000D01*
X66686661Y-113031000D01*
X66641326Y-113026535D01*
X66603633Y-113015101D01*
X66568897Y-112996534D01*
X66538452Y-112971548D01*
X66513466Y-112941103D01*
X66494899Y-112906367D01*
X66483465Y-112868674D01*
X66479000Y-112823339D01*
X66479000Y-111986661D01*
X66483465Y-111941326D01*
X66494899Y-111903633D01*
X66513466Y-111868897D01*
X66538452Y-111838452D01*
X66568897Y-111813466D01*
X66603633Y-111794899D01*
X66641326Y-111783465D01*
X66686661Y-111779000D01*
X67773339Y-111779000D01*
X67818674Y-111783465D01*
G37*
G36*
X101701000Y-112551000D02*
G01*
X100499000Y-112551000D01*
X100499000Y-111449000D01*
X101701000Y-111449000D01*
X101701000Y-112551000D01*
G37*
G36*
X71241000Y-112176000D02*
G01*
X69539000Y-112176000D01*
X69539000Y-105924000D01*
X71241000Y-105924000D01*
X71241000Y-112176000D01*
G37*
G36*
X79741000Y-112176000D02*
G01*
X78039000Y-112176000D01*
X78039000Y-105924000D01*
X79741000Y-105924000D01*
X79741000Y-112176000D01*
G37*
G36*
X97708674Y-110443465D02*
G01*
X97746367Y-110454899D01*
X97781103Y-110473466D01*
X97811548Y-110498452D01*
X97836534Y-110528897D01*
X97855101Y-110563633D01*
X97866535Y-110601326D01*
X97871000Y-110646661D01*
X97871000Y-111483339D01*
X97866535Y-111528674D01*
X97855101Y-111566367D01*
X97836534Y-111601103D01*
X97811548Y-111631548D01*
X97781103Y-111656534D01*
X97746367Y-111675101D01*
X97708674Y-111686535D01*
X97663339Y-111691000D01*
X96576661Y-111691000D01*
X96531326Y-111686535D01*
X96493633Y-111675101D01*
X96458897Y-111656534D01*
X96428452Y-111631548D01*
X96403466Y-111601103D01*
X96384899Y-111566367D01*
X96373465Y-111528674D01*
X96369000Y-111483339D01*
X96369000Y-110646661D01*
X96373465Y-110601326D01*
X96384899Y-110563633D01*
X96403466Y-110528897D01*
X96428452Y-110498452D01*
X96458897Y-110473466D01*
X96493633Y-110454899D01*
X96531326Y-110443465D01*
X96576661Y-110439000D01*
X97663339Y-110439000D01*
X97708674Y-110443465D01*
G37*
G36*
X95528674Y-110443465D02*
G01*
X95566367Y-110454899D01*
X95601103Y-110473466D01*
X95631548Y-110498452D01*
X95656534Y-110528897D01*
X95675101Y-110563633D01*
X95686535Y-110601326D01*
X95691000Y-110646661D01*
X95691000Y-111483339D01*
X95686535Y-111528674D01*
X95675101Y-111566367D01*
X95656534Y-111601103D01*
X95631548Y-111631548D01*
X95601103Y-111656534D01*
X95566367Y-111675101D01*
X95528674Y-111686535D01*
X95483339Y-111691000D01*
X94396661Y-111691000D01*
X94351326Y-111686535D01*
X94313633Y-111675101D01*
X94278897Y-111656534D01*
X94248452Y-111631548D01*
X94223466Y-111601103D01*
X94204899Y-111566367D01*
X94193465Y-111528674D01*
X94189000Y-111483339D01*
X94189000Y-110646661D01*
X94193465Y-110601326D01*
X94204899Y-110563633D01*
X94223466Y-110528897D01*
X94248452Y-110498452D01*
X94278897Y-110473466D01*
X94313633Y-110454899D01*
X94351326Y-110443465D01*
X94396661Y-110439000D01*
X95483339Y-110439000D01*
X95528674Y-110443465D01*
G37*
G36*
X103478674Y-110413465D02*
G01*
X103516367Y-110424899D01*
X103551103Y-110443466D01*
X103581548Y-110468452D01*
X103606534Y-110498897D01*
X103625101Y-110533633D01*
X103636535Y-110571326D01*
X103641000Y-110616661D01*
X103641000Y-111453339D01*
X103636535Y-111498674D01*
X103625101Y-111536367D01*
X103606534Y-111571103D01*
X103581548Y-111601548D01*
X103551103Y-111626534D01*
X103516367Y-111645101D01*
X103478674Y-111656535D01*
X103433339Y-111661000D01*
X102346661Y-111661000D01*
X102301326Y-111656535D01*
X102263633Y-111645101D01*
X102228897Y-111626534D01*
X102198452Y-111601548D01*
X102173466Y-111571103D01*
X102154899Y-111536367D01*
X102143465Y-111498674D01*
X102139000Y-111453339D01*
X102139000Y-110616661D01*
X102143465Y-110571326D01*
X102154899Y-110533633D01*
X102173466Y-110498897D01*
X102198452Y-110468452D01*
X102228897Y-110443466D01*
X102263633Y-110424899D01*
X102301326Y-110413465D01*
X102346661Y-110409000D01*
X103433339Y-110409000D01*
X103478674Y-110413465D01*
G37*
G36*
X99501000Y-111601000D02*
G01*
X98299000Y-111601000D01*
X98299000Y-110499000D01*
X99501000Y-110499000D01*
X99501000Y-111601000D01*
G37*
G36*
X67818674Y-109733465D02*
G01*
X67856367Y-109744899D01*
X67891103Y-109763466D01*
X67921548Y-109788452D01*
X67946534Y-109818897D01*
X67965101Y-109853633D01*
X67976535Y-109891326D01*
X67981000Y-109936661D01*
X67981000Y-110773339D01*
X67976535Y-110818674D01*
X67965101Y-110856367D01*
X67946534Y-110891103D01*
X67921548Y-110921548D01*
X67891103Y-110946534D01*
X67856367Y-110965101D01*
X67818674Y-110976535D01*
X67773339Y-110981000D01*
X66686661Y-110981000D01*
X66641326Y-110976535D01*
X66603633Y-110965101D01*
X66568897Y-110946534D01*
X66538452Y-110921548D01*
X66513466Y-110891103D01*
X66494899Y-110856367D01*
X66483465Y-110818674D01*
X66479000Y-110773339D01*
X66479000Y-109936661D01*
X66483465Y-109891326D01*
X66494899Y-109853633D01*
X66513466Y-109818897D01*
X66538452Y-109788452D01*
X66568897Y-109763466D01*
X66603633Y-109744899D01*
X66641326Y-109733465D01*
X66686661Y-109729000D01*
X67773339Y-109729000D01*
X67818674Y-109733465D01*
G37*
G36*
X62958674Y-109313465D02*
G01*
X62996367Y-109324899D01*
X63031103Y-109343466D01*
X63061548Y-109368452D01*
X63086534Y-109398897D01*
X63105101Y-109433633D01*
X63116535Y-109471326D01*
X63121000Y-109516661D01*
X63121000Y-110603339D01*
X63116535Y-110648674D01*
X63105101Y-110686367D01*
X63086534Y-110721103D01*
X63061548Y-110751548D01*
X63031103Y-110776534D01*
X62996367Y-110795101D01*
X62958674Y-110806535D01*
X62913339Y-110811000D01*
X62076661Y-110811000D01*
X62031326Y-110806535D01*
X61993633Y-110795101D01*
X61958897Y-110776534D01*
X61928452Y-110751548D01*
X61903466Y-110721103D01*
X61884899Y-110686367D01*
X61873465Y-110648674D01*
X61869000Y-110603339D01*
X61869000Y-109516661D01*
X61873465Y-109471326D01*
X61884899Y-109433633D01*
X61903466Y-109398897D01*
X61928452Y-109368452D01*
X61958897Y-109343466D01*
X61993633Y-109324899D01*
X62031326Y-109313465D01*
X62076661Y-109309000D01*
X62913339Y-109309000D01*
X62958674Y-109313465D01*
G37*
G36*
X65008674Y-109313465D02*
G01*
X65046367Y-109324899D01*
X65081103Y-109343466D01*
X65111548Y-109368452D01*
X65136534Y-109398897D01*
X65155101Y-109433633D01*
X65166535Y-109471326D01*
X65171000Y-109516661D01*
X65171000Y-110603339D01*
X65166535Y-110648674D01*
X65155101Y-110686367D01*
X65136534Y-110721103D01*
X65111548Y-110751548D01*
X65081103Y-110776534D01*
X65046367Y-110795101D01*
X65008674Y-110806535D01*
X64963339Y-110811000D01*
X64126661Y-110811000D01*
X64081326Y-110806535D01*
X64043633Y-110795101D01*
X64008897Y-110776534D01*
X63978452Y-110751548D01*
X63953466Y-110721103D01*
X63934899Y-110686367D01*
X63923465Y-110648674D01*
X63919000Y-110603339D01*
X63919000Y-109516661D01*
X63923465Y-109471326D01*
X63934899Y-109433633D01*
X63953466Y-109398897D01*
X63978452Y-109368452D01*
X64008897Y-109343466D01*
X64043633Y-109324899D01*
X64081326Y-109313465D01*
X64126661Y-109309000D01*
X64963339Y-109309000D01*
X65008674Y-109313465D01*
G37*
G36*
X82188674Y-108493465D02*
G01*
X82226367Y-108504899D01*
X82261103Y-108523466D01*
X82291548Y-108548452D01*
X82316534Y-108578897D01*
X82335101Y-108613633D01*
X82346535Y-108651326D01*
X82351000Y-108696661D01*
X82351000Y-109533339D01*
X82346535Y-109578674D01*
X82335101Y-109616367D01*
X82316534Y-109651103D01*
X82291548Y-109681548D01*
X82261103Y-109706534D01*
X82226367Y-109725101D01*
X82188674Y-109736535D01*
X82143339Y-109741000D01*
X81056661Y-109741000D01*
X81011326Y-109736535D01*
X80973633Y-109725101D01*
X80938897Y-109706534D01*
X80908452Y-109681548D01*
X80883466Y-109651103D01*
X80864899Y-109616367D01*
X80853465Y-109578674D01*
X80849000Y-109533339D01*
X80849000Y-108696661D01*
X80853465Y-108651326D01*
X80864899Y-108613633D01*
X80883466Y-108578897D01*
X80908452Y-108548452D01*
X80938897Y-108523466D01*
X80973633Y-108504899D01*
X81011326Y-108493465D01*
X81056661Y-108489000D01*
X82143339Y-108489000D01*
X82188674Y-108493465D01*
G37*
G36*
X68131000Y-108771000D02*
G01*
X66229000Y-108771000D01*
X66229000Y-107669000D01*
X68131000Y-107669000D01*
X68131000Y-108771000D01*
G37*
G36*
X63008674Y-106933465D02*
G01*
X63046367Y-106944899D01*
X63081103Y-106963466D01*
X63111548Y-106988452D01*
X63136534Y-107018897D01*
X63155101Y-107053633D01*
X63166535Y-107091326D01*
X63171000Y-107136661D01*
X63171000Y-108223339D01*
X63166535Y-108268674D01*
X63155101Y-108306367D01*
X63136534Y-108341103D01*
X63111548Y-108371548D01*
X63081103Y-108396534D01*
X63046367Y-108415101D01*
X63008674Y-108426535D01*
X62963339Y-108431000D01*
X62126661Y-108431000D01*
X62081326Y-108426535D01*
X62043633Y-108415101D01*
X62008897Y-108396534D01*
X61978452Y-108371548D01*
X61953466Y-108341103D01*
X61934899Y-108306367D01*
X61923465Y-108268674D01*
X61919000Y-108223339D01*
X61919000Y-107136661D01*
X61923465Y-107091326D01*
X61934899Y-107053633D01*
X61953466Y-107018897D01*
X61978452Y-106988452D01*
X62008897Y-106963466D01*
X62043633Y-106944899D01*
X62081326Y-106933465D01*
X62126661Y-106929000D01*
X62963339Y-106929000D01*
X63008674Y-106933465D01*
G37*
G36*
X65058674Y-106933465D02*
G01*
X65096367Y-106944899D01*
X65131103Y-106963466D01*
X65161548Y-106988452D01*
X65186534Y-107018897D01*
X65205101Y-107053633D01*
X65216535Y-107091326D01*
X65221000Y-107136661D01*
X65221000Y-108223339D01*
X65216535Y-108268674D01*
X65205101Y-108306367D01*
X65186534Y-108341103D01*
X65161548Y-108371548D01*
X65131103Y-108396534D01*
X65096367Y-108415101D01*
X65058674Y-108426535D01*
X65013339Y-108431000D01*
X64176661Y-108431000D01*
X64131326Y-108426535D01*
X64093633Y-108415101D01*
X64058897Y-108396534D01*
X64028452Y-108371548D01*
X64003466Y-108341103D01*
X63984899Y-108306367D01*
X63973465Y-108268674D01*
X63969000Y-108223339D01*
X63969000Y-107136661D01*
X63973465Y-107091326D01*
X63984899Y-107053633D01*
X64003466Y-107018897D01*
X64028452Y-106988452D01*
X64058897Y-106963466D01*
X64093633Y-106944899D01*
X64131326Y-106933465D01*
X64176661Y-106929000D01*
X65013339Y-106929000D01*
X65058674Y-106933465D01*
G37*
G36*
X82188674Y-106443465D02*
G01*
X82226367Y-106454899D01*
X82261103Y-106473466D01*
X82291548Y-106498452D01*
X82316534Y-106528897D01*
X82335101Y-106563633D01*
X82346535Y-106601326D01*
X82351000Y-106646661D01*
X82351000Y-107483339D01*
X82346535Y-107528674D01*
X82335101Y-107566367D01*
X82316534Y-107601103D01*
X82291548Y-107631548D01*
X82261103Y-107656534D01*
X82226367Y-107675101D01*
X82188674Y-107686535D01*
X82143339Y-107691000D01*
X81056661Y-107691000D01*
X81011326Y-107686535D01*
X80973633Y-107675101D01*
X80938897Y-107656534D01*
X80908452Y-107631548D01*
X80883466Y-107601103D01*
X80864899Y-107566367D01*
X80853465Y-107528674D01*
X80849000Y-107483339D01*
X80849000Y-106646661D01*
X80853465Y-106601326D01*
X80864899Y-106563633D01*
X80883466Y-106528897D01*
X80908452Y-106498452D01*
X80938897Y-106473466D01*
X80973633Y-106454899D01*
X81011326Y-106443465D01*
X81056661Y-106439000D01*
X82143339Y-106439000D01*
X82188674Y-106443465D01*
G37*
G36*
X88351000Y-107401000D02*
G01*
X86549000Y-107401000D01*
X86549000Y-105599000D01*
X88351000Y-105599000D01*
X88351000Y-107401000D01*
G37*
G36*
X68131000Y-106271000D02*
G01*
X66229000Y-106271000D01*
X66229000Y-105169000D01*
X68131000Y-105169000D01*
X68131000Y-106271000D01*
G37*
G36*
X77766000Y-105651000D02*
G01*
X71514000Y-105651000D01*
X71514000Y-103949000D01*
X77766000Y-103949000D01*
X77766000Y-105651000D01*
G37*
G36*
X61658674Y-104053465D02*
G01*
X61696367Y-104064899D01*
X61731103Y-104083466D01*
X61761548Y-104108452D01*
X61786534Y-104138897D01*
X61805101Y-104173633D01*
X61816535Y-104211326D01*
X61821000Y-104256661D01*
X61821000Y-105343339D01*
X61816535Y-105388674D01*
X61805101Y-105426367D01*
X61786534Y-105461103D01*
X61761548Y-105491548D01*
X61731103Y-105516534D01*
X61696367Y-105535101D01*
X61658674Y-105546535D01*
X61613339Y-105551000D01*
X60776661Y-105551000D01*
X60731326Y-105546535D01*
X60693633Y-105535101D01*
X60658897Y-105516534D01*
X60628452Y-105491548D01*
X60603466Y-105461103D01*
X60584899Y-105426367D01*
X60573465Y-105388674D01*
X60569000Y-105343339D01*
X60569000Y-104256661D01*
X60573465Y-104211326D01*
X60584899Y-104173633D01*
X60603466Y-104138897D01*
X60628452Y-104108452D01*
X60658897Y-104083466D01*
X60693633Y-104064899D01*
X60731326Y-104053465D01*
X60776661Y-104049000D01*
X61613339Y-104049000D01*
X61658674Y-104053465D01*
G37*
G36*
X63708674Y-104053465D02*
G01*
X63746367Y-104064899D01*
X63781103Y-104083466D01*
X63811548Y-104108452D01*
X63836534Y-104138897D01*
X63855101Y-104173633D01*
X63866535Y-104211326D01*
X63871000Y-104256661D01*
X63871000Y-105343339D01*
X63866535Y-105388674D01*
X63855101Y-105426367D01*
X63836534Y-105461103D01*
X63811548Y-105491548D01*
X63781103Y-105516534D01*
X63746367Y-105535101D01*
X63708674Y-105546535D01*
X63663339Y-105551000D01*
X62826661Y-105551000D01*
X62781326Y-105546535D01*
X62743633Y-105535101D01*
X62708897Y-105516534D01*
X62678452Y-105491548D01*
X62653466Y-105461103D01*
X62634899Y-105426367D01*
X62623465Y-105388674D01*
X62619000Y-105343339D01*
X62619000Y-104256661D01*
X62623465Y-104211326D01*
X62634899Y-104173633D01*
X62653466Y-104138897D01*
X62678452Y-104108452D01*
X62708897Y-104083466D01*
X62743633Y-104064899D01*
X62781326Y-104053465D01*
X62826661Y-104049000D01*
X63663339Y-104049000D01*
X63708674Y-104053465D01*
G37*
G36*
X88063512Y-103063927D02*
G01*
X88212812Y-103093624D01*
X88376784Y-103161544D01*
X88524354Y-103260147D01*
X88649853Y-103385646D01*
X88748456Y-103533216D01*
X88816376Y-103697188D01*
X88846073Y-103846488D01*
X88851000Y-103871258D01*
X88851000Y-104048742D01*
X88849908Y-104054230D01*
X88816376Y-104222812D01*
X88748456Y-104386784D01*
X88649853Y-104534354D01*
X88524354Y-104659853D01*
X88376784Y-104758456D01*
X88212812Y-104826376D01*
X88063512Y-104856073D01*
X88038742Y-104861000D01*
X87861258Y-104861000D01*
X87836488Y-104856073D01*
X87687188Y-104826376D01*
X87523216Y-104758456D01*
X87375646Y-104659853D01*
X87250147Y-104534354D01*
X87151544Y-104386784D01*
X87083624Y-104222812D01*
X87050092Y-104054230D01*
X87049000Y-104048742D01*
X87049000Y-103871258D01*
X87053927Y-103846488D01*
X87083624Y-103697188D01*
X87151544Y-103533216D01*
X87250147Y-103385646D01*
X87375646Y-103260147D01*
X87523216Y-103161544D01*
X87687188Y-103093624D01*
X87836488Y-103063927D01*
X87861258Y-103059000D01*
X88038742Y-103059000D01*
X88063512Y-103063927D01*
G37*
G36*
X61678674Y-101963465D02*
G01*
X61716367Y-101974899D01*
X61751103Y-101993466D01*
X61781548Y-102018452D01*
X61806534Y-102048897D01*
X61825101Y-102083633D01*
X61836535Y-102121326D01*
X61841000Y-102166661D01*
X61841000Y-103253339D01*
X61836535Y-103298674D01*
X61825101Y-103336367D01*
X61806534Y-103371103D01*
X61781548Y-103401548D01*
X61751103Y-103426534D01*
X61716367Y-103445101D01*
X61678674Y-103456535D01*
X61633339Y-103461000D01*
X60796661Y-103461000D01*
X60751326Y-103456535D01*
X60713633Y-103445101D01*
X60678897Y-103426534D01*
X60648452Y-103401548D01*
X60623466Y-103371103D01*
X60604899Y-103336367D01*
X60593465Y-103298674D01*
X60589000Y-103253339D01*
X60589000Y-102166661D01*
X60593465Y-102121326D01*
X60604899Y-102083633D01*
X60623466Y-102048897D01*
X60648452Y-102018452D01*
X60678897Y-101993466D01*
X60713633Y-101974899D01*
X60751326Y-101963465D01*
X60796661Y-101959000D01*
X61633339Y-101959000D01*
X61678674Y-101963465D01*
G37*
G36*
X63728674Y-101963465D02*
G01*
X63766367Y-101974899D01*
X63801103Y-101993466D01*
X63831548Y-102018452D01*
X63856534Y-102048897D01*
X63875101Y-102083633D01*
X63886535Y-102121326D01*
X63891000Y-102166661D01*
X63891000Y-103253339D01*
X63886535Y-103298674D01*
X63875101Y-103336367D01*
X63856534Y-103371103D01*
X63831548Y-103401548D01*
X63801103Y-103426534D01*
X63766367Y-103445101D01*
X63728674Y-103456535D01*
X63683339Y-103461000D01*
X62846661Y-103461000D01*
X62801326Y-103456535D01*
X62763633Y-103445101D01*
X62728897Y-103426534D01*
X62698452Y-103401548D01*
X62673466Y-103371103D01*
X62654899Y-103336367D01*
X62643465Y-103298674D01*
X62639000Y-103253339D01*
X62639000Y-102166661D01*
X62643465Y-102121326D01*
X62654899Y-102083633D01*
X62673466Y-102048897D01*
X62698452Y-102018452D01*
X62728897Y-101993466D01*
X62763633Y-101974899D01*
X62801326Y-101963465D01*
X62846661Y-101959000D01*
X63683339Y-101959000D01*
X63728674Y-101963465D01*
G37*
G36*
X70028674Y-102053465D02*
G01*
X70066367Y-102064899D01*
X70101103Y-102083466D01*
X70131548Y-102108452D01*
X70156534Y-102138897D01*
X70175101Y-102173633D01*
X70186535Y-102211326D01*
X70191000Y-102256661D01*
X70191000Y-103093339D01*
X70186535Y-103138674D01*
X70175101Y-103176367D01*
X70156534Y-103211103D01*
X70131548Y-103241548D01*
X70101103Y-103266534D01*
X70066367Y-103285101D01*
X70028674Y-103296535D01*
X69983339Y-103301000D01*
X68896661Y-103301000D01*
X68851326Y-103296535D01*
X68813633Y-103285101D01*
X68778897Y-103266534D01*
X68748452Y-103241548D01*
X68723466Y-103211103D01*
X68704899Y-103176367D01*
X68693465Y-103138674D01*
X68689000Y-103093339D01*
X68689000Y-102256661D01*
X68693465Y-102211326D01*
X68704899Y-102173633D01*
X68723466Y-102138897D01*
X68748452Y-102108452D01*
X68778897Y-102083466D01*
X68813633Y-102064899D01*
X68851326Y-102053465D01*
X68896661Y-102049000D01*
X69983339Y-102049000D01*
X70028674Y-102053465D01*
G37*
G36*
X67838674Y-102043465D02*
G01*
X67876367Y-102054899D01*
X67911103Y-102073466D01*
X67941548Y-102098452D01*
X67966534Y-102128897D01*
X67985101Y-102163633D01*
X67996535Y-102201326D01*
X68001000Y-102246661D01*
X68001000Y-103083339D01*
X67996535Y-103128674D01*
X67985101Y-103166367D01*
X67966534Y-103201103D01*
X67941548Y-103231548D01*
X67911103Y-103256534D01*
X67876367Y-103275101D01*
X67838674Y-103286535D01*
X67793339Y-103291000D01*
X66706661Y-103291000D01*
X66661326Y-103286535D01*
X66623633Y-103275101D01*
X66588897Y-103256534D01*
X66558452Y-103231548D01*
X66533466Y-103201103D01*
X66514899Y-103166367D01*
X66503465Y-103128674D01*
X66499000Y-103083339D01*
X66499000Y-102246661D01*
X66503465Y-102201326D01*
X66514899Y-102163633D01*
X66533466Y-102128897D01*
X66558452Y-102098452D01*
X66588897Y-102073466D01*
X66623633Y-102054899D01*
X66661326Y-102043465D01*
X66706661Y-102039000D01*
X67793339Y-102039000D01*
X67838674Y-102043465D01*
G37*
G36*
X87563512Y-100523927D02*
G01*
X87712812Y-100553624D01*
X87876784Y-100621544D01*
X88024354Y-100720147D01*
X88149853Y-100845646D01*
X88248456Y-100993216D01*
X88316376Y-101157188D01*
X88351000Y-101331259D01*
X88351000Y-101508741D01*
X88316376Y-101682812D01*
X88248456Y-101846784D01*
X88149853Y-101994354D01*
X88024354Y-102119853D01*
X87876784Y-102218456D01*
X87712812Y-102286376D01*
X87563512Y-102316073D01*
X87538742Y-102321000D01*
X87361258Y-102321000D01*
X87336488Y-102316073D01*
X87187188Y-102286376D01*
X87023216Y-102218456D01*
X86875646Y-102119853D01*
X86750147Y-101994354D01*
X86651544Y-101846784D01*
X86583624Y-101682812D01*
X86549000Y-101508741D01*
X86549000Y-101331259D01*
X86583624Y-101157188D01*
X86651544Y-100993216D01*
X86750147Y-100845646D01*
X86875646Y-100720147D01*
X87023216Y-100621544D01*
X87187188Y-100553624D01*
X87336488Y-100523927D01*
X87361258Y-100519000D01*
X87538742Y-100519000D01*
X87563512Y-100523927D01*
G37*
G36*
X81335274Y-100697905D02*
G01*
X81372967Y-100709339D01*
X81407703Y-100727906D01*
X81438148Y-100752892D01*
X81463134Y-100783337D01*
X81481701Y-100818073D01*
X81493135Y-100855766D01*
X81497600Y-100901101D01*
X81497600Y-101737779D01*
X81493135Y-101783114D01*
X81481701Y-101820807D01*
X81463134Y-101855543D01*
X81438148Y-101885988D01*
X81407703Y-101910974D01*
X81372967Y-101929541D01*
X81335274Y-101940975D01*
X81289939Y-101945440D01*
X80203261Y-101945440D01*
X80157926Y-101940975D01*
X80120233Y-101929541D01*
X80085497Y-101910974D01*
X80055052Y-101885988D01*
X80030066Y-101855543D01*
X80011499Y-101820807D01*
X80000065Y-101783114D01*
X79995600Y-101737779D01*
X79995600Y-100901101D01*
X80000065Y-100855766D01*
X80011499Y-100818073D01*
X80030066Y-100783337D01*
X80055052Y-100752892D01*
X80085497Y-100727906D01*
X80120233Y-100709339D01*
X80157926Y-100697905D01*
X80203261Y-100693440D01*
X81289939Y-100693440D01*
X81335274Y-100697905D01*
G37*
G36*
X79519640Y-101705600D02*
G01*
X78517640Y-101705600D01*
X78517640Y-100803600D01*
X79519640Y-100803600D01*
X79519640Y-101705600D01*
G37*
G36*
X61751000Y-101576000D02*
G01*
X60649000Y-101576000D01*
X60649000Y-100374000D01*
X61751000Y-100374000D01*
X61751000Y-101576000D01*
G37*
G36*
X63651000Y-101576000D02*
G01*
X62549000Y-101576000D01*
X62549000Y-100374000D01*
X63651000Y-100374000D01*
X63651000Y-101576000D01*
G37*
G36*
X70028674Y-100003465D02*
G01*
X70066367Y-100014899D01*
X70101103Y-100033466D01*
X70131548Y-100058452D01*
X70156534Y-100088897D01*
X70175101Y-100123633D01*
X70186535Y-100161326D01*
X70191000Y-100206661D01*
X70191000Y-101043339D01*
X70186535Y-101088674D01*
X70175101Y-101126367D01*
X70156534Y-101161103D01*
X70131548Y-101191548D01*
X70101103Y-101216534D01*
X70066367Y-101235101D01*
X70028674Y-101246535D01*
X69983339Y-101251000D01*
X68896661Y-101251000D01*
X68851326Y-101246535D01*
X68813633Y-101235101D01*
X68778897Y-101216534D01*
X68748452Y-101191548D01*
X68723466Y-101161103D01*
X68704899Y-101126367D01*
X68693465Y-101088674D01*
X68689000Y-101043339D01*
X68689000Y-100206661D01*
X68693465Y-100161326D01*
X68704899Y-100123633D01*
X68723466Y-100088897D01*
X68748452Y-100058452D01*
X68778897Y-100033466D01*
X68813633Y-100014899D01*
X68851326Y-100003465D01*
X68896661Y-99999000D01*
X69983339Y-99999000D01*
X70028674Y-100003465D01*
G37*
G36*
X67838674Y-99993465D02*
G01*
X67876367Y-100004899D01*
X67911103Y-100023466D01*
X67941548Y-100048452D01*
X67966534Y-100078897D01*
X67985101Y-100113633D01*
X67996535Y-100151326D01*
X68001000Y-100196661D01*
X68001000Y-101033339D01*
X67996535Y-101078674D01*
X67985101Y-101116367D01*
X67966534Y-101151103D01*
X67941548Y-101181548D01*
X67911103Y-101206534D01*
X67876367Y-101225101D01*
X67838674Y-101236535D01*
X67793339Y-101241000D01*
X66706661Y-101241000D01*
X66661326Y-101236535D01*
X66623633Y-101225101D01*
X66588897Y-101206534D01*
X66558452Y-101181548D01*
X66533466Y-101151103D01*
X66514899Y-101116367D01*
X66503465Y-101078674D01*
X66499000Y-101033339D01*
X66499000Y-100196661D01*
X66503465Y-100151326D01*
X66514899Y-100113633D01*
X66533466Y-100078897D01*
X66558452Y-100048452D01*
X66588897Y-100023466D01*
X66623633Y-100004899D01*
X66661326Y-99993465D01*
X66706661Y-99989000D01*
X67793339Y-99989000D01*
X67838674Y-99993465D01*
G37*
G36*
X77519640Y-100755600D02*
G01*
X76517640Y-100755600D01*
X76517640Y-99853600D01*
X77519640Y-99853600D01*
X77519640Y-100755600D01*
G37*
G36*
X81335274Y-98647905D02*
G01*
X81372967Y-98659339D01*
X81407703Y-98677906D01*
X81438148Y-98702892D01*
X81463134Y-98733337D01*
X81481701Y-98768073D01*
X81493135Y-98805766D01*
X81497600Y-98851101D01*
X81497600Y-99687779D01*
X81493135Y-99733114D01*
X81481701Y-99770807D01*
X81463134Y-99805543D01*
X81438148Y-99835988D01*
X81407703Y-99860974D01*
X81372967Y-99879541D01*
X81335274Y-99890975D01*
X81289939Y-99895440D01*
X80203261Y-99895440D01*
X80157926Y-99890975D01*
X80120233Y-99879541D01*
X80085497Y-99860974D01*
X80055052Y-99835988D01*
X80030066Y-99805543D01*
X80011499Y-99770807D01*
X80000065Y-99733114D01*
X79995600Y-99687779D01*
X79995600Y-98851101D01*
X80000065Y-98805766D01*
X80011499Y-98768073D01*
X80030066Y-98733337D01*
X80055052Y-98702892D01*
X80085497Y-98677906D01*
X80120233Y-98659339D01*
X80157926Y-98647905D01*
X80203261Y-98643440D01*
X81289939Y-98643440D01*
X81335274Y-98647905D01*
G37*
G36*
X79519640Y-99805600D02*
G01*
X78517640Y-99805600D01*
X78517640Y-98903600D01*
X79519640Y-98903600D01*
X79519640Y-99805600D01*
G37*
G36*
X88063512Y-97983927D02*
G01*
X88212812Y-98013624D01*
X88376784Y-98081544D01*
X88524354Y-98180147D01*
X88649853Y-98305646D01*
X88748456Y-98453216D01*
X88816376Y-98617188D01*
X88851000Y-98791259D01*
X88851000Y-98968741D01*
X88816376Y-99142812D01*
X88748456Y-99306784D01*
X88649853Y-99454354D01*
X88524354Y-99579853D01*
X88376784Y-99678456D01*
X88212812Y-99746376D01*
X88071530Y-99774478D01*
X88038742Y-99781000D01*
X87861258Y-99781000D01*
X87828470Y-99774478D01*
X87687188Y-99746376D01*
X87523216Y-99678456D01*
X87375646Y-99579853D01*
X87250147Y-99454354D01*
X87151544Y-99306784D01*
X87083624Y-99142812D01*
X87049000Y-98968741D01*
X87049000Y-98791259D01*
X87083624Y-98617188D01*
X87151544Y-98453216D01*
X87250147Y-98305646D01*
X87375646Y-98180147D01*
X87523216Y-98081544D01*
X87687188Y-98013624D01*
X87836488Y-97983927D01*
X87861258Y-97979000D01*
X88038742Y-97979000D01*
X88063512Y-97983927D01*
G37*
G36*
X62701000Y-99376000D02*
G01*
X61599000Y-99376000D01*
X61599000Y-98174000D01*
X62701000Y-98174000D01*
X62701000Y-99376000D01*
G37*
G36*
X81068760Y-97991560D02*
G01*
X78666760Y-97991560D01*
X78666760Y-96389560D01*
X81068760Y-96389560D01*
X81068760Y-97991560D01*
G37*
G36*
X77618674Y-96453465D02*
G01*
X77656367Y-96464899D01*
X77691103Y-96483466D01*
X77721548Y-96508452D01*
X77746534Y-96538897D01*
X77765101Y-96573633D01*
X77776535Y-96611326D01*
X77781000Y-96656661D01*
X77781000Y-97743339D01*
X77776535Y-97788674D01*
X77765101Y-97826367D01*
X77746534Y-97861103D01*
X77721548Y-97891548D01*
X77691103Y-97916534D01*
X77656367Y-97935101D01*
X77618674Y-97946535D01*
X77573339Y-97951000D01*
X76736661Y-97951000D01*
X76691326Y-97946535D01*
X76653633Y-97935101D01*
X76618897Y-97916534D01*
X76588452Y-97891548D01*
X76563466Y-97861103D01*
X76544899Y-97826367D01*
X76533465Y-97788674D01*
X76529000Y-97743339D01*
X76529000Y-96656661D01*
X76533465Y-96611326D01*
X76544899Y-96573633D01*
X76563466Y-96538897D01*
X76588452Y-96508452D01*
X76618897Y-96483466D01*
X76653633Y-96464899D01*
X76691326Y-96453465D01*
X76736661Y-96449000D01*
X77573339Y-96449000D01*
X77618674Y-96453465D01*
G37*
G36*
X75568674Y-96453465D02*
G01*
X75606367Y-96464899D01*
X75641103Y-96483466D01*
X75671548Y-96508452D01*
X75696534Y-96538897D01*
X75715101Y-96573633D01*
X75726535Y-96611326D01*
X75731000Y-96656661D01*
X75731000Y-97743339D01*
X75726535Y-97788674D01*
X75715101Y-97826367D01*
X75696534Y-97861103D01*
X75671548Y-97891548D01*
X75641103Y-97916534D01*
X75606367Y-97935101D01*
X75568674Y-97946535D01*
X75523339Y-97951000D01*
X74686661Y-97951000D01*
X74641326Y-97946535D01*
X74603633Y-97935101D01*
X74568897Y-97916534D01*
X74538452Y-97891548D01*
X74513466Y-97861103D01*
X74494899Y-97826367D01*
X74483465Y-97788674D01*
X74479000Y-97743339D01*
X74479000Y-96656661D01*
X74483465Y-96611326D01*
X74494899Y-96573633D01*
X74513466Y-96538897D01*
X74538452Y-96508452D01*
X74568897Y-96483466D01*
X74603633Y-96464899D01*
X74641326Y-96453465D01*
X74686661Y-96449000D01*
X75523339Y-96449000D01*
X75568674Y-96453465D01*
G37*
G36*
X61698674Y-96283465D02*
G01*
X61736367Y-96294899D01*
X61771103Y-96313466D01*
X61801548Y-96338452D01*
X61826534Y-96368897D01*
X61845101Y-96403633D01*
X61856535Y-96441326D01*
X61861000Y-96486661D01*
X61861000Y-97573339D01*
X61856535Y-97618674D01*
X61845101Y-97656367D01*
X61826534Y-97691103D01*
X61801548Y-97721548D01*
X61771103Y-97746534D01*
X61736367Y-97765101D01*
X61698674Y-97776535D01*
X61653339Y-97781000D01*
X60816661Y-97781000D01*
X60771326Y-97776535D01*
X60733633Y-97765101D01*
X60698897Y-97746534D01*
X60668452Y-97721548D01*
X60643466Y-97691103D01*
X60624899Y-97656367D01*
X60613465Y-97618674D01*
X60609000Y-97573339D01*
X60609000Y-96486661D01*
X60613465Y-96441326D01*
X60624899Y-96403633D01*
X60643466Y-96368897D01*
X60668452Y-96338452D01*
X60698897Y-96313466D01*
X60733633Y-96294899D01*
X60771326Y-96283465D01*
X60816661Y-96279000D01*
X61653339Y-96279000D01*
X61698674Y-96283465D01*
G37*
G36*
X63748674Y-96283465D02*
G01*
X63786367Y-96294899D01*
X63821103Y-96313466D01*
X63851548Y-96338452D01*
X63876534Y-96368897D01*
X63895101Y-96403633D01*
X63906535Y-96441326D01*
X63911000Y-96486661D01*
X63911000Y-97573339D01*
X63906535Y-97618674D01*
X63895101Y-97656367D01*
X63876534Y-97691103D01*
X63851548Y-97721548D01*
X63821103Y-97746534D01*
X63786367Y-97765101D01*
X63748674Y-97776535D01*
X63703339Y-97781000D01*
X62866661Y-97781000D01*
X62821326Y-97776535D01*
X62783633Y-97765101D01*
X62748897Y-97746534D01*
X62718452Y-97721548D01*
X62693466Y-97691103D01*
X62674899Y-97656367D01*
X62663465Y-97618674D01*
X62659000Y-97573339D01*
X62659000Y-96486661D01*
X62663465Y-96441326D01*
X62674899Y-96403633D01*
X62693466Y-96368897D01*
X62718452Y-96338452D01*
X62748897Y-96313466D01*
X62783633Y-96294899D01*
X62821326Y-96283465D01*
X62866661Y-96279000D01*
X63703339Y-96279000D01*
X63748674Y-96283465D01*
G37*
G36*
X87563512Y-95443927D02*
G01*
X87712812Y-95473624D01*
X87876784Y-95541544D01*
X88024354Y-95640147D01*
X88149853Y-95765646D01*
X88248456Y-95913216D01*
X88316376Y-96077188D01*
X88351000Y-96251259D01*
X88351000Y-96428741D01*
X88316376Y-96602812D01*
X88248456Y-96766784D01*
X88149853Y-96914354D01*
X88024354Y-97039853D01*
X87876784Y-97138456D01*
X87712812Y-97206376D01*
X87563512Y-97236073D01*
X87538742Y-97241000D01*
X87361258Y-97241000D01*
X87336488Y-97236073D01*
X87187188Y-97206376D01*
X87023216Y-97138456D01*
X86875646Y-97039853D01*
X86750147Y-96914354D01*
X86651544Y-96766784D01*
X86583624Y-96602812D01*
X86549000Y-96428741D01*
X86549000Y-96251259D01*
X86583624Y-96077188D01*
X86651544Y-95913216D01*
X86750147Y-95765646D01*
X86875646Y-95640147D01*
X87023216Y-95541544D01*
X87187188Y-95473624D01*
X87336488Y-95443927D01*
X87361258Y-95439000D01*
X87538742Y-95439000D01*
X87563512Y-95443927D01*
G37*
G36*
X73741000Y-95453000D02*
G01*
X72439000Y-95453000D01*
X72439000Y-92827000D01*
X73741000Y-92827000D01*
X73741000Y-95453000D01*
G37*
G36*
X77741000Y-95453000D02*
G01*
X76439000Y-95453000D01*
X76439000Y-92827000D01*
X77741000Y-92827000D01*
X77741000Y-95453000D01*
G37*
G36*
X75741000Y-95453000D02*
G01*
X74439000Y-95453000D01*
X74439000Y-92827000D01*
X75741000Y-92827000D01*
X75741000Y-95453000D01*
G37*
G36*
X71741000Y-95453000D02*
G01*
X70439000Y-95453000D01*
X70439000Y-92827000D01*
X71741000Y-92827000D01*
X71741000Y-95453000D01*
G37*
G36*
X69741000Y-95453000D02*
G01*
X68439000Y-95453000D01*
X68439000Y-92827000D01*
X69741000Y-92827000D01*
X69741000Y-95453000D01*
G37*
G36*
X67741000Y-95453000D02*
G01*
X66439000Y-95453000D01*
X66439000Y-92827000D01*
X67741000Y-92827000D01*
X67741000Y-95453000D01*
G37*
G36*
X63741000Y-95453000D02*
G01*
X62439000Y-95453000D01*
X62439000Y-92827000D01*
X63741000Y-92827000D01*
X63741000Y-95453000D01*
G37*
G36*
X65741000Y-95453000D02*
G01*
X64439000Y-95453000D01*
X64439000Y-92827000D01*
X65741000Y-92827000D01*
X65741000Y-95453000D01*
G37*
G36*
X88063512Y-92903927D02*
G01*
X88212812Y-92933624D01*
X88376784Y-93001544D01*
X88524354Y-93100147D01*
X88649853Y-93225646D01*
X88748456Y-93373216D01*
X88816376Y-93537188D01*
X88851000Y-93711259D01*
X88851000Y-93888741D01*
X88816376Y-94062812D01*
X88748456Y-94226784D01*
X88649853Y-94374354D01*
X88524354Y-94499853D01*
X88376784Y-94598456D01*
X88212812Y-94666376D01*
X88063512Y-94696073D01*
X88038742Y-94701000D01*
X87861258Y-94701000D01*
X87836488Y-94696073D01*
X87687188Y-94666376D01*
X87523216Y-94598456D01*
X87375646Y-94499853D01*
X87250147Y-94374354D01*
X87151544Y-94226784D01*
X87083624Y-94062812D01*
X87049000Y-93888741D01*
X87049000Y-93711259D01*
X87083624Y-93537188D01*
X87151544Y-93373216D01*
X87250147Y-93225646D01*
X87375646Y-93100147D01*
X87523216Y-93001544D01*
X87687188Y-92933624D01*
X87836488Y-92903927D01*
X87861258Y-92899000D01*
X88038742Y-92899000D01*
X88063512Y-92903927D01*
G37*
G36*
X88409360Y-91595840D02*
G01*
X86007360Y-91595840D01*
X86007360Y-89993840D01*
X88409360Y-89993840D01*
X88409360Y-91595840D01*
G37*
G36*
X84769354Y-90147905D02*
G01*
X84807047Y-90159339D01*
X84841783Y-90177906D01*
X84872228Y-90202892D01*
X84897214Y-90233337D01*
X84915781Y-90268073D01*
X84927215Y-90305766D01*
X84931680Y-90351101D01*
X84931680Y-91187779D01*
X84927215Y-91233114D01*
X84915781Y-91270807D01*
X84897214Y-91305543D01*
X84872228Y-91335988D01*
X84841783Y-91360974D01*
X84807047Y-91379541D01*
X84769354Y-91390975D01*
X84724019Y-91395440D01*
X83637341Y-91395440D01*
X83592006Y-91390975D01*
X83554313Y-91379541D01*
X83519577Y-91360974D01*
X83489132Y-91335988D01*
X83464146Y-91305543D01*
X83445579Y-91270807D01*
X83434145Y-91233114D01*
X83429680Y-91187779D01*
X83429680Y-90351101D01*
X83434145Y-90305766D01*
X83445579Y-90268073D01*
X83464146Y-90233337D01*
X83489132Y-90202892D01*
X83519577Y-90177906D01*
X83554313Y-90159339D01*
X83592006Y-90147905D01*
X83637341Y-90143440D01*
X84724019Y-90143440D01*
X84769354Y-90147905D01*
G37*
G36*
X68562218Y-90443796D02*
G01*
X68582837Y-90450051D01*
X68601833Y-90460204D01*
X68618488Y-90473872D01*
X68632156Y-90490527D01*
X68642309Y-90509523D01*
X68648564Y-90530142D01*
X68651280Y-90557720D01*
X68651280Y-91016440D01*
X68648564Y-91044018D01*
X68642309Y-91064637D01*
X68632156Y-91083633D01*
X68618488Y-91100288D01*
X68601833Y-91113956D01*
X68582837Y-91124109D01*
X68562218Y-91130364D01*
X68534640Y-91133080D01*
X68025920Y-91133080D01*
X67998342Y-91130364D01*
X67977723Y-91124109D01*
X67958727Y-91113956D01*
X67942072Y-91100288D01*
X67928404Y-91083633D01*
X67918251Y-91064637D01*
X67911996Y-91044018D01*
X67909280Y-91016440D01*
X67909280Y-90557720D01*
X67911996Y-90530142D01*
X67918251Y-90509523D01*
X67928404Y-90490527D01*
X67942072Y-90473872D01*
X67958727Y-90460204D01*
X67977723Y-90450051D01*
X67998342Y-90443796D01*
X68025920Y-90441080D01*
X68534640Y-90441080D01*
X68562218Y-90443796D01*
G37*
G36*
X71155818Y-89872836D02*
G01*
X71176437Y-89879091D01*
X71195433Y-89889244D01*
X71212088Y-89902912D01*
X71225756Y-89919567D01*
X71235909Y-89938563D01*
X71242164Y-89959182D01*
X71244880Y-89986760D01*
X71244880Y-90495480D01*
X71242164Y-90523058D01*
X71235909Y-90543677D01*
X71225756Y-90562673D01*
X71212088Y-90579328D01*
X71195433Y-90592996D01*
X71176437Y-90603149D01*
X71155818Y-90609404D01*
X71128240Y-90612120D01*
X70669520Y-90612120D01*
X70641942Y-90609404D01*
X70621323Y-90603149D01*
X70602327Y-90592996D01*
X70585672Y-90579328D01*
X70572004Y-90562673D01*
X70561851Y-90543677D01*
X70555596Y-90523058D01*
X70552880Y-90495480D01*
X70552880Y-89986760D01*
X70555596Y-89959182D01*
X70561851Y-89938563D01*
X70572004Y-89919567D01*
X70585672Y-89902912D01*
X70602327Y-89889244D01*
X70621323Y-89879091D01*
X70641942Y-89872836D01*
X70669520Y-89870120D01*
X71128240Y-89870120D01*
X71155818Y-89872836D01*
G37*
G36*
X70185818Y-89872836D02*
G01*
X70206437Y-89879091D01*
X70225433Y-89889244D01*
X70242088Y-89902912D01*
X70255756Y-89919567D01*
X70265909Y-89938563D01*
X70272164Y-89959182D01*
X70274880Y-89986760D01*
X70274880Y-90495480D01*
X70272164Y-90523058D01*
X70265909Y-90543677D01*
X70255756Y-90562673D01*
X70242088Y-90579328D01*
X70225433Y-90592996D01*
X70206437Y-90603149D01*
X70185818Y-90609404D01*
X70158240Y-90612120D01*
X69699520Y-90612120D01*
X69671942Y-90609404D01*
X69651323Y-90603149D01*
X69632327Y-90592996D01*
X69615672Y-90579328D01*
X69602004Y-90562673D01*
X69591851Y-90543677D01*
X69585596Y-90523058D01*
X69582880Y-90495480D01*
X69582880Y-89986760D01*
X69585596Y-89959182D01*
X69591851Y-89938563D01*
X69602004Y-89919567D01*
X69615672Y-89902912D01*
X69632327Y-89889244D01*
X69651323Y-89879091D01*
X69671942Y-89872836D01*
X69699520Y-89870120D01*
X70158240Y-89870120D01*
X70185818Y-89872836D01*
G37*
G36*
X66060438Y-89484216D02*
G01*
X66081057Y-89490471D01*
X66100053Y-89500624D01*
X66116708Y-89514292D01*
X66130376Y-89530947D01*
X66140529Y-89549943D01*
X66146784Y-89570562D01*
X66149500Y-89598140D01*
X66149500Y-90106860D01*
X66146784Y-90134438D01*
X66140529Y-90155057D01*
X66130376Y-90174053D01*
X66116708Y-90190708D01*
X66100053Y-90204376D01*
X66081057Y-90214529D01*
X66060438Y-90220784D01*
X66032860Y-90223500D01*
X65574140Y-90223500D01*
X65546562Y-90220784D01*
X65525943Y-90214529D01*
X65506947Y-90204376D01*
X65490292Y-90190708D01*
X65476624Y-90174053D01*
X65466471Y-90155057D01*
X65460216Y-90134438D01*
X65457500Y-90106860D01*
X65457500Y-89598140D01*
X65460216Y-89570562D01*
X65466471Y-89549943D01*
X65476624Y-89530947D01*
X65490292Y-89514292D01*
X65506947Y-89500624D01*
X65525943Y-89490471D01*
X65546562Y-89484216D01*
X65574140Y-89481500D01*
X66032860Y-89481500D01*
X66060438Y-89484216D01*
G37*
G36*
X65090438Y-89484216D02*
G01*
X65111057Y-89490471D01*
X65130053Y-89500624D01*
X65146708Y-89514292D01*
X65160376Y-89530947D01*
X65170529Y-89549943D01*
X65176784Y-89570562D01*
X65179500Y-89598140D01*
X65179500Y-90106860D01*
X65176784Y-90134438D01*
X65170529Y-90155057D01*
X65160376Y-90174053D01*
X65146708Y-90190708D01*
X65130053Y-90204376D01*
X65111057Y-90214529D01*
X65090438Y-90220784D01*
X65062860Y-90223500D01*
X64604140Y-90223500D01*
X64576562Y-90220784D01*
X64555943Y-90214529D01*
X64536947Y-90204376D01*
X64520292Y-90190708D01*
X64506624Y-90174053D01*
X64496471Y-90155057D01*
X64490216Y-90134438D01*
X64487500Y-90106860D01*
X64487500Y-89598140D01*
X64490216Y-89570562D01*
X64496471Y-89549943D01*
X64506624Y-89530947D01*
X64520292Y-89514292D01*
X64536947Y-89500624D01*
X64555943Y-89490471D01*
X64576562Y-89484216D01*
X64604140Y-89481500D01*
X65062860Y-89481500D01*
X65090438Y-89484216D01*
G37*
G36*
X68562218Y-89473796D02*
G01*
X68582837Y-89480051D01*
X68601833Y-89490204D01*
X68618488Y-89503872D01*
X68632156Y-89520527D01*
X68642309Y-89539523D01*
X68648564Y-89560142D01*
X68651280Y-89587720D01*
X68651280Y-90046440D01*
X68648564Y-90074018D01*
X68642309Y-90094637D01*
X68632156Y-90113633D01*
X68618488Y-90130288D01*
X68601833Y-90143956D01*
X68582837Y-90154109D01*
X68562218Y-90160364D01*
X68534640Y-90163080D01*
X68025920Y-90163080D01*
X67998342Y-90160364D01*
X67977723Y-90154109D01*
X67958727Y-90143956D01*
X67942072Y-90130288D01*
X67928404Y-90113633D01*
X67918251Y-90094637D01*
X67911996Y-90074018D01*
X67909280Y-90046440D01*
X67909280Y-89587720D01*
X67911996Y-89560142D01*
X67918251Y-89539523D01*
X67928404Y-89520527D01*
X67942072Y-89503872D01*
X67958727Y-89490204D01*
X67977723Y-89480051D01*
X67998342Y-89473796D01*
X68025920Y-89471080D01*
X68534640Y-89471080D01*
X68562218Y-89473796D01*
G37*
G36*
X95628674Y-88333465D02*
G01*
X95666367Y-88344899D01*
X95701103Y-88363466D01*
X95731548Y-88388452D01*
X95756534Y-88418897D01*
X95775101Y-88453633D01*
X95786535Y-88491326D01*
X95791000Y-88536661D01*
X95791000Y-89373339D01*
X95786535Y-89418674D01*
X95775101Y-89456367D01*
X95756534Y-89491103D01*
X95731548Y-89521548D01*
X95701103Y-89546534D01*
X95666367Y-89565101D01*
X95628674Y-89576535D01*
X95583339Y-89581000D01*
X94496661Y-89581000D01*
X94451326Y-89576535D01*
X94413633Y-89565101D01*
X94378897Y-89546534D01*
X94348452Y-89521548D01*
X94323466Y-89491103D01*
X94304899Y-89456367D01*
X94293465Y-89418674D01*
X94289000Y-89373339D01*
X94289000Y-88536661D01*
X94293465Y-88491326D01*
X94304899Y-88453633D01*
X94323466Y-88418897D01*
X94348452Y-88388452D01*
X94378897Y-88363466D01*
X94413633Y-88344899D01*
X94451326Y-88333465D01*
X94496661Y-88329000D01*
X95583339Y-88329000D01*
X95628674Y-88333465D01*
G37*
G36*
X97738674Y-88333465D02*
G01*
X97776367Y-88344899D01*
X97811103Y-88363466D01*
X97841548Y-88388452D01*
X97866534Y-88418897D01*
X97885101Y-88453633D01*
X97896535Y-88491326D01*
X97901000Y-88536661D01*
X97901000Y-89373339D01*
X97896535Y-89418674D01*
X97885101Y-89456367D01*
X97866534Y-89491103D01*
X97841548Y-89521548D01*
X97811103Y-89546534D01*
X97776367Y-89565101D01*
X97738674Y-89576535D01*
X97693339Y-89581000D01*
X96606661Y-89581000D01*
X96561326Y-89576535D01*
X96523633Y-89565101D01*
X96488897Y-89546534D01*
X96458452Y-89521548D01*
X96433466Y-89491103D01*
X96414899Y-89456367D01*
X96403465Y-89418674D01*
X96399000Y-89373339D01*
X96399000Y-88536661D01*
X96403465Y-88491326D01*
X96414899Y-88453633D01*
X96433466Y-88418897D01*
X96458452Y-88388452D01*
X96488897Y-88363466D01*
X96523633Y-88344899D01*
X96561326Y-88333465D01*
X96606661Y-88329000D01*
X97693339Y-88329000D01*
X97738674Y-88333465D01*
G37*
G36*
X103448674Y-88303465D02*
G01*
X103486367Y-88314899D01*
X103521103Y-88333466D01*
X103551548Y-88358452D01*
X103576534Y-88388897D01*
X103595101Y-88423633D01*
X103606535Y-88461326D01*
X103611000Y-88506661D01*
X103611000Y-89343339D01*
X103606535Y-89388674D01*
X103595101Y-89426367D01*
X103576534Y-89461103D01*
X103551548Y-89491548D01*
X103521103Y-89516534D01*
X103486367Y-89535101D01*
X103448674Y-89546535D01*
X103403339Y-89551000D01*
X102316661Y-89551000D01*
X102271326Y-89546535D01*
X102233633Y-89535101D01*
X102198897Y-89516534D01*
X102168452Y-89491548D01*
X102143466Y-89461103D01*
X102124899Y-89426367D01*
X102113465Y-89388674D01*
X102109000Y-89343339D01*
X102109000Y-88506661D01*
X102113465Y-88461326D01*
X102124899Y-88423633D01*
X102143466Y-88388897D01*
X102168452Y-88358452D01*
X102198897Y-88333466D01*
X102233633Y-88314899D01*
X102271326Y-88303465D01*
X102316661Y-88299000D01*
X103403339Y-88299000D01*
X103448674Y-88303465D01*
G37*
G36*
X99501000Y-89501000D02*
G01*
X98299000Y-89501000D01*
X98299000Y-88399000D01*
X99501000Y-88399000D01*
X99501000Y-89501000D01*
G37*
G36*
X70656355Y-84658583D02*
G01*
X70661029Y-84660001D01*
X70665330Y-84662300D01*
X70671702Y-84667529D01*
X70692076Y-84681143D01*
X70714715Y-84690520D01*
X70738749Y-84695300D01*
X70763253Y-84695300D01*
X70787286Y-84690519D01*
X70809925Y-84681142D01*
X70830298Y-84667529D01*
X70836670Y-84662300D01*
X70840971Y-84660001D01*
X70845645Y-84658583D01*
X70856641Y-84657500D01*
X71145359Y-84657500D01*
X71156355Y-84658583D01*
X71161029Y-84660001D01*
X71165330Y-84662300D01*
X71171702Y-84667529D01*
X71192076Y-84681143D01*
X71214715Y-84690520D01*
X71238749Y-84695300D01*
X71263253Y-84695300D01*
X71287286Y-84690519D01*
X71309925Y-84681142D01*
X71330298Y-84667529D01*
X71336670Y-84662300D01*
X71340971Y-84660001D01*
X71345645Y-84658583D01*
X71356641Y-84657500D01*
X71645359Y-84657500D01*
X71656355Y-84658583D01*
X71661029Y-84660001D01*
X71665330Y-84662300D01*
X71671702Y-84667529D01*
X71692076Y-84681143D01*
X71714715Y-84690520D01*
X71738749Y-84695300D01*
X71763253Y-84695300D01*
X71787286Y-84690519D01*
X71809925Y-84681142D01*
X71830298Y-84667529D01*
X71836670Y-84662300D01*
X71840971Y-84660001D01*
X71845645Y-84658583D01*
X71856641Y-84657500D01*
X72145359Y-84657500D01*
X72156355Y-84658583D01*
X72161029Y-84660001D01*
X72165330Y-84662300D01*
X72171702Y-84667529D01*
X72192076Y-84681143D01*
X72214715Y-84690520D01*
X72238749Y-84695300D01*
X72263253Y-84695300D01*
X72287286Y-84690519D01*
X72309925Y-84681142D01*
X72330298Y-84667529D01*
X72336670Y-84662300D01*
X72340971Y-84660001D01*
X72345645Y-84658583D01*
X72356641Y-84657500D01*
X72645359Y-84657500D01*
X72656355Y-84658583D01*
X72661029Y-84660001D01*
X72665331Y-84662300D01*
X72669104Y-84665396D01*
X72672200Y-84669169D01*
X72674499Y-84673471D01*
X72675917Y-84678145D01*
X72677000Y-84689141D01*
X72677000Y-85552859D01*
X72675917Y-85563855D01*
X72674499Y-85568530D01*
X72671801Y-85573577D01*
X72662423Y-85596216D01*
X72657643Y-85620249D01*
X72657643Y-85644753D01*
X72662423Y-85668786D01*
X72671801Y-85691425D01*
X72685414Y-85711800D01*
X72702741Y-85729127D01*
X72723116Y-85742740D01*
X72745755Y-85752118D01*
X72782040Y-85757500D01*
X72802000Y-85757500D01*
X72802000Y-85777460D01*
X72804402Y-85801846D01*
X72811515Y-85825295D01*
X72823066Y-85846906D01*
X72838611Y-85865848D01*
X72857553Y-85881393D01*
X72879164Y-85892944D01*
X72902613Y-85900057D01*
X72926999Y-85902459D01*
X72951385Y-85900057D01*
X72985923Y-85887699D01*
X72990970Y-85885001D01*
X72995645Y-85883583D01*
X73006641Y-85882500D01*
X73870359Y-85882500D01*
X73881355Y-85883583D01*
X73886029Y-85885001D01*
X73890331Y-85887300D01*
X73894104Y-85890396D01*
X73897200Y-85894169D01*
X73899499Y-85898471D01*
X73900917Y-85903145D01*
X73902000Y-85914141D01*
X73902000Y-86202859D01*
X73900917Y-86213855D01*
X73899499Y-86218529D01*
X73897200Y-86222830D01*
X73891971Y-86229202D01*
X73878357Y-86249576D01*
X73868980Y-86272215D01*
X73864200Y-86296249D01*
X73864200Y-86320753D01*
X73868981Y-86344786D01*
X73878358Y-86367425D01*
X73891971Y-86387798D01*
X73897200Y-86394170D01*
X73899499Y-86398471D01*
X73900917Y-86403145D01*
X73902000Y-86414141D01*
X73902000Y-86702859D01*
X73900917Y-86713855D01*
X73899499Y-86718529D01*
X73897200Y-86722830D01*
X73891971Y-86729202D01*
X73878357Y-86749576D01*
X73868980Y-86772215D01*
X73864200Y-86796249D01*
X73864200Y-86820753D01*
X73868981Y-86844786D01*
X73878358Y-86867425D01*
X73891971Y-86887798D01*
X73897200Y-86894170D01*
X73899499Y-86898471D01*
X73900917Y-86903145D01*
X73902000Y-86914141D01*
X73902000Y-87202859D01*
X73900917Y-87213855D01*
X73899499Y-87218529D01*
X73897200Y-87222830D01*
X73891971Y-87229202D01*
X73878357Y-87249576D01*
X73868980Y-87272215D01*
X73864200Y-87296249D01*
X73864200Y-87320753D01*
X73868981Y-87344786D01*
X73878358Y-87367425D01*
X73891971Y-87387798D01*
X73897200Y-87394170D01*
X73899499Y-87398471D01*
X73900917Y-87403145D01*
X73902000Y-87414141D01*
X73902000Y-87702859D01*
X73900917Y-87713855D01*
X73899499Y-87718529D01*
X73897200Y-87722830D01*
X73891971Y-87729202D01*
X73878357Y-87749576D01*
X73868980Y-87772215D01*
X73864200Y-87796249D01*
X73864200Y-87820753D01*
X73868981Y-87844786D01*
X73878358Y-87867425D01*
X73891971Y-87887798D01*
X73897200Y-87894170D01*
X73899499Y-87898471D01*
X73900917Y-87903145D01*
X73902000Y-87914141D01*
X73902000Y-88202859D01*
X73900917Y-88213855D01*
X73899499Y-88218529D01*
X73897200Y-88222831D01*
X73894104Y-88226604D01*
X73890331Y-88229700D01*
X73886029Y-88231999D01*
X73881355Y-88233417D01*
X73870359Y-88234500D01*
X73006641Y-88234500D01*
X72995645Y-88233417D01*
X72990970Y-88231999D01*
X72985923Y-88229301D01*
X72963284Y-88219923D01*
X72939251Y-88215143D01*
X72914747Y-88215143D01*
X72890714Y-88219923D01*
X72868075Y-88229301D01*
X72847700Y-88242914D01*
X72830373Y-88260241D01*
X72816760Y-88280616D01*
X72807382Y-88303255D01*
X72802000Y-88339540D01*
X72802000Y-88359500D01*
X72782040Y-88359500D01*
X72757654Y-88361902D01*
X72734205Y-88369015D01*
X72712594Y-88380566D01*
X72693652Y-88396111D01*
X72678107Y-88415053D01*
X72666556Y-88436664D01*
X72659443Y-88460113D01*
X72657041Y-88484499D01*
X72659443Y-88508885D01*
X72671801Y-88543423D01*
X72674499Y-88548470D01*
X72675917Y-88553145D01*
X72677000Y-88564141D01*
X72677000Y-89427859D01*
X72675917Y-89438855D01*
X72674499Y-89443529D01*
X72672200Y-89447831D01*
X72669104Y-89451604D01*
X72665331Y-89454700D01*
X72661029Y-89456999D01*
X72656355Y-89458417D01*
X72645359Y-89459500D01*
X72356641Y-89459500D01*
X72345645Y-89458417D01*
X72340971Y-89456999D01*
X72336670Y-89454700D01*
X72330298Y-89449471D01*
X72309924Y-89435857D01*
X72287285Y-89426480D01*
X72263251Y-89421700D01*
X72238747Y-89421700D01*
X72214714Y-89426481D01*
X72192075Y-89435858D01*
X72171702Y-89449471D01*
X72165330Y-89454700D01*
X72161029Y-89456999D01*
X72156355Y-89458417D01*
X72145359Y-89459500D01*
X71856641Y-89459500D01*
X71845645Y-89458417D01*
X71840971Y-89456999D01*
X71836670Y-89454700D01*
X71830298Y-89449471D01*
X71809924Y-89435857D01*
X71787285Y-89426480D01*
X71763251Y-89421700D01*
X71738747Y-89421700D01*
X71714714Y-89426481D01*
X71692075Y-89435858D01*
X71671702Y-89449471D01*
X71665330Y-89454700D01*
X71661029Y-89456999D01*
X71656355Y-89458417D01*
X71645359Y-89459500D01*
X71356641Y-89459500D01*
X71345645Y-89458417D01*
X71340971Y-89456999D01*
X71336670Y-89454700D01*
X71330298Y-89449471D01*
X71309924Y-89435857D01*
X71287285Y-89426480D01*
X71263251Y-89421700D01*
X71238747Y-89421700D01*
X71214714Y-89426481D01*
X71192075Y-89435858D01*
X71171702Y-89449471D01*
X71165330Y-89454700D01*
X71161029Y-89456999D01*
X71156355Y-89458417D01*
X71145359Y-89459500D01*
X70856641Y-89459500D01*
X70845645Y-89458417D01*
X70840971Y-89456999D01*
X70836670Y-89454700D01*
X70830298Y-89449471D01*
X70809924Y-89435857D01*
X70787285Y-89426480D01*
X70763251Y-89421700D01*
X70738747Y-89421700D01*
X70714714Y-89426481D01*
X70692075Y-89435858D01*
X70671702Y-89449471D01*
X70665330Y-89454700D01*
X70661029Y-89456999D01*
X70656355Y-89458417D01*
X70645359Y-89459500D01*
X70356641Y-89459500D01*
X70345645Y-89458417D01*
X70340971Y-89456999D01*
X70336669Y-89454700D01*
X70332896Y-89451604D01*
X70329800Y-89447831D01*
X70327501Y-89443529D01*
X70326083Y-89438855D01*
X70325000Y-89427859D01*
X70325000Y-88564141D01*
X70326083Y-88553145D01*
X70327501Y-88548470D01*
X70330199Y-88543423D01*
X70339577Y-88520784D01*
X70344357Y-88496751D01*
X70344357Y-88472247D01*
X70339577Y-88448214D01*
X70330199Y-88425575D01*
X70316586Y-88405200D01*
X70299259Y-88387873D01*
X70278884Y-88374260D01*
X70256245Y-88364882D01*
X70219960Y-88359500D01*
X70200000Y-88359500D01*
X70200000Y-88339540D01*
X70197598Y-88315154D01*
X70190485Y-88291705D01*
X70178934Y-88270094D01*
X70163389Y-88251152D01*
X70144447Y-88235607D01*
X70122836Y-88224056D01*
X70099387Y-88216943D01*
X70075001Y-88214541D01*
X70050615Y-88216943D01*
X70016077Y-88229301D01*
X70011030Y-88231999D01*
X70006355Y-88233417D01*
X69995359Y-88234500D01*
X69131641Y-88234500D01*
X69120645Y-88233417D01*
X69115971Y-88231999D01*
X69111669Y-88229700D01*
X69107896Y-88226604D01*
X69104800Y-88222831D01*
X69102501Y-88218529D01*
X69101083Y-88213855D01*
X69100000Y-88202859D01*
X69100000Y-87914141D01*
X69101083Y-87903145D01*
X69102501Y-87898471D01*
X69104800Y-87894170D01*
X69110029Y-87887798D01*
X69123643Y-87867424D01*
X69133020Y-87844785D01*
X69137800Y-87820751D01*
X69137800Y-87796247D01*
X69133019Y-87772214D01*
X69123642Y-87749575D01*
X69110029Y-87729202D01*
X69104800Y-87722830D01*
X69102501Y-87718529D01*
X69101083Y-87713855D01*
X69100000Y-87702859D01*
X69100000Y-87414141D01*
X69101083Y-87403145D01*
X69102501Y-87398471D01*
X69104800Y-87394170D01*
X69110029Y-87387798D01*
X69123643Y-87367424D01*
X69133020Y-87344785D01*
X69137800Y-87320751D01*
X69137800Y-87296247D01*
X69133019Y-87272214D01*
X69123642Y-87249575D01*
X69110029Y-87229202D01*
X69104800Y-87222830D01*
X69102501Y-87218529D01*
X69101083Y-87213855D01*
X69100000Y-87202859D01*
X69100000Y-86914141D01*
X69101083Y-86903145D01*
X69102501Y-86898471D01*
X69104800Y-86894170D01*
X69110029Y-86887798D01*
X69123643Y-86867424D01*
X69133020Y-86844785D01*
X69137800Y-86820751D01*
X69137800Y-86796247D01*
X69133019Y-86772214D01*
X69123642Y-86749575D01*
X69110029Y-86729202D01*
X69104800Y-86722830D01*
X69102501Y-86718529D01*
X69101083Y-86713855D01*
X69100000Y-86702859D01*
X69100000Y-86414141D01*
X69101083Y-86403145D01*
X69102501Y-86398471D01*
X69104800Y-86394170D01*
X69110029Y-86387798D01*
X69123643Y-86367424D01*
X69133020Y-86344785D01*
X69137800Y-86320751D01*
X69137800Y-86296247D01*
X69133019Y-86272214D01*
X69123642Y-86249575D01*
X69110029Y-86229202D01*
X69104800Y-86222830D01*
X69102501Y-86218529D01*
X69101083Y-86213855D01*
X69100000Y-86202859D01*
X69100000Y-85914141D01*
X69101083Y-85903145D01*
X69102501Y-85898471D01*
X69104800Y-85894169D01*
X69107896Y-85890396D01*
X69111669Y-85887300D01*
X69115971Y-85885001D01*
X69120645Y-85883583D01*
X69131641Y-85882500D01*
X69995359Y-85882500D01*
X70006355Y-85883583D01*
X70011030Y-85885001D01*
X70016077Y-85887699D01*
X70038716Y-85897077D01*
X70062749Y-85901857D01*
X70087253Y-85901857D01*
X70111286Y-85897077D01*
X70133925Y-85887699D01*
X70154300Y-85874086D01*
X70171627Y-85856759D01*
X70185240Y-85836384D01*
X70194618Y-85813745D01*
X70200000Y-85777460D01*
X70200000Y-85757500D01*
X70219960Y-85757500D01*
X70244346Y-85755098D01*
X70267795Y-85747985D01*
X70289406Y-85736434D01*
X70308348Y-85720889D01*
X70323893Y-85701947D01*
X70335444Y-85680336D01*
X70342557Y-85656887D01*
X70344959Y-85632501D01*
X70342557Y-85608115D01*
X70330199Y-85573577D01*
X70327501Y-85568530D01*
X70326083Y-85563855D01*
X70325000Y-85552859D01*
X70325000Y-84689141D01*
X70326083Y-84678145D01*
X70327501Y-84673471D01*
X70329800Y-84669169D01*
X70332896Y-84665396D01*
X70336669Y-84662300D01*
X70340971Y-84660001D01*
X70345645Y-84658583D01*
X70356641Y-84657500D01*
X70645359Y-84657500D01*
X70656355Y-84658583D01*
G37*
G36*
X84769354Y-88097905D02*
G01*
X84807047Y-88109339D01*
X84841783Y-88127906D01*
X84872228Y-88152892D01*
X84897214Y-88183337D01*
X84915781Y-88218073D01*
X84927215Y-88255766D01*
X84931680Y-88301101D01*
X84931680Y-89137779D01*
X84927215Y-89183114D01*
X84915781Y-89220807D01*
X84897214Y-89255543D01*
X84872228Y-89285988D01*
X84841783Y-89310974D01*
X84807047Y-89329541D01*
X84769354Y-89340975D01*
X84724019Y-89345440D01*
X83637341Y-89345440D01*
X83592006Y-89340975D01*
X83554313Y-89329541D01*
X83519577Y-89310974D01*
X83489132Y-89285988D01*
X83464146Y-89255543D01*
X83445579Y-89220807D01*
X83434145Y-89183114D01*
X83429680Y-89137779D01*
X83429680Y-88301101D01*
X83434145Y-88255766D01*
X83445579Y-88218073D01*
X83464146Y-88183337D01*
X83489132Y-88152892D01*
X83519577Y-88127906D01*
X83554313Y-88109339D01*
X83592006Y-88097905D01*
X83637341Y-88093440D01*
X84724019Y-88093440D01*
X84769354Y-88097905D01*
G37*
G36*
X87730440Y-89272480D02*
G01*
X86828440Y-89272480D01*
X86828440Y-88270480D01*
X87730440Y-88270480D01*
X87730440Y-89272480D01*
G37*
G36*
X76624438Y-88150716D02*
G01*
X76645057Y-88156971D01*
X76664053Y-88167124D01*
X76680708Y-88180792D01*
X76694376Y-88197447D01*
X76704529Y-88216443D01*
X76710784Y-88237062D01*
X76713500Y-88264640D01*
X76713500Y-88773360D01*
X76710784Y-88800938D01*
X76704529Y-88821557D01*
X76694376Y-88840553D01*
X76680708Y-88857208D01*
X76664053Y-88870876D01*
X76645057Y-88881029D01*
X76624438Y-88887284D01*
X76596860Y-88890000D01*
X76138140Y-88890000D01*
X76110562Y-88887284D01*
X76089943Y-88881029D01*
X76070947Y-88870876D01*
X76054292Y-88857208D01*
X76040624Y-88840553D01*
X76030471Y-88821557D01*
X76024216Y-88800938D01*
X76021500Y-88773360D01*
X76021500Y-88264640D01*
X76024216Y-88237062D01*
X76030471Y-88216443D01*
X76040624Y-88197447D01*
X76054292Y-88180792D01*
X76070947Y-88167124D01*
X76089943Y-88156971D01*
X76110562Y-88150716D01*
X76138140Y-88148000D01*
X76596860Y-88148000D01*
X76624438Y-88150716D01*
G37*
G36*
X75654438Y-88150716D02*
G01*
X75675057Y-88156971D01*
X75694053Y-88167124D01*
X75710708Y-88180792D01*
X75724376Y-88197447D01*
X75734529Y-88216443D01*
X75740784Y-88237062D01*
X75743500Y-88264640D01*
X75743500Y-88773360D01*
X75740784Y-88800938D01*
X75734529Y-88821557D01*
X75724376Y-88840553D01*
X75710708Y-88857208D01*
X75694053Y-88870876D01*
X75675057Y-88881029D01*
X75654438Y-88887284D01*
X75626860Y-88890000D01*
X75168140Y-88890000D01*
X75140562Y-88887284D01*
X75119943Y-88881029D01*
X75100947Y-88870876D01*
X75084292Y-88857208D01*
X75070624Y-88840553D01*
X75060471Y-88821557D01*
X75054216Y-88800938D01*
X75051500Y-88773360D01*
X75051500Y-88264640D01*
X75054216Y-88237062D01*
X75060471Y-88216443D01*
X75070624Y-88197447D01*
X75084292Y-88180792D01*
X75100947Y-88167124D01*
X75119943Y-88156971D01*
X75140562Y-88150716D01*
X75168140Y-88148000D01*
X75626860Y-88148000D01*
X75654438Y-88150716D01*
G37*
G36*
X65118000Y-88879500D02*
G01*
X64116000Y-88879500D01*
X64116000Y-87777500D01*
X65118000Y-87777500D01*
X65118000Y-88879500D01*
G37*
G36*
X66668000Y-88879500D02*
G01*
X65666000Y-88879500D01*
X65666000Y-87777500D01*
X66668000Y-87777500D01*
X66668000Y-88879500D01*
G37*
G36*
X101701000Y-88551000D02*
G01*
X100499000Y-88551000D01*
X100499000Y-87449000D01*
X101701000Y-87449000D01*
X101701000Y-88551000D01*
G37*
G36*
X76583938Y-87071216D02*
G01*
X76604557Y-87077471D01*
X76623553Y-87087624D01*
X76640208Y-87101292D01*
X76653876Y-87117947D01*
X76664029Y-87136943D01*
X76670284Y-87157562D01*
X76673000Y-87185140D01*
X76673000Y-87693860D01*
X76670284Y-87721438D01*
X76664029Y-87742057D01*
X76653876Y-87761053D01*
X76640208Y-87777708D01*
X76623553Y-87791376D01*
X76604557Y-87801529D01*
X76583938Y-87807784D01*
X76556360Y-87810500D01*
X76097640Y-87810500D01*
X76070062Y-87807784D01*
X76049443Y-87801529D01*
X76030447Y-87791376D01*
X76013792Y-87777708D01*
X76000124Y-87761053D01*
X75989971Y-87742057D01*
X75983716Y-87721438D01*
X75981000Y-87693860D01*
X75981000Y-87185140D01*
X75983716Y-87157562D01*
X75989971Y-87136943D01*
X76000124Y-87117947D01*
X76013792Y-87101292D01*
X76030447Y-87087624D01*
X76049443Y-87077471D01*
X76070062Y-87071216D01*
X76097640Y-87068500D01*
X76556360Y-87068500D01*
X76583938Y-87071216D01*
G37*
G36*
X75613938Y-87071216D02*
G01*
X75634557Y-87077471D01*
X75653553Y-87087624D01*
X75670208Y-87101292D01*
X75683876Y-87117947D01*
X75694029Y-87136943D01*
X75700284Y-87157562D01*
X75703000Y-87185140D01*
X75703000Y-87693860D01*
X75700284Y-87721438D01*
X75694029Y-87742057D01*
X75683876Y-87761053D01*
X75670208Y-87777708D01*
X75653553Y-87791376D01*
X75634557Y-87801529D01*
X75613938Y-87807784D01*
X75586360Y-87810500D01*
X75127640Y-87810500D01*
X75100062Y-87807784D01*
X75079443Y-87801529D01*
X75060447Y-87791376D01*
X75043792Y-87777708D01*
X75030124Y-87761053D01*
X75019971Y-87742057D01*
X75013716Y-87721438D01*
X75011000Y-87693860D01*
X75011000Y-87185140D01*
X75013716Y-87157562D01*
X75019971Y-87136943D01*
X75030124Y-87117947D01*
X75043792Y-87101292D01*
X75060447Y-87087624D01*
X75079443Y-87077471D01*
X75100062Y-87071216D01*
X75127640Y-87068500D01*
X75586360Y-87068500D01*
X75613938Y-87071216D01*
G37*
G36*
X99501000Y-87601000D02*
G01*
X98299000Y-87601000D01*
X98299000Y-86499000D01*
X99501000Y-86499000D01*
X99501000Y-87601000D01*
G37*
G36*
X97738674Y-86283465D02*
G01*
X97776367Y-86294899D01*
X97811103Y-86313466D01*
X97841548Y-86338452D01*
X97866534Y-86368897D01*
X97885101Y-86403633D01*
X97896535Y-86441326D01*
X97901000Y-86486661D01*
X97901000Y-87323339D01*
X97896535Y-87368674D01*
X97885101Y-87406367D01*
X97866534Y-87441103D01*
X97841548Y-87471548D01*
X97811103Y-87496534D01*
X97776367Y-87515101D01*
X97738674Y-87526535D01*
X97693339Y-87531000D01*
X96606661Y-87531000D01*
X96561326Y-87526535D01*
X96523633Y-87515101D01*
X96488897Y-87496534D01*
X96458452Y-87471548D01*
X96433466Y-87441103D01*
X96414899Y-87406367D01*
X96403465Y-87368674D01*
X96399000Y-87323339D01*
X96399000Y-86486661D01*
X96403465Y-86441326D01*
X96414899Y-86403633D01*
X96433466Y-86368897D01*
X96458452Y-86338452D01*
X96488897Y-86313466D01*
X96523633Y-86294899D01*
X96561326Y-86283465D01*
X96606661Y-86279000D01*
X97693339Y-86279000D01*
X97738674Y-86283465D01*
G37*
G36*
X95628674Y-86283465D02*
G01*
X95666367Y-86294899D01*
X95701103Y-86313466D01*
X95731548Y-86338452D01*
X95756534Y-86368897D01*
X95775101Y-86403633D01*
X95786535Y-86441326D01*
X95791000Y-86486661D01*
X95791000Y-87323339D01*
X95786535Y-87368674D01*
X95775101Y-87406367D01*
X95756534Y-87441103D01*
X95731548Y-87471548D01*
X95701103Y-87496534D01*
X95666367Y-87515101D01*
X95628674Y-87526535D01*
X95583339Y-87531000D01*
X94496661Y-87531000D01*
X94451326Y-87526535D01*
X94413633Y-87515101D01*
X94378897Y-87496534D01*
X94348452Y-87471548D01*
X94323466Y-87441103D01*
X94304899Y-87406367D01*
X94293465Y-87368674D01*
X94289000Y-87323339D01*
X94289000Y-86486661D01*
X94293465Y-86441326D01*
X94304899Y-86403633D01*
X94323466Y-86368897D01*
X94348452Y-86338452D01*
X94378897Y-86313466D01*
X94413633Y-86294899D01*
X94451326Y-86283465D01*
X94496661Y-86279000D01*
X95583339Y-86279000D01*
X95628674Y-86283465D01*
G37*
G36*
X103448674Y-86253465D02*
G01*
X103486367Y-86264899D01*
X103521103Y-86283466D01*
X103551548Y-86308452D01*
X103576534Y-86338897D01*
X103595101Y-86373633D01*
X103606535Y-86411326D01*
X103611000Y-86456661D01*
X103611000Y-87293339D01*
X103606535Y-87338674D01*
X103595101Y-87376367D01*
X103576534Y-87411103D01*
X103551548Y-87441548D01*
X103521103Y-87466534D01*
X103486367Y-87485101D01*
X103448674Y-87496535D01*
X103403339Y-87501000D01*
X102316661Y-87501000D01*
X102271326Y-87496535D01*
X102233633Y-87485101D01*
X102198897Y-87466534D01*
X102168452Y-87441548D01*
X102143466Y-87411103D01*
X102124899Y-87376367D01*
X102113465Y-87338674D01*
X102109000Y-87293339D01*
X102109000Y-86456661D01*
X102113465Y-86411326D01*
X102124899Y-86373633D01*
X102143466Y-86338897D01*
X102168452Y-86308452D01*
X102198897Y-86283466D01*
X102233633Y-86264899D01*
X102271326Y-86253465D01*
X102316661Y-86249000D01*
X103403339Y-86249000D01*
X103448674Y-86253465D01*
G37*
G36*
X88680440Y-87272480D02*
G01*
X87778440Y-87272480D01*
X87778440Y-86270480D01*
X88680440Y-86270480D01*
X88680440Y-87272480D01*
G37*
G36*
X86780440Y-87272480D02*
G01*
X85878440Y-87272480D01*
X85878440Y-86270480D01*
X86780440Y-86270480D01*
X86780440Y-87272480D01*
G37*
G36*
X65118000Y-86729500D02*
G01*
X64116000Y-86729500D01*
X64116000Y-85627500D01*
X65118000Y-85627500D01*
X65118000Y-86729500D01*
G37*
G36*
X66668000Y-86729500D02*
G01*
X65666000Y-86729500D01*
X65666000Y-85627500D01*
X66668000Y-85627500D01*
X66668000Y-86729500D01*
G37*
G36*
X76678058Y-85986636D02*
G01*
X76698677Y-85992891D01*
X76717673Y-86003044D01*
X76734328Y-86016712D01*
X76747996Y-86033367D01*
X76758149Y-86052363D01*
X76764404Y-86072982D01*
X76767120Y-86100560D01*
X76767120Y-86609280D01*
X76764404Y-86636858D01*
X76758149Y-86657477D01*
X76747996Y-86676473D01*
X76734328Y-86693128D01*
X76717673Y-86706796D01*
X76698677Y-86716949D01*
X76678058Y-86723204D01*
X76650480Y-86725920D01*
X76191760Y-86725920D01*
X76164182Y-86723204D01*
X76143563Y-86716949D01*
X76124567Y-86706796D01*
X76107912Y-86693128D01*
X76094244Y-86676473D01*
X76084091Y-86657477D01*
X76077836Y-86636858D01*
X76075120Y-86609280D01*
X76075120Y-86100560D01*
X76077836Y-86072982D01*
X76084091Y-86052363D01*
X76094244Y-86033367D01*
X76107912Y-86016712D01*
X76124567Y-86003044D01*
X76143563Y-85992891D01*
X76164182Y-85986636D01*
X76191760Y-85983920D01*
X76650480Y-85983920D01*
X76678058Y-85986636D01*
G37*
G36*
X77648058Y-85986636D02*
G01*
X77668677Y-85992891D01*
X77687673Y-86003044D01*
X77704328Y-86016712D01*
X77717996Y-86033367D01*
X77728149Y-86052363D01*
X77734404Y-86072982D01*
X77737120Y-86100560D01*
X77737120Y-86609280D01*
X77734404Y-86636858D01*
X77728149Y-86657477D01*
X77717996Y-86676473D01*
X77704328Y-86693128D01*
X77687673Y-86706796D01*
X77668677Y-86716949D01*
X77648058Y-86723204D01*
X77620480Y-86725920D01*
X77161760Y-86725920D01*
X77134182Y-86723204D01*
X77113563Y-86716949D01*
X77094567Y-86706796D01*
X77077912Y-86693128D01*
X77064244Y-86676473D01*
X77054091Y-86657477D01*
X77047836Y-86636858D01*
X77045120Y-86609280D01*
X77045120Y-86100560D01*
X77047836Y-86072982D01*
X77054091Y-86052363D01*
X77064244Y-86033367D01*
X77077912Y-86016712D01*
X77094567Y-86003044D01*
X77113563Y-85992891D01*
X77134182Y-85986636D01*
X77161760Y-85983920D01*
X77620480Y-85983920D01*
X77648058Y-85986636D01*
G37*
G36*
X67972938Y-85866716D02*
G01*
X67993557Y-85872971D01*
X68012553Y-85883124D01*
X68029208Y-85896792D01*
X68042876Y-85913447D01*
X68053029Y-85932443D01*
X68059284Y-85953062D01*
X68062000Y-85980640D01*
X68062000Y-86439360D01*
X68059284Y-86466938D01*
X68053029Y-86487557D01*
X68042876Y-86506553D01*
X68029208Y-86523208D01*
X68012553Y-86536876D01*
X67993557Y-86547029D01*
X67972938Y-86553284D01*
X67945360Y-86556000D01*
X67436640Y-86556000D01*
X67409062Y-86553284D01*
X67388443Y-86547029D01*
X67369447Y-86536876D01*
X67352792Y-86523208D01*
X67339124Y-86506553D01*
X67328971Y-86487557D01*
X67322716Y-86466938D01*
X67320000Y-86439360D01*
X67320000Y-85980640D01*
X67322716Y-85953062D01*
X67328971Y-85932443D01*
X67339124Y-85913447D01*
X67352792Y-85896792D01*
X67369447Y-85883124D01*
X67388443Y-85872971D01*
X67409062Y-85866716D01*
X67436640Y-85864000D01*
X67945360Y-85864000D01*
X67972938Y-85866716D01*
G37*
G36*
X67972938Y-84896716D02*
G01*
X67993557Y-84902971D01*
X68012553Y-84913124D01*
X68029208Y-84926792D01*
X68042876Y-84943447D01*
X68053029Y-84962443D01*
X68059284Y-84983062D01*
X68062000Y-85010640D01*
X68062000Y-85469360D01*
X68059284Y-85496938D01*
X68053029Y-85517557D01*
X68042876Y-85536553D01*
X68029208Y-85553208D01*
X68012553Y-85566876D01*
X67993557Y-85577029D01*
X67972938Y-85583284D01*
X67945360Y-85586000D01*
X67436640Y-85586000D01*
X67409062Y-85583284D01*
X67388443Y-85577029D01*
X67369447Y-85566876D01*
X67352792Y-85553208D01*
X67339124Y-85536553D01*
X67328971Y-85517557D01*
X67322716Y-85496938D01*
X67320000Y-85469360D01*
X67320000Y-85010640D01*
X67322716Y-84983062D01*
X67328971Y-84962443D01*
X67339124Y-84943447D01*
X67352792Y-84926792D01*
X67369447Y-84913124D01*
X67388443Y-84902971D01*
X67409062Y-84896716D01*
X67436640Y-84894000D01*
X67945360Y-84894000D01*
X67972938Y-84896716D01*
G37*
G36*
X65547498Y-84310236D02*
G01*
X65568117Y-84316491D01*
X65587113Y-84326644D01*
X65603768Y-84340312D01*
X65617436Y-84356967D01*
X65627589Y-84375963D01*
X65633844Y-84396582D01*
X65636560Y-84424160D01*
X65636560Y-84932880D01*
X65633844Y-84960458D01*
X65627589Y-84981077D01*
X65617436Y-85000073D01*
X65603768Y-85016728D01*
X65587113Y-85030396D01*
X65568117Y-85040549D01*
X65547498Y-85046804D01*
X65519920Y-85049520D01*
X65061200Y-85049520D01*
X65033622Y-85046804D01*
X65013003Y-85040549D01*
X64994007Y-85030396D01*
X64977352Y-85016728D01*
X64963684Y-85000073D01*
X64953531Y-84981077D01*
X64947276Y-84960458D01*
X64944560Y-84932880D01*
X64944560Y-84424160D01*
X64947276Y-84396582D01*
X64953531Y-84375963D01*
X64963684Y-84356967D01*
X64977352Y-84340312D01*
X64994007Y-84326644D01*
X65013003Y-84316491D01*
X65033622Y-84310236D01*
X65061200Y-84307520D01*
X65519920Y-84307520D01*
X65547498Y-84310236D01*
G37*
G36*
X64577498Y-84310236D02*
G01*
X64598117Y-84316491D01*
X64617113Y-84326644D01*
X64633768Y-84340312D01*
X64647436Y-84356967D01*
X64657589Y-84375963D01*
X64663844Y-84396582D01*
X64666560Y-84424160D01*
X64666560Y-84932880D01*
X64663844Y-84960458D01*
X64657589Y-84981077D01*
X64647436Y-85000073D01*
X64633768Y-85016728D01*
X64617113Y-85030396D01*
X64598117Y-85040549D01*
X64577498Y-85046804D01*
X64549920Y-85049520D01*
X64091200Y-85049520D01*
X64063622Y-85046804D01*
X64043003Y-85040549D01*
X64024007Y-85030396D01*
X64007352Y-85016728D01*
X63993684Y-85000073D01*
X63983531Y-84981077D01*
X63977276Y-84960458D01*
X63974560Y-84932880D01*
X63974560Y-84424160D01*
X63977276Y-84396582D01*
X63983531Y-84375963D01*
X63993684Y-84356967D01*
X64007352Y-84340312D01*
X64024007Y-84326644D01*
X64043003Y-84316491D01*
X64063622Y-84310236D01*
X64091200Y-84307520D01*
X64549920Y-84307520D01*
X64577498Y-84310236D01*
G37*
G36*
X70830438Y-83009216D02*
G01*
X70851057Y-83015471D01*
X70870053Y-83025624D01*
X70886708Y-83039292D01*
X70900376Y-83055947D01*
X70910529Y-83074943D01*
X70916784Y-83095562D01*
X70919500Y-83123140D01*
X70919500Y-83581860D01*
X70916784Y-83609438D01*
X70910529Y-83630057D01*
X70900376Y-83649053D01*
X70886708Y-83665708D01*
X70870053Y-83679376D01*
X70851057Y-83689529D01*
X70830438Y-83695784D01*
X70802860Y-83698500D01*
X70294140Y-83698500D01*
X70266562Y-83695784D01*
X70245943Y-83689529D01*
X70226947Y-83679376D01*
X70210292Y-83665708D01*
X70196624Y-83649053D01*
X70186471Y-83630057D01*
X70180216Y-83609438D01*
X70177500Y-83581860D01*
X70177500Y-83123140D01*
X70180216Y-83095562D01*
X70186471Y-83074943D01*
X70196624Y-83055947D01*
X70210292Y-83039292D01*
X70226947Y-83025624D01*
X70245943Y-83015471D01*
X70266562Y-83009216D01*
X70294140Y-83006500D01*
X70802860Y-83006500D01*
X70830438Y-83009216D01*
G37*
G36*
X74132438Y-82986216D02*
G01*
X74153057Y-82992471D01*
X74172053Y-83002624D01*
X74188708Y-83016292D01*
X74202376Y-83032947D01*
X74212529Y-83051943D01*
X74218784Y-83072562D01*
X74221500Y-83100140D01*
X74221500Y-83558860D01*
X74218784Y-83586438D01*
X74212529Y-83607057D01*
X74202376Y-83626053D01*
X74188708Y-83642708D01*
X74172053Y-83656376D01*
X74153057Y-83666529D01*
X74132438Y-83672784D01*
X74104860Y-83675500D01*
X73596140Y-83675500D01*
X73568562Y-83672784D01*
X73547943Y-83666529D01*
X73528947Y-83656376D01*
X73512292Y-83642708D01*
X73498624Y-83626053D01*
X73488471Y-83607057D01*
X73482216Y-83586438D01*
X73479500Y-83558860D01*
X73479500Y-83100140D01*
X73482216Y-83072562D01*
X73488471Y-83051943D01*
X73498624Y-83032947D01*
X73512292Y-83016292D01*
X73528947Y-83002624D01*
X73547943Y-82992471D01*
X73568562Y-82986216D01*
X73596140Y-82983500D01*
X74104860Y-82983500D01*
X74132438Y-82986216D01*
G37*
G36*
X73052938Y-82986216D02*
G01*
X73073557Y-82992471D01*
X73092553Y-83002624D01*
X73109208Y-83016292D01*
X73122876Y-83032947D01*
X73133029Y-83051943D01*
X73139284Y-83072562D01*
X73142000Y-83100140D01*
X73142000Y-83558860D01*
X73139284Y-83586438D01*
X73133029Y-83607057D01*
X73122876Y-83626053D01*
X73109208Y-83642708D01*
X73092553Y-83656376D01*
X73073557Y-83666529D01*
X73052938Y-83672784D01*
X73025360Y-83675500D01*
X72516640Y-83675500D01*
X72489062Y-83672784D01*
X72468443Y-83666529D01*
X72449447Y-83656376D01*
X72432792Y-83642708D01*
X72419124Y-83626053D01*
X72408971Y-83607057D01*
X72402716Y-83586438D01*
X72400000Y-83558860D01*
X72400000Y-83100140D01*
X72402716Y-83072562D01*
X72408971Y-83051943D01*
X72419124Y-83032947D01*
X72432792Y-83016292D01*
X72449447Y-83002624D01*
X72468443Y-82992471D01*
X72489062Y-82986216D01*
X72516640Y-82983500D01*
X73025360Y-82983500D01*
X73052938Y-82986216D01*
G37*
G36*
X71973438Y-82986216D02*
G01*
X71994057Y-82992471D01*
X72013053Y-83002624D01*
X72029708Y-83016292D01*
X72043376Y-83032947D01*
X72053529Y-83051943D01*
X72059784Y-83072562D01*
X72062500Y-83100140D01*
X72062500Y-83558860D01*
X72059784Y-83586438D01*
X72053529Y-83607057D01*
X72043376Y-83626053D01*
X72029708Y-83642708D01*
X72013053Y-83656376D01*
X71994057Y-83666529D01*
X71973438Y-83672784D01*
X71945860Y-83675500D01*
X71437140Y-83675500D01*
X71409562Y-83672784D01*
X71388943Y-83666529D01*
X71369947Y-83656376D01*
X71353292Y-83642708D01*
X71339624Y-83626053D01*
X71329471Y-83607057D01*
X71323216Y-83586438D01*
X71320500Y-83558860D01*
X71320500Y-83100140D01*
X71323216Y-83072562D01*
X71329471Y-83051943D01*
X71339624Y-83032947D01*
X71353292Y-83016292D01*
X71369947Y-83002624D01*
X71388943Y-82992471D01*
X71409562Y-82986216D01*
X71437140Y-82983500D01*
X71945860Y-82983500D01*
X71973438Y-82986216D01*
G37*
G36*
X69750938Y-82986216D02*
G01*
X69771557Y-82992471D01*
X69790553Y-83002624D01*
X69807208Y-83016292D01*
X69820876Y-83032947D01*
X69831029Y-83051943D01*
X69837284Y-83072562D01*
X69840000Y-83100140D01*
X69840000Y-83558860D01*
X69837284Y-83586438D01*
X69831029Y-83607057D01*
X69820876Y-83626053D01*
X69807208Y-83642708D01*
X69790553Y-83656376D01*
X69771557Y-83666529D01*
X69750938Y-83672784D01*
X69723360Y-83675500D01*
X69214640Y-83675500D01*
X69187062Y-83672784D01*
X69166443Y-83666529D01*
X69147447Y-83656376D01*
X69130792Y-83642708D01*
X69117124Y-83626053D01*
X69106971Y-83607057D01*
X69100716Y-83586438D01*
X69098000Y-83558860D01*
X69098000Y-83100140D01*
X69100716Y-83072562D01*
X69106971Y-83051943D01*
X69117124Y-83032947D01*
X69130792Y-83016292D01*
X69147447Y-83002624D01*
X69166443Y-82992471D01*
X69187062Y-82986216D01*
X69214640Y-82983500D01*
X69723360Y-82983500D01*
X69750938Y-82986216D01*
G37*
G36*
X90563512Y-80993927D02*
G01*
X90712812Y-81023624D01*
X90876784Y-81091544D01*
X91024354Y-81190147D01*
X91149853Y-81315646D01*
X91248456Y-81463216D01*
X91316376Y-81627188D01*
X91351000Y-81801259D01*
X91351000Y-81978741D01*
X91316376Y-82152812D01*
X91248456Y-82316784D01*
X91149853Y-82464354D01*
X91024354Y-82589853D01*
X90876784Y-82688456D01*
X90712812Y-82756376D01*
X90563512Y-82786073D01*
X90538742Y-82791000D01*
X90361258Y-82791000D01*
X90336488Y-82786073D01*
X90187188Y-82756376D01*
X90023216Y-82688456D01*
X89875646Y-82589853D01*
X89750147Y-82464354D01*
X89651544Y-82316784D01*
X89583624Y-82152812D01*
X89549000Y-81978741D01*
X89549000Y-81801259D01*
X89583624Y-81627188D01*
X89651544Y-81463216D01*
X89750147Y-81315646D01*
X89875646Y-81190147D01*
X90023216Y-81091544D01*
X90187188Y-81023624D01*
X90336488Y-80993927D01*
X90361258Y-80989000D01*
X90538742Y-80989000D01*
X90563512Y-80993927D01*
G37*
G36*
X85483512Y-80993927D02*
G01*
X85632812Y-81023624D01*
X85796784Y-81091544D01*
X85944354Y-81190147D01*
X86069853Y-81315646D01*
X86168456Y-81463216D01*
X86236376Y-81627188D01*
X86271000Y-81801259D01*
X86271000Y-81978741D01*
X86236376Y-82152812D01*
X86168456Y-82316784D01*
X86069853Y-82464354D01*
X85944354Y-82589853D01*
X85796784Y-82688456D01*
X85632812Y-82756376D01*
X85483512Y-82786073D01*
X85458742Y-82791000D01*
X85281258Y-82791000D01*
X85256488Y-82786073D01*
X85107188Y-82756376D01*
X84943216Y-82688456D01*
X84795646Y-82589853D01*
X84670147Y-82464354D01*
X84571544Y-82316784D01*
X84503624Y-82152812D01*
X84469000Y-81978741D01*
X84469000Y-81801259D01*
X84503624Y-81627188D01*
X84571544Y-81463216D01*
X84670147Y-81315646D01*
X84795646Y-81190147D01*
X84943216Y-81091544D01*
X85107188Y-81023624D01*
X85256488Y-80993927D01*
X85281258Y-80989000D01*
X85458742Y-80989000D01*
X85483512Y-80993927D01*
G37*
G36*
X80403512Y-80993927D02*
G01*
X80552812Y-81023624D01*
X80716784Y-81091544D01*
X80864354Y-81190147D01*
X80989853Y-81315646D01*
X81088456Y-81463216D01*
X81156376Y-81627188D01*
X81191000Y-81801259D01*
X81191000Y-81978741D01*
X81156376Y-82152812D01*
X81088456Y-82316784D01*
X80989853Y-82464354D01*
X80864354Y-82589853D01*
X80716784Y-82688456D01*
X80552812Y-82756376D01*
X80403512Y-82786073D01*
X80378742Y-82791000D01*
X80201258Y-82791000D01*
X80176488Y-82786073D01*
X80027188Y-82756376D01*
X79863216Y-82688456D01*
X79715646Y-82589853D01*
X79590147Y-82464354D01*
X79491544Y-82316784D01*
X79423624Y-82152812D01*
X79389000Y-81978741D01*
X79389000Y-81801259D01*
X79423624Y-81627188D01*
X79491544Y-81463216D01*
X79590147Y-81315646D01*
X79715646Y-81190147D01*
X79863216Y-81091544D01*
X80027188Y-81023624D01*
X80176488Y-80993927D01*
X80201258Y-80989000D01*
X80378742Y-80989000D01*
X80403512Y-80993927D01*
G37*
G36*
X70830438Y-82039216D02*
G01*
X70851057Y-82045471D01*
X70870053Y-82055624D01*
X70886708Y-82069292D01*
X70900376Y-82085947D01*
X70910529Y-82104943D01*
X70916784Y-82125562D01*
X70919500Y-82153140D01*
X70919500Y-82611860D01*
X70916784Y-82639438D01*
X70910529Y-82660057D01*
X70900376Y-82679053D01*
X70886708Y-82695708D01*
X70870053Y-82709376D01*
X70851057Y-82719529D01*
X70830438Y-82725784D01*
X70802860Y-82728500D01*
X70294140Y-82728500D01*
X70266562Y-82725784D01*
X70245943Y-82719529D01*
X70226947Y-82709376D01*
X70210292Y-82695708D01*
X70196624Y-82679053D01*
X70186471Y-82660057D01*
X70180216Y-82639438D01*
X70177500Y-82611860D01*
X70177500Y-82153140D01*
X70180216Y-82125562D01*
X70186471Y-82104943D01*
X70196624Y-82085947D01*
X70210292Y-82069292D01*
X70226947Y-82055624D01*
X70245943Y-82045471D01*
X70266562Y-82039216D01*
X70294140Y-82036500D01*
X70802860Y-82036500D01*
X70830438Y-82039216D01*
G37*
G36*
X74132438Y-82016216D02*
G01*
X74153057Y-82022471D01*
X74172053Y-82032624D01*
X74188708Y-82046292D01*
X74202376Y-82062947D01*
X74212529Y-82081943D01*
X74218784Y-82102562D01*
X74221500Y-82130140D01*
X74221500Y-82588860D01*
X74218784Y-82616438D01*
X74212529Y-82637057D01*
X74202376Y-82656053D01*
X74188708Y-82672708D01*
X74172053Y-82686376D01*
X74153057Y-82696529D01*
X74132438Y-82702784D01*
X74104860Y-82705500D01*
X73596140Y-82705500D01*
X73568562Y-82702784D01*
X73547943Y-82696529D01*
X73528947Y-82686376D01*
X73512292Y-82672708D01*
X73498624Y-82656053D01*
X73488471Y-82637057D01*
X73482216Y-82616438D01*
X73479500Y-82588860D01*
X73479500Y-82130140D01*
X73482216Y-82102562D01*
X73488471Y-82081943D01*
X73498624Y-82062947D01*
X73512292Y-82046292D01*
X73528947Y-82032624D01*
X73547943Y-82022471D01*
X73568562Y-82016216D01*
X73596140Y-82013500D01*
X74104860Y-82013500D01*
X74132438Y-82016216D01*
G37*
G36*
X73052938Y-82016216D02*
G01*
X73073557Y-82022471D01*
X73092553Y-82032624D01*
X73109208Y-82046292D01*
X73122876Y-82062947D01*
X73133029Y-82081943D01*
X73139284Y-82102562D01*
X73142000Y-82130140D01*
X73142000Y-82588860D01*
X73139284Y-82616438D01*
X73133029Y-82637057D01*
X73122876Y-82656053D01*
X73109208Y-82672708D01*
X73092553Y-82686376D01*
X73073557Y-82696529D01*
X73052938Y-82702784D01*
X73025360Y-82705500D01*
X72516640Y-82705500D01*
X72489062Y-82702784D01*
X72468443Y-82696529D01*
X72449447Y-82686376D01*
X72432792Y-82672708D01*
X72419124Y-82656053D01*
X72408971Y-82637057D01*
X72402716Y-82616438D01*
X72400000Y-82588860D01*
X72400000Y-82130140D01*
X72402716Y-82102562D01*
X72408971Y-82081943D01*
X72419124Y-82062947D01*
X72432792Y-82046292D01*
X72449447Y-82032624D01*
X72468443Y-82022471D01*
X72489062Y-82016216D01*
X72516640Y-82013500D01*
X73025360Y-82013500D01*
X73052938Y-82016216D01*
G37*
G36*
X69750938Y-82016216D02*
G01*
X69771557Y-82022471D01*
X69790553Y-82032624D01*
X69807208Y-82046292D01*
X69820876Y-82062947D01*
X69831029Y-82081943D01*
X69837284Y-82102562D01*
X69840000Y-82130140D01*
X69840000Y-82588860D01*
X69837284Y-82616438D01*
X69831029Y-82637057D01*
X69820876Y-82656053D01*
X69807208Y-82672708D01*
X69790553Y-82686376D01*
X69771557Y-82696529D01*
X69750938Y-82702784D01*
X69723360Y-82705500D01*
X69214640Y-82705500D01*
X69187062Y-82702784D01*
X69166443Y-82696529D01*
X69147447Y-82686376D01*
X69130792Y-82672708D01*
X69117124Y-82656053D01*
X69106971Y-82637057D01*
X69100716Y-82616438D01*
X69098000Y-82588860D01*
X69098000Y-82130140D01*
X69100716Y-82102562D01*
X69106971Y-82081943D01*
X69117124Y-82062947D01*
X69130792Y-82046292D01*
X69147447Y-82032624D01*
X69166443Y-82022471D01*
X69187062Y-82016216D01*
X69214640Y-82013500D01*
X69723360Y-82013500D01*
X69750938Y-82016216D01*
G37*
G36*
X71973438Y-82016216D02*
G01*
X71994057Y-82022471D01*
X72013053Y-82032624D01*
X72029708Y-82046292D01*
X72043376Y-82062947D01*
X72053529Y-82081943D01*
X72059784Y-82102562D01*
X72062500Y-82130140D01*
X72062500Y-82588860D01*
X72059784Y-82616438D01*
X72053529Y-82637057D01*
X72043376Y-82656053D01*
X72029708Y-82672708D01*
X72013053Y-82686376D01*
X71994057Y-82696529D01*
X71973438Y-82702784D01*
X71945860Y-82705500D01*
X71437140Y-82705500D01*
X71409562Y-82702784D01*
X71388943Y-82696529D01*
X71369947Y-82686376D01*
X71353292Y-82672708D01*
X71339624Y-82656053D01*
X71329471Y-82637057D01*
X71323216Y-82616438D01*
X71320500Y-82588860D01*
X71320500Y-82130140D01*
X71323216Y-82102562D01*
X71329471Y-82081943D01*
X71339624Y-82062947D01*
X71353292Y-82046292D01*
X71369947Y-82032624D01*
X71388943Y-82022471D01*
X71409562Y-82016216D01*
X71437140Y-82013500D01*
X71945860Y-82013500D01*
X71973438Y-82016216D01*
G37*
G36*
X88023512Y-80493927D02*
G01*
X88172812Y-80523624D01*
X88336784Y-80591544D01*
X88484354Y-80690147D01*
X88609853Y-80815646D01*
X88708456Y-80963216D01*
X88776376Y-81127188D01*
X88811000Y-81301259D01*
X88811000Y-81478741D01*
X88776376Y-81652812D01*
X88708456Y-81816784D01*
X88609853Y-81964354D01*
X88484354Y-82089853D01*
X88336784Y-82188456D01*
X88172812Y-82256376D01*
X88023512Y-82286073D01*
X87998742Y-82291000D01*
X87821258Y-82291000D01*
X87796488Y-82286073D01*
X87647188Y-82256376D01*
X87483216Y-82188456D01*
X87335646Y-82089853D01*
X87210147Y-81964354D01*
X87111544Y-81816784D01*
X87043624Y-81652812D01*
X87009000Y-81478741D01*
X87009000Y-81301259D01*
X87043624Y-81127188D01*
X87111544Y-80963216D01*
X87210147Y-80815646D01*
X87335646Y-80690147D01*
X87483216Y-80591544D01*
X87647188Y-80523624D01*
X87796488Y-80493927D01*
X87821258Y-80489000D01*
X87998742Y-80489000D01*
X88023512Y-80493927D01*
G37*
G36*
X82943512Y-80493927D02*
G01*
X83092812Y-80523624D01*
X83256784Y-80591544D01*
X83404354Y-80690147D01*
X83529853Y-80815646D01*
X83628456Y-80963216D01*
X83696376Y-81127188D01*
X83731000Y-81301259D01*
X83731000Y-81478741D01*
X83696376Y-81652812D01*
X83628456Y-81816784D01*
X83529853Y-81964354D01*
X83404354Y-82089853D01*
X83256784Y-82188456D01*
X83092812Y-82256376D01*
X82943512Y-82286073D01*
X82918742Y-82291000D01*
X82741258Y-82291000D01*
X82716488Y-82286073D01*
X82567188Y-82256376D01*
X82403216Y-82188456D01*
X82255646Y-82089853D01*
X82130147Y-81964354D01*
X82031544Y-81816784D01*
X81963624Y-81652812D01*
X81929000Y-81478741D01*
X81929000Y-81301259D01*
X81963624Y-81127188D01*
X82031544Y-80963216D01*
X82130147Y-80815646D01*
X82255646Y-80690147D01*
X82403216Y-80591544D01*
X82567188Y-80523624D01*
X82716488Y-80493927D01*
X82741258Y-80489000D01*
X82918742Y-80489000D01*
X82943512Y-80493927D01*
G37*
G36*
X71884938Y-80911716D02*
G01*
X71905557Y-80917971D01*
X71924553Y-80928124D01*
X71941208Y-80941792D01*
X71954876Y-80958447D01*
X71965029Y-80977443D01*
X71971284Y-80998062D01*
X71974000Y-81025640D01*
X71974000Y-81534360D01*
X71971284Y-81561938D01*
X71965029Y-81582557D01*
X71954876Y-81601553D01*
X71941208Y-81618208D01*
X71924553Y-81631876D01*
X71905557Y-81642029D01*
X71884938Y-81648284D01*
X71857360Y-81651000D01*
X71398640Y-81651000D01*
X71371062Y-81648284D01*
X71350443Y-81642029D01*
X71331447Y-81631876D01*
X71314792Y-81618208D01*
X71301124Y-81601553D01*
X71290971Y-81582557D01*
X71284716Y-81561938D01*
X71282000Y-81534360D01*
X71282000Y-81025640D01*
X71284716Y-80998062D01*
X71290971Y-80977443D01*
X71301124Y-80958447D01*
X71314792Y-80941792D01*
X71331447Y-80928124D01*
X71350443Y-80917971D01*
X71371062Y-80911716D01*
X71398640Y-80909000D01*
X71857360Y-80909000D01*
X71884938Y-80911716D01*
G37*
G36*
X70914938Y-80911716D02*
G01*
X70935557Y-80917971D01*
X70954553Y-80928124D01*
X70971208Y-80941792D01*
X70984876Y-80958447D01*
X70995029Y-80977443D01*
X71001284Y-80998062D01*
X71004000Y-81025640D01*
X71004000Y-81534360D01*
X71001284Y-81561938D01*
X70995029Y-81582557D01*
X70984876Y-81601553D01*
X70971208Y-81618208D01*
X70954553Y-81631876D01*
X70935557Y-81642029D01*
X70914938Y-81648284D01*
X70887360Y-81651000D01*
X70428640Y-81651000D01*
X70401062Y-81648284D01*
X70380443Y-81642029D01*
X70361447Y-81631876D01*
X70344792Y-81618208D01*
X70331124Y-81601553D01*
X70320971Y-81582557D01*
X70314716Y-81561938D01*
X70312000Y-81534360D01*
X70312000Y-81025640D01*
X70314716Y-80998062D01*
X70320971Y-80977443D01*
X70331124Y-80958447D01*
X70344792Y-80941792D01*
X70361447Y-80928124D01*
X70380443Y-80917971D01*
X70401062Y-80911716D01*
X70428640Y-80909000D01*
X70887360Y-80909000D01*
X70914938Y-80911716D01*
G37*
G36*
X70314938Y-79832216D02*
G01*
X70335557Y-79838471D01*
X70354553Y-79848624D01*
X70371208Y-79862292D01*
X70384876Y-79878947D01*
X70395029Y-79897943D01*
X70401284Y-79918562D01*
X70404000Y-79946140D01*
X70404000Y-80454860D01*
X70401284Y-80482438D01*
X70395029Y-80503057D01*
X70384876Y-80522053D01*
X70371208Y-80538708D01*
X70354553Y-80552376D01*
X70335557Y-80562529D01*
X70314938Y-80568784D01*
X70287360Y-80571500D01*
X69828640Y-80571500D01*
X69801062Y-80568784D01*
X69780443Y-80562529D01*
X69761447Y-80552376D01*
X69744792Y-80538708D01*
X69731124Y-80522053D01*
X69720971Y-80503057D01*
X69714716Y-80482438D01*
X69712000Y-80454860D01*
X69712000Y-79946140D01*
X69714716Y-79918562D01*
X69720971Y-79897943D01*
X69731124Y-79878947D01*
X69744792Y-79862292D01*
X69761447Y-79848624D01*
X69780443Y-79838471D01*
X69801062Y-79832216D01*
X69828640Y-79829500D01*
X70287360Y-79829500D01*
X70314938Y-79832216D01*
G37*
G36*
X69344938Y-79832216D02*
G01*
X69365557Y-79838471D01*
X69384553Y-79848624D01*
X69401208Y-79862292D01*
X69414876Y-79878947D01*
X69425029Y-79897943D01*
X69431284Y-79918562D01*
X69434000Y-79946140D01*
X69434000Y-80454860D01*
X69431284Y-80482438D01*
X69425029Y-80503057D01*
X69414876Y-80522053D01*
X69401208Y-80538708D01*
X69384553Y-80552376D01*
X69365557Y-80562529D01*
X69344938Y-80568784D01*
X69317360Y-80571500D01*
X68858640Y-80571500D01*
X68831062Y-80568784D01*
X68810443Y-80562529D01*
X68791447Y-80552376D01*
X68774792Y-80538708D01*
X68761124Y-80522053D01*
X68750971Y-80503057D01*
X68744716Y-80482438D01*
X68742000Y-80454860D01*
X68742000Y-79946140D01*
X68744716Y-79918562D01*
X68750971Y-79897943D01*
X68761124Y-79878947D01*
X68774792Y-79862292D01*
X68791447Y-79848624D01*
X68810443Y-79838471D01*
X68831062Y-79832216D01*
X68858640Y-79829500D01*
X69317360Y-79829500D01*
X69344938Y-79832216D01*
G37*
G36*
X73426438Y-79832216D02*
G01*
X73447057Y-79838471D01*
X73466053Y-79848624D01*
X73482708Y-79862292D01*
X73496376Y-79878947D01*
X73506529Y-79897943D01*
X73512784Y-79918562D01*
X73515500Y-79946140D01*
X73515500Y-80454860D01*
X73512784Y-80482438D01*
X73506529Y-80503057D01*
X73496376Y-80522053D01*
X73482708Y-80538708D01*
X73466053Y-80552376D01*
X73447057Y-80562529D01*
X73426438Y-80568784D01*
X73398860Y-80571500D01*
X72940140Y-80571500D01*
X72912562Y-80568784D01*
X72891943Y-80562529D01*
X72872947Y-80552376D01*
X72856292Y-80538708D01*
X72842624Y-80522053D01*
X72832471Y-80503057D01*
X72826216Y-80482438D01*
X72823500Y-80454860D01*
X72823500Y-79946140D01*
X72826216Y-79918562D01*
X72832471Y-79897943D01*
X72842624Y-79878947D01*
X72856292Y-79862292D01*
X72872947Y-79848624D01*
X72891943Y-79838471D01*
X72912562Y-79832216D01*
X72940140Y-79829500D01*
X73398860Y-79829500D01*
X73426438Y-79832216D01*
G37*
G36*
X72456438Y-79832216D02*
G01*
X72477057Y-79838471D01*
X72496053Y-79848624D01*
X72512708Y-79862292D01*
X72526376Y-79878947D01*
X72536529Y-79897943D01*
X72542784Y-79918562D01*
X72545500Y-79946140D01*
X72545500Y-80454860D01*
X72542784Y-80482438D01*
X72536529Y-80503057D01*
X72526376Y-80522053D01*
X72512708Y-80538708D01*
X72496053Y-80552376D01*
X72477057Y-80562529D01*
X72456438Y-80568784D01*
X72428860Y-80571500D01*
X71970140Y-80571500D01*
X71942562Y-80568784D01*
X71921943Y-80562529D01*
X71902947Y-80552376D01*
X71886292Y-80538708D01*
X71872624Y-80522053D01*
X71862471Y-80503057D01*
X71856216Y-80482438D01*
X71853500Y-80454860D01*
X71853500Y-79946140D01*
X71856216Y-79918562D01*
X71862471Y-79897943D01*
X71872624Y-79878947D01*
X71886292Y-79862292D01*
X71902947Y-79848624D01*
X71921943Y-79838471D01*
X71942562Y-79832216D01*
X71970140Y-79829500D01*
X72428860Y-79829500D01*
X72456438Y-79832216D01*
G37*
G36*
X68290438Y-79857216D02*
G01*
X68311057Y-79863471D01*
X68330053Y-79873624D01*
X68346708Y-79887292D01*
X68360376Y-79903947D01*
X68370529Y-79922943D01*
X68376784Y-79943562D01*
X68379500Y-79971140D01*
X68379500Y-80429860D01*
X68376784Y-80457438D01*
X68370529Y-80478057D01*
X68360376Y-80497053D01*
X68346708Y-80513708D01*
X68330053Y-80527376D01*
X68311057Y-80537529D01*
X68290438Y-80543784D01*
X68262860Y-80546500D01*
X67754140Y-80546500D01*
X67726562Y-80543784D01*
X67705943Y-80537529D01*
X67686947Y-80527376D01*
X67670292Y-80513708D01*
X67656624Y-80497053D01*
X67646471Y-80478057D01*
X67640216Y-80457438D01*
X67637500Y-80429860D01*
X67637500Y-79971140D01*
X67640216Y-79943562D01*
X67646471Y-79922943D01*
X67656624Y-79903947D01*
X67670292Y-79887292D01*
X67686947Y-79873624D01*
X67705943Y-79863471D01*
X67726562Y-79857216D01*
X67754140Y-79854500D01*
X68262860Y-79854500D01*
X68290438Y-79857216D01*
G37*
G36*
X91351000Y-80251000D02*
G01*
X89549000Y-80251000D01*
X89549000Y-78449000D01*
X91351000Y-78449000D01*
X91351000Y-80251000D01*
G37*
G36*
X80403512Y-78453927D02*
G01*
X80552812Y-78483624D01*
X80716784Y-78551544D01*
X80864354Y-78650147D01*
X80989853Y-78775646D01*
X81088456Y-78923216D01*
X81156376Y-79087188D01*
X81191000Y-79261259D01*
X81191000Y-79438741D01*
X81156376Y-79612812D01*
X81088456Y-79776784D01*
X80989853Y-79924354D01*
X80864354Y-80049853D01*
X80716784Y-80148456D01*
X80552812Y-80216376D01*
X80403512Y-80246073D01*
X80378742Y-80251000D01*
X80201258Y-80251000D01*
X80176488Y-80246073D01*
X80027188Y-80216376D01*
X79863216Y-80148456D01*
X79715646Y-80049853D01*
X79590147Y-79924354D01*
X79491544Y-79776784D01*
X79423624Y-79612812D01*
X79389000Y-79438741D01*
X79389000Y-79261259D01*
X79423624Y-79087188D01*
X79491544Y-78923216D01*
X79590147Y-78775646D01*
X79715646Y-78650147D01*
X79863216Y-78551544D01*
X80027188Y-78483624D01*
X80176488Y-78453927D01*
X80201258Y-78449000D01*
X80378742Y-78449000D01*
X80403512Y-78453927D01*
G37*
G36*
X85483512Y-78453927D02*
G01*
X85632812Y-78483624D01*
X85796784Y-78551544D01*
X85944354Y-78650147D01*
X86069853Y-78775646D01*
X86168456Y-78923216D01*
X86236376Y-79087188D01*
X86271000Y-79261259D01*
X86271000Y-79438741D01*
X86236376Y-79612812D01*
X86168456Y-79776784D01*
X86069853Y-79924354D01*
X85944354Y-80049853D01*
X85796784Y-80148456D01*
X85632812Y-80216376D01*
X85483512Y-80246073D01*
X85458742Y-80251000D01*
X85281258Y-80251000D01*
X85256488Y-80246073D01*
X85107188Y-80216376D01*
X84943216Y-80148456D01*
X84795646Y-80049853D01*
X84670147Y-79924354D01*
X84571544Y-79776784D01*
X84503624Y-79612812D01*
X84469000Y-79438741D01*
X84469000Y-79261259D01*
X84503624Y-79087188D01*
X84571544Y-78923216D01*
X84670147Y-78775646D01*
X84795646Y-78650147D01*
X84943216Y-78551544D01*
X85107188Y-78483624D01*
X85256488Y-78453927D01*
X85281258Y-78449000D01*
X85458742Y-78449000D01*
X85483512Y-78453927D01*
G37*
G36*
X88023512Y-77953927D02*
G01*
X88172812Y-77983624D01*
X88336784Y-78051544D01*
X88484354Y-78150147D01*
X88609853Y-78275646D01*
X88708456Y-78423216D01*
X88776376Y-78587188D01*
X88811000Y-78761259D01*
X88811000Y-78938741D01*
X88776376Y-79112812D01*
X88708456Y-79276784D01*
X88609853Y-79424354D01*
X88484354Y-79549853D01*
X88336784Y-79648456D01*
X88172812Y-79716376D01*
X88023512Y-79746073D01*
X87998742Y-79751000D01*
X87821258Y-79751000D01*
X87796488Y-79746073D01*
X87647188Y-79716376D01*
X87483216Y-79648456D01*
X87335646Y-79549853D01*
X87210147Y-79424354D01*
X87111544Y-79276784D01*
X87043624Y-79112812D01*
X87009000Y-78938741D01*
X87009000Y-78761259D01*
X87043624Y-78587188D01*
X87111544Y-78423216D01*
X87210147Y-78275646D01*
X87335646Y-78150147D01*
X87483216Y-78051544D01*
X87647188Y-77983624D01*
X87796488Y-77953927D01*
X87821258Y-77949000D01*
X87998742Y-77949000D01*
X88023512Y-77953927D01*
G37*
G36*
X82943512Y-77953927D02*
G01*
X83092812Y-77983624D01*
X83256784Y-78051544D01*
X83404354Y-78150147D01*
X83529853Y-78275646D01*
X83628456Y-78423216D01*
X83696376Y-78587188D01*
X83731000Y-78761259D01*
X83731000Y-78938741D01*
X83696376Y-79112812D01*
X83628456Y-79276784D01*
X83529853Y-79424354D01*
X83404354Y-79549853D01*
X83256784Y-79648456D01*
X83092812Y-79716376D01*
X82943512Y-79746073D01*
X82918742Y-79751000D01*
X82741258Y-79751000D01*
X82716488Y-79746073D01*
X82567188Y-79716376D01*
X82403216Y-79648456D01*
X82255646Y-79549853D01*
X82130147Y-79424354D01*
X82031544Y-79276784D01*
X81963624Y-79112812D01*
X81929000Y-78938741D01*
X81929000Y-78761259D01*
X81963624Y-78587188D01*
X82031544Y-78423216D01*
X82130147Y-78275646D01*
X82255646Y-78150147D01*
X82403216Y-78051544D01*
X82567188Y-77983624D01*
X82716488Y-77953927D01*
X82741258Y-77949000D01*
X82918742Y-77949000D01*
X82943512Y-77953927D01*
G37*
G36*
X68290438Y-78887216D02*
G01*
X68311057Y-78893471D01*
X68330053Y-78903624D01*
X68346708Y-78917292D01*
X68360376Y-78933947D01*
X68370529Y-78952943D01*
X68376784Y-78973562D01*
X68379500Y-79001140D01*
X68379500Y-79459860D01*
X68376784Y-79487438D01*
X68370529Y-79508057D01*
X68360376Y-79527053D01*
X68346708Y-79543708D01*
X68330053Y-79557376D01*
X68311057Y-79567529D01*
X68290438Y-79573784D01*
X68262860Y-79576500D01*
X67754140Y-79576500D01*
X67726562Y-79573784D01*
X67705943Y-79567529D01*
X67686947Y-79557376D01*
X67670292Y-79543708D01*
X67656624Y-79527053D01*
X67646471Y-79508057D01*
X67640216Y-79487438D01*
X67637500Y-79459860D01*
X67637500Y-79001140D01*
X67640216Y-78973562D01*
X67646471Y-78952943D01*
X67656624Y-78933947D01*
X67670292Y-78917292D01*
X67686947Y-78903624D01*
X67705943Y-78893471D01*
X67726562Y-78887216D01*
X67754140Y-78884500D01*
X68262860Y-78884500D01*
X68290438Y-78887216D01*
G37*
G36*
X70322438Y-78795216D02*
G01*
X70343057Y-78801471D01*
X70362053Y-78811624D01*
X70378708Y-78825292D01*
X70392376Y-78841947D01*
X70402529Y-78860943D01*
X70408784Y-78881562D01*
X70411500Y-78909140D01*
X70411500Y-79367860D01*
X70408784Y-79395438D01*
X70402529Y-79416057D01*
X70392376Y-79435053D01*
X70378708Y-79451708D01*
X70362053Y-79465376D01*
X70343057Y-79475529D01*
X70322438Y-79481784D01*
X70294860Y-79484500D01*
X69786140Y-79484500D01*
X69758562Y-79481784D01*
X69737943Y-79475529D01*
X69718947Y-79465376D01*
X69702292Y-79451708D01*
X69688624Y-79435053D01*
X69678471Y-79416057D01*
X69672216Y-79395438D01*
X69669500Y-79367860D01*
X69669500Y-78909140D01*
X69672216Y-78881562D01*
X69678471Y-78860943D01*
X69688624Y-78841947D01*
X69702292Y-78825292D01*
X69718947Y-78811624D01*
X69737943Y-78801471D01*
X69758562Y-78795216D01*
X69786140Y-78792500D01*
X70294860Y-78792500D01*
X70322438Y-78795216D01*
G37*
G36*
X72481438Y-78795216D02*
G01*
X72502057Y-78801471D01*
X72521053Y-78811624D01*
X72537708Y-78825292D01*
X72551376Y-78841947D01*
X72561529Y-78860943D01*
X72567784Y-78881562D01*
X72570500Y-78909140D01*
X72570500Y-79367860D01*
X72567784Y-79395438D01*
X72561529Y-79416057D01*
X72551376Y-79435053D01*
X72537708Y-79451708D01*
X72521053Y-79465376D01*
X72502057Y-79475529D01*
X72481438Y-79481784D01*
X72453860Y-79484500D01*
X71945140Y-79484500D01*
X71917562Y-79481784D01*
X71896943Y-79475529D01*
X71877947Y-79465376D01*
X71861292Y-79451708D01*
X71847624Y-79435053D01*
X71837471Y-79416057D01*
X71831216Y-79395438D01*
X71828500Y-79367860D01*
X71828500Y-78909140D01*
X71831216Y-78881562D01*
X71837471Y-78860943D01*
X71847624Y-78841947D01*
X71861292Y-78825292D01*
X71877947Y-78811624D01*
X71896943Y-78801471D01*
X71917562Y-78795216D01*
X71945140Y-78792500D01*
X72453860Y-78792500D01*
X72481438Y-78795216D01*
G37*
G36*
X72481438Y-77825216D02*
G01*
X72502057Y-77831471D01*
X72521053Y-77841624D01*
X72537708Y-77855292D01*
X72551376Y-77871947D01*
X72561529Y-77890943D01*
X72567784Y-77911562D01*
X72570500Y-77939140D01*
X72570500Y-78397860D01*
X72567784Y-78425438D01*
X72561529Y-78446057D01*
X72551376Y-78465053D01*
X72537708Y-78481708D01*
X72521053Y-78495376D01*
X72502057Y-78505529D01*
X72481438Y-78511784D01*
X72453860Y-78514500D01*
X71945140Y-78514500D01*
X71917562Y-78511784D01*
X71896943Y-78505529D01*
X71877947Y-78495376D01*
X71861292Y-78481708D01*
X71847624Y-78465053D01*
X71837471Y-78446057D01*
X71831216Y-78425438D01*
X71828500Y-78397860D01*
X71828500Y-77939140D01*
X71831216Y-77911562D01*
X71837471Y-77890943D01*
X71847624Y-77871947D01*
X71861292Y-77855292D01*
X71877947Y-77841624D01*
X71896943Y-77831471D01*
X71917562Y-77825216D01*
X71945140Y-77822500D01*
X72453860Y-77822500D01*
X72481438Y-77825216D01*
G37*
G36*
X70322438Y-77825216D02*
G01*
X70343057Y-77831471D01*
X70362053Y-77841624D01*
X70378708Y-77855292D01*
X70392376Y-77871947D01*
X70402529Y-77890943D01*
X70408784Y-77911562D01*
X70411500Y-77939140D01*
X70411500Y-78397860D01*
X70408784Y-78425438D01*
X70402529Y-78446057D01*
X70392376Y-78465053D01*
X70378708Y-78481708D01*
X70362053Y-78495376D01*
X70343057Y-78505529D01*
X70322438Y-78511784D01*
X70294860Y-78514500D01*
X69786140Y-78514500D01*
X69758562Y-78511784D01*
X69737943Y-78505529D01*
X69718947Y-78495376D01*
X69702292Y-78481708D01*
X69688624Y-78465053D01*
X69678471Y-78446057D01*
X69672216Y-78425438D01*
X69669500Y-78397860D01*
X69669500Y-77939140D01*
X69672216Y-77911562D01*
X69678471Y-77890943D01*
X69688624Y-77871947D01*
X69702292Y-77855292D01*
X69718947Y-77841624D01*
X69737943Y-77831471D01*
X69758562Y-77825216D01*
X69786140Y-77822500D01*
X70294860Y-77822500D01*
X70322438Y-77825216D01*
G37*
G36*
X71401938Y-77802216D02*
G01*
X71422557Y-77808471D01*
X71441553Y-77818624D01*
X71458208Y-77832292D01*
X71471876Y-77848947D01*
X71482029Y-77867943D01*
X71488284Y-77888562D01*
X71491000Y-77916140D01*
X71491000Y-78374860D01*
X71488284Y-78402438D01*
X71482029Y-78423057D01*
X71471876Y-78442053D01*
X71458208Y-78458708D01*
X71441553Y-78472376D01*
X71422557Y-78482529D01*
X71401938Y-78488784D01*
X71374360Y-78491500D01*
X70865640Y-78491500D01*
X70838062Y-78488784D01*
X70817443Y-78482529D01*
X70798447Y-78472376D01*
X70781792Y-78458708D01*
X70768124Y-78442053D01*
X70757971Y-78423057D01*
X70751716Y-78402438D01*
X70749000Y-78374860D01*
X70749000Y-77916140D01*
X70751716Y-77888562D01*
X70757971Y-77867943D01*
X70768124Y-77848947D01*
X70781792Y-77832292D01*
X70798447Y-77818624D01*
X70817443Y-77808471D01*
X70838062Y-77802216D01*
X70865640Y-77799500D01*
X71374360Y-77799500D01*
X71401938Y-77802216D01*
G37*
G36*
X72415938Y-76784216D02*
G01*
X72436557Y-76790471D01*
X72455553Y-76800624D01*
X72472208Y-76814292D01*
X72485876Y-76830947D01*
X72496029Y-76849943D01*
X72502284Y-76870562D01*
X72505000Y-76898140D01*
X72505000Y-77406860D01*
X72502284Y-77434438D01*
X72496029Y-77455057D01*
X72485876Y-77474053D01*
X72472208Y-77490708D01*
X72455553Y-77504376D01*
X72436557Y-77514529D01*
X72415938Y-77520784D01*
X72388360Y-77523500D01*
X71929640Y-77523500D01*
X71902062Y-77520784D01*
X71881443Y-77514529D01*
X71862447Y-77504376D01*
X71845792Y-77490708D01*
X71832124Y-77474053D01*
X71821971Y-77455057D01*
X71815716Y-77434438D01*
X71813000Y-77406860D01*
X71813000Y-76898140D01*
X71815716Y-76870562D01*
X71821971Y-76849943D01*
X71832124Y-76830947D01*
X71845792Y-76814292D01*
X71862447Y-76800624D01*
X71881443Y-76790471D01*
X71902062Y-76784216D01*
X71929640Y-76781500D01*
X72388360Y-76781500D01*
X72415938Y-76784216D01*
G37*
G36*
X70332438Y-76784216D02*
G01*
X70353057Y-76790471D01*
X70372053Y-76800624D01*
X70388708Y-76814292D01*
X70402376Y-76830947D01*
X70412529Y-76849943D01*
X70418784Y-76870562D01*
X70421500Y-76898140D01*
X70421500Y-77406860D01*
X70418784Y-77434438D01*
X70412529Y-77455057D01*
X70402376Y-77474053D01*
X70388708Y-77490708D01*
X70372053Y-77504376D01*
X70353057Y-77514529D01*
X70332438Y-77520784D01*
X70304860Y-77523500D01*
X69846140Y-77523500D01*
X69818562Y-77520784D01*
X69797943Y-77514529D01*
X69778947Y-77504376D01*
X69762292Y-77490708D01*
X69748624Y-77474053D01*
X69738471Y-77455057D01*
X69732216Y-77434438D01*
X69729500Y-77406860D01*
X69729500Y-76898140D01*
X69732216Y-76870562D01*
X69738471Y-76849943D01*
X69748624Y-76830947D01*
X69762292Y-76814292D01*
X69778947Y-76800624D01*
X69797943Y-76790471D01*
X69818562Y-76784216D01*
X69846140Y-76781500D01*
X70304860Y-76781500D01*
X70332438Y-76784216D01*
G37*
G36*
X73385938Y-76784216D02*
G01*
X73406557Y-76790471D01*
X73425553Y-76800624D01*
X73442208Y-76814292D01*
X73455876Y-76830947D01*
X73466029Y-76849943D01*
X73472284Y-76870562D01*
X73475000Y-76898140D01*
X73475000Y-77406860D01*
X73472284Y-77434438D01*
X73466029Y-77455057D01*
X73455876Y-77474053D01*
X73442208Y-77490708D01*
X73425553Y-77504376D01*
X73406557Y-77514529D01*
X73385938Y-77520784D01*
X73358360Y-77523500D01*
X72899640Y-77523500D01*
X72872062Y-77520784D01*
X72851443Y-77514529D01*
X72832447Y-77504376D01*
X72815792Y-77490708D01*
X72802124Y-77474053D01*
X72791971Y-77455057D01*
X72785716Y-77434438D01*
X72783000Y-77406860D01*
X72783000Y-76898140D01*
X72785716Y-76870562D01*
X72791971Y-76849943D01*
X72802124Y-76830947D01*
X72815792Y-76814292D01*
X72832447Y-76800624D01*
X72851443Y-76790471D01*
X72872062Y-76784216D01*
X72899640Y-76781500D01*
X73358360Y-76781500D01*
X73385938Y-76784216D01*
G37*
G36*
X69362438Y-76784216D02*
G01*
X69383057Y-76790471D01*
X69402053Y-76800624D01*
X69418708Y-76814292D01*
X69432376Y-76830947D01*
X69442529Y-76849943D01*
X69448784Y-76870562D01*
X69451500Y-76898140D01*
X69451500Y-77406860D01*
X69448784Y-77434438D01*
X69442529Y-77455057D01*
X69432376Y-77474053D01*
X69418708Y-77490708D01*
X69402053Y-77504376D01*
X69383057Y-77514529D01*
X69362438Y-77520784D01*
X69334860Y-77523500D01*
X68876140Y-77523500D01*
X68848562Y-77520784D01*
X68827943Y-77514529D01*
X68808947Y-77504376D01*
X68792292Y-77490708D01*
X68778624Y-77474053D01*
X68768471Y-77455057D01*
X68762216Y-77434438D01*
X68759500Y-77406860D01*
X68759500Y-76898140D01*
X68762216Y-76870562D01*
X68768471Y-76849943D01*
X68778624Y-76830947D01*
X68792292Y-76814292D01*
X68808947Y-76800624D01*
X68827943Y-76790471D01*
X68848562Y-76784216D01*
X68876140Y-76781500D01*
X69334860Y-76781500D01*
X69362438Y-76784216D01*
G37*
G36*
X71401938Y-76832216D02*
G01*
X71422557Y-76838471D01*
X71441553Y-76848624D01*
X71458208Y-76862292D01*
X71471876Y-76878947D01*
X71482029Y-76897943D01*
X71488284Y-76918562D01*
X71491000Y-76946140D01*
X71491000Y-77404860D01*
X71488284Y-77432438D01*
X71482029Y-77453057D01*
X71471876Y-77472053D01*
X71458208Y-77488708D01*
X71441553Y-77502376D01*
X71422557Y-77512529D01*
X71401938Y-77518784D01*
X71374360Y-77521500D01*
X70865640Y-77521500D01*
X70838062Y-77518784D01*
X70817443Y-77512529D01*
X70798447Y-77502376D01*
X70781792Y-77488708D01*
X70768124Y-77472053D01*
X70757971Y-77453057D01*
X70751716Y-77432438D01*
X70749000Y-77404860D01*
X70749000Y-76946140D01*
X70751716Y-76918562D01*
X70757971Y-76897943D01*
X70768124Y-76878947D01*
X70781792Y-76862292D01*
X70798447Y-76848624D01*
X70817443Y-76838471D01*
X70838062Y-76832216D01*
X70865640Y-76829500D01*
X71374360Y-76829500D01*
X71401938Y-76832216D01*
G37*
G36*
X67691000Y-76453000D02*
G01*
X66089000Y-76453000D01*
X66089000Y-73827000D01*
X67691000Y-73827000D01*
X67691000Y-76453000D01*
G37*
G36*
X72091000Y-76453000D02*
G01*
X70489000Y-76453000D01*
X70489000Y-73827000D01*
X72091000Y-73827000D01*
X72091000Y-76453000D01*
G37*
G36*
X69741000Y-76453000D02*
G01*
X68439000Y-76453000D01*
X68439000Y-73827000D01*
X69741000Y-73827000D01*
X69741000Y-76453000D01*
G37*
G36*
X81321000Y-73661000D02*
G01*
X79219000Y-73661000D01*
X79219000Y-69559000D01*
X81321000Y-69559000D01*
X81321000Y-73661000D01*
G37*
G36*
X91481000Y-73661000D02*
G01*
X89379000Y-73661000D01*
X89379000Y-69559000D01*
X91481000Y-69559000D01*
X91481000Y-73661000D01*
G37*
G36*
X88941000Y-73661000D02*
G01*
X86839000Y-73661000D01*
X86839000Y-69559000D01*
X88941000Y-69559000D01*
X88941000Y-73661000D01*
G37*
G36*
X86401000Y-73661000D02*
G01*
X84299000Y-73661000D01*
X84299000Y-69559000D01*
X86401000Y-69559000D01*
X86401000Y-73661000D01*
G37*
G36*
X83861000Y-73661000D02*
G01*
X81759000Y-73661000D01*
X81759000Y-69559000D01*
X83861000Y-69559000D01*
X83861000Y-73661000D01*
G37*
G36*
X69426564Y-71129389D02*
G01*
X69617833Y-71208615D01*
X69617835Y-71208616D01*
X69789973Y-71323635D01*
X69936365Y-71470027D01*
X70051385Y-71642167D01*
X70130611Y-71833436D01*
X70171000Y-72036484D01*
X70171000Y-72243516D01*
X70130611Y-72446564D01*
X70051385Y-72637833D01*
X70051384Y-72637835D01*
X69936365Y-72809973D01*
X69789973Y-72956365D01*
X69617835Y-73071384D01*
X69617834Y-73071385D01*
X69617833Y-73071385D01*
X69426564Y-73150611D01*
X69223516Y-73191000D01*
X69016484Y-73191000D01*
X68813436Y-73150611D01*
X68622167Y-73071385D01*
X68622166Y-73071385D01*
X68622165Y-73071384D01*
X68450027Y-72956365D01*
X68303635Y-72809973D01*
X68188616Y-72637835D01*
X68188615Y-72637833D01*
X68109389Y-72446564D01*
X68069000Y-72243516D01*
X68069000Y-72036484D01*
X68109389Y-71833436D01*
X68188615Y-71642167D01*
X68303635Y-71470027D01*
X68450027Y-71323635D01*
X68622165Y-71208616D01*
X68622167Y-71208615D01*
X68813436Y-71129389D01*
X69016484Y-71089000D01*
X69223516Y-71089000D01*
X69426564Y-71129389D01*
G37*
M02*
