G04 #@! TF.GenerationSoftware,KiCad,Pcbnew,(5.1.5)-3*
G04 #@! TF.CreationDate,2020-04-01T21:27:10+02:00*
G04 #@! TF.ProjectId,RHS_3,5248535f-332e-46b6-9963-61645f706362,rev?*
G04 #@! TF.SameCoordinates,Original*
G04 #@! TF.FileFunction,Soldermask,Top*
G04 #@! TF.FilePolarity,Negative*
%FSLAX46Y46*%
G04 Gerber Fmt 4.6, Leading zero omitted, Abs format (unit mm)*
G04 Created by KiCad (PCBNEW (5.1.5)-3) date 2020-04-01 21:27:10*
%MOMM*%
%LPD*%
G04 APERTURE LIST*
%ADD10C,0.100000*%
G04 APERTURE END LIST*
D10*
G36*
X68601000Y-130213000D02*
G01*
X66999000Y-130213000D01*
X66999000Y-127587000D01*
X68601000Y-127587000D01*
X68601000Y-130213000D01*
G37*
G36*
X73001000Y-130213000D02*
G01*
X71399000Y-130213000D01*
X71399000Y-127587000D01*
X73001000Y-127587000D01*
X73001000Y-130213000D01*
G37*
G36*
X70651000Y-130213000D02*
G01*
X69349000Y-130213000D01*
X69349000Y-127587000D01*
X70651000Y-127587000D01*
X70651000Y-130213000D01*
G37*
G36*
X80963674Y-128553465D02*
G01*
X81001367Y-128564899D01*
X81036103Y-128583466D01*
X81066548Y-128608452D01*
X81091534Y-128638897D01*
X81110101Y-128673633D01*
X81121535Y-128711326D01*
X81126000Y-128756661D01*
X81126000Y-129593339D01*
X81121535Y-129638674D01*
X81110101Y-129676367D01*
X81091534Y-129711103D01*
X81066548Y-129741548D01*
X81036103Y-129766534D01*
X81001367Y-129785101D01*
X80963674Y-129796535D01*
X80918339Y-129801000D01*
X79831661Y-129801000D01*
X79786326Y-129796535D01*
X79748633Y-129785101D01*
X79713897Y-129766534D01*
X79683452Y-129741548D01*
X79658466Y-129711103D01*
X79639899Y-129676367D01*
X79628465Y-129638674D01*
X79624000Y-129593339D01*
X79624000Y-128756661D01*
X79628465Y-128711326D01*
X79639899Y-128673633D01*
X79658466Y-128638897D01*
X79683452Y-128608452D01*
X79713897Y-128583466D01*
X79748633Y-128564899D01*
X79786326Y-128553465D01*
X79831661Y-128549000D01*
X80918339Y-128549000D01*
X80963674Y-128553465D01*
G37*
G36*
X83251000Y-128876000D02*
G01*
X82149000Y-128876000D01*
X82149000Y-126774000D01*
X83251000Y-126774000D01*
X83251000Y-128876000D01*
G37*
G36*
X61688674Y-127628465D02*
G01*
X61726367Y-127639899D01*
X61761103Y-127658466D01*
X61791548Y-127683452D01*
X61816534Y-127713897D01*
X61835101Y-127748633D01*
X61846535Y-127786326D01*
X61851000Y-127831661D01*
X61851000Y-128668339D01*
X61846535Y-128713674D01*
X61835101Y-128751367D01*
X61816534Y-128786103D01*
X61791548Y-128816548D01*
X61761103Y-128841534D01*
X61726367Y-128860101D01*
X61688674Y-128871535D01*
X61643339Y-128876000D01*
X60556661Y-128876000D01*
X60511326Y-128871535D01*
X60473633Y-128860101D01*
X60438897Y-128841534D01*
X60408452Y-128816548D01*
X60383466Y-128786103D01*
X60364899Y-128751367D01*
X60353465Y-128713674D01*
X60349000Y-128668339D01*
X60349000Y-127831661D01*
X60353465Y-127786326D01*
X60364899Y-127748633D01*
X60383466Y-127713897D01*
X60408452Y-127683452D01*
X60438897Y-127658466D01*
X60473633Y-127639899D01*
X60511326Y-127628465D01*
X60556661Y-127624000D01*
X61643339Y-127624000D01*
X61688674Y-127628465D01*
G37*
G36*
X88251000Y-128876000D02*
G01*
X87149000Y-128876000D01*
X87149000Y-126774000D01*
X88251000Y-126774000D01*
X88251000Y-128876000D01*
G37*
G36*
X80963674Y-126503465D02*
G01*
X81001367Y-126514899D01*
X81036103Y-126533466D01*
X81066548Y-126558452D01*
X81091534Y-126588897D01*
X81110101Y-126623633D01*
X81121535Y-126661326D01*
X81126000Y-126706661D01*
X81126000Y-127543339D01*
X81121535Y-127588674D01*
X81110101Y-127626367D01*
X81091534Y-127661103D01*
X81066548Y-127691548D01*
X81036103Y-127716534D01*
X81001367Y-127735101D01*
X80963674Y-127746535D01*
X80918339Y-127751000D01*
X79831661Y-127751000D01*
X79786326Y-127746535D01*
X79748633Y-127735101D01*
X79713897Y-127716534D01*
X79683452Y-127691548D01*
X79658466Y-127661103D01*
X79639899Y-127626367D01*
X79628465Y-127588674D01*
X79624000Y-127543339D01*
X79624000Y-126706661D01*
X79628465Y-126661326D01*
X79639899Y-126623633D01*
X79658466Y-126588897D01*
X79683452Y-126558452D01*
X79713897Y-126533466D01*
X79748633Y-126514899D01*
X79786326Y-126503465D01*
X79831661Y-126499000D01*
X80918339Y-126499000D01*
X80963674Y-126503465D01*
G37*
G36*
X61688674Y-125578465D02*
G01*
X61726367Y-125589899D01*
X61761103Y-125608466D01*
X61791548Y-125633452D01*
X61816534Y-125663897D01*
X61835101Y-125698633D01*
X61846535Y-125736326D01*
X61851000Y-125781661D01*
X61851000Y-126618339D01*
X61846535Y-126663674D01*
X61835101Y-126701367D01*
X61816534Y-126736103D01*
X61791548Y-126766548D01*
X61761103Y-126791534D01*
X61726367Y-126810101D01*
X61688674Y-126821535D01*
X61643339Y-126826000D01*
X60556661Y-126826000D01*
X60511326Y-126821535D01*
X60473633Y-126810101D01*
X60438897Y-126791534D01*
X60408452Y-126766548D01*
X60383466Y-126736103D01*
X60364899Y-126701367D01*
X60353465Y-126663674D01*
X60349000Y-126618339D01*
X60349000Y-125781661D01*
X60353465Y-125736326D01*
X60364899Y-125698633D01*
X60383466Y-125663897D01*
X60408452Y-125633452D01*
X60438897Y-125608466D01*
X60473633Y-125589899D01*
X60511326Y-125578465D01*
X60556661Y-125574000D01*
X61643339Y-125574000D01*
X61688674Y-125578465D01*
G37*
G36*
X81501000Y-126076000D02*
G01*
X79599000Y-126076000D01*
X79599000Y-124974000D01*
X81501000Y-124974000D01*
X81501000Y-126076000D01*
G37*
G36*
X88226000Y-125351000D02*
G01*
X87124000Y-125351000D01*
X87124000Y-123249000D01*
X88226000Y-123249000D01*
X88226000Y-125351000D01*
G37*
G36*
X83226000Y-125351000D02*
G01*
X82124000Y-125351000D01*
X82124000Y-123249000D01*
X83226000Y-123249000D01*
X83226000Y-125351000D01*
G37*
G36*
X61713674Y-123778465D02*
G01*
X61751367Y-123789899D01*
X61786103Y-123808466D01*
X61816548Y-123833452D01*
X61841534Y-123863897D01*
X61860101Y-123898633D01*
X61871535Y-123936326D01*
X61876000Y-123981661D01*
X61876000Y-124818339D01*
X61871535Y-124863674D01*
X61860101Y-124901367D01*
X61841534Y-124936103D01*
X61816548Y-124966548D01*
X61786103Y-124991534D01*
X61751367Y-125010101D01*
X61713674Y-125021535D01*
X61668339Y-125026000D01*
X60581661Y-125026000D01*
X60536326Y-125021535D01*
X60498633Y-125010101D01*
X60463897Y-124991534D01*
X60433452Y-124966548D01*
X60408466Y-124936103D01*
X60389899Y-124901367D01*
X60378465Y-124863674D01*
X60374000Y-124818339D01*
X60374000Y-123981661D01*
X60378465Y-123936326D01*
X60389899Y-123898633D01*
X60408466Y-123863897D01*
X60433452Y-123833452D01*
X60463897Y-123808466D01*
X60498633Y-123789899D01*
X60536326Y-123778465D01*
X60581661Y-123774000D01*
X61668339Y-123774000D01*
X61713674Y-123778465D01*
G37*
G36*
X81501000Y-123576000D02*
G01*
X79599000Y-123576000D01*
X79599000Y-122474000D01*
X81501000Y-122474000D01*
X81501000Y-123576000D01*
G37*
G36*
X61713674Y-121728465D02*
G01*
X61751367Y-121739899D01*
X61786103Y-121758466D01*
X61816548Y-121783452D01*
X61841534Y-121813897D01*
X61860101Y-121848633D01*
X61871535Y-121886326D01*
X61876000Y-121931661D01*
X61876000Y-122768339D01*
X61871535Y-122813674D01*
X61860101Y-122851367D01*
X61841534Y-122886103D01*
X61816548Y-122916548D01*
X61786103Y-122941534D01*
X61751367Y-122960101D01*
X61713674Y-122971535D01*
X61668339Y-122976000D01*
X60581661Y-122976000D01*
X60536326Y-122971535D01*
X60498633Y-122960101D01*
X60463897Y-122941534D01*
X60433452Y-122916548D01*
X60408466Y-122886103D01*
X60389899Y-122851367D01*
X60378465Y-122813674D01*
X60374000Y-122768339D01*
X60374000Y-121931661D01*
X60378465Y-121886326D01*
X60389899Y-121848633D01*
X60408466Y-121813897D01*
X60433452Y-121783452D01*
X60463897Y-121758466D01*
X60498633Y-121739899D01*
X60536326Y-121728465D01*
X60581661Y-121724000D01*
X61668339Y-121724000D01*
X61713674Y-121728465D01*
G37*
G36*
X80938674Y-120828465D02*
G01*
X80976367Y-120839899D01*
X81011103Y-120858466D01*
X81041548Y-120883452D01*
X81066534Y-120913897D01*
X81085101Y-120948633D01*
X81096535Y-120986326D01*
X81101000Y-121031661D01*
X81101000Y-121868339D01*
X81096535Y-121913674D01*
X81085101Y-121951367D01*
X81066534Y-121986103D01*
X81041548Y-122016548D01*
X81011103Y-122041534D01*
X80976367Y-122060101D01*
X80938674Y-122071535D01*
X80893339Y-122076000D01*
X79806661Y-122076000D01*
X79761326Y-122071535D01*
X79723633Y-122060101D01*
X79688897Y-122041534D01*
X79658452Y-122016548D01*
X79633466Y-121986103D01*
X79614899Y-121951367D01*
X79603465Y-121913674D01*
X79599000Y-121868339D01*
X79599000Y-121031661D01*
X79603465Y-120986326D01*
X79614899Y-120948633D01*
X79633466Y-120913897D01*
X79658452Y-120883452D01*
X79688897Y-120858466D01*
X79723633Y-120839899D01*
X79761326Y-120828465D01*
X79806661Y-120824000D01*
X80893339Y-120824000D01*
X80938674Y-120828465D01*
G37*
G36*
X89726000Y-121701000D02*
G01*
X83474000Y-121701000D01*
X83474000Y-119999000D01*
X89726000Y-119999000D01*
X89726000Y-121701000D01*
G37*
G36*
X61713674Y-120028465D02*
G01*
X61751367Y-120039899D01*
X61786103Y-120058466D01*
X61816548Y-120083452D01*
X61841534Y-120113897D01*
X61860101Y-120148633D01*
X61871535Y-120186326D01*
X61876000Y-120231661D01*
X61876000Y-121068339D01*
X61871535Y-121113674D01*
X61860101Y-121151367D01*
X61841534Y-121186103D01*
X61816548Y-121216548D01*
X61786103Y-121241534D01*
X61751367Y-121260101D01*
X61713674Y-121271535D01*
X61668339Y-121276000D01*
X60581661Y-121276000D01*
X60536326Y-121271535D01*
X60498633Y-121260101D01*
X60463897Y-121241534D01*
X60433452Y-121216548D01*
X60408466Y-121186103D01*
X60389899Y-121151367D01*
X60378465Y-121113674D01*
X60374000Y-121068339D01*
X60374000Y-120231661D01*
X60378465Y-120186326D01*
X60389899Y-120148633D01*
X60408466Y-120113897D01*
X60433452Y-120083452D01*
X60463897Y-120058466D01*
X60498633Y-120039899D01*
X60536326Y-120028465D01*
X60581661Y-120024000D01*
X61668339Y-120024000D01*
X61713674Y-120028465D01*
G37*
G36*
X80938674Y-118778465D02*
G01*
X80976367Y-118789899D01*
X81011103Y-118808466D01*
X81041548Y-118833452D01*
X81066534Y-118863897D01*
X81085101Y-118898633D01*
X81096535Y-118936326D01*
X81101000Y-118981661D01*
X81101000Y-119818339D01*
X81096535Y-119863674D01*
X81085101Y-119901367D01*
X81066534Y-119936103D01*
X81041548Y-119966548D01*
X81011103Y-119991534D01*
X80976367Y-120010101D01*
X80938674Y-120021535D01*
X80893339Y-120026000D01*
X79806661Y-120026000D01*
X79761326Y-120021535D01*
X79723633Y-120010101D01*
X79688897Y-119991534D01*
X79658452Y-119966548D01*
X79633466Y-119936103D01*
X79614899Y-119901367D01*
X79603465Y-119863674D01*
X79599000Y-119818339D01*
X79599000Y-118981661D01*
X79603465Y-118936326D01*
X79614899Y-118898633D01*
X79633466Y-118863897D01*
X79658452Y-118833452D01*
X79688897Y-118808466D01*
X79723633Y-118789899D01*
X79761326Y-118778465D01*
X79806661Y-118774000D01*
X80893339Y-118774000D01*
X80938674Y-118778465D01*
G37*
G36*
X91701000Y-119726000D02*
G01*
X89999000Y-119726000D01*
X89999000Y-113474000D01*
X91701000Y-113474000D01*
X91701000Y-119726000D01*
G37*
G36*
X83201000Y-119726000D02*
G01*
X81499000Y-119726000D01*
X81499000Y-113474000D01*
X83201000Y-113474000D01*
X83201000Y-119726000D01*
G37*
G36*
X61713674Y-117978465D02*
G01*
X61751367Y-117989899D01*
X61786103Y-118008466D01*
X61816548Y-118033452D01*
X61841534Y-118063897D01*
X61860101Y-118098633D01*
X61871535Y-118136326D01*
X61876000Y-118181661D01*
X61876000Y-119018339D01*
X61871535Y-119063674D01*
X61860101Y-119101367D01*
X61841534Y-119136103D01*
X61816548Y-119166548D01*
X61786103Y-119191534D01*
X61751367Y-119210101D01*
X61713674Y-119221535D01*
X61668339Y-119226000D01*
X60581661Y-119226000D01*
X60536326Y-119221535D01*
X60498633Y-119210101D01*
X60463897Y-119191534D01*
X60433452Y-119166548D01*
X60408466Y-119136103D01*
X60389899Y-119101367D01*
X60378465Y-119063674D01*
X60374000Y-119018339D01*
X60374000Y-118181661D01*
X60378465Y-118136326D01*
X60389899Y-118098633D01*
X60408466Y-118063897D01*
X60433452Y-118033452D01*
X60463897Y-118008466D01*
X60498633Y-117989899D01*
X60536326Y-117978465D01*
X60581661Y-117974000D01*
X61668339Y-117974000D01*
X61713674Y-117978465D01*
G37*
G36*
X80938674Y-116828465D02*
G01*
X80976367Y-116839899D01*
X81011103Y-116858466D01*
X81041548Y-116883452D01*
X81066534Y-116913897D01*
X81085101Y-116948633D01*
X81096535Y-116986326D01*
X81101000Y-117031661D01*
X81101000Y-117868339D01*
X81096535Y-117913674D01*
X81085101Y-117951367D01*
X81066534Y-117986103D01*
X81041548Y-118016548D01*
X81011103Y-118041534D01*
X80976367Y-118060101D01*
X80938674Y-118071535D01*
X80893339Y-118076000D01*
X79806661Y-118076000D01*
X79761326Y-118071535D01*
X79723633Y-118060101D01*
X79688897Y-118041534D01*
X79658452Y-118016548D01*
X79633466Y-117986103D01*
X79614899Y-117951367D01*
X79603465Y-117913674D01*
X79599000Y-117868339D01*
X79599000Y-117031661D01*
X79603465Y-116986326D01*
X79614899Y-116948633D01*
X79633466Y-116913897D01*
X79658452Y-116883452D01*
X79688897Y-116858466D01*
X79723633Y-116839899D01*
X79761326Y-116828465D01*
X79806661Y-116824000D01*
X80893339Y-116824000D01*
X80938674Y-116828465D01*
G37*
G36*
X61713674Y-116303465D02*
G01*
X61751367Y-116314899D01*
X61786103Y-116333466D01*
X61816548Y-116358452D01*
X61841534Y-116388897D01*
X61860101Y-116423633D01*
X61871535Y-116461326D01*
X61876000Y-116506661D01*
X61876000Y-117343339D01*
X61871535Y-117388674D01*
X61860101Y-117426367D01*
X61841534Y-117461103D01*
X61816548Y-117491548D01*
X61786103Y-117516534D01*
X61751367Y-117535101D01*
X61713674Y-117546535D01*
X61668339Y-117551000D01*
X60581661Y-117551000D01*
X60536326Y-117546535D01*
X60498633Y-117535101D01*
X60463897Y-117516534D01*
X60433452Y-117491548D01*
X60408466Y-117461103D01*
X60389899Y-117426367D01*
X60378465Y-117388674D01*
X60374000Y-117343339D01*
X60374000Y-116506661D01*
X60378465Y-116461326D01*
X60389899Y-116423633D01*
X60408466Y-116388897D01*
X60433452Y-116358452D01*
X60463897Y-116333466D01*
X60498633Y-116314899D01*
X60536326Y-116303465D01*
X60581661Y-116299000D01*
X61668339Y-116299000D01*
X61713674Y-116303465D01*
G37*
G36*
X93438674Y-115078465D02*
G01*
X93476367Y-115089899D01*
X93511103Y-115108466D01*
X93541548Y-115133452D01*
X93566534Y-115163897D01*
X93585101Y-115198633D01*
X93596535Y-115236326D01*
X93601000Y-115281661D01*
X93601000Y-116118339D01*
X93596535Y-116163674D01*
X93585101Y-116201367D01*
X93566534Y-116236103D01*
X93541548Y-116266548D01*
X93511103Y-116291534D01*
X93476367Y-116310101D01*
X93438674Y-116321535D01*
X93393339Y-116326000D01*
X92306661Y-116326000D01*
X92261326Y-116321535D01*
X92223633Y-116310101D01*
X92188897Y-116291534D01*
X92158452Y-116266548D01*
X92133466Y-116236103D01*
X92114899Y-116201367D01*
X92103465Y-116163674D01*
X92099000Y-116118339D01*
X92099000Y-115281661D01*
X92103465Y-115236326D01*
X92114899Y-115198633D01*
X92133466Y-115163897D01*
X92158452Y-115133452D01*
X92188897Y-115108466D01*
X92223633Y-115089899D01*
X92261326Y-115078465D01*
X92306661Y-115074000D01*
X93393339Y-115074000D01*
X93438674Y-115078465D01*
G37*
G36*
X80938674Y-114778465D02*
G01*
X80976367Y-114789899D01*
X81011103Y-114808466D01*
X81041548Y-114833452D01*
X81066534Y-114863897D01*
X81085101Y-114898633D01*
X81096535Y-114936326D01*
X81101000Y-114981661D01*
X81101000Y-115818339D01*
X81096535Y-115863674D01*
X81085101Y-115901367D01*
X81066534Y-115936103D01*
X81041548Y-115966548D01*
X81011103Y-115991534D01*
X80976367Y-116010101D01*
X80938674Y-116021535D01*
X80893339Y-116026000D01*
X79806661Y-116026000D01*
X79761326Y-116021535D01*
X79723633Y-116010101D01*
X79688897Y-115991534D01*
X79658452Y-115966548D01*
X79633466Y-115936103D01*
X79614899Y-115901367D01*
X79603465Y-115863674D01*
X79599000Y-115818339D01*
X79599000Y-114981661D01*
X79603465Y-114936326D01*
X79614899Y-114898633D01*
X79633466Y-114863897D01*
X79658452Y-114833452D01*
X79688897Y-114808466D01*
X79723633Y-114789899D01*
X79761326Y-114778465D01*
X79806661Y-114774000D01*
X80893339Y-114774000D01*
X80938674Y-114778465D01*
G37*
G36*
X61713674Y-114253465D02*
G01*
X61751367Y-114264899D01*
X61786103Y-114283466D01*
X61816548Y-114308452D01*
X61841534Y-114338897D01*
X61860101Y-114373633D01*
X61871535Y-114411326D01*
X61876000Y-114456661D01*
X61876000Y-115293339D01*
X61871535Y-115338674D01*
X61860101Y-115376367D01*
X61841534Y-115411103D01*
X61816548Y-115441548D01*
X61786103Y-115466534D01*
X61751367Y-115485101D01*
X61713674Y-115496535D01*
X61668339Y-115501000D01*
X60581661Y-115501000D01*
X60536326Y-115496535D01*
X60498633Y-115485101D01*
X60463897Y-115466534D01*
X60433452Y-115441548D01*
X60408466Y-115411103D01*
X60389899Y-115376367D01*
X60378465Y-115338674D01*
X60374000Y-115293339D01*
X60374000Y-114456661D01*
X60378465Y-114411326D01*
X60389899Y-114373633D01*
X60408466Y-114338897D01*
X60433452Y-114308452D01*
X60463897Y-114283466D01*
X60498633Y-114264899D01*
X60536326Y-114253465D01*
X60581661Y-114249000D01*
X61668339Y-114249000D01*
X61713674Y-114253465D01*
G37*
G36*
X93438674Y-113028465D02*
G01*
X93476367Y-113039899D01*
X93511103Y-113058466D01*
X93541548Y-113083452D01*
X93566534Y-113113897D01*
X93585101Y-113148633D01*
X93596535Y-113186326D01*
X93601000Y-113231661D01*
X93601000Y-114068339D01*
X93596535Y-114113674D01*
X93585101Y-114151367D01*
X93566534Y-114186103D01*
X93541548Y-114216548D01*
X93511103Y-114241534D01*
X93476367Y-114260101D01*
X93438674Y-114271535D01*
X93393339Y-114276000D01*
X92306661Y-114276000D01*
X92261326Y-114271535D01*
X92223633Y-114260101D01*
X92188897Y-114241534D01*
X92158452Y-114216548D01*
X92133466Y-114186103D01*
X92114899Y-114151367D01*
X92103465Y-114113674D01*
X92099000Y-114068339D01*
X92099000Y-113231661D01*
X92103465Y-113186326D01*
X92114899Y-113148633D01*
X92133466Y-113113897D01*
X92158452Y-113083452D01*
X92188897Y-113058466D01*
X92223633Y-113039899D01*
X92261326Y-113028465D01*
X92306661Y-113024000D01*
X93393339Y-113024000D01*
X93438674Y-113028465D01*
G37*
G36*
X61713674Y-112553465D02*
G01*
X61751367Y-112564899D01*
X61786103Y-112583466D01*
X61816548Y-112608452D01*
X61841534Y-112638897D01*
X61860101Y-112673633D01*
X61871535Y-112711326D01*
X61876000Y-112756661D01*
X61876000Y-113593339D01*
X61871535Y-113638674D01*
X61860101Y-113676367D01*
X61841534Y-113711103D01*
X61816548Y-113741548D01*
X61786103Y-113766534D01*
X61751367Y-113785101D01*
X61713674Y-113796535D01*
X61668339Y-113801000D01*
X60581661Y-113801000D01*
X60536326Y-113796535D01*
X60498633Y-113785101D01*
X60463897Y-113766534D01*
X60433452Y-113741548D01*
X60408466Y-113711103D01*
X60389899Y-113676367D01*
X60378465Y-113638674D01*
X60374000Y-113593339D01*
X60374000Y-112756661D01*
X60378465Y-112711326D01*
X60389899Y-112673633D01*
X60408466Y-112638897D01*
X60433452Y-112608452D01*
X60463897Y-112583466D01*
X60498633Y-112564899D01*
X60536326Y-112553465D01*
X60581661Y-112549000D01*
X61668339Y-112549000D01*
X61713674Y-112553465D01*
G37*
G36*
X95988674Y-112528465D02*
G01*
X96026367Y-112539899D01*
X96061103Y-112558466D01*
X96091548Y-112583452D01*
X96116534Y-112613897D01*
X96135101Y-112648633D01*
X96146535Y-112686326D01*
X96151000Y-112731661D01*
X96151000Y-113568339D01*
X96146535Y-113613674D01*
X96135101Y-113651367D01*
X96116534Y-113686103D01*
X96091548Y-113716548D01*
X96061103Y-113741534D01*
X96026367Y-113760101D01*
X95988674Y-113771535D01*
X95943339Y-113776000D01*
X94856661Y-113776000D01*
X94811326Y-113771535D01*
X94773633Y-113760101D01*
X94738897Y-113741534D01*
X94708452Y-113716548D01*
X94683466Y-113686103D01*
X94664899Y-113651367D01*
X94653465Y-113613674D01*
X94649000Y-113568339D01*
X94649000Y-112731661D01*
X94653465Y-112686326D01*
X94664899Y-112648633D01*
X94683466Y-112613897D01*
X94708452Y-112583452D01*
X94738897Y-112558466D01*
X94773633Y-112539899D01*
X94811326Y-112528465D01*
X94856661Y-112524000D01*
X95943339Y-112524000D01*
X95988674Y-112528465D01*
G37*
G36*
X97938674Y-112528465D02*
G01*
X97976367Y-112539899D01*
X98011103Y-112558466D01*
X98041548Y-112583452D01*
X98066534Y-112613897D01*
X98085101Y-112648633D01*
X98096535Y-112686326D01*
X98101000Y-112731661D01*
X98101000Y-113568339D01*
X98096535Y-113613674D01*
X98085101Y-113651367D01*
X98066534Y-113686103D01*
X98041548Y-113716548D01*
X98011103Y-113741534D01*
X97976367Y-113760101D01*
X97938674Y-113771535D01*
X97893339Y-113776000D01*
X96806661Y-113776000D01*
X96761326Y-113771535D01*
X96723633Y-113760101D01*
X96688897Y-113741534D01*
X96658452Y-113716548D01*
X96633466Y-113686103D01*
X96614899Y-113651367D01*
X96603465Y-113613674D01*
X96599000Y-113568339D01*
X96599000Y-112731661D01*
X96603465Y-112686326D01*
X96614899Y-112648633D01*
X96633466Y-112613897D01*
X96658452Y-112583452D01*
X96688897Y-112558466D01*
X96723633Y-112539899D01*
X96761326Y-112528465D01*
X96806661Y-112524000D01*
X97893339Y-112524000D01*
X97938674Y-112528465D01*
G37*
G36*
X103238674Y-112528465D02*
G01*
X103276367Y-112539899D01*
X103311103Y-112558466D01*
X103341548Y-112583452D01*
X103366534Y-112613897D01*
X103385101Y-112648633D01*
X103396535Y-112686326D01*
X103401000Y-112731661D01*
X103401000Y-113568339D01*
X103396535Y-113613674D01*
X103385101Y-113651367D01*
X103366534Y-113686103D01*
X103341548Y-113716548D01*
X103311103Y-113741534D01*
X103276367Y-113760101D01*
X103238674Y-113771535D01*
X103193339Y-113776000D01*
X102106661Y-113776000D01*
X102061326Y-113771535D01*
X102023633Y-113760101D01*
X101988897Y-113741534D01*
X101958452Y-113716548D01*
X101933466Y-113686103D01*
X101914899Y-113651367D01*
X101903465Y-113613674D01*
X101899000Y-113568339D01*
X101899000Y-112731661D01*
X101903465Y-112686326D01*
X101914899Y-112648633D01*
X101933466Y-112613897D01*
X101958452Y-112583452D01*
X101988897Y-112558466D01*
X102023633Y-112539899D01*
X102061326Y-112528465D01*
X102106661Y-112524000D01*
X103193339Y-112524000D01*
X103238674Y-112528465D01*
G37*
G36*
X99501000Y-113401000D02*
G01*
X98499000Y-113401000D01*
X98499000Y-112499000D01*
X99501000Y-112499000D01*
X99501000Y-113401000D01*
G37*
G36*
X89726000Y-113201000D02*
G01*
X83474000Y-113201000D01*
X83474000Y-111499000D01*
X89726000Y-111499000D01*
X89726000Y-113201000D01*
G37*
G36*
X101501000Y-112451000D02*
G01*
X100499000Y-112451000D01*
X100499000Y-111549000D01*
X101501000Y-111549000D01*
X101501000Y-112451000D01*
G37*
G36*
X61713674Y-110503465D02*
G01*
X61751367Y-110514899D01*
X61786103Y-110533466D01*
X61816548Y-110558452D01*
X61841534Y-110588897D01*
X61860101Y-110623633D01*
X61871535Y-110661326D01*
X61876000Y-110706661D01*
X61876000Y-111543339D01*
X61871535Y-111588674D01*
X61860101Y-111626367D01*
X61841534Y-111661103D01*
X61816548Y-111691548D01*
X61786103Y-111716534D01*
X61751367Y-111735101D01*
X61713674Y-111746535D01*
X61668339Y-111751000D01*
X60581661Y-111751000D01*
X60536326Y-111746535D01*
X60498633Y-111735101D01*
X60463897Y-111716534D01*
X60433452Y-111691548D01*
X60408466Y-111661103D01*
X60389899Y-111626367D01*
X60378465Y-111588674D01*
X60374000Y-111543339D01*
X60374000Y-110706661D01*
X60378465Y-110661326D01*
X60389899Y-110623633D01*
X60408466Y-110588897D01*
X60433452Y-110558452D01*
X60463897Y-110533466D01*
X60498633Y-110514899D01*
X60536326Y-110503465D01*
X60581661Y-110499000D01*
X61668339Y-110499000D01*
X61713674Y-110503465D01*
G37*
G36*
X97938674Y-110478465D02*
G01*
X97976367Y-110489899D01*
X98011103Y-110508466D01*
X98041548Y-110533452D01*
X98066534Y-110563897D01*
X98085101Y-110598633D01*
X98096535Y-110636326D01*
X98101000Y-110681661D01*
X98101000Y-111518339D01*
X98096535Y-111563674D01*
X98085101Y-111601367D01*
X98066534Y-111636103D01*
X98041548Y-111666548D01*
X98011103Y-111691534D01*
X97976367Y-111710101D01*
X97938674Y-111721535D01*
X97893339Y-111726000D01*
X96806661Y-111726000D01*
X96761326Y-111721535D01*
X96723633Y-111710101D01*
X96688897Y-111691534D01*
X96658452Y-111666548D01*
X96633466Y-111636103D01*
X96614899Y-111601367D01*
X96603465Y-111563674D01*
X96599000Y-111518339D01*
X96599000Y-110681661D01*
X96603465Y-110636326D01*
X96614899Y-110598633D01*
X96633466Y-110563897D01*
X96658452Y-110533452D01*
X96688897Y-110508466D01*
X96723633Y-110489899D01*
X96761326Y-110478465D01*
X96806661Y-110474000D01*
X97893339Y-110474000D01*
X97938674Y-110478465D01*
G37*
G36*
X103238674Y-110478465D02*
G01*
X103276367Y-110489899D01*
X103311103Y-110508466D01*
X103341548Y-110533452D01*
X103366534Y-110563897D01*
X103385101Y-110598633D01*
X103396535Y-110636326D01*
X103401000Y-110681661D01*
X103401000Y-111518339D01*
X103396535Y-111563674D01*
X103385101Y-111601367D01*
X103366534Y-111636103D01*
X103341548Y-111666548D01*
X103311103Y-111691534D01*
X103276367Y-111710101D01*
X103238674Y-111721535D01*
X103193339Y-111726000D01*
X102106661Y-111726000D01*
X102061326Y-111721535D01*
X102023633Y-111710101D01*
X101988897Y-111691534D01*
X101958452Y-111666548D01*
X101933466Y-111636103D01*
X101914899Y-111601367D01*
X101903465Y-111563674D01*
X101899000Y-111518339D01*
X101899000Y-110681661D01*
X101903465Y-110636326D01*
X101914899Y-110598633D01*
X101933466Y-110563897D01*
X101958452Y-110533452D01*
X101988897Y-110508466D01*
X102023633Y-110489899D01*
X102061326Y-110478465D01*
X102106661Y-110474000D01*
X103193339Y-110474000D01*
X103238674Y-110478465D01*
G37*
G36*
X95988674Y-110478465D02*
G01*
X96026367Y-110489899D01*
X96061103Y-110508466D01*
X96091548Y-110533452D01*
X96116534Y-110563897D01*
X96135101Y-110598633D01*
X96146535Y-110636326D01*
X96151000Y-110681661D01*
X96151000Y-111518339D01*
X96146535Y-111563674D01*
X96135101Y-111601367D01*
X96116534Y-111636103D01*
X96091548Y-111666548D01*
X96061103Y-111691534D01*
X96026367Y-111710101D01*
X95988674Y-111721535D01*
X95943339Y-111726000D01*
X94856661Y-111726000D01*
X94811326Y-111721535D01*
X94773633Y-111710101D01*
X94738897Y-111691534D01*
X94708452Y-111666548D01*
X94683466Y-111636103D01*
X94664899Y-111601367D01*
X94653465Y-111563674D01*
X94649000Y-111518339D01*
X94649000Y-110681661D01*
X94653465Y-110636326D01*
X94664899Y-110598633D01*
X94683466Y-110563897D01*
X94708452Y-110533452D01*
X94738897Y-110508466D01*
X94773633Y-110489899D01*
X94811326Y-110478465D01*
X94856661Y-110474000D01*
X95943339Y-110474000D01*
X95988674Y-110478465D01*
G37*
G36*
X99501000Y-111501000D02*
G01*
X98499000Y-111501000D01*
X98499000Y-110599000D01*
X99501000Y-110599000D01*
X99501000Y-111501000D01*
G37*
G36*
X78651000Y-111213000D02*
G01*
X77349000Y-111213000D01*
X77349000Y-108587000D01*
X78651000Y-108587000D01*
X78651000Y-111213000D01*
G37*
G36*
X76651000Y-111213000D02*
G01*
X75349000Y-111213000D01*
X75349000Y-108587000D01*
X76651000Y-108587000D01*
X76651000Y-111213000D01*
G37*
G36*
X74651000Y-111213000D02*
G01*
X73349000Y-111213000D01*
X73349000Y-108587000D01*
X74651000Y-108587000D01*
X74651000Y-111213000D01*
G37*
G36*
X72651000Y-111213000D02*
G01*
X71349000Y-111213000D01*
X71349000Y-108587000D01*
X72651000Y-108587000D01*
X72651000Y-111213000D01*
G37*
G36*
X70651000Y-111213000D02*
G01*
X69349000Y-111213000D01*
X69349000Y-108587000D01*
X70651000Y-108587000D01*
X70651000Y-111213000D01*
G37*
G36*
X68651000Y-111213000D02*
G01*
X67349000Y-111213000D01*
X67349000Y-108587000D01*
X68651000Y-108587000D01*
X68651000Y-111213000D01*
G37*
G36*
X66651000Y-111213000D02*
G01*
X65349000Y-111213000D01*
X65349000Y-108587000D01*
X66651000Y-108587000D01*
X66651000Y-111213000D01*
G37*
G36*
X64651000Y-111213000D02*
G01*
X63349000Y-111213000D01*
X63349000Y-108587000D01*
X64651000Y-108587000D01*
X64651000Y-111213000D01*
G37*
G36*
X82938674Y-109528465D02*
G01*
X82976367Y-109539899D01*
X83011103Y-109558466D01*
X83041548Y-109583452D01*
X83066534Y-109613897D01*
X83085101Y-109648633D01*
X83096535Y-109686326D01*
X83101000Y-109731661D01*
X83101000Y-110568339D01*
X83096535Y-110613674D01*
X83085101Y-110651367D01*
X83066534Y-110686103D01*
X83041548Y-110716548D01*
X83011103Y-110741534D01*
X82976367Y-110760101D01*
X82938674Y-110771535D01*
X82893339Y-110776000D01*
X81806661Y-110776000D01*
X81761326Y-110771535D01*
X81723633Y-110760101D01*
X81688897Y-110741534D01*
X81658452Y-110716548D01*
X81633466Y-110686103D01*
X81614899Y-110651367D01*
X81603465Y-110613674D01*
X81599000Y-110568339D01*
X81599000Y-109731661D01*
X81603465Y-109686326D01*
X81614899Y-109648633D01*
X81633466Y-109613897D01*
X81658452Y-109583452D01*
X81688897Y-109558466D01*
X81723633Y-109539899D01*
X81761326Y-109528465D01*
X81806661Y-109524000D01*
X82893339Y-109524000D01*
X82938674Y-109528465D01*
G37*
G36*
X80988674Y-109528465D02*
G01*
X81026367Y-109539899D01*
X81061103Y-109558466D01*
X81091548Y-109583452D01*
X81116534Y-109613897D01*
X81135101Y-109648633D01*
X81146535Y-109686326D01*
X81151000Y-109731661D01*
X81151000Y-110568339D01*
X81146535Y-110613674D01*
X81135101Y-110651367D01*
X81116534Y-110686103D01*
X81091548Y-110716548D01*
X81061103Y-110741534D01*
X81026367Y-110760101D01*
X80988674Y-110771535D01*
X80943339Y-110776000D01*
X79856661Y-110776000D01*
X79811326Y-110771535D01*
X79773633Y-110760101D01*
X79738897Y-110741534D01*
X79708452Y-110716548D01*
X79683466Y-110686103D01*
X79664899Y-110651367D01*
X79653465Y-110613674D01*
X79649000Y-110568339D01*
X79649000Y-109731661D01*
X79653465Y-109686326D01*
X79664899Y-109648633D01*
X79683466Y-109613897D01*
X79708452Y-109583452D01*
X79738897Y-109558466D01*
X79773633Y-109539899D01*
X79811326Y-109528465D01*
X79856661Y-109524000D01*
X80943339Y-109524000D01*
X80988674Y-109528465D01*
G37*
G36*
X61713674Y-108803465D02*
G01*
X61751367Y-108814899D01*
X61786103Y-108833466D01*
X61816548Y-108858452D01*
X61841534Y-108888897D01*
X61860101Y-108923633D01*
X61871535Y-108961326D01*
X61876000Y-109006661D01*
X61876000Y-109843339D01*
X61871535Y-109888674D01*
X61860101Y-109926367D01*
X61841534Y-109961103D01*
X61816548Y-109991548D01*
X61786103Y-110016534D01*
X61751367Y-110035101D01*
X61713674Y-110046535D01*
X61668339Y-110051000D01*
X60581661Y-110051000D01*
X60536326Y-110046535D01*
X60498633Y-110035101D01*
X60463897Y-110016534D01*
X60433452Y-109991548D01*
X60408466Y-109961103D01*
X60389899Y-109926367D01*
X60378465Y-109888674D01*
X60374000Y-109843339D01*
X60374000Y-109006661D01*
X60378465Y-108961326D01*
X60389899Y-108923633D01*
X60408466Y-108888897D01*
X60433452Y-108858452D01*
X60463897Y-108833466D01*
X60498633Y-108814899D01*
X60536326Y-108803465D01*
X60581661Y-108799000D01*
X61668339Y-108799000D01*
X61713674Y-108803465D01*
G37*
G36*
X82938674Y-107478465D02*
G01*
X82976367Y-107489899D01*
X83011103Y-107508466D01*
X83041548Y-107533452D01*
X83066534Y-107563897D01*
X83085101Y-107598633D01*
X83096535Y-107636326D01*
X83101000Y-107681661D01*
X83101000Y-108518339D01*
X83096535Y-108563674D01*
X83085101Y-108601367D01*
X83066534Y-108636103D01*
X83041548Y-108666548D01*
X83011103Y-108691534D01*
X82976367Y-108710101D01*
X82938674Y-108721535D01*
X82893339Y-108726000D01*
X81806661Y-108726000D01*
X81761326Y-108721535D01*
X81723633Y-108710101D01*
X81688897Y-108691534D01*
X81658452Y-108666548D01*
X81633466Y-108636103D01*
X81614899Y-108601367D01*
X81603465Y-108563674D01*
X81599000Y-108518339D01*
X81599000Y-107681661D01*
X81603465Y-107636326D01*
X81614899Y-107598633D01*
X81633466Y-107563897D01*
X81658452Y-107533452D01*
X81688897Y-107508466D01*
X81723633Y-107489899D01*
X81761326Y-107478465D01*
X81806661Y-107474000D01*
X82893339Y-107474000D01*
X82938674Y-107478465D01*
G37*
G36*
X80988674Y-107478465D02*
G01*
X81026367Y-107489899D01*
X81061103Y-107508466D01*
X81091548Y-107533452D01*
X81116534Y-107563897D01*
X81135101Y-107598633D01*
X81146535Y-107636326D01*
X81151000Y-107681661D01*
X81151000Y-108518339D01*
X81146535Y-108563674D01*
X81135101Y-108601367D01*
X81116534Y-108636103D01*
X81091548Y-108666548D01*
X81061103Y-108691534D01*
X81026367Y-108710101D01*
X80988674Y-108721535D01*
X80943339Y-108726000D01*
X79856661Y-108726000D01*
X79811326Y-108721535D01*
X79773633Y-108710101D01*
X79738897Y-108691534D01*
X79708452Y-108666548D01*
X79683466Y-108636103D01*
X79664899Y-108601367D01*
X79653465Y-108563674D01*
X79649000Y-108518339D01*
X79649000Y-107681661D01*
X79653465Y-107636326D01*
X79664899Y-107598633D01*
X79683466Y-107563897D01*
X79708452Y-107533452D01*
X79738897Y-107508466D01*
X79773633Y-107489899D01*
X79811326Y-107478465D01*
X79856661Y-107474000D01*
X80943339Y-107474000D01*
X80988674Y-107478465D01*
G37*
G36*
X61713674Y-106753465D02*
G01*
X61751367Y-106764899D01*
X61786103Y-106783466D01*
X61816548Y-106808452D01*
X61841534Y-106838897D01*
X61860101Y-106873633D01*
X61871535Y-106911326D01*
X61876000Y-106956661D01*
X61876000Y-107793339D01*
X61871535Y-107838674D01*
X61860101Y-107876367D01*
X61841534Y-107911103D01*
X61816548Y-107941548D01*
X61786103Y-107966534D01*
X61751367Y-107985101D01*
X61713674Y-107996535D01*
X61668339Y-108001000D01*
X60581661Y-108001000D01*
X60536326Y-107996535D01*
X60498633Y-107985101D01*
X60463897Y-107966534D01*
X60433452Y-107941548D01*
X60408466Y-107911103D01*
X60389899Y-107876367D01*
X60378465Y-107838674D01*
X60374000Y-107793339D01*
X60374000Y-106956661D01*
X60378465Y-106911326D01*
X60389899Y-106873633D01*
X60408466Y-106838897D01*
X60433452Y-106808452D01*
X60463897Y-106783466D01*
X60498633Y-106764899D01*
X60536326Y-106753465D01*
X60581661Y-106749000D01*
X61668339Y-106749000D01*
X61713674Y-106753465D01*
G37*
G36*
X66826000Y-107951000D02*
G01*
X63124000Y-107951000D01*
X63124000Y-106349000D01*
X66826000Y-106349000D01*
X66826000Y-107951000D01*
G37*
G36*
X78101000Y-107601000D02*
G01*
X67499000Y-107601000D01*
X67499000Y-102499000D01*
X78101000Y-102499000D01*
X78101000Y-107601000D01*
G37*
G36*
X89453512Y-105663927D02*
G01*
X89602812Y-105693624D01*
X89766784Y-105761544D01*
X89914354Y-105860147D01*
X90039853Y-105985646D01*
X90138456Y-106133216D01*
X90206376Y-106297188D01*
X90241000Y-106471259D01*
X90241000Y-106648741D01*
X90206376Y-106822812D01*
X90138456Y-106986784D01*
X90039853Y-107134354D01*
X89914354Y-107259853D01*
X89766784Y-107358456D01*
X89602812Y-107426376D01*
X89453512Y-107456073D01*
X89428742Y-107461000D01*
X89251258Y-107461000D01*
X89226488Y-107456073D01*
X89077188Y-107426376D01*
X88913216Y-107358456D01*
X88765646Y-107259853D01*
X88640147Y-107134354D01*
X88541544Y-106986784D01*
X88473624Y-106822812D01*
X88439000Y-106648741D01*
X88439000Y-106471259D01*
X88473624Y-106297188D01*
X88541544Y-106133216D01*
X88640147Y-105985646D01*
X88765646Y-105860147D01*
X88913216Y-105761544D01*
X89077188Y-105693624D01*
X89226488Y-105663927D01*
X89251258Y-105659000D01*
X89428742Y-105659000D01*
X89453512Y-105663927D01*
G37*
G36*
X86913512Y-105663927D02*
G01*
X87062812Y-105693624D01*
X87226784Y-105761544D01*
X87374354Y-105860147D01*
X87499853Y-105985646D01*
X87598456Y-106133216D01*
X87666376Y-106297188D01*
X87701000Y-106471259D01*
X87701000Y-106648741D01*
X87666376Y-106822812D01*
X87598456Y-106986784D01*
X87499853Y-107134354D01*
X87374354Y-107259853D01*
X87226784Y-107358456D01*
X87062812Y-107426376D01*
X86913512Y-107456073D01*
X86888742Y-107461000D01*
X86711258Y-107461000D01*
X86686488Y-107456073D01*
X86537188Y-107426376D01*
X86373216Y-107358456D01*
X86225646Y-107259853D01*
X86100147Y-107134354D01*
X86001544Y-106986784D01*
X85933624Y-106822812D01*
X85899000Y-106648741D01*
X85899000Y-106471259D01*
X85933624Y-106297188D01*
X86001544Y-106133216D01*
X86100147Y-105985646D01*
X86225646Y-105860147D01*
X86373216Y-105761544D01*
X86537188Y-105693624D01*
X86686488Y-105663927D01*
X86711258Y-105659000D01*
X86888742Y-105659000D01*
X86913512Y-105663927D01*
G37*
G36*
X65713674Y-104453465D02*
G01*
X65751367Y-104464899D01*
X65786103Y-104483466D01*
X65816548Y-104508452D01*
X65841534Y-104538897D01*
X65860101Y-104573633D01*
X65871535Y-104611326D01*
X65876000Y-104656661D01*
X65876000Y-105493339D01*
X65871535Y-105538674D01*
X65860101Y-105576367D01*
X65841534Y-105611103D01*
X65816548Y-105641548D01*
X65786103Y-105666534D01*
X65751367Y-105685101D01*
X65713674Y-105696535D01*
X65668339Y-105701000D01*
X64581661Y-105701000D01*
X64536326Y-105696535D01*
X64498633Y-105685101D01*
X64463897Y-105666534D01*
X64433452Y-105641548D01*
X64408466Y-105611103D01*
X64389899Y-105576367D01*
X64378465Y-105538674D01*
X64374000Y-105493339D01*
X64374000Y-104656661D01*
X64378465Y-104611326D01*
X64389899Y-104573633D01*
X64408466Y-104538897D01*
X64433452Y-104508452D01*
X64463897Y-104483466D01*
X64498633Y-104464899D01*
X64536326Y-104453465D01*
X64581661Y-104449000D01*
X65668339Y-104449000D01*
X65713674Y-104453465D01*
G37*
G36*
X63376000Y-105651000D02*
G01*
X62474000Y-105651000D01*
X62474000Y-104649000D01*
X63376000Y-104649000D01*
X63376000Y-105651000D01*
G37*
G36*
X61476000Y-105651000D02*
G01*
X60574000Y-105651000D01*
X60574000Y-104649000D01*
X61476000Y-104649000D01*
X61476000Y-105651000D01*
G37*
G36*
X88953512Y-103123927D02*
G01*
X89102812Y-103153624D01*
X89266784Y-103221544D01*
X89414354Y-103320147D01*
X89539853Y-103445646D01*
X89638456Y-103593216D01*
X89706376Y-103757188D01*
X89741000Y-103931259D01*
X89741000Y-104108741D01*
X89706376Y-104282812D01*
X89638456Y-104446784D01*
X89539853Y-104594354D01*
X89414354Y-104719853D01*
X89266784Y-104818456D01*
X89102812Y-104886376D01*
X88953512Y-104916073D01*
X88928742Y-104921000D01*
X88751258Y-104921000D01*
X88726488Y-104916073D01*
X88577188Y-104886376D01*
X88413216Y-104818456D01*
X88265646Y-104719853D01*
X88140147Y-104594354D01*
X88041544Y-104446784D01*
X87973624Y-104282812D01*
X87939000Y-104108741D01*
X87939000Y-103931259D01*
X87973624Y-103757188D01*
X88041544Y-103593216D01*
X88140147Y-103445646D01*
X88265646Y-103320147D01*
X88413216Y-103221544D01*
X88577188Y-103153624D01*
X88726488Y-103123927D01*
X88751258Y-103119000D01*
X88928742Y-103119000D01*
X88953512Y-103123927D01*
G37*
G36*
X86413512Y-103123927D02*
G01*
X86562812Y-103153624D01*
X86726784Y-103221544D01*
X86874354Y-103320147D01*
X86999853Y-103445646D01*
X87098456Y-103593216D01*
X87166376Y-103757188D01*
X87201000Y-103931259D01*
X87201000Y-104108741D01*
X87166376Y-104282812D01*
X87098456Y-104446784D01*
X86999853Y-104594354D01*
X86874354Y-104719853D01*
X86726784Y-104818456D01*
X86562812Y-104886376D01*
X86413512Y-104916073D01*
X86388742Y-104921000D01*
X86211258Y-104921000D01*
X86186488Y-104916073D01*
X86037188Y-104886376D01*
X85873216Y-104818456D01*
X85725646Y-104719853D01*
X85600147Y-104594354D01*
X85501544Y-104446784D01*
X85433624Y-104282812D01*
X85399000Y-104108741D01*
X85399000Y-103931259D01*
X85433624Y-103757188D01*
X85501544Y-103593216D01*
X85600147Y-103445646D01*
X85725646Y-103320147D01*
X85873216Y-103221544D01*
X86037188Y-103153624D01*
X86186488Y-103123927D01*
X86211258Y-103119000D01*
X86388742Y-103119000D01*
X86413512Y-103123927D01*
G37*
G36*
X62426000Y-103651000D02*
G01*
X61524000Y-103651000D01*
X61524000Y-102649000D01*
X62426000Y-102649000D01*
X62426000Y-103651000D01*
G37*
G36*
X65713674Y-102403465D02*
G01*
X65751367Y-102414899D01*
X65786103Y-102433466D01*
X65816548Y-102458452D01*
X65841534Y-102488897D01*
X65860101Y-102523633D01*
X65871535Y-102561326D01*
X65876000Y-102606661D01*
X65876000Y-103443339D01*
X65871535Y-103488674D01*
X65860101Y-103526367D01*
X65841534Y-103561103D01*
X65816548Y-103591548D01*
X65786103Y-103616534D01*
X65751367Y-103635101D01*
X65713674Y-103646535D01*
X65668339Y-103651000D01*
X64581661Y-103651000D01*
X64536326Y-103646535D01*
X64498633Y-103635101D01*
X64463897Y-103616534D01*
X64433452Y-103591548D01*
X64408466Y-103561103D01*
X64389899Y-103526367D01*
X64378465Y-103488674D01*
X64374000Y-103443339D01*
X64374000Y-102606661D01*
X64378465Y-102561326D01*
X64389899Y-102523633D01*
X64408466Y-102488897D01*
X64433452Y-102458452D01*
X64463897Y-102433466D01*
X64498633Y-102414899D01*
X64536326Y-102403465D01*
X64581661Y-102399000D01*
X65668339Y-102399000D01*
X65713674Y-102403465D01*
G37*
G36*
X89453512Y-100583927D02*
G01*
X89602812Y-100613624D01*
X89766784Y-100681544D01*
X89914354Y-100780147D01*
X90039853Y-100905646D01*
X90138456Y-101053216D01*
X90206376Y-101217188D01*
X90241000Y-101391259D01*
X90241000Y-101568741D01*
X90206376Y-101742812D01*
X90138456Y-101906784D01*
X90039853Y-102054354D01*
X89914354Y-102179853D01*
X89766784Y-102278456D01*
X89602812Y-102346376D01*
X89453512Y-102376073D01*
X89428742Y-102381000D01*
X89251258Y-102381000D01*
X89226488Y-102376073D01*
X89077188Y-102346376D01*
X88913216Y-102278456D01*
X88765646Y-102179853D01*
X88640147Y-102054354D01*
X88541544Y-101906784D01*
X88473624Y-101742812D01*
X88439000Y-101568741D01*
X88439000Y-101391259D01*
X88473624Y-101217188D01*
X88541544Y-101053216D01*
X88640147Y-100905646D01*
X88765646Y-100780147D01*
X88913216Y-100681544D01*
X89077188Y-100613624D01*
X89226488Y-100583927D01*
X89251258Y-100579000D01*
X89428742Y-100579000D01*
X89453512Y-100583927D01*
G37*
G36*
X86913512Y-100583927D02*
G01*
X87062812Y-100613624D01*
X87226784Y-100681544D01*
X87374354Y-100780147D01*
X87499853Y-100905646D01*
X87598456Y-101053216D01*
X87666376Y-101217188D01*
X87701000Y-101391259D01*
X87701000Y-101568741D01*
X87666376Y-101742812D01*
X87598456Y-101906784D01*
X87499853Y-102054354D01*
X87374354Y-102179853D01*
X87226784Y-102278456D01*
X87062812Y-102346376D01*
X86913512Y-102376073D01*
X86888742Y-102381000D01*
X86711258Y-102381000D01*
X86686488Y-102376073D01*
X86537188Y-102346376D01*
X86373216Y-102278456D01*
X86225646Y-102179853D01*
X86100147Y-102054354D01*
X86001544Y-101906784D01*
X85933624Y-101742812D01*
X85899000Y-101568741D01*
X85899000Y-101391259D01*
X85933624Y-101217188D01*
X86001544Y-101053216D01*
X86100147Y-100905646D01*
X86225646Y-100780147D01*
X86373216Y-100681544D01*
X86537188Y-100613624D01*
X86686488Y-100583927D01*
X86711258Y-100579000D01*
X86888742Y-100579000D01*
X86913512Y-100583927D01*
G37*
G36*
X84213674Y-100453465D02*
G01*
X84251367Y-100464899D01*
X84286103Y-100483466D01*
X84316548Y-100508452D01*
X84341534Y-100538897D01*
X84360101Y-100573633D01*
X84371535Y-100611326D01*
X84376000Y-100656661D01*
X84376000Y-101493339D01*
X84371535Y-101538674D01*
X84360101Y-101576367D01*
X84341534Y-101611103D01*
X84316548Y-101641548D01*
X84286103Y-101666534D01*
X84251367Y-101685101D01*
X84213674Y-101696535D01*
X84168339Y-101701000D01*
X83081661Y-101701000D01*
X83036326Y-101696535D01*
X82998633Y-101685101D01*
X82963897Y-101666534D01*
X82933452Y-101641548D01*
X82908466Y-101611103D01*
X82889899Y-101576367D01*
X82878465Y-101538674D01*
X82874000Y-101493339D01*
X82874000Y-100656661D01*
X82878465Y-100611326D01*
X82889899Y-100573633D01*
X82908466Y-100538897D01*
X82933452Y-100508452D01*
X82963897Y-100483466D01*
X82998633Y-100464899D01*
X83036326Y-100453465D01*
X83081661Y-100449000D01*
X84168339Y-100449000D01*
X84213674Y-100453465D01*
G37*
G36*
X88953512Y-98043927D02*
G01*
X89102812Y-98073624D01*
X89266784Y-98141544D01*
X89414354Y-98240147D01*
X89539853Y-98365646D01*
X89638456Y-98513216D01*
X89706376Y-98677188D01*
X89741000Y-98851259D01*
X89741000Y-99028741D01*
X89706376Y-99202812D01*
X89638456Y-99366784D01*
X89539853Y-99514354D01*
X89414354Y-99639853D01*
X89266784Y-99738456D01*
X89102812Y-99806376D01*
X88953512Y-99836073D01*
X88928742Y-99841000D01*
X88751258Y-99841000D01*
X88726488Y-99836073D01*
X88577188Y-99806376D01*
X88413216Y-99738456D01*
X88265646Y-99639853D01*
X88140147Y-99514354D01*
X88041544Y-99366784D01*
X87973624Y-99202812D01*
X87939000Y-99028741D01*
X87939000Y-98851259D01*
X87973624Y-98677188D01*
X88041544Y-98513216D01*
X88140147Y-98365646D01*
X88265646Y-98240147D01*
X88413216Y-98141544D01*
X88577188Y-98073624D01*
X88726488Y-98043927D01*
X88751258Y-98039000D01*
X88928742Y-98039000D01*
X88953512Y-98043927D01*
G37*
G36*
X86413512Y-98043927D02*
G01*
X86562812Y-98073624D01*
X86726784Y-98141544D01*
X86874354Y-98240147D01*
X86999853Y-98365646D01*
X87098456Y-98513216D01*
X87166376Y-98677188D01*
X87201000Y-98851259D01*
X87201000Y-99028741D01*
X87166376Y-99202812D01*
X87098456Y-99366784D01*
X86999853Y-99514354D01*
X86874354Y-99639853D01*
X86726784Y-99738456D01*
X86562812Y-99806376D01*
X86413512Y-99836073D01*
X86388742Y-99841000D01*
X86211258Y-99841000D01*
X86186488Y-99836073D01*
X86037188Y-99806376D01*
X85873216Y-99738456D01*
X85725646Y-99639853D01*
X85600147Y-99514354D01*
X85501544Y-99366784D01*
X85433624Y-99202812D01*
X85399000Y-99028741D01*
X85399000Y-98851259D01*
X85433624Y-98677188D01*
X85501544Y-98513216D01*
X85600147Y-98365646D01*
X85725646Y-98240147D01*
X85873216Y-98141544D01*
X86037188Y-98073624D01*
X86186488Y-98043927D01*
X86211258Y-98039000D01*
X86388742Y-98039000D01*
X86413512Y-98043927D01*
G37*
G36*
X84213674Y-98403465D02*
G01*
X84251367Y-98414899D01*
X84286103Y-98433466D01*
X84316548Y-98458452D01*
X84341534Y-98488897D01*
X84360101Y-98523633D01*
X84371535Y-98561326D01*
X84376000Y-98606661D01*
X84376000Y-99443339D01*
X84371535Y-99488674D01*
X84360101Y-99526367D01*
X84341534Y-99561103D01*
X84316548Y-99591548D01*
X84286103Y-99616534D01*
X84251367Y-99635101D01*
X84213674Y-99646535D01*
X84168339Y-99651000D01*
X83081661Y-99651000D01*
X83036326Y-99646535D01*
X82998633Y-99635101D01*
X82963897Y-99616534D01*
X82933452Y-99591548D01*
X82908466Y-99561103D01*
X82889899Y-99526367D01*
X82878465Y-99488674D01*
X82874000Y-99443339D01*
X82874000Y-98606661D01*
X82878465Y-98561326D01*
X82889899Y-98523633D01*
X82908466Y-98488897D01*
X82933452Y-98458452D01*
X82963897Y-98433466D01*
X82998633Y-98414899D01*
X83036326Y-98403465D01*
X83081661Y-98399000D01*
X84168339Y-98399000D01*
X84213674Y-98403465D01*
G37*
G36*
X87701000Y-97301000D02*
G01*
X85899000Y-97301000D01*
X85899000Y-95499000D01*
X87701000Y-95499000D01*
X87701000Y-97301000D01*
G37*
G36*
X89453512Y-95503927D02*
G01*
X89602812Y-95533624D01*
X89766784Y-95601544D01*
X89914354Y-95700147D01*
X90039853Y-95825646D01*
X90138456Y-95973216D01*
X90206376Y-96137188D01*
X90241000Y-96311259D01*
X90241000Y-96488741D01*
X90206376Y-96662812D01*
X90138456Y-96826784D01*
X90039853Y-96974354D01*
X89914354Y-97099853D01*
X89766784Y-97198456D01*
X89602812Y-97266376D01*
X89453512Y-97296073D01*
X89428742Y-97301000D01*
X89251258Y-97301000D01*
X89226488Y-97296073D01*
X89077188Y-97266376D01*
X88913216Y-97198456D01*
X88765646Y-97099853D01*
X88640147Y-96974354D01*
X88541544Y-96826784D01*
X88473624Y-96662812D01*
X88439000Y-96488741D01*
X88439000Y-96311259D01*
X88473624Y-96137188D01*
X88541544Y-95973216D01*
X88640147Y-95825646D01*
X88765646Y-95700147D01*
X88913216Y-95601544D01*
X89077188Y-95533624D01*
X89226488Y-95503927D01*
X89251258Y-95499000D01*
X89428742Y-95499000D01*
X89453512Y-95503927D01*
G37*
G36*
X78101000Y-93851000D02*
G01*
X67499000Y-93851000D01*
X67499000Y-83249000D01*
X78101000Y-83249000D01*
X78101000Y-93851000D01*
G37*
G36*
X89801000Y-92601000D02*
G01*
X87999000Y-92601000D01*
X87999000Y-90799000D01*
X89801000Y-90799000D01*
X89801000Y-92601000D01*
G37*
G36*
X89513512Y-88263927D02*
G01*
X89662812Y-88293624D01*
X89826784Y-88361544D01*
X89974354Y-88460147D01*
X90099853Y-88585646D01*
X90198456Y-88733216D01*
X90266376Y-88897188D01*
X90296073Y-89046488D01*
X90301000Y-89071258D01*
X90301000Y-89248742D01*
X90296073Y-89273512D01*
X90266376Y-89422812D01*
X90198456Y-89586784D01*
X90099853Y-89734354D01*
X89974354Y-89859853D01*
X89826784Y-89958456D01*
X89662812Y-90026376D01*
X89513512Y-90056073D01*
X89488742Y-90061000D01*
X89311258Y-90061000D01*
X89286488Y-90056073D01*
X89137188Y-90026376D01*
X88973216Y-89958456D01*
X88825646Y-89859853D01*
X88700147Y-89734354D01*
X88601544Y-89586784D01*
X88533624Y-89422812D01*
X88503927Y-89273512D01*
X88499000Y-89248742D01*
X88499000Y-89071258D01*
X88503927Y-89046488D01*
X88533624Y-88897188D01*
X88601544Y-88733216D01*
X88700147Y-88585646D01*
X88825646Y-88460147D01*
X88973216Y-88361544D01*
X89137188Y-88293624D01*
X89286488Y-88263927D01*
X89311258Y-88259000D01*
X89488742Y-88259000D01*
X89513512Y-88263927D01*
G37*
G36*
X93651000Y-89801000D02*
G01*
X92049000Y-89801000D01*
X92049000Y-86099000D01*
X93651000Y-86099000D01*
X93651000Y-89801000D01*
G37*
G36*
X96038674Y-88278465D02*
G01*
X96076367Y-88289899D01*
X96111103Y-88308466D01*
X96141548Y-88333452D01*
X96166534Y-88363897D01*
X96185101Y-88398633D01*
X96196535Y-88436326D01*
X96201000Y-88481661D01*
X96201000Y-89318339D01*
X96196535Y-89363674D01*
X96185101Y-89401367D01*
X96166534Y-89436103D01*
X96141548Y-89466548D01*
X96111103Y-89491534D01*
X96076367Y-89510101D01*
X96038674Y-89521535D01*
X95993339Y-89526000D01*
X94906661Y-89526000D01*
X94861326Y-89521535D01*
X94823633Y-89510101D01*
X94788897Y-89491534D01*
X94758452Y-89466548D01*
X94733466Y-89436103D01*
X94714899Y-89401367D01*
X94703465Y-89363674D01*
X94699000Y-89318339D01*
X94699000Y-88481661D01*
X94703465Y-88436326D01*
X94714899Y-88398633D01*
X94733466Y-88363897D01*
X94758452Y-88333452D01*
X94788897Y-88308466D01*
X94823633Y-88289899D01*
X94861326Y-88278465D01*
X94906661Y-88274000D01*
X95993339Y-88274000D01*
X96038674Y-88278465D01*
G37*
G36*
X97938674Y-88278465D02*
G01*
X97976367Y-88289899D01*
X98011103Y-88308466D01*
X98041548Y-88333452D01*
X98066534Y-88363897D01*
X98085101Y-88398633D01*
X98096535Y-88436326D01*
X98101000Y-88481661D01*
X98101000Y-89318339D01*
X98096535Y-89363674D01*
X98085101Y-89401367D01*
X98066534Y-89436103D01*
X98041548Y-89466548D01*
X98011103Y-89491534D01*
X97976367Y-89510101D01*
X97938674Y-89521535D01*
X97893339Y-89526000D01*
X96806661Y-89526000D01*
X96761326Y-89521535D01*
X96723633Y-89510101D01*
X96688897Y-89491534D01*
X96658452Y-89466548D01*
X96633466Y-89436103D01*
X96614899Y-89401367D01*
X96603465Y-89363674D01*
X96599000Y-89318339D01*
X96599000Y-88481661D01*
X96603465Y-88436326D01*
X96614899Y-88398633D01*
X96633466Y-88363897D01*
X96658452Y-88333452D01*
X96688897Y-88308466D01*
X96723633Y-88289899D01*
X96761326Y-88278465D01*
X96806661Y-88274000D01*
X97893339Y-88274000D01*
X97938674Y-88278465D01*
G37*
G36*
X103238674Y-88278465D02*
G01*
X103276367Y-88289899D01*
X103311103Y-88308466D01*
X103341548Y-88333452D01*
X103366534Y-88363897D01*
X103385101Y-88398633D01*
X103396535Y-88436326D01*
X103401000Y-88481661D01*
X103401000Y-89318339D01*
X103396535Y-89363674D01*
X103385101Y-89401367D01*
X103366534Y-89436103D01*
X103341548Y-89466548D01*
X103311103Y-89491534D01*
X103276367Y-89510101D01*
X103238674Y-89521535D01*
X103193339Y-89526000D01*
X102106661Y-89526000D01*
X102061326Y-89521535D01*
X102023633Y-89510101D01*
X101988897Y-89491534D01*
X101958452Y-89466548D01*
X101933466Y-89436103D01*
X101914899Y-89401367D01*
X101903465Y-89363674D01*
X101899000Y-89318339D01*
X101899000Y-88481661D01*
X101903465Y-88436326D01*
X101914899Y-88398633D01*
X101933466Y-88363897D01*
X101958452Y-88333452D01*
X101988897Y-88308466D01*
X102023633Y-88289899D01*
X102061326Y-88278465D01*
X102106661Y-88274000D01*
X103193339Y-88274000D01*
X103238674Y-88278465D01*
G37*
G36*
X99501000Y-89401000D02*
G01*
X98499000Y-89401000D01*
X98499000Y-88499000D01*
X99501000Y-88499000D01*
X99501000Y-89401000D01*
G37*
G36*
X101501000Y-88451000D02*
G01*
X100499000Y-88451000D01*
X100499000Y-87549000D01*
X101501000Y-87549000D01*
X101501000Y-88451000D01*
G37*
G36*
X89013512Y-85723927D02*
G01*
X89162812Y-85753624D01*
X89326784Y-85821544D01*
X89474354Y-85920147D01*
X89599853Y-86045646D01*
X89698456Y-86193216D01*
X89766376Y-86357188D01*
X89801000Y-86531259D01*
X89801000Y-86708741D01*
X89766376Y-86882812D01*
X89698456Y-87046784D01*
X89599853Y-87194354D01*
X89474354Y-87319853D01*
X89326784Y-87418456D01*
X89162812Y-87486376D01*
X89013512Y-87516073D01*
X88988742Y-87521000D01*
X88811258Y-87521000D01*
X88786488Y-87516073D01*
X88637188Y-87486376D01*
X88473216Y-87418456D01*
X88325646Y-87319853D01*
X88200147Y-87194354D01*
X88101544Y-87046784D01*
X88033624Y-86882812D01*
X87999000Y-86708741D01*
X87999000Y-86531259D01*
X88033624Y-86357188D01*
X88101544Y-86193216D01*
X88200147Y-86045646D01*
X88325646Y-85920147D01*
X88473216Y-85821544D01*
X88637188Y-85753624D01*
X88786488Y-85723927D01*
X88811258Y-85719000D01*
X88988742Y-85719000D01*
X89013512Y-85723927D01*
G37*
G36*
X99501000Y-87501000D02*
G01*
X98499000Y-87501000D01*
X98499000Y-86599000D01*
X99501000Y-86599000D01*
X99501000Y-87501000D01*
G37*
G36*
X96038674Y-86228465D02*
G01*
X96076367Y-86239899D01*
X96111103Y-86258466D01*
X96141548Y-86283452D01*
X96166534Y-86313897D01*
X96185101Y-86348633D01*
X96196535Y-86386326D01*
X96201000Y-86431661D01*
X96201000Y-87268339D01*
X96196535Y-87313674D01*
X96185101Y-87351367D01*
X96166534Y-87386103D01*
X96141548Y-87416548D01*
X96111103Y-87441534D01*
X96076367Y-87460101D01*
X96038674Y-87471535D01*
X95993339Y-87476000D01*
X94906661Y-87476000D01*
X94861326Y-87471535D01*
X94823633Y-87460101D01*
X94788897Y-87441534D01*
X94758452Y-87416548D01*
X94733466Y-87386103D01*
X94714899Y-87351367D01*
X94703465Y-87313674D01*
X94699000Y-87268339D01*
X94699000Y-86431661D01*
X94703465Y-86386326D01*
X94714899Y-86348633D01*
X94733466Y-86313897D01*
X94758452Y-86283452D01*
X94788897Y-86258466D01*
X94823633Y-86239899D01*
X94861326Y-86228465D01*
X94906661Y-86224000D01*
X95993339Y-86224000D01*
X96038674Y-86228465D01*
G37*
G36*
X103238674Y-86228465D02*
G01*
X103276367Y-86239899D01*
X103311103Y-86258466D01*
X103341548Y-86283452D01*
X103366534Y-86313897D01*
X103385101Y-86348633D01*
X103396535Y-86386326D01*
X103401000Y-86431661D01*
X103401000Y-87268339D01*
X103396535Y-87313674D01*
X103385101Y-87351367D01*
X103366534Y-87386103D01*
X103341548Y-87416548D01*
X103311103Y-87441534D01*
X103276367Y-87460101D01*
X103238674Y-87471535D01*
X103193339Y-87476000D01*
X102106661Y-87476000D01*
X102061326Y-87471535D01*
X102023633Y-87460101D01*
X101988897Y-87441534D01*
X101958452Y-87416548D01*
X101933466Y-87386103D01*
X101914899Y-87351367D01*
X101903465Y-87313674D01*
X101899000Y-87268339D01*
X101899000Y-86431661D01*
X101903465Y-86386326D01*
X101914899Y-86348633D01*
X101933466Y-86313897D01*
X101958452Y-86283452D01*
X101988897Y-86258466D01*
X102023633Y-86239899D01*
X102061326Y-86228465D01*
X102106661Y-86224000D01*
X103193339Y-86224000D01*
X103238674Y-86228465D01*
G37*
G36*
X97938674Y-86228465D02*
G01*
X97976367Y-86239899D01*
X98011103Y-86258466D01*
X98041548Y-86283452D01*
X98066534Y-86313897D01*
X98085101Y-86348633D01*
X98096535Y-86386326D01*
X98101000Y-86431661D01*
X98101000Y-87268339D01*
X98096535Y-87313674D01*
X98085101Y-87351367D01*
X98066534Y-87386103D01*
X98041548Y-87416548D01*
X98011103Y-87441534D01*
X97976367Y-87460101D01*
X97938674Y-87471535D01*
X97893339Y-87476000D01*
X96806661Y-87476000D01*
X96761326Y-87471535D01*
X96723633Y-87460101D01*
X96688897Y-87441534D01*
X96658452Y-87416548D01*
X96633466Y-87386103D01*
X96614899Y-87351367D01*
X96603465Y-87313674D01*
X96599000Y-87268339D01*
X96599000Y-86431661D01*
X96603465Y-86386326D01*
X96614899Y-86348633D01*
X96633466Y-86313897D01*
X96658452Y-86283452D01*
X96688897Y-86258466D01*
X96723633Y-86239899D01*
X96761326Y-86228465D01*
X96806661Y-86224000D01*
X97893339Y-86224000D01*
X97938674Y-86228465D01*
G37*
G36*
X89513512Y-83183927D02*
G01*
X89662812Y-83213624D01*
X89826784Y-83281544D01*
X89974354Y-83380147D01*
X90099853Y-83505646D01*
X90198456Y-83653216D01*
X90266376Y-83817188D01*
X90301000Y-83991259D01*
X90301000Y-84168741D01*
X90266376Y-84342812D01*
X90198456Y-84506784D01*
X90099853Y-84654354D01*
X89974354Y-84779853D01*
X89826784Y-84878456D01*
X89662812Y-84946376D01*
X89513512Y-84976073D01*
X89488742Y-84981000D01*
X89311258Y-84981000D01*
X89286488Y-84976073D01*
X89137188Y-84946376D01*
X88973216Y-84878456D01*
X88825646Y-84779853D01*
X88700147Y-84654354D01*
X88601544Y-84506784D01*
X88533624Y-84342812D01*
X88499000Y-84168741D01*
X88499000Y-83991259D01*
X88533624Y-83817188D01*
X88601544Y-83653216D01*
X88700147Y-83505646D01*
X88825646Y-83380147D01*
X88973216Y-83281544D01*
X89137188Y-83213624D01*
X89286488Y-83183927D01*
X89311258Y-83179000D01*
X89488742Y-83179000D01*
X89513512Y-83183927D01*
G37*
G36*
X89013512Y-80643927D02*
G01*
X89162812Y-80673624D01*
X89326784Y-80741544D01*
X89474354Y-80840147D01*
X89599853Y-80965646D01*
X89698456Y-81113216D01*
X89766376Y-81277188D01*
X89801000Y-81451259D01*
X89801000Y-81628741D01*
X89766376Y-81802812D01*
X89698456Y-81966784D01*
X89599853Y-82114354D01*
X89474354Y-82239853D01*
X89326784Y-82338456D01*
X89162812Y-82406376D01*
X89013512Y-82436073D01*
X88988742Y-82441000D01*
X88811258Y-82441000D01*
X88786488Y-82436073D01*
X88637188Y-82406376D01*
X88473216Y-82338456D01*
X88325646Y-82239853D01*
X88200147Y-82114354D01*
X88101544Y-81966784D01*
X88033624Y-81802812D01*
X87999000Y-81628741D01*
X87999000Y-81451259D01*
X88033624Y-81277188D01*
X88101544Y-81113216D01*
X88200147Y-80965646D01*
X88325646Y-80840147D01*
X88473216Y-80741544D01*
X88637188Y-80673624D01*
X88786488Y-80643927D01*
X88811258Y-80639000D01*
X88988742Y-80639000D01*
X89013512Y-80643927D01*
G37*
G36*
X89513512Y-78103927D02*
G01*
X89662812Y-78133624D01*
X89826784Y-78201544D01*
X89974354Y-78300147D01*
X90099853Y-78425646D01*
X90198456Y-78573216D01*
X90266376Y-78737188D01*
X90301000Y-78911259D01*
X90301000Y-79088741D01*
X90266376Y-79262812D01*
X90198456Y-79426784D01*
X90099853Y-79574354D01*
X89974354Y-79699853D01*
X89826784Y-79798456D01*
X89662812Y-79866376D01*
X89513512Y-79896073D01*
X89488742Y-79901000D01*
X89311258Y-79901000D01*
X89286488Y-79896073D01*
X89137188Y-79866376D01*
X88973216Y-79798456D01*
X88825646Y-79699853D01*
X88700147Y-79574354D01*
X88601544Y-79426784D01*
X88533624Y-79262812D01*
X88499000Y-79088741D01*
X88499000Y-78911259D01*
X88533624Y-78737188D01*
X88601544Y-78573216D01*
X88700147Y-78425646D01*
X88825646Y-78300147D01*
X88973216Y-78201544D01*
X89137188Y-78133624D01*
X89286488Y-78103927D01*
X89311258Y-78099000D01*
X89488742Y-78099000D01*
X89513512Y-78103927D01*
G37*
G36*
X78101000Y-74601000D02*
G01*
X67499000Y-74601000D01*
X67499000Y-69499000D01*
X78101000Y-69499000D01*
X78101000Y-74601000D01*
G37*
G36*
X92521000Y-73651000D02*
G01*
X90419000Y-73651000D01*
X90419000Y-69549000D01*
X92521000Y-69549000D01*
X92521000Y-73651000D01*
G37*
G36*
X87441000Y-73651000D02*
G01*
X85339000Y-73651000D01*
X85339000Y-69549000D01*
X87441000Y-69549000D01*
X87441000Y-73651000D01*
G37*
G36*
X89981000Y-73651000D02*
G01*
X87879000Y-73651000D01*
X87879000Y-69549000D01*
X89981000Y-69549000D01*
X89981000Y-73651000D01*
G37*
G36*
X84901000Y-73651000D02*
G01*
X82799000Y-73651000D01*
X82799000Y-69549000D01*
X84901000Y-69549000D01*
X84901000Y-73651000D01*
G37*
G36*
X82361000Y-73651000D02*
G01*
X80259000Y-73651000D01*
X80259000Y-69549000D01*
X82361000Y-69549000D01*
X82361000Y-73651000D01*
G37*
M02*
