M48
; DRILL file {KiCad (5.1.5)-3} date 10/14/20 16:11:50
; FORMAT={3:3/ absolute / metric / suppress leading zeros}
; #@! TF.CreationDate,2020-10-14T16:11:50+02:00
; #@! TF.GenerationSoftware,Kicad,Pcbnew,(5.1.5)-3
FMAT,2
METRIC,TZ
T1C0.400
T2C1.000
%
G90
G05
T1
X61215Y-104780
X63104Y-113228
X63571Y-90642
X63801Y-98486
X63801Y-99624
X64414Y-100777
X64618Y-86116
X64690Y-125200
X64795Y-79515
X65232Y-96545
X65385Y-91912
X65580Y-111420
X66091Y-115362
X66218Y-77749
X66218Y-81191
X66243Y-79527
X66284Y-84709
X66761Y-91897
X67041Y-72278
X67709Y-86210
X67813Y-87784
X67831Y-77800
X67889Y-88781
X68936Y-78435
X69017Y-111222
X69088Y-92202
X70114Y-91186
X71205Y-92345
X71303Y-72222
X72015Y-110477
X72085Y-116410
X72649Y-106675
X72812Y-119000
X73005Y-110621
X73076Y-75362
X73095Y-92223
X73461Y-109731
X73706Y-106650
X74442Y-89591
X74670Y-111860
X74714Y-75375
X74859Y-119009
X75090Y-97220
X75349Y-86055
X75357Y-87519
X76058Y-107889
X76378Y-73762
X76378Y-75362
X76403Y-77038
X76403Y-89573
X76441Y-78778
X77246Y-111135
X77838Y-88075
X78067Y-92050
X78471Y-99360
X78760Y-114800
X78853Y-91273
X78994Y-89916
X79035Y-103266
X79792Y-102514
X79830Y-116460
X81260Y-125460
X81326Y-85044
X81600Y-107065
X82179Y-89002
X82494Y-86523
X83063Y-104902
X83070Y-99870
X85080Y-101392
X85319Y-94366
X85349Y-74478
X85954Y-84953
X86263Y-109606
X86270Y-121630
X86310Y-113310
X86639Y-77887
X87909Y-74554
X89020Y-111830
X89093Y-77836
X89251Y-108631
X89809Y-88240
X90460Y-74722
X90950Y-125540
X91040Y-84770
X91850Y-86930
X105867Y-87691
T2
X69977Y-121706
X69977Y-124206
X69120Y-72140
X87450Y-96340
X87450Y-101420
X87450Y-106500
X87950Y-93800
X87950Y-98880
X87950Y-103960
X80290Y-79350
X80290Y-81890
X82830Y-78850
X82830Y-81390
X85370Y-79350
X85370Y-81890
X87910Y-78850
X87910Y-81390
X90450Y-79350
X90450Y-81890
T0
M30
