G04 #@! TF.GenerationSoftware,KiCad,Pcbnew,(5.1.5)-3*
G04 #@! TF.CreationDate,2020-06-08T20:04:16+02:00*
G04 #@! TF.ProjectId,RHS_3,5248535f-332e-46b6-9963-61645f706362,rev?*
G04 #@! TF.SameCoordinates,Original*
G04 #@! TF.FileFunction,Soldermask,Bot*
G04 #@! TF.FilePolarity,Negative*
%FSLAX46Y46*%
G04 Gerber Fmt 4.6, Leading zero omitted, Abs format (unit mm)*
G04 Created by KiCad (PCBNEW (5.1.5)-3) date 2020-06-08 20:04:16*
%MOMM*%
%LPD*%
G04 APERTURE LIST*
%ADD10C,0.100000*%
G04 APERTURE END LIST*
D10*
G36*
X70885600Y-123308989D02*
G01*
X70918652Y-123319015D01*
X70949103Y-123335292D01*
X70975799Y-123357201D01*
X70997708Y-123383897D01*
X71013985Y-123414348D01*
X71024011Y-123447400D01*
X71028000Y-123487903D01*
X71028000Y-124924097D01*
X71024011Y-124964600D01*
X71013985Y-124997652D01*
X70997708Y-125028103D01*
X70975799Y-125054799D01*
X70949103Y-125076708D01*
X70918652Y-125092985D01*
X70885600Y-125103011D01*
X70845097Y-125107000D01*
X69108903Y-125107000D01*
X69068400Y-125103011D01*
X69035348Y-125092985D01*
X69004897Y-125076708D01*
X68978201Y-125054799D01*
X68956292Y-125028103D01*
X68940015Y-124997652D01*
X68929989Y-124964600D01*
X68926000Y-124924097D01*
X68926000Y-123487903D01*
X68929989Y-123447400D01*
X68940015Y-123414348D01*
X68956292Y-123383897D01*
X68978201Y-123357201D01*
X69004897Y-123335292D01*
X69035348Y-123319015D01*
X69068400Y-123308989D01*
X69108903Y-123305000D01*
X70845097Y-123305000D01*
X70885600Y-123308989D01*
G37*
G36*
X75391674Y-122196465D02*
G01*
X75429367Y-122207899D01*
X75464103Y-122226466D01*
X75494548Y-122251452D01*
X75519534Y-122281897D01*
X75538101Y-122316633D01*
X75549535Y-122354326D01*
X75554000Y-122399661D01*
X75554000Y-123236339D01*
X75549535Y-123281674D01*
X75538101Y-123319367D01*
X75519534Y-123354103D01*
X75494548Y-123384548D01*
X75464103Y-123409534D01*
X75429367Y-123428101D01*
X75391674Y-123439535D01*
X75346339Y-123444000D01*
X74259661Y-123444000D01*
X74214326Y-123439535D01*
X74176633Y-123428101D01*
X74141897Y-123409534D01*
X74111452Y-123384548D01*
X74086466Y-123354103D01*
X74067899Y-123319367D01*
X74056465Y-123281674D01*
X74052000Y-123236339D01*
X74052000Y-122399661D01*
X74056465Y-122354326D01*
X74067899Y-122316633D01*
X74086466Y-122281897D01*
X74111452Y-122251452D01*
X74141897Y-122226466D01*
X74176633Y-122207899D01*
X74214326Y-122196465D01*
X74259661Y-122192000D01*
X75346339Y-122192000D01*
X75391674Y-122196465D01*
G37*
G36*
X73232674Y-122196465D02*
G01*
X73270367Y-122207899D01*
X73305103Y-122226466D01*
X73335548Y-122251452D01*
X73360534Y-122281897D01*
X73379101Y-122316633D01*
X73390535Y-122354326D01*
X73395000Y-122399661D01*
X73395000Y-123236339D01*
X73390535Y-123281674D01*
X73379101Y-123319367D01*
X73360534Y-123354103D01*
X73335548Y-123384548D01*
X73305103Y-123409534D01*
X73270367Y-123428101D01*
X73232674Y-123439535D01*
X73187339Y-123444000D01*
X72100661Y-123444000D01*
X72055326Y-123439535D01*
X72017633Y-123428101D01*
X71982897Y-123409534D01*
X71952452Y-123384548D01*
X71927466Y-123354103D01*
X71908899Y-123319367D01*
X71897465Y-123281674D01*
X71893000Y-123236339D01*
X71893000Y-122399661D01*
X71897465Y-122354326D01*
X71908899Y-122316633D01*
X71927466Y-122281897D01*
X71952452Y-122251452D01*
X71982897Y-122226466D01*
X72017633Y-122207899D01*
X72055326Y-122196465D01*
X72100661Y-122192000D01*
X73187339Y-122192000D01*
X73232674Y-122196465D01*
G37*
G36*
X70237443Y-120811519D02*
G01*
X70303627Y-120818037D01*
X70473466Y-120869557D01*
X70629991Y-120953222D01*
X70665729Y-120982552D01*
X70767186Y-121065814D01*
X70850448Y-121167271D01*
X70879778Y-121203009D01*
X70963443Y-121359534D01*
X71014963Y-121529373D01*
X71032359Y-121706000D01*
X71014963Y-121882627D01*
X70963443Y-122052466D01*
X70879778Y-122208991D01*
X70856078Y-122237869D01*
X70767186Y-122346186D01*
X70688117Y-122411075D01*
X70629991Y-122458778D01*
X70473466Y-122542443D01*
X70303627Y-122593963D01*
X70237442Y-122600482D01*
X70171260Y-122607000D01*
X69782740Y-122607000D01*
X69716558Y-122600482D01*
X69650373Y-122593963D01*
X69480534Y-122542443D01*
X69324009Y-122458778D01*
X69265883Y-122411075D01*
X69186814Y-122346186D01*
X69097922Y-122237869D01*
X69074222Y-122208991D01*
X68990557Y-122052466D01*
X68939037Y-121882627D01*
X68921641Y-121706000D01*
X68939037Y-121529373D01*
X68990557Y-121359534D01*
X69074222Y-121203009D01*
X69103552Y-121167271D01*
X69186814Y-121065814D01*
X69288271Y-120982552D01*
X69324009Y-120953222D01*
X69480534Y-120869557D01*
X69650373Y-120818037D01*
X69716557Y-120811519D01*
X69782740Y-120805000D01*
X70171260Y-120805000D01*
X70237443Y-120811519D01*
G37*
G36*
X73232674Y-120146465D02*
G01*
X73270367Y-120157899D01*
X73305103Y-120176466D01*
X73335548Y-120201452D01*
X73360534Y-120231897D01*
X73379101Y-120266633D01*
X73390535Y-120304326D01*
X73395000Y-120349661D01*
X73395000Y-121186339D01*
X73390535Y-121231674D01*
X73379101Y-121269367D01*
X73360534Y-121304103D01*
X73335548Y-121334548D01*
X73305103Y-121359534D01*
X73270367Y-121378101D01*
X73232674Y-121389535D01*
X73187339Y-121394000D01*
X72100661Y-121394000D01*
X72055326Y-121389535D01*
X72017633Y-121378101D01*
X71982897Y-121359534D01*
X71952452Y-121334548D01*
X71927466Y-121304103D01*
X71908899Y-121269367D01*
X71897465Y-121231674D01*
X71893000Y-121186339D01*
X71893000Y-120349661D01*
X71897465Y-120304326D01*
X71908899Y-120266633D01*
X71927466Y-120231897D01*
X71952452Y-120201452D01*
X71982897Y-120176466D01*
X72017633Y-120157899D01*
X72055326Y-120146465D01*
X72100661Y-120142000D01*
X73187339Y-120142000D01*
X73232674Y-120146465D01*
G37*
G36*
X75391674Y-120146465D02*
G01*
X75429367Y-120157899D01*
X75464103Y-120176466D01*
X75494548Y-120201452D01*
X75519534Y-120231897D01*
X75538101Y-120266633D01*
X75549535Y-120304326D01*
X75554000Y-120349661D01*
X75554000Y-121186339D01*
X75549535Y-121231674D01*
X75538101Y-121269367D01*
X75519534Y-121304103D01*
X75494548Y-121334548D01*
X75464103Y-121359534D01*
X75429367Y-121378101D01*
X75391674Y-121389535D01*
X75346339Y-121394000D01*
X74259661Y-121394000D01*
X74214326Y-121389535D01*
X74176633Y-121378101D01*
X74141897Y-121359534D01*
X74111452Y-121334548D01*
X74086466Y-121304103D01*
X74067899Y-121269367D01*
X74056465Y-121231674D01*
X74052000Y-121186339D01*
X74052000Y-120349661D01*
X74056465Y-120304326D01*
X74067899Y-120266633D01*
X74086466Y-120231897D01*
X74111452Y-120201452D01*
X74141897Y-120176466D01*
X74176633Y-120157899D01*
X74214326Y-120146465D01*
X74259661Y-120142000D01*
X75346339Y-120142000D01*
X75391674Y-120146465D01*
G37*
G36*
X74598674Y-115663465D02*
G01*
X74636367Y-115674899D01*
X74671103Y-115693466D01*
X74701548Y-115718452D01*
X74726534Y-115748897D01*
X74745101Y-115783633D01*
X74756535Y-115821326D01*
X74761000Y-115866661D01*
X74761000Y-116953339D01*
X74756535Y-116998674D01*
X74745101Y-117036367D01*
X74726534Y-117071103D01*
X74701548Y-117101548D01*
X74671103Y-117126534D01*
X74636367Y-117145101D01*
X74598674Y-117156535D01*
X74553339Y-117161000D01*
X73716661Y-117161000D01*
X73671326Y-117156535D01*
X73633633Y-117145101D01*
X73598897Y-117126534D01*
X73568452Y-117101548D01*
X73543466Y-117071103D01*
X73524899Y-117036367D01*
X73513465Y-116998674D01*
X73509000Y-116953339D01*
X73509000Y-115866661D01*
X73513465Y-115821326D01*
X73524899Y-115783633D01*
X73543466Y-115748897D01*
X73568452Y-115718452D01*
X73598897Y-115693466D01*
X73633633Y-115674899D01*
X73671326Y-115663465D01*
X73716661Y-115659000D01*
X74553339Y-115659000D01*
X74598674Y-115663465D01*
G37*
G36*
X76608674Y-115663465D02*
G01*
X76646367Y-115674899D01*
X76681103Y-115693466D01*
X76711548Y-115718452D01*
X76736534Y-115748897D01*
X76755101Y-115783633D01*
X76766535Y-115821326D01*
X76771000Y-115866661D01*
X76771000Y-116953339D01*
X76766535Y-116998674D01*
X76755101Y-117036367D01*
X76736534Y-117071103D01*
X76711548Y-117101548D01*
X76681103Y-117126534D01*
X76646367Y-117145101D01*
X76608674Y-117156535D01*
X76563339Y-117161000D01*
X75726661Y-117161000D01*
X75681326Y-117156535D01*
X75643633Y-117145101D01*
X75608897Y-117126534D01*
X75578452Y-117101548D01*
X75553466Y-117071103D01*
X75534899Y-117036367D01*
X75523465Y-116998674D01*
X75519000Y-116953339D01*
X75519000Y-115866661D01*
X75523465Y-115821326D01*
X75534899Y-115783633D01*
X75553466Y-115748897D01*
X75578452Y-115718452D01*
X75608897Y-115693466D01*
X75643633Y-115674899D01*
X75681326Y-115663465D01*
X75726661Y-115659000D01*
X76563339Y-115659000D01*
X76608674Y-115663465D01*
G37*
G36*
X78658674Y-115663465D02*
G01*
X78696367Y-115674899D01*
X78731103Y-115693466D01*
X78761548Y-115718452D01*
X78786534Y-115748897D01*
X78805101Y-115783633D01*
X78816535Y-115821326D01*
X78821000Y-115866661D01*
X78821000Y-116953339D01*
X78816535Y-116998674D01*
X78805101Y-117036367D01*
X78786534Y-117071103D01*
X78761548Y-117101548D01*
X78731103Y-117126534D01*
X78696367Y-117145101D01*
X78658674Y-117156535D01*
X78613339Y-117161000D01*
X77776661Y-117161000D01*
X77731326Y-117156535D01*
X77693633Y-117145101D01*
X77658897Y-117126534D01*
X77628452Y-117101548D01*
X77603466Y-117071103D01*
X77584899Y-117036367D01*
X77573465Y-116998674D01*
X77569000Y-116953339D01*
X77569000Y-115866661D01*
X77573465Y-115821326D01*
X77584899Y-115783633D01*
X77603466Y-115748897D01*
X77628452Y-115718452D01*
X77658897Y-115693466D01*
X77693633Y-115674899D01*
X77731326Y-115663465D01*
X77776661Y-115659000D01*
X78613339Y-115659000D01*
X78658674Y-115663465D01*
G37*
G36*
X72548674Y-115663465D02*
G01*
X72586367Y-115674899D01*
X72621103Y-115693466D01*
X72651548Y-115718452D01*
X72676534Y-115748897D01*
X72695101Y-115783633D01*
X72706535Y-115821326D01*
X72711000Y-115866661D01*
X72711000Y-116953339D01*
X72706535Y-116998674D01*
X72695101Y-117036367D01*
X72676534Y-117071103D01*
X72651548Y-117101548D01*
X72621103Y-117126534D01*
X72586367Y-117145101D01*
X72548674Y-117156535D01*
X72503339Y-117161000D01*
X71666661Y-117161000D01*
X71621326Y-117156535D01*
X71583633Y-117145101D01*
X71548897Y-117126534D01*
X71518452Y-117101548D01*
X71493466Y-117071103D01*
X71474899Y-117036367D01*
X71463465Y-116998674D01*
X71459000Y-116953339D01*
X71459000Y-115866661D01*
X71463465Y-115821326D01*
X71474899Y-115783633D01*
X71493466Y-115748897D01*
X71518452Y-115718452D01*
X71548897Y-115693466D01*
X71583633Y-115674899D01*
X71621326Y-115663465D01*
X71666661Y-115659000D01*
X72503339Y-115659000D01*
X72548674Y-115663465D01*
G37*
G36*
X77766000Y-114151000D02*
G01*
X71514000Y-114151000D01*
X71514000Y-112449000D01*
X77766000Y-112449000D01*
X77766000Y-114151000D01*
G37*
G36*
X95528674Y-112493465D02*
G01*
X95566367Y-112504899D01*
X95601103Y-112523466D01*
X95631548Y-112548452D01*
X95656534Y-112578897D01*
X95675101Y-112613633D01*
X95686535Y-112651326D01*
X95691000Y-112696661D01*
X95691000Y-113533339D01*
X95686535Y-113578674D01*
X95675101Y-113616367D01*
X95656534Y-113651103D01*
X95631548Y-113681548D01*
X95601103Y-113706534D01*
X95566367Y-113725101D01*
X95528674Y-113736535D01*
X95483339Y-113741000D01*
X94396661Y-113741000D01*
X94351326Y-113736535D01*
X94313633Y-113725101D01*
X94278897Y-113706534D01*
X94248452Y-113681548D01*
X94223466Y-113651103D01*
X94204899Y-113616367D01*
X94193465Y-113578674D01*
X94189000Y-113533339D01*
X94189000Y-112696661D01*
X94193465Y-112651326D01*
X94204899Y-112613633D01*
X94223466Y-112578897D01*
X94248452Y-112548452D01*
X94278897Y-112523466D01*
X94313633Y-112504899D01*
X94351326Y-112493465D01*
X94396661Y-112489000D01*
X95483339Y-112489000D01*
X95528674Y-112493465D01*
G37*
G36*
X97708674Y-112493465D02*
G01*
X97746367Y-112504899D01*
X97781103Y-112523466D01*
X97811548Y-112548452D01*
X97836534Y-112578897D01*
X97855101Y-112613633D01*
X97866535Y-112651326D01*
X97871000Y-112696661D01*
X97871000Y-113533339D01*
X97866535Y-113578674D01*
X97855101Y-113616367D01*
X97836534Y-113651103D01*
X97811548Y-113681548D01*
X97781103Y-113706534D01*
X97746367Y-113725101D01*
X97708674Y-113736535D01*
X97663339Y-113741000D01*
X96576661Y-113741000D01*
X96531326Y-113736535D01*
X96493633Y-113725101D01*
X96458897Y-113706534D01*
X96428452Y-113681548D01*
X96403466Y-113651103D01*
X96384899Y-113616367D01*
X96373465Y-113578674D01*
X96369000Y-113533339D01*
X96369000Y-112696661D01*
X96373465Y-112651326D01*
X96384899Y-112613633D01*
X96403466Y-112578897D01*
X96428452Y-112548452D01*
X96458897Y-112523466D01*
X96493633Y-112504899D01*
X96531326Y-112493465D01*
X96576661Y-112489000D01*
X97663339Y-112489000D01*
X97708674Y-112493465D01*
G37*
G36*
X103478674Y-112463465D02*
G01*
X103516367Y-112474899D01*
X103551103Y-112493466D01*
X103581548Y-112518452D01*
X103606534Y-112548897D01*
X103625101Y-112583633D01*
X103636535Y-112621326D01*
X103641000Y-112666661D01*
X103641000Y-113503339D01*
X103636535Y-113548674D01*
X103625101Y-113586367D01*
X103606534Y-113621103D01*
X103581548Y-113651548D01*
X103551103Y-113676534D01*
X103516367Y-113695101D01*
X103478674Y-113706535D01*
X103433339Y-113711000D01*
X102346661Y-113711000D01*
X102301326Y-113706535D01*
X102263633Y-113695101D01*
X102228897Y-113676534D01*
X102198452Y-113651548D01*
X102173466Y-113621103D01*
X102154899Y-113586367D01*
X102143465Y-113548674D01*
X102139000Y-113503339D01*
X102139000Y-112666661D01*
X102143465Y-112621326D01*
X102154899Y-112583633D01*
X102173466Y-112548897D01*
X102198452Y-112518452D01*
X102228897Y-112493466D01*
X102263633Y-112474899D01*
X102301326Y-112463465D01*
X102346661Y-112459000D01*
X103433339Y-112459000D01*
X103478674Y-112463465D01*
G37*
G36*
X99501000Y-113501000D02*
G01*
X98299000Y-113501000D01*
X98299000Y-112399000D01*
X99501000Y-112399000D01*
X99501000Y-113501000D01*
G37*
G36*
X67818674Y-111783465D02*
G01*
X67856367Y-111794899D01*
X67891103Y-111813466D01*
X67921548Y-111838452D01*
X67946534Y-111868897D01*
X67965101Y-111903633D01*
X67976535Y-111941326D01*
X67981000Y-111986661D01*
X67981000Y-112823339D01*
X67976535Y-112868674D01*
X67965101Y-112906367D01*
X67946534Y-112941103D01*
X67921548Y-112971548D01*
X67891103Y-112996534D01*
X67856367Y-113015101D01*
X67818674Y-113026535D01*
X67773339Y-113031000D01*
X66686661Y-113031000D01*
X66641326Y-113026535D01*
X66603633Y-113015101D01*
X66568897Y-112996534D01*
X66538452Y-112971548D01*
X66513466Y-112941103D01*
X66494899Y-112906367D01*
X66483465Y-112868674D01*
X66479000Y-112823339D01*
X66479000Y-111986661D01*
X66483465Y-111941326D01*
X66494899Y-111903633D01*
X66513466Y-111868897D01*
X66538452Y-111838452D01*
X66568897Y-111813466D01*
X66603633Y-111794899D01*
X66641326Y-111783465D01*
X66686661Y-111779000D01*
X67773339Y-111779000D01*
X67818674Y-111783465D01*
G37*
G36*
X101701000Y-112551000D02*
G01*
X100499000Y-112551000D01*
X100499000Y-111449000D01*
X101701000Y-111449000D01*
X101701000Y-112551000D01*
G37*
G36*
X71241000Y-112176000D02*
G01*
X69539000Y-112176000D01*
X69539000Y-105924000D01*
X71241000Y-105924000D01*
X71241000Y-112176000D01*
G37*
G36*
X79741000Y-112176000D02*
G01*
X78039000Y-112176000D01*
X78039000Y-105924000D01*
X79741000Y-105924000D01*
X79741000Y-112176000D01*
G37*
G36*
X95528674Y-110443465D02*
G01*
X95566367Y-110454899D01*
X95601103Y-110473466D01*
X95631548Y-110498452D01*
X95656534Y-110528897D01*
X95675101Y-110563633D01*
X95686535Y-110601326D01*
X95691000Y-110646661D01*
X95691000Y-111483339D01*
X95686535Y-111528674D01*
X95675101Y-111566367D01*
X95656534Y-111601103D01*
X95631548Y-111631548D01*
X95601103Y-111656534D01*
X95566367Y-111675101D01*
X95528674Y-111686535D01*
X95483339Y-111691000D01*
X94396661Y-111691000D01*
X94351326Y-111686535D01*
X94313633Y-111675101D01*
X94278897Y-111656534D01*
X94248452Y-111631548D01*
X94223466Y-111601103D01*
X94204899Y-111566367D01*
X94193465Y-111528674D01*
X94189000Y-111483339D01*
X94189000Y-110646661D01*
X94193465Y-110601326D01*
X94204899Y-110563633D01*
X94223466Y-110528897D01*
X94248452Y-110498452D01*
X94278897Y-110473466D01*
X94313633Y-110454899D01*
X94351326Y-110443465D01*
X94396661Y-110439000D01*
X95483339Y-110439000D01*
X95528674Y-110443465D01*
G37*
G36*
X97708674Y-110443465D02*
G01*
X97746367Y-110454899D01*
X97781103Y-110473466D01*
X97811548Y-110498452D01*
X97836534Y-110528897D01*
X97855101Y-110563633D01*
X97866535Y-110601326D01*
X97871000Y-110646661D01*
X97871000Y-111483339D01*
X97866535Y-111528674D01*
X97855101Y-111566367D01*
X97836534Y-111601103D01*
X97811548Y-111631548D01*
X97781103Y-111656534D01*
X97746367Y-111675101D01*
X97708674Y-111686535D01*
X97663339Y-111691000D01*
X96576661Y-111691000D01*
X96531326Y-111686535D01*
X96493633Y-111675101D01*
X96458897Y-111656534D01*
X96428452Y-111631548D01*
X96403466Y-111601103D01*
X96384899Y-111566367D01*
X96373465Y-111528674D01*
X96369000Y-111483339D01*
X96369000Y-110646661D01*
X96373465Y-110601326D01*
X96384899Y-110563633D01*
X96403466Y-110528897D01*
X96428452Y-110498452D01*
X96458897Y-110473466D01*
X96493633Y-110454899D01*
X96531326Y-110443465D01*
X96576661Y-110439000D01*
X97663339Y-110439000D01*
X97708674Y-110443465D01*
G37*
G36*
X103478674Y-110413465D02*
G01*
X103516367Y-110424899D01*
X103551103Y-110443466D01*
X103581548Y-110468452D01*
X103606534Y-110498897D01*
X103625101Y-110533633D01*
X103636535Y-110571326D01*
X103641000Y-110616661D01*
X103641000Y-111453339D01*
X103636535Y-111498674D01*
X103625101Y-111536367D01*
X103606534Y-111571103D01*
X103581548Y-111601548D01*
X103551103Y-111626534D01*
X103516367Y-111645101D01*
X103478674Y-111656535D01*
X103433339Y-111661000D01*
X102346661Y-111661000D01*
X102301326Y-111656535D01*
X102263633Y-111645101D01*
X102228897Y-111626534D01*
X102198452Y-111601548D01*
X102173466Y-111571103D01*
X102154899Y-111536367D01*
X102143465Y-111498674D01*
X102139000Y-111453339D01*
X102139000Y-110616661D01*
X102143465Y-110571326D01*
X102154899Y-110533633D01*
X102173466Y-110498897D01*
X102198452Y-110468452D01*
X102228897Y-110443466D01*
X102263633Y-110424899D01*
X102301326Y-110413465D01*
X102346661Y-110409000D01*
X103433339Y-110409000D01*
X103478674Y-110413465D01*
G37*
G36*
X99501000Y-111601000D02*
G01*
X98299000Y-111601000D01*
X98299000Y-110499000D01*
X99501000Y-110499000D01*
X99501000Y-111601000D01*
G37*
G36*
X67818674Y-109733465D02*
G01*
X67856367Y-109744899D01*
X67891103Y-109763466D01*
X67921548Y-109788452D01*
X67946534Y-109818897D01*
X67965101Y-109853633D01*
X67976535Y-109891326D01*
X67981000Y-109936661D01*
X67981000Y-110773339D01*
X67976535Y-110818674D01*
X67965101Y-110856367D01*
X67946534Y-110891103D01*
X67921548Y-110921548D01*
X67891103Y-110946534D01*
X67856367Y-110965101D01*
X67818674Y-110976535D01*
X67773339Y-110981000D01*
X66686661Y-110981000D01*
X66641326Y-110976535D01*
X66603633Y-110965101D01*
X66568897Y-110946534D01*
X66538452Y-110921548D01*
X66513466Y-110891103D01*
X66494899Y-110856367D01*
X66483465Y-110818674D01*
X66479000Y-110773339D01*
X66479000Y-109936661D01*
X66483465Y-109891326D01*
X66494899Y-109853633D01*
X66513466Y-109818897D01*
X66538452Y-109788452D01*
X66568897Y-109763466D01*
X66603633Y-109744899D01*
X66641326Y-109733465D01*
X66686661Y-109729000D01*
X67773339Y-109729000D01*
X67818674Y-109733465D01*
G37*
G36*
X62958674Y-109313465D02*
G01*
X62996367Y-109324899D01*
X63031103Y-109343466D01*
X63061548Y-109368452D01*
X63086534Y-109398897D01*
X63105101Y-109433633D01*
X63116535Y-109471326D01*
X63121000Y-109516661D01*
X63121000Y-110603339D01*
X63116535Y-110648674D01*
X63105101Y-110686367D01*
X63086534Y-110721103D01*
X63061548Y-110751548D01*
X63031103Y-110776534D01*
X62996367Y-110795101D01*
X62958674Y-110806535D01*
X62913339Y-110811000D01*
X62076661Y-110811000D01*
X62031326Y-110806535D01*
X61993633Y-110795101D01*
X61958897Y-110776534D01*
X61928452Y-110751548D01*
X61903466Y-110721103D01*
X61884899Y-110686367D01*
X61873465Y-110648674D01*
X61869000Y-110603339D01*
X61869000Y-109516661D01*
X61873465Y-109471326D01*
X61884899Y-109433633D01*
X61903466Y-109398897D01*
X61928452Y-109368452D01*
X61958897Y-109343466D01*
X61993633Y-109324899D01*
X62031326Y-109313465D01*
X62076661Y-109309000D01*
X62913339Y-109309000D01*
X62958674Y-109313465D01*
G37*
G36*
X65008674Y-109313465D02*
G01*
X65046367Y-109324899D01*
X65081103Y-109343466D01*
X65111548Y-109368452D01*
X65136534Y-109398897D01*
X65155101Y-109433633D01*
X65166535Y-109471326D01*
X65171000Y-109516661D01*
X65171000Y-110603339D01*
X65166535Y-110648674D01*
X65155101Y-110686367D01*
X65136534Y-110721103D01*
X65111548Y-110751548D01*
X65081103Y-110776534D01*
X65046367Y-110795101D01*
X65008674Y-110806535D01*
X64963339Y-110811000D01*
X64126661Y-110811000D01*
X64081326Y-110806535D01*
X64043633Y-110795101D01*
X64008897Y-110776534D01*
X63978452Y-110751548D01*
X63953466Y-110721103D01*
X63934899Y-110686367D01*
X63923465Y-110648674D01*
X63919000Y-110603339D01*
X63919000Y-109516661D01*
X63923465Y-109471326D01*
X63934899Y-109433633D01*
X63953466Y-109398897D01*
X63978452Y-109368452D01*
X64008897Y-109343466D01*
X64043633Y-109324899D01*
X64081326Y-109313465D01*
X64126661Y-109309000D01*
X64963339Y-109309000D01*
X65008674Y-109313465D01*
G37*
G36*
X82188674Y-108493465D02*
G01*
X82226367Y-108504899D01*
X82261103Y-108523466D01*
X82291548Y-108548452D01*
X82316534Y-108578897D01*
X82335101Y-108613633D01*
X82346535Y-108651326D01*
X82351000Y-108696661D01*
X82351000Y-109533339D01*
X82346535Y-109578674D01*
X82335101Y-109616367D01*
X82316534Y-109651103D01*
X82291548Y-109681548D01*
X82261103Y-109706534D01*
X82226367Y-109725101D01*
X82188674Y-109736535D01*
X82143339Y-109741000D01*
X81056661Y-109741000D01*
X81011326Y-109736535D01*
X80973633Y-109725101D01*
X80938897Y-109706534D01*
X80908452Y-109681548D01*
X80883466Y-109651103D01*
X80864899Y-109616367D01*
X80853465Y-109578674D01*
X80849000Y-109533339D01*
X80849000Y-108696661D01*
X80853465Y-108651326D01*
X80864899Y-108613633D01*
X80883466Y-108578897D01*
X80908452Y-108548452D01*
X80938897Y-108523466D01*
X80973633Y-108504899D01*
X81011326Y-108493465D01*
X81056661Y-108489000D01*
X82143339Y-108489000D01*
X82188674Y-108493465D01*
G37*
G36*
X68131000Y-108771000D02*
G01*
X66229000Y-108771000D01*
X66229000Y-107669000D01*
X68131000Y-107669000D01*
X68131000Y-108771000D01*
G37*
G36*
X65058674Y-106933465D02*
G01*
X65096367Y-106944899D01*
X65131103Y-106963466D01*
X65161548Y-106988452D01*
X65186534Y-107018897D01*
X65205101Y-107053633D01*
X65216535Y-107091326D01*
X65221000Y-107136661D01*
X65221000Y-108223339D01*
X65216535Y-108268674D01*
X65205101Y-108306367D01*
X65186534Y-108341103D01*
X65161548Y-108371548D01*
X65131103Y-108396534D01*
X65096367Y-108415101D01*
X65058674Y-108426535D01*
X65013339Y-108431000D01*
X64176661Y-108431000D01*
X64131326Y-108426535D01*
X64093633Y-108415101D01*
X64058897Y-108396534D01*
X64028452Y-108371548D01*
X64003466Y-108341103D01*
X63984899Y-108306367D01*
X63973465Y-108268674D01*
X63969000Y-108223339D01*
X63969000Y-107136661D01*
X63973465Y-107091326D01*
X63984899Y-107053633D01*
X64003466Y-107018897D01*
X64028452Y-106988452D01*
X64058897Y-106963466D01*
X64093633Y-106944899D01*
X64131326Y-106933465D01*
X64176661Y-106929000D01*
X65013339Y-106929000D01*
X65058674Y-106933465D01*
G37*
G36*
X63008674Y-106933465D02*
G01*
X63046367Y-106944899D01*
X63081103Y-106963466D01*
X63111548Y-106988452D01*
X63136534Y-107018897D01*
X63155101Y-107053633D01*
X63166535Y-107091326D01*
X63171000Y-107136661D01*
X63171000Y-108223339D01*
X63166535Y-108268674D01*
X63155101Y-108306367D01*
X63136534Y-108341103D01*
X63111548Y-108371548D01*
X63081103Y-108396534D01*
X63046367Y-108415101D01*
X63008674Y-108426535D01*
X62963339Y-108431000D01*
X62126661Y-108431000D01*
X62081326Y-108426535D01*
X62043633Y-108415101D01*
X62008897Y-108396534D01*
X61978452Y-108371548D01*
X61953466Y-108341103D01*
X61934899Y-108306367D01*
X61923465Y-108268674D01*
X61919000Y-108223339D01*
X61919000Y-107136661D01*
X61923465Y-107091326D01*
X61934899Y-107053633D01*
X61953466Y-107018897D01*
X61978452Y-106988452D01*
X62008897Y-106963466D01*
X62043633Y-106944899D01*
X62081326Y-106933465D01*
X62126661Y-106929000D01*
X62963339Y-106929000D01*
X63008674Y-106933465D01*
G37*
G36*
X82188674Y-106443465D02*
G01*
X82226367Y-106454899D01*
X82261103Y-106473466D01*
X82291548Y-106498452D01*
X82316534Y-106528897D01*
X82335101Y-106563633D01*
X82346535Y-106601326D01*
X82351000Y-106646661D01*
X82351000Y-107483339D01*
X82346535Y-107528674D01*
X82335101Y-107566367D01*
X82316534Y-107601103D01*
X82291548Y-107631548D01*
X82261103Y-107656534D01*
X82226367Y-107675101D01*
X82188674Y-107686535D01*
X82143339Y-107691000D01*
X81056661Y-107691000D01*
X81011326Y-107686535D01*
X80973633Y-107675101D01*
X80938897Y-107656534D01*
X80908452Y-107631548D01*
X80883466Y-107601103D01*
X80864899Y-107566367D01*
X80853465Y-107528674D01*
X80849000Y-107483339D01*
X80849000Y-106646661D01*
X80853465Y-106601326D01*
X80864899Y-106563633D01*
X80883466Y-106528897D01*
X80908452Y-106498452D01*
X80938897Y-106473466D01*
X80973633Y-106454899D01*
X81011326Y-106443465D01*
X81056661Y-106439000D01*
X82143339Y-106439000D01*
X82188674Y-106443465D01*
G37*
G36*
X88351000Y-107401000D02*
G01*
X86549000Y-107401000D01*
X86549000Y-105599000D01*
X88351000Y-105599000D01*
X88351000Y-107401000D01*
G37*
G36*
X68131000Y-106271000D02*
G01*
X66229000Y-106271000D01*
X66229000Y-105169000D01*
X68131000Y-105169000D01*
X68131000Y-106271000D01*
G37*
G36*
X77766000Y-105651000D02*
G01*
X71514000Y-105651000D01*
X71514000Y-103949000D01*
X77766000Y-103949000D01*
X77766000Y-105651000D01*
G37*
G36*
X63708674Y-104053465D02*
G01*
X63746367Y-104064899D01*
X63781103Y-104083466D01*
X63811548Y-104108452D01*
X63836534Y-104138897D01*
X63855101Y-104173633D01*
X63866535Y-104211326D01*
X63871000Y-104256661D01*
X63871000Y-105343339D01*
X63866535Y-105388674D01*
X63855101Y-105426367D01*
X63836534Y-105461103D01*
X63811548Y-105491548D01*
X63781103Y-105516534D01*
X63746367Y-105535101D01*
X63708674Y-105546535D01*
X63663339Y-105551000D01*
X62826661Y-105551000D01*
X62781326Y-105546535D01*
X62743633Y-105535101D01*
X62708897Y-105516534D01*
X62678452Y-105491548D01*
X62653466Y-105461103D01*
X62634899Y-105426367D01*
X62623465Y-105388674D01*
X62619000Y-105343339D01*
X62619000Y-104256661D01*
X62623465Y-104211326D01*
X62634899Y-104173633D01*
X62653466Y-104138897D01*
X62678452Y-104108452D01*
X62708897Y-104083466D01*
X62743633Y-104064899D01*
X62781326Y-104053465D01*
X62826661Y-104049000D01*
X63663339Y-104049000D01*
X63708674Y-104053465D01*
G37*
G36*
X61658674Y-104053465D02*
G01*
X61696367Y-104064899D01*
X61731103Y-104083466D01*
X61761548Y-104108452D01*
X61786534Y-104138897D01*
X61805101Y-104173633D01*
X61816535Y-104211326D01*
X61821000Y-104256661D01*
X61821000Y-105343339D01*
X61816535Y-105388674D01*
X61805101Y-105426367D01*
X61786534Y-105461103D01*
X61761548Y-105491548D01*
X61731103Y-105516534D01*
X61696367Y-105535101D01*
X61658674Y-105546535D01*
X61613339Y-105551000D01*
X60776661Y-105551000D01*
X60731326Y-105546535D01*
X60693633Y-105535101D01*
X60658897Y-105516534D01*
X60628452Y-105491548D01*
X60603466Y-105461103D01*
X60584899Y-105426367D01*
X60573465Y-105388674D01*
X60569000Y-105343339D01*
X60569000Y-104256661D01*
X60573465Y-104211326D01*
X60584899Y-104173633D01*
X60603466Y-104138897D01*
X60628452Y-104108452D01*
X60658897Y-104083466D01*
X60693633Y-104064899D01*
X60731326Y-104053465D01*
X60776661Y-104049000D01*
X61613339Y-104049000D01*
X61658674Y-104053465D01*
G37*
G36*
X88063512Y-103063927D02*
G01*
X88212812Y-103093624D01*
X88376784Y-103161544D01*
X88524354Y-103260147D01*
X88649853Y-103385646D01*
X88748456Y-103533216D01*
X88816376Y-103697188D01*
X88846073Y-103846488D01*
X88851000Y-103871258D01*
X88851000Y-104048742D01*
X88849908Y-104054230D01*
X88816376Y-104222812D01*
X88748456Y-104386784D01*
X88649853Y-104534354D01*
X88524354Y-104659853D01*
X88376784Y-104758456D01*
X88212812Y-104826376D01*
X88063512Y-104856073D01*
X88038742Y-104861000D01*
X87861258Y-104861000D01*
X87836488Y-104856073D01*
X87687188Y-104826376D01*
X87523216Y-104758456D01*
X87375646Y-104659853D01*
X87250147Y-104534354D01*
X87151544Y-104386784D01*
X87083624Y-104222812D01*
X87050092Y-104054230D01*
X87049000Y-104048742D01*
X87049000Y-103871258D01*
X87053927Y-103846488D01*
X87083624Y-103697188D01*
X87151544Y-103533216D01*
X87250147Y-103385646D01*
X87375646Y-103260147D01*
X87523216Y-103161544D01*
X87687188Y-103093624D01*
X87836488Y-103063927D01*
X87861258Y-103059000D01*
X88038742Y-103059000D01*
X88063512Y-103063927D01*
G37*
G36*
X61678674Y-101963465D02*
G01*
X61716367Y-101974899D01*
X61751103Y-101993466D01*
X61781548Y-102018452D01*
X61806534Y-102048897D01*
X61825101Y-102083633D01*
X61836535Y-102121326D01*
X61841000Y-102166661D01*
X61841000Y-103253339D01*
X61836535Y-103298674D01*
X61825101Y-103336367D01*
X61806534Y-103371103D01*
X61781548Y-103401548D01*
X61751103Y-103426534D01*
X61716367Y-103445101D01*
X61678674Y-103456535D01*
X61633339Y-103461000D01*
X60796661Y-103461000D01*
X60751326Y-103456535D01*
X60713633Y-103445101D01*
X60678897Y-103426534D01*
X60648452Y-103401548D01*
X60623466Y-103371103D01*
X60604899Y-103336367D01*
X60593465Y-103298674D01*
X60589000Y-103253339D01*
X60589000Y-102166661D01*
X60593465Y-102121326D01*
X60604899Y-102083633D01*
X60623466Y-102048897D01*
X60648452Y-102018452D01*
X60678897Y-101993466D01*
X60713633Y-101974899D01*
X60751326Y-101963465D01*
X60796661Y-101959000D01*
X61633339Y-101959000D01*
X61678674Y-101963465D01*
G37*
G36*
X63728674Y-101963465D02*
G01*
X63766367Y-101974899D01*
X63801103Y-101993466D01*
X63831548Y-102018452D01*
X63856534Y-102048897D01*
X63875101Y-102083633D01*
X63886535Y-102121326D01*
X63891000Y-102166661D01*
X63891000Y-103253339D01*
X63886535Y-103298674D01*
X63875101Y-103336367D01*
X63856534Y-103371103D01*
X63831548Y-103401548D01*
X63801103Y-103426534D01*
X63766367Y-103445101D01*
X63728674Y-103456535D01*
X63683339Y-103461000D01*
X62846661Y-103461000D01*
X62801326Y-103456535D01*
X62763633Y-103445101D01*
X62728897Y-103426534D01*
X62698452Y-103401548D01*
X62673466Y-103371103D01*
X62654899Y-103336367D01*
X62643465Y-103298674D01*
X62639000Y-103253339D01*
X62639000Y-102166661D01*
X62643465Y-102121326D01*
X62654899Y-102083633D01*
X62673466Y-102048897D01*
X62698452Y-102018452D01*
X62728897Y-101993466D01*
X62763633Y-101974899D01*
X62801326Y-101963465D01*
X62846661Y-101959000D01*
X63683339Y-101959000D01*
X63728674Y-101963465D01*
G37*
G36*
X70028674Y-102053465D02*
G01*
X70066367Y-102064899D01*
X70101103Y-102083466D01*
X70131548Y-102108452D01*
X70156534Y-102138897D01*
X70175101Y-102173633D01*
X70186535Y-102211326D01*
X70191000Y-102256661D01*
X70191000Y-103093339D01*
X70186535Y-103138674D01*
X70175101Y-103176367D01*
X70156534Y-103211103D01*
X70131548Y-103241548D01*
X70101103Y-103266534D01*
X70066367Y-103285101D01*
X70028674Y-103296535D01*
X69983339Y-103301000D01*
X68896661Y-103301000D01*
X68851326Y-103296535D01*
X68813633Y-103285101D01*
X68778897Y-103266534D01*
X68748452Y-103241548D01*
X68723466Y-103211103D01*
X68704899Y-103176367D01*
X68693465Y-103138674D01*
X68689000Y-103093339D01*
X68689000Y-102256661D01*
X68693465Y-102211326D01*
X68704899Y-102173633D01*
X68723466Y-102138897D01*
X68748452Y-102108452D01*
X68778897Y-102083466D01*
X68813633Y-102064899D01*
X68851326Y-102053465D01*
X68896661Y-102049000D01*
X69983339Y-102049000D01*
X70028674Y-102053465D01*
G37*
G36*
X67838674Y-102043465D02*
G01*
X67876367Y-102054899D01*
X67911103Y-102073466D01*
X67941548Y-102098452D01*
X67966534Y-102128897D01*
X67985101Y-102163633D01*
X67996535Y-102201326D01*
X68001000Y-102246661D01*
X68001000Y-103083339D01*
X67996535Y-103128674D01*
X67985101Y-103166367D01*
X67966534Y-103201103D01*
X67941548Y-103231548D01*
X67911103Y-103256534D01*
X67876367Y-103275101D01*
X67838674Y-103286535D01*
X67793339Y-103291000D01*
X66706661Y-103291000D01*
X66661326Y-103286535D01*
X66623633Y-103275101D01*
X66588897Y-103256534D01*
X66558452Y-103231548D01*
X66533466Y-103201103D01*
X66514899Y-103166367D01*
X66503465Y-103128674D01*
X66499000Y-103083339D01*
X66499000Y-102246661D01*
X66503465Y-102201326D01*
X66514899Y-102163633D01*
X66533466Y-102128897D01*
X66558452Y-102098452D01*
X66588897Y-102073466D01*
X66623633Y-102054899D01*
X66661326Y-102043465D01*
X66706661Y-102039000D01*
X67793339Y-102039000D01*
X67838674Y-102043465D01*
G37*
G36*
X87563512Y-100523927D02*
G01*
X87712812Y-100553624D01*
X87876784Y-100621544D01*
X88024354Y-100720147D01*
X88149853Y-100845646D01*
X88248456Y-100993216D01*
X88316376Y-101157188D01*
X88351000Y-101331259D01*
X88351000Y-101508741D01*
X88316376Y-101682812D01*
X88248456Y-101846784D01*
X88149853Y-101994354D01*
X88024354Y-102119853D01*
X87876784Y-102218456D01*
X87712812Y-102286376D01*
X87563512Y-102316073D01*
X87538742Y-102321000D01*
X87361258Y-102321000D01*
X87336488Y-102316073D01*
X87187188Y-102286376D01*
X87023216Y-102218456D01*
X86875646Y-102119853D01*
X86750147Y-101994354D01*
X86651544Y-101846784D01*
X86583624Y-101682812D01*
X86549000Y-101508741D01*
X86549000Y-101331259D01*
X86583624Y-101157188D01*
X86651544Y-100993216D01*
X86750147Y-100845646D01*
X86875646Y-100720147D01*
X87023216Y-100621544D01*
X87187188Y-100553624D01*
X87336488Y-100523927D01*
X87361258Y-100519000D01*
X87538742Y-100519000D01*
X87563512Y-100523927D01*
G37*
G36*
X61751000Y-101576000D02*
G01*
X60649000Y-101576000D01*
X60649000Y-100374000D01*
X61751000Y-100374000D01*
X61751000Y-101576000D01*
G37*
G36*
X63651000Y-101576000D02*
G01*
X62549000Y-101576000D01*
X62549000Y-100374000D01*
X63651000Y-100374000D01*
X63651000Y-101576000D01*
G37*
G36*
X70028674Y-100003465D02*
G01*
X70066367Y-100014899D01*
X70101103Y-100033466D01*
X70131548Y-100058452D01*
X70156534Y-100088897D01*
X70175101Y-100123633D01*
X70186535Y-100161326D01*
X70191000Y-100206661D01*
X70191000Y-101043339D01*
X70186535Y-101088674D01*
X70175101Y-101126367D01*
X70156534Y-101161103D01*
X70131548Y-101191548D01*
X70101103Y-101216534D01*
X70066367Y-101235101D01*
X70028674Y-101246535D01*
X69983339Y-101251000D01*
X68896661Y-101251000D01*
X68851326Y-101246535D01*
X68813633Y-101235101D01*
X68778897Y-101216534D01*
X68748452Y-101191548D01*
X68723466Y-101161103D01*
X68704899Y-101126367D01*
X68693465Y-101088674D01*
X68689000Y-101043339D01*
X68689000Y-100206661D01*
X68693465Y-100161326D01*
X68704899Y-100123633D01*
X68723466Y-100088897D01*
X68748452Y-100058452D01*
X68778897Y-100033466D01*
X68813633Y-100014899D01*
X68851326Y-100003465D01*
X68896661Y-99999000D01*
X69983339Y-99999000D01*
X70028674Y-100003465D01*
G37*
G36*
X67838674Y-99993465D02*
G01*
X67876367Y-100004899D01*
X67911103Y-100023466D01*
X67941548Y-100048452D01*
X67966534Y-100078897D01*
X67985101Y-100113633D01*
X67996535Y-100151326D01*
X68001000Y-100196661D01*
X68001000Y-101033339D01*
X67996535Y-101078674D01*
X67985101Y-101116367D01*
X67966534Y-101151103D01*
X67941548Y-101181548D01*
X67911103Y-101206534D01*
X67876367Y-101225101D01*
X67838674Y-101236535D01*
X67793339Y-101241000D01*
X66706661Y-101241000D01*
X66661326Y-101236535D01*
X66623633Y-101225101D01*
X66588897Y-101206534D01*
X66558452Y-101181548D01*
X66533466Y-101151103D01*
X66514899Y-101116367D01*
X66503465Y-101078674D01*
X66499000Y-101033339D01*
X66499000Y-100196661D01*
X66503465Y-100151326D01*
X66514899Y-100113633D01*
X66533466Y-100078897D01*
X66558452Y-100048452D01*
X66588897Y-100023466D01*
X66623633Y-100004899D01*
X66661326Y-99993465D01*
X66706661Y-99989000D01*
X67793339Y-99989000D01*
X67838674Y-99993465D01*
G37*
G36*
X88063512Y-97983927D02*
G01*
X88212812Y-98013624D01*
X88376784Y-98081544D01*
X88524354Y-98180147D01*
X88649853Y-98305646D01*
X88748456Y-98453216D01*
X88816376Y-98617188D01*
X88851000Y-98791259D01*
X88851000Y-98968741D01*
X88816376Y-99142812D01*
X88748456Y-99306784D01*
X88649853Y-99454354D01*
X88524354Y-99579853D01*
X88376784Y-99678456D01*
X88212812Y-99746376D01*
X88063512Y-99776073D01*
X88038742Y-99781000D01*
X87861258Y-99781000D01*
X87836488Y-99776073D01*
X87687188Y-99746376D01*
X87523216Y-99678456D01*
X87375646Y-99579853D01*
X87250147Y-99454354D01*
X87151544Y-99306784D01*
X87083624Y-99142812D01*
X87049000Y-98968741D01*
X87049000Y-98791259D01*
X87083624Y-98617188D01*
X87151544Y-98453216D01*
X87250147Y-98305646D01*
X87375646Y-98180147D01*
X87523216Y-98081544D01*
X87687188Y-98013624D01*
X87836488Y-97983927D01*
X87861258Y-97979000D01*
X88038742Y-97979000D01*
X88063512Y-97983927D01*
G37*
G36*
X62701000Y-99376000D02*
G01*
X61599000Y-99376000D01*
X61599000Y-98174000D01*
X62701000Y-98174000D01*
X62701000Y-99376000D01*
G37*
G36*
X77618674Y-96453465D02*
G01*
X77656367Y-96464899D01*
X77691103Y-96483466D01*
X77721548Y-96508452D01*
X77746534Y-96538897D01*
X77765101Y-96573633D01*
X77776535Y-96611326D01*
X77781000Y-96656661D01*
X77781000Y-97743339D01*
X77776535Y-97788674D01*
X77765101Y-97826367D01*
X77746534Y-97861103D01*
X77721548Y-97891548D01*
X77691103Y-97916534D01*
X77656367Y-97935101D01*
X77618674Y-97946535D01*
X77573339Y-97951000D01*
X76736661Y-97951000D01*
X76691326Y-97946535D01*
X76653633Y-97935101D01*
X76618897Y-97916534D01*
X76588452Y-97891548D01*
X76563466Y-97861103D01*
X76544899Y-97826367D01*
X76533465Y-97788674D01*
X76529000Y-97743339D01*
X76529000Y-96656661D01*
X76533465Y-96611326D01*
X76544899Y-96573633D01*
X76563466Y-96538897D01*
X76588452Y-96508452D01*
X76618897Y-96483466D01*
X76653633Y-96464899D01*
X76691326Y-96453465D01*
X76736661Y-96449000D01*
X77573339Y-96449000D01*
X77618674Y-96453465D01*
G37*
G36*
X75568674Y-96453465D02*
G01*
X75606367Y-96464899D01*
X75641103Y-96483466D01*
X75671548Y-96508452D01*
X75696534Y-96538897D01*
X75715101Y-96573633D01*
X75726535Y-96611326D01*
X75731000Y-96656661D01*
X75731000Y-97743339D01*
X75726535Y-97788674D01*
X75715101Y-97826367D01*
X75696534Y-97861103D01*
X75671548Y-97891548D01*
X75641103Y-97916534D01*
X75606367Y-97935101D01*
X75568674Y-97946535D01*
X75523339Y-97951000D01*
X74686661Y-97951000D01*
X74641326Y-97946535D01*
X74603633Y-97935101D01*
X74568897Y-97916534D01*
X74538452Y-97891548D01*
X74513466Y-97861103D01*
X74494899Y-97826367D01*
X74483465Y-97788674D01*
X74479000Y-97743339D01*
X74479000Y-96656661D01*
X74483465Y-96611326D01*
X74494899Y-96573633D01*
X74513466Y-96538897D01*
X74538452Y-96508452D01*
X74568897Y-96483466D01*
X74603633Y-96464899D01*
X74641326Y-96453465D01*
X74686661Y-96449000D01*
X75523339Y-96449000D01*
X75568674Y-96453465D01*
G37*
G36*
X61698674Y-96283465D02*
G01*
X61736367Y-96294899D01*
X61771103Y-96313466D01*
X61801548Y-96338452D01*
X61826534Y-96368897D01*
X61845101Y-96403633D01*
X61856535Y-96441326D01*
X61861000Y-96486661D01*
X61861000Y-97573339D01*
X61856535Y-97618674D01*
X61845101Y-97656367D01*
X61826534Y-97691103D01*
X61801548Y-97721548D01*
X61771103Y-97746534D01*
X61736367Y-97765101D01*
X61698674Y-97776535D01*
X61653339Y-97781000D01*
X60816661Y-97781000D01*
X60771326Y-97776535D01*
X60733633Y-97765101D01*
X60698897Y-97746534D01*
X60668452Y-97721548D01*
X60643466Y-97691103D01*
X60624899Y-97656367D01*
X60613465Y-97618674D01*
X60609000Y-97573339D01*
X60609000Y-96486661D01*
X60613465Y-96441326D01*
X60624899Y-96403633D01*
X60643466Y-96368897D01*
X60668452Y-96338452D01*
X60698897Y-96313466D01*
X60733633Y-96294899D01*
X60771326Y-96283465D01*
X60816661Y-96279000D01*
X61653339Y-96279000D01*
X61698674Y-96283465D01*
G37*
G36*
X63748674Y-96283465D02*
G01*
X63786367Y-96294899D01*
X63821103Y-96313466D01*
X63851548Y-96338452D01*
X63876534Y-96368897D01*
X63895101Y-96403633D01*
X63906535Y-96441326D01*
X63911000Y-96486661D01*
X63911000Y-97573339D01*
X63906535Y-97618674D01*
X63895101Y-97656367D01*
X63876534Y-97691103D01*
X63851548Y-97721548D01*
X63821103Y-97746534D01*
X63786367Y-97765101D01*
X63748674Y-97776535D01*
X63703339Y-97781000D01*
X62866661Y-97781000D01*
X62821326Y-97776535D01*
X62783633Y-97765101D01*
X62748897Y-97746534D01*
X62718452Y-97721548D01*
X62693466Y-97691103D01*
X62674899Y-97656367D01*
X62663465Y-97618674D01*
X62659000Y-97573339D01*
X62659000Y-96486661D01*
X62663465Y-96441326D01*
X62674899Y-96403633D01*
X62693466Y-96368897D01*
X62718452Y-96338452D01*
X62748897Y-96313466D01*
X62783633Y-96294899D01*
X62821326Y-96283465D01*
X62866661Y-96279000D01*
X63703339Y-96279000D01*
X63748674Y-96283465D01*
G37*
G36*
X87563512Y-95443927D02*
G01*
X87712812Y-95473624D01*
X87876784Y-95541544D01*
X88024354Y-95640147D01*
X88149853Y-95765646D01*
X88248456Y-95913216D01*
X88316376Y-96077188D01*
X88351000Y-96251259D01*
X88351000Y-96428741D01*
X88316376Y-96602812D01*
X88248456Y-96766784D01*
X88149853Y-96914354D01*
X88024354Y-97039853D01*
X87876784Y-97138456D01*
X87712812Y-97206376D01*
X87563512Y-97236073D01*
X87538742Y-97241000D01*
X87361258Y-97241000D01*
X87336488Y-97236073D01*
X87187188Y-97206376D01*
X87023216Y-97138456D01*
X86875646Y-97039853D01*
X86750147Y-96914354D01*
X86651544Y-96766784D01*
X86583624Y-96602812D01*
X86549000Y-96428741D01*
X86549000Y-96251259D01*
X86583624Y-96077188D01*
X86651544Y-95913216D01*
X86750147Y-95765646D01*
X86875646Y-95640147D01*
X87023216Y-95541544D01*
X87187188Y-95473624D01*
X87336488Y-95443927D01*
X87361258Y-95439000D01*
X87538742Y-95439000D01*
X87563512Y-95443927D01*
G37*
G36*
X67741000Y-95453000D02*
G01*
X66439000Y-95453000D01*
X66439000Y-92827000D01*
X67741000Y-92827000D01*
X67741000Y-95453000D01*
G37*
G36*
X65741000Y-95453000D02*
G01*
X64439000Y-95453000D01*
X64439000Y-92827000D01*
X65741000Y-92827000D01*
X65741000Y-95453000D01*
G37*
G36*
X63741000Y-95453000D02*
G01*
X62439000Y-95453000D01*
X62439000Y-92827000D01*
X63741000Y-92827000D01*
X63741000Y-95453000D01*
G37*
G36*
X71741000Y-95453000D02*
G01*
X70439000Y-95453000D01*
X70439000Y-92827000D01*
X71741000Y-92827000D01*
X71741000Y-95453000D01*
G37*
G36*
X73741000Y-95453000D02*
G01*
X72439000Y-95453000D01*
X72439000Y-92827000D01*
X73741000Y-92827000D01*
X73741000Y-95453000D01*
G37*
G36*
X75741000Y-95453000D02*
G01*
X74439000Y-95453000D01*
X74439000Y-92827000D01*
X75741000Y-92827000D01*
X75741000Y-95453000D01*
G37*
G36*
X77741000Y-95453000D02*
G01*
X76439000Y-95453000D01*
X76439000Y-92827000D01*
X77741000Y-92827000D01*
X77741000Y-95453000D01*
G37*
G36*
X69741000Y-95453000D02*
G01*
X68439000Y-95453000D01*
X68439000Y-92827000D01*
X69741000Y-92827000D01*
X69741000Y-95453000D01*
G37*
G36*
X88063512Y-92903927D02*
G01*
X88212812Y-92933624D01*
X88376784Y-93001544D01*
X88524354Y-93100147D01*
X88649853Y-93225646D01*
X88748456Y-93373216D01*
X88816376Y-93537188D01*
X88851000Y-93711259D01*
X88851000Y-93888741D01*
X88816376Y-94062812D01*
X88748456Y-94226784D01*
X88649853Y-94374354D01*
X88524354Y-94499853D01*
X88376784Y-94598456D01*
X88212812Y-94666376D01*
X88063512Y-94696073D01*
X88038742Y-94701000D01*
X87861258Y-94701000D01*
X87836488Y-94696073D01*
X87687188Y-94666376D01*
X87523216Y-94598456D01*
X87375646Y-94499853D01*
X87250147Y-94374354D01*
X87151544Y-94226784D01*
X87083624Y-94062812D01*
X87049000Y-93888741D01*
X87049000Y-93711259D01*
X87083624Y-93537188D01*
X87151544Y-93373216D01*
X87250147Y-93225646D01*
X87375646Y-93100147D01*
X87523216Y-93001544D01*
X87687188Y-92933624D01*
X87836488Y-92903927D01*
X87861258Y-92899000D01*
X88038742Y-92899000D01*
X88063512Y-92903927D01*
G37*
G36*
X95628674Y-88333465D02*
G01*
X95666367Y-88344899D01*
X95701103Y-88363466D01*
X95731548Y-88388452D01*
X95756534Y-88418897D01*
X95775101Y-88453633D01*
X95786535Y-88491326D01*
X95791000Y-88536661D01*
X95791000Y-89373339D01*
X95786535Y-89418674D01*
X95775101Y-89456367D01*
X95756534Y-89491103D01*
X95731548Y-89521548D01*
X95701103Y-89546534D01*
X95666367Y-89565101D01*
X95628674Y-89576535D01*
X95583339Y-89581000D01*
X94496661Y-89581000D01*
X94451326Y-89576535D01*
X94413633Y-89565101D01*
X94378897Y-89546534D01*
X94348452Y-89521548D01*
X94323466Y-89491103D01*
X94304899Y-89456367D01*
X94293465Y-89418674D01*
X94289000Y-89373339D01*
X94289000Y-88536661D01*
X94293465Y-88491326D01*
X94304899Y-88453633D01*
X94323466Y-88418897D01*
X94348452Y-88388452D01*
X94378897Y-88363466D01*
X94413633Y-88344899D01*
X94451326Y-88333465D01*
X94496661Y-88329000D01*
X95583339Y-88329000D01*
X95628674Y-88333465D01*
G37*
G36*
X97738674Y-88333465D02*
G01*
X97776367Y-88344899D01*
X97811103Y-88363466D01*
X97841548Y-88388452D01*
X97866534Y-88418897D01*
X97885101Y-88453633D01*
X97896535Y-88491326D01*
X97901000Y-88536661D01*
X97901000Y-89373339D01*
X97896535Y-89418674D01*
X97885101Y-89456367D01*
X97866534Y-89491103D01*
X97841548Y-89521548D01*
X97811103Y-89546534D01*
X97776367Y-89565101D01*
X97738674Y-89576535D01*
X97693339Y-89581000D01*
X96606661Y-89581000D01*
X96561326Y-89576535D01*
X96523633Y-89565101D01*
X96488897Y-89546534D01*
X96458452Y-89521548D01*
X96433466Y-89491103D01*
X96414899Y-89456367D01*
X96403465Y-89418674D01*
X96399000Y-89373339D01*
X96399000Y-88536661D01*
X96403465Y-88491326D01*
X96414899Y-88453633D01*
X96433466Y-88418897D01*
X96458452Y-88388452D01*
X96488897Y-88363466D01*
X96523633Y-88344899D01*
X96561326Y-88333465D01*
X96606661Y-88329000D01*
X97693339Y-88329000D01*
X97738674Y-88333465D01*
G37*
G36*
X103448674Y-88303465D02*
G01*
X103486367Y-88314899D01*
X103521103Y-88333466D01*
X103551548Y-88358452D01*
X103576534Y-88388897D01*
X103595101Y-88423633D01*
X103606535Y-88461326D01*
X103611000Y-88506661D01*
X103611000Y-89343339D01*
X103606535Y-89388674D01*
X103595101Y-89426367D01*
X103576534Y-89461103D01*
X103551548Y-89491548D01*
X103521103Y-89516534D01*
X103486367Y-89535101D01*
X103448674Y-89546535D01*
X103403339Y-89551000D01*
X102316661Y-89551000D01*
X102271326Y-89546535D01*
X102233633Y-89535101D01*
X102198897Y-89516534D01*
X102168452Y-89491548D01*
X102143466Y-89461103D01*
X102124899Y-89426367D01*
X102113465Y-89388674D01*
X102109000Y-89343339D01*
X102109000Y-88506661D01*
X102113465Y-88461326D01*
X102124899Y-88423633D01*
X102143466Y-88388897D01*
X102168452Y-88358452D01*
X102198897Y-88333466D01*
X102233633Y-88314899D01*
X102271326Y-88303465D01*
X102316661Y-88299000D01*
X103403339Y-88299000D01*
X103448674Y-88303465D01*
G37*
G36*
X99501000Y-89501000D02*
G01*
X98299000Y-89501000D01*
X98299000Y-88399000D01*
X99501000Y-88399000D01*
X99501000Y-89501000D01*
G37*
G36*
X101701000Y-88551000D02*
G01*
X100499000Y-88551000D01*
X100499000Y-87449000D01*
X101701000Y-87449000D01*
X101701000Y-88551000D01*
G37*
G36*
X99501000Y-87601000D02*
G01*
X98299000Y-87601000D01*
X98299000Y-86499000D01*
X99501000Y-86499000D01*
X99501000Y-87601000D01*
G37*
G36*
X97738674Y-86283465D02*
G01*
X97776367Y-86294899D01*
X97811103Y-86313466D01*
X97841548Y-86338452D01*
X97866534Y-86368897D01*
X97885101Y-86403633D01*
X97896535Y-86441326D01*
X97901000Y-86486661D01*
X97901000Y-87323339D01*
X97896535Y-87368674D01*
X97885101Y-87406367D01*
X97866534Y-87441103D01*
X97841548Y-87471548D01*
X97811103Y-87496534D01*
X97776367Y-87515101D01*
X97738674Y-87526535D01*
X97693339Y-87531000D01*
X96606661Y-87531000D01*
X96561326Y-87526535D01*
X96523633Y-87515101D01*
X96488897Y-87496534D01*
X96458452Y-87471548D01*
X96433466Y-87441103D01*
X96414899Y-87406367D01*
X96403465Y-87368674D01*
X96399000Y-87323339D01*
X96399000Y-86486661D01*
X96403465Y-86441326D01*
X96414899Y-86403633D01*
X96433466Y-86368897D01*
X96458452Y-86338452D01*
X96488897Y-86313466D01*
X96523633Y-86294899D01*
X96561326Y-86283465D01*
X96606661Y-86279000D01*
X97693339Y-86279000D01*
X97738674Y-86283465D01*
G37*
G36*
X95628674Y-86283465D02*
G01*
X95666367Y-86294899D01*
X95701103Y-86313466D01*
X95731548Y-86338452D01*
X95756534Y-86368897D01*
X95775101Y-86403633D01*
X95786535Y-86441326D01*
X95791000Y-86486661D01*
X95791000Y-87323339D01*
X95786535Y-87368674D01*
X95775101Y-87406367D01*
X95756534Y-87441103D01*
X95731548Y-87471548D01*
X95701103Y-87496534D01*
X95666367Y-87515101D01*
X95628674Y-87526535D01*
X95583339Y-87531000D01*
X94496661Y-87531000D01*
X94451326Y-87526535D01*
X94413633Y-87515101D01*
X94378897Y-87496534D01*
X94348452Y-87471548D01*
X94323466Y-87441103D01*
X94304899Y-87406367D01*
X94293465Y-87368674D01*
X94289000Y-87323339D01*
X94289000Y-86486661D01*
X94293465Y-86441326D01*
X94304899Y-86403633D01*
X94323466Y-86368897D01*
X94348452Y-86338452D01*
X94378897Y-86313466D01*
X94413633Y-86294899D01*
X94451326Y-86283465D01*
X94496661Y-86279000D01*
X95583339Y-86279000D01*
X95628674Y-86283465D01*
G37*
G36*
X103448674Y-86253465D02*
G01*
X103486367Y-86264899D01*
X103521103Y-86283466D01*
X103551548Y-86308452D01*
X103576534Y-86338897D01*
X103595101Y-86373633D01*
X103606535Y-86411326D01*
X103611000Y-86456661D01*
X103611000Y-87293339D01*
X103606535Y-87338674D01*
X103595101Y-87376367D01*
X103576534Y-87411103D01*
X103551548Y-87441548D01*
X103521103Y-87466534D01*
X103486367Y-87485101D01*
X103448674Y-87496535D01*
X103403339Y-87501000D01*
X102316661Y-87501000D01*
X102271326Y-87496535D01*
X102233633Y-87485101D01*
X102198897Y-87466534D01*
X102168452Y-87441548D01*
X102143466Y-87411103D01*
X102124899Y-87376367D01*
X102113465Y-87338674D01*
X102109000Y-87293339D01*
X102109000Y-86456661D01*
X102113465Y-86411326D01*
X102124899Y-86373633D01*
X102143466Y-86338897D01*
X102168452Y-86308452D01*
X102198897Y-86283466D01*
X102233633Y-86264899D01*
X102271326Y-86253465D01*
X102316661Y-86249000D01*
X103403339Y-86249000D01*
X103448674Y-86253465D01*
G37*
G36*
X90563512Y-80993927D02*
G01*
X90712812Y-81023624D01*
X90876784Y-81091544D01*
X91024354Y-81190147D01*
X91149853Y-81315646D01*
X91248456Y-81463216D01*
X91316376Y-81627188D01*
X91351000Y-81801259D01*
X91351000Y-81978741D01*
X91316376Y-82152812D01*
X91248456Y-82316784D01*
X91149853Y-82464354D01*
X91024354Y-82589853D01*
X90876784Y-82688456D01*
X90712812Y-82756376D01*
X90563512Y-82786073D01*
X90538742Y-82791000D01*
X90361258Y-82791000D01*
X90336488Y-82786073D01*
X90187188Y-82756376D01*
X90023216Y-82688456D01*
X89875646Y-82589853D01*
X89750147Y-82464354D01*
X89651544Y-82316784D01*
X89583624Y-82152812D01*
X89549000Y-81978741D01*
X89549000Y-81801259D01*
X89583624Y-81627188D01*
X89651544Y-81463216D01*
X89750147Y-81315646D01*
X89875646Y-81190147D01*
X90023216Y-81091544D01*
X90187188Y-81023624D01*
X90336488Y-80993927D01*
X90361258Y-80989000D01*
X90538742Y-80989000D01*
X90563512Y-80993927D01*
G37*
G36*
X85483512Y-80993927D02*
G01*
X85632812Y-81023624D01*
X85796784Y-81091544D01*
X85944354Y-81190147D01*
X86069853Y-81315646D01*
X86168456Y-81463216D01*
X86236376Y-81627188D01*
X86271000Y-81801259D01*
X86271000Y-81978741D01*
X86236376Y-82152812D01*
X86168456Y-82316784D01*
X86069853Y-82464354D01*
X85944354Y-82589853D01*
X85796784Y-82688456D01*
X85632812Y-82756376D01*
X85483512Y-82786073D01*
X85458742Y-82791000D01*
X85281258Y-82791000D01*
X85256488Y-82786073D01*
X85107188Y-82756376D01*
X84943216Y-82688456D01*
X84795646Y-82589853D01*
X84670147Y-82464354D01*
X84571544Y-82316784D01*
X84503624Y-82152812D01*
X84469000Y-81978741D01*
X84469000Y-81801259D01*
X84503624Y-81627188D01*
X84571544Y-81463216D01*
X84670147Y-81315646D01*
X84795646Y-81190147D01*
X84943216Y-81091544D01*
X85107188Y-81023624D01*
X85256488Y-80993927D01*
X85281258Y-80989000D01*
X85458742Y-80989000D01*
X85483512Y-80993927D01*
G37*
G36*
X80403512Y-80993927D02*
G01*
X80552812Y-81023624D01*
X80716784Y-81091544D01*
X80864354Y-81190147D01*
X80989853Y-81315646D01*
X81088456Y-81463216D01*
X81156376Y-81627188D01*
X81191000Y-81801259D01*
X81191000Y-81978741D01*
X81156376Y-82152812D01*
X81088456Y-82316784D01*
X80989853Y-82464354D01*
X80864354Y-82589853D01*
X80716784Y-82688456D01*
X80552812Y-82756376D01*
X80403512Y-82786073D01*
X80378742Y-82791000D01*
X80201258Y-82791000D01*
X80176488Y-82786073D01*
X80027188Y-82756376D01*
X79863216Y-82688456D01*
X79715646Y-82589853D01*
X79590147Y-82464354D01*
X79491544Y-82316784D01*
X79423624Y-82152812D01*
X79389000Y-81978741D01*
X79389000Y-81801259D01*
X79423624Y-81627188D01*
X79491544Y-81463216D01*
X79590147Y-81315646D01*
X79715646Y-81190147D01*
X79863216Y-81091544D01*
X80027188Y-81023624D01*
X80176488Y-80993927D01*
X80201258Y-80989000D01*
X80378742Y-80989000D01*
X80403512Y-80993927D01*
G37*
G36*
X88023512Y-80493927D02*
G01*
X88172812Y-80523624D01*
X88336784Y-80591544D01*
X88484354Y-80690147D01*
X88609853Y-80815646D01*
X88708456Y-80963216D01*
X88776376Y-81127188D01*
X88811000Y-81301259D01*
X88811000Y-81478741D01*
X88776376Y-81652812D01*
X88708456Y-81816784D01*
X88609853Y-81964354D01*
X88484354Y-82089853D01*
X88336784Y-82188456D01*
X88172812Y-82256376D01*
X88023512Y-82286073D01*
X87998742Y-82291000D01*
X87821258Y-82291000D01*
X87796488Y-82286073D01*
X87647188Y-82256376D01*
X87483216Y-82188456D01*
X87335646Y-82089853D01*
X87210147Y-81964354D01*
X87111544Y-81816784D01*
X87043624Y-81652812D01*
X87009000Y-81478741D01*
X87009000Y-81301259D01*
X87043624Y-81127188D01*
X87111544Y-80963216D01*
X87210147Y-80815646D01*
X87335646Y-80690147D01*
X87483216Y-80591544D01*
X87647188Y-80523624D01*
X87796488Y-80493927D01*
X87821258Y-80489000D01*
X87998742Y-80489000D01*
X88023512Y-80493927D01*
G37*
G36*
X82943512Y-80493927D02*
G01*
X83092812Y-80523624D01*
X83256784Y-80591544D01*
X83404354Y-80690147D01*
X83529853Y-80815646D01*
X83628456Y-80963216D01*
X83696376Y-81127188D01*
X83731000Y-81301259D01*
X83731000Y-81478741D01*
X83696376Y-81652812D01*
X83628456Y-81816784D01*
X83529853Y-81964354D01*
X83404354Y-82089853D01*
X83256784Y-82188456D01*
X83092812Y-82256376D01*
X82943512Y-82286073D01*
X82918742Y-82291000D01*
X82741258Y-82291000D01*
X82716488Y-82286073D01*
X82567188Y-82256376D01*
X82403216Y-82188456D01*
X82255646Y-82089853D01*
X82130147Y-81964354D01*
X82031544Y-81816784D01*
X81963624Y-81652812D01*
X81929000Y-81478741D01*
X81929000Y-81301259D01*
X81963624Y-81127188D01*
X82031544Y-80963216D01*
X82130147Y-80815646D01*
X82255646Y-80690147D01*
X82403216Y-80591544D01*
X82567188Y-80523624D01*
X82716488Y-80493927D01*
X82741258Y-80489000D01*
X82918742Y-80489000D01*
X82943512Y-80493927D01*
G37*
G36*
X85483512Y-78453927D02*
G01*
X85632812Y-78483624D01*
X85796784Y-78551544D01*
X85944354Y-78650147D01*
X86069853Y-78775646D01*
X86168456Y-78923216D01*
X86236376Y-79087188D01*
X86271000Y-79261259D01*
X86271000Y-79438741D01*
X86236376Y-79612812D01*
X86168456Y-79776784D01*
X86069853Y-79924354D01*
X85944354Y-80049853D01*
X85796784Y-80148456D01*
X85632812Y-80216376D01*
X85483512Y-80246073D01*
X85458742Y-80251000D01*
X85281258Y-80251000D01*
X85256488Y-80246073D01*
X85107188Y-80216376D01*
X84943216Y-80148456D01*
X84795646Y-80049853D01*
X84670147Y-79924354D01*
X84571544Y-79776784D01*
X84503624Y-79612812D01*
X84469000Y-79438741D01*
X84469000Y-79261259D01*
X84503624Y-79087188D01*
X84571544Y-78923216D01*
X84670147Y-78775646D01*
X84795646Y-78650147D01*
X84943216Y-78551544D01*
X85107188Y-78483624D01*
X85256488Y-78453927D01*
X85281258Y-78449000D01*
X85458742Y-78449000D01*
X85483512Y-78453927D01*
G37*
G36*
X91351000Y-80251000D02*
G01*
X89549000Y-80251000D01*
X89549000Y-78449000D01*
X91351000Y-78449000D01*
X91351000Y-80251000D01*
G37*
G36*
X80403512Y-78453927D02*
G01*
X80552812Y-78483624D01*
X80716784Y-78551544D01*
X80864354Y-78650147D01*
X80989853Y-78775646D01*
X81088456Y-78923216D01*
X81156376Y-79087188D01*
X81191000Y-79261259D01*
X81191000Y-79438741D01*
X81156376Y-79612812D01*
X81088456Y-79776784D01*
X80989853Y-79924354D01*
X80864354Y-80049853D01*
X80716784Y-80148456D01*
X80552812Y-80216376D01*
X80403512Y-80246073D01*
X80378742Y-80251000D01*
X80201258Y-80251000D01*
X80176488Y-80246073D01*
X80027188Y-80216376D01*
X79863216Y-80148456D01*
X79715646Y-80049853D01*
X79590147Y-79924354D01*
X79491544Y-79776784D01*
X79423624Y-79612812D01*
X79389000Y-79438741D01*
X79389000Y-79261259D01*
X79423624Y-79087188D01*
X79491544Y-78923216D01*
X79590147Y-78775646D01*
X79715646Y-78650147D01*
X79863216Y-78551544D01*
X80027188Y-78483624D01*
X80176488Y-78453927D01*
X80201258Y-78449000D01*
X80378742Y-78449000D01*
X80403512Y-78453927D01*
G37*
G36*
X82943512Y-77953927D02*
G01*
X83092812Y-77983624D01*
X83256784Y-78051544D01*
X83404354Y-78150147D01*
X83529853Y-78275646D01*
X83628456Y-78423216D01*
X83696376Y-78587188D01*
X83731000Y-78761259D01*
X83731000Y-78938741D01*
X83696376Y-79112812D01*
X83628456Y-79276784D01*
X83529853Y-79424354D01*
X83404354Y-79549853D01*
X83256784Y-79648456D01*
X83092812Y-79716376D01*
X82943512Y-79746073D01*
X82918742Y-79751000D01*
X82741258Y-79751000D01*
X82716488Y-79746073D01*
X82567188Y-79716376D01*
X82403216Y-79648456D01*
X82255646Y-79549853D01*
X82130147Y-79424354D01*
X82031544Y-79276784D01*
X81963624Y-79112812D01*
X81929000Y-78938741D01*
X81929000Y-78761259D01*
X81963624Y-78587188D01*
X82031544Y-78423216D01*
X82130147Y-78275646D01*
X82255646Y-78150147D01*
X82403216Y-78051544D01*
X82567188Y-77983624D01*
X82716488Y-77953927D01*
X82741258Y-77949000D01*
X82918742Y-77949000D01*
X82943512Y-77953927D01*
G37*
G36*
X88023512Y-77953927D02*
G01*
X88172812Y-77983624D01*
X88336784Y-78051544D01*
X88484354Y-78150147D01*
X88609853Y-78275646D01*
X88708456Y-78423216D01*
X88776376Y-78587188D01*
X88811000Y-78761259D01*
X88811000Y-78938741D01*
X88776376Y-79112812D01*
X88708456Y-79276784D01*
X88609853Y-79424354D01*
X88484354Y-79549853D01*
X88336784Y-79648456D01*
X88172812Y-79716376D01*
X88023512Y-79746073D01*
X87998742Y-79751000D01*
X87821258Y-79751000D01*
X87796488Y-79746073D01*
X87647188Y-79716376D01*
X87483216Y-79648456D01*
X87335646Y-79549853D01*
X87210147Y-79424354D01*
X87111544Y-79276784D01*
X87043624Y-79112812D01*
X87009000Y-78938741D01*
X87009000Y-78761259D01*
X87043624Y-78587188D01*
X87111544Y-78423216D01*
X87210147Y-78275646D01*
X87335646Y-78150147D01*
X87483216Y-78051544D01*
X87647188Y-77983624D01*
X87796488Y-77953927D01*
X87821258Y-77949000D01*
X87998742Y-77949000D01*
X88023512Y-77953927D01*
G37*
G36*
X72091000Y-76453000D02*
G01*
X70489000Y-76453000D01*
X70489000Y-73827000D01*
X72091000Y-73827000D01*
X72091000Y-76453000D01*
G37*
G36*
X69741000Y-76453000D02*
G01*
X68439000Y-76453000D01*
X68439000Y-73827000D01*
X69741000Y-73827000D01*
X69741000Y-76453000D01*
G37*
G36*
X67691000Y-76453000D02*
G01*
X66089000Y-76453000D01*
X66089000Y-73827000D01*
X67691000Y-73827000D01*
X67691000Y-76453000D01*
G37*
G36*
X83861000Y-73661000D02*
G01*
X81759000Y-73661000D01*
X81759000Y-69559000D01*
X83861000Y-69559000D01*
X83861000Y-73661000D01*
G37*
G36*
X91481000Y-73661000D02*
G01*
X89379000Y-73661000D01*
X89379000Y-69559000D01*
X91481000Y-69559000D01*
X91481000Y-73661000D01*
G37*
G36*
X88941000Y-73661000D02*
G01*
X86839000Y-73661000D01*
X86839000Y-69559000D01*
X88941000Y-69559000D01*
X88941000Y-73661000D01*
G37*
G36*
X86401000Y-73661000D02*
G01*
X84299000Y-73661000D01*
X84299000Y-69559000D01*
X86401000Y-69559000D01*
X86401000Y-73661000D01*
G37*
G36*
X81321000Y-73661000D02*
G01*
X79219000Y-73661000D01*
X79219000Y-69559000D01*
X81321000Y-69559000D01*
X81321000Y-73661000D01*
G37*
G36*
X69426564Y-71129389D02*
G01*
X69617833Y-71208615D01*
X69617835Y-71208616D01*
X69789973Y-71323635D01*
X69936365Y-71470027D01*
X70051385Y-71642167D01*
X70130611Y-71833436D01*
X70171000Y-72036484D01*
X70171000Y-72243516D01*
X70130611Y-72446564D01*
X70051385Y-72637833D01*
X70051384Y-72637835D01*
X69936365Y-72809973D01*
X69789973Y-72956365D01*
X69617835Y-73071384D01*
X69617834Y-73071385D01*
X69617833Y-73071385D01*
X69426564Y-73150611D01*
X69223516Y-73191000D01*
X69016484Y-73191000D01*
X68813436Y-73150611D01*
X68622167Y-73071385D01*
X68622166Y-73071385D01*
X68622165Y-73071384D01*
X68450027Y-72956365D01*
X68303635Y-72809973D01*
X68188616Y-72637835D01*
X68188615Y-72637833D01*
X68109389Y-72446564D01*
X68069000Y-72243516D01*
X68069000Y-72036484D01*
X68109389Y-71833436D01*
X68188615Y-71642167D01*
X68303635Y-71470027D01*
X68450027Y-71323635D01*
X68622165Y-71208616D01*
X68622167Y-71208615D01*
X68813436Y-71129389D01*
X69016484Y-71089000D01*
X69223516Y-71089000D01*
X69426564Y-71129389D01*
G37*
M02*
