M48
; DRILL file {KiCad (5.1.5)-3} date 04/03/20 08:25:56
; FORMAT={3:3/ absolute / metric / suppress leading zeros}
; #@! TF.CreationDate,2020-04-03T08:25:56+02:00
; #@! TF.GenerationSoftware,Kicad,Pcbnew,(5.1.5)-3
FMAT,2
METRIC,TZ
T1C0.400
T2C1.000
T3C1.520
%
G90
G05
T1
X61215Y-104780
X63180Y-114140
X64030Y-98970
X64600Y-103280
X64690Y-125200
X64890Y-98040
X65580Y-111420
X65640Y-87260
X65765Y-96440
X67230Y-110355
X68200Y-119140
X68882Y-111089
X72015Y-110477
X72990Y-91230
X73005Y-110621
X73461Y-109731
X74200Y-90480
X74230Y-106530
X74670Y-111860
X75090Y-97220
X75140Y-108150
X76020Y-73790
X77070Y-84450
X77246Y-111135
X78760Y-114800
X78850Y-104180
X79690Y-103370
X79830Y-116460
X81260Y-125460
X81600Y-107065
X82200Y-92590
X83050Y-99868
X83050Y-105157
X86060Y-88550
X86250Y-109080
X86270Y-121630
X86310Y-113310
X89020Y-111830
X90950Y-125540
X91040Y-84770
X91850Y-86930
T2
X69120Y-72140
X87450Y-96340
X87450Y-101420
X87450Y-106500
X87950Y-93800
X87950Y-98880
X87950Y-103960
X80290Y-79350
X80290Y-81890
X82830Y-78850
X82830Y-81390
X85370Y-79350
X85370Y-81890
X87910Y-78850
X87910Y-81390
X90450Y-79350
X90450Y-81890
T3
X73550Y-121850
X73550Y-126930
T0
M30
