M48
; DRILL file {KiCad (5.1.5)-3} date 04/01/20 21:27:13
; FORMAT={3:3/ absolute / metric / suppress leading zeros}
; #@! TF.CreationDate,2020-04-01T21:27:13+02:00
; #@! TF.GenerationSoftware,Kicad,Pcbnew,(5.1.5)-3
FMAT,2
METRIC,TZ
T1C0.400
T2C1.000
%
G90
G05
T1
X61125Y-113125
X62525Y-107200
X62725Y-110550
X62725Y-117925
X65350Y-111750
X65450Y-124600
X65650Y-87100
X66450Y-112950
X67950Y-123250
X71250Y-122500
X72203Y-122075
X72750Y-121200
X72800Y-105050
X74000Y-109900
X75750Y-113600
X76350Y-119800
X77450Y-81175
X77525Y-95825
X79200Y-71550
X80350Y-105400
X80350Y-119400
X80550Y-100625
X80710Y-114034
X82500Y-111825
X82700Y-102400
X82750Y-104000
X82750Y-105500
X82773Y-120725
X82775Y-121975
X83525Y-96900
X84250Y-109750
X84550Y-119400
X84750Y-116500
X84950Y-79400
X85300Y-83700
X85375Y-109750
X86250Y-114200
X86925Y-89150
X86975Y-109000
X88225Y-117475
X88625Y-121987
X88625Y-110125
X89550Y-110850
X89850Y-123700
X90250Y-75300
X90375Y-120492
X90375Y-108425
X91125Y-122175
X91900Y-120600
X92069Y-106671
X92100Y-94700
X92350Y-112100
X92850Y-113625
X93600Y-128325
X94175Y-71625
X95400Y-111100
X95500Y-86800
X107100Y-113425
X107625Y-84925
T2
X88900Y-81540
X88900Y-86620
X88900Y-91700
X89400Y-79000
X89400Y-84080
X89400Y-89160
X86300Y-98940
X86300Y-104020
X86800Y-96400
X86800Y-101480
X86800Y-106560
X88840Y-98940
X88840Y-104020
X89340Y-96400
X89340Y-101480
X89340Y-106560
T0
M30
