G04 #@! TF.GenerationSoftware,KiCad,Pcbnew,(5.1.5)-3*
G04 #@! TF.CreationDate,2020-05-25T21:57:19+02:00*
G04 #@! TF.ProjectId,RHS_3,5248535f-332e-46b6-9963-61645f706362,rev?*
G04 #@! TF.SameCoordinates,Original*
G04 #@! TF.FileFunction,Legend,Bot*
G04 #@! TF.FilePolarity,Positive*
%FSLAX46Y46*%
G04 Gerber Fmt 4.6, Leading zero omitted, Abs format (unit mm)*
G04 Created by KiCad (PCBNEW (5.1.5)-3) date 2020-05-25 21:57:19*
%MOMM*%
%LPD*%
G04 APERTURE LIST*
%ADD10C,0.120000*%
%ADD11C,0.150000*%
G04 APERTURE END LIST*
D10*
X72263000Y-111760000D02*
G75*
G03X72263000Y-111760000I-254000J0D01*
G01*
D11*
X90872380Y-74138571D02*
X89872380Y-74138571D01*
X90586666Y-74471904D01*
X89872380Y-74805238D01*
X90872380Y-74805238D01*
X89872380Y-75471904D02*
X89872380Y-75662380D01*
X89920000Y-75757619D01*
X90015238Y-75852857D01*
X90205714Y-75900476D01*
X90539047Y-75900476D01*
X90729523Y-75852857D01*
X90824761Y-75757619D01*
X90872380Y-75662380D01*
X90872380Y-75471904D01*
X90824761Y-75376666D01*
X90729523Y-75281428D01*
X90539047Y-75233809D01*
X90205714Y-75233809D01*
X90015238Y-75281428D01*
X89920000Y-75376666D01*
X89872380Y-75471904D01*
X90824761Y-76281428D02*
X90872380Y-76424285D01*
X90872380Y-76662380D01*
X90824761Y-76757619D01*
X90777142Y-76805238D01*
X90681904Y-76852857D01*
X90586666Y-76852857D01*
X90491428Y-76805238D01*
X90443809Y-76757619D01*
X90396190Y-76662380D01*
X90348571Y-76471904D01*
X90300952Y-76376666D01*
X90253333Y-76329047D01*
X90158095Y-76281428D01*
X90062857Y-76281428D01*
X89967619Y-76329047D01*
X89920000Y-76376666D01*
X89872380Y-76471904D01*
X89872380Y-76710000D01*
X89920000Y-76852857D01*
X90872380Y-77281428D02*
X89872380Y-77281428D01*
X85892380Y-74657619D02*
X85416190Y-74324285D01*
X85892380Y-74086190D02*
X84892380Y-74086190D01*
X84892380Y-74467142D01*
X84940000Y-74562380D01*
X84987619Y-74610000D01*
X85082857Y-74657619D01*
X85225714Y-74657619D01*
X85320952Y-74610000D01*
X85368571Y-74562380D01*
X85416190Y-74467142D01*
X85416190Y-74086190D01*
X85368571Y-75086190D02*
X85368571Y-75419523D01*
X85892380Y-75562380D02*
X85892380Y-75086190D01*
X84892380Y-75086190D01*
X84892380Y-75562380D01*
X85844761Y-75943333D02*
X85892380Y-76086190D01*
X85892380Y-76324285D01*
X85844761Y-76419523D01*
X85797142Y-76467142D01*
X85701904Y-76514761D01*
X85606666Y-76514761D01*
X85511428Y-76467142D01*
X85463809Y-76419523D01*
X85416190Y-76324285D01*
X85368571Y-76133809D01*
X85320952Y-76038571D01*
X85273333Y-75990952D01*
X85178095Y-75943333D01*
X85082857Y-75943333D01*
X84987619Y-75990952D01*
X84940000Y-76038571D01*
X84892380Y-76133809D01*
X84892380Y-76371904D01*
X84940000Y-76514761D01*
X85368571Y-76943333D02*
X85368571Y-77276666D01*
X85892380Y-77419523D02*
X85892380Y-76943333D01*
X84892380Y-76943333D01*
X84892380Y-77419523D01*
X84892380Y-77705238D02*
X84892380Y-78276666D01*
X85892380Y-77990952D02*
X84892380Y-77990952D01*
X83344761Y-74134285D02*
X83392380Y-74277142D01*
X83392380Y-74515238D01*
X83344761Y-74610476D01*
X83297142Y-74658095D01*
X83201904Y-74705714D01*
X83106666Y-74705714D01*
X83011428Y-74658095D01*
X82963809Y-74610476D01*
X82916190Y-74515238D01*
X82868571Y-74324761D01*
X82820952Y-74229523D01*
X82773333Y-74181904D01*
X82678095Y-74134285D01*
X82582857Y-74134285D01*
X82487619Y-74181904D01*
X82440000Y-74229523D01*
X82392380Y-74324761D01*
X82392380Y-74562857D01*
X82440000Y-74705714D01*
X83297142Y-75705714D02*
X83344761Y-75658095D01*
X83392380Y-75515238D01*
X83392380Y-75420000D01*
X83344761Y-75277142D01*
X83249523Y-75181904D01*
X83154285Y-75134285D01*
X82963809Y-75086666D01*
X82820952Y-75086666D01*
X82630476Y-75134285D01*
X82535238Y-75181904D01*
X82440000Y-75277142D01*
X82392380Y-75420000D01*
X82392380Y-75515238D01*
X82440000Y-75658095D01*
X82487619Y-75705714D01*
X83392380Y-76134285D02*
X82392380Y-76134285D01*
X83392380Y-76705714D02*
X82820952Y-76277142D01*
X82392380Y-76705714D02*
X82963809Y-76134285D01*
X80882380Y-74078571D02*
X79882380Y-74078571D01*
X80596666Y-74411904D01*
X79882380Y-74745238D01*
X80882380Y-74745238D01*
X80882380Y-75221428D02*
X79882380Y-75221428D01*
X80834761Y-75650000D02*
X80882380Y-75792857D01*
X80882380Y-76030952D01*
X80834761Y-76126190D01*
X80787142Y-76173809D01*
X80691904Y-76221428D01*
X80596666Y-76221428D01*
X80501428Y-76173809D01*
X80453809Y-76126190D01*
X80406190Y-76030952D01*
X80358571Y-75840476D01*
X80310952Y-75745238D01*
X80263333Y-75697619D01*
X80168095Y-75650000D01*
X80072857Y-75650000D01*
X79977619Y-75697619D01*
X79930000Y-75745238D01*
X79882380Y-75840476D01*
X79882380Y-76078571D01*
X79930000Y-76221428D01*
X79882380Y-76840476D02*
X79882380Y-77030952D01*
X79930000Y-77126190D01*
X80025238Y-77221428D01*
X80215714Y-77269047D01*
X80549047Y-77269047D01*
X80739523Y-77221428D01*
X80834761Y-77126190D01*
X80882380Y-77030952D01*
X80882380Y-76840476D01*
X80834761Y-76745238D01*
X80739523Y-76650000D01*
X80549047Y-76602380D01*
X80215714Y-76602380D01*
X80025238Y-76650000D01*
X79930000Y-76745238D01*
X79882380Y-76840476D01*
D10*
X72848748Y-115700000D02*
X73371252Y-115700000D01*
X72848748Y-117120000D02*
X73371252Y-117120000D01*
X63781252Y-110770000D02*
X63258748Y-110770000D01*
X63781252Y-109350000D02*
X63258748Y-109350000D01*
X62501252Y-103420000D02*
X61978748Y-103420000D01*
X62501252Y-102000000D02*
X61978748Y-102000000D01*
X61958748Y-105510000D02*
X62481252Y-105510000D01*
X61958748Y-104090000D02*
X62481252Y-104090000D01*
D11*
X71015000Y-112675000D02*
X71015000Y-112450000D01*
X78265000Y-112675000D02*
X78265000Y-112350000D01*
X78265000Y-105425000D02*
X78265000Y-105750000D01*
X71015000Y-105425000D02*
X71015000Y-105750000D01*
X71015000Y-112675000D02*
X71340000Y-112675000D01*
X71015000Y-105425000D02*
X71340000Y-105425000D01*
X78265000Y-105425000D02*
X77940000Y-105425000D01*
X78265000Y-112675000D02*
X77940000Y-112675000D01*
X71015000Y-112450000D02*
X69590000Y-112450000D01*
X78390000Y-75140000D02*
X78390000Y-94140000D01*
X61790000Y-75140000D02*
X78390000Y-75140000D01*
X61790000Y-94140000D02*
X61790000Y-75140000D01*
X78390000Y-94140000D02*
X61790000Y-94140000D01*
D10*
X67940000Y-111118748D02*
X67940000Y-111641252D01*
X66520000Y-111118748D02*
X66520000Y-111641252D01*
X80890000Y-107828748D02*
X80890000Y-108351252D01*
X82310000Y-107828748D02*
X82310000Y-108351252D01*
X76391252Y-97910000D02*
X75868748Y-97910000D01*
X76391252Y-96490000D02*
X75868748Y-96490000D01*
X66540000Y-101378748D02*
X66540000Y-101901252D01*
X67960000Y-101378748D02*
X67960000Y-101901252D01*
X70150000Y-101388748D02*
X70150000Y-101911252D01*
X68730000Y-101388748D02*
X68730000Y-101911252D01*
X96440000Y-88191252D02*
X96440000Y-87668748D01*
X97860000Y-88191252D02*
X97860000Y-87668748D01*
X97830000Y-112351252D02*
X97830000Y-111828748D01*
X96410000Y-112351252D02*
X96410000Y-111828748D01*
X100760000Y-86420000D02*
X100760000Y-87350000D01*
X100760000Y-89580000D02*
X100760000Y-88650000D01*
X100760000Y-89580000D02*
X98600000Y-89580000D01*
X100760000Y-86420000D02*
X99300000Y-86420000D01*
X100760000Y-110420000D02*
X100760000Y-111350000D01*
X100760000Y-113580000D02*
X100760000Y-112650000D01*
X100760000Y-113580000D02*
X98600000Y-113580000D01*
X100760000Y-110420000D02*
X99300000Y-110420000D01*
X60570000Y-99115000D02*
X60570000Y-100575000D01*
X63730000Y-99115000D02*
X63730000Y-101275000D01*
X63730000Y-99115000D02*
X62800000Y-99115000D01*
X60570000Y-99115000D02*
X61500000Y-99115000D01*
X102150000Y-88161252D02*
X102150000Y-87638748D01*
X103570000Y-88161252D02*
X103570000Y-87638748D01*
X103600000Y-112321252D02*
X103600000Y-111798748D01*
X102180000Y-112321252D02*
X102180000Y-111798748D01*
X62521252Y-96320000D02*
X61998748Y-96320000D01*
X62521252Y-97740000D02*
X61998748Y-97740000D01*
X77431252Y-115700000D02*
X76908748Y-115700000D01*
X77431252Y-117120000D02*
X76908748Y-117120000D01*
X94330000Y-87668748D02*
X94330000Y-88191252D01*
X95750000Y-87668748D02*
X95750000Y-88191252D01*
X95650000Y-111828748D02*
X95650000Y-112351252D01*
X94230000Y-111828748D02*
X94230000Y-112351252D01*
X63831252Y-106970000D02*
X63308748Y-106970000D01*
X63831252Y-108390000D02*
X63308748Y-108390000D01*
X68055000Y-106295000D02*
X68055000Y-107645000D01*
X66305000Y-106295000D02*
X66305000Y-107645000D01*
X74093000Y-121531748D02*
X74093000Y-122054252D01*
X75513000Y-121531748D02*
X75513000Y-122054252D01*
X71934000Y-121531748D02*
X71934000Y-122054252D01*
X73354000Y-121531748D02*
X73354000Y-122054252D01*
D11*
X73191666Y-118562380D02*
X73525000Y-118086190D01*
X73763095Y-118562380D02*
X73763095Y-117562380D01*
X73382142Y-117562380D01*
X73286904Y-117610000D01*
X73239285Y-117657619D01*
X73191666Y-117752857D01*
X73191666Y-117895714D01*
X73239285Y-117990952D01*
X73286904Y-118038571D01*
X73382142Y-118086190D01*
X73763095Y-118086190D01*
X72239285Y-118562380D02*
X72810714Y-118562380D01*
X72525000Y-118562380D02*
X72525000Y-117562380D01*
X72620238Y-117705238D01*
X72715476Y-117800476D01*
X72810714Y-117848095D01*
X61317142Y-109720142D02*
X61364761Y-109672523D01*
X61412380Y-109529666D01*
X61412380Y-109434428D01*
X61364761Y-109291571D01*
X61269523Y-109196333D01*
X61174285Y-109148714D01*
X60983809Y-109101095D01*
X60840952Y-109101095D01*
X60650476Y-109148714D01*
X60555238Y-109196333D01*
X60460000Y-109291571D01*
X60412380Y-109434428D01*
X60412380Y-109529666D01*
X60460000Y-109672523D01*
X60507619Y-109720142D01*
X61412380Y-110672523D02*
X61412380Y-110101095D01*
X61412380Y-110386809D02*
X60412380Y-110386809D01*
X60555238Y-110291571D01*
X60650476Y-110196333D01*
X60698095Y-110101095D01*
X61412380Y-111624904D02*
X61412380Y-111053476D01*
X61412380Y-111339190D02*
X60412380Y-111339190D01*
X60555238Y-111243952D01*
X60650476Y-111148714D01*
X60698095Y-111053476D01*
X65276666Y-103182380D02*
X65610000Y-102706190D01*
X65848095Y-103182380D02*
X65848095Y-102182380D01*
X65467142Y-102182380D01*
X65371904Y-102230000D01*
X65324285Y-102277619D01*
X65276666Y-102372857D01*
X65276666Y-102515714D01*
X65324285Y-102610952D01*
X65371904Y-102658571D01*
X65467142Y-102706190D01*
X65848095Y-102706190D01*
X64419523Y-102182380D02*
X64610000Y-102182380D01*
X64705238Y-102230000D01*
X64752857Y-102277619D01*
X64848095Y-102420476D01*
X64895714Y-102610952D01*
X64895714Y-102991904D01*
X64848095Y-103087142D01*
X64800476Y-103134761D01*
X64705238Y-103182380D01*
X64514761Y-103182380D01*
X64419523Y-103134761D01*
X64371904Y-103087142D01*
X64324285Y-102991904D01*
X64324285Y-102753809D01*
X64371904Y-102658571D01*
X64419523Y-102610952D01*
X64514761Y-102563333D01*
X64705238Y-102563333D01*
X64800476Y-102610952D01*
X64848095Y-102658571D01*
X64895714Y-102753809D01*
X66222857Y-105237142D02*
X66270476Y-105284761D01*
X66413333Y-105332380D01*
X66508571Y-105332380D01*
X66651428Y-105284761D01*
X66746666Y-105189523D01*
X66794285Y-105094285D01*
X66841904Y-104903809D01*
X66841904Y-104760952D01*
X66794285Y-104570476D01*
X66746666Y-104475238D01*
X66651428Y-104380000D01*
X66508571Y-104332380D01*
X66413333Y-104332380D01*
X66270476Y-104380000D01*
X66222857Y-104427619D01*
X65270476Y-105332380D02*
X65841904Y-105332380D01*
X65556190Y-105332380D02*
X65556190Y-104332380D01*
X65651428Y-104475238D01*
X65746666Y-104570476D01*
X65841904Y-104618095D01*
X64651428Y-104332380D02*
X64556190Y-104332380D01*
X64460952Y-104380000D01*
X64413333Y-104427619D01*
X64365714Y-104522857D01*
X64318095Y-104713333D01*
X64318095Y-104951428D01*
X64365714Y-105141904D01*
X64413333Y-105237142D01*
X64460952Y-105284761D01*
X64556190Y-105332380D01*
X64651428Y-105332380D01*
X64746666Y-105284761D01*
X64794285Y-105237142D01*
X64841904Y-105141904D01*
X64889523Y-104951428D01*
X64889523Y-104713333D01*
X64841904Y-104522857D01*
X64794285Y-104427619D01*
X64746666Y-104380000D01*
X64651428Y-104332380D01*
X75616190Y-109502380D02*
X75616190Y-108502380D01*
X74568571Y-109407142D02*
X74616190Y-109454761D01*
X74759047Y-109502380D01*
X74854285Y-109502380D01*
X74997142Y-109454761D01*
X75092380Y-109359523D01*
X75140000Y-109264285D01*
X75187619Y-109073809D01*
X75187619Y-108930952D01*
X75140000Y-108740476D01*
X75092380Y-108645238D01*
X74997142Y-108550000D01*
X74854285Y-108502380D01*
X74759047Y-108502380D01*
X74616190Y-108550000D01*
X74568571Y-108597619D01*
X73616190Y-109502380D02*
X74187619Y-109502380D01*
X73901904Y-109502380D02*
X73901904Y-108502380D01*
X73997142Y-108645238D01*
X74092380Y-108740476D01*
X74187619Y-108788095D01*
X71066190Y-87592380D02*
X71066190Y-86592380D01*
X70018571Y-87497142D02*
X70066190Y-87544761D01*
X70209047Y-87592380D01*
X70304285Y-87592380D01*
X70447142Y-87544761D01*
X70542380Y-87449523D01*
X70590000Y-87354285D01*
X70637619Y-87163809D01*
X70637619Y-87020952D01*
X70590000Y-86830476D01*
X70542380Y-86735238D01*
X70447142Y-86640000D01*
X70304285Y-86592380D01*
X70209047Y-86592380D01*
X70066190Y-86640000D01*
X70018571Y-86687619D01*
X69637619Y-86687619D02*
X69590000Y-86640000D01*
X69494761Y-86592380D01*
X69256666Y-86592380D01*
X69161428Y-86640000D01*
X69113809Y-86687619D01*
X69066190Y-86782857D01*
X69066190Y-86878095D01*
X69113809Y-87020952D01*
X69685238Y-87592380D01*
X69066190Y-87592380D01*
X67597142Y-114093333D02*
X67644761Y-114045714D01*
X67692380Y-113902857D01*
X67692380Y-113807619D01*
X67644761Y-113664761D01*
X67549523Y-113569523D01*
X67454285Y-113521904D01*
X67263809Y-113474285D01*
X67120952Y-113474285D01*
X66930476Y-113521904D01*
X66835238Y-113569523D01*
X66740000Y-113664761D01*
X66692380Y-113807619D01*
X66692380Y-113902857D01*
X66740000Y-114045714D01*
X66787619Y-114093333D01*
X67692380Y-115045714D02*
X67692380Y-114474285D01*
X67692380Y-114760000D02*
X66692380Y-114760000D01*
X66835238Y-114664761D01*
X66930476Y-114569523D01*
X66978095Y-114474285D01*
X83757142Y-107948333D02*
X83804761Y-107900714D01*
X83852380Y-107757857D01*
X83852380Y-107662619D01*
X83804761Y-107519761D01*
X83709523Y-107424523D01*
X83614285Y-107376904D01*
X83423809Y-107329285D01*
X83280952Y-107329285D01*
X83090476Y-107376904D01*
X82995238Y-107424523D01*
X82900000Y-107519761D01*
X82852380Y-107662619D01*
X82852380Y-107757857D01*
X82900000Y-107900714D01*
X82947619Y-107948333D01*
X82947619Y-108329285D02*
X82900000Y-108376904D01*
X82852380Y-108472142D01*
X82852380Y-108710238D01*
X82900000Y-108805476D01*
X82947619Y-108853095D01*
X83042857Y-108900714D01*
X83138095Y-108900714D01*
X83280952Y-108853095D01*
X83852380Y-108281666D01*
X83852380Y-108900714D01*
X73521666Y-97657142D02*
X73569285Y-97704761D01*
X73712142Y-97752380D01*
X73807380Y-97752380D01*
X73950238Y-97704761D01*
X74045476Y-97609523D01*
X74093095Y-97514285D01*
X74140714Y-97323809D01*
X74140714Y-97180952D01*
X74093095Y-96990476D01*
X74045476Y-96895238D01*
X73950238Y-96800000D01*
X73807380Y-96752380D01*
X73712142Y-96752380D01*
X73569285Y-96800000D01*
X73521666Y-96847619D01*
X73188333Y-96752380D02*
X72569285Y-96752380D01*
X72902619Y-97133333D01*
X72759761Y-97133333D01*
X72664523Y-97180952D01*
X72616904Y-97228571D01*
X72569285Y-97323809D01*
X72569285Y-97561904D01*
X72616904Y-97657142D01*
X72664523Y-97704761D01*
X72759761Y-97752380D01*
X73045476Y-97752380D01*
X73140714Y-97704761D01*
X73188333Y-97657142D01*
X67662380Y-98613333D02*
X67186190Y-98280000D01*
X67662380Y-98041904D02*
X66662380Y-98041904D01*
X66662380Y-98422857D01*
X66710000Y-98518095D01*
X66757619Y-98565714D01*
X66852857Y-98613333D01*
X66995714Y-98613333D01*
X67090952Y-98565714D01*
X67138571Y-98518095D01*
X67186190Y-98422857D01*
X67186190Y-98041904D01*
X66757619Y-98994285D02*
X66710000Y-99041904D01*
X66662380Y-99137142D01*
X66662380Y-99375238D01*
X66710000Y-99470476D01*
X66757619Y-99518095D01*
X66852857Y-99565714D01*
X66948095Y-99565714D01*
X67090952Y-99518095D01*
X67662380Y-98946666D01*
X67662380Y-99565714D01*
X69921380Y-98639333D02*
X69445190Y-98306000D01*
X69921380Y-98067904D02*
X68921380Y-98067904D01*
X68921380Y-98448857D01*
X68969000Y-98544095D01*
X69016619Y-98591714D01*
X69111857Y-98639333D01*
X69254714Y-98639333D01*
X69349952Y-98591714D01*
X69397571Y-98544095D01*
X69445190Y-98448857D01*
X69445190Y-98067904D01*
X68921380Y-98972666D02*
X68921380Y-99591714D01*
X69302333Y-99258380D01*
X69302333Y-99401238D01*
X69349952Y-99496476D01*
X69397571Y-99544095D01*
X69492809Y-99591714D01*
X69730904Y-99591714D01*
X69826142Y-99544095D01*
X69873761Y-99496476D01*
X69921380Y-99401238D01*
X69921380Y-99115523D01*
X69873761Y-99020285D01*
X69826142Y-98972666D01*
X97582380Y-90883333D02*
X97106190Y-90550000D01*
X97582380Y-90311904D02*
X96582380Y-90311904D01*
X96582380Y-90692857D01*
X96630000Y-90788095D01*
X96677619Y-90835714D01*
X96772857Y-90883333D01*
X96915714Y-90883333D01*
X97010952Y-90835714D01*
X97058571Y-90788095D01*
X97106190Y-90692857D01*
X97106190Y-90311904D01*
X96915714Y-91740476D02*
X97582380Y-91740476D01*
X96534761Y-91502380D02*
X97249047Y-91264285D01*
X97249047Y-91883333D01*
X97592380Y-109043333D02*
X97116190Y-108710000D01*
X97592380Y-108471904D02*
X96592380Y-108471904D01*
X96592380Y-108852857D01*
X96640000Y-108948095D01*
X96687619Y-108995714D01*
X96782857Y-109043333D01*
X96925714Y-109043333D01*
X97020952Y-108995714D01*
X97068571Y-108948095D01*
X97116190Y-108852857D01*
X97116190Y-108471904D01*
X96592380Y-109948095D02*
X96592380Y-109471904D01*
X97068571Y-109424285D01*
X97020952Y-109471904D01*
X96973333Y-109567142D01*
X96973333Y-109805238D01*
X97020952Y-109900476D01*
X97068571Y-109948095D01*
X97163809Y-109995714D01*
X97401904Y-109995714D01*
X97497142Y-109948095D01*
X97544761Y-109900476D01*
X97592380Y-109805238D01*
X97592380Y-109567142D01*
X97544761Y-109471904D01*
X97497142Y-109424285D01*
X99402380Y-90288095D02*
X100211904Y-90288095D01*
X100307142Y-90335714D01*
X100354761Y-90383333D01*
X100402380Y-90478571D01*
X100402380Y-90669047D01*
X100354761Y-90764285D01*
X100307142Y-90811904D01*
X100211904Y-90859523D01*
X99402380Y-90859523D01*
X100402380Y-91859523D02*
X100402380Y-91288095D01*
X100402380Y-91573809D02*
X99402380Y-91573809D01*
X99545238Y-91478571D01*
X99640476Y-91383333D01*
X99688095Y-91288095D01*
X99372380Y-108368095D02*
X100181904Y-108368095D01*
X100277142Y-108415714D01*
X100324761Y-108463333D01*
X100372380Y-108558571D01*
X100372380Y-108749047D01*
X100324761Y-108844285D01*
X100277142Y-108891904D01*
X100181904Y-108939523D01*
X99372380Y-108939523D01*
X99467619Y-109368095D02*
X99420000Y-109415714D01*
X99372380Y-109510952D01*
X99372380Y-109749047D01*
X99420000Y-109844285D01*
X99467619Y-109891904D01*
X99562857Y-109939523D01*
X99658095Y-109939523D01*
X99800952Y-109891904D01*
X100372380Y-109320476D01*
X100372380Y-109939523D01*
X65811904Y-99362380D02*
X65811904Y-100171904D01*
X65764285Y-100267142D01*
X65716666Y-100314761D01*
X65621428Y-100362380D01*
X65430952Y-100362380D01*
X65335714Y-100314761D01*
X65288095Y-100267142D01*
X65240476Y-100171904D01*
X65240476Y-99362380D01*
X64859523Y-99362380D02*
X64240476Y-99362380D01*
X64573809Y-99743333D01*
X64430952Y-99743333D01*
X64335714Y-99790952D01*
X64288095Y-99838571D01*
X64240476Y-99933809D01*
X64240476Y-100171904D01*
X64288095Y-100267142D01*
X64335714Y-100314761D01*
X64430952Y-100362380D01*
X64716666Y-100362380D01*
X64811904Y-100314761D01*
X64859523Y-100267142D01*
X103237142Y-90893333D02*
X103284761Y-90845714D01*
X103332380Y-90702857D01*
X103332380Y-90607619D01*
X103284761Y-90464761D01*
X103189523Y-90369523D01*
X103094285Y-90321904D01*
X102903809Y-90274285D01*
X102760952Y-90274285D01*
X102570476Y-90321904D01*
X102475238Y-90369523D01*
X102380000Y-90464761D01*
X102332380Y-90607619D01*
X102332380Y-90702857D01*
X102380000Y-90845714D01*
X102427619Y-90893333D01*
X102665714Y-91750476D02*
X103332380Y-91750476D01*
X102284761Y-91512380D02*
X102999047Y-91274285D01*
X102999047Y-91893333D01*
X103357142Y-108953333D02*
X103404761Y-108905714D01*
X103452380Y-108762857D01*
X103452380Y-108667619D01*
X103404761Y-108524761D01*
X103309523Y-108429523D01*
X103214285Y-108381904D01*
X103023809Y-108334285D01*
X102880952Y-108334285D01*
X102690476Y-108381904D01*
X102595238Y-108429523D01*
X102500000Y-108524761D01*
X102452380Y-108667619D01*
X102452380Y-108762857D01*
X102500000Y-108905714D01*
X102547619Y-108953333D01*
X102452380Y-109858095D02*
X102452380Y-109381904D01*
X102928571Y-109334285D01*
X102880952Y-109381904D01*
X102833333Y-109477142D01*
X102833333Y-109715238D01*
X102880952Y-109810476D01*
X102928571Y-109858095D01*
X103023809Y-109905714D01*
X103261904Y-109905714D01*
X103357142Y-109858095D01*
X103404761Y-109810476D01*
X103452380Y-109715238D01*
X103452380Y-109477142D01*
X103404761Y-109381904D01*
X103357142Y-109334285D01*
X65296666Y-97407142D02*
X65344285Y-97454761D01*
X65487142Y-97502380D01*
X65582380Y-97502380D01*
X65725238Y-97454761D01*
X65820476Y-97359523D01*
X65868095Y-97264285D01*
X65915714Y-97073809D01*
X65915714Y-96930952D01*
X65868095Y-96740476D01*
X65820476Y-96645238D01*
X65725238Y-96550000D01*
X65582380Y-96502380D01*
X65487142Y-96502380D01*
X65344285Y-96550000D01*
X65296666Y-96597619D01*
X64439523Y-96502380D02*
X64630000Y-96502380D01*
X64725238Y-96550000D01*
X64772857Y-96597619D01*
X64868095Y-96740476D01*
X64915714Y-96930952D01*
X64915714Y-97311904D01*
X64868095Y-97407142D01*
X64820476Y-97454761D01*
X64725238Y-97502380D01*
X64534761Y-97502380D01*
X64439523Y-97454761D01*
X64391904Y-97407142D01*
X64344285Y-97311904D01*
X64344285Y-97073809D01*
X64391904Y-96978571D01*
X64439523Y-96930952D01*
X64534761Y-96883333D01*
X64725238Y-96883333D01*
X64820476Y-96930952D01*
X64868095Y-96978571D01*
X64915714Y-97073809D01*
X77382666Y-118467142D02*
X77430285Y-118514761D01*
X77573142Y-118562380D01*
X77668380Y-118562380D01*
X77811238Y-118514761D01*
X77906476Y-118419523D01*
X77954095Y-118324285D01*
X78001714Y-118133809D01*
X78001714Y-117990952D01*
X77954095Y-117800476D01*
X77906476Y-117705238D01*
X77811238Y-117610000D01*
X77668380Y-117562380D01*
X77573142Y-117562380D01*
X77430285Y-117610000D01*
X77382666Y-117657619D01*
X77049333Y-117562380D02*
X76382666Y-117562380D01*
X76811238Y-118562380D01*
X95397142Y-90943333D02*
X95444761Y-90895714D01*
X95492380Y-90752857D01*
X95492380Y-90657619D01*
X95444761Y-90514761D01*
X95349523Y-90419523D01*
X95254285Y-90371904D01*
X95063809Y-90324285D01*
X94920952Y-90324285D01*
X94730476Y-90371904D01*
X94635238Y-90419523D01*
X94540000Y-90514761D01*
X94492380Y-90657619D01*
X94492380Y-90752857D01*
X94540000Y-90895714D01*
X94587619Y-90943333D01*
X94920952Y-91514761D02*
X94873333Y-91419523D01*
X94825714Y-91371904D01*
X94730476Y-91324285D01*
X94682857Y-91324285D01*
X94587619Y-91371904D01*
X94540000Y-91419523D01*
X94492380Y-91514761D01*
X94492380Y-91705238D01*
X94540000Y-91800476D01*
X94587619Y-91848095D01*
X94682857Y-91895714D01*
X94730476Y-91895714D01*
X94825714Y-91848095D01*
X94873333Y-91800476D01*
X94920952Y-91705238D01*
X94920952Y-91514761D01*
X94968571Y-91419523D01*
X95016190Y-91371904D01*
X95111428Y-91324285D01*
X95301904Y-91324285D01*
X95397142Y-91371904D01*
X95444761Y-91419523D01*
X95492380Y-91514761D01*
X95492380Y-91705238D01*
X95444761Y-91800476D01*
X95397142Y-91848095D01*
X95301904Y-91895714D01*
X95111428Y-91895714D01*
X95016190Y-91848095D01*
X94968571Y-91800476D01*
X94920952Y-91705238D01*
X95227142Y-108983333D02*
X95274761Y-108935714D01*
X95322380Y-108792857D01*
X95322380Y-108697619D01*
X95274761Y-108554761D01*
X95179523Y-108459523D01*
X95084285Y-108411904D01*
X94893809Y-108364285D01*
X94750952Y-108364285D01*
X94560476Y-108411904D01*
X94465238Y-108459523D01*
X94370000Y-108554761D01*
X94322380Y-108697619D01*
X94322380Y-108792857D01*
X94370000Y-108935714D01*
X94417619Y-108983333D01*
X95322380Y-109459523D02*
X95322380Y-109650000D01*
X95274761Y-109745238D01*
X95227142Y-109792857D01*
X95084285Y-109888095D01*
X94893809Y-109935714D01*
X94512857Y-109935714D01*
X94417619Y-109888095D01*
X94370000Y-109840476D01*
X94322380Y-109745238D01*
X94322380Y-109554761D01*
X94370000Y-109459523D01*
X94417619Y-109411904D01*
X94512857Y-109364285D01*
X94750952Y-109364285D01*
X94846190Y-109411904D01*
X94893809Y-109459523D01*
X94941428Y-109554761D01*
X94941428Y-109745238D01*
X94893809Y-109840476D01*
X94846190Y-109888095D01*
X94750952Y-109935714D01*
X61317142Y-106672142D02*
X61364761Y-106624523D01*
X61412380Y-106481666D01*
X61412380Y-106386428D01*
X61364761Y-106243571D01*
X61269523Y-106148333D01*
X61174285Y-106100714D01*
X60983809Y-106053095D01*
X60840952Y-106053095D01*
X60650476Y-106100714D01*
X60555238Y-106148333D01*
X60460000Y-106243571D01*
X60412380Y-106386428D01*
X60412380Y-106481666D01*
X60460000Y-106624523D01*
X60507619Y-106672142D01*
X61412380Y-107624523D02*
X61412380Y-107053095D01*
X61412380Y-107338809D02*
X60412380Y-107338809D01*
X60555238Y-107243571D01*
X60650476Y-107148333D01*
X60698095Y-107053095D01*
X60507619Y-108005476D02*
X60460000Y-108053095D01*
X60412380Y-108148333D01*
X60412380Y-108386428D01*
X60460000Y-108481666D01*
X60507619Y-108529285D01*
X60602857Y-108576904D01*
X60698095Y-108576904D01*
X60840952Y-108529285D01*
X61412380Y-107957857D01*
X61412380Y-108576904D01*
X68683190Y-106584809D02*
X69159380Y-106584809D01*
X68159380Y-106251476D02*
X68683190Y-106584809D01*
X68159380Y-106918142D01*
X69159380Y-107775285D02*
X69159380Y-107203857D01*
X69159380Y-107489571D02*
X68159380Y-107489571D01*
X68302238Y-107394333D01*
X68397476Y-107299095D01*
X68445095Y-107203857D01*
X75160142Y-124579142D02*
X75207761Y-124531523D01*
X75255380Y-124388666D01*
X75255380Y-124293428D01*
X75207761Y-124150571D01*
X75112523Y-124055333D01*
X75017285Y-124007714D01*
X74826809Y-123960095D01*
X74683952Y-123960095D01*
X74493476Y-124007714D01*
X74398238Y-124055333D01*
X74303000Y-124150571D01*
X74255380Y-124293428D01*
X74255380Y-124388666D01*
X74303000Y-124531523D01*
X74350619Y-124579142D01*
X75255380Y-125531523D02*
X75255380Y-124960095D01*
X75255380Y-125245809D02*
X74255380Y-125245809D01*
X74398238Y-125150571D01*
X74493476Y-125055333D01*
X74541095Y-124960095D01*
X74255380Y-125864857D02*
X74255380Y-126483904D01*
X74636333Y-126150571D01*
X74636333Y-126293428D01*
X74683952Y-126388666D01*
X74731571Y-126436285D01*
X74826809Y-126483904D01*
X75064904Y-126483904D01*
X75160142Y-126436285D01*
X75207761Y-126388666D01*
X75255380Y-126293428D01*
X75255380Y-126007714D01*
X75207761Y-125912476D01*
X75160142Y-125864857D01*
X73166380Y-124476333D02*
X72690190Y-124143000D01*
X73166380Y-123904904D02*
X72166380Y-123904904D01*
X72166380Y-124285857D01*
X72214000Y-124381095D01*
X72261619Y-124428714D01*
X72356857Y-124476333D01*
X72499714Y-124476333D01*
X72594952Y-124428714D01*
X72642571Y-124381095D01*
X72690190Y-124285857D01*
X72690190Y-123904904D01*
X72166380Y-124809666D02*
X72166380Y-125476333D01*
X73166380Y-125047761D01*
M02*
