G04 #@! TF.GenerationSoftware,KiCad,Pcbnew,(5.1.5)-3*
G04 #@! TF.CreationDate,2020-04-01T21:27:11+02:00*
G04 #@! TF.ProjectId,RHS_3,5248535f-332e-46b6-9963-61645f706362,rev?*
G04 #@! TF.SameCoordinates,Original*
G04 #@! TF.FileFunction,Soldermask,Bot*
G04 #@! TF.FilePolarity,Negative*
%FSLAX46Y46*%
G04 Gerber Fmt 4.6, Leading zero omitted, Abs format (unit mm)*
G04 Created by KiCad (PCBNEW (5.1.5)-3) date 2020-04-01 21:27:11*
%MOMM*%
%LPD*%
G04 APERTURE LIST*
%ADD10C,0.100000*%
G04 APERTURE END LIST*
D10*
G36*
X86913512Y-105663927D02*
G01*
X87062812Y-105693624D01*
X87226784Y-105761544D01*
X87374354Y-105860147D01*
X87499853Y-105985646D01*
X87598456Y-106133216D01*
X87666376Y-106297188D01*
X87701000Y-106471259D01*
X87701000Y-106648741D01*
X87666376Y-106822812D01*
X87598456Y-106986784D01*
X87499853Y-107134354D01*
X87374354Y-107259853D01*
X87226784Y-107358456D01*
X87062812Y-107426376D01*
X86913512Y-107456073D01*
X86888742Y-107461000D01*
X86711258Y-107461000D01*
X86686488Y-107456073D01*
X86537188Y-107426376D01*
X86373216Y-107358456D01*
X86225646Y-107259853D01*
X86100147Y-107134354D01*
X86001544Y-106986784D01*
X85933624Y-106822812D01*
X85899000Y-106648741D01*
X85899000Y-106471259D01*
X85933624Y-106297188D01*
X86001544Y-106133216D01*
X86100147Y-105985646D01*
X86225646Y-105860147D01*
X86373216Y-105761544D01*
X86537188Y-105693624D01*
X86686488Y-105663927D01*
X86711258Y-105659000D01*
X86888742Y-105659000D01*
X86913512Y-105663927D01*
G37*
G36*
X89453512Y-105663927D02*
G01*
X89602812Y-105693624D01*
X89766784Y-105761544D01*
X89914354Y-105860147D01*
X90039853Y-105985646D01*
X90138456Y-106133216D01*
X90206376Y-106297188D01*
X90241000Y-106471259D01*
X90241000Y-106648741D01*
X90206376Y-106822812D01*
X90138456Y-106986784D01*
X90039853Y-107134354D01*
X89914354Y-107259853D01*
X89766784Y-107358456D01*
X89602812Y-107426376D01*
X89453512Y-107456073D01*
X89428742Y-107461000D01*
X89251258Y-107461000D01*
X89226488Y-107456073D01*
X89077188Y-107426376D01*
X88913216Y-107358456D01*
X88765646Y-107259853D01*
X88640147Y-107134354D01*
X88541544Y-106986784D01*
X88473624Y-106822812D01*
X88439000Y-106648741D01*
X88439000Y-106471259D01*
X88473624Y-106297188D01*
X88541544Y-106133216D01*
X88640147Y-105985646D01*
X88765646Y-105860147D01*
X88913216Y-105761544D01*
X89077188Y-105693624D01*
X89226488Y-105663927D01*
X89251258Y-105659000D01*
X89428742Y-105659000D01*
X89453512Y-105663927D01*
G37*
G36*
X88953512Y-103123927D02*
G01*
X89102812Y-103153624D01*
X89266784Y-103221544D01*
X89414354Y-103320147D01*
X89539853Y-103445646D01*
X89638456Y-103593216D01*
X89706376Y-103757188D01*
X89741000Y-103931259D01*
X89741000Y-104108741D01*
X89706376Y-104282812D01*
X89638456Y-104446784D01*
X89539853Y-104594354D01*
X89414354Y-104719853D01*
X89266784Y-104818456D01*
X89102812Y-104886376D01*
X88953512Y-104916073D01*
X88928742Y-104921000D01*
X88751258Y-104921000D01*
X88726488Y-104916073D01*
X88577188Y-104886376D01*
X88413216Y-104818456D01*
X88265646Y-104719853D01*
X88140147Y-104594354D01*
X88041544Y-104446784D01*
X87973624Y-104282812D01*
X87939000Y-104108741D01*
X87939000Y-103931259D01*
X87973624Y-103757188D01*
X88041544Y-103593216D01*
X88140147Y-103445646D01*
X88265646Y-103320147D01*
X88413216Y-103221544D01*
X88577188Y-103153624D01*
X88726488Y-103123927D01*
X88751258Y-103119000D01*
X88928742Y-103119000D01*
X88953512Y-103123927D01*
G37*
G36*
X86413512Y-103123927D02*
G01*
X86562812Y-103153624D01*
X86726784Y-103221544D01*
X86874354Y-103320147D01*
X86999853Y-103445646D01*
X87098456Y-103593216D01*
X87166376Y-103757188D01*
X87201000Y-103931259D01*
X87201000Y-104108741D01*
X87166376Y-104282812D01*
X87098456Y-104446784D01*
X86999853Y-104594354D01*
X86874354Y-104719853D01*
X86726784Y-104818456D01*
X86562812Y-104886376D01*
X86413512Y-104916073D01*
X86388742Y-104921000D01*
X86211258Y-104921000D01*
X86186488Y-104916073D01*
X86037188Y-104886376D01*
X85873216Y-104818456D01*
X85725646Y-104719853D01*
X85600147Y-104594354D01*
X85501544Y-104446784D01*
X85433624Y-104282812D01*
X85399000Y-104108741D01*
X85399000Y-103931259D01*
X85433624Y-103757188D01*
X85501544Y-103593216D01*
X85600147Y-103445646D01*
X85725646Y-103320147D01*
X85873216Y-103221544D01*
X86037188Y-103153624D01*
X86186488Y-103123927D01*
X86211258Y-103119000D01*
X86388742Y-103119000D01*
X86413512Y-103123927D01*
G37*
G36*
X86913512Y-100583927D02*
G01*
X87062812Y-100613624D01*
X87226784Y-100681544D01*
X87374354Y-100780147D01*
X87499853Y-100905646D01*
X87598456Y-101053216D01*
X87666376Y-101217188D01*
X87701000Y-101391259D01*
X87701000Y-101568741D01*
X87666376Y-101742812D01*
X87598456Y-101906784D01*
X87499853Y-102054354D01*
X87374354Y-102179853D01*
X87226784Y-102278456D01*
X87062812Y-102346376D01*
X86913512Y-102376073D01*
X86888742Y-102381000D01*
X86711258Y-102381000D01*
X86686488Y-102376073D01*
X86537188Y-102346376D01*
X86373216Y-102278456D01*
X86225646Y-102179853D01*
X86100147Y-102054354D01*
X86001544Y-101906784D01*
X85933624Y-101742812D01*
X85899000Y-101568741D01*
X85899000Y-101391259D01*
X85933624Y-101217188D01*
X86001544Y-101053216D01*
X86100147Y-100905646D01*
X86225646Y-100780147D01*
X86373216Y-100681544D01*
X86537188Y-100613624D01*
X86686488Y-100583927D01*
X86711258Y-100579000D01*
X86888742Y-100579000D01*
X86913512Y-100583927D01*
G37*
G36*
X89453512Y-100583927D02*
G01*
X89602812Y-100613624D01*
X89766784Y-100681544D01*
X89914354Y-100780147D01*
X90039853Y-100905646D01*
X90138456Y-101053216D01*
X90206376Y-101217188D01*
X90241000Y-101391259D01*
X90241000Y-101568741D01*
X90206376Y-101742812D01*
X90138456Y-101906784D01*
X90039853Y-102054354D01*
X89914354Y-102179853D01*
X89766784Y-102278456D01*
X89602812Y-102346376D01*
X89453512Y-102376073D01*
X89428742Y-102381000D01*
X89251258Y-102381000D01*
X89226488Y-102376073D01*
X89077188Y-102346376D01*
X88913216Y-102278456D01*
X88765646Y-102179853D01*
X88640147Y-102054354D01*
X88541544Y-101906784D01*
X88473624Y-101742812D01*
X88439000Y-101568741D01*
X88439000Y-101391259D01*
X88473624Y-101217188D01*
X88541544Y-101053216D01*
X88640147Y-100905646D01*
X88765646Y-100780147D01*
X88913216Y-100681544D01*
X89077188Y-100613624D01*
X89226488Y-100583927D01*
X89251258Y-100579000D01*
X89428742Y-100579000D01*
X89453512Y-100583927D01*
G37*
G36*
X86413512Y-98043927D02*
G01*
X86562812Y-98073624D01*
X86726784Y-98141544D01*
X86874354Y-98240147D01*
X86999853Y-98365646D01*
X87098456Y-98513216D01*
X87166376Y-98677188D01*
X87201000Y-98851259D01*
X87201000Y-99028741D01*
X87166376Y-99202812D01*
X87098456Y-99366784D01*
X86999853Y-99514354D01*
X86874354Y-99639853D01*
X86726784Y-99738456D01*
X86562812Y-99806376D01*
X86413512Y-99836073D01*
X86388742Y-99841000D01*
X86211258Y-99841000D01*
X86186488Y-99836073D01*
X86037188Y-99806376D01*
X85873216Y-99738456D01*
X85725646Y-99639853D01*
X85600147Y-99514354D01*
X85501544Y-99366784D01*
X85433624Y-99202812D01*
X85399000Y-99028741D01*
X85399000Y-98851259D01*
X85433624Y-98677188D01*
X85501544Y-98513216D01*
X85600147Y-98365646D01*
X85725646Y-98240147D01*
X85873216Y-98141544D01*
X86037188Y-98073624D01*
X86186488Y-98043927D01*
X86211258Y-98039000D01*
X86388742Y-98039000D01*
X86413512Y-98043927D01*
G37*
G36*
X88953512Y-98043927D02*
G01*
X89102812Y-98073624D01*
X89266784Y-98141544D01*
X89414354Y-98240147D01*
X89539853Y-98365646D01*
X89638456Y-98513216D01*
X89706376Y-98677188D01*
X89741000Y-98851259D01*
X89741000Y-99028741D01*
X89706376Y-99202812D01*
X89638456Y-99366784D01*
X89539853Y-99514354D01*
X89414354Y-99639853D01*
X89266784Y-99738456D01*
X89102812Y-99806376D01*
X88953512Y-99836073D01*
X88928742Y-99841000D01*
X88751258Y-99841000D01*
X88726488Y-99836073D01*
X88577188Y-99806376D01*
X88413216Y-99738456D01*
X88265646Y-99639853D01*
X88140147Y-99514354D01*
X88041544Y-99366784D01*
X87973624Y-99202812D01*
X87939000Y-99028741D01*
X87939000Y-98851259D01*
X87973624Y-98677188D01*
X88041544Y-98513216D01*
X88140147Y-98365646D01*
X88265646Y-98240147D01*
X88413216Y-98141544D01*
X88577188Y-98073624D01*
X88726488Y-98043927D01*
X88751258Y-98039000D01*
X88928742Y-98039000D01*
X88953512Y-98043927D01*
G37*
G36*
X89453512Y-95503927D02*
G01*
X89602812Y-95533624D01*
X89766784Y-95601544D01*
X89914354Y-95700147D01*
X90039853Y-95825646D01*
X90138456Y-95973216D01*
X90206376Y-96137188D01*
X90241000Y-96311259D01*
X90241000Y-96488741D01*
X90206376Y-96662812D01*
X90138456Y-96826784D01*
X90039853Y-96974354D01*
X89914354Y-97099853D01*
X89766784Y-97198456D01*
X89602812Y-97266376D01*
X89453512Y-97296073D01*
X89428742Y-97301000D01*
X89251258Y-97301000D01*
X89226488Y-97296073D01*
X89077188Y-97266376D01*
X88913216Y-97198456D01*
X88765646Y-97099853D01*
X88640147Y-96974354D01*
X88541544Y-96826784D01*
X88473624Y-96662812D01*
X88439000Y-96488741D01*
X88439000Y-96311259D01*
X88473624Y-96137188D01*
X88541544Y-95973216D01*
X88640147Y-95825646D01*
X88765646Y-95700147D01*
X88913216Y-95601544D01*
X89077188Y-95533624D01*
X89226488Y-95503927D01*
X89251258Y-95499000D01*
X89428742Y-95499000D01*
X89453512Y-95503927D01*
G37*
G36*
X87701000Y-97301000D02*
G01*
X85899000Y-97301000D01*
X85899000Y-95499000D01*
X87701000Y-95499000D01*
X87701000Y-97301000D01*
G37*
G36*
X89801000Y-92601000D02*
G01*
X87999000Y-92601000D01*
X87999000Y-90799000D01*
X89801000Y-90799000D01*
X89801000Y-92601000D01*
G37*
G36*
X89513512Y-88263927D02*
G01*
X89662812Y-88293624D01*
X89826784Y-88361544D01*
X89974354Y-88460147D01*
X90099853Y-88585646D01*
X90198456Y-88733216D01*
X90266376Y-88897188D01*
X90301000Y-89071259D01*
X90301000Y-89248741D01*
X90266376Y-89422812D01*
X90198456Y-89586784D01*
X90099853Y-89734354D01*
X89974354Y-89859853D01*
X89826784Y-89958456D01*
X89662812Y-90026376D01*
X89513512Y-90056073D01*
X89488742Y-90061000D01*
X89311258Y-90061000D01*
X89286488Y-90056073D01*
X89137188Y-90026376D01*
X88973216Y-89958456D01*
X88825646Y-89859853D01*
X88700147Y-89734354D01*
X88601544Y-89586784D01*
X88533624Y-89422812D01*
X88499000Y-89248741D01*
X88499000Y-89071259D01*
X88533624Y-88897188D01*
X88601544Y-88733216D01*
X88700147Y-88585646D01*
X88825646Y-88460147D01*
X88973216Y-88361544D01*
X89137188Y-88293624D01*
X89286488Y-88263927D01*
X89311258Y-88259000D01*
X89488742Y-88259000D01*
X89513512Y-88263927D01*
G37*
G36*
X89013512Y-85723927D02*
G01*
X89162812Y-85753624D01*
X89326784Y-85821544D01*
X89474354Y-85920147D01*
X89599853Y-86045646D01*
X89698456Y-86193216D01*
X89766376Y-86357188D01*
X89801000Y-86531259D01*
X89801000Y-86708741D01*
X89766376Y-86882812D01*
X89698456Y-87046784D01*
X89599853Y-87194354D01*
X89474354Y-87319853D01*
X89326784Y-87418456D01*
X89162812Y-87486376D01*
X89013512Y-87516073D01*
X88988742Y-87521000D01*
X88811258Y-87521000D01*
X88786488Y-87516073D01*
X88637188Y-87486376D01*
X88473216Y-87418456D01*
X88325646Y-87319853D01*
X88200147Y-87194354D01*
X88101544Y-87046784D01*
X88033624Y-86882812D01*
X87999000Y-86708741D01*
X87999000Y-86531259D01*
X88033624Y-86357188D01*
X88101544Y-86193216D01*
X88200147Y-86045646D01*
X88325646Y-85920147D01*
X88473216Y-85821544D01*
X88637188Y-85753624D01*
X88786488Y-85723927D01*
X88811258Y-85719000D01*
X88988742Y-85719000D01*
X89013512Y-85723927D01*
G37*
G36*
X89513512Y-83183927D02*
G01*
X89662812Y-83213624D01*
X89826784Y-83281544D01*
X89974354Y-83380147D01*
X90099853Y-83505646D01*
X90198456Y-83653216D01*
X90266376Y-83817188D01*
X90301000Y-83991259D01*
X90301000Y-84168741D01*
X90266376Y-84342812D01*
X90198456Y-84506784D01*
X90099853Y-84654354D01*
X89974354Y-84779853D01*
X89826784Y-84878456D01*
X89662812Y-84946376D01*
X89513512Y-84976073D01*
X89488742Y-84981000D01*
X89311258Y-84981000D01*
X89286488Y-84976073D01*
X89137188Y-84946376D01*
X88973216Y-84878456D01*
X88825646Y-84779853D01*
X88700147Y-84654354D01*
X88601544Y-84506784D01*
X88533624Y-84342812D01*
X88499000Y-84168741D01*
X88499000Y-83991259D01*
X88533624Y-83817188D01*
X88601544Y-83653216D01*
X88700147Y-83505646D01*
X88825646Y-83380147D01*
X88973216Y-83281544D01*
X89137188Y-83213624D01*
X89286488Y-83183927D01*
X89311258Y-83179000D01*
X89488742Y-83179000D01*
X89513512Y-83183927D01*
G37*
G36*
X89013512Y-80643927D02*
G01*
X89162812Y-80673624D01*
X89326784Y-80741544D01*
X89474354Y-80840147D01*
X89599853Y-80965646D01*
X89698456Y-81113216D01*
X89766376Y-81277188D01*
X89801000Y-81451259D01*
X89801000Y-81628741D01*
X89766376Y-81802812D01*
X89698456Y-81966784D01*
X89599853Y-82114354D01*
X89474354Y-82239853D01*
X89326784Y-82338456D01*
X89162812Y-82406376D01*
X89013512Y-82436073D01*
X88988742Y-82441000D01*
X88811258Y-82441000D01*
X88786488Y-82436073D01*
X88637188Y-82406376D01*
X88473216Y-82338456D01*
X88325646Y-82239853D01*
X88200147Y-82114354D01*
X88101544Y-81966784D01*
X88033624Y-81802812D01*
X87999000Y-81628741D01*
X87999000Y-81451259D01*
X88033624Y-81277188D01*
X88101544Y-81113216D01*
X88200147Y-80965646D01*
X88325646Y-80840147D01*
X88473216Y-80741544D01*
X88637188Y-80673624D01*
X88786488Y-80643927D01*
X88811258Y-80639000D01*
X88988742Y-80639000D01*
X89013512Y-80643927D01*
G37*
G36*
X89513512Y-78103927D02*
G01*
X89662812Y-78133624D01*
X89826784Y-78201544D01*
X89974354Y-78300147D01*
X90099853Y-78425646D01*
X90198456Y-78573216D01*
X90266376Y-78737188D01*
X90301000Y-78911259D01*
X90301000Y-79088741D01*
X90266376Y-79262812D01*
X90198456Y-79426784D01*
X90099853Y-79574354D01*
X89974354Y-79699853D01*
X89826784Y-79798456D01*
X89662812Y-79866376D01*
X89513512Y-79896073D01*
X89488742Y-79901000D01*
X89311258Y-79901000D01*
X89286488Y-79896073D01*
X89137188Y-79866376D01*
X88973216Y-79798456D01*
X88825646Y-79699853D01*
X88700147Y-79574354D01*
X88601544Y-79426784D01*
X88533624Y-79262812D01*
X88499000Y-79088741D01*
X88499000Y-78911259D01*
X88533624Y-78737188D01*
X88601544Y-78573216D01*
X88700147Y-78425646D01*
X88825646Y-78300147D01*
X88973216Y-78201544D01*
X89137188Y-78133624D01*
X89286488Y-78103927D01*
X89311258Y-78099000D01*
X89488742Y-78099000D01*
X89513512Y-78103927D01*
G37*
G36*
X82391000Y-73651000D02*
G01*
X80289000Y-73651000D01*
X80289000Y-69549000D01*
X82391000Y-69549000D01*
X82391000Y-73651000D01*
G37*
G36*
X92551000Y-73651000D02*
G01*
X90449000Y-73651000D01*
X90449000Y-69549000D01*
X92551000Y-69549000D01*
X92551000Y-73651000D01*
G37*
G36*
X90011000Y-73651000D02*
G01*
X87909000Y-73651000D01*
X87909000Y-69549000D01*
X90011000Y-69549000D01*
X90011000Y-73651000D01*
G37*
G36*
X87471000Y-73651000D02*
G01*
X85369000Y-73651000D01*
X85369000Y-69549000D01*
X87471000Y-69549000D01*
X87471000Y-73651000D01*
G37*
G36*
X84931000Y-73651000D02*
G01*
X82829000Y-73651000D01*
X82829000Y-69549000D01*
X84931000Y-69549000D01*
X84931000Y-73651000D01*
G37*
M02*
